<?xml version="1.0" standalone="no"?>
<!DOCTYPE svg PUBLIC "-//W3C//DTD SVG 20010904//EN"
 "http://www.w3.org/TR/2001/REC-SVG-20010904/DTD/svg10.dtd">
<svg version="1.0" xmlns="http://www.w3.org/2000/svg"
 width="700.000000pt" height="700.000000pt" viewBox="0 0 700.000000 700.000000"
 preserveAspectRatio="xMidYMid meet">
<metadata>
Created by potrace 1.11, written by Peter Selinger 2001-2013
</metadata>
<g transform="translate(0.000000,700.000000) scale(0.100000,-0.100000)"
fill="#000000" stroke="none">
<path d="M2647 6934 c-1 -1 -33 -5 -70 -9 -37 -3 -78 -8 -90 -11 -12 -2 -35
-7 -52 -10 -54 -9 -186 -45 -228 -61 -524 -197 -880 -614 -1086 -1273 -29 -91
-85 -313 -95 -375 -3 -16 -12 -70 -20 -120 -16 -90 -19 -117 -31 -230 -4 -33
-8 -67 -10 -75 -25 -100 -25 -806 0 -1065 2 -22 7 -71 10 -110 11 -121 21
-207 29 -255 3 -14 7 -47 11 -75 9 -77 35 -235 46 -284 5 -24 11 -56 13 -70 2
-14 13 -71 25 -126 117 -570 311 -1165 524 -1615 22 -47 41 -87 42 -90 6 -27
170 -329 248 -456 113 -186 279 -413 403 -549 l45 -50 -32 65 c-17 36 -35 74
-40 85 -4 11 -19 45 -32 75 -63 144 -148 441 -163 568 -3 31 -8 60 -10 63 -9
15 -18 177 -18 314 0 138 7 264 19 340 12 70 37 193 47 230 6 22 12 45 14 50
1 6 12 44 24 85 150 493 481 1013 930 1460 113 113 203 193 448 403 100 86
199 171 220 189 72 62 268 264 313 323 205 267 290 516 291 853 0 120 -3 160
-27 322 -41 277 -157 569 -313 789 -270 381 -680 629 -1133 687 -45 6 -247 12
-252 8z"/>
<path d="M5064 2974 c-284 -61 -460 -188 -795 -574 -193 -223 -384 -518 -480
-739 -110 -255 -112 -466 -4 -568 77 -73 259 -121 440 -117 84 2 218 12 248
19 12 2 39 7 60 10 345 48 833 227 1092 400 354 237 508 672 372 1051 -86 238
-296 431 -548 505 -91 26 -292 33 -385 13z"/>
</g>
</svg>
