<?xml version="1.0" encoding="utf-8"?>
<!-- Generator: Adobe Illustrator 24.1.2, SVG Export Plug-In . SVG Version: 6.00 Build 0)  -->
<svg version="1.1" id="Layer_1" xmlns="http://www.w3.org/2000/svg" xmlns:xlink="http://www.w3.org/1999/xlink" x="0px" y="0px"
	 viewBox="0 0 950 730" style="enable-background:new 0 0 950 730;" xml:space="preserve">
<style type="text/css">
	.st0{fill:none;stroke:#1A1A1A;stroke-width:0.75;stroke-miterlimit:10;}
</style>
<g>
	<path class="st0" d="M456.6,666.9c-47.5-17.1-97.9-7.3-142.2,8.8c-44.3,16.1-86.1,38.4-133.4,46.6c-47.2,8.2-103.2-0.8-138.6-37.7
		c-37.4-39-41-96.9-30.3-145.3c10.6-48.4,32.9-93.1,38.7-142.7c7.2-61.6-11.3-126.4-5.7-188.3C52.1,132,97.7,64,164.7,30
		c67.1-34,154.1-33.3,228.1,1.8C443.5,56,487.9,94.9,540.7,113c75.3,25.7,155.2,4.8,231.5,25.7c90.5,24.8,164.8,113.4,170.5,203.4
		c5.8,90-57.5,172.7-145.3,189.9c-63.2,12.4-138.6-4.6-188.6,32.5c-25.4,18.9-36,38-58.2,60.3c-13.9,14-28.2,28.3-46.6,36.4
		C485.5,669.3,477,674.2,456.6,666.9z"/>
	<path class="st0" d="M453.3,657.8c19.8,7.1,28.1,2.3,45.9-5.6c17.9-7.9,31.7-21.8,45.2-35.3c20.3-20.4,30.6-38,52.2-55.3
		c1.4-1.1,2.8-2.2,4.3-3.3c48.5-36,121.6-19.7,182.9-31.8c17.6-3.5,34.2-9.6,49.3-18c58.3-32.2,96.1-97,91.5-166.4
		c-5.6-87.2-77.6-173-165.2-197c-73.9-20.3-151.3,0-224.2-24.9c-51.1-17.5-94.1-55.2-143.2-78.5C337.7,15.9,276.4,9.3,221.6,21.9
		C203.9,25.9,186.9,32,171,40.1C106,73.1,61.8,139,55.1,212.9c-5.5,60,12.4,122.8,5.4,182.5c-5.7,48.1-27.2,91.4-37.6,138.3
		C12.5,580.6,16,636.8,52.2,674.6c34.2,35.8,88.5,44.5,134.2,36.6c45.7-7.9,86.3-29.4,129.2-45C358.4,650.7,407.2,641.2,453.3,657.8
		z"/>
	<path class="st0" d="M449.9,648.6c19.2,6.9,27.2,2.2,44.5-5.4c17.3-7.7,30.8-21.1,43.8-34.3c19.6-19.8,29.6-36.9,50.6-53.6
		c1.3-1.1,2.7-2.1,4.1-3.2c47-35,117.8-19.3,177.2-31.1c17-3.4,33.1-9.4,47.8-17.5c56.5-31.3,93.1-94.1,88.6-161.4
		c-5.5-84.4-75.1-167.4-159.9-190.7c-71.5-19.7-146.4-0.1-217-24.2c-49.4-16.9-91.1-53.3-138.6-75.9
		c-52.5-24.8-111.8-31.1-164.8-18.9c-17.2,4-33.7,9.8-49,17.7C114.3,82.2,71.6,146,65,217.5c-5.3,58.1,11.9,118.9,5,176.7
		c-5.5,46.6-26.4,88.5-36.4,133.9c-10,45.4-6.7,99.9,28.2,136.5c33.1,34.6,85.5,43.1,129.8,35.6c44.2-7.6,83.5-28.3,125-43.4
		C358.1,641.8,405.3,632.6,449.9,648.6z"/>
	<path class="st0" d="M446.5,639.5c18.6,6.6,26.4,2.1,43.1-5.3c16.8-7.4,29.8-20.4,42.5-33.2c19-19.2,28.7-35.7,49-52
		c1.3-1,2.6-2.1,4-3.1c45.5-33.9,114-18.9,171.5-30.4c16.5-3.3,32-9.1,46.3-17c54.7-30.4,90.1-91.2,85.6-156.4
		c-5.3-81.5-72.6-161.7-154.6-184.3c-69.1-19-141.5-0.1-209.7-23.4c-47.8-16.3-88-51.5-134-73.2c-50.7-23.9-108.1-29.9-159.3-18
		c-16.6,3.8-32.5,9.6-47.4,17.1C122.7,91.3,81.3,153,74.9,222.2c-5.2,56.2,11.4,115,4.7,170.9c-5.4,45-25.6,85.6-35.3,129.5
		c-9.7,44-6.6,96.6,27.2,132.1c32,33.5,82.6,41.8,125.3,34.5c42.7-7.3,80.7-27.3,120.8-41.8C357.8,632.9,403.4,624,446.5,639.5z"/>
	<path class="st0" d="M443.1,630.3c18,6.4,25.5,2,41.7-5.2c16.2-7.2,28.8-19.8,41.1-32.2c18.4-18.5,27.8-34.6,47.4-50.3
		c1.2-1,2.5-2,3.9-3c44-32.8,110.2-18.5,165.7-29.7c15.9-3.2,31-8.9,44.7-16.6c52.9-29.5,87-88.3,82.7-151.4
		c-5.4-78.7-70.1-156.1-149.3-177.9c-66.7-18.4-136.6-0.2-202.5-22.6c-46.1-15.7-85-49.6-129.3-70.6c-49-23-104.4-28.7-153.9-17.2
		c-16,3.7-31.4,9.3-45.8,16.6C131,100.4,91.1,160,84.8,226.8c-5.1,54.2,10.9,111.1,4.4,165C84,435.4,64.5,474.6,55.1,517
		c-9.4,42.5-6.4,93.4,26.1,127.7c30.8,32.4,79.7,40.4,120.9,33.4c41.2-7,77.9-26.2,116.6-40.2C357.4,624,401.5,615.5,443.1,630.3z"
		/>
	<path class="st0" d="M439.8,621.2c17.3,6.1,24.7,1.9,40.3-5c15.7-7,27.9-19.1,39.7-31.1c17.8-17.9,26.9-33.5,45.8-48.7
		c1.2-1,2.4-1.9,3.7-2.9c42.5-31.8,106.4-18.1,160-29.1c15.4-3.1,29.9-8.6,43.2-16.1c51.1-28.5,84-85.4,79.8-146.4
		c-5.3-75.9-67.7-150.5-143.9-171.5c-64.3-17.7-131.7-0.3-195.2-21.9c-44.5-15.1-81.9-47.8-124.7-67.9
		c-47.3-22.1-100.7-27.5-148.4-16.3c-15.4,3.6-30.3,9-44.1,16.1c-56.6,29-95.2,86.6-101.2,151c-4.9,52.3,10.4,107.2,4.1,159.2
		c-5.1,42-23.9,79.8-33,120.8c-9.1,41-6.3,90.1,25.1,123.3c29.7,31.2,76.7,39,116.5,32.3c39.8-6.6,75.1-25.2,112.4-38.6
		C357.1,615.1,399.6,606.9,439.8,621.2z"/>
	<path class="st0" d="M436.4,612.1c16.7,5.9,23.8,1.8,38.9-4.9c15.1-6.7,26.9-18.5,38.3-30c17.1-17.3,25.9-32.3,44.2-47
		c1.2-0.9,2.4-1.9,3.6-2.8c41-30.7,102.6-17.7,154.3-28.4c14.8-3.1,28.8-8.4,41.7-15.6c49.3-27.6,81-82.5,76.9-141.4
		c-5.2-73.1-65.2-144.9-138.6-165.1c-61.9-17.1-126.8-0.3-187.9-21.1c-42.8-14.6-78.9-46-120.1-65.3c-45.6-21.3-97-26.3-142.9-15.5
		c-14.9,3.5-29.2,8.7-42.5,15.5c-54.5,28-91.6,83.5-97.5,145.6c-4.8,50.4,9.9,103.3,3.7,153.4c-4.9,40.5-23.1,76.9-31.9,116.4
		c-8.8,39.5-6.2,86.9,24,118.9c28.5,30.1,73.8,37.6,112,31.3c38.3-6.3,72.2-24.1,108.2-37C356.8,606.2,397.7,598.4,436.4,612.1z"/>
	<path class="st0" d="M433,602.9c16.1,5.7,23,1.7,37.5-4.8c14.6-6.5,25.9-17.8,36.9-29c16.5-16.7,25-31.2,42.6-45.3
		c1.1-0.9,2.3-1.8,3.5-2.7c39.5-29.7,98.8-17.3,148.6-27.7c14.3-3,27.8-8.1,40.1-15.1c47.5-26.7,78-79.6,73.9-136.4
		c-5.1-70.2-62.7-139.2-133.3-158.7c-59.6-16.5-121.9-0.4-180.7-20.3c-41.2-14-75.8-44.2-115.5-62.6
		c-43.8-20.4-93.3-25.1-137.5-14.6c-14.3,3.4-28,8.4-40.8,15c-52.4,27-88.1,80.4-93.9,140.1c-4.7,48.5,9.3,99.3,3.4,147.6
		c-4.8,38.9-22.2,74-30.7,112c-8.5,38.1-6.1,83.7,23,114.5c27.3,29,70.9,36.2,107.6,30.2c36.8-6,69.4-23,104.1-35.4
		C356.5,597.3,395.8,589.8,433,602.9z"/>
	<path class="st0" d="M429.6,593.8c15.5,5.4,22.2,1.6,36.1-4.6c14-6.3,24.9-17.2,35.6-27.9c15.9-16,24.1-30,41-43.7
		c1.1-0.9,2.2-1.7,3.3-2.6c38-28.6,95-16.9,142.9-27c13.7-2.9,26.7-7.9,38.6-14.6c45.7-25.8,75-76.7,71-131.4
		c-5-67.4-60.2-133.6-128-152.4c-57.2-15.8-117-0.4-173.4-19.5c-39.5-13.4-72.8-42.4-110.8-60c-42.1-19.5-89.6-23.9-132-13.8
		c-13.7,3.3-26.9,8.1-39.2,14.5c-50.3,26.1-84.6,77.3-90.2,134.7c-4.5,46.6,8.8,95.4,3.1,141.8c-4.6,37.4-21.4,71.1-29.6,107.6
		c-8.2,36.6-5.9,80.4,21.9,110.1c26.2,27.9,67.9,34.9,103.2,29.1c35.3-5.7,66.6-22,99.9-33.8C356.2,588.4,393.9,581.3,429.6,593.8z"
		/>
	<path class="st0" d="M426.3,584.6c14.9,5.2,21.3,1.5,34.7-4.5c13.5-6,24-16.5,34.2-26.9c15.3-15.4,23.1-28.9,39.4-42
		c1-0.8,2.1-1.7,3.2-2.5c36.5-27.6,91.2-16.5,137.2-26.3c13.2-2.8,25.6-7.6,37.1-14.1c43.9-24.9,72-73.8,68.1-126.4
		c-4.9-64.6-57.7-128-122.7-146c-54.8-15.2-112.1-0.5-166.1-18.8c-37.9-12.8-69.8-40.5-106.2-57.3c-40.4-18.6-85.9-22.8-126.5-12.9
		c-13.1,3.2-25.8,7.8-37.6,14c-48.2,25.1-81.1,74.2-86.5,129.2c-4.4,44.7,8.3,91.5,2.8,136c-4.5,35.9-20.6,68.2-28.4,103.2
		c-7.9,35.1-5.8,77.2,20.9,105.7c25,26.7,65,33.5,98.8,28c33.8-5.4,63.8-20.9,95.7-32.2C355.8,579.5,392,572.7,426.3,584.6z"/>
	<path class="st0" d="M422.9,575.5c14.3,4.9,20.5,1.4,33.3-4.4c12.9-5.8,23-15.9,32.8-25.8c14.6-14.8,22.2-27.7,37.8-40.3
		c1-0.8,2-1.6,3.1-2.4c35-26.5,87.4-16.1,131.5-25.7c12.6-2.7,24.6-7.4,35.5-13.6c42.1-23.9,69-70.9,65.1-121.4
		c-4.7-61.7-55.3-122.4-117.3-139.6c-52.4-14.5-107.2-0.5-158.9-18c-36.2-12.2-66.7-38.7-101.6-54.7c-38.7-17.8-82.2-21.6-121-12.1
		c-12.6,3.1-24.7,7.5-35.9,13.4c-46.1,24.1-77.6,71.1-82.9,123.8c-4.3,42.8,7.8,87.6,2.5,130.2c-4.3,34.3-19.7,65.3-27.3,98.8
		c-7.6,33.6-5.7,73.9,19.8,101.2c23.9,25.6,62.1,32.1,94.3,27c32.3-5.1,61-19.8,91.5-30.6C355.5,570.6,390.1,564.2,422.9,575.5z"/>
	<path class="st0" d="M419.5,566.4c13.7,4.7,19.6,1.3,31.9-4.2c12.4-5.6,22-15.2,31.4-24.7c14-14.2,21.3-26.6,36.2-38.7
		c0.9-0.8,1.9-1.5,2.9-2.3c33.5-25.4,83.6-15.7,125.8-25c12.1-2.7,23.5-7.1,34-13.1c40.3-23,66-68,62.2-116.4
		c-4.6-58.9-52.8-116.7-112-133.2c-50-13.9-102.3-0.6-151.6-17.2c-34.6-11.6-63.7-36.8-96.9-52c-36.9-16.9-78.5-20.4-115.6-11.3
		c-12,3-23.5,7.2-34.3,12.9c-44,23.1-74.1,68-79.2,118.4c-4.1,40.9,7.3,83.7,2.1,124.3c-4.2,32.8-18.9,62.4-26.2,94.4
		c-7.3,32.2-5.5,70.7,18.7,96.8c22.7,24.5,59.2,30.7,89.9,25.9c30.8-4.8,58.2-18.8,87.3-29C355.2,561.7,388.2,555.6,419.5,566.4z"/>
	<path class="st0" d="M416.1,557.2c13.1,4.5,18.8,1.2,30.5-4.1c11.8-5.4,21.1-14.6,30-23.7c13.4-13.6,20.4-25.4,34.6-37
		c0.9-0.7,1.8-1.5,2.8-2.2c31.9-24.4,79.8-15.3,120-24.3c11.6-2.6,22.5-6.9,32.5-12.6c38.5-22.1,63-65.1,59.3-111.4
		c-4.5-56.1-50.3-111.1-106.7-126.8c-47.6-13.3-97.4-0.7-144.4-16.5c-32.9-11.1-60.6-35-92.3-49.4c-35.2-16-74.8-19.2-110.1-10.4
		c-11.4,2.8-22.4,7-32.7,12.4c-41.9,22.1-70.6,65-75.5,112.9c-4,39,6.8,79.8,1.8,118.5c-4,31.3-18.1,59.5-25,90
		c-7,30.7-5.4,67.5,17.7,92.4c21.6,23.4,56.2,29.4,85.5,24.8c29.3-4.5,55.4-17.7,83.1-27.4C354.9,552.8,386.3,547,416.1,557.2z"/>
	<path class="st0" d="M412.8,548.1c12.4,4.2,17.9,1.1,29.1-4c11.3-5.1,20.1-13.9,28.7-22.6c12.7-12.9,19.4-24.3,33-35.4
		c0.9-0.7,1.8-1.4,2.7-2.1c30.4-23.3,76-14.9,114.3-23.6c11-2.5,21.4-6.6,30.9-12.1c36.7-21.2,60-62.2,56.3-106.4
		c-4.4-53.3-47.8-105.5-101.4-120.5c-45.2-12.6-92.5-0.7-137.1-15.7c-31.3-10.5-57.6-33.2-87.7-46.8c-33.5-15.1-71.1-18-104.6-9.6
		c-10.9,2.7-21.3,6.7-31,11.8c-39.8,21.1-67.1,61.9-71.9,107.5c-3.9,37,6.3,75.8,1.5,112.7c-3.9,29.7-17.2,56.6-23.9,85.6
		c-6.7,29.2-5.3,64.2,16.6,88c20.5,22.2,53.3,28,81,23.7c27.8-4.2,52.6-16.7,78.9-25.8C354.6,543.9,384.4,538.5,412.8,548.1z"/>
	<path class="st0" d="M409.4,538.9c11.8,4,17.1,0.9,27.7-3.8c10.7-4.9,19.1-13.3,27.3-21.5c12.1-12.3,18.5-23.2,31.4-33.7
		c0.8-0.7,1.7-1.4,2.5-2c28.9-22.3,72.2-14.5,108.6-22.9c10.5-2.4,20.3-6.4,29.4-11.6c34.9-20.3,57-59.3,53.4-101.4
		c-4.3-50.4-45.4-99.9-96.1-114.1c-42.8-12-87.6-0.8-129.8-14.9c-29.6-9.9-54.5-31.3-83-44.1c-31.8-14.2-67.4-16.8-99.2-8.7
		c-10.3,2.6-20.2,6.4-29.4,11.3c-37.7,20.1-63.6,58.8-68.2,102c-3.7,35.1,5.8,71.9,1.2,106.9c-3.7,28.2-16.4,53.7-22.7,81.2
		c-6.4,27.7-5.1,61,15.6,83.6c19.3,21.1,50.4,26.6,76.6,22.7c26.3-3.9,49.8-15.6,74.7-24.2C354.2,535,382.5,529.9,409.4,538.9z"/>
	<path class="st0" d="M406,529.8c11.2,3.7,16.2,0.8,26.3-3.7c10.2-4.7,18.2-12.6,25.9-20.5c11.5-11.7,17.6-22,29.8-32
		c0.8-0.6,1.6-1.3,2.4-1.9c27.4-21.2,68.4-14.1,102.9-22.3c9.9-2.3,19.3-6.1,27.9-11.1c33.1-19.3,54-56.4,50.5-96.5
		c-4.2-47.6-42.9-94.2-90.7-107.7c-40.4-11.3-82.7-0.8-122.6-14.1c-28-9.3-51.5-29.5-78.4-41.5c-30-13.3-63.7-15.6-93.7-7.9
		c-9.7,2.5-19,6.1-27.8,10.8c-35.6,19.1-60.1,55.7-64.5,96.6c-3.6,33.2,5.3,68,0.9,101.1c-3.6,26.7-15.6,50.8-21.6,76.8
		c-6.1,26.3-5,57.7,14.5,79.2c18.2,20,47.4,25.2,72.2,21.6c24.8-3.6,47-14.5,70.6-22.6C353.9,526.1,380.6,521.3,406,529.8z"/>
	<path class="st0" d="M402.6,520.7c10.6,3.5,15.4,0.7,24.9-3.6c9.7-4.4,17.2-12,24.5-19.4c10.9-11.1,16.7-20.9,28.2-30.4
		c0.7-0.6,1.5-1.2,2.3-1.8c25.9-20.2,64.6-13.7,97.2-21.6c9.4-2.3,18.2-5.9,26.3-10.6c31.3-18.4,51-53.5,47.5-91.5
		c-4.1-44.8-40.4-88.6-85.4-101.3c-38-10.7-77.8-0.9-115.3-13.4c-26.3-8.7-48.5-27.7-73.8-38.8c-28.3-12.5-60-14.4-88.2-7
		c-9.1,2.4-17.9,5.8-26.1,10.2c-33.5,18.1-56.6,52.6-60.9,91.2c-3.5,31.3,4.7,64.1,0.5,95.3c-3.4,25.1-14.7,47.9-20.4,72.5
		c-5.8,24.8-4.9,54.5,13.5,74.8c17,18.8,44.5,23.8,67.8,20.5c23.3-3.2,44.2-13.5,66.4-21C353.6,517.2,378.7,512.8,402.6,520.7z"/>
	<path class="st0" d="M399.2,511.5c10,3.3,14.6,0.6,23.5-3.4c9.1-4.2,16.2-11.3,23.1-18.4c10.2-10.4,15.7-19.7,26.6-28.7
		c0.7-0.6,1.4-1.2,2.2-1.7c24.4-19.1,60.8-13.3,91.5-20.9c8.8-2.2,17.1-5.6,24.8-10.1c29.5-17.5,48-50.6,44.6-86.5
		c-4-42-37.9-83-80.1-94.9c-35.6-10.1-72.9-0.9-108.1-12.6c-24.7-8.2-45.4-25.8-69.2-36.2c-26.6-11.6-56.3-13.2-82.7-6.2
		c-8.6,2.3-16.8,5.5-24.5,9.7c-31.5,17.1-53.1,49.5-57.2,85.7c-3.3,29.4,4.2,60.2,0.2,89.5c-3.2,23.6-13.9,45-19.3,68.1
		c-5.5,23.3-4.7,51.2,12.4,70.4c15.9,17.7,41.6,22.5,63.3,19.4c21.8-2.9,41.4-12.4,62.2-19.4C353.3,508.3,376.8,504.2,399.2,511.5z"
		/>
	<path class="st0" d="M395.9,502.4c9.4,3,13.7,0.5,22.1-3.3c8.6-4,15.3-10.6,21.8-17.3c9.6-9.8,14.8-18.6,25-27.1
		c0.7-0.5,1.3-1.1,2-1.6c22.9-18,57-12.9,85.8-20.2c8.3-2.1,16.1-5.4,23.2-9.7c27.7-16.6,45-47.7,41.7-81.5
		c-3.9-39.1-35.5-77.4-74.8-88.5c-33.2-9.4-68-1-100.8-11.8c-23-7.6-42.4-24-64.5-33.5c-24.9-10.7-52.6-12-77.3-5.3
		c-8,2.2-15.7,5.2-22.8,9.2c-29.4,16.1-49.6,46.4-53.5,80.3c-3.2,27.5,3.7,56.3-0.1,83.6c-3.1,22.1-13.1,42.1-18.2,63.7
		c-5.2,21.8-4.6,48,11.4,66c14.7,16.6,38.6,21,58.9,18.4c20.3-2.7,38.6-11.3,58-17.8C353,499.4,374.9,495.7,395.9,502.4z"/>
	<path class="st0" d="M392.5,493.2c8.8,2.8,12.9,0.4,20.7-3.2c8-3.7,14.3-10,20.4-16.2c9-9.2,13.9-17.4,23.4-25.4
		c0.6-0.5,1.2-1,1.9-1.5c21.4-17,53.2-12.5,80.1-19.5c7.7-2,15-5.1,21.7-9.2c25.9-15.7,42-44.7,38.7-76.5
		c-3.8-36.3-33-71.8-69.5-82.2c-30.8-8.8-63.1-1.1-93.5-11.1c-21.3-7-39.3-22.2-59.9-30.9c-23.1-9.8-48.9-10.9-71.8-4.5
		c-7.4,2.1-14.5,4.9-21.2,8.6c-27.3,15.1-46.1,43.4-49.9,74.8c-3.1,25.6,3.2,52.3-0.4,77.8c-2.9,20.6-12.2,39.2-17,59.3
		c-4.9,20.4-4.4,44.7,10.3,61.6c13.6,15.5,35.7,19.7,54.5,17.3c18.8-2.4,35.8-10.3,53.8-16.2C352.6,490.5,373,487.1,392.5,493.2z"/>
	<path class="st0" d="M389.1,484.1c8.2,2.5,12,0.3,19.3-3.1c7.5-3.5,13.3-9.3,19-15.2c8.4-8.6,12.9-16.3,21.8-23.7
		c0.6-0.5,1.2-1,1.8-1.4c19.9-15.9,49.4-12.1,74.3-18.9c7.2-1.9,13.9-4.9,20.2-8.7c24.1-14.7,39-41.8,35.8-71.5
		c-3.6-33.5-30.5-66.1-64.1-75.8c-28.4-8.1-58.2-1.1-86.3-10.3c-19.7-6.4-36.3-20.3-55.3-28.2c-21.4-8.9-45.2-9.7-66.3-3.6
		c-6.8,2-13.4,4.7-19.6,8.1c-25.2,14.1-42.6,40.3-46.2,69.4c-2.9,23.7,2.7,48.4-0.8,72c-2.8,19-11.4,36.3-15.9,54.9
		c-4.6,18.9-4.3,41.5,9.3,57.2c12.4,14.3,32.8,18.3,50,16.2c17.3-2.1,33-9.2,49.6-14.6C352.3,481.6,371.1,478.5,389.1,484.1z"/>
	<path class="st0" d="M385.7,475c7.5,2.3,11.2,0.2,17.9-2.9c6.9-3.2,12.4-8.7,17.6-14.1c7.7-8,12-15.1,20.2-22.1
		c0.5-0.5,1.1-0.9,1.6-1.4c18.4-14.9,45.6-11.7,68.6-18.2c6.6-1.9,12.9-4.6,18.6-8.2c22.3-13.8,36-38.9,32.9-66.5
		c-3.5-30.6-28-60.5-58.8-69.4c-26-7.5-53.3-1.2-79-9.5c-18-5.8-33.3-18.5-50.6-25.6c-19.7-8.1-41.5-8.5-60.9-2.8
		c-6.3,1.8-12.3,4.4-17.9,7.6c-23.1,13.1-39.1,37.2-42.5,64c-2.8,21.8,2.2,44.5-1.1,66.2c-2.6,17.5-10.5,33.4-14.7,50.5
		c-4.3,17.4-4.2,38.3,8.2,52.8c11.3,13.2,29.9,16.9,45.6,15.1c15.8-1.8,30.2-8.2,45.4-13C352,472.7,369.2,470,385.7,475z"/>
	<path class="st0" d="M382.4,465.8c6.9,2,10.3,0.1,16.5-2.8c6.4-3,11.4-8,16.2-13c7.1-7.3,11.1-14,18.6-20.4c0.5-0.4,1-0.8,1.5-1.3
		c16.9-13.8,41.8-11.3,62.9-17.5c6.1-1.8,11.8-4.4,17.1-7.7c20.5-12.9,33-36,29.9-61.5c-3.4-27.8-25.6-54.9-53.5-63
		c-23.6-6.9-48.4-1.2-71.7-8.7c-16.4-5.3-30.2-16.7-46-23c-18-7.2-37.8-7.3-55.4-1.9c-5.7,1.7-11.2,4.1-16.3,7
		c-21,12.1-35.6,34.1-38.9,58.5c-2.7,19.8,1.7,40.6-1.4,60.4c-2.5,16-9.7,30.5-13.6,46.1c-4,16-4,35,7.2,48.3
		c10.1,12.1,26.9,15.5,41.2,14.1c14.3-1.4,27.4-7.1,41.2-11.4C351.7,463.9,367.3,461.4,382.4,465.8z"/>
	<path class="st0" d="M379,456.7c6.3,1.8,9.5,0,15.1-2.7c5.8-2.8,10.4-7.4,14.8-12c6.5-6.7,10.2-12.8,16.9-18.8
		c0.4-0.4,0.9-0.8,1.4-1.2c15.4-12.7,38-10.9,57.2-16.8c5.5-1.7,10.7-4.1,15.6-7.2c18.7-12,30-33.1,27-56.5
		c-3.2-25-23.1-49.3-48.2-56.6c-21.2-6.2-43.5-1.3-64.5-8c-14.7-4.7-27.2-14.8-41.4-20.3c-16.3-6.3-34.1-6.1-49.9-1.1
		c-5.1,1.6-10.1,3.8-14.7,6.5c-18.9,11.1-32.1,31-35.2,53.1c-2.5,17.9,1.2,36.7-1.7,54.6c-2.3,14.4-8.9,27.6-12.5,41.7
		c-3.7,14.5-3.9,31.8,6.1,43.9c9,10.9,24,14.1,36.8,13c12.8-1.1,24.6-6,37.1-9.8C351.4,455,365.4,452.8,379,456.7z"/>
	<path class="st0" d="M375.6,447.5c5.7,1.6,8.7-0.1,13.7-2.5c5.3-2.5,9.5-6.7,13.5-10.9c5.9-6.1,9.3-11.7,15.3-17.1
		c0.4-0.4,0.8-0.7,1.2-1.1c13.9-11.7,34.2-10.5,51.5-16.1c5-1.6,9.7-3.9,14-6.7c16.9-11.1,27.1-30.2,24.1-51.5
		c-3.1-22.1-20.6-43.6-42.9-50.3c-18.8-5.6-38.6-1.4-57.2-7.2c-13.1-4.1-24.2-13-36.7-17.7c-14.6-5.4-30.4-4.9-44.5-0.2
		c-4.5,1.5-8.9,3.5-13,6c-16.8,10.1-28.6,27.9-31.5,47.6c-2.4,16,0.7,32.8-2,48.8c-2.2,12.9-8,24.7-11.3,37.3
		c-3.4,13-3.8,28.5,5.1,39.5c7.8,9.8,21.1,12.8,32.3,11.9c11.3-0.8,21.7-4.9,32.9-8.2C351,446.1,363.5,444.2,375.6,447.5z"/>
	<path class="st0" d="M372.2,438.4c5.1,1.3,7.8-0.2,12.3-2.4c4.7-2.3,8.5-6.1,12.1-9.9c5.2-5.5,8.3-10.5,13.7-15.4
		c0.4-0.3,0.7-0.6,1.1-1c12.4-10.6,30.4-10.1,45.8-15.5c4.4-1.5,8.6-3.6,12.5-6.2c15.1-10.1,24.1-27.3,21.2-46.5
		c-2.9-19.3-18.1-38-37.5-43.9c-16.4-4.9-33.6-1.4-50-6.4c-11.4-3.5-21.1-11.1-32.1-15c-12.8-4.5-26.7-3.7-39,0.6
		c-4,1.4-7.8,3.2-11.4,5.4c-14.7,9.1-25.1,24.8-27.9,42.2c-2.3,14.1,0.2,28.8-2.4,43c-2,11.4-7.2,21.8-10.2,32.9
		c-3.1,11.5-3.6,25.3,4,35.1c6.7,8.6,18.1,11.4,27.9,10.9c9.8-0.5,18.9-3.9,28.7-6.6C350.7,437.2,361.7,435.7,372.2,438.4z"/>
	<path class="st0" d="M368.9,429.3c4.5,1.1,7-0.3,10.9-2.3c4.2-2.1,7.5-5.4,10.7-8.8c4.6-4.9,7.4-9.4,12.1-13.8
		c0.3-0.3,0.6-0.6,1-0.9c10.9-9.6,26.6-9.7,40.1-14.8c3.9-1.5,7.5-3.4,11-5.7c13.3-9.2,21.1-24.3,18.2-41.5
		c-2.8-16.5-15.7-32.4-32.2-37.5c-14-4.3-28.7-1.5-42.7-5.7c-9.8-2.9-18.1-9.3-27.5-12.4c-11.1-3.6-23-2.5-33.5,1.5
		c-3.4,1.3-6.7,2.9-9.8,4.9c-12.6,8.1-21.6,21.7-24.2,36.8c-2.1,12.2-0.4,24.9-2.7,37.1c-1.9,9.8-6.3,18.9-9,28.5
		c-2.8,10.1-3.5,22,3,30.7c5.5,7.5,15.2,10,23.5,9.8c8.3-0.2,16.1-2.8,24.5-5C350.4,428.3,359.8,427.1,368.9,429.3z"/>
	<path class="st0" d="M365.5,420.1c3.9,0.8,6.1-0.4,9.5-2.1c3.6-1.9,6.5-4.8,9.3-7.7c4-4.2,6.5-8.3,10.5-12.1
		c0.3-0.3,0.5-0.5,0.8-0.8c9.4-8.5,22.8-9.3,34.4-14.1c3.3-1.4,6.5-3.1,9.4-5.2c11.6-8.3,18.1-21.4,15.3-36.5
		c-2.6-13.6-13.2-26.8-26.9-31.1c-11.6-3.7-23.8-1.5-35.4-4.9c-8.1-2.4-15.1-7.5-22.9-9.7c-9.4-2.8-19.3-1.3-28,2.3
		c-2.8,1.2-5.6,2.6-8.1,4.4c-10.5,7.1-18.1,18.7-20.5,31.3c-2,10.3-0.9,21-3,31.3c-1.7,8.3-5.5,16-7.9,24.2
		c-2.5,8.6-3.4,18.7,1.9,26.3c4.4,6.4,12.3,8.6,19,8.7c6.8,0.1,13.3-1.8,20.3-3.4C350.1,419.4,357.9,418.5,365.5,420.1z"/>
	<path class="st0" d="M362.1,411c3.3,0.6,5.3-0.5,8.1-2c3.1-1.6,5.6-4.1,7.9-6.7c3.3-3.6,5.5-7.1,8.9-10.4c0.2-0.2,0.5-0.5,0.7-0.7
		c7.9-7.5,19-8.9,28.6-13.4c2.8-1.3,5.4-2.9,7.9-4.7c9.8-7.3,15.2-18.5,12.4-31.5c-2.3-10.8-10.7-21.1-21.6-24.7
		c-9.2-3-18.9-1.6-28.2-4.1c-6.5-1.8-12.1-5.6-18.2-7.1c-7.7-1.9-15.6-0.2-22.6,3.2c-2.3,1.1-4.4,2.4-6.5,3.8
		c-8.4,6.1-14.6,15.6-16.9,25.9c-1.9,8.4-1.4,17.1-3.3,25.5c-1.6,6.8-4.7,13.1-6.7,19.8c-2.2,7.1-3.2,15.5,0.8,21.9
		c3.3,5.2,9.4,7.2,14.6,7.6c5.3,0.4,10.5-0.7,16.1-1.8C349.8,410.5,356,409.9,362.1,411z"/>
	<path class="st0" d="M358.7,401.8c2.7,0.3,4.4-0.6,6.7-1.9c2.6-1.4,4.6-3.5,6.6-5.6c2.7-3,4.6-6,7.3-8.8c0.2-0.2,0.4-0.4,0.6-0.6
		c6.4-6.4,15.2-8.5,22.9-12.7c2.2-1.2,4.4-2.6,6.4-4.2c8-6.4,12.3-15.6,9.4-26.5c-2.1-7.9-8.2-15.5-16.3-18.3
		c-6.8-2.4-14-1.6-20.9-3.3c-4.8-1.2-9-3.7-13.6-4.4c-6-1-11.9,1-17.1,4c-1.7,1-3.3,2.1-4.8,3.3c-6.3,5.1-11.1,12.5-13.2,20.4
		c-1.8,6.5-1.9,13.2-3.7,19.7c-1.4,5.2-3.9,10.2-5.6,15.4c-1.9,5.6-3.1,12.2-0.2,17.5c2.2,4,6.4,5.9,10.2,6.6
		c3.9,0.7,7.7,0.4,11.9-0.2C349.4,401.6,354.1,401.3,358.7,401.8z"/>
</g>
</svg>
