<?xml version="1.0" encoding="utf-8"?>
<!-- Generator: Adobe Illustrator 24.1.2, SVG Export Plug-In . SVG Version: 6.00 Build 0)  -->
<svg version="1.1" id="Layer_1" xmlns="http://www.w3.org/2000/svg" xmlns:xlink="http://www.w3.org/1999/xlink" x="0px" y="0px"
	 viewBox="0 0 2080 1580" style="enable-background:new 0 0 2080 1580;" xml:space="preserve">
<style type="text/css">
	.st0{fill:none;stroke:#FFFFFF;stroke-width:0.75;stroke-miterlimit:10;}
</style>
<g>
	<g id="Group_8_1_">
		<g>
			<g id="Group_7_9_" transform="translate(-792.166 -930.104)">
				<path id="Path_9_9_" class="st0" d="M1050.6,1243c52.5-11.4,89.9-57.8,117.8-107.7c27.9-49.9,49.6-105.7,85.3-148
					s90.3-69.4,145.3-48.4c58.1,22.2,99.4,90.7,121.9,157.2s32.6,136.4,60.2,201.1c34.2,80.3,92.9,147.1,128.7,226.7
					c44.1,98,49.2,212.3,13.2,299.7s-112,145.9-199.5,153.3c-60,5.1-124.2-12.4-181.9,1.5c-82.4,19.8-138,100-218.1,126.4
					c-95,31.3-217.8-26.5-282-132.7s-63.5-250.7,1.5-331.6c46.8-58.3,123.6-88.9,142.6-168.4c9.7-40.4,6.3-71.1,10.9-113.6
					c2.9-26.6,5.9-53.8,16.6-76.4C1023.9,1259.7,1028,1247.9,1050.6,1243z"/>
				<path id="Path_10_9_" class="st0" d="M1059.5,1251.9c-21.9,4.8-25.9,16.3-36.2,38.1c-10.3,21.9-13.3,48.3-16.1,74.1
					c-4.2,38.8-1.6,67.4-9,103.3c-0.5,2.3-1,4.6-1.5,6.9c-18.5,77.2-92.7,107-138.1,163.6c-13,16.2-23.4,35.1-31,55.7
					c-29.5,79.2-19.7,184.3,29.8,266.1c62.2,102.9,181.1,158.9,273.2,128.5c77.6-25.6,131.6-103.2,211.3-122.4
					c55.9-13.5,118.1,3.4,176.1-1.6c64-5.5,121.6-39.3,161-92c13-17.4,23.7-36.5,32.1-56.8c34.8-84.8,29.9-195.6-12.8-290.5
					c-34.7-77.1-91.5-141.9-124.6-219.8c-26.7-62.8-36.4-130.5-58.3-195c-21.8-64.5-61.8-130.9-118.1-152.6
					c-53.3-20.4-106.2,5.8-140.7,46.7c-34.6,40.8-55.7,94.8-82.7,143.2C1146.6,1195.8,1110.4,1240.7,1059.5,1251.9z"/>
				<path id="Path_11_9_" class="st0" d="M1068.5,1260.8c-21.2,4.7-25.1,15.8-35.1,37c-10,21.2-12.9,46.8-15.6,71.9
					c-4.1,37.6-1.5,65.4-8.7,100.2c-0.5,2.2-1,4.5-1.5,6.7c-17.8,74.8-89.7,103.9-133.6,158.9c-12.6,15.8-22.6,34.1-30,54.1
					c-28.6,76.9-19,178.7,29.1,258c60.2,99.5,175.3,153.7,264.3,124.4c75.1-24.7,127.3-99.8,204.5-118.4
					c54.1-13.1,114.2,3.2,170.4-1.7c61.9-5.5,117.6-38.2,155.7-89.3c12.5-16.9,23-35.4,31-55.1c33.6-82.1,28.9-189.4-12.5-281.4
					c-33.5-74.7-88.5-137.5-120.5-212.9c-25.8-60.8-35.2-126.4-56.4-188.8c-21.1-62.5-59.8-126.8-114.3-147.9
					c-51.5-19.8-102.7,5.5-136.2,45c-33.5,39.5-53.9,91.6-80.1,138.3C1152.8,1206.5,1117.7,1249.9,1068.5,1260.8z"/>
				<path id="Path_12_9_" class="st0" d="M1077.4,1269.6c-20.5,4.6-24.3,15.4-34,35.9c-9.7,20.5-12.5,45.3-15.1,69.6
					c-3.9,36.4-1.5,63.3-8.4,97.1c-0.4,2.1-0.9,4.3-1.4,6.5c-17.2,72.5-86.7,100.8-129.1,154.2c-12.2,15.3-21.8,33-29,52.4
					c-27.6,74.5-18.4,173.2,28.4,249.9c58.2,96.2,169.4,148.5,255.5,120.2c72.6-23.9,123.1-96.4,197.7-114.4
					c52.3-12.6,110.4,3,164.6-1.8c59.8-5.4,113.6-37.1,150.4-86.6c12.1-16.3,22.2-34.2,29.9-53.3c32.4-79.5,27.8-183.2-12.1-272.2
					c-32.4-72.3-85.5-133-116.4-206c-24.9-58.8-34.1-122.3-54.5-182.7c-20.4-60.5-57.8-122.8-110.5-143.2
					c-49.8-19.2-99.3,5.2-131.6,43.3c-32.4,38-52.2,88.4-77.6,133.5C1158.9,1217.2,1125,1259.2,1077.4,1269.6z"/>
				<path id="Path_13_9_" class="st0" d="M1086.4,1278.5c-19.8,4.5-23.5,14.9-32.9,34.8c-9.4,19.9-12,43.9-14.6,67.4
					c-3.8,35.2-1.4,61.3-8.1,93.9c-0.4,2.1-0.9,4.2-1.4,6.3c-16.6,70.2-83.6,97.8-124.5,149.5c-11.7,14.8-21.1,32-28,50.8
					c-26.6,72.2-17.6,167.5,27.6,241.8c56.4,92.7,163.6,143.3,246.7,116c70.1-23,118.9-92.9,190.9-110.4
					c50.4-12.2,106.5,2.8,158.8-1.8c57.7-5.3,109.6-36.1,145.1-83.9c11.7-15.8,21.4-33.1,28.9-51.5c31.3-76.8,26.8-177.1-11.7-263.1
					c-31.3-69.9-82.5-128.6-112.3-199.1c-24.1-56.8-32.9-118.1-52.6-176.5c-19.7-58.5-55.8-118.7-106.7-138.5
					c-48.1-18.6-95.8,4.9-127.1,41.6c-31.3,36.6-50.4,85.2-75,128.7C1165,1227.8,1132.3,1268.4,1086.4,1278.5z"/>
				<path id="Path_14_9_" class="st0" d="M1095.3,1287.4c-19.1,4.3-22.7,14.5-31.7,33.7c-9,19.2-11.6,42.4-14.1,65.2
					c-3.7,34-1.4,59.3-7.8,90.8c-0.4,2-0.9,4-1.3,6.1c-16,67.9-80.6,94.7-120,144.7c-11.3,14.4-20.3,31-27,49.1
					c-25.7,69.8-16.9,161.9,26.9,233.7c54.5,89.3,157.7,138.1,237.9,111.8c67.6-22.2,114.7-89.5,184-106.4
					c48.6-11.8,102.7,2.6,153.1-1.9c55.6-5.2,105.6-35,139.7-81.2c11.2-15.3,20.6-32,27.8-49.8c30.1-74.2,25.8-170.9-11.3-253.9
					c-30.1-67.4-79.5-124.1-108.2-192.2c-23.2-54.9-31.7-114-50.7-170.4c-19-56.4-53.8-114.6-102.8-133.8
					c-46.3-18-92.3,4.6-122.5,39.9c-30.2,35.2-48.7,82-72.4,123.9C1171.2,1238.5,1139.6,1277.6,1095.3,1287.4z"/>
				<path id="Path_15_9_" class="st0" d="M1104.3,1296.3c-18.4,4.2-21.9,14.1-30.6,32.5c-8.7,18.6-11.2,41-13.6,62.9
					c-3.5,32.9-1.3,57.2-7.5,87.7c-0.4,1.9-0.8,3.9-1.3,5.9c-15.4,65.6-77.5,91.6-115.5,140c-10.9,13.9-19.6,29.9-26,47.5
					c-24.7,67.5-16.2,156.3,26.2,225.5c52.5,85.9,151.9,132.9,229.1,107.6c65.1-21.3,110.4-86.1,177.2-102.4
					c46.8-11.4,98.8,2.5,147.3-2c53.6-5,101.6-33.9,134.4-78.5c10.8-14.7,19.8-30.9,26.7-48c28.9-71.5,24.8-164.7-10.9-244.7
					c-29-65-76.4-119.7-104.1-185.3c-22.3-52.9-30.5-109.9-48.8-164.2c-18.3-54.4-51.7-110.6-99-129.2c-44.6-17.5-88.9,4.3-118,38.2
					c-29.1,33.8-47,78.8-69.8,119.1C1177.3,1249.2,1146.8,1286.7,1104.3,1296.3z"/>
				<path id="Path_16_9_" class="st0" d="M1113.2,1305.2c-17.7,4.1-21.1,13.6-29.5,31.4c-8.4,17.9-10.8,39.5-13.1,60.7
					c-3.4,31.7-1.2,55.2-7.2,84.6c-0.4,1.9-0.8,3.8-1.2,5.7c-14.8,63.2-74.5,88.5-111,135.3c-10.5,13.4-18.8,28.9-25,45.8
					c-23.8,65.1-15.5,150.7,25.4,217.4c50.6,82.5,146,127.7,220.2,103.4c62.6-20.5,106.2-82.7,170.4-98.4c45-11,95,2.4,141.5-2.1
					c51.5-4.9,97.6-32.9,129.1-75.8c10.4-14.2,19-29.7,25.6-46.2c27.8-68.9,23.8-158.5-10.5-235.6c-27.8-62.6-73.4-115.2-100-178.4
					c-21.4-50.9-29.3-105.8-46.9-158c-17.6-52.4-49.7-106.6-95.2-124.5c-42.8-16.9-85.4,4-113.4,36.5c-28,32.5-45.2,75.6-67.2,114.3
					C1183.4,1259.9,1154.1,1295.8,1113.2,1305.2z"/>
				<path id="Path_17_9_" class="st0" d="M1122.1,1314.1c-17,3.9-20.3,13.2-28.3,30.3c-8.1,17.3-10.4,38-12.6,58.4
					c-3.3,30.5-1.2,53.2-6.9,81.4c-0.4,1.8-0.8,3.6-1.2,5.5c-14.2,60.9-71.5,85.4-106.5,130.5c-10.2,13.3-18.3,28.2-24,44.2
					c-22.8,62.7-14.8,145.1,24.7,209.3c48.6,79.1,140.2,122.5,211.4,99.2c60.1-19.6,102-79.3,163.6-94.4
					c43.2-10.6,91.1,2.2,135.8-2.2c49.4-4.8,93.6-31.8,123.8-73.1c9.9-13.7,18.2-28.6,24.6-44.5c26.6-66.2,22.8-152.4-10.1-226.4
					c-26.7-60.1-70.4-110.8-95.9-171.5c-20.6-48.9-28.2-101.7-45-151.9c-16.9-50.4-47.7-102.5-91.4-119.8
					c-41.1-16.3-82,3.7-108.8,34.7c-26.9,31.1-43.5,72.3-64.6,109.4C1189.5,1270.5,1161.4,1305,1122.1,1314.1z"/>
				<path id="Path_18_9_" class="st0" d="M1131.1,1323c-16.3,3.8-19.5,12.7-27.2,29.2c-7.7,16.6-10,36.6-12.1,56.2
					c-3.1,29.3-1.1,51.1-6.6,78.3c-0.3,1.7-0.7,3.5-1.1,5.3c-13.6,58.6-68.4,82.4-101.9,125.8c-9.7,12.8-17.5,27.1-23,42.5
					c-21.9,60.4-14.1,139.5,23.9,201.2c46.7,75.7,134.3,117.3,202.6,95.1c57.6-18.8,97.8-75.9,156.8-90.3c41.3-10.1,87.3,2,130-2.2
					c47.4-4.7,89.6-30.7,118.5-70.4c9.5-13.1,17.4-27.5,23.5-42.7c25.4-63.6,21.7-146.2-9.7-217.3c-25.6-57.7-67.4-106.4-91.8-164.6
					c-19.7-47-27-97.5-43.1-145.7c-16.2-48.4-45.7-98.5-87.6-115.1c-39.4-15.7-78.5,3.3-104.3,33c-25.8,29.7-41.7,69.1-62,104.6
					C1195.7,1281.2,1168.7,1314.2,1131.1,1323z"/>
				<path id="Path_19_9_" class="st0" d="M1140,1331.9c-15.7,3.7-18.7,12.3-26.1,28.1c-7.4,15.9-9.6,35.1-11.6,53.9
					c-3,28.1-1.1,49.1-6.3,75.2c-0.3,1.7-0.7,3.3-1.1,5.1c-13,56.3-65.4,79.3-97.4,121.1c-9.3,12.3-16.7,26.1-21.9,40.9
					c-20.9,58-13.4,133.9,23.2,193.1c44.7,72.4,128.5,112.1,193.8,90.9c55.1-17.9,93.5-72.4,150-86.3c39.5-9.7,83.4,1.9,124.3-2.3
					c45.3-4.6,85.6-29.7,113.2-67.7c9.1-12.6,16.6-26.3,22.4-40.9c24.3-60.9,20.7-140-9.3-208.1c-24.4-55.3-64.4-101.9-87.7-157.7
					c-18.8-45-25.8-93.4-41.2-139.6c-15.5-46.4-43.7-94.4-83.8-110.5c-37.6-15.1-75.1,3-99.7,31.3c-24.7,28.3-40,65.9-59.4,99.8
					C1201.8,1291.9,1176,1323.4,1140,1331.9z"/>
				<path id="Path_20_9_" class="st0" d="M1149,1340.7c-15,3.6-17.9,11.8-24.9,26.9c-7.1,15.3-9.2,33.7-11.1,51.7
					c-2.8,26.9-1,47.1-6,72c-0.3,1.6-0.7,3.2-1,4.8c-12.4,54-62.3,76.2-92.9,116.4c-8.9,11.8-15.9,25.1-20.9,39.2
					c-19.9,55.7-12.7,128.3,22.5,185c42.8,69,122.6,106.9,185,86.7c52.6-17.1,89.3-69,143.1-82.3c37.7-9.3,79.6,1.7,118.5-2.4
					c43.2-4.5,81.6-28.6,107.9-65.1c8.6-12,15.8-25.2,21.3-39.2c23.1-58.3,19.7-133.9-9-198.9c-23.3-52.9-61.4-97.5-83.6-150.8
					c-17.9-43-24.6-89.3-39.3-133.4c-14.8-44.4-41.7-90.3-80-105.8c-35.9-14.5-71.6,2.7-95.2,29.6c-23.6,26.9-38.3,62.7-56.9,95
					C1207.9,1302.6,1183.2,1332.6,1149,1340.7z"/>
				<path id="Path_21_9_" class="st0" d="M1157.9,1349.6c-14.3,3.4-17.1,11.4-23.8,25.8c-6.8,14.6-8.7,32.2-10.6,49.5
					c-2.7,25.7-1,45-5.7,68.9c-0.3,1.5-0.6,3.1-1,4.6c-11.7,51.6-59.3,73.1-88.4,111.6c-8.5,11.3-15.2,24-19.9,37.6
					c-19,53.3-12,122.7,21.7,176.9c40.8,65.6,116.8,101.7,176.1,82.5c50.1-16.2,85.1-65.6,136.3-78.3c35.9-8.9,75.7,1.5,112.7-2.5
					c41.1-4.4,77.6-27.5,102.6-62.4c8.2-11.5,15-24.1,20.3-37.4c21.9-55.6,18.7-127.7-8.6-189.8c-22.1-50.4-58.3-93-79.5-143.9
					c-17.1-41-23.4-85.2-37.4-127.3c-14.1-42.4-39.7-86.3-76.1-101.1c-34.1-13.9-68.2,2.4-90.6,27.9c-22.5,25.5-36.5,59.5-54.3,90.2
					C1214.1,1313.2,1190.5,1341.8,1157.9,1349.6z"/>
				<path id="Path_22_9_" class="st0" d="M1166.9,1358.5c-13.6,3.3-16.3,10.9-22.7,24.7c-6.4,14-8.3,30.7-10.1,47.2
					c-2.6,24.5-0.9,43-5.4,65.8c-0.3,1.5-0.6,2.9-0.9,4.4c-11.1,49.3-56.3,70-83.9,106.9c-8,10.9-14.4,23-18.9,35.9
					c-18,51-11.3,117.1,21,168.7c38.9,62.2,111,96.5,167.3,78.3c47.6-15.4,80.9-62.2,129.5-74.3c34.1-8.5,71.9,1.3,107-2.6
					c39-4.3,73.6-26.5,97.2-59.7c7.8-11,14.2-22.9,19.2-35.6c20.8-53,17.7-121.5-8.2-180.6c-21-48-55.3-88.6-75.4-137
					c-16.2-39-22.2-81.1-35.5-121.1c-13.3-40.4-37.6-82.2-72.3-96.4c-32.4-13.3-64.7,2.1-86.1,26.2c-21.4,24.1-34.8,56.3-51.7,85.4
					C1220.2,1323.9,1197.8,1351,1166.9,1358.5z"/>
				<path id="Path_23_9_" class="st0" d="M1175.8,1367.4c-12.9,3.2-15.5,10.5-21.5,23.6c-6.1,13.3-7.9,29.3-9.5,45
					c-2.4,23.3-0.9,41-5.1,62.7c-0.3,1.4-0.6,2.8-0.9,4.2c-10.5,47-53.2,67-79.3,102.2c-7.6,10.4-13.6,21.9-17.9,34.3
					c-17.1,48.6-10.6,111.5,20.3,160.6c36.9,58.8,105.1,91.3,158.5,74.1c45.1-14.5,76.6-58.8,122.7-70.3c32.3-8.1,68,1.2,101.2-2.6
					c37-4.2,69.7-25.4,91.9-57c7.4-10.4,13.4-21.8,18.1-33.9c19.6-50.3,16.7-115.4-7.8-171.5c-19.9-45.6-52.3-84.1-71.3-130.1
					c-15.3-37.1-21.1-76.9-33.6-115c-12.6-38.4-35.6-78.1-68.5-91.7c-30.7-12.7-61.3,1.8-81.5,24.5c-20.3,22.7-33,53.1-49.1,80.6
					C1226.3,1334.6,1205.1,1360.1,1175.8,1367.4z"/>
				<path id="Path_24_9_" class="st0" d="M1184.7,1376.3c-12.2,3.1-14.7,10-20.4,22.5c-5.8,12.7-7.5,27.8-9,42.7
					c-2.3,22.2-0.8,38.9-4.8,59.5c-0.3,1.3-0.5,2.7-0.8,4c-9.9,44.7-50.2,63.9-74.8,97.4c-7.2,9.9-12.9,20.9-16.9,32.6
					c-16.1,46.3-9.9,105.9,19.5,152.5c35,55.4,99.3,86.1,149.7,70c42.6-13.6,72.4-55.4,115.9-66.3c30.4-7.7,64.2,1,95.4-2.7
					c34.9-4.1,65.7-24.3,86.6-54.3c6.9-9.9,12.6-20.7,17.1-32.1c18.4-47.7,15.6-109.2-7.4-162.3c-18.7-43.1-49.3-79.7-67.2-123.2
					c-14.5-35.1-19.9-72.8-31.8-108.8c-11.9-36.3-33.6-74.1-64.7-87.1c-28.9-12.1-57.8,1.5-77,22.8c-19.2,21.3-31.3,49.8-46.5,75.7
					C1232.4,1345.3,1212.4,1369.3,1184.7,1376.3z"/>
				<path id="Path_25_9_" class="st0" d="M1193.7,1385.2c-11.5,3-13.9,9.6-19.3,21.4c-5.5,12-7.1,26.4-8.5,40.5
					c-2.2,21-0.8,36.9-4.5,56.4c-0.2,1.3-0.5,2.5-0.8,3.8c-9.3,42.4-47.1,60.8-70.3,92.7c-6.7,9.4-12.1,19.8-15.9,31
					c-15.1,43.9-9.2,100.3,18.8,144.4c33,52,93.4,80.9,140.9,65.8c40-12.8,68.2-52,109-62.3c28.6-7.2,60.3,0.8,89.7-2.8
					c32.8-4,61.7-23.3,81.3-51.6c6.5-9.4,11.9-19.6,16-30.3c17.3-45,14.6-103-7-153.1c-17.6-40.7-46.3-75.2-63.1-116.3
					c-13.6-33.1-18.7-68.7-29.9-102.7c-11.2-34.3-31.6-70-60.9-82.4c-27.2-11.5-54.4,1.2-72.4,21.1c-18.1,19.9-29.6,46.6-43.9,70.9
					C1238.6,1355.9,1219.6,1378.5,1193.7,1385.2z"/>
				<path id="Path_26_9_" class="st0" d="M1202.6,1394.1c-10.8,2.8-13.1,9.2-18.1,20.2c-5.2,11.3-6.7,24.9-8,38.3
					c-2,19.8-0.7,34.9-4.2,53.3c-0.2,1.2-0.5,2.4-0.7,3.6c-8.7,40-44.1,57.7-65.8,88c-6.3,8.9-11.3,18.8-14.9,29.3
					c-14.2,41.6-8.5,94.7,18.1,136.3c31,48.6,87.6,75.7,132,61.6c37.5-11.9,64-48.5,102.2-58.3c26.8-6.8,56.5,0.7,83.9-2.9
					c30.7-4,57.7-22.2,76-48.9c6.1-8.8,11.1-18.4,14.9-28.6c16.1-42.4,13.6-96.9-6.6-144c-16.4-38.3-43.2-70.8-59-109.4
					c-12.7-31.1-17.5-64.6-28-96.5c-10.5-32.3-29.6-65.9-57.1-77.7c-25.4-10.9-50.9,0.9-67.8,19.4c-17,18.5-27.8,43.4-41.3,66.1
					C1244.7,1366.6,1226.9,1387.7,1202.6,1394.1z"/>
				<path id="Path_27_9_" class="st0" d="M1211.6,1403c-10.1,2.7-12.3,8.7-17,19.1c-4.8,10.7-6.3,23.4-7.5,36
					c-1.9,18.6-0.7,32.8-3.9,50.2c-0.2,1.1-0.4,2.2-0.7,3.4c-8.1,37.7-41,54.6-61.3,83.3c-5.9,8.4-10.6,17.8-13.9,27.7
					c-13.2,39.2-7.8,89,17.3,128.2c29.1,45.3,81.7,70.5,123.2,57.4c35-11.1,59.7-45.1,95.4-54.3c25-6.4,52.6,0.5,78.1-3
					c28.7-3.9,53.7-21.1,70.7-46.2c5.6-8.3,10.3-17.3,13.8-26.8c15-39.7,12.6-90.7-6.2-134.8c-15.3-35.8-40.2-66.3-54.9-102.5
					c-11.8-29.1-16.3-60.4-26.1-90.3c-9.8-30.3-27.6-61.9-53.3-73c-23.7-10.3-47.4,0.6-63.3,17.7c-15.9,17.1-26.1,40.2-38.7,61.3
					C1250.8,1377.3,1234.2,1396.9,1211.6,1403z"/>
				<path id="Path_28_9_" class="st0" d="M1220.5,1411.8c-9.4,2.6-11.5,8.3-15.9,18c-4.5,10-5.9,22-7,33.8
					c-1.8,17.4-0.6,30.8-3.6,47c-0.2,1-0.4,2.1-0.6,3.2c-7.5,35.4-38,51.5-56.7,78.5c-5.5,8-9.8,16.7-12.8,26
					c-12.3,36.9-7.1,83.4,16.6,120.1c27.1,41.9,75.9,65.3,114.4,53.2c32.5-10.2,55.5-41.7,88.6-50.3c23.2-6,48.8,0.3,72.4-3
					c26.6-3.8,49.7-20.1,65.4-43.5c5.2-7.8,9.5-16.2,12.8-25c13.8-37.1,11.6-84.5-5.8-125.7c-14.1-33.4-37.2-61.9-50.8-95.6
					c-11-27.2-15.1-56.3-24.2-84.2c-9.1-28.3-25.6-57.8-49.5-68.3c-22-9.7-44,0.3-58.7,16c-14.8,15.7-24.3,37-36.2,56.5
					C1257,1388,1241.5,1406.1,1220.5,1411.8z"/>
				<path id="Path_29_9_" class="st0" d="M1229.5,1420.7c-8.8,2.5-10.7,7.8-14.8,16.9c-4.2,9.4-5.4,20.5-6.5,31.5
					c-1.6,16.2-0.5,28.8-3.3,43.9c-0.2,1-0.4,2-0.6,3c-6.9,33.1-35,48.5-52.2,73.8c-5,7.5-9,15.7-11.8,24.4
					c-11.3,34.5-6.4,77.8,15.9,111.9c25.2,38.5,70,60.2,105.6,49c30-9.4,51.3-38.3,81.8-46.3c21.3-5.6,44.9,0.1,66.6-3.1
					c24.5-3.7,45.7-19,60-40.8c4.8-7.2,8.7-15,11.7-23.3c12.6-34.4,10.6-78.3-5.5-116.5c-13-31-34.2-57.4-46.7-88.7
					c-10.1-25.2-14-52.2-22.3-78c-8.4-26.3-23.5-53.7-45.6-63.7c-20.2-9.1-40.5,0-54.2,14.3c-13.7,14.3-22.6,33.8-33.6,51.7
					C1263.1,1398.6,1248.8,1415.3,1229.5,1420.7z"/>
				<path id="Path_30_9_" class="st0" d="M1238.4,1429.6c-8.1,2.3-9.9,7.4-13.6,15.8c-3.9,8.7-5,19.1-6,29.3
					c-1.5,15-0.5,26.7-3,40.8c-0.2,0.9-0.3,1.8-0.5,2.8c-6.3,30.8-31.9,45.4-47.7,69.1c-4.6,7-8.2,14.6-10.8,22.7
					c-10.3,32.1-5.7,72.2,15.1,103.8c23.2,35.1,64.2,55,96.8,44.8c27.5-8.5,47.1-34.9,74.9-42.2c19.5-5.2,41.1,0,60.8-3.2
					c22.4-3.6,41.7-17.9,54.7-38.1c4.3-6.7,7.9-13.9,10.6-21.5c11.5-31.8,9.5-72.2-5.1-107.3c-11.9-28.6-31.2-53-42.6-81.8
					c-9.2-23.2-12.8-48.1-20.4-71.9c-7.7-24.3-21.5-49.7-41.8-59c-18.5-8.5-37.1-0.3-49.6,12.6c-12.6,12.9-20.8,30.6-31,46.9
					C1269.2,1409.3,1256,1424.5,1238.4,1429.6z"/>
				<path id="Path_31_9_" class="st0" d="M1247.3,1438.5c-7.4,2.2-9.1,6.9-12.5,14.6c-3.6,8-4.6,17.6-5.5,27
					c-1.3,13.8-0.5,24.7-2.7,37.6c-0.1,0.8-0.3,1.7-0.5,2.6c-5.6,28.4-28.9,42.3-43.2,64.3c-4.2,6.5-7.5,13.6-9.8,21.1
					c-9.4,29.8-5,66.6,14.4,95.7c21.2,31.7,58.3,49.8,87.9,40.7c25-7.7,42.9-31.5,68.1-38.2c17.7-4.7,37.2-0.2,55.1-3.3
					c20.4-3.5,37.7-16.9,49.4-35.4c3.9-6.2,7.1-12.8,9.5-19.7c10.3-29.1,8.5-66-4.7-98.2c-10.7-26.1-28.2-48.5-38.5-74.9
					c-8.3-21.2-11.6-44-18.5-65.7c-7-22.3-19.5-45.6-38-54.3c-16.7-7.9-33.6-0.6-45.1,10.9c-11.5,11.5-19.1,27.3-28.4,42
					C1275.3,1420,1263.3,1433.7,1247.3,1438.5z"/>
				<path id="Path_32_9_" class="st0" d="M1256.3,1447.4c-6.7,2.1-8.3,6.5-11.4,13.5c-3.2,7.4-4.2,16.1-5,24.8
					c-1.2,12.6-0.4,22.7-2.4,34.5c-0.1,0.8-0.3,1.6-0.4,2.3c-5,26.1-25.8,39.2-38.7,59.6c-3.7,6-6.7,12.6-8.8,19.4
					c-8.4,27.4-4.4,61,13.7,87.6c19.2,28.4,52.5,44.6,79.1,36.5c22.5-6.8,38.6-28.1,61.3-34.2c15.9-4.3,33.4-0.4,49.3-3.4
					c18.3-3.4,33.7-15.8,44.1-32.7c3.5-5.6,6.3-11.6,8.5-18c9.1-26.5,7.5-59.8-4.3-89c-9.6-23.7-25.1-44.1-34.4-68
					c-7.5-19.3-10.5-39.8-16.6-59.6c-6.3-20.3-17.5-41.5-34.2-49.6c-15-7.2-30.2-0.9-40.5,9.2c-10.4,10.1-17.4,24.1-25.8,37.2
					C1281.4,1430.6,1270.6,1442.9,1256.3,1447.4z"/>
				<path id="Path_33_9_" class="st0" d="M1265.2,1456.3c-6,2-7.5,6-10.2,12.4c-2.9,6.7-3.8,14.7-4.5,22.6
					c-1.1,11.5-0.4,20.6-2.1,31.4c-0.1,0.7-0.2,1.4-0.4,2.1c-4.4,23.8-22.8,36.1-34.1,54.9c-3.3,5.5-5.9,11.5-7.8,17.8
					c-7.5,25.1-3.7,55.4,12.9,79.5c17.2,25,46.6,39.4,70.3,32.3c20-6,34.4-24.6,54.5-30.2c14.1-3.9,29.5-0.6,43.6-3.4
					c16.2-3.3,29.7-14.7,38.8-30c3-5.1,5.5-10.5,7.4-16.2c8-23.8,6.5-53.7-3.9-79.8c-8.4-21.3-22.1-39.7-30.3-61.1
					c-6.6-17.3-9.3-35.7-14.7-53.4c-5.6-18.2-15.5-37.5-30.4-45c-13.2-6.6-26.7-1.3-36,7.5c-9.3,8.7-15.7,20.9-23.2,32.4
					C1287.6,1441.3,1277.9,1452.1,1265.2,1456.3z"/>
				<path id="Path_34_9_" class="st0" d="M1274.2,1465.2c-5.3,1.9-6.6,5.6-9.1,11.3c-2.6,6.1-3.4,13.2-4,20.3
					c-0.9,10.3-0.3,18.6-1.8,28.3c-0.1,0.6-0.2,1.3-0.3,1.9c-3.8,21.5-19.8,33.1-29.6,50.2c-2.9,5-5.2,10.5-6.8,16.1
					c-6.8,24.2-2.3,50.6,12.2,71.4c15.2,21.6,40.8,34.2,61.5,28.1c17.5-5.1,30.2-21.2,47.7-26.2c12.2-3.5,25.7-0.8,37.8-3.5
					c14.1-3.2,25.7-13.7,33.5-27.3c2.6-4.6,4.7-9.4,6.3-14.4c6.8-21.2,5.5-47.5-3.5-70.7c-7.3-18.8-19.1-35.2-26.2-54.2
					c-5.7-15.3-8.1-31.6-12.8-47.3c-4.9-16.2-13.4-33.4-26.6-40.3c-11.5-6-23.2-1.6-31.4,5.7c-8.2,7.3-13.9,17.7-20.6,27.6
					C1293.7,1452,1285.2,1461.3,1274.2,1465.2z"/>
				<path id="Path_35_9_" class="st0" d="M1283.1,1474.1c-4.6,1.8-5.8,5.1-8,10.2c-2.3,5.4-3,11.8-3.5,18.1
					c-0.8,9.1-0.3,16.6-1.5,25.1c-0.1,0.6-0.2,1.1-0.3,1.7c-3.2,19.2-16.7,30-25.1,45.4c-2.5,4.6-4.4,9.4-5.8,14.5
					c-5.5,20.4-2.3,44.2,11.5,63.3c13.2,18.3,34.9,29,52.7,23.9c15-4.3,26-17.8,40.8-22.2c10.4-3.1,21.8-1,32-3.6
					c12.1-3.1,21.7-12.6,28.2-24.7c2.2-4,3.9-8.3,5.3-12.7c5.6-18.5,4.5-41.3-3.1-61.5c-6.2-16.4-16.1-30.8-22.1-47.3
					c-4.8-13.3-6.9-27.5-10.9-41.1c-4.2-14.2-11.4-29.3-22.8-35.6c-9.8-5.4-19.8-1.9-26.8,4c-7.1,5.9-12.2,14.5-18,22.8
					C1299.8,1462.6,1292.5,1470.5,1283.1,1474.1z"/>
				<path id="Path_36_9_" class="st0" d="M1292.1,1482.9c-3.9,1.6-5,4.7-6.8,9.1c-2,4.8-2.6,10.3-3,15.8c-0.7,7.9-0.2,14.5-1.2,22
					c-0.1,0.5-0.1,1-0.2,1.5c-2.6,16.8-13.7,26.9-20.6,40.7c-2,4.1-3.6,8.4-4.8,12.8c-4.6,18-1.7,38.6,10.7,55.1
					c11.2,14.9,29.1,23.8,43.8,19.7c12.5-3.4,21.7-14.4,34-18.2c8.6-2.7,18-1.2,26.3-3.7c10-3.1,17.7-11.5,22.9-22
					c1.7-3.5,3.1-7.1,4.2-10.9c4.5-15.9,3.4-35.2-2.7-52.4c-5-14-13.1-26.3-18-40.4c-4-11.3-5.7-23.4-9-35
					c-3.5-12.2-9.4-25.2-18.9-30.9c-8-4.8-16.3-2.2-22.3,2.3c-6,4.6-10.4,11.2-15.5,18C1306,1473.3,1299.7,1479.7,1292.1,1482.9z"/>
				<path id="Path_37_9_" class="st0" d="M1301,1491.8c-3.2,1.5-4.2,4.2-5.7,7.9c-1.6,4.1-2.1,8.8-2.5,13.6
					c-0.5,6.7-0.1,12.5-0.9,18.9c-0.1,0.4-0.1,0.9-0.2,1.3c-2,14.5-10.6,23.8-16.1,36c-1.6,3.6-2.9,7.3-3.8,11.2
					c-3.7,15.7-1.1,33,10,47c9.1,11.6,23.2,18.6,35,15.5c10-2.6,17.5-11,27.2-14.2c6.8-2.2,14.2-1.4,20.5-3.8
					c7.9-3,13.7-10.5,17.5-19.3c1.3-2.9,2.3-6,3.1-9.1c3.3-13.2,2.4-29-2.3-43.2c-3.9-11.6-10-21.9-13.9-33.5
					c-3.1-9.4-4.5-19.2-7.1-28.8c-2.8-10.2-7.4-21.1-15.1-26.2c-6.3-4.1-12.9-2.5-17.7,0.6c-4.9,3.2-8.7,8-12.9,13.1
					C1312.1,1484,1307,1489,1301,1491.8z"/>
				<path id="Path_38_9_" class="st0" d="M1309.9,1500.7c-2.5,1.4-3.4,3.8-4.6,6.8c-1.3,3.4-1.7,7.4-2,11.3
					c-0.4,5.5-0.1,10.5-0.6,15.8c0,0.4-0.1,0.7-0.1,1.1c-1.4,12.2-7.6,20.7-11.6,31.2c-1.2,3.1-2.1,6.3-2.7,9.5
					c-2.7,13.3-0.5,27.4,9.2,38.9c7,8.3,17.4,13.4,26.2,11.4c7.5-1.7,13.3-7.6,20.4-10.2c5-1.8,10.3-1.6,14.7-3.8
					c5.9-3,9.7-9.4,12.2-16.6c0.8-2.4,1.5-4.9,2-7.4c2.1-10.6,1.4-22.8-2-34c-2.7-9.1-7-17.4-9.8-26.6c-2.2-7.4-3.4-15.1-5.2-22.6
					c-2-8.2-5.4-17-11.3-21.6c-4.5-3.5-9.4-2.8-13.2-1.1c-3.8,1.8-6.9,4.8-10.3,8.3C1318.2,1494.7,1314.3,1498.2,1309.9,1500.7z"/>
			</g>
		</g>
	</g>
	<g id="Group_11_1_">
		<g id="Group_10_1_" transform="translate(293.448 85.801)">
			<path id="Path_39_1_" class="st0" d="M1622.6,1201.7c-46.4,13.9-74.2,56.5-92.9,101.4s-31,94.4-57.8,133.3s-72.9,66.5-125.9,52.7
				c-56-14.5-102.8-69.9-132.4-125.1c-29.5-55.2-48.1-114.2-82-167.5c-42-66.1-104.6-118.7-148-184
				c-53.5-80.4-73.5-177.9-52.5-255.5s82.4-133.6,161.1-146.7c54-9,114.9,0.9,165.6-15.5c72.4-23.4,112.3-96.3,181.8-125.2
				c82.4-34.2,202.1,5.7,275,91.6c72.9,86,91.8,209.6,43.4,283.9c-34.8,53.5-100.6,85.7-107.3,155.2c-3.4,35.4,3.8,61.3,5.4,98.1
				c1,23,1.9,46.5-4.8,66.7C1644.7,1185.3,1642.5,1195.8,1622.6,1201.7z"/>
			<path id="Path_40_1_" class="st0" d="M1613.3,1194.8c19.3-5.8,21.4-16,27.9-35.4c6.5-19.5,5.6-42.3,4.7-64.7
				c-1.4-33.5-7.7-57.8-5.7-89.1c0.1-2,0.3-4,0.5-6.1c6.4-67.5,70.1-98.8,103.8-150.8c9.7-14.9,16.6-31.9,20.8-50.1
				c16.2-70.1-6.9-159.3-63.1-225.4c-70.6-83.2-186.6-121.9-266.4-88.7c-67.3,27.9-106,98.6-176.1,121.2
				c-49.1,15.9-108.1,6.3-160.4,15.1c-57.6,9.7-105.6,43.1-134.4,91.3c-9.5,15.9-16.7,33.1-21.6,51.2
				c-20.3,75.3-0.8,169.7,50.9,247.7c42,63.3,102.6,114.3,143.3,178.4c32.8,51.7,50.8,108.9,79.5,162.3
				c28.6,53.5,74,107.2,128.3,121.4c51.3,13.3,96-13.3,122-50.9s37.9-85.5,56.1-129S1568.4,1208.3,1613.3,1194.8z"/>
			<path id="Path_41_1_" class="st0" d="M1603.9,1187.9c18.7-5.7,20.8-15.5,27-34.4c6.3-18.9,5.4-41.1,4.5-62.7
				c-1.4-32.5-7.5-56.1-5.6-86.4c0.1-1.9,0.3-3.9,0.5-5.9c6.2-65.4,67.7-95.9,100.3-146.4c9.3-14.5,16-30.9,20.1-48.6
				c15.7-68-6.8-154.5-61.4-218.5C1621,504.4,1508.8,467,1431.6,499c-65.1,27-102.6,95.3-170.5,117.3
				c-47.5,15.4-104.6,6.2-155.1,14.7c-55.7,9.5-102.1,41.9-129.9,88.6c-9.1,15.4-16.1,32-20.8,49.6c-19.5,72.9-0.7,164.3,49.4,239.9
				c40.7,61.3,99.3,110.8,138.6,172.8c31.7,50,49.2,105.4,76.9,157.2c27.7,51.8,71.6,103.9,124.2,117.7
				c49.7,12.9,92.9-12.7,118.1-49.1c25.2-36.4,36.8-82.6,54.4-124.6C1534.4,1240.9,1560.5,1201,1603.9,1187.9z"/>
			<path id="Path_42_1_" class="st0" d="M1594.6,1181c18.1-5.5,20.1-15.1,26.1-33.4c6-18.3,5.2-39.8,4.3-60.8
				c-1.3-31.5-7.2-54.3-5.4-83.7c0.1-1.9,0.3-3.8,0.4-5.7c5.9-63.4,65.4-93.1,96.8-142c9-14,15.4-30,19.4-47.1
				c15.1-65.9-6.6-149.6-59.6-211.7c-66.1-77.8-174.5-113.9-249.2-83c-63,26.1-99.2,92.1-164.8,113.3c-45.9,14.9-101,6-149.8,14.3
				c-53.8,9.3-98.6,40.6-125.4,85.8c-8.8,14.9-15.6,31-20.1,48c-18.8,70.5-0.6,159,47.8,232c39.3,59.3,95.9,107.2,134,167.2
				c30.7,48.4,47.6,102,74.3,152.1c26.8,50.2,69.3,100.6,120,114c48,12.6,89.8-12.2,114.1-47.3c24.4-35.1,35.6-79.7,52.7-120.3
				C1527.4,1232.2,1552.6,1193.7,1594.6,1181z"/>
			<path id="Path_43_1_" class="st0" d="M1585.2,1174.1c17.4-5.4,19.4-14.6,25.3-32.3c5.8-17.7,5.1-38.5,4.2-58.8
				c-1.3-30.4-7-52.6-5.3-81c0.1-1.8,0.2-3.6,0.4-5.5c5.7-61.4,63-90.2,93.4-137.6c8.7-13.6,14.9-29,18.7-45.6
				c14.5-63.8-6.6-144.7-57.8-204.8c-63.9-75-168.5-109.9-240.6-80.1c-60.8,25.2-95.8,88.8-159.1,109.3
				c-44.3,14.4-97.5,5.9-144.6,13.9c-51.9,9-95.1,39.4-120.9,83.1c-8.5,14.4-15,30-19.3,46.4c-18.1,68.2-0.5,153.6,46.2,224.2
				c37.9,57.4,92.6,103.6,129.3,161.6c29.6,46.8,45.9,98.6,71.8,147c25.9,48.5,66.9,97.2,115.9,110.3
				c46.3,12.2,86.7-11.7,110.2-45.5c23.6-33.8,34.5-76.8,51-116C1520.3,1223.6,1544.7,1186.4,1585.2,1174.1z"/>
			<path id="Path_44_1_" class="st0" d="M1575.9,1167.2c16.8-5.2,18.8-14.2,24.4-31.3c5.6-17.2,4.9-37.2,4-56.9
				c-1.3-29.4-6.8-50.8-5.1-78.3c0.1-1.7,0.2-3.5,0.4-5.3c5.4-59.3,60.7-87.3,89.9-133.2c8.4-13.2,14.3-28.1,18-44.2
				c14-61.7-6.5-139.9-56.1-197.9c-61.7-72.2-162.5-105.9-232-77.2c-58.6,24.2-92.4,85.5-153.4,105.4
				c-42.7,13.9-93.9,5.8-139.3,13.6c-50,8.8-91.6,38.2-116.4,80.4c-8.2,13.9-14.4,29-18.6,44.8c-17.4,65.8-0.4,148.3,44.6,216.4
				c36.6,55.4,89.2,100.1,124.6,156c28.6,45.2,44.3,95.1,69.2,141.9c25,46.8,64.5,93.9,111.8,106.5c44.7,11.8,83.6-11.1,106.3-43.7
				c22.8-32.5,33.3-74,49.3-111.7C1513.3,1214.9,1536.8,1179,1575.9,1167.2z"/>
			<path id="Path_45_1_" class="st0" d="M1566.5,1160.3c16.2-5,18.1-13.7,23.5-30.2c5.4-16.6,4.7-35.9,3.9-54.9
				c-1.2-28.4-6.5-49.1-5-75.6c0.1-1.7,0.2-3.4,0.4-5.1c5.2-57.3,58.3-84.4,86.4-128.8c8.1-12.7,13.8-27.2,17.3-42.7
				c13.4-59.7-6.4-135-54.3-191c-59.5-69.4-156.4-101.9-223.4-74.3c-56.5,23.3-89,82.3-147.7,101.4c-41.1,13.4-90.4,5.5-134,13.2
				c-48.2,8.5-88.1,37-112,77.7c-7.9,13.4-13.9,27.9-17.9,43.2c-16.7,63.5-0.4,142.9,43,208.6c35.2,53.4,85.9,96.5,119.9,150.5
				c27.5,43.5,42.7,91.7,66.7,136.7c24,45.2,62.1,90.7,107.7,102.8c43,11.5,80.5-10.6,102.4-41.8c22-31.2,32.2-71.1,47.6-107.3
				C1506.3,1206.3,1529,1171.8,1566.5,1160.3z"/>
			<path id="Path_46_1_" class="st0" d="M1557.1,1153.3c15.6-4.9,17.4-13.3,22.6-29.2c5.2-16,4.5-34.7,3.7-52.9
				c-1.2-27.4-6.3-47.3-4.8-72.9c0.1-1.6,0.2-3.3,0.4-5c4.9-55.3,56-81.6,82.9-124.4c7.7-12.3,13.2-26.2,16.6-41.2
				c12.9-57.6-6.2-130.2-52.5-184.1c-57.2-66.7-150.4-97.9-214.8-71.4c-54.3,22.4-85.7,79-142.1,97.5
				c-39.5,12.9-86.9,5.4-128.8,12.8c-46.3,8.2-84.6,35.7-107.5,75c-7.5,12.9-13.3,26.9-17.1,41.6c-16,61.1-0.3,137.5,41.4,200.8
				c33.8,51.4,82.5,92.9,115.3,144.9c26.4,41.9,41,88.3,64.1,131.6c23.1,43.5,59.7,87.3,103.6,99.1c41.3,11.1,77.4-10.1,98.5-40
				c21.1-30,31-68.2,45.8-103C1499.3,1197.6,1521.1,1164.5,1557.1,1153.3z"/>
			<path id="Path_47_1_" class="st0" d="M1547.8,1146.4c15-4.7,16.7-12.8,21.7-28.1c5-15.4,4.3-33.4,3.6-51
				c-1.1-26.3-6.1-45.6-4.7-70.2c0.1-1.6,0.2-3.2,0.3-4.8c4.7-53.2,53.6-78.7,79.4-120c7.5-12.1,12.8-25.5,15.9-39.7
				c12.3-55.5-6.1-125.3-50.8-177.2c-55-63.9-144.4-93.9-206.2-68.5c-52.1,21.5-82.3,75.8-136.4,93.5
				c-37.9,12.4-83.4,5.2-123.5,12.4c-43.4,7.7-80.8,33.9-103,72.2c-7.2,12.4-12.7,25.9-16.4,40c-15.3,58.7-0.2,132.2,39.8,193
				c32.5,49.4,79.2,89.3,110.6,139.3c25.4,40.3,39.4,84.8,61.5,126.5c22.2,41.8,57.3,84,99.5,95.4c39.7,10.7,74.3-9.5,94.5-38.2
				c20.3-28.7,29.9-65.3,44.1-98.7C1492.2,1188.9,1513.2,1157.2,1547.8,1146.4z"/>
			<path id="Path_48_1_" class="st0" d="M1538.4,1139.5c14.4-4.5,16.1-12.4,20.9-27.1c4.8-14.8,4.2-32.1,3.4-49
				c-1.1-25.3-5.9-43.9-4.5-67.5c0.1-1.5,0.2-3,0.3-4.6c4.5-51.2,51.2-75.8,75.9-115.6c7.1-11.7,12.3-24.6,15.2-38.2
				c11.8-53.4-6-120.5-49-170.3c-52.8-61.2-138.3-89.9-197.5-65.6c-50,20.5-78.9,72.5-130.7,89.5c-36.3,11.9-79.8,5.1-118.2,12
				c-41.6,7.5-77.3,32.7-98.5,69.5c-6.9,11.9-12.2,24.8-15.7,38.4c-14.6,56.4-0.1,126.8,38.2,185.2c31.1,47.4,75.8,85.8,105.9,133.7
				c24.3,38.6,37.8,81.4,59,121.4c21.3,40.2,55,80.7,95.4,91.7c38,10.3,71.1-9,90.6-36.4c19.5-27.4,28.7-62.4,42.4-94.4
				C1485.2,1180.3,1505.4,1149.9,1538.4,1139.5z"/>
			<path id="Path_49_1_" class="st0" d="M1529.1,1132.6c13.8-4.4,15.4-12,20-26c4.6-14.2,4-30.8,3.3-47.1
				c-1.1-24.3-5.6-42.1-4.4-64.8c0.1-1.4,0.2-2.9,0.3-4.4c4.2-49.2,48.9-72.9,72.5-111.2c6.8-11.2,11.7-23.6,14.5-36.7
				c11.2-51.3-5.9-115.6-47.2-163.4c-50.5-58.4-132.3-85.9-188.9-62.7c-47.8,19.6-75.5,69.3-125,85.6c-34.7,11.4-76.3,4.9-113,11.7
				c-39.7,7.2-73.9,31.5-94,66.8c-6.6,11.5-11.6,23.8-14.9,36.8c-13.9,54,0,121.5,36.6,177.4c29.7,45.4,72.4,82.2,101.3,128.1
				c23.2,37,36.1,77.9,56.4,116.3c20.4,38.5,52.6,77.4,91.3,88c36.3,10,68-8.4,86.7-34.6c18.7-26.1,27.6-59.5,40.7-90.1
				C1478.2,1171.6,1497.5,1142.7,1529.1,1132.6z"/>
			<path id="Path_50_1_" class="st0" d="M1519.7,1125.7c13.2-4.2,14.7-11.5,19.1-25c4.4-13.6,3.8-29.5,3.1-45.1
				c-1-23.3-5.4-40.4-4.2-62.1c0.1-1.4,0.2-2.8,0.3-4.2c4-47.1,46.5-70.1,69-106.8c6.5-10.8,11.2-22.7,13.8-35.2
				c10.7-49.2-5.8-110.8-45.5-156.6c-48.3-55.7-126.3-82-180.3-59.8c-45.6,18.7-72.1,66-119.4,81.6c-33.1,10.9-72.8,4.8-107.7,11.3
				c-38.8,7.2-70.6,30.8-89.6,64.1c-6.2,11-11,22.8-14.2,35.2c-13.2,51.7,0.1,116.1,35,169.6c28.4,43.4,69.1,78.6,96.6,122.5
				c22.2,35.4,34.5,74.5,53.9,111.1c19.5,36.8,50.2,74.1,87.2,84.3c34.7,9.6,64.9-7.9,82.8-32.8c17.9-24.8,26.4-56.6,39-85.7
				C1471.1,1163,1489.6,1135.4,1519.7,1125.7z"/>
			<path id="Path_51_1_" class="st0" d="M1510.4,1118.8c12.6-4.1,14-11.1,18.2-24c4.2-13,3.6-28.2,2.9-43.2
				c-1-22.2-5.2-38.6-4.1-59.4c0.1-1.3,0.2-2.7,0.3-4c3.7-45.1,44.2-67.2,65.5-102.4c6.2-10.3,10.6-21.7,13.1-33.7
				c10.1-47.1-5.6-105.9-43.7-149.7c-46.1-53-120.2-78-171.7-56.9c-43.5,17.8-68.7,62.8-113.7,77.6c-31.5,10.4-69.2,4.6-102.4,10.9
				c-36.9,7-67.1,29.6-85.1,61.4c-5.9,10.5-10.4,21.8-13.4,33.6c-12.5,49.3,0.2,110.7,33.4,161.8c27,41.4,65.7,75.1,91.9,117
				c21.1,33.8,32.9,71.1,51.3,106c18.5,35.2,47.8,70.7,83.1,80.6c33,9.2,61.8-7.4,78.8-31c17.1-23.5,25.3-53.8,37.3-81.4
				C1464.1,1154.3,1481.7,1128.1,1510.4,1118.8z"/>
			<path id="Path_52_1_" class="st0" d="M1501,1111.9c11.9-3.9,13.4-10.6,17.3-22.9c4-12.5,3.4-27,2.8-41.2c-1-21.2-5-36.9-3.9-56.7
				c0.1-1.3,0.1-2.6,0.3-3.9c3.5-43.1,41.8-64.3,62-98c5.8-9.9,10-20.8,12.4-32.2c9.5-45-5.5-101.1-41.9-142.8
				c-43.8-50.2-114.2-74-163.1-54c-41.3,16.8-65.3,59.5-108,73.7c-29.9,9.9-65.7,4.4-97.2,10.5c-35,6.8-63.6,28.4-80.6,58.6
				c-5.6,10-9.9,20.7-12.7,32c-11.8,46.9,0.3,105.4,31.8,153.9c25.6,39.4,62.4,71.5,87.2,111.4c20,32.2,31.2,67.6,48.8,100.9
				c17.6,33.5,45.4,67.4,79,76.9c31.3,8.8,58.7-6.8,74.9-29.1c16.3-22.3,24.1-50.9,35.6-77.1
				C1457.1,1145.7,1473.8,1120.8,1501,1111.9z"/>
			<path id="Path_53_1_" class="st0" d="M1491.7,1105c11.3-3.7,12.7-10.2,16.5-21.9c3.8-11.9,3.3-25.7,2.6-39.2
				c-0.9-20.2-4.7-35.1-3.8-54c0.1-1.2,0.1-2.4,0.2-3.7c3.2-41,39.5-61.4,58.5-93.6c5.5-9.5,9.5-19.8,11.7-30.7
				c9-42.9-5.4-96.2-40.2-135.9c-41.6-47.5-108.1-70-154.5-51.1c-39.1,15.9-61.9,56.3-102.3,69.7c-28.3,9.4-62.2,4.3-91.9,10.1
				c-33.1,6.5-60.1,27.2-76.1,55.9c-5.3,9.5-9.3,19.7-12,30.4c-11.1,44.6,0.4,100,30.3,146.1c24.3,37.5,59,67.9,82.6,105.8
				c19,30.5,29.6,64.2,46.2,95.8c16.7,31.8,43,64.1,74.9,73.2c29.7,8.5,55.6-6.3,71-27.3c15.5-21,23-48,33.9-72.8
				C1450.1,1137,1466,1113.5,1491.7,1105z"/>
			<path id="Path_54_1_" class="st0" d="M1482.3,1098.1c10.7-3.6,12-9.7,15.6-20.8c3.6-11.3,3.1-24.4,2.5-37.3
				c-0.9-19.1-4.5-33.4-3.6-51.3c0.1-1.2,0.1-2.3,0.2-3.5c3-39,37.1-58.6,55.1-89.2c5.2-9,8.9-18.9,11-29.2
				c8.4-40.9-5.3-91.4-38.4-129c-39.4-44.7-102.1-66-145.9-48.2c-36.9,15-58.5,53-96.7,65.8c-26.7,8.9-58.6,4.1-86.6,9.8
				c-31.2,6.3-56.6,25.9-71.6,53.2c-5,9-8.7,18.7-11.2,28.8c-10.4,42.2,0.5,94.7,28.7,138.3c22.9,35.5,55.7,64.4,77.9,100.2
				c17.9,28.9,28,60.8,43.6,90.7c15.8,30.2,40.6,60.8,70.7,69.5c28,8.1,52.5-5.8,67.1-25.5c14.6-19.7,21.8-45.1,32.2-68.4
				C1443,1128.3,1458.1,1106.2,1482.3,1098.1z"/>
			<path id="Path_55_1_" class="st0" d="M1473,1091.2c10.1-3.4,11.3-9.3,14.7-19.8c3.4-10.7,2.9-23.1,2.3-35.3
				c-0.9-18.1-4.3-31.6-3.5-48.6c0-1.1,0.1-2.2,0.2-3.3c2.8-37,34.8-55.7,51.6-84.8c4.9-8.6,8.3-17.9,10.3-27.8
				c7.9-38.8-5.2-86.5-36.6-122.1c-37.1-42-96.1-62-137.3-45.3c-34.8,14.1-55.2,49.8-91,61.8c-25.1,8.4-55.1,4-81.4,9.4
				c-29.4,6-53.1,24.7-67.2,50.5c-4.6,8.5-8.2,17.7-10.5,27.2c-9.7,39.9,0.6,89.3,27.1,130.5c21.5,33.5,52.3,60.8,73.2,94.6
				c16.8,27.3,26.3,57.3,41.1,85.5c14.9,28.5,38.3,57.5,66.6,65.8c26.3,7.7,49.4-5.2,63.2-23.7c13.8-18.4,20.6-42.2,30.5-64.1
				C1436,1119.7,1450.2,1098.9,1473,1091.2z"/>
			<path id="Path_56_1_" class="st0" d="M1463.6,1084.2c9.5-3.3,10.7-8.9,13.8-18.7c3.2-10.1,2.7-21.8,2.2-33.4
				c-0.8-17.1-4.1-29.9-3.4-45.9c0-1,0.1-2.1,0.2-3.1c2.5-35,32.4-52.8,48.1-80.4c4.5-8.1,7.8-17,9.6-26.3
				c7.3-36.7-5-81.7-34.9-115.2c-34.9-39.2-90-58-128.7-42.4c-32.6,13.1-51.8,46.5-85.3,57.8c-23.5,7.9-51.6,3.8-76.1,9
				c-27.5,5.8-49.6,23.5-62.7,47.8c-4.3,8-7.6,16.6-9.7,25.6c-9,37.5,0.7,84,25.5,122.7c20.1,31.5,49,57.2,68.6,89
				c15.8,25.7,24.7,53.9,38.5,80.4c13.9,26.8,35.9,54.1,62.5,62.1c24.7,7.3,46.3-4.7,59.2-21.9c13-17.1,19.5-39.3,28.8-59.8
				C1429,1111,1442.3,1091.6,1463.6,1084.2z"/>
			<path id="Path_57_1_" class="st0" d="M1454.3,1077.3c8.9-3.1,10-8.4,12.9-17.7c3-9.5,2.5-20.6,2-31.4
				c-0.8-16.1-3.8-28.2-3.2-43.2c0-1,0.1-2,0.2-3c2.3-32.9,30-50,44.6-76c4.2-7.7,7.2-16,8.9-24.8c6.8-34.6-4.9-76.8-33.1-108.3
				c-32.6-36.5-84-54-120.1-39.5c-30.4,12.2-48.4,43.3-79.6,53.9c-21.9,7.4-48,3.7-70.8,8.6c-25.6,5.5-46.1,22.3-58.2,45
				c-4,7.5-7,15.6-9,24c-8.3,35.2,0.8,78.6,23.9,114.9c18.8,29.5,45.6,53.6,63.9,83.4c14.7,24,23,50.5,36,75.3
				c13,25.2,33.5,50.8,58.4,58.3c23,6.9,43.2-4.2,55.3-20.1c12.2-15.9,18.3-36.4,27-55.5C1421.9,1102.4,1434.4,1084.3,1454.3,1077.3
				z"/>
			<path id="Path_58_1_" class="st0" d="M1444.9,1070.4c8.3-2.9,9.3-8,12.1-16.6c2.8-8.9,2.4-19.3,1.9-29.4
				c-0.7-15-3.6-26.4-3.1-40.5c0-0.9,0.1-1.8,0.1-2.8c2-30.9,27.7-47.1,41.1-71.6c3.9-7.2,6.7-15.1,8.2-23.3
				c6.2-32.5-4.8-72-31.3-101.5c-30.4-33.7-78-50-111.5-36.6c-28.3,11.3-45,40-74,49.9c-20.3,6.9-44.5,3.5-65.6,8.2
				c-23.7,5.3-42.6,21-53.7,42.3c-3.7,7-6.5,14.6-8.3,22.4c-7.6,32.8,0.9,73.2,22.3,107.1c17.4,27.5,42.3,50.1,59.2,77.9
				c13.7,22.4,21.4,47,33.4,70.2c12.1,23.5,31.1,47.5,54.3,54.6c21.3,6.6,40-3.7,51.4-18.2c11.4-14.6,17.2-33.6,25.3-51.2
				C1414.9,1093.7,1426.6,1077,1444.9,1070.4z"/>
			<path id="Path_59_1_" class="st0" d="M1435.6,1063.5c7.7-2.8,8.7-7.5,11.2-15.6c2.6-8.3,2.2-18,1.7-27.5
				c-0.7-14-3.4-24.7-2.9-37.8c0-0.9,0.1-1.7,0.1-2.6c1.8-28.9,25.3-44.2,37.6-67.2c3.6-6.8,6.1-14.1,7.5-21.8
				c5.6-30.4-4.7-67.1-29.6-94.6c-28.1-31-71.9-46-102.9-33.7c-26.1,10.4-41.6,36.8-68.3,46c-18.7,6.4-41,3.4-60.3,7.9
				c-21.8,5-39.1,19.8-49.2,39.6c-3.4,6.6-5.9,13.5-7.5,20.8c-6.9,30.4,1,67.9,20.7,99.3c16,25.5,38.9,46.5,54.5,72.3
				c12.6,20.8,19.8,43.6,30.9,65.1c11.2,21.9,28.7,44.2,50.2,50.9c19.7,6.2,36.9-3.1,47.5-16.4c10.5-13.3,16-30.7,23.6-46.8
				C1407.9,1085,1418.7,1069.7,1435.6,1063.5z"/>
			<path id="Path_60_1_" class="st0" d="M1426.2,1056.6c7-2.6,8-7.1,10.3-14.6c2.4-7.7,2-16.7,1.5-25.5c-0.7-13-3.2-22.9-2.8-35.1
				c0-0.8,0.1-1.6,0.1-2.4c1.5-26.8,23-41.3,34.2-62.8c3.3-6.3,5.5-13.2,6.8-20.3c5.1-28.3-4.5-62.3-27.8-87.7
				c-25.9-28.2-65.9-42-94.3-30.8c-23.9,9.4-38.2,33.5-62.6,42c-17.1,5.9-37.4,3.2-55,7.5c-20,4.8-35.6,18.6-44.8,36.9
				c-3,6.1-5.3,12.5-6.8,19.2c-6.2,28.1,1,62.5,19.1,91.5c14.7,23.5,35.6,42.9,49.9,66.7c11.5,19.2,18.2,40.1,28.3,59.9
				c10.3,20.2,26.3,40.8,46.1,47.2c18,5.8,33.8-2.6,43.5-14.6c9.7-12,14.9-27.8,21.9-42.5
				C1400.9,1076.4,1410.8,1062.4,1426.2,1056.6z"/>
			<path id="Path_61_1_" class="st0" d="M1416.8,1049.7c6.4-2.5,7.3-6.6,9.4-13.5c2.2-7.2,1.8-15.4,1.4-23.6
				c-0.6-11.9-2.9-21.2-2.6-32.4c0-0.7,0-1.5,0.1-2.2c1.3-24.8,20.6-38.5,30.7-58.4c2.9-5.9,5-12.2,6.1-18.8
				c4.5-26.2-4.4-57.4-26-80.8c-23.6-25.5-59.9-38-85.7-27.9c-21.8,8.5-34.8,30.3-56.9,38c-15.5,5.4-33.9,3.1-49.8,7.1
				c-18.1,4.6-32.1,17.4-40.3,34.2c-2.7,5.6-4.7,11.5-6,17.6c-5.4,25.7,1.1,57.2,17.5,83.7c13.3,21.5,32.2,39.4,45.2,61.1
				c10.5,17.5,16.5,36.7,25.7,54.8c9.4,18.5,23.9,37.5,42,43.5c16.3,5.4,30.7-2.1,39.6-12.8c8.9-10.8,13.8-24.9,20.2-38.2
				C1393.9,1067.8,1402.9,1055.1,1416.8,1049.7z"/>
			<path id="Path_62_1_" class="st0" d="M1407.5,1042.8c5.8-2.3,6.7-6.2,8.5-12.5c2-6.6,1.7-14.1,1.2-21.6
				c-0.6-10.9-2.7-19.4-2.5-29.7c0-0.7,0-1.4,0.1-2c1.1-22.8,18.3-35.6,27.2-54c2.6-5.4,4.4-11.3,5.4-17.3
				c4-24.1-4.3-52.6-24.3-73.9c-21.4-22.8-53.8-34.1-77.1-25.1c-19.6,7.6-31.4,27-51.3,34.1c-13.9,4.9-30.4,2.9-44.5,6.7
				c-16.2,4.3-28.6,16.1-35.8,31.5c-2.4,5.1-4.2,10.5-5.3,16c-4.7,23.4,1.2,51.8,15.9,75.8c11.9,19.5,28.9,35.8,40.5,55.5
				c9.4,15.9,14.9,33.3,23.2,49.7c8.5,16.8,21.5,34.2,37.9,39.8c14.6,5,27.6-1.5,35.7-11c8.1-9.5,12.6-22,18.5-33.9
				C1386.8,1059.1,1395,1047.8,1407.5,1042.8z"/>
			<path id="Path_63_1_" class="st0" d="M1398.1,1035.9c5.2-2.2,6-5.7,7.6-11.4c1.8-6,1.5-12.9,1.1-19.7c-0.6-9.9-2.5-17.7-2.3-27
				c0-0.6,0-1.2,0-1.9c0.8-20.7,15.9-32.7,23.7-49.6c2.3-5,3.9-10.3,4.7-15.8c3.4-22.1-4.1-47.7-22.5-67
				c-19.1-20-47.8-30.1-68.5-22.2c-17.4,6.7-28,23.8-45.6,30.1c-12.3,4.4-26.9,2.8-39.2,6.3c-14.3,4.1-25.1,14.9-31.3,28.7
				c-2.1,4.6-3.6,9.4-4.6,14.4c-4,21,1.3,46.4,14.3,68c10.6,17.5,25.5,32.2,35.9,49.9c8.3,14.3,13.3,29.8,20.6,44.6
				c7.6,15.2,19.2,30.9,33.8,36.1c13,4.6,24.5-1,31.8-9.2c7.3-8.2,11.4-19.1,16.8-29.5C1379.8,1050.4,1387.2,1040.5,1398.1,1035.9z"
				/>
			<path id="Path_64_1_" class="st0" d="M1388.8,1029c4.6-2,5.3-5.3,6.8-10.4c1.6-5.4,1.3-11.6,0.9-17.7c-0.5-8.9-2.2-15.9-2.2-24.3
				c0-0.6,0-1.1,0-1.7c0.6-18.7,13.6-29.8,20.2-45.2c2-4.5,3.3-9.4,4-14.3c2.9-20-4-42.9-20.7-60.1c-16.8-17.3-41.8-26.1-59.8-19.3
				c-15.3,5.7-24.6,20.5-39.9,26.1c-10.7,3.9-23.3,2.7-34,6c-12.5,3.8-21.6,13.7-26.8,26c-1.7,4.1-3,8.4-3.8,12.8
				c-3.3,18.6,1.4,41.1,12.7,60.2c9.2,15.6,22.2,28.6,31.2,44.4c7.3,12.7,11.6,26.4,18.1,39.5c6.7,13.5,16.8,27.5,29.7,32.4
				c11.3,4.3,21.4-0.5,27.8-7.4c6.5-6.9,10.3-16.2,15.1-25.2C1372.8,1041.8,1379.3,1033.1,1388.8,1029z"/>
			<path id="Path_65_1_" class="st0" d="M1379.4,1022.1c4-1.9,4.6-4.9,5.9-9.3c1.3-4.8,1.1-10.3,0.8-15.7c-0.5-7.8-2-14.2-2-21.6
				c0-0.5,0-1,0-1.5c0.3-16.7,11.2-27,16.8-40.8c1.6-4.1,2.7-8.4,3.3-12.8c2.3-17.9-3.8-38-19-53.2c-14.5-14.6-35.7-22.1-51.2-16.4
				c-13.1,4.8-21.3,17.3-34.2,22.2c-9.1,3.4-19.8,2.5-28.7,5.6c-10.6,3.6-18.1,12.5-22.3,23.3c-1.4,3.6-2.5,7.4-3.1,11.2
				c-2.6,16.3,1.5,35.7,11.2,52.4c7.8,13.6,18.8,25.1,26.5,38.8c6.2,11,10,23,15.5,34.3c5.7,11.8,14.4,24.2,25.6,28.7
				c9.6,3.9,18.3,0.1,23.9-5.5c5.7-5.6,9.1-13.3,13.4-20.9C1365.7,1033.1,1371.4,1025.8,1379.4,1022.1z"/>
			<path id="Path_66_1_" class="st0" d="M1370.1,1015.1c3.4-1.7,4-4.4,5-8.3c1.1-4.2,0.9-9,0.6-13.8c-0.5-6.8-1.8-12.4-1.9-18.9
				c0-0.4,0-0.9,0-1.3c0.1-14.6,8.8-24.1,13.3-36.4c1.3-3.6,2.2-7.5,2.6-11.4c1.8-15.8-3.7-33.2-17.2-46.4
				c-12.2-11.9-29.7-18.1-42.6-13.5c-10.9,3.9-17.9,14-28.6,18.2c-7.5,2.9-16.3,2.4-23.4,5.2c-8.7,3.4-14.5,11.2-17.9,20.6
				c-1.1,3.1-1.9,6.3-2.3,9.6c-1.9,13.9,1.6,30.4,9.6,44.6c6.5,11.6,15.5,21.5,21.8,33.2c5.1,9.4,8.4,19.5,12.9,29.2
				c4.8,10.2,12,20.9,21.4,25c8,3.5,15.2,0.6,20-3.7c4.9-4.4,8-10.4,11.7-16.6C1358.7,1024.5,1363.5,1018.5,1370.1,1015.1z"/>
			<path id="Path_67_1_" class="st0" d="M1360.7,1008.2c2.7-1.6,3.3-4,4.1-7.2c0.9-3.6,0.8-7.7,0.5-11.8c-0.4-5.8-1.6-10.7-1.7-16.2
				c0-0.4,0-0.7,0-1.1c-0.2-12.6,6.5-21.2,9.8-32c1-3.2,1.6-6.5,1.9-9.9c1.2-13.7-3.5-28.3-15.5-39.5c-9.9-9.2-23.7-14.1-34-10.6
				c-8.8,3-14.5,10.8-22.9,14.3c-5.9,2.4-12.7,2.3-18.2,4.8c-6.8,3.2-11,10-13.4,17.9c-0.8,2.6-1.3,5.3-1.6,8.1
				c-1.2,11.6,1.7,25,8,36.8c5.1,9.6,12.1,17.9,17.2,27.6c4.1,7.8,6.7,16.1,10.4,24.1c3.9,8.5,9.6,17.5,17.3,21.3
				c6.3,3.1,12.1,1.1,16.1-1.9c4-3.1,6.8-7.5,10-12.3C1351.7,1015.8,1355.6,1011.2,1360.7,1008.2z"/>
			<path id="Path_68_1_" class="st0" d="M1351.4,1001.3c2.1-1.4,2.6-3.5,3.2-6.2c0.7-3,0.6-6.5,0.3-9.9c-0.4-4.7-1.3-9-1.6-13.5
				c0-0.3,0-0.6,0-0.9c-0.4-10.6,4.1-18.3,6.3-27.6c0.6-2.7,1-5.5,1.2-8.4c0.7-11.6-3.3-23.5-13.7-32.6c-7.5-6.6-17.6-10.1-25.4-7.7
				c-6.6,2-11.1,7.5-17.2,10.3c-4.3,2-9.2,2.2-12.9,4.4c-5,3-7.5,8.8-8.9,15.1c-0.5,2.1-0.7,4.3-0.9,6.5c-0.5,9.2,1.8,19.6,6.4,29
				c3.7,7.6,8.8,14.4,12.5,22c3,6.2,5.1,12.7,7.8,19c3,6.9,7.2,14.1,13.2,17.6c4.6,2.6,9,1.7,12.2-0.1c3.2-1.8,5.7-4.7,8.2-7.9
				C1344.7,1007.1,1347.7,1003.8,1351.4,1001.3z"/>
		</g>
	</g>
</g>
</svg>
