<svg version="1.1" id="Layer_1" xmlns="http://www.w3.org/2000/svg" xmlns:xlink="http://www.w3.org/1999/xlink" x="0" y="0" viewBox="0 0 1078.56 596" xml:space="preserve"><style>.st13{fill:none;stroke:#e5e5e5;stroke-width:.75;stroke-miterlimit:10}</style><defs><path id="SVGID_9_" transform="rotate(-180 541.986 298)" d="M-56.51 0h1197v596h-1197z"/></defs><clipPath id="SVGID_2_"><use xlink:href="#SVGID_9_" overflow="visible"/></clipPath><g clip-path="url(#SVGID_2_)"><path class="st13" d="M477.51-41.1c-47.56 27.95-103.66 27.94-154.45 19.99-50.79-7.95-100.22-22.95-152.58-21.9-52.37 1.05-110.7 22.13-141.26 68.58C-3.05 74.61 4.74 136.86 25.92 186c21.17 49.14 54.05 91.96 70.31 143.42 20.16 63.81 13.36 136.44 31.81 200.95 22.73 79.43 85.38 142.14 164.26 164.41 78.88 22.27 172.15 3.6 244.53-48.97 49.63-36.05 89.44-86.56 142.45-116.57 75.66-42.83 165.66-37.05 243.42-75 92.19-45 154.1-154.29 142.17-250.98-11.93-96.69-96.53-171.37-194.29-171.5-70.4-.09-147.94 33.49-209.06 4.45-31.1-14.78-46.31-32.88-74.67-52.01-17.77-11.99-35.99-24.17-57.39-29.01-21.4-4.85-31.52-8.3-51.95 3.71z"/><path class="st13" d="M475.73-30.71c19.82-11.62 29.66-8.27 50.41-3.56 20.76 4.71 38.45 16.54 55.69 28.17 25.87 17.46 40.48 34.05 67.21 47.9 1.7.88 3.44 1.75 5.24 2.6 59.3 28.22 134.5-4.18 202.79-4 19.59.05 38.63 3.19 56.62 8.95C982.81 71.5 1036.38 132.5 1045.46 207c11.52 93.66-48.46 199.51-137.75 243.11-75.31 36.78-162.48 31.22-235.78 72.69-51.35 29.05-89.93 77.94-138.01 112.81-53.01 38.41-117.54 58.06-178.89 56.04-19.86-.65-39.38-3.58-58.07-8.87-76.43-21.65-137.15-82.43-159.22-159.39-17.93-62.51-11.41-132.88-30.99-194.72-15.79-49.87-47.66-91.38-68.2-139C18.01 142.04 10.41 81.7 41.62 34.13c29.57-45 86.03-65.46 136.72-66.53 50.7-1.07 98.57 13.4 147.77 21.07 49.19 7.67 103.54 7.67 149.62-19.38z"/><path class="st13" d="M473.95-20.32c19.21-11.23 28.78-7.98 48.88-3.41 20.13 4.58 37.27 16.04 53.99 27.33 25.07 16.93 39.25 33.03 65.16 46.47 1.64.85 3.34 1.7 5.08 2.53 57.47 27.41 130.34-3.83 196.52-3.54 18.98.08 37.44 3.14 54.87 8.75 67 21.55 118.92 80.68 127.61 152.95 11.1 90.63-46.93 193.03-133.32 235.24-72.87 35.61-157.21 30.27-228.13 70.37-49.69 28.1-87.04 75.36-133.57 109.05-51.35 37.1-113.81 56.03-173.18 54.01-19.22-.65-38.12-3.5-56.21-8.64-73.98-21.02-132.76-79.88-154.19-154.38-17.4-60.51-11.17-128.62-30.16-188.48-15.32-48.28-46.18-88.47-66.09-134.58C31.27 147.22 23.86 88.8 54.02 42.71 82.59-.85 137.18-20.69 186.2-21.76c49.03-1.09 95.34 12.86 142.95 20.23 47.6 7.37 100.19 7.35 144.8-18.79z"/><path class="st13" d="M472.16-9.93c18.61-10.84 27.89-7.69 47.35-3.26C539-8.75 555.61 2.36 571.8 13.3c24.27 16.4 38.03 32 63.1 45.04 1.59.83 3.23 1.65 4.92 2.45 55.65 26.6 126.18-3.47 190.25-3.08 18.37.11 36.24 3.09 53.12 8.54 64.89 20.94 115.15 78.21 123.46 148.26 10.69 87.6-45.4 186.55-128.89 227.37-70.42 34.43-151.93 29.32-220.49 68.06-48.04 27.14-84.15 72.77-129.13 105.29-49.68 35.8-110.08 54.01-167.48 51.98-18.58-.65-36.85-3.43-54.34-8.42-71.53-20.4-128.38-77.33-149.16-149.36-16.88-58.51-10.93-124.36-29.34-182.25-14.84-46.68-44.7-85.57-63.98-130.15C44.53 152.4 37.32 95.9 66.42 51.28 94 9.16 146.71-10.05 194.06-11.14c47.36-1.11 92.11 12.31 138.13 19.4 46.01 7.09 96.83 7.06 139.97-18.19z"/><path class="st13" d="M470.38.47c18-10.45 27.01-7.4 45.82-3.12 18.86 4.31 34.93 15.06 50.6 25.65 23.48 15.87 36.8 30.98 61.04 43.61 1.54.8 3.12 1.59 4.76 2.38 53.82 25.79 122.02-3.11 183.98-2.63 17.77.14 35.05 3.05 51.38 8.33 62.77 20.34 111.23 75.77 119.31 143.56 10.09 84.61-43.88 180.08-124.46 219.51-67.97 33.26-146.65 28.37-212.85 65.74-46.38 26.18-81.26 70.19-124.69 101.53-48.02 34.49-106.34 51.98-161.77 49.96-17.94-.66-35.59-3.36-52.48-8.19-69.1-19.77-124.02-74.78-144.15-144.35-16.35-56.51-10.69-120.1-28.51-176.01-14.37-45.09-43.22-82.66-61.87-125.73-18.7-43.13-25.72-97.71 2.33-140.86C105.41 19.17 156.24.59 201.93-.52c45.69-1.13 88.89 11.76 133.31 18.56 44.4 6.81 93.47 6.76 135.14-17.57z"/><path class="st13" d="M468.59 10.86c17.4-10.06 26.12-7.12 44.29-2.97 18.23 4.17 33.76 14.56 48.9 24.81 22.68 15.34 35.57 29.96 58.99 42.17 1.49.78 3.02 1.54 4.6 2.3 52 24.97 117.86-2.75 177.7-2.17 17.16.17 33.85 3 49.63 8.13 60.65 19.73 107.42 73.31 115.15 138.87 9.63 81.59-42.35 173.6-120.04 211.64-65.53 32.09-141.38 27.42-205.21 63.43-44.72 25.23-78.37 67.6-120.25 97.77-46.35 33.19-102.61 49.96-156.07 47.93-17.31-.66-34.32-3.28-50.62-7.96-66.62-19.14-119.61-72.22-139.09-139.33-15.82-54.51-10.45-115.84-27.69-169.78-13.9-43.5-41.74-79.75-59.76-121.31-18.07-41.63-24.9-94.29 2.09-135.97 25.59-39.24 74.55-57.2 118.57-58.32 44.03-1.15 85.66 11.21 128.49 17.73 42.82 6.53 90.13 6.46 130.32-16.97z"/><path class="st13" d="M466.81 21.25c16.77-9.71 25.24-6.83 42.76-2.82 17.59 4.04 32.59 14.07 47.2 23.97 21.88 14.81 34.35 28.93 56.93 40.74 1.44.75 2.91 1.49 4.43 2.23 50.17 24.16 113.7-2.39 171.43-1.71 16.56.19 32.66 2.96 47.88 7.92 58.53 19.13 103.61 70.85 111 134.17 9.17 78.57-40.82 167.12-115.61 203.77-63.08 30.91-136.1 26.47-197.56 61.11-43.06 24.27-75.43 65.09-115.81 94.01-44.63 31.97-98.88 47.93-150.36 45.9-16.67-.66-33.06-3.21-48.75-7.74-64.17-18.52-115.22-69.67-134.06-134.32-15.3-52.51-10.21-111.58-26.86-163.54-13.43-41.91-40.26-76.85-57.65-116.89-17.46-40.12-24.17-90.92 1.85-131.07 24.52-37.84 71.68-55.13 114.03-56.26 42.36-1.17 82.43 10.66 123.67 16.89 41.21 6.26 86.72 6.09 125.48-16.36z"/><path class="st13" d="M465.02 31.64c16.16-9.33 24.35-6.54 41.22-2.67 16.96 3.91 31.42 13.58 45.51 23.12C572.83 66.37 584.87 80 606.63 91.4c1.38.73 2.81 1.44 4.27 2.15 48.35 23.35 109.53-2.03 165.16-1.26 15.95.22 31.47 2.91 46.13 7.72 56.42 18.52 99.8 68.39 106.85 129.48 8.71 75.55-39.3 160.65-111.18 195.9-60.64 29.74-130.82 25.52-189.92 58.8-41.41 23.31-72.54 62.52-111.37 90.25-42.96 30.68-95.14 45.91-144.66 43.87-16.03-.66-31.79-3.13-46.89-7.51-61.72-17.89-110.84-67.12-129.03-129.3-14.77-50.51-9.97-107.32-26.04-157.31-12.96-40.31-38.78-73.94-55.54-112.46-16.84-38.62-23.37-87.51 1.6-126.18 23.52-36.41 68.81-53.07 109.49-54.21 40.69-1.19 79.21 10.12 118.86 16.06 39.62 5.97 83.37 5.77 120.66-15.76z"/><path class="st13" d="M463.24 42.04c15.55-8.95 23.47-6.25 39.69-2.52 16.33 3.77 30.25 13.08 43.81 22.28 20.28 13.75 31.9 26.89 52.82 37.88 1.33.7 2.7 1.39 4.11 2.08 46.52 22.53 105.37-1.67 158.89-.8 15.35.25 30.27 2.86 44.39 7.51 54.3 17.92 96 65.92 102.69 124.78 8.25 72.53-37.77 154.17-106.75 188.04-58.19 28.57-125.55 24.57-182.28 56.48-39.75 22.36-69.64 59.94-106.93 86.49-41.28 29.39-91.41 43.88-138.96 41.85-15.39-.66-30.53-3.06-45.02-7.28-59.27-17.27-106.46-64.57-123.99-124.29-14.24-48.51-9.73-103.06-25.21-151.07-12.49-38.72-37.3-71.04-53.43-108.04-16.22-37.12-22.57-84.1 1.36-121.28 22.51-34.98 65.95-51 104.95-52.16 39.02-1.2 75.98 9.57 114.04 15.22 38.01 5.67 80 5.44 115.82-15.17z"/><path class="st13" d="M461.45 52.43c14.94-8.57 22.58-5.97 38.16-2.37 15.69 3.64 29.08 12.59 42.11 21.44 19.48 13.22 30.67 25.86 50.76 36.45 1.28.68 2.59 1.34 3.95 2 44.7 21.72 101.21-1.31 152.62-.34 14.74.28 29.08 2.82 42.64 7.31 52.18 17.31 92.19 63.46 98.54 120.09 7.79 69.51-36.24 147.69-102.33 180.17-55.74 27.4-120.27 23.62-174.64 54.17-38.09 21.4-66.74 57.37-102.49 82.73-39.61 28.1-87.67 41.86-133.25 39.82-14.76-.66-29.26-2.99-43.16-7.05-56.82-16.64-102.07-62.01-118.96-119.27-13.72-46.51-9.49-98.8-24.39-144.84C179 285.59 155.2 254.59 139.7 219.1c-15.6-35.61-21.77-80.69 1.12-116.39 21.51-33.54 63.08-48.93 100.41-50.11 37.35-1.22 72.75 9.02 109.22 14.39 36.43 5.39 76.65 5.14 111-14.56z"/><path class="st13" d="M459.67 62.82c14.34-8.19 21.7-5.68 36.63-2.22 15.06 3.51 27.9 12.1 40.42 20.6 18.69 12.69 29.44 24.84 48.71 35.01 1.23.65 2.49 1.29 3.79 1.93 42.87 20.91 97.05-.95 146.35.11a138.6 138.6 0 0140.89 7.1c50.06 16.71 88.38 61 94.38 115.4 7.34 66.49-34.72 141.22-97.9 172.3-53.3 26.22-115 22.67-166.99 51.85-36.43 20.44-63.85 54.8-98.05 78.97-37.94 26.81-83.94 39.83-127.55 37.79-14.12-.66-28-2.91-41.29-6.83-54.37-16.01-97.69-59.46-113.93-114.26-13.19-44.51-9.25-94.54-23.56-138.6-11.54-35.53-34.34-65.22-49.21-99.19-14.98-34.11-20.98-77.27.87-111.5 20.5-32.11 60.21-46.87 95.87-48.05 35.68-1.24 69.52 8.47 104.4 13.56 34.82 5.1 73.28 4.81 106.17-13.97z"/><path class="st13" d="M457.89 73.21c13.73-7.8 20.81-5.39 35.1-2.08 14.42 3.37 26.73 11.6 38.72 19.76 17.89 12.16 28.22 23.82 46.65 33.58 1.18.62 2.38 1.24 3.63 1.85 41.04 20.1 92.89-.59 140.07.57 13.53.33 26.69 2.72 39.14 6.89 47.95 16.1 84.58 58.53 90.23 110.7 6.88 63.47-33.19 134.74-93.47 164.43-50.85 25.05-109.72 21.73-159.35 49.53-34.77 19.48-60.95 52.22-93.62 75.21-36.26 25.52-80.21 37.81-121.84 35.76-13.48-.66-26.73-2.84-39.43-6.6-51.92-15.39-93.3-56.91-108.89-109.24-12.67-42.51-9.01-90.28-22.74-132.37-11.07-33.94-32.86-62.32-47.1-94.77-14.36-32.61-20.18-73.86.63-106.6 19.5-30.68 57.34-44.8 91.33-46 34.01-1.26 66.3 7.92 99.58 12.72 33.24 4.85 69.94 4.53 101.36-13.34z"/><path class="st13" d="M456.1 83.61c13.12-7.42 19.93-5.11 33.57-1.93 13.79 3.24 25.56 11.11 37.02 18.91 17.09 11.63 26.99 22.79 44.59 32.15 1.12.6 2.28 1.19 3.47 1.78 39.22 19.28 88.73-.23 133.8 1.03 12.92.36 25.5 2.68 37.39 6.69 45.83 15.49 80.77 56.07 86.08 106.01 6.42 60.45-31.66 128.27-89.04 156.56-48.4 23.88-104.44 20.78-151.71 47.22-33.12 18.53-58.05 49.65-89.18 71.45-34.59 24.23-76.47 35.78-116.14 33.74-12.84-.66-25.47-2.77-37.56-6.37-49.47-14.76-88.92-54.35-103.86-104.23-12.14-40.51-8.77-86.02-21.91-126.13-10.6-32.35-31.38-59.41-44.99-90.35-13.74-31.11-19.38-70.45.39-101.71 18.49-29.24 54.47-42.73 86.79-43.95 32.35-1.28 63.07 7.38 94.76 11.89 31.65 4.53 66.58 4.18 96.53-12.76z"/><path class="st13" d="M454.32 94c12.51-7.04 19.04-4.82 32.04-1.78 13.16 3.1 24.39 10.62 35.32 18.07 16.29 11.1 25.76 21.77 42.54 30.72 1.07.57 2.17 1.14 3.3 1.7 37.39 18.47 84.57.13 127.53 1.48 12.32.39 24.3 2.63 35.65 6.48 43.71 14.89 76.96 53.6 81.92 101.31 5.97 57.42-30.14 121.79-84.61 148.7-45.96 22.7-99.17 19.83-144.07 44.9-31.46 17.57-55.16 47.08-84.74 67.69-32.92 22.94-72.74 33.76-110.44 31.71-12.2-.66-24.2-2.69-35.7-6.15-47.02-14.14-84.54-51.8-98.83-99.21-11.61-38.51-8.53-81.76-21.09-119.9-10.13-30.76-29.9-56.51-42.88-85.92-13.12-29.6-18.58-67.04.15-96.82 17.48-27.81 51.6-40.67 82.25-41.9 30.68-1.3 59.84 6.83 89.95 11.05 30.05 4.28 63.23 3.9 91.71-12.13z"/><path class="st13" d="M452.53 104.39c11.9-6.66 18.16-4.53 30.5-1.63 12.52 2.97 23.22 10.12 33.63 17.23 15.49 10.57 24.54 20.75 40.48 29.29 1.02.55 2.07 1.09 3.14 1.63 35.57 17.66 80.41.49 121.26 1.94 11.71.41 23.11 2.59 33.9 6.28 41.59 14.28 73.16 51.14 77.77 96.62 5.52 54.4-28.61 115.31-80.19 140.83-43.51 21.53-93.89 18.88-136.42 42.59-29.8 16.61-52.26 44.5-80.3 63.93-31.24 21.65-69 31.73-104.73 29.68-11.57-.66-22.94-2.62-33.84-5.92-44.57-13.51-80.15-49.25-93.8-94.2-11.09-36.51-8.29-77.5-20.27-113.66-9.66-29.16-28.42-53.6-40.77-81.5-12.5-28.1-17.78-63.62-.1-91.92 16.48-26.37 48.74-38.6 77.71-39.85 29.01-1.32 56.61 6.28 85.13 10.22 28.48 3.96 59.89 3.56 86.9-11.56z"/><path class="st13" d="M450.75 114.78c11.29-6.28 17.27-4.24 28.97-1.48 11.89 2.84 22.05 9.63 31.93 16.39 14.69 10.04 23.31 19.72 38.43 27.85.97.52 1.96 1.04 2.98 1.55 33.74 16.84 76.25.85 114.99 2.4 11.11.44 21.92 2.54 32.15 6.07 39.48 13.68 69.35 48.67 73.62 91.93 5.06 51.38-27.08 108.84-75.76 132.96-41.07 20.36-88.61 17.93-128.78 40.27-28.14 15.66-49.37 41.93-75.86 60.16-29.57 20.36-65.27 29.7-99.03 27.65-10.93-.66-21.68-2.54-31.97-5.69-42.12-12.88-75.77-46.7-88.76-89.18-10.56-34.51-8.05-73.24-19.44-107.43-9.18-27.57-26.94-50.69-38.66-77.08-11.88-26.6-16.98-60.21-.34-87.03 15.47-24.94 45.87-36.54 73.17-37.79 27.34-1.34 53.39 5.73 80.31 9.38 26.86 3.71 56.5 3.27 82.05-10.93z"/><path class="st13" d="M448.96 125.18c10.68-5.9 16.39-3.96 27.44-1.33 11.25 2.7 20.88 9.14 30.23 15.55 13.9 9.51 22.08 18.7 36.37 26.42.91.5 1.85.99 2.82 1.47 31.91 16.03 72.09 1.21 108.72 2.86 10.5.47 20.72 2.49 30.4 5.87 37.36 13.07 65.55 46.21 69.46 87.23 4.62 48.35-25.56 102.36-71.33 125.09-38.62 19.18-83.34 16.98-121.14 37.96-26.49 14.7-46.47 39.35-71.42 56.4-27.9 19.07-61.54 27.68-93.32 25.63-10.29-.67-20.41-2.47-30.11-5.46-39.67-12.26-71.38-44.15-83.73-84.17-10.03-32.51-7.81-68.97-18.61-101.19-8.71-25.98-25.46-47.79-36.55-72.65-11.26-25.1-16.18-56.8-.58-82.13 14.47-23.5 43-34.47 68.63-35.74 25.67-1.36 50.16 5.18 75.49 8.55 25.27 3.39 53.16 2.92 77.23-10.36z"/><path class="st13" d="M447.18 135.57c10.07-5.51 15.5-3.67 25.91-1.18 10.62 2.57 19.71 8.64 28.54 14.71 13.1 8.97 20.86 17.68 34.31 24.99.86.47 1.75.94 2.66 1.4 30.09 15.22 67.93 1.57 102.44 3.31 9.9.5 19.53 2.45 28.65 5.66C704.93 196.93 731.43 228.2 735 267c4.17 45.33-24.03 95.88-66.9 117.23-36.17 18.01-78.06 16.03-113.5 35.64-24.83 13.74-43.58 36.78-66.98 52.64-26.22 17.78-57.8 25.65-87.62 23.6-9.65-.67-19.15-2.4-28.24-5.24-37.21-11.63-67-41.59-78.7-79.15-9.51-30.51-7.57-64.71-17.79-94.96-8.24-24.38-23.98-44.88-34.44-68.23-10.64-23.59-15.38-53.38-.83-77.24 13.46-22.07 40.13-32.4 64.1-33.69 24-1.38 46.93 4.64 70.67 7.71 23.68 3.12 49.8 2.63 72.41-9.74z"/><path class="st13" d="M445.39 145.96c9.47-5.13 14.62-3.38 24.38-1.04 9.99 2.43 18.53 8.15 26.84 13.86 12.3 8.44 19.63 16.65 32.26 23.56.81.45 1.64.89 2.5 1.32 28.26 14.41 63.76 1.92 96.17 3.77 9.29.53 18.34 2.4 26.91 5.45 33.12 11.86 57.94 41.27 61.16 77.84 3.72 42.3-22.5 89.41-62.48 109.36-33.73 16.84-72.78 15.08-105.85 33.33-23.17 12.78-40.68 34.21-62.54 48.88-24.55 16.49-54.07 23.63-81.92 21.57-9.02-.67-17.88-2.32-26.38-5.01-34.76-11.01-62.62-39.04-73.67-74.13-8.98-28.51-7.33-60.45-16.97-88.72-7.77-22.79-22.5-41.97-32.33-63.81-10.02-22.09-14.58-49.97-1.07-72.35 12.46-20.63 37.26-30.29 59.56-31.64 22.33-1.35 43.7 4.09 65.85 6.88 22.09 2.86 46.45 2.34 67.58-9.12z"/><path class="st13" d="M443.61 156.35c8.86-4.75 13.73-3.09 22.85-.89 9.35 2.3 17.36 7.66 25.14 13.02 11.5 7.91 18.41 15.63 30.2 22.13.76.42 1.54.84 2.34 1.25 26.44 13.59 59.6 2.28 89.9 4.23 8.68.55 17.14 2.36 25.16 5.25 31.01 11.26 54.13 38.8 57 73.15 3.28 39.28-20.98 82.93-58.05 101.49-31.28 15.67-67.51 14.13-98.21 31.01-21.51 11.83-37.79 31.63-58.1 45.12-22.88 15.2-50.33 21.6-76.21 19.54-8.38-.67-16.62-2.25-24.51-4.78-32.31-10.38-58.23-36.49-68.63-69.12-8.45-26.51-7.08-56.19-16.14-82.49-7.3-21.2-21.02-39.07-30.21-59.39-9.4-20.59-13.79-46.56-1.31-67.45 11.46-19.19 34.39-28.22 55.02-29.58 20.66-1.37 40.48 3.54 61.04 6.04 20.45 2.56 43.05 2.02 62.72-8.53z"/><path class="st13" d="M441.83 166.75c8.25-4.37 12.85-2.81 21.32-.74 8.72 2.17 16.19 7.16 23.45 12.18 10.7 7.38 17.18 14.61 28.14 20.69.71.4 1.43.79 2.18 1.17 24.61 12.78 55.44 2.64 83.63 4.68 8.08.58 15.95 2.31 23.41 5.04 28.89 10.65 50.33 36.34 52.85 68.45 2.84 36.25-19.45 76.45-53.62 93.62-28.84 14.49-62.23 13.18-90.57 28.7-19.85 10.87-34.89 29.06-53.66 41.36-21.21 13.91-46.6 19.58-70.51 17.52-7.74-.67-15.35-2.17-22.65-4.56-29.86-9.75-53.85-33.93-63.6-64.1-7.93-24.51-6.84-51.93-15.32-76.25-6.83-19.61-19.54-36.16-28.1-54.96-8.78-19.09-12.99-43.14-1.56-62.56 10.45-17.76 31.52-26.15 50.48-27.53 19-1.38 37.25 2.99 56.22 5.21 18.87 2.28 39.71 1.71 57.91-7.92z"/><path class="st13" d="M440.04 177.14c7.64-3.98 11.97-2.54 19.78-.59 8.09 2.01 15.02 6.67 21.75 11.34 9.91 6.85 15.95 13.58 26.09 19.26.65.37 1.33.74 2.01 1.1 22.79 11.97 51.28 3 77.36 5.14 7.47.61 14.75 2.26 21.66 4.84 26.77 10.05 46.53 33.86 48.69 63.76 2.4 33.22-17.92 69.98-49.19 85.75-26.39 13.32-56.96 12.23-82.93 26.38-18.2 9.91-32 26.48-49.22 37.6-19.54 12.62-42.87 17.55-64.8 15.49-7.1-.67-14.09-2.1-20.78-4.33-27.41-9.13-49.46-31.38-58.57-59.09-7.4-22.51-6.6-47.67-14.49-70.02-6.35-18.01-18.02-33.27-25.99-50.54-8.13-17.61-12.19-39.72-1.8-57.67 9.45-16.32 28.65-24.08 45.94-25.48 17.33-1.4 34.02 2.45 51.4 4.38 17.29 1.99 36.37 1.4 53.09-7.32z"/><path class="st13" d="M438.26 187.53c7.04-3.6 11.08-2.25 18.25-.44 7.46 1.88 13.85 6.18 20.05 10.5 9.11 6.32 14.74 12.54 24.03 17.83.6.34 1.22.69 1.85 1.02 20.96 11.15 47.12 3.36 71.09 5.6 6.87.64 13.56 2.22 19.92 4.63 24.65 9.44 42.73 31.39 44.54 59.07 1.97 30.19-16.4 63.5-44.77 77.89-23.94 12.15-51.68 11.28-75.28 24.07-16.54 8.96-29.11 23.91-44.78 33.84-17.87 11.33-39.13 15.53-59.1 13.46-6.47-.67-12.82-2.03-18.92-4.1-24.96-8.5-45.08-28.83-53.53-54.07-6.87-20.51-6.36-43.41-13.67-63.79-5.88-16.42-16.54-30.37-23.88-46.12-7.51-16.1-11.39-36.31-2.04-52.77 8.45-14.88 25.79-22.01 41.4-23.43 15.66-1.42 30.8 1.86 46.58 3.54 15.69 1.67 33.01 1.08 48.26-6.73z"/><path class="st13" d="M436.47 197.92c6.43-3.22 10.2-1.96 16.72-.29 6.83 1.75 12.68 5.68 18.35 9.66 8.31 5.79 13.51 11.51 21.98 16.4.55.32 1.11.64 1.69.95 19.13 10.34 42.96 3.72 64.81 6.05 6.26.66 12.37 2.17 18.17 4.42 22.54 8.84 38.93 28.92 40.39 54.37 1.55 27.15-14.87 57.03-40.34 70.02-21.5 10.97-46.4 10.33-67.64 21.75-14.88 8-26.22 21.33-40.34 30.08-16.2 10.04-35.4 13.5-53.39 11.43-5.83-.67-11.56-1.95-17.06-3.88-22.51-7.87-40.7-26.28-48.5-49.06-6.35-18.51-6.12-39.15-12.84-57.55-5.41-14.83-15.06-27.46-21.77-41.69-6.89-14.6-10.59-32.89-2.29-47.88 7.44-13.44 22.92-19.94 36.86-21.37 13.99-1.43 27.57 1.31 41.76 2.71 14.11 1.39 29.67.78 43.44-6.12z"/><path class="st13" d="M434.69 208.32c5.82-2.84 9.31-1.67 15.19-.14 6.19 1.61 11.51 5.19 16.66 8.81 7.51 5.26 12.29 10.49 19.92 14.97.5.29 1.01.58 1.53.87 17.31 9.53 38.8 4.08 58.54 6.51 5.66.69 11.17 2.12 16.42 4.22 20.42 8.23 35.14 26.44 36.23 49.68 1.14 24.11-13.35 50.55-35.91 62.15-19.05 9.8-41.13 9.38-60 19.44-13.22 7.04-23.33 18.76-35.9 26.32-14.54 8.75-31.67 11.48-47.69 9.41-5.19-.67-10.29-1.88-15.19-3.65-20.06-7.25-36.31-23.72-43.47-44.04-5.82-16.51-5.88-34.89-12.02-51.32-4.94-13.23-13.58-24.56-19.66-37.27-6.27-13.1-9.79-29.47-2.53-42.98 6.44-12 20.05-17.88 32.32-19.32 12.32-1.45 24.35.76 36.94 1.87 12.51 1.09 26.32.45 38.62-5.53z"/><path class="st13" d="M432.9 218.71c5.22-2.45 8.43-1.39 13.66 0 5.56 1.48 10.34 4.7 14.96 7.97 6.71 4.73 11.06 9.47 17.86 13.54.45.27.9.53 1.37.8 15.48 8.72 34.64 4.44 52.27 6.97 5.05.72 9.98 2.08 14.67 4.01 18.3 7.63 31.35 23.96 32.08 44.98.73 21.07-11.82 44.07-31.48 54.28-16.6 8.63-35.85 8.43-52.36 17.12-11.57 6.09-20.44 16.18-31.46 22.56-12.88 7.45-27.93 9.45-41.99 7.38-4.55-.67-9.03-1.81-13.33-3.42-17.61-6.62-31.93-21.17-38.44-39.03-5.29-14.51-5.64-30.63-11.19-45.08-4.47-11.64-12.1-21.65-17.55-32.85-5.65-11.6-8.99-26.04-2.77-38.09 5.44-10.55 17.18-15.81 27.78-17.27 10.66-1.47 21.12.22 32.13 1.04 10.92.82 22.97.17 33.79-4.91z"/><path class="st13" d="M431.12 229.1c4.62-2.07 7.54-1.1 12.13.15 4.92 1.34 9.16 4.2 13.26 7.13 5.91 4.2 9.84 8.45 15.81 12.1.39.24.8.48 1.21.72 13.66 7.9 30.48 4.8 46 7.42 4.44.75 8.79 2.03 12.92 3.81 16.18 7.02 27.57 21.47 27.92 40.29.35 18.03-10.29 37.6-27.05 46.42-14.16 7.45-30.57 7.48-44.71 14.8-9.91 5.13-17.56 13.6-27.02 18.8-11.22 6.16-24.2 7.43-36.28 5.35-3.91-.67-7.76-1.73-11.46-3.19-15.16-6-27.54-18.62-33.4-34.01-4.77-12.51-5.4-26.37-10.37-38.85-4-10.05-10.62-18.75-15.44-28.42-5.03-10.1-8.18-22.62-3.01-33.2 4.45-9.11 14.32-13.74 23.24-15.22 8.99-1.49 17.89-.33 27.31.2 9.3.55 19.6-.12 28.94-4.3z"/><path class="st13" d="M429.33 239.49c4.01-1.68 6.66-.81 10.6.3 4.29 1.21 7.99 3.71 11.57 6.29 5.11 3.67 8.61 7.42 13.75 10.67.34.22.69.43 1.05.65 11.83 7.09 26.32 5.16 39.73 7.88 3.84.78 7.6 1.98 11.18 3.6 14.08 6.38 23.79 18.98 23.77 35.59-.02 14.98-8.77 31.12-22.63 38.55-11.71 6.28-25.3 6.53-37.07 12.49-8.25 4.17-14.68 11.02-22.58 15.04-9.56 4.87-20.46 5.4-30.58 3.32-3.28-.67-6.5-1.66-9.6-2.97-12.71-5.37-23.16-16.07-28.37-29-4.24-10.51-5.16-22.11-9.54-32.61-3.52-8.46-9.14-15.84-13.33-24-4.41-8.59-7.38-19.19-3.26-28.3 3.46-7.65 11.45-11.67 18.7-13.16 7.32-1.51 14.66-.88 22.49-.63 7.71.25 16.27-.42 24.12-3.71z"/><path class="st13" d="M427.55 249.89c3.42-1.29 5.77-.52 9.06.45 3.66 1.08 6.82 3.22 9.87 5.45 4.32 3.14 7.38 6.4 11.7 9.24.29.19.59.38.89.57 10.01 6.28 22.16 5.52 33.46 8.34 3.23.8 6.4 1.93 9.43 3.4 11.96 5.78 20.04 16.48 19.62 30.9-.35 11.92-7.24 24.64-18.2 30.68-9.27 5.11-20.02 5.59-29.43 10.17-6.59 3.21-11.81 8.42-18.14 11.28-7.92 3.57-16.73 3.38-24.87 1.3-2.64-.68-5.23-1.59-7.73-2.74-10.26-4.74-18.77-13.52-23.34-23.98-3.71-8.51-4.92-17.85-8.72-26.38-3.05-6.86-7.67-12.93-11.22-19.58-3.79-7.09-6.56-15.75-3.5-23.41 2.48-6.19 8.59-9.61 14.16-11.11 5.66-1.53 11.44-1.43 17.67-1.46 6.11-.05 12.93-.72 19.29-3.12z"/><path class="st13" d="M425.76 260.28c2.82-.89 4.88-.23 7.53.6 3.02.95 5.65 2.72 8.17 4.6 3.52 2.61 6.15 5.38 9.64 7.81.24.17.48.33.73.5 8.18 5.46 17.99 5.88 27.18 8.79 2.63.83 5.21 1.89 7.68 3.19 9.85 5.18 16.34 13.97 15.46 26.2-.63 8.85-5.71 18.17-13.77 22.81-6.82 3.94-14.74 4.64-21.79 7.86-4.93 2.26-8.96 5.82-13.7 7.52-6.3 2.26-13 1.35-19.17-.73-2-.68-3.97-1.51-5.87-2.51-7.8-4.12-14.39-10.96-18.31-18.97-3.19-6.51-4.68-13.59-7.89-20.14-2.58-5.27-6.19-10.02-9.11-15.15-3.18-5.59-5.74-12.29-3.74-18.52 1.51-4.72 5.72-7.55 9.63-9.06 4-1.55 8.2-1.97 12.85-2.3 4.53-.31 9.62-.96 14.48-2.5z"/></g></svg>