<?xml version="1.0" encoding="utf-8"?>
<!-- Generator: Adobe Illustrator 24.1.2, SVG Export Plug-In . SVG Version: 6.00 Build 0)  -->
<svg version="1.1" id="Layer_1" xmlns="http://www.w3.org/2000/svg" xmlns:xlink="http://www.w3.org/1999/xlink" x="0px" y="0px"
	 viewBox="0 0 1080 760" style="enable-background:new 0 0 1080 760;" xml:space="preserve">
<style type="text/css">
	.st0{fill:none;stroke:#E4E4E4;stroke-width:0.75;stroke-miterlimit:10;}
</style>
<g>
	<path class="st0" d="M480.6,11.5c-47.6,27.9-103.7,27.9-154.4,20C275.4,23.6,225.9,8.6,173.6,9.6c-52.4,1-110.7,22.1-141.3,68.6
		C0,127.2,7.8,189.5,29,238.6c21.2,49.1,54.1,92,70.3,143.4c20.2,63.8,13.4,136.4,31.8,200.9c22.7,79.4,85.4,142.1,164.3,164.4
		c78.9,22.3,172.1,3.6,244.5-49c49.6-36,89.4-86.6,142.5-116.6c75.7-42.8,165.7-37.1,243.4-75c92.2-45,154.1-154.3,142.2-251
		C1056,159.2,971.4,84.5,873.7,84.4c-70.4-0.1-147.9,33.5-209.1,4.5c-31.1-14.8-46.3-32.9-74.7-52c-17.8-12-36-24.2-57.4-29
		C511.1,3,501-0.5,480.6,11.5z"/>
	<path class="st0" d="M478.8,21.9c19.8-11.6,29.7-8.3,50.4-3.6c20.8,4.7,38.4,16.5,55.7,28.2c25.9,17.5,40.5,34,67.2,47.9
		c1.7,0.9,3.4,1.7,5.2,2.6c59.3,28.2,134.5-4.2,202.8-4c19.6,0.1,38.6,3.2,56.6,9c69.1,22.2,122.7,83.1,131.8,157.6
		c11.5,93.7-48.5,199.5-137.7,243.1C835.5,539.5,748.3,534,675,575.4c-51.4,29.1-89.9,77.9-138,112.8c-53,38.4-117.5,58.1-178.9,56
		c-19.9-0.7-39.4-3.6-58.1-8.9C223.6,713.8,162.9,653,140.8,576c-17.9-62.5-11.4-132.9-31-194.7c-15.8-49.9-47.7-91.4-68.2-139
		c-20.6-47.6-28.2-108,3.1-155.5c29.6-45,86-65.5,136.7-66.5c50.7-1.1,98.6,13.4,147.8,21.1C378.4,49,432.7,49,478.8,21.9z"/>
	<path class="st0" d="M477,32.3c19.2-11.2,28.8-8,48.9-3.4c20.1,4.6,37.3,16,54,27.3c25.1,16.9,39.3,33,65.2,46.5
		c1.6,0.9,3.3,1.7,5.1,2.5c57.5,27.4,130.3-3.8,196.5-3.5c19,0.1,37.4,3.1,54.9,8.7c67,21.5,118.9,80.7,127.6,153
		c11.1,90.6-46.9,193-133.3,235.2C823,534.2,738.6,528.9,667.7,569c-49.7,28.1-87,75.4-133.6,109.1c-51.3,37.1-113.8,56-173.2,54
		c-19.2-0.7-38.1-3.5-56.2-8.6c-74-21-132.8-79.9-154.2-154.4c-17.4-60.5-11.2-128.6-30.2-188.5c-15.3-48.3-46.2-88.5-66.1-134.6
		c-19.9-46.1-27.3-104.6,2.8-150.6c28.6-43.6,83.2-63.4,132.2-64.5c49-1.1,95.3,12.9,142.9,20.2C379.8,58.5,432.4,58.5,477,32.3z"/>
	<path class="st0" d="M475.2,42.7c18.6-10.8,27.9-7.7,47.4-3.3c19.5,4.4,36.1,15.5,52.3,26.5c24.3,16.4,38,32,63.1,45
		c1.6,0.8,3.2,1.6,4.9,2.5c55.6,26.6,126.2-3.5,190.2-3.1c18.4,0.1,36.2,3.1,53.1,8.5c64.9,20.9,115.2,78.2,123.5,148.3
		c10.7,87.6-45.4,186.6-128.9,227.4c-70.4,34.4-151.9,29.3-220.5,68.1c-48,27.1-84.1,72.8-129.1,105.3c-49.7,35.8-110.1,54-167.5,52
		c-18.6-0.7-36.9-3.4-54.3-8.4C237.9,691,181,634.1,160.2,562.1c-16.9-58.5-10.9-124.4-29.3-182.2c-14.8-46.7-44.7-85.6-64-130.2
		C47.6,205,40.4,148.5,69.5,103.9c27.6-42.1,80.3-61.3,127.6-62.4c47.4-1.1,92.1,12.3,138.1,19.4C381.3,68,432.1,67.9,475.2,42.7z"
		/>
	<path class="st0" d="M473.5,53.1c18-10.5,27-7.4,45.8-3.1c18.9,4.3,34.9,15.1,50.6,25.6c23.5,15.9,36.8,31,61,43.6
		c1.5,0.8,3.1,1.6,4.8,2.4c53.8,25.8,122-3.1,184-2.6c17.8,0.1,35,3,51.4,8.3c62.8,20.3,111.2,75.8,119.3,143.6
		c10.1,84.6-43.9,180.1-124.5,219.5c-68,33.3-146.7,28.4-212.8,65.7c-46.4,26.2-81.3,70.2-124.7,101.5c-48,34.5-106.3,52-161.8,50
		c-17.9-0.7-35.6-3.4-52.5-8.2c-69.1-19.8-124-74.8-144.1-144.3c-16.4-56.5-10.7-120.1-28.5-176c-14.4-45.1-43.2-82.7-61.9-125.7
		c-18.7-43.1-25.7-97.7,2.3-140.9c26.6-40.7,77.4-59.3,123.1-60.4c45.7-1.1,88.9,11.8,133.3,18.6C382.7,77.5,431.8,77.4,473.5,53.1z
		"/>
	<path class="st0" d="M471.7,63.5c17.4-10.1,26.1-7.1,44.3-3c18.2,4.2,33.8,14.6,48.9,24.8c22.7,15.3,35.6,30,59,42.2
		c1.5,0.8,3,1.5,4.6,2.3c52,25,117.9-2.7,177.7-2.2c17.2,0.2,33.9,3,49.6,8.1c60.7,19.7,107.4,73.3,115.2,138.9
		c9.6,81.6-42.4,173.6-120,211.6c-65.5,32.1-141.4,27.4-205.2,63.4c-44.7,25.2-78.4,67.6-120.3,97.8c-46.4,33.2-102.6,50-156.1,47.9
		c-17.3-0.7-34.3-3.3-50.6-8c-66.6-19.1-119.6-72.2-139.1-139.3c-15.8-54.5-10.5-115.8-27.7-169.8c-13.9-43.5-41.7-79.8-59.8-121.3
		c-18.1-41.6-24.9-94.3,2.1-136c25.6-39.2,74.6-57.2,118.6-58.3c44-1.1,85.7,11.2,128.5,17.7C384.2,87,431.5,86.9,471.7,63.5z"/>
	<path class="st0" d="M469.9,73.9c16.8-9.7,25.2-6.8,42.8-2.8c17.6,4,32.6,14.1,47.2,24c21.9,14.8,34.3,28.9,56.9,40.7
		c1.4,0.8,2.9,1.5,4.4,2.2c50.2,24.2,113.7-2.4,171.4-1.7c16.6,0.2,32.7,3,47.9,7.9c58.5,19.1,103.6,70.8,111,134.2
		c9.2,78.6-40.8,167.1-115.6,203.8c-63.1,30.9-136.1,26.5-197.6,61.1c-43.1,24.3-75.4,65.1-115.8,94c-44.6,32-98.9,47.9-150.4,45.9
		c-16.7-0.7-33.1-3.2-48.8-7.7c-64.2-18.5-115.2-69.7-134.1-134.3c-15.3-52.5-10.2-111.6-26.9-163.5
		c-13.4-41.9-40.3-76.8-57.6-116.9c-17.5-40.1-24.2-90.9,1.8-131.1c24.5-37.8,71.7-55.1,114-56.3c42.4-1.2,82.4,10.7,123.7,16.9
		C385.6,96.5,431.1,96.3,469.9,73.9z"/>
	<path class="st0" d="M468.1,84.3c16.2-9.3,24.4-6.5,41.2-2.7c17,3.9,31.4,13.6,45.5,23.1c21.1,14.3,33.1,27.9,54.9,39.3
		c1.4,0.7,2.8,1.4,4.3,2.2c48.3,23.3,109.5-2,165.2-1.3c16,0.2,31.5,2.9,46.1,7.7c56.4,18.5,99.8,68.4,106.8,129.5
		c8.7,75.6-39.3,160.6-111.2,195.9c-60.6,29.7-130.8,25.5-189.9,58.8c-41.4,23.3-72.5,62.5-111.4,90.2
		c-43,30.7-95.1,45.9-144.7,43.9c-16-0.7-31.8-3.1-46.9-7.5c-61.7-17.9-110.8-67.1-129-129.3c-14.8-50.5-10-107.3-26-157.3
		c-13-40.3-38.8-73.9-55.5-112.5c-16.8-38.6-23.4-87.5,1.6-126.2c23.5-36.4,68.8-53.1,109.5-54.2c40.7-1.2,79.2,10.1,118.9,16.1
		C387.1,106,430.8,105.8,468.1,84.3z"/>
	<path class="st0" d="M466.3,94.7c15.6-8.9,23.5-6.3,39.7-2.5c16.3,3.8,30.2,13.1,43.8,22.3c20.3,13.7,31.9,26.9,52.8,37.9
		c1.3,0.7,2.7,1.4,4.1,2.1c46.5,22.5,105.4-1.7,158.9-0.8c15.3,0.2,30.3,2.9,44.4,7.5c54.3,17.9,96,65.9,102.7,124.8
		C921,358.4,875,440,806,473.9c-58.2,28.6-125.5,24.6-182.3,56.5c-39.7,22.4-69.6,59.9-106.9,86.5c-41.3,29.4-91.4,43.9-139,41.8
		c-15.4-0.7-30.5-3.1-45-7.3c-59.3-17.3-106.5-64.6-124-124.3c-14.2-48.5-9.7-103.1-25.2-151.1c-12.5-38.7-37.3-71-53.4-108
		c-16.2-37.1-22.6-84.1,1.4-121.3c22.5-35,65.9-51,104.9-52.2c39-1.2,76,9.6,114,15.2C388.5,115.5,430.5,115.3,466.3,94.7z"/>
	<path class="st0" d="M464.5,105.1c14.9-8.6,22.6-6,38.2-2.4c15.7,3.6,29.1,12.6,42.1,21.4c19.5,13.2,30.7,25.9,50.8,36.4
		c1.3,0.7,2.6,1.3,4,2c44.7,21.7,101.2-1.3,152.6-0.3c14.7,0.3,29.1,2.8,42.6,7.3C847,186.8,887,233,893.3,289.6
		c7.8,69.5-36.2,147.7-102.3,180.2c-55.7,27.4-120.3,23.6-174.6,54.2c-38.1,21.4-66.7,57.4-102.5,82.7
		c-39.6,28.1-87.7,41.9-133.3,39.8c-14.8-0.7-29.3-3-43.2-7.1c-56.8-16.6-102.1-62-119-119.3c-13.7-46.5-9.5-98.8-24.4-144.8
		c-12-37.1-35.8-68.1-51.3-103.6c-15.6-35.6-21.8-80.7,1.1-116.4c21.5-33.5,63.1-48.9,100.4-50.1c37.4-1.2,72.8,9,109.2,14.4
		C390,125,430.2,124.8,464.5,105.1z"/>
	<path class="st0" d="M462.8,115.5c14.3-8.2,21.7-5.7,36.6-2.2c15.1,3.5,27.9,12.1,40.4,20.6c18.7,12.7,29.4,24.8,48.7,35
		c1.2,0.7,2.5,1.3,3.8,1.9c42.9,20.9,97.1-0.9,146.3,0.1c14.1,0.3,27.9,2.8,40.9,7.1c50.1,16.7,88.4,61,94.4,115.4
		c7.3,66.5-34.7,141.2-97.9,172.3c-53.3,26.2-115,22.7-167,51.9c-36.4,20.4-63.8,54.8-98.1,79c-37.9,26.8-83.9,39.8-127.5,37.8
		c-14.1-0.7-28-2.9-41.3-6.8c-54.4-16-97.7-59.5-113.9-114.3c-13.2-44.5-9.2-94.5-23.6-138.6c-11.5-35.5-34.3-65.2-49.2-99.2
		c-15-34.1-21-77.3,0.9-111.5c20.5-32.1,60.2-46.9,95.9-48.1c35.7-1.2,69.5,8.5,104.4,13.6C391.4,134.5,429.9,134.2,462.8,115.5z"/>
	<path class="st0" d="M461,125.8c13.7-7.8,20.8-5.4,35.1-2.1c14.4,3.4,26.7,11.6,38.7,19.8c17.9,12.2,28.2,23.8,46.7,33.6
		c1.2,0.6,2.4,1.2,3.6,1.9c41,20.1,92.9-0.6,140.1,0.6c13.5,0.3,26.7,2.7,39.1,6.9c47.9,16.1,84.6,58.5,90.2,110.7
		c6.9,63.5-33.2,134.7-93.5,164.4c-50.9,25-109.7,21.7-159.4,49.5c-34.8,19.5-61,52.2-93.6,75.2c-36.3,25.5-80.2,37.8-121.8,35.8
		c-13.5-0.7-26.7-2.8-39.4-6.6c-51.9-15.4-93.3-56.9-108.9-109.2c-12.7-42.5-9-90.3-22.7-132.4c-11.1-33.9-32.9-62.3-47.1-94.8
		c-14.4-32.6-20.2-73.9,0.6-106.6c19.5-30.7,57.3-44.8,91.3-46c34-1.3,66.3,7.9,99.6,12.7C392.9,144,429.6,143.7,461,125.8z"/>
	<path class="st0" d="M459.2,136.2c13.1-7.4,19.9-5.1,33.6-1.9c13.8,3.2,25.6,11.1,37,18.9c17.1,11.6,27,22.8,44.6,32.2
		c1.1,0.6,2.3,1.2,3.5,1.8c39.2,19.3,88.7-0.2,133.8,1c12.9,0.4,25.5,2.7,37.4,6.7c45.8,15.5,80.8,56.1,86.1,106
		c6.4,60.4-31.7,128.3-89,156.6c-48.4,23.9-104.4,20.8-151.7,47.2c-33.1,18.5-58.1,49.6-89.2,71.4c-34.6,24.2-76.5,35.8-116.1,33.7
		c-12.8-0.7-25.5-2.8-37.6-6.4c-49.5-14.8-88.9-54.4-103.9-104.2c-12.1-40.5-8.8-86-21.9-126.1c-10.6-32.3-31.4-59.4-45-90.3
		c-13.7-31.1-19.4-70.4,0.4-101.7c18.5-29.2,54.5-42.7,86.8-43.9c32.3-1.3,63.1,7.4,94.8,11.9C394.3,153.5,429.2,153.2,459.2,136.2z
		"/>
	<path class="st0" d="M457.4,146.6c12.5-7,19-4.8,32-1.8c13.2,3.1,24.4,10.6,35.3,18.1c16.3,11.1,25.8,21.8,42.5,30.7
		c1.1,0.6,2.2,1.1,3.3,1.7c37.4,18.5,84.6,0.1,127.5,1.5c12.3,0.4,24.3,2.6,35.6,6.5c43.7,14.9,77,53.6,81.9,101.3
		c6,57.4-30.1,121.8-84.6,148.7c-46,22.7-99.2,19.8-144.1,44.9c-31.5,17.6-55.2,47.1-84.7,67.7c-32.9,22.9-72.7,33.8-110.4,31.7
		c-12.2-0.7-24.2-2.7-35.7-6.1c-47-14.1-84.5-51.8-98.8-99.2c-11.6-38.5-8.5-81.8-21.1-119.9c-10.1-30.8-29.9-56.5-42.9-85.9
		c-13.1-29.6-18.6-67,0.1-96.8c17.5-27.8,51.6-40.7,82.3-41.9c30.7-1.3,59.8,6.8,89.9,11.1C395.7,163,428.9,162.7,457.4,146.6z"/>
	<path class="st0" d="M455.6,157c11.9-6.7,18.2-4.5,30.5-1.6c12.5,3,23.2,10.1,33.6,17.2c15.5,10.6,24.5,20.7,40.5,29.3
		c1,0.5,2.1,1.1,3.1,1.6c35.6,17.7,80.4,0.5,121.3,1.9c11.7,0.4,23.1,2.6,33.9,6.3c41.6,14.3,73.2,51.1,77.8,96.6
		c5.5,54.4-28.6,115.3-80.2,140.8c-43.5,21.5-93.9,18.9-136.4,42.6c-29.8,16.6-52.3,44.5-80.3,63.9c-31.2,21.6-69,31.7-104.7,29.7
		c-11.6-0.7-22.9-2.6-33.8-5.9c-44.6-13.5-80.2-49.3-93.8-94.2c-11.1-36.5-8.3-77.5-20.3-113.7c-9.7-29.2-28.4-53.6-40.8-81.5
		c-12.5-28.1-17.8-63.6-0.1-91.9c16.5-26.4,48.7-38.6,77.7-39.8c29-1.3,56.6,6.3,85.1,10.2C397.2,172.5,428.6,172.1,455.6,157z"/>
	<path class="st0" d="M453.8,167.4c11.3-6.3,17.3-4.2,29-1.5c11.9,2.8,22,9.6,31.9,16.4c14.7,10,23.3,19.7,38.4,27.9
		c1,0.5,2,1,3,1.5c33.7,16.8,76.2,0.8,115,2.4c11.1,0.4,21.9,2.5,32.2,6.1c39.5,13.7,69.4,48.7,73.6,91.9
		c5.1,51.4-27.1,108.8-75.8,133c-41.1,20.4-88.6,17.9-128.8,40.3c-28.1,15.7-49.4,41.9-75.9,60.2c-29.6,20.4-65.3,29.7-99,27.7
		c-10.9-0.7-21.7-2.5-32-5.7c-42.1-12.9-75.8-46.7-88.8-89.2c-10.6-34.5-8-73.2-19.4-107.4c-9.2-27.6-26.9-50.7-38.7-77.1
		c-11.9-26.6-17-60.2-0.3-87c15.5-24.9,45.9-36.5,73.2-37.8c27.3-1.3,53.4,5.7,80.3,9.4C398.6,182.1,428.3,181.6,453.8,167.4z"/>
	<path class="st0" d="M452,177.8c10.7-5.9,16.4-4,27.4-1.3c11.3,2.7,20.9,9.1,30.2,15.5c13.9,9.5,22.1,18.7,36.4,26.4
		c0.9,0.5,1.9,1,2.8,1.5c31.9,16,72.1,1.2,108.7,2.9c10.5,0.5,20.7,2.5,30.4,5.9c37.4,13.1,65.5,46.2,69.5,87.2
		c4.6,48.4-25.6,102.4-71.3,125.1c-38.6,19.2-83.3,17-121.1,38c-26.5,14.7-46.5,39.4-71.4,56.4c-27.9,19.1-61.5,27.7-93.3,25.6
		c-10.3-0.7-20.4-2.5-30.1-5.5c-39.7-12.3-71.4-44.1-83.7-84.2c-10-32.5-7.8-69-18.6-101.2c-8.7-26-25.5-47.8-36.5-72.7
		c-11.3-25.1-16.2-56.8-0.6-82.1c14.5-23.5,43-34.5,68.6-35.7c25.7-1.4,50.2,5.2,75.5,8.5C400.1,191.6,428,191.1,452,177.8z"/>
	<path class="st0" d="M450.3,188.2c10.1-5.5,15.5-3.7,25.9-1.2c10.6,2.6,19.7,8.6,28.5,14.7c13.1,9,20.9,17.7,34.3,25
		c0.9,0.5,1.7,0.9,2.7,1.4c30.1,15.2,67.9,1.6,102.4,3.3c9.9,0.5,19.5,2.4,28.7,5.7c35.2,12.5,61.7,43.7,65.3,82.5
		c4.2,45.3-24,95.9-66.9,117.2c-36.2,18-78.1,16-113.5,35.6c-24.8,13.7-43.6,36.8-67,52.6c-26.2,17.8-57.8,25.7-87.6,23.6
		c-9.7-0.7-19.1-2.4-28.2-5.2c-37.2-11.6-67-41.6-78.7-79.1c-9.5-30.5-7.6-64.7-17.8-95c-8.2-24.4-24-44.9-34.4-68.2
		c-10.6-23.6-15.4-53.4-0.8-77.2c13.5-22.1,40.1-32.4,64.1-33.7c24-1.4,46.9,4.6,70.7,7.7C401.5,201.1,427.7,200.6,450.3,188.2z"/>
	<path class="st0" d="M448.5,198.6c9.5-5.1,14.6-3.4,24.4-1c10,2.4,18.5,8.1,26.8,13.9c12.3,8.4,19.6,16.7,32.3,23.6
		c0.8,0.4,1.6,0.9,2.5,1.3c28.3,14.4,63.8,1.9,96.2,3.8c9.3,0.5,18.3,2.4,26.9,5.5c33.1,11.9,57.9,41.3,61.2,77.8
		c3.7,42.3-22.5,89.4-62.5,109.4c-33.7,16.8-72.8,15.1-105.9,33.3c-23.2,12.8-40.7,34.2-62.5,48.9c-24.6,16.5-54.1,23.6-81.9,21.6
		c-9-0.7-17.9-2.3-26.4-5c-34.8-11-62.6-39-73.7-74.1c-9-28.5-7.3-60.5-17-88.7c-7.8-22.8-22.5-42-32.3-63.8
		c-10-22.1-14.6-50-1.1-72.3c12.5-20.6,37.3-30.3,59.6-31.6c22.3-1.3,43.7,4.1,65.9,6.9C403,210.6,427.3,210,448.5,198.6z"/>
	<path class="st0" d="M446.7,209c8.9-4.7,13.7-3.1,22.8-0.9c9.4,2.3,17.4,7.7,25.1,13c11.5,7.9,18.4,15.6,30.2,22.1
		c0.8,0.4,1.5,0.8,2.3,1.2c26.4,13.6,59.6,2.3,89.9,4.2c8.7,0.6,17.1,2.4,25.2,5.2c31,11.3,54.1,38.8,57,73.1
		c3.3,39.3-21,82.9-58,101.5c-31.3,15.7-67.5,14.1-98.2,31c-21.5,11.8-37.8,31.6-58.1,45.1c-22.9,15.2-50.3,21.6-76.2,19.5
		c-8.4-0.7-16.6-2.2-24.5-4.8c-32.3-10.4-58.2-36.5-68.6-69.1c-8.5-26.5-7.1-56.2-16.1-82.5c-7.3-21.2-21-39.1-30.2-59.4
		c-9.4-20.6-13.8-46.6-1.3-67.5c11.5-19.2,34.4-28.2,55-29.6c20.7-1.4,40.5,3.5,61,6C404.4,220.1,427,219.5,446.7,209z"/>
	<path class="st0" d="M444.9,219.4c8.3-4.4,12.8-2.8,21.3-0.7c8.7,2.2,16.2,7.2,23.4,12.2c10.7,7.4,17.2,14.6,28.1,20.7
		c0.7,0.4,1.4,0.8,2.2,1.2c24.6,12.8,55.4,2.6,83.6,4.7c8.1,0.6,15.9,2.3,23.4,5c28.9,10.7,50.3,36.3,52.8,68.5
		c2.8,36.2-19.5,76.5-53.6,93.6c-28.8,14.5-62.2,13.2-90.6,28.7c-19.9,10.9-34.9,29.1-53.7,41.4c-21.2,13.9-46.6,19.6-70.5,17.5
		c-7.7-0.7-15.4-2.2-22.6-4.6c-29.9-9.8-53.8-33.9-63.6-64.1c-7.9-24.5-6.8-51.9-15.3-76.3c-6.8-19.6-19.5-36.2-28.1-55
		c-8.8-19.1-13-43.1-1.6-62.6c10.5-17.8,31.5-26.1,50.5-27.5c19-1.4,37.2,3,56.2,5.2C405.9,229.6,426.7,229,444.9,219.4z"/>
	<path class="st0" d="M443.1,229.8c7.6-4,12-2.5,19.8-0.6c8.1,2,15,6.7,21.7,11.3c9.9,6.9,16,13.6,26.1,19.3c0.7,0.4,1.3,0.7,2,1.1
		c22.8,12,51.3,3,77.4,5.1c7.5,0.6,14.8,2.3,21.7,4.8c26.8,10,46.5,33.9,48.7,63.8c2.4,33.2-17.9,70-49.2,85.8
		c-26.4,13.3-57,12.2-82.9,26.4c-18.2,9.9-32,26.5-49.2,37.6c-19.5,12.6-42.9,17.6-64.8,15.5c-7.1-0.7-14.1-2.1-20.8-4.3
		c-27.4-9.1-49.5-31.4-58.6-59.1c-7.4-22.5-6.6-47.7-14.5-70c-6.4-18-18-33.3-26-50.5c-8.1-17.6-12.2-39.7-1.8-57.7
		c9.4-16.3,28.7-24.1,45.9-25.5c17.3-1.4,34,2.4,51.4,4.4C407.3,239.1,426.4,238.5,443.1,229.8z"/>
	<path class="st0" d="M441.3,240.2c7-3.6,11.1-2.2,18.3-0.4c7.5,1.9,13.8,6.2,20.1,10.5c9.1,6.3,14.7,12.5,24,17.8
		c0.6,0.3,1.2,0.7,1.9,1c21,11.2,47.1,3.4,71.1,5.6c6.9,0.6,13.6,2.2,19.9,4.6c24.7,9.4,42.7,31.4,44.5,59.1
		c2,30.2-16.4,63.5-44.8,77.9c-23.9,12.1-51.7,11.3-75.3,24.1c-16.5,9-29.1,23.9-44.8,33.8c-17.9,11.3-39.1,15.5-59.1,13.5
		c-6.5-0.7-12.8-2-18.9-4.1c-25-8.5-45.1-28.8-53.5-54.1c-6.9-20.5-6.4-43.4-13.7-63.8c-5.9-16.4-16.5-30.4-23.9-46.1
		c-7.5-16.1-11.4-36.3-2-52.8c8.4-14.9,25.8-22,41.4-23.4c15.7-1.4,30.8,1.9,46.6,3.5C408.8,248.6,426.1,248,441.3,240.2z"/>
	<path class="st0" d="M439.6,250.6c6.4-3.2,10.2-2,16.7-0.3c6.8,1.7,12.7,5.7,18.4,9.7c8.3,5.8,13.5,11.5,22,16.4
		c0.6,0.3,1.1,0.6,1.7,0.9c19.1,10.3,43,3.7,64.8,6.1c6.3,0.7,12.4,2.2,18.2,4.4c22.5,8.8,38.9,28.9,40.4,54.4
		c1.6,27.2-14.9,57-40.3,70c-21.5,11-46.4,10.3-67.6,21.8c-14.9,8-26.2,21.3-40.3,30.1c-16.2,10-35.4,13.5-53.4,11.4
		c-5.8-0.7-11.6-2-17.1-3.9c-22.5-7.9-40.7-26.3-48.5-49.1c-6.3-18.5-6.1-39.2-12.8-57.6c-5.4-14.8-15.1-27.5-21.8-41.7
		c-6.9-14.6-10.6-32.9-2.3-47.9c7.4-13.4,22.9-19.9,36.9-21.4c14-1.4,27.6,1.3,41.8,2.7C410.2,258.1,425.8,257.4,439.6,250.6z"/>
	<path class="st0" d="M437.8,260.9c5.8-2.8,9.3-1.7,15.2-0.1c6.2,1.6,11.5,5.2,16.7,8.8c7.5,5.3,12.3,10.5,19.9,15
		c0.5,0.3,1,0.6,1.5,0.9c17.3,9.5,38.8,4.1,58.5,6.5c5.7,0.7,11.2,2.1,16.4,4.2c20.4,8.2,35.1,26.4,36.2,49.7
		c1.1,24.1-13.3,50.5-35.9,62.2c-19,9.8-41.1,9.4-60,19.4c-13.2,7-23.3,18.8-35.9,26.3c-14.5,8.7-31.7,11.5-47.7,9.4
		c-5.2-0.7-10.3-1.9-15.2-3.6c-20.1-7.2-36.3-23.7-43.5-44c-5.8-16.5-5.9-34.9-12-51.3c-4.9-13.2-13.6-24.6-19.7-37.3
		c-6.3-13.1-9.8-29.5-2.5-43c6.4-12,20.1-17.9,32.3-19.3c12.3-1.5,24.3,0.8,36.9,1.9C411.7,267.6,425.5,266.9,437.8,260.9z"/>
	<path class="st0" d="M436,271.3c5.2-2.5,8.4-1.4,13.7,0c5.6,1.5,10.3,4.7,15,8c6.7,4.7,11.1,9.5,17.9,13.5c0.4,0.3,0.9,0.5,1.4,0.8
		c15.5,8.7,34.6,4.4,52.3,7c5,0.7,10,2.1,14.7,4c18.3,7.6,31.3,24,32.1,45c0.7,21.1-11.8,44.1-31.5,54.3
		c-16.6,8.6-35.8,8.4-52.4,17.1c-11.6,6.1-20.4,16.2-31.5,22.6c-12.9,7.5-27.9,9.5-42,7.4c-4.6-0.7-9-1.8-13.3-3.4
		c-17.6-6.6-31.9-21.2-38.4-39c-5.3-14.5-5.6-30.6-11.2-45.1c-4.5-11.6-12.1-21.7-17.6-32.8c-5.6-11.6-9-26-2.8-38.1
		c5.4-10.6,17.2-15.8,27.8-17.3c10.7-1.5,21.1,0.2,32.1,1C413.1,277.1,425.2,276.4,436,271.3z"/>
	<path class="st0" d="M434.2,281.7c4.6-2.1,7.5-1.1,12.1,0.2c4.9,1.3,9.2,4.2,13.3,7.1c5.9,4.2,9.8,8.4,15.8,12.1
		c0.4,0.2,0.8,0.5,1.2,0.7c13.7,7.9,30.5,4.8,46,7.4c4.4,0.7,8.8,2,12.9,3.8c16.2,7,27.6,21.5,27.9,40.3c0.3,18-10.3,37.6-27.1,46.4
		c-14.2,7.5-30.6,7.5-44.7,14.8c-9.9,5.1-17.6,13.6-27,18.8c-11.2,6.2-24.2,7.4-36.3,5.4c-3.9-0.7-7.8-1.7-11.5-3.2
		c-15.2-6-27.5-18.6-33.4-34c-4.8-12.5-5.4-26.4-10.4-38.8c-4-10-10.6-18.7-15.4-28.4c-5-10.1-8.2-22.6-3-33.2
		c4.4-9.1,14.3-13.7,23.2-15.2c9-1.5,17.9-0.3,27.3,0.2C414.6,286.6,424.9,285.9,434.2,281.7z"/>
	<path class="st0" d="M432.4,292.1c4-1.7,6.7-0.8,10.6,0.3c4.3,1.2,8,3.7,11.6,6.3c5.1,3.7,8.6,7.4,13.8,10.7c0.3,0.2,0.7,0.4,1,0.6
		c11.8,7.1,26.3,5.2,39.7,7.9c3.8,0.8,7.6,2,11.2,3.6c14.1,6.4,23.8,19,23.8,35.6c0,15-8.8,31.1-22.6,38.5
		c-11.7,6.3-25.3,6.5-37.1,12.5c-8.3,4.2-14.7,11-22.6,15c-9.6,4.9-20.5,5.4-30.6,3.3c-3.3-0.7-6.5-1.7-9.6-3
		c-12.7-5.4-23.2-16.1-28.4-29c-4.2-10.5-5.2-22.1-9.5-32.6c-3.5-8.5-9.1-15.8-13.3-24c-4.4-8.6-7.4-19.2-3.3-28.3
		c3.5-7.7,11.5-11.7,18.7-13.2c7.3-1.5,14.7-0.9,22.5-0.6C416,296.1,424.6,295.4,432.4,292.1z"/>
	<path class="st0" d="M430.6,302.5c3.4-1.3,5.8-0.5,9.1,0.4c3.7,1.1,6.8,3.2,9.9,5.4c4.3,3.1,7.4,6.4,11.7,9.2
		c0.3,0.2,0.6,0.4,0.9,0.6c10,6.3,22.2,5.5,33.5,8.3c3.2,0.8,6.4,1.9,9.4,3.4c12,5.8,20,16.5,19.6,30.9
		c-0.4,11.9-7.2,24.6-18.2,30.7c-9.3,5.1-20,5.6-29.4,10.2c-6.6,3.2-11.8,8.4-18.1,11.3c-7.9,3.6-16.7,3.4-24.9,1.3
		c-2.6-0.7-5.2-1.6-7.7-2.7c-10.3-4.7-18.8-13.5-23.3-24c-3.7-8.5-4.9-17.9-8.7-26.4c-3.1-6.9-7.7-12.9-11.2-19.6
		c-3.8-7.1-6.6-15.7-3.5-23.4c2.5-6.2,8.6-9.6,14.2-11.1c5.7-1.5,11.4-1.4,17.7-1.5C417.5,305.6,424.3,304.9,430.6,302.5z"/>
	<path class="st0" d="M428.8,312.9c2.8-0.9,4.9-0.2,7.5,0.6c3,0.9,5.7,2.7,8.2,4.6c3.5,2.6,6.2,5.4,9.6,7.8c0.2,0.2,0.5,0.3,0.7,0.5
		c8.2,5.5,18,5.9,27.2,8.8c2.6,0.8,5.2,1.9,7.7,3.2c9.8,5.2,16.3,14,15.5,26.2c-0.6,8.8-5.7,18.2-13.8,22.8
		c-6.8,3.9-14.7,4.6-21.8,7.9c-4.9,2.3-9,5.8-13.7,7.5c-6.3,2.3-13,1.4-19.2-0.7c-2-0.7-4-1.5-5.9-2.5c-7.8-4.1-14.4-11-18.3-19
		c-3.2-6.5-4.7-13.6-7.9-20.1c-2.6-5.3-6.2-10-9.1-15.2c-3.2-5.6-5.7-12.3-3.7-18.5c1.5-4.7,5.7-7.5,9.6-9.1c4-1.6,8.2-2,12.9-2.3
		C418.9,315.1,424,314.4,428.8,312.9z"/>
</g>
</svg>
