<svg version="1.1" id="Layer_1" xmlns="http://www.w3.org/2000/svg" x="0" y="0" viewBox="0 0 2080 1580" xml:space="preserve"><style>.st0{fill:none;stroke:#fff;stroke-width:.75;stroke-miterlimit:10}</style><g id="Group_8_1_"><g id="Group_7_9_" transform="translate(-792.166 -930.104)"><path id="Path_9_9_" class="st0" d="M1050.6 1243c52.5-11.4 89.9-57.8 117.8-107.7 27.9-49.9 49.6-105.7 85.3-148s90.3-69.4 145.3-48.4c58.1 22.2 99.4 90.7 121.9 157.2s32.6 136.4 60.2 201.1c34.2 80.3 92.9 147.1 128.7 226.7 44.1 98 49.2 212.3 13.2 299.7s-112 145.9-199.5 153.3c-60 5.1-124.2-12.4-181.9 1.5-82.4 19.8-138 100-218.1 126.4-95 31.3-217.8-26.5-282-132.7s-63.5-250.7 1.5-331.6c46.8-58.3 123.6-88.9 142.6-168.4 9.7-40.4 6.3-71.1 10.9-113.6 2.9-26.6 5.9-53.8 16.6-76.4 10.8-22.4 14.9-34.2 37.5-39.1z"/><path id="Path_10_9_" class="st0" d="M1059.5 1251.9c-21.9 4.8-25.9 16.3-36.2 38.1-10.3 21.9-13.3 48.3-16.1 74.1-4.2 38.8-1.6 67.4-9 103.3l-1.5 6.9c-18.5 77.2-92.7 107-138.1 163.6-13 16.2-23.4 35.1-31 55.7-29.5 79.2-19.7 184.3 29.8 266.1 62.2 102.9 181.1 158.9 273.2 128.5 77.6-25.6 131.6-103.2 211.3-122.4 55.9-13.5 118.1 3.4 176.1-1.6 64-5.5 121.6-39.3 161-92 13-17.4 23.7-36.5 32.1-56.8 34.8-84.8 29.9-195.6-12.8-290.5-34.7-77.1-91.5-141.9-124.6-219.8-26.7-62.8-36.4-130.5-58.3-195-21.8-64.5-61.8-130.9-118.1-152.6-53.3-20.4-106.2 5.8-140.7 46.7-34.6 40.8-55.7 94.8-82.7 143.2-27.3 48.4-63.5 93.3-114.4 104.5z"/><path id="Path_11_9_" class="st0" d="M1068.5 1260.8c-21.2 4.7-25.1 15.8-35.1 37s-12.9 46.8-15.6 71.9c-4.1 37.6-1.5 65.4-8.7 100.2-.5 2.2-1 4.5-1.5 6.7-17.8 74.8-89.7 103.9-133.6 158.9-12.6 15.8-22.6 34.1-30 54.1-28.6 76.9-19 178.7 29.1 258 60.2 99.5 175.3 153.7 264.3 124.4 75.1-24.7 127.3-99.8 204.5-118.4 54.1-13.1 114.2 3.2 170.4-1.7 61.9-5.5 117.6-38.2 155.7-89.3 12.5-16.9 23-35.4 31-55.1 33.6-82.1 28.9-189.4-12.5-281.4-33.5-74.7-88.5-137.5-120.5-212.9-25.8-60.8-35.2-126.4-56.4-188.8-21.1-62.5-59.8-126.8-114.3-147.9-51.5-19.8-102.7 5.5-136.2 45-33.5 39.5-53.9 91.6-80.1 138.3-26.2 46.7-61.3 90.1-110.5 101z"/><path id="Path_12_9_" class="st0" d="M1077.4 1269.6c-20.5 4.6-24.3 15.4-34 35.9s-12.5 45.3-15.1 69.6c-3.9 36.4-1.5 63.3-8.4 97.1-.4 2.1-.9 4.3-1.4 6.5-17.2 72.5-86.7 100.8-129.1 154.2-12.2 15.3-21.8 33-29 52.4-27.6 74.5-18.4 173.2 28.4 249.9 58.2 96.2 169.4 148.5 255.5 120.2 72.6-23.9 123.1-96.4 197.7-114.4 52.3-12.6 110.4 3 164.6-1.8 59.8-5.4 113.6-37.1 150.4-86.6 12.1-16.3 22.2-34.2 29.9-53.3 32.4-79.5 27.8-183.2-12.1-272.2-32.4-72.3-85.5-133-116.4-206-24.9-58.8-34.1-122.3-54.5-182.7-20.4-60.5-57.8-122.8-110.5-143.2-49.8-19.2-99.3 5.2-131.6 43.3-32.4 38-52.2 88.4-77.6 133.5-25.3 45.2-59.2 87.2-106.8 97.6z"/><path id="Path_13_9_" class="st0" d="M1086.4 1278.5c-19.8 4.5-23.5 14.9-32.9 34.8-9.4 19.9-12 43.9-14.6 67.4-3.8 35.2-1.4 61.3-8.1 93.9-.4 2.1-.9 4.2-1.4 6.3-16.6 70.2-83.6 97.8-124.5 149.5-11.7 14.8-21.1 32-28 50.8-26.6 72.2-17.6 167.5 27.6 241.8 56.4 92.7 163.6 143.3 246.7 116 70.1-23 118.9-92.9 190.9-110.4 50.4-12.2 106.5 2.8 158.8-1.8 57.7-5.3 109.6-36.1 145.1-83.9 11.7-15.8 21.4-33.1 28.9-51.5 31.3-76.8 26.8-177.1-11.7-263.1-31.3-69.9-82.5-128.6-112.3-199.1-24.1-56.8-32.9-118.1-52.6-176.5-19.7-58.5-55.8-118.7-106.7-138.5-48.1-18.6-95.8 4.9-127.1 41.6-31.3 36.6-50.4 85.2-75 128.7-24.5 43.3-57.2 83.9-103.1 94z"/><path id="Path_14_9_" class="st0" d="M1095.3 1287.4c-19.1 4.3-22.7 14.5-31.7 33.7-9 19.2-11.6 42.4-14.1 65.2-3.7 34-1.4 59.3-7.8 90.8-.4 2-.9 4-1.3 6.1-16 67.9-80.6 94.7-120 144.7-11.3 14.4-20.3 31-27 49.1-25.7 69.8-16.9 161.9 26.9 233.7 54.5 89.3 157.7 138.1 237.9 111.8 67.6-22.2 114.7-89.5 184-106.4 48.6-11.8 102.7 2.6 153.1-1.9 55.6-5.2 105.6-35 139.7-81.2 11.2-15.3 20.6-32 27.8-49.8 30.1-74.2 25.8-170.9-11.3-253.9-30.1-67.4-79.5-124.1-108.2-192.2-23.2-54.9-31.7-114-50.7-170.4-19-56.4-53.8-114.6-102.8-133.8-46.3-18-92.3 4.6-122.5 39.9-30.2 35.2-48.7 82-72.4 123.9-23.7 41.8-55.3 80.9-99.6 90.7z"/><path id="Path_15_9_" class="st0" d="M1104.3 1296.3c-18.4 4.2-21.9 14.1-30.6 32.5-8.7 18.6-11.2 41-13.6 62.9-3.5 32.9-1.3 57.2-7.5 87.7-.4 1.9-.8 3.9-1.3 5.9-15.4 65.6-77.5 91.6-115.5 140-10.9 13.9-19.6 29.9-26 47.5-24.7 67.5-16.2 156.3 26.2 225.5 52.5 85.9 151.9 132.9 229.1 107.6 65.1-21.3 110.4-86.1 177.2-102.4 46.8-11.4 98.8 2.5 147.3-2 53.6-5 101.6-33.9 134.4-78.5 10.8-14.7 19.8-30.9 26.7-48 28.9-71.5 24.8-164.7-10.9-244.7-29-65-76.4-119.7-104.1-185.3-22.3-52.9-30.5-109.9-48.8-164.2-18.3-54.4-51.7-110.6-99-129.2-44.6-17.5-88.9 4.3-118 38.2-29.1 33.8-47 78.8-69.8 119.1-22.8 40.3-53.3 77.8-95.8 87.4z"/><path id="Path_16_9_" class="st0" d="M1113.2 1305.2c-17.7 4.1-21.1 13.6-29.5 31.4-8.4 17.9-10.8 39.5-13.1 60.7-3.4 31.7-1.2 55.2-7.2 84.6l-1.2 5.7c-14.8 63.2-74.5 88.5-111 135.3-10.5 13.4-18.8 28.9-25 45.8-23.8 65.1-15.5 150.7 25.4 217.4 50.6 82.5 146 127.7 220.2 103.4 62.6-20.5 106.2-82.7 170.4-98.4 45-11 95 2.4 141.5-2.1 51.5-4.9 97.6-32.9 129.1-75.8 10.4-14.2 19-29.7 25.6-46.2 27.8-68.9 23.8-158.5-10.5-235.6-27.8-62.6-73.4-115.2-100-178.4-21.4-50.9-29.3-105.8-46.9-158-17.6-52.4-49.7-106.6-95.2-124.5-42.8-16.9-85.4 4-113.4 36.5s-45.2 75.6-67.2 114.3c-21.8 38.6-51.1 74.5-92 83.9z"/><path id="Path_17_9_" class="st0" d="M1122.1 1314.1c-17 3.9-20.3 13.2-28.3 30.3-8.1 17.3-10.4 38-12.6 58.4-3.3 30.5-1.2 53.2-6.9 81.4-.4 1.8-.8 3.6-1.2 5.5-14.2 60.9-71.5 85.4-106.5 130.5-10.2 13.3-18.3 28.2-24 44.2-22.8 62.7-14.8 145.1 24.7 209.3 48.6 79.1 140.2 122.5 211.4 99.2 60.1-19.6 102-79.3 163.6-94.4 43.2-10.6 91.1 2.2 135.8-2.2 49.4-4.8 93.6-31.8 123.8-73.1 9.9-13.7 18.2-28.6 24.6-44.5 26.6-66.2 22.8-152.4-10.1-226.4-26.7-60.1-70.4-110.8-95.9-171.5-20.6-48.9-28.2-101.7-45-151.9-16.9-50.4-47.7-102.5-91.4-119.8-41.1-16.3-82 3.7-108.8 34.7-26.9 31.1-43.5 72.3-64.6 109.4-21.2 37.3-49.3 71.8-88.6 80.9z"/><path id="Path_18_9_" class="st0" d="M1131.1 1323c-16.3 3.8-19.5 12.7-27.2 29.2-7.7 16.6-10 36.6-12.1 56.2-3.1 29.3-1.1 51.1-6.6 78.3-.3 1.7-.7 3.5-1.1 5.3-13.6 58.6-68.4 82.4-101.9 125.8-9.7 12.8-17.5 27.1-23 42.5-21.9 60.4-14.1 139.5 23.9 201.2 46.7 75.7 134.3 117.3 202.6 95.1 57.6-18.8 97.8-75.9 156.8-90.3 41.3-10.1 87.3 2 130-2.2 47.4-4.7 89.6-30.7 118.5-70.4 9.5-13.1 17.4-27.5 23.5-42.7 25.4-63.6 21.7-146.2-9.7-217.3-25.6-57.7-67.4-106.4-91.8-164.6-19.7-47-27-97.5-43.1-145.7-16.2-48.4-45.7-98.5-87.6-115.1-39.4-15.7-78.5 3.3-104.3 33-25.8 29.7-41.7 69.1-62 104.6-20.3 35.3-47.3 68.3-84.9 77.1z"/><path id="Path_19_9_" class="st0" d="M1140 1331.9c-15.7 3.7-18.7 12.3-26.1 28.1-7.4 15.9-9.6 35.1-11.6 53.9-3 28.1-1.1 49.1-6.3 75.2-.3 1.7-.7 3.3-1.1 5.1-13 56.3-65.4 79.3-97.4 121.1-9.3 12.3-16.7 26.1-21.9 40.9-20.9 58-13.4 133.9 23.2 193.1 44.7 72.4 128.5 112.1 193.8 90.9 55.1-17.9 93.5-72.4 150-86.3 39.5-9.7 83.4 1.9 124.3-2.3 45.3-4.6 85.6-29.7 113.2-67.7 9.1-12.6 16.6-26.3 22.4-40.9 24.3-60.9 20.7-140-9.3-208.1-24.4-55.3-64.4-101.9-87.7-157.7-18.8-45-25.8-93.4-41.2-139.6-15.5-46.4-43.7-94.4-83.8-110.5-37.6-15.1-75.1 3-99.7 31.3-24.7 28.3-40 65.9-59.4 99.8-19.6 33.7-45.4 65.2-81.4 73.7z"/><path id="Path_20_9_" class="st0" d="M1149 1340.7c-15 3.6-17.9 11.8-24.9 26.9-7.1 15.3-9.2 33.7-11.1 51.7-2.8 26.9-1 47.1-6 72-.3 1.6-.7 3.2-1 4.8-12.4 54-62.3 76.2-92.9 116.4-8.9 11.8-15.9 25.1-20.9 39.2-19.9 55.7-12.7 128.3 22.5 185 42.8 69 122.6 106.9 185 86.7 52.6-17.1 89.3-69 143.1-82.3 37.7-9.3 79.6 1.7 118.5-2.4 43.2-4.5 81.6-28.6 107.9-65.1 8.6-12 15.8-25.2 21.3-39.2 23.1-58.3 19.7-133.9-9-198.9-23.3-52.9-61.4-97.5-83.6-150.8-17.9-43-24.6-89.3-39.3-133.4-14.8-44.4-41.7-90.3-80-105.8-35.9-14.5-71.6 2.7-95.2 29.6-23.6 26.9-38.3 62.7-56.9 95-18.6 32.5-43.3 62.5-77.5 70.6z"/><path id="Path_21_9_" class="st0" d="M1157.9 1349.6c-14.3 3.4-17.1 11.4-23.8 25.8-6.8 14.6-8.7 32.2-10.6 49.5-2.7 25.7-1 45-5.7 68.9-.3 1.5-.6 3.1-1 4.6-11.7 51.6-59.3 73.1-88.4 111.6-8.5 11.3-15.2 24-19.9 37.6-19 53.3-12 122.7 21.7 176.9 40.8 65.6 116.8 101.7 176.1 82.5 50.1-16.2 85.1-65.6 136.3-78.3 35.9-8.9 75.7 1.5 112.7-2.5 41.1-4.4 77.6-27.5 102.6-62.4 8.2-11.5 15-24.1 20.3-37.4 21.9-55.6 18.7-127.7-8.6-189.8-22.1-50.4-58.3-93-79.5-143.9-17.1-41-23.4-85.2-37.4-127.3-14.1-42.4-39.7-86.3-76.1-101.1-34.1-13.9-68.2 2.4-90.6 27.9-22.5 25.5-36.5 59.5-54.3 90.2-17.6 30.8-41.2 59.4-73.8 67.2z"/><path id="Path_22_9_" class="st0" d="M1166.9 1358.5c-13.6 3.3-16.3 10.9-22.7 24.7-6.4 14-8.3 30.7-10.1 47.2-2.6 24.5-.9 43-5.4 65.8-.3 1.5-.6 2.9-.9 4.4-11.1 49.3-56.3 70-83.9 106.9-8 10.9-14.4 23-18.9 35.9-18 51-11.3 117.1 21 168.7 38.9 62.2 111 96.5 167.3 78.3 47.6-15.4 80.9-62.2 129.5-74.3 34.1-8.5 71.9 1.3 107-2.6 39-4.3 73.6-26.5 97.2-59.7 7.8-11 14.2-22.9 19.2-35.6 20.8-53 17.7-121.5-8.2-180.6-21-48-55.3-88.6-75.4-137-16.2-39-22.2-81.1-35.5-121.1-13.3-40.4-37.6-82.2-72.3-96.4-32.4-13.3-64.7 2.1-86.1 26.2-21.4 24.1-34.8 56.3-51.7 85.4-16.8 29.2-39.2 56.3-70.1 63.8z"/><path id="Path_23_9_" class="st0" d="M1175.8 1367.4c-12.9 3.2-15.5 10.5-21.5 23.6-6.1 13.3-7.9 29.3-9.5 45-2.4 23.3-.9 41-5.1 62.7l-.9 4.2c-10.5 47-53.2 67-79.3 102.2-7.6 10.4-13.6 21.9-17.9 34.3-17.1 48.6-10.6 111.5 20.3 160.6 36.9 58.8 105.1 91.3 158.5 74.1 45.1-14.5 76.6-58.8 122.7-70.3 32.3-8.1 68 1.2 101.2-2.6 37-4.2 69.7-25.4 91.9-57 7.4-10.4 13.4-21.8 18.1-33.9 19.6-50.3 16.7-115.4-7.8-171.5-19.9-45.6-52.3-84.1-71.3-130.1-15.3-37.1-21.1-76.9-33.6-115-12.6-38.4-35.6-78.1-68.5-91.7-30.7-12.7-61.3 1.8-81.5 24.5-20.3 22.7-33 53.1-49.1 80.6-16.2 27.5-37.4 53-66.7 60.3z"/><path id="Path_24_9_" class="st0" d="M1184.7 1376.3c-12.2 3.1-14.7 10-20.4 22.5-5.8 12.7-7.5 27.8-9 42.7-2.3 22.2-.8 38.9-4.8 59.5-.3 1.3-.5 2.7-.8 4-9.9 44.7-50.2 63.9-74.8 97.4-7.2 9.9-12.9 20.9-16.9 32.6-16.1 46.3-9.9 105.9 19.5 152.5 35 55.4 99.3 86.1 149.7 70 42.6-13.6 72.4-55.4 115.9-66.3 30.4-7.7 64.2 1 95.4-2.7 34.9-4.1 65.7-24.3 86.6-54.3 6.9-9.9 12.6-20.7 17.1-32.1 18.4-47.7 15.6-109.2-7.4-162.3-18.7-43.1-49.3-79.7-67.2-123.2-14.5-35.1-19.9-72.8-31.8-108.8-11.9-36.3-33.6-74.1-64.7-87.1-28.9-12.1-57.8 1.5-77 22.8-19.2 21.3-31.3 49.8-46.5 75.7-15.2 26.1-35.2 50.1-62.9 57.1z"/><path id="Path_25_9_" class="st0" d="M1193.7 1385.2c-11.5 3-13.9 9.6-19.3 21.4-5.5 12-7.1 26.4-8.5 40.5-2.2 21-.8 36.9-4.5 56.4-.2 1.3-.5 2.5-.8 3.8-9.3 42.4-47.1 60.8-70.3 92.7-6.7 9.4-12.1 19.8-15.9 31-15.1 43.9-9.2 100.3 18.8 144.4 33 52 93.4 80.9 140.9 65.8 40-12.8 68.2-52 109-62.3 28.6-7.2 60.3.8 89.7-2.8 32.8-4 61.7-23.3 81.3-51.6 6.5-9.4 11.9-19.6 16-30.3 17.3-45 14.6-103-7-153.1-17.6-40.7-46.3-75.2-63.1-116.3-13.6-33.1-18.7-68.7-29.9-102.7-11.2-34.3-31.6-70-60.9-82.4-27.2-11.5-54.4 1.2-72.4 21.1-18.1 19.9-29.6 46.6-43.9 70.9-14.3 24.2-33.3 46.8-59.2 53.5z"/><path id="Path_26_9_" class="st0" d="M1202.6 1394.1c-10.8 2.8-13.1 9.2-18.1 20.2-5.2 11.3-6.7 24.9-8 38.3-2 19.8-.7 34.9-4.2 53.3-.2 1.2-.5 2.4-.7 3.6-8.7 40-44.1 57.7-65.8 88-6.3 8.9-11.3 18.8-14.9 29.3-14.2 41.6-8.5 94.7 18.1 136.3 31 48.6 87.6 75.7 132 61.6 37.5-11.9 64-48.5 102.2-58.3 26.8-6.8 56.5.7 83.9-2.9 30.7-4 57.7-22.2 76-48.9 6.1-8.8 11.1-18.4 14.9-28.6 16.1-42.4 13.6-96.9-6.6-144-16.4-38.3-43.2-70.8-59-109.4-12.7-31.1-17.5-64.6-28-96.5-10.5-32.3-29.6-65.9-57.1-77.7-25.4-10.9-50.9.9-67.8 19.4-17 18.5-27.8 43.4-41.3 66.1-13.5 22.7-31.3 43.8-55.6 50.2z"/><path id="Path_27_9_" class="st0" d="M1211.6 1403c-10.1 2.7-12.3 8.7-17 19.1-4.8 10.7-6.3 23.4-7.5 36-1.9 18.6-.7 32.8-3.9 50.2-.2 1.1-.4 2.2-.7 3.4-8.1 37.7-41 54.6-61.3 83.3-5.9 8.4-10.6 17.8-13.9 27.7-13.2 39.2-7.8 89 17.3 128.2 29.1 45.3 81.7 70.5 123.2 57.4 35-11.1 59.7-45.1 95.4-54.3 25-6.4 52.6.5 78.1-3 28.7-3.9 53.7-21.1 70.7-46.2 5.6-8.3 10.3-17.3 13.8-26.8 15-39.7 12.6-90.7-6.2-134.8-15.3-35.8-40.2-66.3-54.9-102.5-11.8-29.1-16.3-60.4-26.1-90.3-9.8-30.3-27.6-61.9-53.3-73-23.7-10.3-47.4.6-63.3 17.7-15.9 17.1-26.1 40.2-38.7 61.3-12.5 20.9-29.1 40.5-51.7 46.6z"/><path id="Path_28_9_" class="st0" d="M1220.5 1411.8c-9.4 2.6-11.5 8.3-15.9 18-4.5 10-5.9 22-7 33.8-1.8 17.4-.6 30.8-3.6 47-.2 1-.4 2.1-.6 3.2-7.5 35.4-38 51.5-56.7 78.5-5.5 8-9.8 16.7-12.8 26-12.3 36.9-7.1 83.4 16.6 120.1 27.1 41.9 75.9 65.3 114.4 53.2 32.5-10.2 55.5-41.7 88.6-50.3 23.2-6 48.8.3 72.4-3 26.6-3.8 49.7-20.1 65.4-43.5 5.2-7.8 9.5-16.2 12.8-25 13.8-37.1 11.6-84.5-5.8-125.7-14.1-33.4-37.2-61.9-50.8-95.6-11-27.2-15.1-56.3-24.2-84.2-9.1-28.3-25.6-57.8-49.5-68.3-22-9.7-44 .3-58.7 16-14.8 15.7-24.3 37-36.2 56.5-11.9 19.5-27.4 37.6-48.4 43.3z"/><path id="Path_29_9_" class="st0" d="M1229.5 1420.7c-8.8 2.5-10.7 7.8-14.8 16.9-4.2 9.4-5.4 20.5-6.5 31.5-1.6 16.2-.5 28.8-3.3 43.9l-.6 3c-6.9 33.1-35 48.5-52.2 73.8-5 7.5-9 15.7-11.8 24.4-11.3 34.5-6.4 77.8 15.9 111.9 25.2 38.5 70 60.2 105.6 49 30-9.4 51.3-38.3 81.8-46.3 21.3-5.6 44.9.1 66.6-3.1 24.5-3.7 45.7-19 60-40.8 4.8-7.2 8.7-15 11.7-23.3 12.6-34.4 10.6-78.3-5.5-116.5-13-31-34.2-57.4-46.7-88.7-10.1-25.2-14-52.2-22.3-78-8.4-26.3-23.5-53.7-45.6-63.7-20.2-9.1-40.5 0-54.2 14.3-13.7 14.3-22.6 33.8-33.6 51.7-10.9 17.9-25.2 34.6-44.5 40z"/><path id="Path_30_9_" class="st0" d="M1238.4 1429.6c-8.1 2.3-9.9 7.4-13.6 15.8-3.9 8.7-5 19.1-6 29.3-1.5 15-.5 26.7-3 40.8-.2.9-.3 1.8-.5 2.8-6.3 30.8-31.9 45.4-47.7 69.1-4.6 7-8.2 14.6-10.8 22.7-10.3 32.1-5.7 72.2 15.1 103.8 23.2 35.1 64.2 55 96.8 44.8 27.5-8.5 47.1-34.9 74.9-42.2 19.5-5.2 41.1 0 60.8-3.2 22.4-3.6 41.7-17.9 54.7-38.1 4.3-6.7 7.9-13.9 10.6-21.5 11.5-31.8 9.5-72.2-5.1-107.3-11.9-28.6-31.2-53-42.6-81.8-9.2-23.2-12.8-48.1-20.4-71.9-7.7-24.3-21.5-49.7-41.8-59-18.5-8.5-37.1-.3-49.6 12.6-12.6 12.9-20.8 30.6-31 46.9-10 16.1-23.2 31.3-40.8 36.4z"/><path id="Path_31_9_" class="st0" d="M1247.3 1438.5c-7.4 2.2-9.1 6.9-12.5 14.6-3.6 8-4.6 17.6-5.5 27-1.3 13.8-.5 24.7-2.7 37.6-.1.8-.3 1.7-.5 2.6-5.6 28.4-28.9 42.3-43.2 64.3-4.2 6.5-7.5 13.6-9.8 21.1-9.4 29.8-5 66.6 14.4 95.7 21.2 31.7 58.3 49.8 87.9 40.7 25-7.7 42.9-31.5 68.1-38.2 17.7-4.7 37.2-.2 55.1-3.3 20.4-3.5 37.7-16.9 49.4-35.4 3.9-6.2 7.1-12.8 9.5-19.7 10.3-29.1 8.5-66-4.7-98.2-10.7-26.1-28.2-48.5-38.5-74.9-8.3-21.2-11.6-44-18.5-65.7-7-22.3-19.5-45.6-38-54.3-16.7-7.9-33.6-.6-45.1 10.9s-19.1 27.3-28.4 42c-9 14.7-21 28.4-37 33.2z"/><path id="Path_32_9_" class="st0" d="M1256.3 1447.4c-6.7 2.1-8.3 6.5-11.4 13.5-3.2 7.4-4.2 16.1-5 24.8-1.2 12.6-.4 22.7-2.4 34.5-.1.8-.3 1.6-.4 2.3-5 26.1-25.8 39.2-38.7 59.6-3.7 6-6.7 12.6-8.8 19.4-8.4 27.4-4.4 61 13.7 87.6 19.2 28.4 52.5 44.6 79.1 36.5 22.5-6.8 38.6-28.1 61.3-34.2 15.9-4.3 33.4-.4 49.3-3.4 18.3-3.4 33.7-15.8 44.1-32.7 3.5-5.6 6.3-11.6 8.5-18 9.1-26.5 7.5-59.8-4.3-89-9.6-23.7-25.1-44.1-34.4-68-7.5-19.3-10.5-39.8-16.6-59.6-6.3-20.3-17.5-41.5-34.2-49.6-15-7.2-30.2-.9-40.5 9.2-10.4 10.1-17.4 24.1-25.8 37.2-8.4 13.1-19.2 25.4-33.5 29.9z"/><path id="Path_33_9_" class="st0" d="M1265.2 1456.3c-6 2-7.5 6-10.2 12.4-2.9 6.7-3.8 14.7-4.5 22.6-1.1 11.5-.4 20.6-2.1 31.4-.1.7-.2 1.4-.4 2.1-4.4 23.8-22.8 36.1-34.1 54.9-3.3 5.5-5.9 11.5-7.8 17.8-7.5 25.1-3.7 55.4 12.9 79.5 17.2 25 46.6 39.4 70.3 32.3 20-6 34.4-24.6 54.5-30.2 14.1-3.9 29.5-.6 43.6-3.4 16.2-3.3 29.7-14.7 38.8-30 3-5.1 5.5-10.5 7.4-16.2 8-23.8 6.5-53.7-3.9-79.8-8.4-21.3-22.1-39.7-30.3-61.1-6.6-17.3-9.3-35.7-14.7-53.4-5.6-18.2-15.5-37.5-30.4-45-13.2-6.6-26.7-1.3-36 7.5-9.3 8.7-15.7 20.9-23.2 32.4-7.5 11.2-17.2 22-29.9 26.2z"/><path id="Path_34_9_" class="st0" d="M1274.2 1465.2c-5.3 1.9-6.6 5.6-9.1 11.3-2.6 6.1-3.4 13.2-4 20.3-.9 10.3-.3 18.6-1.8 28.3-.1.6-.2 1.3-.3 1.9-3.8 21.5-19.8 33.1-29.6 50.2-2.9 5-5.2 10.5-6.8 16.1-6.8 24.2-2.3 50.6 12.2 71.4 15.2 21.6 40.8 34.2 61.5 28.1 17.5-5.1 30.2-21.2 47.7-26.2 12.2-3.5 25.7-.8 37.8-3.5 14.1-3.2 25.7-13.7 33.5-27.3 2.6-4.6 4.7-9.4 6.3-14.4 6.8-21.2 5.5-47.5-3.5-70.7-7.3-18.8-19.1-35.2-26.2-54.2-5.7-15.3-8.1-31.6-12.8-47.3-4.9-16.2-13.4-33.4-26.6-40.3-11.5-6-23.2-1.6-31.4 5.7-8.2 7.3-13.9 17.7-20.6 27.6-6.8 9.8-15.3 19.1-26.3 23z"/><path id="Path_35_9_" class="st0" d="M1283.1 1474.1c-4.6 1.8-5.8 5.1-8 10.2-2.3 5.4-3 11.8-3.5 18.1-.8 9.1-.3 16.6-1.5 25.1-.1.6-.2 1.1-.3 1.7-3.2 19.2-16.7 30-25.1 45.4-2.5 4.6-4.4 9.4-5.8 14.5-5.5 20.4-2.3 44.2 11.5 63.3 13.2 18.3 34.9 29 52.7 23.9 15-4.3 26-17.8 40.8-22.2 10.4-3.1 21.8-1 32-3.6 12.1-3.1 21.7-12.6 28.2-24.7 2.2-4 3.9-8.3 5.3-12.7 5.6-18.5 4.5-41.3-3.1-61.5-6.2-16.4-16.1-30.8-22.1-47.3-4.8-13.3-6.9-27.5-10.9-41.1-4.2-14.2-11.4-29.3-22.8-35.6-9.8-5.4-19.8-1.9-26.8 4-7.1 5.9-12.2 14.5-18 22.8-5.9 8.2-13.2 16.1-22.6 19.7z"/><path id="Path_36_9_" class="st0" d="M1292.1 1482.9c-3.9 1.6-5 4.7-6.8 9.1-2 4.8-2.6 10.3-3 15.8-.7 7.9-.2 14.5-1.2 22-.1.5-.1 1-.2 1.5-2.6 16.8-13.7 26.9-20.6 40.7-2 4.1-3.6 8.4-4.8 12.8-4.6 18-1.7 38.6 10.7 55.1 11.2 14.9 29.1 23.8 43.8 19.7 12.5-3.4 21.7-14.4 34-18.2 8.6-2.7 18-1.2 26.3-3.7 10-3.1 17.7-11.5 22.9-22 1.7-3.5 3.1-7.1 4.2-10.9 4.5-15.9 3.4-35.2-2.7-52.4-5-14-13.1-26.3-18-40.4-4-11.3-5.7-23.4-9-35-3.5-12.2-9.4-25.2-18.9-30.9-8-4.8-16.3-2.2-22.3 2.3-6 4.6-10.4 11.2-15.5 18-5 6.9-11.3 13.3-18.9 16.5z"/><path id="Path_37_9_" class="st0" d="M1301 1491.8c-3.2 1.5-4.2 4.2-5.7 7.9-1.6 4.1-2.1 8.8-2.5 13.6-.5 6.7-.1 12.5-.9 18.9-.1.4-.1.9-.2 1.3-2 14.5-10.6 23.8-16.1 36-1.6 3.6-2.9 7.3-3.8 11.2-3.7 15.7-1.1 33 10 47 9.1 11.6 23.2 18.6 35 15.5 10-2.6 17.5-11 27.2-14.2 6.8-2.2 14.2-1.4 20.5-3.8 7.9-3 13.7-10.5 17.5-19.3 1.3-2.9 2.3-6 3.1-9.1 3.3-13.2 2.4-29-2.3-43.2-3.9-11.6-10-21.9-13.9-33.5-3.1-9.4-4.5-19.2-7.1-28.8-2.8-10.2-7.4-21.1-15.1-26.2-6.3-4.1-12.9-2.5-17.7.6-4.9 3.2-8.7 8-12.9 13.1-4 5.2-9.1 10.2-15.1 13z"/><path id="Path_38_9_" class="st0" d="M1309.9 1500.7c-2.5 1.4-3.4 3.8-4.6 6.8-1.3 3.4-1.7 7.4-2 11.3-.4 5.5-.1 10.5-.6 15.8 0 .4-.1.7-.1 1.1-1.4 12.2-7.6 20.7-11.6 31.2a53.9 53.9 0 00-2.7 9.5c-2.7 13.3-.5 27.4 9.2 38.9 7 8.3 17.4 13.4 26.2 11.4 7.5-1.7 13.3-7.6 20.4-10.2 5-1.8 10.3-1.6 14.7-3.8 5.9-3 9.7-9.4 12.2-16.6.8-2.4 1.5-4.9 2-7.4 2.1-10.6 1.4-22.8-2-34-2.7-9.1-7-17.4-9.8-26.6-2.2-7.4-3.4-15.1-5.2-22.6-2-8.2-5.4-17-11.3-21.6-4.5-3.5-9.4-2.8-13.2-1.1-3.8 1.8-6.9 4.8-10.3 8.3-3 3.6-6.9 7.1-11.3 9.6z"/></g></g><g id="Group_11_1_"><g id="Group_10_1_" transform="translate(293.448 85.801)"><path id="Path_39_1_" class="st0" d="M1622.6 1201.7c-46.4 13.9-74.2 56.5-92.9 101.4s-31 94.4-57.8 133.3-72.9 66.5-125.9 52.7c-56-14.5-102.8-69.9-132.4-125.1-29.5-55.2-48.1-114.2-82-167.5-42-66.1-104.6-118.7-148-184-53.5-80.4-73.5-177.9-52.5-255.5s82.4-133.6 161.1-146.7c54-9 114.9.9 165.6-15.5 72.4-23.4 112.3-96.3 181.8-125.2 82.4-34.2 202.1 5.7 275 91.6 72.9 86 91.8 209.6 43.4 283.9-34.8 53.5-100.6 85.7-107.3 155.2-3.4 35.4 3.8 61.3 5.4 98.1 1 23 1.9 46.5-4.8 66.7-6.6 20.2-8.8 30.7-28.7 36.6z"/><path id="Path_40_1_" class="st0" d="M1613.3 1194.8c19.3-5.8 21.4-16 27.9-35.4 6.5-19.5 5.6-42.3 4.7-64.7-1.4-33.5-7.7-57.8-5.7-89.1.1-2 .3-4 .5-6.1 6.4-67.5 70.1-98.8 103.8-150.8 9.7-14.9 16.6-31.9 20.8-50.1 16.2-70.1-6.9-159.3-63.1-225.4-70.6-83.2-186.6-121.9-266.4-88.7-67.3 27.9-106 98.6-176.1 121.2-49.1 15.9-108.1 6.3-160.4 15.1-57.6 9.7-105.6 43.1-134.4 91.3-9.5 15.9-16.7 33.1-21.6 51.2-20.3 75.3-.8 169.7 50.9 247.7 42 63.3 102.6 114.3 143.3 178.4 32.8 51.7 50.8 108.9 79.5 162.3 28.6 53.5 74 107.2 128.3 121.4 51.3 13.3 96-13.3 122-50.9s37.9-85.5 56.1-129 45-84.9 89.9-98.4z"/><path id="Path_41_1_" class="st0" d="M1603.9 1187.9c18.7-5.7 20.8-15.5 27-34.4 6.3-18.9 5.4-41.1 4.5-62.7-1.4-32.5-7.5-56.1-5.6-86.4.1-1.9.3-3.9.5-5.9 6.2-65.4 67.7-95.9 100.3-146.4 9.3-14.5 16-30.9 20.1-48.6 15.7-68-6.8-154.5-61.4-218.5-68.3-80.6-180.5-118-257.7-86-65.1 27-102.6 95.3-170.5 117.3-47.5 15.4-104.6 6.2-155.1 14.7-55.7 9.5-102.1 41.9-129.9 88.6-9.1 15.4-16.1 32-20.8 49.6-19.5 72.9-.7 164.3 49.4 239.9 40.7 61.3 99.3 110.8 138.6 172.8 31.7 50 49.2 105.4 76.9 157.2 27.7 51.8 71.6 103.9 124.2 117.7 49.7 12.9 92.9-12.7 118.1-49.1 25.2-36.4 36.8-82.6 54.4-124.6 17.5-42.2 43.6-82.1 87-95.2z"/><path id="Path_42_1_" class="st0" d="M1594.6 1181c18.1-5.5 20.1-15.1 26.1-33.4 6-18.3 5.2-39.8 4.3-60.8-1.3-31.5-7.2-54.3-5.4-83.7.1-1.9.3-3.8.4-5.7 5.9-63.4 65.4-93.1 96.8-142 9-14 15.4-30 19.4-47.1 15.1-65.9-6.6-149.6-59.6-211.7-66.1-77.8-174.5-113.9-249.2-83-63 26.1-99.2 92.1-164.8 113.3-45.9 14.9-101 6-149.8 14.3-53.8 9.3-98.6 40.6-125.4 85.8-8.8 14.9-15.6 31-20.1 48-18.8 70.5-.6 159 47.8 232 39.3 59.3 95.9 107.2 134 167.2 30.7 48.4 47.6 102 74.3 152.1 26.8 50.2 69.3 100.6 120 114 48 12.6 89.8-12.2 114.1-47.3 24.4-35.1 35.6-79.7 52.7-120.3 17.2-40.5 42.4-79 84.4-91.7z"/><path id="Path_43_1_" class="st0" d="M1585.2 1174.1c17.4-5.4 19.4-14.6 25.3-32.3 5.8-17.7 5.1-38.5 4.2-58.8-1.3-30.4-7-52.6-5.3-81 .1-1.8.2-3.6.4-5.5 5.7-61.4 63-90.2 93.4-137.6 8.7-13.6 14.9-29 18.7-45.6 14.5-63.8-6.6-144.7-57.8-204.8-63.9-75-168.5-109.9-240.6-80.1-60.8 25.2-95.8 88.8-159.1 109.3-44.3 14.4-97.5 5.9-144.6 13.9-51.9 9-95.1 39.4-120.9 83.1-8.5 14.4-15 30-19.3 46.4-18.1 68.2-.5 153.6 46.2 224.2 37.9 57.4 92.6 103.6 129.3 161.6 29.6 46.8 45.9 98.6 71.8 147 25.9 48.5 66.9 97.2 115.9 110.3 46.3 12.2 86.7-11.7 110.2-45.5 23.6-33.8 34.5-76.8 51-116 16.3-39.1 40.7-76.3 81.2-88.6z"/><path id="Path_44_1_" class="st0" d="M1575.9 1167.2c16.8-5.2 18.8-14.2 24.4-31.3 5.6-17.2 4.9-37.2 4-56.9-1.3-29.4-6.8-50.8-5.1-78.3.1-1.7.2-3.5.4-5.3 5.4-59.3 60.7-87.3 89.9-133.2 8.4-13.2 14.3-28.1 18-44.2 14-61.7-6.5-139.9-56.1-197.9-61.7-72.2-162.5-105.9-232-77.2-58.6 24.2-92.4 85.5-153.4 105.4-42.7 13.9-93.9 5.8-139.3 13.6-50 8.8-91.6 38.2-116.4 80.4-8.2 13.9-14.4 29-18.6 44.8-17.4 65.8-.4 148.3 44.6 216.4 36.6 55.4 89.2 100.1 124.6 156 28.6 45.2 44.3 95.1 69.2 141.9 25 46.8 64.5 93.9 111.8 106.5 44.7 11.8 83.6-11.1 106.3-43.7 22.8-32.5 33.3-74 49.3-111.7 15.8-37.6 39.3-73.5 78.4-85.3z"/><path id="Path_45_1_" class="st0" d="M1566.5 1160.3c16.2-5 18.1-13.7 23.5-30.2 5.4-16.6 4.7-35.9 3.9-54.9-1.2-28.4-6.5-49.1-5-75.6.1-1.7.2-3.4.4-5.1 5.2-57.3 58.3-84.4 86.4-128.8 8.1-12.7 13.8-27.2 17.3-42.7 13.4-59.7-6.4-135-54.3-191-59.5-69.4-156.4-101.9-223.4-74.3-56.5 23.3-89 82.3-147.7 101.4-41.1 13.4-90.4 5.5-134 13.2-48.2 8.5-88.1 37-112 77.7-7.9 13.4-13.9 27.9-17.9 43.2-16.7 63.5-.4 142.9 43 208.6 35.2 53.4 85.9 96.5 119.9 150.5 27.5 43.5 42.7 91.7 66.7 136.7 24 45.2 62.1 90.7 107.7 102.8 43 11.5 80.5-10.6 102.4-41.8 22-31.2 32.2-71.1 47.6-107.3 15.3-36.4 38-70.9 75.5-82.4z"/><path id="Path_46_1_" class="st0" d="M1557.1 1153.3c15.6-4.9 17.4-13.3 22.6-29.2 5.2-16 4.5-34.7 3.7-52.9-1.2-27.4-6.3-47.3-4.8-72.9.1-1.6.2-3.3.4-5 4.9-55.3 56-81.6 82.9-124.4 7.7-12.3 13.2-26.2 16.6-41.2 12.9-57.6-6.2-130.2-52.5-184.1-57.2-66.7-150.4-97.9-214.8-71.4-54.3 22.4-85.7 79-142.1 97.5-39.5 12.9-86.9 5.4-128.8 12.8-46.3 8.2-84.6 35.7-107.5 75-7.5 12.9-13.3 26.9-17.1 41.6-16 61.1-.3 137.5 41.4 200.8 33.8 51.4 82.5 92.9 115.3 144.9 26.4 41.9 41 88.3 64.1 131.6 23.1 43.5 59.7 87.3 103.6 99.1 41.3 11.1 77.4-10.1 98.5-40 21.1-30 31-68.2 45.8-103 14.9-34.9 36.7-68 72.7-79.2z"/><path id="Path_47_1_" class="st0" d="M1547.8 1146.4c15-4.7 16.7-12.8 21.7-28.1 5-15.4 4.3-33.4 3.6-51-1.1-26.3-6.1-45.6-4.7-70.2l.3-4.8c4.7-53.2 53.6-78.7 79.4-120 7.5-12.1 12.8-25.5 15.9-39.7 12.3-55.5-6.1-125.3-50.8-177.2-55-63.9-144.4-93.9-206.2-68.5-52.1 21.5-82.3 75.8-136.4 93.5-37.9 12.4-83.4 5.2-123.5 12.4-43.4 7.7-80.8 33.9-103 72.2-7.2 12.4-12.7 25.9-16.4 40-15.3 58.7-.2 132.2 39.8 193 32.5 49.4 79.2 89.3 110.6 139.3 25.4 40.3 39.4 84.8 61.5 126.5 22.2 41.8 57.3 84 99.5 95.4 39.7 10.7 74.3-9.5 94.5-38.2 20.3-28.7 29.9-65.3 44.1-98.7 14.5-33.4 35.5-65.1 70.1-75.9z"/><path id="Path_48_1_" class="st0" d="M1538.4 1139.5c14.4-4.5 16.1-12.4 20.9-27.1 4.8-14.8 4.2-32.1 3.4-49-1.1-25.3-5.9-43.9-4.5-67.5.1-1.5.2-3 .3-4.6 4.5-51.2 51.2-75.8 75.9-115.6 7.1-11.7 12.3-24.6 15.2-38.2 11.8-53.4-6-120.5-49-170.3-52.8-61.2-138.3-89.9-197.5-65.6-50 20.5-78.9 72.5-130.7 89.5-36.3 11.9-79.8 5.1-118.2 12-41.6 7.5-77.3 32.7-98.5 69.5-6.9 11.9-12.2 24.8-15.7 38.4-14.6 56.4-.1 126.8 38.2 185.2 31.1 47.4 75.8 85.8 105.9 133.7 24.3 38.6 37.8 81.4 59 121.4 21.3 40.2 55 80.7 95.4 91.7 38 10.3 71.1-9 90.6-36.4s28.7-62.4 42.4-94.4c13.7-31.9 33.9-62.3 66.9-72.7z"/><path id="Path_49_1_" class="st0" d="M1529.1 1132.6c13.8-4.4 15.4-12 20-26 4.6-14.2 4-30.8 3.3-47.1-1.1-24.3-5.6-42.1-4.4-64.8.1-1.4.2-2.9.3-4.4 4.2-49.2 48.9-72.9 72.5-111.2 6.8-11.2 11.7-23.6 14.5-36.7 11.2-51.3-5.9-115.6-47.2-163.4-50.5-58.4-132.3-85.9-188.9-62.7-47.8 19.6-75.5 69.3-125 85.6-34.7 11.4-76.3 4.9-113 11.7-39.7 7.2-73.9 31.5-94 66.8-6.6 11.5-11.6 23.8-14.9 36.8-13.9 54 0 121.5 36.6 177.4 29.7 45.4 72.4 82.2 101.3 128.1 23.2 37 36.1 77.9 56.4 116.3 20.4 38.5 52.6 77.4 91.3 88 36.3 10 68-8.4 86.7-34.6 18.7-26.1 27.6-59.5 40.7-90.1 12.9-30.7 32.2-59.6 63.8-69.7z"/><path id="Path_50_1_" class="st0" d="M1519.7 1125.7c13.2-4.2 14.7-11.5 19.1-25 4.4-13.6 3.8-29.5 3.1-45.1-1-23.3-5.4-40.4-4.2-62.1l.3-4.2c4-47.1 46.5-70.1 69-106.8 6.5-10.8 11.2-22.7 13.8-35.2 10.7-49.2-5.8-110.8-45.5-156.6-48.3-55.7-126.3-82-180.3-59.8-45.6 18.7-72.1 66-119.4 81.6-33.1 10.9-72.8 4.8-107.7 11.3-38.8 7.2-70.6 30.8-89.6 64.1-6.2 11-11 22.8-14.2 35.2-13.2 51.7.1 116.1 35 169.6 28.4 43.4 69.1 78.6 96.6 122.5 22.2 35.4 34.5 74.5 53.9 111.1 19.5 36.8 50.2 74.1 87.2 84.3 34.7 9.6 64.9-7.9 82.8-32.8 17.9-24.8 26.4-56.6 39-85.7 12.5-29.1 31-56.7 61.1-66.4z"/><path id="Path_51_1_" class="st0" d="M1510.4 1118.8c12.6-4.1 14-11.1 18.2-24 4.2-13 3.6-28.2 2.9-43.2-1-22.2-5.2-38.6-4.1-59.4.1-1.3.2-2.7.3-4 3.7-45.1 44.2-67.2 65.5-102.4 6.2-10.3 10.6-21.7 13.1-33.7 10.1-47.1-5.6-105.9-43.7-149.7-46.1-53-120.2-78-171.7-56.9-43.5 17.8-68.7 62.8-113.7 77.6-31.5 10.4-69.2 4.6-102.4 10.9-36.9 7-67.1 29.6-85.1 61.4-5.9 10.5-10.4 21.8-13.4 33.6-12.5 49.3.2 110.7 33.4 161.8 27 41.4 65.7 75.1 91.9 117 21.1 33.8 32.9 71.1 51.3 106 18.5 35.2 47.8 70.7 83.1 80.6 33 9.2 61.8-7.4 78.8-31 17.1-23.5 25.3-53.8 37.3-81.4 12-27.7 29.6-53.9 58.3-63.2z"/><path id="Path_52_1_" class="st0" d="M1501 1111.9c11.9-3.9 13.4-10.6 17.3-22.9 4-12.5 3.4-27 2.8-41.2-1-21.2-5-36.9-3.9-56.7.1-1.3.1-2.6.3-3.9 3.5-43.1 41.8-64.3 62-98 5.8-9.9 10-20.8 12.4-32.2 9.5-45-5.5-101.1-41.9-142.8-43.8-50.2-114.2-74-163.1-54-41.3 16.8-65.3 59.5-108 73.7-29.9 9.9-65.7 4.4-97.2 10.5-35 6.8-63.6 28.4-80.6 58.6-5.6 10-9.9 20.7-12.7 32-11.8 46.9.3 105.4 31.8 153.9 25.6 39.4 62.4 71.5 87.2 111.4 20 32.2 31.2 67.6 48.8 100.9 17.6 33.5 45.4 67.4 79 76.9 31.3 8.8 58.7-6.8 74.9-29.1 16.3-22.3 24.1-50.9 35.6-77.1 11.4-26.2 28.1-51.1 55.3-60z"/><path id="Path_53_1_" class="st0" d="M1491.7 1105c11.3-3.7 12.7-10.2 16.5-21.9 3.8-11.9 3.3-25.7 2.6-39.2-.9-20.2-4.7-35.1-3.8-54 .1-1.2.1-2.4.2-3.7 3.2-41 39.5-61.4 58.5-93.6 5.5-9.5 9.5-19.8 11.7-30.7 9-42.9-5.4-96.2-40.2-135.9-41.6-47.5-108.1-70-154.5-51.1-39.1 15.9-61.9 56.3-102.3 69.7-28.3 9.4-62.2 4.3-91.9 10.1-33.1 6.5-60.1 27.2-76.1 55.9-5.3 9.5-9.3 19.7-12 30.4-11.1 44.6.4 100 30.3 146.1 24.3 37.5 59 67.9 82.6 105.8 19 30.5 29.6 64.2 46.2 95.8 16.7 31.8 43 64.1 74.9 73.2 29.7 8.5 55.6-6.3 71-27.3 15.5-21 23-48 33.9-72.8 10.8-24.8 26.7-48.3 52.4-56.8z"/><path id="Path_54_1_" class="st0" d="M1482.3 1098.1c10.7-3.6 12-9.7 15.6-20.8 3.6-11.3 3.1-24.4 2.5-37.3-.9-19.1-4.5-33.4-3.6-51.3.1-1.2.1-2.3.2-3.5 3-39 37.1-58.6 55.1-89.2 5.2-9 8.9-18.9 11-29.2 8.4-40.9-5.3-91.4-38.4-129-39.4-44.7-102.1-66-145.9-48.2-36.9 15-58.5 53-96.7 65.8-26.7 8.9-58.6 4.1-86.6 9.8-31.2 6.3-56.6 25.9-71.6 53.2-5 9-8.7 18.7-11.2 28.8-10.4 42.2.5 94.7 28.7 138.3 22.9 35.5 55.7 64.4 77.9 100.2 17.9 28.9 28 60.8 43.6 90.7 15.8 30.2 40.6 60.8 70.7 69.5 28 8.1 52.5-5.8 67.1-25.5 14.6-19.7 21.8-45.1 32.2-68.4 10.1-23.7 25.2-45.8 49.4-53.9z"/><path id="Path_55_1_" class="st0" d="M1473 1091.2c10.1-3.4 11.3-9.3 14.7-19.8 3.4-10.7 2.9-23.1 2.3-35.3-.9-18.1-4.3-31.6-3.5-48.6 0-1.1.1-2.2.2-3.3 2.8-37 34.8-55.7 51.6-84.8 4.9-8.6 8.3-17.9 10.3-27.8 7.9-38.8-5.2-86.5-36.6-122.1-37.1-42-96.1-62-137.3-45.3-34.8 14.1-55.2 49.8-91 61.8-25.1 8.4-55.1 4-81.4 9.4-29.4 6-53.1 24.7-67.2 50.5-4.6 8.5-8.2 17.7-10.5 27.2-9.7 39.9.6 89.3 27.1 130.5 21.5 33.5 52.3 60.8 73.2 94.6 16.8 27.3 26.3 57.3 41.1 85.5 14.9 28.5 38.3 57.5 66.6 65.8 26.3 7.7 49.4-5.2 63.2-23.7 13.8-18.4 20.6-42.2 30.5-64.1 9.7-22 23.9-42.8 46.7-50.5z"/><path id="Path_56_1_" class="st0" d="M1463.6 1084.2c9.5-3.3 10.7-8.9 13.8-18.7 3.2-10.1 2.7-21.8 2.2-33.4-.8-17.1-4.1-29.9-3.4-45.9 0-1 .1-2.1.2-3.1 2.5-35 32.4-52.8 48.1-80.4 4.5-8.1 7.8-17 9.6-26.3 7.3-36.7-5-81.7-34.9-115.2-34.9-39.2-90-58-128.7-42.4-32.6 13.1-51.8 46.5-85.3 57.8-23.5 7.9-51.6 3.8-76.1 9-27.5 5.8-49.6 23.5-62.7 47.8-4.3 8-7.6 16.6-9.7 25.6-9 37.5.7 84 25.5 122.7 20.1 31.5 49 57.2 68.6 89 15.8 25.7 24.7 53.9 38.5 80.4 13.9 26.8 35.9 54.1 62.5 62.1 24.7 7.3 46.3-4.7 59.2-21.9 13-17.1 19.5-39.3 28.8-59.8 9.2-20.5 22.5-39.9 43.8-47.3z"/><path id="Path_57_1_" class="st0" d="M1454.3 1077.3c8.9-3.1 10-8.4 12.9-17.7 3-9.5 2.5-20.6 2-31.4-.8-16.1-3.8-28.2-3.2-43.2 0-1 .1-2 .2-3 2.3-32.9 30-50 44.6-76 4.2-7.7 7.2-16 8.9-24.8 6.8-34.6-4.9-76.8-33.1-108.3-32.6-36.5-84-54-120.1-39.5-30.4 12.2-48.4 43.3-79.6 53.9-21.9 7.4-48 3.7-70.8 8.6-25.6 5.5-46.1 22.3-58.2 45-4 7.5-7 15.6-9 24-8.3 35.2.8 78.6 23.9 114.9 18.8 29.5 45.6 53.6 63.9 83.4 14.7 24 23 50.5 36 75.3 13 25.2 33.5 50.8 58.4 58.3 23 6.9 43.2-4.2 55.3-20.1 12.2-15.9 18.3-36.4 27-55.5 8.5-18.8 21-36.9 40.9-43.9z"/><path id="Path_58_1_" class="st0" d="M1444.9 1070.4c8.3-2.9 9.3-8 12.1-16.6 2.8-8.9 2.4-19.3 1.9-29.4-.7-15-3.6-26.4-3.1-40.5 0-.9.1-1.8.1-2.8 2-30.9 27.7-47.1 41.1-71.6 3.9-7.2 6.7-15.1 8.2-23.3 6.2-32.5-4.8-72-31.3-101.5-30.4-33.7-78-50-111.5-36.6-28.3 11.3-45 40-74 49.9-20.3 6.9-44.5 3.5-65.6 8.2-23.7 5.3-42.6 21-53.7 42.3-3.7 7-6.5 14.6-8.3 22.4-7.6 32.8.9 73.2 22.3 107.1 17.4 27.5 42.3 50.1 59.2 77.9 13.7 22.4 21.4 47 33.4 70.2 12.1 23.5 31.1 47.5 54.3 54.6 21.3 6.6 40-3.7 51.4-18.2 11.4-14.6 17.2-33.6 25.3-51.2 8.2-17.6 19.9-34.3 38.2-40.9z"/><path id="Path_59_1_" class="st0" d="M1435.6 1063.5c7.7-2.8 8.7-7.5 11.2-15.6 2.6-8.3 2.2-18 1.7-27.5-.7-14-3.4-24.7-2.9-37.8 0-.9.1-1.7.1-2.6 1.8-28.9 25.3-44.2 37.6-67.2 3.6-6.8 6.1-14.1 7.5-21.8 5.6-30.4-4.7-67.1-29.6-94.6-28.1-31-71.9-46-102.9-33.7-26.1 10.4-41.6 36.8-68.3 46-18.7 6.4-41 3.4-60.3 7.9-21.8 5-39.1 19.8-49.2 39.6-3.4 6.6-5.9 13.5-7.5 20.8-6.9 30.4 1 67.9 20.7 99.3 16 25.5 38.9 46.5 54.5 72.3 12.6 20.8 19.8 43.6 30.9 65.1 11.2 21.9 28.7 44.2 50.2 50.9 19.7 6.2 36.9-3.1 47.5-16.4 10.5-13.3 16-30.7 23.6-46.8 7.5-16.4 18.3-31.7 35.2-37.9z"/><path id="Path_60_1_" class="st0" d="M1426.2 1056.6c7-2.6 8-7.1 10.3-14.6 2.4-7.7 2-16.7 1.5-25.5-.7-13-3.2-22.9-2.8-35.1 0-.8.1-1.6.1-2.4 1.5-26.8 23-41.3 34.2-62.8 3.3-6.3 5.5-13.2 6.8-20.3 5.1-28.3-4.5-62.3-27.8-87.7-25.9-28.2-65.9-42-94.3-30.8-23.9 9.4-38.2 33.5-62.6 42-17.1 5.9-37.4 3.2-55 7.5-20 4.8-35.6 18.6-44.8 36.9-3 6.1-5.3 12.5-6.8 19.2-6.2 28.1 1 62.5 19.1 91.5 14.7 23.5 35.6 42.9 49.9 66.7 11.5 19.2 18.2 40.1 28.3 59.9 10.3 20.2 26.3 40.8 46.1 47.2 18 5.8 33.8-2.6 43.5-14.6 9.7-12 14.9-27.8 21.9-42.5 7.1-14.8 17-28.8 32.4-34.6z"/><path id="Path_61_1_" class="st0" d="M1416.8 1049.7c6.4-2.5 7.3-6.6 9.4-13.5 2.2-7.2 1.8-15.4 1.4-23.6-.6-11.9-2.9-21.2-2.6-32.4 0-.7 0-1.5.1-2.2 1.3-24.8 20.6-38.5 30.7-58.4 2.9-5.9 5-12.2 6.1-18.8 4.5-26.2-4.4-57.4-26-80.8-23.6-25.5-59.9-38-85.7-27.9-21.8 8.5-34.8 30.3-56.9 38-15.5 5.4-33.9 3.1-49.8 7.1-18.1 4.6-32.1 17.4-40.3 34.2-2.7 5.6-4.7 11.5-6 17.6-5.4 25.7 1.1 57.2 17.5 83.7 13.3 21.5 32.2 39.4 45.2 61.1 10.5 17.5 16.5 36.7 25.7 54.8 9.4 18.5 23.9 37.5 42 43.5 16.3 5.4 30.7-2.1 39.6-12.8 8.9-10.8 13.8-24.9 20.2-38.2 6.5-13.3 15.5-26 29.4-31.4z"/><path id="Path_62_1_" class="st0" d="M1407.5 1042.8c5.8-2.3 6.7-6.2 8.5-12.5 2-6.6 1.7-14.1 1.2-21.6-.6-10.9-2.7-19.4-2.5-29.7 0-.7 0-1.4.1-2 1.1-22.8 18.3-35.6 27.2-54 2.6-5.4 4.4-11.3 5.4-17.3 4-24.1-4.3-52.6-24.3-73.9-21.4-22.8-53.8-34.1-77.1-25.1-19.6 7.6-31.4 27-51.3 34.1-13.9 4.9-30.4 2.9-44.5 6.7-16.2 4.3-28.6 16.1-35.8 31.5-2.4 5.1-4.2 10.5-5.3 16-4.7 23.4 1.2 51.8 15.9 75.8 11.9 19.5 28.9 35.8 40.5 55.5 9.4 15.9 14.9 33.3 23.2 49.7 8.5 16.8 21.5 34.2 37.9 39.8 14.6 5 27.6-1.5 35.7-11 8.1-9.5 12.6-22 18.5-33.9 6-11.8 14.2-23.1 26.7-28.1z"/><path id="Path_63_1_" class="st0" d="M1398.1 1035.9c5.2-2.2 6-5.7 7.6-11.4 1.8-6 1.5-12.9 1.1-19.7-.6-9.9-2.5-17.7-2.3-27v-1.9c.8-20.7 15.9-32.7 23.7-49.6 2.3-5 3.9-10.3 4.7-15.8 3.4-22.1-4.1-47.7-22.5-67-19.1-20-47.8-30.1-68.5-22.2-17.4 6.7-28 23.8-45.6 30.1-12.3 4.4-26.9 2.8-39.2 6.3-14.3 4.1-25.1 14.9-31.3 28.7-2.1 4.6-3.6 9.4-4.6 14.4-4 21 1.3 46.4 14.3 68 10.6 17.5 25.5 32.2 35.9 49.9 8.3 14.3 13.3 29.8 20.6 44.6 7.6 15.2 19.2 30.9 33.8 36.1 13 4.6 24.5-1 31.8-9.2 7.3-8.2 11.4-19.1 16.8-29.5 5.4-10.3 12.8-20.2 23.7-24.8z"/><path id="Path_64_1_" class="st0" d="M1388.8 1029c4.6-2 5.3-5.3 6.8-10.4 1.6-5.4 1.3-11.6.9-17.7-.5-8.9-2.2-15.9-2.2-24.3v-1.7c.6-18.7 13.6-29.8 20.2-45.2 2-4.5 3.3-9.4 4-14.3 2.9-20-4-42.9-20.7-60.1C1381 838 1356 829.2 1338 836c-15.3 5.7-24.6 20.5-39.9 26.1-10.7 3.9-23.3 2.7-34 6-12.5 3.8-21.6 13.7-26.8 26-1.7 4.1-3 8.4-3.8 12.8-3.3 18.6 1.4 41.1 12.7 60.2 9.2 15.6 22.2 28.6 31.2 44.4 7.3 12.7 11.6 26.4 18.1 39.5 6.7 13.5 16.8 27.5 29.7 32.4 11.3 4.3 21.4-.5 27.8-7.4 6.5-6.9 10.3-16.2 15.1-25.2 4.7-9 11.2-17.7 20.7-21.8z"/><path id="Path_65_1_" class="st0" d="M1379.4 1022.1c4-1.9 4.6-4.9 5.9-9.3 1.3-4.8 1.1-10.3.8-15.7-.5-7.8-2-14.2-2-21.6V974c.3-16.7 11.2-27 16.8-40.8 1.6-4.1 2.7-8.4 3.3-12.8 2.3-17.9-3.8-38-19-53.2-14.5-14.6-35.7-22.1-51.2-16.4-13.1 4.8-21.3 17.3-34.2 22.2-9.1 3.4-19.8 2.5-28.7 5.6-10.6 3.6-18.1 12.5-22.3 23.3-1.4 3.6-2.5 7.4-3.1 11.2-2.6 16.3 1.5 35.7 11.2 52.4 7.8 13.6 18.8 25.1 26.5 38.8 6.2 11 10 23 15.5 34.3 5.7 11.8 14.4 24.2 25.6 28.7 9.6 3.9 18.3.1 23.9-5.5 5.7-5.6 9.1-13.3 13.4-20.9 3.9-7.8 9.6-15.1 17.6-18.8z"/><path id="Path_66_1_" class="st0" d="M1370.1 1015.1c3.4-1.7 4-4.4 5-8.3 1.1-4.2.9-9 .6-13.8-.5-6.8-1.8-12.4-1.9-18.9v-1.3c.1-14.6 8.8-24.1 13.3-36.4 1.3-3.6 2.2-7.5 2.6-11.4 1.8-15.8-3.7-33.2-17.2-46.4-12.2-11.9-29.7-18.1-42.6-13.5-10.9 3.9-17.9 14-28.6 18.2-7.5 2.9-16.3 2.4-23.4 5.2-8.7 3.4-14.5 11.2-17.9 20.6-1.1 3.1-1.9 6.3-2.3 9.6-1.9 13.9 1.6 30.4 9.6 44.6 6.5 11.6 15.5 21.5 21.8 33.2 5.1 9.4 8.4 19.5 12.9 29.2 4.8 10.2 12 20.9 21.4 25 8 3.5 15.2.6 20-3.7 4.9-4.4 8-10.4 11.7-16.6 3.6-5.9 8.4-11.9 15-15.3z"/><path id="Path_67_1_" class="st0" d="M1360.7 1008.2c2.7-1.6 3.3-4 4.1-7.2.9-3.6.8-7.7.5-11.8-.4-5.8-1.6-10.7-1.7-16.2v-1.1c-.2-12.6 6.5-21.2 9.8-32 1-3.2 1.6-6.5 1.9-9.9 1.2-13.7-3.5-28.3-15.5-39.5-9.9-9.2-23.7-14.1-34-10.6-8.8 3-14.5 10.8-22.9 14.3-5.9 2.4-12.7 2.3-18.2 4.8-6.8 3.2-11 10-13.4 17.9-.8 2.6-1.3 5.3-1.6 8.1-1.2 11.6 1.7 25 8 36.8 5.1 9.6 12.1 17.9 17.2 27.6 4.1 7.8 6.7 16.1 10.4 24.1 3.9 8.5 9.6 17.5 17.3 21.3 6.3 3.1 12.1 1.1 16.1-1.9 4-3.1 6.8-7.5 10-12.3 3-4.8 6.9-9.4 12-12.4z"/><path id="Path_68_1_" class="st0" d="M1351.4 1001.3c2.1-1.4 2.6-3.5 3.2-6.2.7-3 .6-6.5.3-9.9-.4-4.7-1.3-9-1.6-13.5v-.9c-.4-10.6 4.1-18.3 6.3-27.6.6-2.7 1-5.5 1.2-8.4.7-11.6-3.3-23.5-13.7-32.6-7.5-6.6-17.6-10.1-25.4-7.7-6.6 2-11.1 7.5-17.2 10.3-4.3 2-9.2 2.2-12.9 4.4-5 3-7.5 8.8-8.9 15.1-.5 2.1-.7 4.3-.9 6.5-.5 9.2 1.8 19.6 6.4 29 3.7 7.6 8.8 14.4 12.5 22 3 6.2 5.1 12.7 7.8 19 3 6.9 7.2 14.1 13.2 17.6 4.6 2.6 9 1.7 12.2-.1 3.2-1.8 5.7-4.7 8.2-7.9 2.6-3.3 5.6-6.6 9.3-9.1z"/></g></g></svg>