<svg version="1.1" id="Layer_1" xmlns="http://www.w3.org/2000/svg" x="0" y="0" viewBox="0 0 2670 1780" xml:space="preserve"><style>.st0{fill:none;stroke:#fff;stroke-width:.75;stroke-miterlimit:10}</style><path class="st0" d="M541.5 254.6c72.9 1.9 137.6-34.4 191.1-76.5 53.5-42.2 100.8-91.7 161.9-124.4 61.1-32.7 142-45.7 207.3-11.1 68.9 36.5 100.2 114.4 107.5 185.6 7.3 71.2-2.9 142.6 11.6 213.4 18 87.7 72.8 168.3 93.2 255.8 25.1 107.7-6.6 221.6-83.2 298.7-76.6 77.1-196.3 115.6-313.7 100.9-80.6-10.1-159.1-43.4-239.7-44.3-115-1.2-215.1 63.8-329.3 69.7-135.4 7-277.5-80.9-326.2-201.8-48.7-120.9.6-263 113.3-326.4 81.2-45.7 192.3-56.5 244-130.1 26.3-37.4 32.2-68.4 52.5-109.2 12.7-25.5 25.9-51.6 47.4-71.1 21.6-19.4 31-30 62.3-29.2z"/><path class="st0" d="M550.3 265.6c-30.4-.8-39.6 9.5-60.5 28.4s-33.7 44.2-46 69c-18.6 37.2-24.7 66-46.6 99.6-1.4 2.1-2.8 4.3-4.4 6.4-50.2 71.4-157.9 82.1-236.5 126.5-22.6 12.7-42.5 28.7-59.5 47.1-65.4 70.8-87.7 176.8-50.1 269.9 47.3 117.1 184.9 202.2 316 195.4 110.7-5.7 207.6-68.6 319-67.5 78 .8 154.1 33 232.1 42.7 86 10.7 173.1-8.1 242.6-50.2 22.5-13.6 43.1-29.7 61.3-48 74.2-74.8 104.9-185.2 80.6-289.6-19.7-84.8-72.7-162.9-90.1-248-14-68.6-4.1-137.8-11.2-206.8-7.1-69.1-37.3-144.6-104.1-180.1-63.2-33.5-141.6-21-200.7 10.6-59.2 31.6-105 79.5-156.8 120.3-51.8 41-114.4 76.2-185.1 74.3z"/><path class="st0" d="M559.1 276.6c-29.4-.7-38.4 9.3-58.6 27.6-20.3 18.4-32.6 42.9-44.6 66.9-18 36-23.9 64.1-45.1 96.5-1.3 2.1-2.8 4.1-4.2 6.2-48.6 69.3-152.8 79.9-229 123-21.8 12.4-41.2 27.9-57.6 45.7-63.4 68.6-85 171.4-48.3 261.6 45.8 113.3 178.9 195.6 305.9 189.1 107.1-5.5 200.9-66.3 308.7-65.2 75.5.7 149.1 31.9 224.6 41.2 83.2 10.2 167.5-8.1 234.7-48.8 21.7-13.2 41.7-28.8 59.3-46.5 71.7-72.5 101.5-179.4 78.1-280.5-19-82.1-70.2-157.8-87-240.1-13.5-66.4-3.9-133.4-10.7-200.3-6.8-66.9-36-140.1-100.6-174.5-61.1-32.5-136.9-20.4-194.2 10.1-57.3 30.5-101.7 76.7-151.8 116.2-50.6 39.6-111.3 73.6-179.6 71.8z"/><path class="st0" d="M567.9 287.6c-28.5-.6-37.1 9-56.7 26.8S479.6 356 468 379.2c-17.4 34.9-23.2 62.1-43.7 93.5-1.3 2-2.7 4-4.1 6.1-47 67.1-147.8 77.6-221.5 119.5-21.1 12-39.8 27.1-55.8 44.4-61.3 66.5-82.3 166-46.6 253.4 44.3 109.4 173 189 295.7 182.7 103.5-5.3 194.2-64 298.3-63 73 .7 144.1 30.7 217 39.7 80.5 9.8 161.9-8 226.8-47.5 21-12.8 40.3-27.9 57.3-45 69.3-70.2 98.1-173.6 75.5-271.3-18.3-79.4-67.8-152.6-84-232.3-13.1-64.2-3.7-129.1-10.3-193.7-6.6-64.7-34.8-135.5-97.2-168.9-59-31.5-132.3-19.8-187.6 9.5-55.4 29.3-98.3 74-146.8 112.1-48.4 38-107.1 70.9-173.1 69.2z"/><path class="st0" d="M576.6 298.7c-27.5-.6-35.9 8.8-54.9 26s-30.6 40.2-41.8 62.8c-16.8 33.8-22.4 60.1-42.2 90.5-1.3 1.9-2.6 3.9-4 5.9-45.4 65-142.8 75.3-213.9 116-20.4 11.7-38.5 26.2-53.9 43-59.3 64.4-79.3 160.7-44.8 245.2 43.1 105.6 167 182.4 285.5 176.4 99.9-5.1 187.5-61.7 288-60.8 70.4.6 139.1 29.6 209.5 38.2 77.7 9.3 156.3-8 218.9-46.2 20.3-12.4 38.9-27 55.2-43.5 66.9-67.8 94.7-167.7 73-262.2-17.7-76.7-65.3-147.5-80.9-224.5-12.6-62.1-3.6-124.7-9.9-187.2-6.3-62.6-33.5-131-93.7-163.4-57-30.4-127.6-19.3-181 9-53.4 28.2-94.9 71.3-141.8 108-46.8 36.6-103.5 68.3-167.3 66.8z"/><path class="st0" d="M585.4 309.7c-26.6-.5-34.7 8.6-53 25.2-18.3 16.7-29.5 38.9-40.4 60.7-16.2 32.6-21.7 58.1-40.8 87.5-1.2 1.9-2.5 3.8-3.8 5.7-43.8 62.9-137.7 73-206.4 112.4-19.7 11.3-37.1 25.4-52 41.6-57.2 62.3-76.5 155.3-43.1 237 41.6 101.7 161.1 175.8 275.3 170 96.3-4.8 180.8-59.4 277.7-58.5 67.9.6 134.1 28.4 201.9 36.6 74.9 8.9 150.7-7.9 211-44.9 19.5-12 37.5-26 53.2-42.1 64.5-65.5 91.3-161.9 70.4-253.1-17-74-62.8-142.3-77.8-216.6-12.1-59.9-3.4-120.4-9.5-180.7-6.1-60.4-32.2-126.5-90.3-157.8-54.9-29.4-123-18.7-174.5 8.5-51.5 27.1-91.6 68.5-136.8 103.9-45 35.5-99.6 66-161.1 64.6z"/><path class="st0" d="M594.2 320.7c-25.6-.5-33.5 8.3-51.1 24.4-17.7 16.1-28.5 37.6-39 58.6-15.7 31.5-20.9 56.1-39.3 84.5-1.2 1.8-2.4 3.6-3.7 5.5-42.3 60.7-132.7 70.8-198.9 108.9-19 10.9-35.8 24.6-50.1 40.3-55.2 60.3-73.7 150-41.3 228.9 40.2 97.9 155.1 169.2 265.1 163.7 92.8-4.6 174.1-57.1 267.4-56.3 65.4.5 129.1 27.4 194.4 35.1 72.2 8.5 145-7.9 203.1-43.6 18.8-11.6 36.1-25.1 51.2-40.6 62.1-63.2 87.9-156.1 67.8-244-16.3-71.4-60.3-137.2-74.7-208.8-11.6-57.7-3.2-116-9-174.1-5.8-58.3-30.9-122.1-86.9-152.2-52.8-28.4-118.3-18.1-167.9 7.9-49.6 26-88.2 65.8-131.8 99.8-43.5 33.9-96.1 63.2-155.3 62z"/><path class="st0" d="M603 331.7c-24.7-.5-32.3 8.1-49.3 23.5-17 15.5-27.5 36.2-37.5 56.5-15.1 30.4-20.2 54.1-37.9 81.5-1.1 1.7-2.3 3.5-3.5 5.3C434 557.1 347 567 283.4 603.9c-18.3 10.6-34.4 23.8-48.2 38.9-53.2 58.2-71 144.6-39.6 220.7 38.8 94.1 149.2 162.6 254.9 157.4 89.2-4.4 167.4-54.8 257.1-54.1 62.8.5 124.1 26.2 186.8 33.6 69.4 8.1 139.4-7.8 195.2-42.2 18.1-11.1 34.7-24.2 49.2-39.1 59.6-60.9 84.5-150.3 65.3-234.8-15.6-68.7-57.9-132.1-71.6-201-11.1-55.6-3.1-111.6-8.6-167.6-5.5-56.1-29.6-117.5-83.4-146.6-50.7-27.4-113.7-17.6-161.3 7.4-47.7 24.9-84.8 63.1-126.7 95.7-42 32.5-92.6 60.6-149.5 59.5z"/><path class="st0" d="M611.7 342.7c-23.7-.4-31.1 7.9-47.4 22.7-16.4 15-26.4 34.9-36.1 54.4-14.5 29.2-19.4 52.1-36.4 78.5-1.1 1.7-2.2 3.4-3.4 5.1-39.1 56.5-122.6 66.2-183.8 101.9-17.5 10.2-33.1 22.9-46.3 37.5-51.1 56.1-68.1 139.3-37.8 212.5 37.4 90.2 143.2 156 244.7 151 85.6-4.2 160.7-52.5 246.8-51.8 60.3.4 119.1 25.1 179.3 32 66.6 7.7 133.8-7.8 187.3-40.9 17.3-10.7 33.2-23.3 47.2-37.7 57.2-58.6 81.1-144.5 62.7-225.7-14.9-66-55.4-126.9-68.6-193.1-10.6-53.4-2.9-107.3-8.2-161-5.3-53.9-28.3-113-80-141.1-48.6-26.4-109-17-154.8 6.9-45.8 23.8-81.5 60.4-121.7 91.6-40.2 31.2-88.8 58.1-143.5 57.2z"/><path class="st0" d="M620.5 353.7c-22.8-.4-29.9 7.6-45.6 21.9-15.7 14.4-25.4 33.5-34.7 52.3-13.9 28.1-18.7 50.1-35 75.5-1 1.6-2.1 3.3-3.3 4.9-37.5 54.3-117.6 64-176.3 98.3-16.8 9.9-31.7 22.1-44.5 36.1-49 54-65.3 133.9-36 204.3 35.9 86.4 137.3 149.4 234.5 144.7 82-4 154-50.2 236.5-49.6 57.8.4 114.1 24 171.7 30.5 63.9 7.3 128.2-7.7 179.5-39.6 16.6-10.3 31.8-22.4 45.2-36.2 54.8-56.2 77.7-138.6 60.1-216.6-14.2-63.3-52.9-121.8-65.5-185.3-10.1-51.2-2.7-102.9-7.8-154.5-5-51.8-27-108.5-76.5-135.5-46.5-25.3-104.4-16.5-148.2 6.3-43.9 22.7-78.1 57.6-116.7 87.5-38.4 30.1-85 55.8-137.4 55z"/><path class="st0" d="M629.3 364.7c-21.8-.3-28.7 7.4-43.7 21.1-15.1 13.8-24.4 32.2-33.3 50.3-13.4 26.9-17.9 48.1-33.6 72.5-1 1.6-2 3.1-3.1 4.7-35.9 52.2-112.6 61.7-168.7 94.8-16.1 9.5-30.4 21.3-42.6 34.8-47 51.9-62.5 128.6-34.3 196.1 34.5 82.6 131.3 142.8 224.3 138.3 78.4-3.8 147.3-47.9 226.2-47.4 55.2.4 109.1 22.8 164.2 29 61.1 6.8 122.6-7.7 171.6-38.3 15.9-9.9 30.4-21.5 43.2-34.7 52.4-53.9 74.3-132.8 57.6-207.4-13.6-60.6-50.4-116.6-62.4-177.5-9.7-49.1-2.5-98.6-7.4-147.9-4.8-49.6-25.8-104-73.1-129.9-44.4-24.3-99.8-15.9-141.7 5.8-42 21.6-74.7 54.9-111.7 83.4-36.9 28.5-81.4 53-131.5 52.3z"/><path class="st0" d="M638.1 375.7c-20.9-.3-27.5 7.2-41.8 20.3-14.5 13.3-23.3 30.9-31.9 48.2-12.8 25.8-17.2 46.1-32.1 69.5-1 1.5-1.9 3-3 4.5-34.4 50.1-107.5 59.4-161.2 91.3-15.4 9.1-29 20.5-40.7 33.4-44.9 49.9-59.7 123.2-32.5 188 33.1 78.7 125.4 136.2 214.1 132 74.9-3.6 140.6-45.6 215.8-45.1 52.7.3 104.1 21.7 156.6 27.5 58.3 6.4 117-7.6 163.7-37 15.1-9.5 29-20.6 41.2-33.2 49.9-51.6 70.8-127 55-198.3-12.9-57.9-48-111.5-59.3-169.6-9.2-46.9-2.4-94.2-6.9-141.4-4.5-47.5-24.5-99.5-69.6-124.4-42.3-23.3-95.1-15.3-135.1 5.3-40.1 20.5-71.4 52.2-106.7 79.3-35.3 26.9-77.8 50.3-125.6 49.7z"/><path class="st0" d="M646.8 386.7c-19.9-.2-26.3 6.9-40 19.5-13.8 12.7-22.3 29.5-30.5 46.1-12.2 24.7-16.4 44.1-30.7 66.5-.9 1.4-1.9 2.9-2.9 4.3-32.8 47.9-102.5 57.1-153.7 87.8-14.7 8.8-27.7 19.6-38.8 32-42.9 47.8-56.9 117.9-30.8 179.8 31.7 74.9 119.4 129.6 203.9 125.6 71.3-3.4 133.9-43.3 205.5-42.9 50.2.3 99.1 20.5 149.1 25.9 55.6 6 111.3-7.6 155.8-35.7 14.4-9.1 27.6-19.7 39.2-31.8 47.5-49.3 67.4-121.2 52.4-189.2-12.2-55.3-45.5-106.4-56.3-161.8-8.7-44.7-2.2-89.8-6.5-134.9-4.3-45.3-23.2-95-66.2-118.8-40.2-22.3-90.5-14.8-128.5 4.7-38.1 19.4-68 49.4-101.6 75.2-33.3 26-73.8 48.2-119.4 47.7z"/><path class="st0" d="M655.6 397.7c-19-.1-25.1 6.7-38.1 18.6-13.2 12.1-21.3 28.2-29.1 44-11.6 23.5-15.6 42.1-29.2 63.5-.9 1.4-1.8 2.7-2.7 4.1-31.2 45.8-97.5 54.9-146.2 84.3-14 8.4-26.3 18.8-36.9 30.7-40.8 45.7-54.1 112.5-29 171.6 30.2 71.1 113.5 123 193.7 119.3 67.7-3.2 127.2-41 195.2-40.7 47.6.2 94.1 19.4 141.5 24.4 52.8 5.5 105.7-7.6 147.9-34.3 13.7-8.7 26.2-18.8 37.2-30.3 45.1-47 64-115.3 49.9-180.1-11.5-52.6-43-101.2-53.2-154-8.2-42.6-2-85.5-6.1-128.3-4-43.1-21.9-90.5-62.7-113.2-38.1-21.2-85.8-14.2-122 4.2-36.2 18.3-64.6 46.7-96.6 71.1-31.8 24.5-70.4 45.5-113.6 45.1z"/><path class="st0" d="M664.4 408.7c-18-.1-23.9 6.4-36.2 17.8-12.5 11.6-20.2 26.9-27.7 41.9-11 22.4-14.9 40.2-27.8 60.5-.8 1.3-1.7 2.6-2.6 3.9-29.6 43.7-92.4 52.6-138.6 80.7-13.2 8.1-25 18-35 29.3-38.7 43.6-51.3 107.2-27.3 163.4 28.8 67.2 107.5 116.5 183.5 112.9 64.1-3 120.5-38.7 184.9-38.4 45.1.2 89.1 18.3 134 22.9 50 5.1 100.1-7.5 140-33 12.9-8.3 24.8-17.9 35.2-28.8 42.7-44.6 60.6-109.5 47.3-170.9-10.8-49.9-40.5-96.1-50.1-146.1-7.7-40.4-1.9-81.1-5.7-121.8-3.7-41-20.6-86-59.3-107.7-36.1-20.2-81.2-13.6-115.4 3.6-34.3 17.2-61.2 44-91.6 67-30.2 23.2-66.7 43.1-107.6 42.8z"/><path class="st0" d="M673.2 419.8c-17.1 0-22.7 6.2-34.4 17-11.9 11-19.2 25.5-26.2 39.8-10.5 21.3-14.1 38.2-26.3 57.5-.8 1.2-1.6 2.5-2.4 3.7-28 41.5-87.4 50.3-131.1 77.2-12.5 7.7-23.6 17.2-33.2 27.9-36.8 41.6-48.6 101.9-25.6 155.3 27.4 63.4 101.6 109.9 173.3 106.6 60.5-2.7 113.8-36.4 174.6-36.2 42.6.1 84.1 17.1 126.4 21.3 47.3 4.7 94.5-7.5 132.1-31.7 12.2-7.8 23.4-17 33.2-27.3 40.3-42.3 57.2-103.7 44.8-161.8-10.1-47.2-38.1-90.9-47-138.3-7.2-38.2-1.7-76.8-5.2-115.2-3.5-38.8-19.3-81.5-55.9-102.1-34-19.2-76.5-13.1-108.8 3.1-32.4 16.1-57.9 41.3-86.6 62.9-28.6 21.7-63.1 40.3-101.7 40.3z"/><path class="st0" d="M682 430.8c-16.1 0-21.5 6-32.5 16.2-11.2 10.4-18.2 24.2-24.8 37.8-9.9 20.1-13.4 36.2-24.9 54.5-.7 1.2-1.5 2.4-2.3 3.6-26.5 39.4-82.4 48.1-123.6 73.7-11.8 7.3-22.3 16.3-31.3 26.5-34.6 39.5-45.7 96.5-23.7 147 25.9 59.6 95.6 103.3 163.1 100.3 57-2.5 107.1-34.1 164.3-34 40.1.1 79 16 118.8 19.8 44.5 4.3 88.9-7.4 124.2-30.4 11.4-7.4 21.9-16.1 31.2-25.9 37.8-40 53.8-97.9 42.2-152.7-9.4-44.5-35.6-85.8-43.9-130.5-6.7-36-1.5-72.4-4.8-108.7-3.2-36.7-18-77-52.4-96.5-31.9-18.1-71.9-12.5-102.3 2.6-30.5 15-54.5 38.5-81.6 58.9-26.9 20.2-59.4 37.7-95.7 37.8z"/><path class="st0" d="M690.7 441.8c-15.2.1-20.3 5.7-30.7 15.4-10.6 9.9-17.1 22.9-23.4 35.7-9.3 19-12.6 34.2-23.4 51.5-.7 1.1-1.4 2.2-2.2 3.4-24.9 37.3-77.3 45.8-116 70.2-11.1 7-20.9 15.5-29.4 25.2-32.6 37.4-43 91.1-22 138.9 24.5 55.8 89.7 96.7 153 93.9 53.4-2.6 100.4-32 154-32 37.5 0 74 14.9 111.3 18.3 41.7 3.8 83.3-7.4 116.3-29.1 10.7-7 20.5-15.2 29.2-24.4 35.4-37.7 50.4-92 39.6-143.6-8.8-41.9-33.1-80.6-40.9-122.7-6.3-33.9-1.3-68-4.4-102.1-3-34.5-16.8-72.4-49-90.9-29.8-17.1-67.2-12-95.7 2-28.6 13.9-51.1 35.8-76.5 54.8-25.2 19-55.7 35.3-89.8 35.5z"/><path class="st0" d="M699.5 452.8c-14.2.1-19 5.5-28.8 14.6-9.9 9.3-16.1 21.5-22 33.6-8.7 17.8-11.9 32.2-22 48.4-.6 1-1.3 2.1-2 3.2-23.3 35.1-72.3 43.5-108.5 66.6-10.4 6.6-19.6 14.7-27.5 23.8-30.5 35.3-40.2 85.8-20.2 130.7 23.1 51.9 83.8 90.1 142.8 87.6 49.8-2.1 93.7-29.4 143.7-29.5 35 0 69 13.7 103.7 16.7 39 3.4 77.6-7.3 108.4-27.8 10-6.6 19.1-14.3 27.2-22.9 33-35.4 47-86.2 37.1-134.4-8.1-39.2-30.6-75.5-37.8-114.8-5.8-31.7-1.2-63.7-4-95.6-2.7-32.3-15.5-67.9-45.5-85.4-27.7-16.1-62.6-11.3-89.2 1.5-26.6 12.9-47.8 33.1-71.5 50.7-23.7 17.6-52.1 32.7-83.9 33z"/><path class="st0" d="M708.3 463.8c-13.3.2-17.8 5.3-26.9 13.7-9.3 8.7-15.1 20.2-20.6 31.5-8.2 16.7-11.1 30.2-20.5 45.4-.6 1-1.2 2-1.9 3-21.7 33-67.3 41.2-101 63.1-9.7 6.3-18.3 13.8-25.6 22.4-28.5 33.2-37.4 80.4-18.5 122.5 21.6 48.1 77.8 83.5 132.6 81.2 46.2-1.9 87-27.1 133.3-27.2 32.5-.1 64 12.6 96.2 15.2 36.2 3 72-7.3 100.6-26.4 9.2-6.2 17.7-13.4 25.2-21.5 30.6-33.1 43.6-80.4 34.5-125.3-7.4-36.5-28.2-70.4-34.7-107-5.3-29.5-1-59.3-3.5-89.1-2.5-30.2-14.2-63.4-42.1-79.8-25.6-15.1-57.9-10.8-82.6 1-24.7 11.8-44.4 30.3-66.5 46.6s-48.5 30.3-78 30.7z"/><path class="st0" d="M717.1 474.8c-12.3.2-16.6 5-25.1 12.9-8.7 8.2-14 18.9-19.2 29.4-7.6 15.6-10.4 28.2-19.1 42.4-.6.9-1.1 1.8-1.8 2.8-20.1 30.9-62.2 39-93.4 59.6-8.9 5.9-16.9 13-23.7 21-26.4 31.2-34.6 75.1-16.7 114.3 20.2 44.3 71.9 76.9 122.4 74.9 42.6-1.7 80.3-24.8 123-25 29.9-.1 59 11.4 88.6 13.7 33.5 2.6 66.4-7.2 92.7-25.1 8.5-5.8 16.3-12.5 23.2-20 28.1-30.7 40.2-74.6 31.9-116.2-6.7-33.8-25.7-65.2-31.6-99.2-4.8-27.4-.8-55-3.1-82.5-2.2-28-12.9-58.9-38.6-74.2-23.5-14-53.3-10.2-76 .4-22.8 10.7-41 27.6-61.5 42.5-20.4 15-44.8 27.8-72 28.3z"/><path class="st0" d="M725.8 485.8c-11.4.3-15.4 4.8-23.2 12.1-8 7.6-13 17.5-17.8 27.3-7 14.4-9.6 26.2-17.6 39.4-.5.9-1.1 1.7-1.6 2.6-18.6 28.8-57.2 36.7-85.9 56.1-8.2 5.5-15.6 12.2-21.9 19.7-24.4 29.1-31.8 69.7-15 106.1 18.7 40.4 65.9 70.3 112.2 68.5 39.1-1.5 73.6-22.5 112.7-22.8 27.4-.2 54 10.3 81.1 12.2 30.7 2.1 60.8-7.2 84.8-23.8 7.8-5.4 14.9-11.6 21.2-18.5 25.7-28.4 36.8-68.7 29.4-107.1-6-31.1-23.2-60.1-28.5-91.3-4.3-25.2-.7-50.6-2.7-76-2-25.9-11.6-54.4-35.2-68.7-21.4-13-48.6-9.6-69.5-.1-20.9 9.6-37.7 24.9-56.5 38.4-18.6 13.6-41 25.3-66 25.9z"/><path class="st0" d="M734.6 496.8c-10.4.3-14.2 4.5-21.3 11.3-7.4 7-12 16.2-16.3 25.3-6.4 13.3-8.9 24.2-16.2 36.4l-1.5 2.4c-17 26.6-52.2 34.4-78.4 52.5-7.5 5.2-14.2 11.4-20 18.3-22.3 27-29 64.4-13.2 98 17.2 36.6 60 63.7 102 62.2 35.5-1.3 66.9-20.2 102.4-20.5 24.9-.2 49 9.1 73.5 10.6 27.9 1.7 55.2-7.1 76.9-22.5 7-5 13.5-10.7 19.2-17 23.3-26.1 33.4-62.9 26.8-97.9-5.3-28.4-20.7-54.9-25.5-83.5-3.8-23-.5-46.2-2.3-69.4-1.7-23.7-10.3-49.9-31.8-63.1-19.4-12-44-9.1-62.9-.6-19 8.5-34.3 22.1-51.4 34.3-17 12-37.4 22.5-60 23.2z"/><path class="st0" d="M743.4 507.8c-9.5.4-13 4.3-19.5 10.5-6.7 6.5-11 14.9-14.9 23.2-5.8 12.2-8.1 22.2-14.8 33.4-.4.7-.9 1.5-1.3 2.2-15.4 24.5-47.2 32.2-70.9 49-6.8 4.8-12.9 10.5-18.1 16.9-20.3 24.9-26.2 59-11.4 89.8 15.8 32.8 54 57.1 91.8 55.9 31.9-1.1 60.2-17.9 92.1-18.3 22.3-.3 44 8 66 9.1 25.2 1.3 49.6-7.1 69-21.2 6.3-4.6 12.1-9.8 17.2-15.6 20.9-23.8 30-57.1 24.2-88.8-4.6-25.8-18.2-49.8-22.4-75.7-3.3-20.9-.4-41.9-1.8-62.9-1.5-21.5-9-45.3-28.3-57.5-17.3-10.9-39.3-8.5-56.3-1.2-17.1 7.4-31 19.4-46.4 30.2-15.5 10.8-33.9 20.2-54.2 21z"/><path class="st0" d="M752.2 518.8c-8.6.5-11.8 4.1-17.6 9.7-6.1 5.9-9.9 13.5-13.5 21.1-5.3 11-7.4 20.2-13.3 30.4-.4.7-.8 1.3-1.2 2-13.8 22.4-42.1 29.9-63.3 45.5-6.1 4.5-11.5 9.7-16.2 15.6-18.2 22.8-23.4 53.7-9.7 81.6 14.3 29 48.1 50.5 81.6 49.5 28.3-.9 53.5-15.6 81.8-16.1 19.8-.3 39 6.9 58.4 7.6 22.4.8 43.9-7.1 61.1-19.8 5.6-4.1 10.7-8.9 15.2-14.1 18.5-21.5 26.6-51.3 21.7-79.7-4-23.1-15.8-44.6-19.3-67.8-2.9-18.7-.2-37.5-1.4-56.3-1.2-19.4-7.8-40.8-24.9-51.9-15.2-9.9-34.7-7.9-49.8-1.7-15.2 6.3-27.6 16.6-41.4 26.1-13.8 9.2-30.2 17.4-48.2 18.3z"/><path class="st0" d="M760.9 529.8c-7.6.5-10.6 3.8-15.8 8.8-5.5 5.3-8.9 12.2-12.1 19-4.7 9.9-6.6 18.2-11.9 27.4-.3.6-.7 1.2-1.1 1.8-12.2 20.2-37.1 27.6-55.8 42-5.4 4.1-10.2 8.9-14.3 14.2-16.2 20.8-20.7 48.3-7.9 73.4 12.8 25.1 42.1 43.9 71.4 43.2 24.7-.6 46.8-13.3 71.5-13.8 17.3-.4 34 5.7 50.9 6 19.7.4 38.3-7 53.2-18.5 4.8-3.7 9.2-8 13.2-12.6 16-19.1 23.1-45.4 19.1-70.5-3.3-20.4-13.3-39.5-16.2-60-2.4-16.5 0-33.2-1-49.8-1-17.2-6.5-36.3-21.4-46.4-13.1-8.8-30-7.4-43.2-2.2-13.2 5.2-24.2 13.9-36.4 22-12.1 8-26.4 15-42.2 16z"/><path class="st0" d="M769.7 540.9c-6.7.6-9.4 3.6-13.9 8-4.8 4.8-7.9 10.8-10.7 16.9-4.1 8.7-5.9 16.2-10.4 24.4-.3.5-.6 1.1-.9 1.6-10.6 18.1-32.1 25.3-48.3 38.5-4.6 3.8-8.8 8.1-12.4 12.8-14.1 18.7-17.9 43-6.2 65.2 11.3 21.3 36.2 37.3 61.2 36.8 21.2-.4 40.1-11 61.2-11.6 14.7-.4 29 4.6 43.3 4.5 16.9 0 32.7-7 45.3-17.2 4.1-3.3 7.8-7.1 11.2-11.2 13.6-16.8 19.7-39.6 16.6-61.4-2.6-17.7-10.8-34.4-13.2-52.2-1.9-14.3.1-28.8-.6-43.3-.7-15.1-5.2-31.8-18-40.8-11-7.8-25.4-6.8-36.6-2.8-11.3 4.1-20.9 11.2-31.4 17.9-10.4 6.8-22.7 12.7-36.2 13.9z"/><path class="st0" d="M778.5 551.9c-5.7.6-8.2 3.4-12 7.2-4.2 4.2-6.8 9.5-9.3 14.8-3.5 7.6-5.1 14.3-9 21.4-.3.5-.5 1-.8 1.4-9.1 16-27 23.1-40.7 34.9-3.9 3.4-7.5 7.2-10.6 11.4-12.1 16.6-15.2 37.6-4.4 57 9.7 17.5 30.2 30.8 51 30.5 17.6-.2 33.4-8.7 50.8-9.4 12.2-.5 24.1 3.4 35.8 3 14.2-.5 27.1-6.9 37.4-15.9 3.3-2.9 6.4-6.1 9.2-9.7 11.2-14.5 16.3-33.8 14-52.3-1.9-15-8.3-29.2-10.1-44.3-1.4-12.2.3-24.5-.1-36.7-.5-12.9-3.9-27.2-14.5-35.2-8.9-6.7-20.8-6.3-30.1-3.3-9.4 3-17.5 8.5-26.4 13.8-8.7 5.4-19 10.1-30.2 11.4z"/><path class="st0" d="M787.3 562.9c-4.8.7-7 3.1-10.2 6.4-3.5 3.6-5.8 8.2-7.9 12.8-2.9 6.5-4.4 12.3-7.5 18.4-.2.4-.4.8-.7 1.2-7.5 13.8-22 20.8-33.2 31.4-3.2 3-6.1 6.4-8.7 10.1-10.1 14.5-12.5 32.3-2.7 48.9 8.1 13.7 24.3 24.2 40.8 24.1 14 0 26.7-6.4 40.5-7.1 9.7-.5 19.1 2.2 28.2 1.5 11.4-.9 21.5-6.9 29.5-14.6 2.6-2.5 5-5.2 7.2-8.2 8.8-12.2 12.9-28 11.4-43.2-1.2-12.4-5.9-24.1-7-36.5-.9-10 .5-20.1.3-30.2-.2-10.8-2.6-22.7-11.1-29.7-6.9-5.6-16.1-5.7-23.5-3.8-7.5 1.9-14.1 5.7-21.3 9.7-6.9 3.8-15.2 7.5-24.1 8.8z"/><path class="st0" d="M796 573.9c-3.8.8-5.8 2.9-8.3 5.6-2.9 3.1-4.8 6.8-6.5 10.7-2.4 5.3-3.6 10.3-6.1 15.4-.2.3-.3.7-.5 1-5.9 11.7-17 18.5-25.7 27.9-2.5 2.7-4.8 5.6-6.8 8.7-8 12.4-9.8 26.9-.9 40.7 6.4 9.9 18.3 17.6 30.6 17.8 10.4.2 20-4.1 30.2-4.9 7.2-.5 14.1 1 20.7-.1 8.7-1.4 15.9-6.8 21.6-13.3 1.9-2.1 3.6-4.3 5.1-6.7 6.3-9.9 9.5-22.1 8.9-34-.5-9.7-3.4-18.9-3.9-28.7-.4-7.8.7-15.7.7-23.6.1-8.6-1.3-18.1-7.6-24.1-4.8-4.6-11.5-5.1-17-4.4-5.6.8-10.7 3-16.3 5.6-5.3 2.5-11.6 5-18.2 6.4z"/><g><path class="st0" d="M2044.4 1598.2c-71.8-13.1-141.3 12.8-200.6 46.3-59.3 33.5-113.7 75.2-179 98-65.4 22.9-147.3 23.4-206.5-20.8-62.5-46.7-81.4-128.4-77.8-199.9 3.7-71.5 24.8-140.5 21.3-212.6-4.3-89.5-46.1-177.5-52.8-267.1-8.3-110.2 40.5-218 128.1-282.4 87.5-64.4 211.7-84.1 325.5-51.6 78.1 22.3 150.6 67.4 230 80.5 113.4 18.8 222.3-30.1 336.1-18.4 134.9 13.9 261.8 122.5 291.4 249.4 29.6 126.9-40.9 259.8-162 305.2-87.2 32.7-198.7 26.3-261.1 91.1-31.8 32.9-42.3 62.7-68.7 99.8-16.5 23.3-33.5 47-57.8 63-24.3 16.1-35.3 25.1-66.1 19.5z"/><path class="st0" d="M2037.4 1585.9c29.9 5.4 40.6-3.3 64.1-18.8 23.6-15.5 40.1-38.5 56.1-61.1 24-33.9 34.5-61.5 61.3-91.2 1.7-1.9 3.5-3.8 5.3-5.7 60.5-62.9 168.6-56.9 253.1-88.7 24.2-9.1 46.4-21.9 66.1-37.4 75.5-59.8 113.9-161.1 90.9-258.9-28.7-122.9-151.6-228.1-282.3-241.6-110.2-11.4-215.7 35.9-325.6 17.7-77-12.7-147.2-56.3-222.8-77.9-83.3-23.7-172.3-18.6-247.4 12.3-24.3 10-47.2 22.7-67.9 38-84.8 62.5-132.1 166.9-124.1 273.8 6.5 86.8 46.9 172.1 51 258.8 3.3 69.9-17.1 136.8-20.7 206.1-3.6 69.3 14.7 148.6 75.2 193.9 57.3 42.8 136.7 42.4 200 20.3 63.3-22.1 116-62.4 173.4-94.8 57.5-32.3 124.8-57.4 194.3-44.8z"/><path class="st0" d="M2030.4 1573.7c29 5.2 39.3-3.3 62.1-18.3 22.8-15.1 38.8-37.4 54.4-59.3 23.3-32.9 33.5-59.6 59.4-88.5 1.6-1.8 3.4-3.7 5.1-5.5 58.6-61 163.3-55.5 245.2-86.4 23.5-8.9 44.9-21.3 64-36.4 73.1-58 110.3-156.3 87.9-251.1-27.8-118.9-146.8-220.7-273.2-233.8-106.6-11-208.7 34.7-315 17.1-74.5-12.3-142.5-54.4-215.6-75.2-80.7-22.9-166.8-17.7-239.4 12.2-23.5 9.7-45.6 22-65.7 36.8-82 60.6-127.8 161.7-120.2 265.2 6.2 84 45.2 166.7 49.2 250.6 3.2 67.7-16.6 132.5-20.1 199.6s14.1 143.9 72.7 187.9c55.4 41.5 132.2 41.2 193.4 19.9 61.3-21.3 112.2-60.2 167.9-91.5 55.5-31.2 120.7-55.5 187.9-43.3z"/><path class="st0" d="M2023.5 1561.5c28 5 38.1-3.2 60.2-17.8 22.1-14.6 37.6-36.2 52.6-57.4 22.6-31.8 32.4-57.8 57.5-85.7 1.6-1.8 3.2-3.6 5-5.4 56.8-59.1 158-54 237.2-84.1 22.7-8.6 43.5-20.6 61.9-35.3 70.8-56.3 106.8-151.5 84.9-243.3-27-114.9-141.9-213.3-264.1-225.9-103.1-10.7-201.7 33.4-304.5 16.5-72-11.9-137.7-52.5-208.4-72.5-78-22-161.2-16.9-231.4 12.2-22.7 9.4-44.1 21.3-63.5 35.7-79.3 58.7-123.6 156.5-116.3 256.5 5.9 81.3 43.5 161.2 47.3 242.4 3 65.5-16.1 128.1-19.5 193-3.4 65 13.6 139.3 70.1 181.8 53.5 40.1 127.7 39.9 186.8 19.4 59.2-20.5 108.5-58 162.3-88.2 53.8-30.2 116.8-53.7 181.9-41.9z"/><path class="st0" d="M2016.5 1549.3c27.1 4.8 36.9-3.2 58.2-17.3 21.4-14.1 36.4-35.1 50.9-55.6 21.8-30.8 31.4-55.9 55.6-83 1.5-1.7 3.1-3.4 4.8-5.2 54.9-57.3 152.6-52.5 229.2-81.8 22-8.4 42-20 59.8-34.2 68.4-54.6 103-146.6 81.9-235.4-26.3-110.9-137-205.8-255-218.1-99.5-10.3-194.8 32.2-293.9 15.8-69.5-11.4-132.9-50.6-201.1-69.9-75.3-21.1-155.6-16.1-223.4 12.1-21.9 9.1-42.6 20.7-61.3 34.5-76.5 56.8-119.3 151.2-112.3 247.9 5.7 78.5 41.9 155.8 45.5 234.2 2.9 63.3-15.6 123.8-18.9 186.5-3.4 62.8 13 134.6 67.6 175.8 51.6 38.8 123.1 38.6 180.3 18.9 57.1-19.7 104.8-55.9 156.7-84.9 51.7-29 112.6-51.6 175.4-40.3z"/><path class="st0" d="M2009.5 1537c26.2 4.6 35.6-3.1 56.2-16.7 20.7-13.7 35.2-33.9 49.2-53.8 21.1-29.7 30.3-54.1 53.7-80.2 1.5-1.7 3-3.3 4.6-5 53-55.4 147.3-51 221.2-79.4 21.2-8.1 40.6-19.4 57.8-33.2 66.1-52.8 99.5-141.7 78.9-227.6-25.5-106.9-132.2-198.4-245.9-210.3-95.9-10-187.8 30.9-283.4 15.2-67-11-128.2-48.7-193.9-67.2-72.7-20.2-150.1-15.3-215.4 12-21.1 8.8-41 20-59.1 33.4-73.8 54.8-115.1 146-108.4 239.3 5.4 75.8 40.2 150.3 43.6 226 2.7 61.1-15.1 119.5-18.4 180-3.3 60.6 12.4 129.9 65 169.8 49.7 37.4 118.6 37.4 173.7 18.4 55.1-18.9 101-53.7 151.1-81.7 50.3-28 108.9-49.8 169.5-39z"/><path class="st0" d="M2002.5 1524.8c25.2 4.4 34.4-3.1 54.3-16.2 19.9-13.2 33.9-32.7 47.5-51.9 20.3-28.7 29.3-52.2 51.8-77.5 1.4-1.6 2.9-3.2 4.5-4.8 51.1-53.5 142-49.6 213.2-77.1 20.4-7.9 39.1-18.8 55.7-32.1 63.8-51.1 95.9-136.9 76-219.8-24.7-102.9-127.3-191-236.8-202.4-92.4-9.7-180.8 29.7-272.9 14.6-64.5-10.6-123.4-46.9-186.7-64.5-70-19.5-144.5-14.5-207.4 11.9-20.4 8.5-39.5 19.3-56.9 32.3-71 52.9-110.8 140.8-104.5 230.7 5.1 73 38.6 144.8 41.8 217.8 2.6 58.8-14.6 115.1-17.8 173.4-3.2 58.5 11.8 125.4 62.5 163.7 47.8 36.2 114.1 36.1 167.1 17.9 53-18.1 97.3-51.5 145.5-78.4 48.3-27 104.8-47.9 163.1-37.6z"/><path class="st0" d="M1995.5 1512.6c24.3 4.2 33.2-3 52.3-15.7 19.2-12.7 32.7-31.6 45.8-50.1 19.6-27.7 28.2-50.4 50-74.7 1.4-1.6 2.8-3.1 4.3-4.7 49.2-51.7 136.7-48.1 205.2-74.8 19.7-7.7 37.7-18.2 53.6-31 61.4-49.3 92.3-132 73-212C2455.8 950.7 2357.3 866 2252 855c-88.8-9.3-173.8 28.4-262.3 14-62-10.1-118.6-45-179.5-61.8-67.3-18.7-139-13.7-199.4 11.8-19.6 8.2-38 18.6-54.7 31.1-68.3 51-106.5 135.5-100.5 222 4.9 70.3 36.9 139.4 40 209.6 2.5 56.6-14.1 110.8-17.2 166.9-3.1 56.3 11.2 120.7 59.9 157.7 45.9 34.8 109.6 34.8 160.6 17.5 51-17.3 93.5-49.3 139.9-75.1 46.3-25.9 100.6-45.9 156.7-36.1z"/><path class="st0" d="M1988.5 1500.4c23.4 4 32-3 50.3-15.2 18.5-12.3 31.5-30.4 44.1-48.2 18.8-26.6 27.2-48.5 48.1-72 1.3-1.5 2.7-3 4.1-4.5 47.3-49.8 131.3-46.6 197.3-72.5 18.9-7.4 36.2-17.6 51.6-30 59.1-47.6 88.7-127.2 70-204.2-23.1-94.9-117.6-176.1-218.6-186.8-85.2-9-166.9 27.2-251.8 13.3-59.5-9.7-113.8-43.1-172.2-59.2-64.7-17.8-133.4-12.8-191.4 11.7-18.8 7.9-36.4 18-52.5 30-65.5 49.1-102.3 130.3-96.6 213.4 4.6 67.5 35.3 133.9 38.1 201.4 2.3 54.4-13.6 106.5-16.6 160.4-3.1 54.1 10.6 116 57.4 151.7 44 33.5 105.1 33.6 154 17 48.9-16.5 89.8-47.1 134.3-71.8 44.5-24.7 96.6-43.9 150.4-34.5z"/><path class="st0" d="M1981.6 1488.1c22.5 3.9 30.7-2.9 48.4-14.7 17.8-11.8 30.3-29.3 42.3-46.4 18.1-25.6 26.1-46.7 46.2-69.2 1.3-1.4 2.6-2.9 4-4.3 45.4-47.9 126-45.2 189.3-70.1 18.1-7.2 34.7-17 49.5-28.9 56.7-45.9 85.1-122.3 67-196.4-22.3-90.9-112.7-168.7-209.5-178.9-81.7-8.6-159.9 25.9-241.3 12.7-57-9.3-109-41.2-165-56.5-62-17-127.9-12-183.4 11.6-18 7.7-34.9 17.3-50.2 28.8-62.8 47.2-98 125.1-92.7 204.8 4.4 64.7 33.6 128.5 36.3 193.2 2.2 52.2-13.1 102.1-16 153.8-3 51.9 10.1 111.4 54.8 145.6 42.1 32.2 100.6 32.3 147.4 16.5 46.8-15.7 86-45 128.7-68.6 42.6-23.5 92.5-41.8 144.2-33z"/><path class="st0" d="M1974.6 1475.9c21.5 3.7 29.5-2.9 46.4-14.1 17.1-11.4 29-28.1 40.6-44.6 17.3-24.6 25.1-44.8 44.3-66.5 1.2-1.4 2.5-2.8 3.8-4.2 43.5-46.1 120.7-43.7 181.3-67.8 17.4-6.9 33.3-16.4 47.4-27.8 54.4-44.1 81.5-117.5 64-188.6C2381 975.4 2294.5 901 2202 891.2c-78.1-8.3-152.9 24.7-230.7 12.1-54.5-8.8-104.3-39.3-157.8-53.8-59.3-16.1-122.3-11.2-175.4 11.5-17.2 7.4-33.4 16.6-48 27.7-60 45.2-93.8 119.8-88.7 196.2 4.1 62 31.9 123 34.4 184.9 2 50-12.6 97.8-15.4 147.3-2.9 49.8 9.5 106.7 52.3 139.6 40.1 30.8 96.1 31 140.9 16 44.8-14.9 82.3-42.8 123.2-65.3 40.6-22.4 88.4-39.9 137.8-31.5z"/><path class="st0" d="M1967.6 1463.7c20.6 3.5 28.3-2.9 44.4-13.6 16.3-10.9 27.8-26.9 38.9-42.7 16.6-23.5 24-43 42.4-63.7 1.2-1.3 2.4-2.7 3.6-4 41.6-44.2 115.4-42.2 173.3-65.5 16.6-6.7 31.8-15.8 45.3-26.8 52-42.4 77.9-112.6 61-180.7-20.6-82.9-103-153.9-191.3-163.3-74.5-7.9-145.9 23.4-220.2 11.5-52-8.4-99.5-37.4-150.5-51.2-56.7-15.3-116.7-10.4-167.4 11.4-16.4 7.1-31.8 15.9-45.8 26.5-57.3 43.3-89.5 114.6-84.8 187.5 3.8 59.2 30.3 117.5 32.6 176.7 1.9 47.7-12.1 93.4-14.9 140.8-2.8 47.6 8.9 102.1 49.7 133.6 38.2 29.5 91.6 29.7 134.3 15.5 42.7-14.1 78.5-40.6 117.6-62 39-21.4 84.7-37.9 131.8-30z"/><path class="st0" d="M1960.6 1451.5c19.7 3.3 27-2.8 42.5-13.1 15.6-10.4 26.6-25.8 37.2-40.9 15.8-22.5 23-41.1 40.5-61 1.1-1.3 2.3-2.5 3.5-3.8 39.7-42.3 110.1-40.7 165.3-63.2 15.9-6.4 30.4-15.2 43.3-25.7 49.7-40.6 74.4-107.8 58-172.9-19.8-78.9-98.1-146.4-182.2-155.4-70.9-7.6-139 22.2-209.7 10.8-49.5-8-94.7-35.5-143.3-48.5-54-14.4-111.2-9.6-159.4 11.3-15.6 6.8-30.3 15.2-43.6 25.4-54.5 41.4-85.2 109.4-80.9 178.9 3.6 56.5 28.6 112.1 30.8 168.5 1.7 45.5-11.6 89.1-14.3 134.3-2.7 45.4 8.3 97.4 47.2 127.5 36.3 28.2 87.1 28.5 127.7 15.1 40.7-13.3 74.8-38.4 112-58.7 37.1-20.4 80.5-36.1 125.4-28.6z"/><path class="st0" d="M1953.6 1439.2c18.7 3.1 25.8-2.8 40.5-12.6 14.9-10 25.4-24.6 35.5-39 15.1-21.5 21.9-39.2 38.6-58.2 1.1-1.2 2.2-2.4 3.3-3.7 37.9-40.5 104.7-39.3 157.4-60.8 15.1-6.2 28.9-14.5 41.2-24.6 47.3-38.9 70.8-102.9 55-165.1-19-74.9-93.3-139-173.1-147.6-67.4-7.3-132 20.9-199.1 10.2-47.1-7.5-90-33.6-136.1-45.8-51.3-13.6-105.6-8.8-151.4 11.2-14.8 6.5-28.8 14.6-41.4 24.2-51.8 39.5-81 104.1-76.9 170.3 3.3 53.7 27 106.6 28.9 160.3 1.6 43.3-11.1 84.8-13.7 127.7-2.7 43.2 7.8 92.8 44.6 121.5 34.4 26.8 82.6 27.2 121.2 14.6 38.6-12.5 71-36.2 106.4-55.5 35.2-19.2 76.5-34 119.1-27.1z"/><path class="st0" d="M1946.7 1427c17.8 2.9 24.6-2.7 38.5-12.1 14.2-9.5 24.1-23.4 33.8-37.2 14.3-20.4 20.9-37.4 36.7-55.5 1-1.2 2.1-2.3 3.1-3.5 36-38.6 99.4-37.8 149.4-58.5 14.3-5.9 27.5-13.9 39.1-23.6 45-37.2 67.2-98 52-157.3-18.1-70.9-88.4-131.6-164-139.8-63.8-6.9-125 19.7-188.6 9.6-44.6-7.1-85.2-31.7-128.9-43.2-48.7-12.7-100.1-7.9-143.4 11.1-14 6.2-27.2 13.9-39.2 23.1-49 37.6-76.7 98.9-73 161.7 3 51 25.3 101.1 27.1 152.1 1.4 41.1-10.6 80.4-13.1 121.2-2.6 41.1 7.2 88.1 42.1 115.5 32.5 25.5 78.1 25.9 114.6 14.1 36.6-11.8 67.3-34.1 100.8-52.2 33.4-18 72.5-32 113-25.5z"/><path class="st0" d="M1939.7 1414.8c16.9 2.7 23.4-2.7 36.6-11.5 13.4-9.1 22.9-22.3 32-35.3 13.6-19.4 19.8-35.5 34.8-52.7l3-3.3c34.1-36.8 94.1-36.3 141.4-56.2 13.6-5.7 26-13.3 37.1-22.5 42.6-35.4 63.6-93.2 49-149.5-17.3-66.9-83.5-124.2-154.9-131.9-60.2-6.6-118 18.5-178.1 9-42.1-6.6-80.4-29.8-121.6-40.5-46-11.9-94.5-7.1-135.4 11.1-13.2 5.9-25.7 13.2-37 21.9-46.3 35.7-72.5 93.7-69.1 153 2.8 48.2 23.7 95.7 25.2 143.9 1.3 38.9-10.1 76.1-12.5 114.7-2.5 38.9 6.6 83.5 39.5 109.4 30.6 24.2 73.6 24.7 108 13.6 34.5-11 63.5-31.9 95.2-48.9 31.7-17.2 68.6-30.3 106.8-24.3z"/><path class="st0" d="M1932.7 1402.6c15.9 2.5 22.1-2.6 34.6-11 12.7-8.6 21.7-21.1 30.3-33.5 12.9-18.4 18.8-33.7 32.9-50 .9-1 1.8-2.1 2.8-3.2 32.2-34.9 88.8-34.8 133.4-53.8 12.8-5.4 24.5-12.7 35-21.4 40.3-33.7 60-88.3 46-141.7-16.5-62.9-78.7-116.7-145.8-124.1-56.7-6.2-111.1 17.2-167.5 8.3-39.6-6.2-75.7-27.9-114.4-37.8-43.3-11-89-6.3-127.4 11-12.4 5.6-24.2 12.5-34.8 20.8-43.5 33.7-68.2 88.4-65.1 144.4 2.5 45.5 22 90.2 23.4 135.7 1.1 36.7-9.6 71.8-11.9 108.1-2.4 36.7 6 78.8 37 103.4 28.7 22.8 69.1 23.4 101.5 13.1 32.4-10.2 59.8-29.7 89.6-45.6 29.7-16 64.5-28.3 100.4-22.7z"/><path class="st0" d="M1925.7 1390.3c15 2.3 20.9-2.6 32.7-10.5 12-8.1 20.5-20 28.6-31.7 12.1-17.3 17.7-31.8 31-47.2.9-1 1.7-2 2.7-3 30.3-33 83.5-33.4 125.4-51.5 12-5.2 23.1-12.1 32.9-20.4 37.9-32 56.4-83.5 43-133.8-15.6-58.9-73.8-109.3-136.7-116.3-53.1-5.9-104.1 16-157 7.7-37.1-5.8-70.9-26-107.2-35.1-40.7-10.2-83.4-5.5-119.4 10.9-11.7 5.3-22.6 11.9-32.6 19.6-40.8 31.8-63.9 83.2-61.2 135.8 2.2 42.7 20.3 84.8 21.6 127.5 1 34.4-9.1 67.4-11.3 101.6-2.4 34.5 5.4 74.2 34.4 97.4 26.8 21.5 64.6 22.1 94.9 12.7 30.4-9.4 56-27.5 84-42.4 27.9-14.9 60.5-26.3 94.2-21.3z"/><path class="st0" d="M1918.7 1378.1c14.1 2.1 19.7-2.5 30.7-10 11.3-7.7 19.2-18.8 26.9-29.8 11.4-16.3 16.7-30 29.2-44.5.8-.9 1.6-1.9 2.5-2.8 28.4-31.2 78.1-31.9 117.4-49.2 11.3-5 21.6-11.5 30.8-19.3 35.6-30.2 52.8-78.6 40-126-14.8-54.8-68.9-101.9-127.6-108.4-49.5-5.6-97.1 14.7-146.5 7.1-34.6-5.3-66.1-24.1-99.9-32.5-38-9.4-77.9-4.7-111.4 10.8-10.9 5-21.1 11.2-30.4 18.5-38 29.9-59.7 78-57.3 127.2 2 39.9 18.7 79.3 19.7 119.3.8 32.2-8.6 63.1-10.8 95.1-2.3 32.4 4.9 69.5 31.9 91.3 24.9 20.1 60.1 20.8 88.3 12.2 28.3-8.6 52.3-25.3 78.4-39.1 26.2-13.9 56.7-24.5 88.1-19.9z"/><path class="st0" d="M1911.7 1365.9c13.2 1.9 18.4-2.5 28.7-9.4 10.5-7.2 18-17.6 25.2-28 10.6-15.3 15.6-28.1 27.3-41.7.7-.9 1.5-1.8 2.3-2.6 26.5-29.3 72.8-30.4 109.5-46.9 10.5-4.7 20.2-10.9 28.8-18.2 33.3-28.5 49.3-73.8 37.1-118.2-14-50.8-64.1-94.4-118.5-100.6-46-5.2-90.1 13.5-135.9 6.5-32.1-4.9-61.4-22.3-92.7-29.8-35.3-8.5-72.3-3.9-103.4 10.7-10.1 4.7-19.6 10.5-28.2 17.3-35.3 28-55.4 72.7-53.3 118.5 1.7 37.2 17 73.8 17.9 111.1.7 30-8.1 58.8-10.2 88.5-2.2 30.2 4.3 64.8 29.3 85.3 23 18.8 55.6 19.5 81.8 11.7 26.2-7.8 48.5-23.2 72.9-35.8 24-12.8 52.2-22.6 81.4-18.4z"/><path class="st0" d="M1904.8 1353.7c12.2 1.7 17.2-2.4 26.8-8.9 9.8-6.8 16.8-16.5 23.5-26.1 9.9-14.2 14.6-26.3 25.4-39 .7-.8 1.4-1.7 2.2-2.5 24.6-27.4 67.5-29 101.5-44.5 9.7-4.5 18.7-10.3 26.7-17.2 30.9-26.7 45.7-68.9 34.1-110.4-13.1-46.8-59.2-87-109.4-92.8-42.4-4.9-83.2 12.2-125.4 5.8-29.6-4.5-56.6-20.4-85.5-27.1-32.7-7.7-66.7-3-95.4 10.6-9.3 4.4-18 9.8-26 16.2-32.5 26.1-51.1 67.5-49.4 109.9 1.4 34.4 15.4 68.4 16 102.8.5 27.8-7.6 54.4-9.6 82-2.1 28 3.7 60.2 26.8 79.3 21.1 17.5 51.1 18.3 75.2 11.2 24.2-7 44.8-21 67.3-32.5 22.1-11.6 48.2-20.5 75.2-16.8z"/><path class="st0" d="M1897.8 1341.4c11.3 1.5 16-2.3 24.8-8.4 9.1-6.3 15.6-15.3 21.7-24.3 9.1-13.2 13.5-24.4 23.5-36.3.6-.8 1.3-1.5 2-2.3 22.7-25.6 62.2-27.5 93.5-42.2 9-4.2 17.2-9.7 24.6-16.1 28.6-25 42.1-64 31.1-102.6-12.3-42.8-54.3-79.6-100.3-84.9-38.8-4.5-76.2 11-114.9 5.2-27.1-4-51.8-18.5-78.3-24.5-30-6.8-61.2-2.2-87.4 10.5-8.5 4.1-16.5 9.2-23.8 15-29.8 24.1-46.9 62.3-45.5 101.3 1.2 31.7 13.7 62.9 14.2 94.6.4 25.6-7.1 50.1-9 75.5-2 25.9 3.1 55.5 24.2 73.2 19.2 16.1 46.6 17 68.6 10.8 22.1-6.3 41-18.8 61.7-29.3 20.6-10.3 44.5-18.4 69.3-15.2z"/><path class="st0" d="M1890.8 1329.2c10.4 1.3 14.8-2.3 22.8-7.9 8.4-5.8 14.3-14.2 20-22.5 8.4-12.2 12.5-22.6 21.6-33.5l1.8-2.1c20.9-23.7 56.9-26 85.5-39.9 8.2-4 15.8-9.1 22.6-15 26.2-23.3 38.5-59.2 28.1-94.8-11.4-38.8-49.5-72.2-91.2-77.1-35.2-4.2-69.2 9.7-104.3 4.6-24.6-3.6-47-16.6-71-21.8-27.3-6-55.6-1.4-79.4 10.4-7.7 3.8-15 8.5-21.6 13.9-27 22.2-42.6 57-41.5 92.7.9 28.9 12 57.5 12.3 86.4.2 23.3-6.6 45.8-8.4 69-1.9 23.7 2.6 50.9 21.7 67.2 17.3 14.8 42.1 15.7 62.1 10.3 20.1-5.5 37.3-16.6 56.1-26 18.6-9.4 40.3-16.6 62.8-13.9z"/><path class="st0" d="M1883.8 1317c9.4 1.1 13.5-2.3 20.9-7.4 7.7-5.3 13.1-13 18.3-20.6 7.6-11.1 11.5-20.7 19.7-30.8.5-.7 1.1-1.3 1.7-2 19-21.8 51.5-24.5 77.5-37.6 7.5-3.7 14.3-8.4 20.5-14 23.9-21.5 35-54.3 25.1-87-10.5-34.8-44.6-64.7-82.1-69.3-31.7-3.8-62.2 8.5-93.8 4-22.1-3.2-42.3-14.7-63.8-19.1-24.7-5.1-50.1-.6-71.4 10.3-6.9 3.5-13.4 7.8-19.4 12.8-24.3 20.3-38.4 51.8-37.6 84 .6 26.2 10.4 52 10.5 78.2.1 21.1-6.1 41.5-7.8 62.4-1.8 21.5 2 46.2 19.1 61.2 15.4 13.4 37.6 14.4 55.5 9.8 18-4.7 33.6-14.4 50.5-22.7 16.8-8.1 36.4-14.5 56.6-12.2z"/><path class="st0" d="M1876.8 1304.8c8.5.9 12.3-2.2 18.9-6.8 6.9-4.9 11.9-11.8 16.6-18.8 6.9-10.1 10.4-18.9 17.8-28l1.5-1.8c17.1-20 46.2-23.1 69.6-35.2 6.7-3.5 12.9-7.8 18.4-12.9 21.5-19.8 31.4-49.4 22.1-79.1-9.7-30.8-39.7-57.3-73-61.4-28.1-3.5-55.3 7.2-83.3 3.3-19.6-2.7-37.5-12.8-56.6-16.5-22-4.3-44.5.2-63.4 10.2-6.1 3.2-11.9 7.1-17.2 11.6-21.5 18.4-34.1 46.6-33.6 75.4.4 23.4 8.7 46.5 8.7 70 0 18.9-5.6 37.1-7.3 55.9-1.8 19.3 1.4 41.5 16.6 55.1 13.5 12.1 33.1 13.2 48.9 9.3 15.9-3.9 29.8-12.2 44.9-19.4 15-7.2 32.4-12.8 50.4-10.9z"/><path class="st0" d="M1869.8 1292.5c7.6.7 11.1-2.2 16.9-6.3 6.2-4.4 10.7-10.7 14.9-16.9 6.1-9 9.4-17 15.9-25.3.4-.5.9-1.1 1.3-1.6 15.2-18.1 40.9-21.6 61.6-32.9 5.9-3.2 11.4-7.2 16.3-11.8 19.2-18 27.8-44.6 19.1-71.3-8.8-26.8-34.9-49.9-63.9-53.6-24.5-3.2-48.3 6-72.7 2.7-17.1-2.3-32.8-10.9-49.3-13.8-19.4-3.4-39 1-55.4 10.1-5.3 2.9-10.4 6.4-14.9 10.5-18.8 16.5-29.8 41.3-29.7 66.8.1 20.7 7.1 41.1 6.8 61.8-.2 16.7-5.1 32.8-6.7 49.4-1.7 17.2.8 36.9 14.1 49.1 11.6 10.7 28.6 11.9 42.4 8.8 13.9-3.1 26.1-10 39.3-16.2 13.1-6.1 28.3-10.9 44-9.5z"/><path class="st0" d="M1862.9 1280.3c6.7.5 9.8-2.1 15-5.8 5.5-4 9.4-9.5 13.2-15.1 5.4-8 8.3-15.2 14-22.5l1.2-1.5c13.3-16.2 35.6-20.1 53.6-30.6 5.2-3 10-6.6 14.3-10.8 16.8-16.3 24.3-39.7 16.1-63.5-7.8-22.8-30-42.5-54.8-45.8-21-2.8-41.3 4.7-62.2 2.1-14.6-1.9-28-9-42.1-11.1-16.7-2.6-33.4 1.9-47.4 10.1-4.5 2.7-8.8 5.8-12.7 9.3-16 14.5-25.6 36.1-25.8 58.2-.2 17.9 5.4 35.6 5 53.6-.3 14.5-4.6 28.5-6.1 42.8-1.6 15 .2 32.2 11.5 43.1 9.7 9.4 24 10.6 35.8 8.4 11.8-2.3 22.3-7.9 33.7-12.9 11.1-5 24.2-8.9 37.7-8z"/><path class="st0" d="M1855.9 1268.1c5.7.3 8.6-2.1 13-5.3 4.8-3.5 8.2-8.4 11.4-13.2 4.7-7 7.3-13.3 12.1-19.8.3-.4.7-.9 1-1.3 11.4-14.4 30.2-18.6 45.6-28.3 4.4-2.7 8.5-6 12.2-9.7 14.5-14.5 20.8-34.8 13.1-55.7-6.9-18.8-25.1-35-45.7-37.9-17.4-2.5-34.3 3.5-51.7 1.5-12.1-1.4-23.3-7-34.9-8.4-14.1-1.7-27.8 2.7-39.4 10-3.8 2.4-7.3 5.1-10.5 8.2-13.3 12.6-21.3 30.9-21.8 49.5-.4 15.2 3.8 30.2 3.1 45.4-.5 12.2-4.1 24.1-5.5 36.3-1.5 12.8-.3 27.5 9 37 7.8 8 19.5 9.4 29.2 7.9 9.8-1.5 18.6-5.7 28.2-9.6 9.4-4 20.3-7.1 31.6-6.6z"/><path class="st0" d="M1848.9 1255.9c4.8 0 7.4-2 11-4.8 4-3 7-7.2 9.7-11.4 3.9-5.9 6.2-11.5 10.3-17 .3-.4.5-.8.8-1.1 9.5-12.5 24.9-17.2 37.6-25.9 3.6-2.5 7-5.4 10.1-8.6 12.2-12.8 17.3-30 10.1-47.9-5.9-14.8-20.3-27.6-36.6-30.1-13.8-2.1-27.4 2.2-41.1.8-9.6-1-18.5-5.1-27.7-5.8-11.5-.8-22.3 3.5-31.4 9.9-3 2.1-5.8 4.4-8.3 7-10.5 10.7-17.1 25.7-17.9 40.9-.7 12.4 2.1 24.7 1.3 37.2-.6 10-3.6 19.8-4.9 29.8-1.4 10.7-.9 22.8 6.4 31 5.9 6.6 15.1 8.1 22.7 7.4 7.7-.7 14.8-3.5 22.6-6.3 7.5-2.9 16.3-5.2 25.3-5.1z"/><path class="st0" d="M1841.9 1243.6c3.9-.2 6.2-2 9.1-4.2 3.3-2.6 5.8-6 8-9.6 3.2-4.9 5.2-9.6 8.4-14.3.2-.3.4-.6.7-1 7.6-10.6 19.6-15.7 29.6-23.6 2.9-2.3 5.6-4.8 8.1-7.6 9.8-11.1 13.8-25.1 7.1-40.1-4.8-10.8-15.4-20.2-27.5-22.3-10.3-1.8-20.4 1-30.6.2-7.2-.6-13.8-3.2-20.4-3.1-8.8.1-16.7 4.3-23.4 9.8-2.2 1.8-4.2 3.7-6.1 5.9-7.8 8.8-12.8 20.4-14 32.3-1 9.6.4 19.2-.5 28.9-.8 7.8-3.1 15.4-4.3 23.2-1.4 8.5-1.5 18.1 3.9 25 4 5.2 10.6 6.8 16.1 6.9 5.7.1 11.1-1.3 17-3.1 5.5-1.4 12.1-3 18.8-3.3z"/></g><path fill="none" d="M1103.9 636.3h756v530h-756z"/></svg>