<?xml version="1.0" encoding="utf-8"?>
<!-- Generator: Adobe Illustrator 24.1.2, SVG Export Plug-In . SVG Version: 6.00 Build 0)  -->
<svg version="1.1" id="Layer_1" xmlns="http://www.w3.org/2000/svg" xmlns:xlink="http://www.w3.org/1999/xlink" x="0px" y="0px"
	 viewBox="0 0 2777.9 1179.7" style="enable-background:new 0 0 2777.9 1179.7;" xml:space="preserve">
<style type="text/css">
	.st0{fill:none;stroke:#FFFFFF;stroke-width:0.75;stroke-miterlimit:10;}
</style>
<g>
	<g>
		<path class="st0" d="M474.8,23.1C430.7,65.2,370.3,79,313.5,82.9c-56.8,3.9-113.8-0.3-170,13.7C87.4,110.6,29.9,147.9,8.9,206
			C-13.3,267.2,11,333,46.4,381.2c35.4,48.2,81.8,86.7,112.5,138.7c38.1,64.4,49.3,145.1,85.7,210.7
			C289.4,811.4,373,864.1,463.7,869c90.7,4.8,186.4-38.5,250.9-113.4c44.2-51.4,74.2-116.2,123.6-161.8
			c70.5-65.2,169-81.1,243.1-141.5c87.8-71.6,126.5-205.7,88.9-307.9C1132.6,42.1,1022.3-18.3,916.9,5.6
			c-75.9,17.2-150.8,72.8-224.1,56.3c-37.3-8.4-58.3-24.4-93.8-38.2c-22.2-8.7-45-17.4-69.3-17.4C505.5,6.3,493.7,5,474.8,23.1z"/>
		<path class="st0" d="M475.5,34.9c18.4-17.5,29.8-16.3,53.4-16.3c23.6,0,45.7,8.5,67.2,16.9c32.3,12.6,52.3,27.1,84.7,35.5
			c2.1,0.5,4.2,1.1,6.3,1.5C758.3,88.7,831,34.9,904.6,18.3c21.1-4.8,42.4-6,63.3-4.2c80.1,7.1,153.5,60.2,182.3,139
			c36.4,99-1.1,228.9-86.2,298.3c-71.7,58.5-167.1,73.9-235.4,137.1c-47.9,44.2-76.9,106.9-119.8,156.7
			c-47.3,54.8-111.8,92.1-178.4,105c-21.6,4.2-43.3,5.8-64.8,4.6c-87.9-4.7-168.9-55.9-212.4-134.1
			c-35.3-63.6-46.3-141.7-83.2-204.1C140.3,466.2,95.3,428.9,61,382.1C26.6,335.4,3,271.6,24.4,212.2c20.3-56.2,75.9-92.4,130.3-106
			c54.3-13.6,109.6-9.7,164.6-13.5C374.3,89,432.8,75.6,475.5,34.9z"/>
		<path class="st0" d="M476.3,46.6c17.8-16.9,29-15.8,51.8-15.7c22.9,0,44.3,8.3,65.2,16.4c31.3,12.2,50.7,26.3,82.1,34.5
			c2,0.5,4,1,6.1,1.5C750.4,98.9,820.9,47,892.3,31.1c20.5-4.6,41.1-5.8,61.4-4c77.7,6.9,148.8,58.5,176.6,134.9
			c35.2,95.8-1.1,221.5-83.4,288.6c-69.4,56.7-161.6,71.6-227.8,132.7c-46.3,42.8-74.5,103.4-116,151.5
			c-45.8,53-108.3,88.9-172.8,101.4c-20.9,4-42,5.6-62.8,4.4c-85.1-4.7-163.5-54.2-205.6-129.9c-34.2-61.5-45-137.1-80.8-197.5
			c-28.9-48.7-72.4-84.8-105.7-130.1C42.2,337.8,19.3,276,40,218.5c19.6-54.4,73.4-89.4,125.9-102.6c52.5-13.3,106-9.5,159.2-13.2
			C378.3,99,434.9,86,476.3,46.6z"/>
		<path class="st0" d="M477,58.3c17.3-16.4,28.1-15.2,50.2-15.2c22.1,0,42.9,8,63.1,15.9c30.4,11.9,49.2,25.4,79.5,33.4
			c1.9,0.5,3.9,1,5.9,1.5c66.8,15.2,135.1-34.8,204.2-50.2c19.8-4.4,39.8-5.6,59.4-3.8c75.3,6.8,144.1,56.7,171,130.8
			c33.9,92.6-1.2,214-80.7,279c-67.1,54.8-156.2,69.3-220.1,128.3c-44.8,41.3-72,99.8-112.2,146.3c-44.4,51.2-104.8,85.8-167.1,97.8
			c-20.2,3.9-40.6,5.3-60.7,4.2c-82.3-4.6-158.1-52.5-198.9-125.7c-33.2-59.5-43.6-132.5-78.3-191c-27.9-47.1-70.1-82-102.3-125.8
			c-32.2-43.8-54.5-103.4-34.5-159.1c18.9-52.6,70.8-86.5,121.5-99.3c50.7-12.9,102.4-9.3,153.8-12.9C382.3,109,437,96.4,477,58.3z"
			/>
		<path class="st0" d="M477.8,70.1c16.7-15.8,27.2-14.7,48.6-14.7c21.4,0,41.5,7.8,61.1,15.4c29.4,11.5,47.6,24.6,76.9,32.4
			c1.9,0.5,3.8,1,5.7,1.4c64.6,14.8,130.7-33.4,197.5-48.1c19.2-4.2,38.5-5.3,57.5-3.6c72.8,6.7,139.2,55,165.3,126.8
			c32.5,89.5-1.2,206.6-77.9,269.3c-64.7,52.9-150.7,67-212.5,123.9c-43.3,39.9-69.6,96.3-108.3,141.1
			c-42.9,49.3-101.3,82.7-161.5,94.1c-19.5,3.7-39.2,5.1-58.6,4c-79.5-4.5-152.7-50.8-192.2-121.5c-32.1-57.4-42.3-128-75.8-184.4
			c-27-45.5-67.7-79.3-98.8-121.5C73.5,342.5,51.9,284.9,71.1,231c18.2-50.8,68.2-83.5,117.2-96c48.9-12.5,98.8-9.1,148.4-12.6
			C386.2,118.9,439.1,106.8,477.8,70.1z"/>
		<path class="st0" d="M478.5,81.8c16.2-15.2,26.3-14.2,47-14.1c20.7,0.1,40.1,7.5,59,14.9c28.4,11.1,46,23.8,74.3,31.3
			c1.8,0.5,3.6,0.9,5.5,1.4c62.4,14.4,126.3-32,190.9-46.1c18.5-4,37.2-5.1,55.6-3.4c70.4,6.5,134.5,53.3,159.6,122.7
			c31.3,86.4-1.2,199.2-75.1,259.7c-62.4,51-145.3,64.6-204.8,119.5c-41.7,38.4-67.1,92.8-104.5,135.9
			c-41.4,47.5-97.8,79.6-155.9,90.5c-18.8,3.5-37.8,4.9-56.6,3.8c-76.7-4.4-147.4-49.1-185.5-117.3c-31-55.4-40.9-123.4-73.3-177.8
			c-26.1-43.9-65.4-76.5-95.4-117.2c-30.1-40.8-51-96.4-32.6-148.4c17.5-49,65.7-80.6,112.8-92.6c47.1-12.1,95.2-8.9,143-12.4
			C390.2,128.9,441.2,117.2,478.5,81.8z"/>
		<path class="st0" d="M479.2,93.6c15.6-14.7,25.4-13.6,45.3-13.6c20,0.1,38.7,7.3,57,14.4c27.4,10.7,44.4,23,71.8,30.3
			c1.7,0.5,3.5,0.9,5.3,1.3C718.9,140,780.6,95.4,842.9,82c17.9-3.9,35.9-4.8,53.6-3.2c68,6.4,129.8,51.5,153.9,118.6
			c30,83.2-1.2,191.8-72.4,250c-60,49.1-139.9,62.3-197.2,115.1c-40.2,37-64.6,89.4-100.7,130.7c-39.9,45.8-94.3,76.5-150.2,86.9
			c-18.1,3.4-36.4,4.6-54.5,3.6c-73.9-4.3-142-47.4-178.8-113.1c-29.9-53.3-39.6-118.8-70.8-171.2c-25.2-42.3-63-73.7-92-112.9
			c-29.1-39.3-49.3-92.9-31.6-143c16.7-47.2,63.1-77.6,108.4-89.3c45.3-11.7,91.5-8.7,137.6-12.1
			C394.2,138.9,443.2,127.5,479.2,93.6z"/>
		<path class="st0" d="M480,105.3c15-14.1,24.6-13.1,43.7-13.1c19.3,0.1,37.3,7,54.9,13.9c26.4,10.3,42.8,22.2,69.2,29.2
			c1.7,0.4,3.4,0.9,5.2,1.3c58.1,13.5,117.5-29.2,177.6-42c17.2-3.7,34.6-4.6,51.7-3c65.5,6.3,125,49.8,148.3,114.5
			c28.7,80-1.2,184.4-69.6,240.4c-57.7,47.3-134.4,60-189.6,110.7c-38.6,35.5-62.1,85.8-96.9,125.6c-38.4,43.9-90.8,73.3-144.6,83.3
			c-17.4,3.2-35.1,4.4-52.4,3.4c-71.1-4.3-136.6-45.7-172.1-108.9c-28.8-51.3-38.2-114.2-68.3-164.7
			c-24.3-40.6-60.7-70.9-88.6-108.6c-28-37.9-47.6-89.4-30.6-137.6c16-45.4,60.6-74.6,104.1-85.9c43.5-11.3,87.9-8.5,132.2-11.8
			C398.2,148.9,445.3,137.9,480,105.3z"/>
		<path class="st0" d="M480.7,117c14.5-13.6,23.7-12.6,42.1-12.5c18.6,0.1,35.9,6.8,52.9,13.4c25.4,10,41.2,21.4,66.6,28.2
			c1.6,0.4,3.3,0.9,5,1.2c55.9,13.1,113.1-27.8,171-40c16.6-3.5,33.3-4.3,49.7-2.8c63.1,6.1,120.3,48.1,142.6,110.4
			c27.5,76.8-1.2,177-66.9,230.8c-55.4,45.4-129,57.6-181.9,106.3c-37.1,34.1-59.7,82.3-93.1,120.4c-37,42.1-87.2,70.2-139,79.7
			c-16.8,3.1-33.7,4.2-50.4,3.2c-68.3-4.2-131.2-44-165.4-104.6c-27.8-49.2-36.9-109.7-65.8-158.1c-23.4-39-58.4-68.1-85.2-104.3
			c-27-36.4-45.9-85.9-29.6-132.2c15.3-43.6,58-71.7,99.7-82.6c41.7-10.9,84.3-8.3,126.8-11.5C402.2,158.9,447.4,148.3,480.7,117z"
			/>
		<path class="st0" d="M481.4,128.8c13.9-13,22.8-12,40.5-12c17.8,0.1,34.5,6.5,50.9,12.9c24.4,9.6,39.7,20.6,64,27.1
			c1.6,0.4,3.1,0.8,4.8,1.2c53.7,12.6,108.7-26.3,164.3-37.9c16-3.3,32.1-4.1,47.8-2.6c60.7,6,115.6,46.3,136.9,106.3
			c26.2,73.7-1.2,169.5-64.1,221.1c-53,43.5-123.5,55.3-174.3,101.9c-35.6,32.6-57.2,78.8-89.2,115.2
			c-35.5,40.3-83.7,67.1-133.4,76.1c-16.1,2.9-32.3,4-48.3,3c-65.5-4.1-125.8-42.3-158.7-100.4c-26.7-47.2-35.5-105.1-63.4-151.5
			c-22.4-37.4-56-65.3-81.8-100c-25.9-34.9-44.1-82.4-28.6-126.8c14.6-41.8,55.4-68.7,95.4-79.2c39.9-10.5,80.7-8.1,121.4-11.2
			C406.2,168.8,449.5,158.7,481.4,128.8z"/>
		<path class="st0" d="M482.2,140.5c13.3-12.4,21.9-11.5,38.9-11.4c17.1,0.1,33.2,6.3,48.8,12.5c23.4,9.2,38.1,19.8,61.4,26.1
			c1.5,0.4,3,0.8,4.6,1.2c51.5,12.2,104.3-24.9,157.7-35.9c15.3-3.1,30.8-3.9,45.9-2.3c58.2,5.8,110.8,44.6,131.2,102.3
			c24.9,70.5-1.3,162.1-61.4,211.5c-50.7,41.6-118.1,53-166.6,97.5c-34,31.2-54.8,75.3-85.4,110c-34,38.5-80.2,64-127.7,72.5
			c-15.4,2.8-30.9,3.7-46.2,2.7c-62.7-4-120.5-40.6-152-96.2c-25.6-45.2-34.2-100.5-60.9-144.9c-21.5-35.8-53.7-62.5-78.4-95.8
			c-24.9-33.4-42.4-78.9-27.6-121.5c13.9-40,52.9-65.8,91-75.9c38.1-10.1,77.1-7.9,116-11C410.2,178.8,451.6,169,482.2,140.5z"/>
		<path class="st0" d="M482.9,152.3c12.8-11.9,21-11,37.3-10.9c16.4,0.1,31.8,6,46.8,12c22.4,8.8,36.5,19,58.9,25
			c1.4,0.4,2.9,0.8,4.4,1.1c49.4,11.7,99.9-23.5,151.1-33.9c14.7-3,29.5-3.6,43.9-2.1c55.8,5.7,106.1,42.8,125.6,98.2
			c23.7,67.3-1.3,154.7-58.6,201.8c-48.4,39.8-112.6,50.6-159,93.1c-32.5,29.7-52.3,71.8-81.6,104.8
			c-32.5,36.7-76.7,60.9-122.1,68.9c-14.7,2.6-29.5,3.5-44.2,2.5c-59.9-4-115.1-38.9-145.3-92c-24.5-43.1-32.8-96-58.4-138.3
			c-20.6-34.2-51.4-59.7-75-91.5c-23.8-31.9-40.6-75.4-26.6-116.1c13.2-38.2,50.3-62.8,86.6-72.5c36.3-9.7,73.5-7.7,110.5-10.7
			C414.2,188.8,453.6,179.4,482.9,152.3z"/>
		<path class="st0" d="M483.7,164c12.2-11.3,20.2-10.5,35.7-10.4c15.7,0.1,30.4,5.8,44.7,11.5c21.4,8.4,34.9,18.1,56.3,24
			c1.4,0.4,2.8,0.7,4.2,1.1c47.2,11.3,95.5-22.1,144.4-31.8c14-2.8,28.2-3.4,42-1.9c53.3,5.6,101.4,41.1,119.9,94.1
			c22.4,64.2-1.3,147.3-55.9,192.2c-46,37.9-107.2,48.3-151.4,88.7c-30.9,28.3-49.8,68.3-77.8,99.6c-31.1,34.9-73.2,57.7-116.5,65.3
			c-14,2.4-28.1,3.3-42.1,2.3c-57.1-3.9-109.7-37.2-138.6-87.8c-23.4-41.1-31.5-91.4-55.9-131.8c-19.7-32.6-49-56.9-71.6-87.2
			c-22.8-30.4-38.9-71.8-25.6-110.7c12.4-36.3,47.7-59.9,82.3-69.2c34.5-9.4,69.8-7.5,105.1-10.4C418.2,198.8,455.7,189.8,483.7,164
			z"/>
		<path class="st0" d="M484.4,175.7c11.7-10.7,19.3-9.9,34.1-9.8c15,0.1,29,5.5,42.7,11c20.4,8.1,33.3,17.3,53.7,22.9
			c1.3,0.4,2.6,0.7,4,1c45,10.9,91.1-20.7,137.8-29.8c13.4-2.6,26.9-3.1,40.1-1.7c50.9,5.4,96.6,39.3,114.2,90
			c21.1,61-1.3,139.9-53.1,182.5c-43.7,36-101.8,46-143.7,84.3c-29.4,26.9-47.4,64.8-74,94.5c-29.6,33-69.7,54.6-110.9,61.7
			c-13.3,2.3-26.8,3-40,2.1c-54.3-3.8-104.3-35.5-131.9-83.6c-22.4-39-30.1-86.8-53.4-125.2c-18.8-31-46.7-54.1-68.2-82.9
			c-21.7-29-37.2-68.3-24.6-105.3c11.7-34.5,45.2-56.9,77.9-65.8c32.7-9,66.2-7.3,99.7-10.1C422.2,208.8,457.8,200.2,484.4,175.7z"
			/>
		<path class="st0" d="M485.1,187.5c11.1-10.2,18.4-9.4,32.4-9.3c14.3,0.1,27.6,5.3,40.6,10.5c19.4,7.7,31.7,16.5,51.1,21.9
			c1.2,0.3,2.5,0.7,3.8,1c42.8,10.4,86.8-19.3,131.1-27.7c12.7-2.4,25.6-2.9,38.1-1.5c48.5,5.3,91.9,37.6,108.5,85.9
			c19.9,57.8-1.3,132.4-50.3,172.9c-41.4,34.1-96.3,43.6-136.1,79.9c-27.9,25.4-44.9,61.3-70.1,89.3
			c-28.1,31.2-66.2,51.5-105.2,58.1c-12.6,2.1-25.4,2.8-38,1.9c-51.5-3.7-99-33.8-125.2-79.3c-21.3-37-28.8-82.2-50.9-118.6
			c-17.9-29.3-44.3-51.3-64.8-78.6c-20.7-27.5-35.4-64.8-23.6-99.9c11-32.7,42.6-54,73.5-62.5c30.9-8.6,62.6-7.1,94.3-9.8
			C426.2,218.7,459.9,210.6,485.1,187.5z"/>
		<path class="st0" d="M485.9,199.2c10.6-9.6,17.5-8.9,30.8-8.7c13.5,0.2,26.2,5,38.6,10c18.4,7.3,30.2,15.7,48.5,20.8
			c1.2,0.3,2.4,0.6,3.6,1c40.7,10,82.4-17.8,124.5-25.7c12.1-2.3,24.3-2.6,36.2-1.3c46,5.2,87.2,35.9,102.8,81.8
			c18.6,54.6-1.3,125-47.6,163.2c-39,32.2-90.9,41.3-128.4,75.5c-26.3,24-42.5,57.7-66.3,84.1c-26.6,29.4-62.7,48.4-99.6,54.4
			c-11.9,2-24,2.6-35.9,1.7c-48.7-3.6-93.6-32.1-118.5-75.1c-20.2-34.9-27.4-77.7-48.4-112c-17-27.7-42-48.5-61.4-74.3
			c-19.6-26-33.7-61.3-22.6-94.6c10.3-30.9,40.1-51,69.2-59.1c29.1-8.2,59-6.9,88.9-9.6C430.2,228.7,462,221,485.9,199.2z"/>
		<path class="st0" d="M486.6,211c10-9,16.6-8.3,29.2-8.2c12.8,0.2,24.8,4.8,36.6,9.5c17.4,6.9,28.6,14.9,45.9,19.8
			c1.1,0.3,2.3,0.6,3.4,0.9c38.5,9.6,78-16.4,117.9-23.7c11.4-2.1,23-2.4,34.3-1.1c43.6,5,82.4,34.1,97.2,77.8
			c17.4,51.4-1.3,117.6-44.8,153.6c-36.7,30.4-85.4,39-120.8,71.1c-24.8,22.5-40,54.2-62.5,78.9c-25.2,27.6-59.2,45.2-94,50.8
			c-11.3,1.8-22.6,2.3-33.8,1.5c-45.9-3.6-88.2-30.4-111.8-70.9c-19.1-32.9-26.1-73.1-46-105.5c-16-26.1-39.7-45.7-58-70
			c-18.6-24.5-32-57.8-21.7-89.2c9.6-29.1,37.5-48.1,64.8-55.8c27.3-7.8,55.4-6.7,83.5-9.3C434.2,238.7,464.1,231.3,486.6,211z"/>
		<path class="st0" d="M487.4,222.7c9.4-8.5,15.8-7.8,27.6-7.7c12.1,0.2,23.4,4.5,34.5,9c16.4,6.5,27,14.1,43.4,18.7
			c1.1,0.3,2.1,0.6,3.2,0.9c36.3,9.1,73.6-15,111.2-21.6c10.8-1.9,21.7-2.1,32.3-0.9c41.2,4.9,77.7,32.4,91.5,73.7
			C847.2,343,829.8,405,789,438.7c-34.4,28.5-80,36.6-113.2,66.7c-23.2,21.1-37.5,50.7-58.7,73.7c-23.7,25.8-55.7,42.1-88.4,47.2
			c-10.6,1.7-21.2,2.1-31.8,1.3c-43.1-3.5-82.8-28.7-105.1-66.7c-18.1-30.8-24.7-68.5-43.5-98.9c-15.1-24.5-37.3-42.9-54.6-65.7
			c-17.5-23-30.2-54.3-20.7-83.8c8.9-27.3,34.9-45.1,60.4-52.4c25.5-7.4,51.8-6.5,78.1-9C438.1,248.7,466.2,241.7,487.4,222.7z"/>
		<path class="st0" d="M488.1,234.4c8.9-7.9,14.9-7.3,26-7.1c11.4,0.2,22.1,4.3,32.5,8.5c15.4,6.2,25.4,13.3,40.8,17.7
			c1,0.3,2,0.6,3,0.8c34.1,8.7,69.2-13.6,104.6-19.6c10.1-1.7,20.4-1.9,30.4-0.7c38.7,4.7,73,30.6,85.8,69.6
			c14.8,45.1-1.4,102.8-39.3,134.3c-32,26.6-74.6,34.3-105.5,62.3c-21.7,19.6-35.1,47.2-54.9,68.6c-22.2,24-52.2,39-82.7,43.6
			c-9.9,1.5-19.9,1.9-29.7,1c-40.3-3.4-77.5-27-98.3-62.5c-17-28.8-23.4-63.9-41-92.3c-14.2-22.9-35-40.1-51.2-61.4
			c-16.5-21.6-28.5-50.7-19.7-78.4c8.1-25.5,32.4-42.1,56.1-49.1c23.7-7,48.1-6.3,72.7-8.7C442.1,258.7,468.2,252.1,488.1,234.4z"/>
		<path class="st0" d="M488.8,246.2c8.3-7.3,14-6.7,24.4-6.6c10.7,0.2,20.7,4.1,30.4,8c14.4,5.8,23.8,12.5,38.2,16.6
			c0.9,0.3,1.9,0.5,2.8,0.8c32,8.3,64.8-12.2,97.9-17.5c9.5-1.5,19.1-1.7,28.4-0.5c36.3,4.6,68.3,28.9,80.1,65.5
			c13.6,41.9-1.4,95.3-36.6,124.7c-29.7,24.7-69.1,32-97.9,57.9c-20.1,18.2-32.6,43.7-51,63.4c-20.8,22.2-48.7,35.9-77.1,40
			c-9.2,1.3-18.5,1.6-27.6,0.8c-37.5-3.3-72.1-25.3-91.6-58.3c-15.9-26.7-22-59.4-38.5-85.7c-13.3-21.3-32.6-37.3-47.8-57.1
			c-15.4-20.1-26.8-47.2-18.7-73c7.4-23.7,29.8-39.2,51.7-45.7c21.9-6.6,44.5-6.1,67.3-8.5C446.1,268.7,470.3,262.5,488.8,246.2z"/>
		<path class="st0" d="M489.6,257.9c7.8-6.8,13.1-6.2,22.8-6c9.9,0.2,19.3,3.8,28.4,7.5c13.4,5.4,22.2,11.7,35.6,15.6
			c0.9,0.3,1.7,0.5,2.6,0.7c29.8,7.8,60.4-10.8,91.3-15.5c8.9-1.4,17.8-1.4,26.5-0.3c33.9,4.5,63.5,27.1,74.5,61.4
			c12.3,38.7-1.4,87.9-33.8,115c-27.4,22.9-63.7,29.7-90.2,53.5C628.6,506.5,617.1,530,600,548c-19.3,20.3-45.2,32.8-71.5,36.4
			c-8.5,1.2-17.1,1.4-25.6,0.6c-34.7-3.3-66.7-23.6-84.9-54.1c-14.8-24.7-20.7-54.8-36-79.2c-12.4-19.6-30.3-34.5-44.4-52.9
			c-14.4-18.6-25-43.7-17.7-67.6c6.7-21.9,27.3-36.2,47.3-42.4c20.1-6.2,40.9-5.9,61.9-8.2C450.1,278.6,472.4,272.9,489.6,257.9z"/>
		<path class="st0" d="M490.3,269.7c7.2-6.2,12.2-5.7,21.2-5.5c9.2,0.2,17.9,3.6,26.3,7c12.4,5,20.7,10.8,33,14.5
			c0.8,0.2,1.6,0.5,2.5,0.7c27.6,7.4,56-9.4,84.7-13.5c8.2-1.2,16.5-1.2,24.6-0.1c31.4,4.3,58.8,25.4,68.8,57.3
			c11.1,35.5-1.4,80.5-31,105.4c-25,21-58.2,27.3-82.6,49.1c-17.1,15.3-27.7,36.7-43.4,53c-17.8,18.5-41.7,29.6-65.9,32.8
			c-7.8,1-15.7,1.2-23.5,0.4c-31.9-3.2-61.3-22-78.2-49.8c-13.7-22.7-19.3-50.2-33.5-72.6c-11.5-18-27.9-31.7-40.9-48.6
			c-13.3-17.1-23.3-40.2-16.7-62.3c6-20.1,24.7-33.2,43-39c18.3-5.8,37.3-5.7,56.5-7.9C454.1,288.6,474.5,283.3,490.3,269.7z"/>
		<path class="st0" d="M491,281.4c6.7-5.6,11.4-5.2,19.6-5c8.5,0.2,16.5,3.3,24.3,6.5c11.4,4.6,19.1,10,30.5,13.5
			c0.7,0.2,1.5,0.4,2.3,0.7c25.4,7,51.6-7.9,78-11.4c7.6-1,15.2-0.9,22.6,0.1c29,4.2,54.1,23.6,63.1,53.3
			c9.9,32.3-1.4,73.1-28.3,95.7c-22.7,19.1-52.8,25-74.9,44.7c-15.5,13.8-25.2,33.2-39.6,47.8c-16.4,16.7-38.2,26.5-60.2,29.2
			c-7.1,0.9-14.3,1-21.4,0.2c-29.1-3.1-55.9-20.3-71.5-45.6c-12.7-20.6-18-45.6-31.1-66c-10.5-16.4-25.6-29-37.5-44.3
			c-12.2-15.7-21.6-36.7-15.7-56.9c5.3-18.3,22.1-30.3,38.6-35.7c16.5-5.4,33.7-5.6,51.1-7.6C458.1,298.6,476.6,293.7,491,281.4z"/>
		<path class="st0" d="M491.8,293.1c6.1-5.1,10.5-4.6,17.9-4.4c7.8,0.2,15.1,3.1,22.2,6c10.4,4.3,17.5,9.2,27.9,12.4
			c0.7,0.2,1.4,0.4,2.1,0.6c23.3,6.5,47.2-6.5,71.4-9.4c6.9-0.8,13.9-0.7,20.7,0.3c26.5,4.1,49.3,21.9,57.4,49.2
			c8.6,29.1-1.4,65.7-25.5,86.1c-20.4,17.2-47.3,22.7-67.3,40.3c-14,12.4-22.8,29.7-35.8,42.6c-14.9,14.9-34.7,23.4-54.6,25.6
			c-6.5,0.7-13,0.7-19.4,0c-26.3-3-50.6-18.6-64.8-41.4c-11.6-18.6-16.6-41.1-28.6-59.4c-9.6-14.8-23.3-26.2-34.1-40
			c-11.2-14.2-19.8-33.2-14.7-51.5c4.6-16.4,19.6-27.3,34.2-32.3c14.7-5,30-5.4,45.7-7.3C462.1,308.5,478.7,304,491.8,293.1z"/>
		<path class="st0" d="M492.5,304.9c5.5-4.5,9.6-4.1,16.3-3.9c7.1,0.2,13.7,2.8,20.2,5.5c9.4,3.9,15.9,8.4,25.3,11.4
			c0.6,0.2,1.2,0.4,1.9,0.6c21.1,6.1,42.8-5.1,64.7-7.3c6.3-0.6,12.6-0.4,18.8,0.5c24.1,3.9,44.6,20.1,51.8,45.1
			c7.4,25.9-1.4,58.3-22.8,76.4c-18,15.3-41.9,20.3-59.7,35.9c-12.4,10.9-20.3,26.1-31.9,37.5c-13.4,13.1-31.2,20.3-49,22
			c-5.8,0.5-11.6,0.5-17.3-0.2c-23.5-2.9-45.2-16.9-58.1-37.2c-10.5-16.5-15.3-36.5-26.1-52.8c-8.7-13.2-20.9-23.4-30.7-35.7
			c-10.1-12.7-18.1-29.6-13.7-46.1c3.9-14.6,17-24.4,29.9-29c12.9-4.6,26.4-5.2,40.3-7.1C466.1,318.5,480.8,314.4,492.5,304.9z"/>
		<path class="st0" d="M493.3,316.6c5-4,8.7-3.6,14.7-3.4c6.4,0.2,12.3,2.6,18.2,5c8.4,3.5,14.3,7.6,22.7,10.3
			c0.5,0.2,1.1,0.4,1.7,0.5c18.9,5.7,38.5-3.7,58.1-5.3c5.6-0.5,11.3-0.2,16.8,0.8c21.7,3.8,39.9,18.3,46.1,41
			c6.2,22.7-1.5,50.8-20,66.8c-15.7,13.5-36.5,18-52,31.5c-10.9,9.5-17.9,22.6-28.1,32.3c-12,11.3-27.7,17.2-43.3,18.4
			c-5.1,0.4-10.2,0.3-15.2-0.4c-20.7-2.9-39.8-15.2-51.4-33c-9.4-14.5-13.9-31.9-23.6-46.3c-7.8-11.6-18.6-20.6-27.3-31.4
			c-9.1-11.2-16.4-26.1-12.7-40.7c3.2-12.8,14.5-21.4,25.5-25.6c11.1-4.2,22.8-5,34.9-6.8C470.1,328.5,482.9,324.8,493.3,316.6z"/>
		<path class="st0" d="M494,328.4c4.4-3.4,7.8-3.1,13.1-2.8c5.7,0.2,10.9,2.3,16.1,4.5c7.4,3.1,12.8,6.8,20.1,9.3
			c0.5,0.2,1,0.3,1.5,0.5c16.7,5.2,34.1-2.3,51.5-3.3c5-0.3,10,0,14.9,1c19.2,3.7,35.2,16.6,40.4,36.9c5,19.5-1.5,43.4-17.3,57.1
			c-13.3,11.6-31,15.7-44.4,27.1c-9.4,8-15.4,19.1-24.3,27.1c-10.5,9.5-24.2,14-37.7,14.8c-4.4,0.2-8.8,0-13.2-0.7
			c-17.9-2.8-34.4-13.5-44.7-28.8c-8.3-12.4-12.6-27.4-21.1-39.7c-6.9-9.9-16.2-17.8-23.9-27.1c-8-9.7-14.6-22.6-11.7-35.4
			c2.5-11,11.9-18.5,21.1-22.3c9.3-3.8,19.2-4.8,29.5-6.5C474.1,338.5,485,335.2,494,328.4z"/>
		<path class="st0" d="M494.7,340.1c3.9-2.8,7-2.5,11.5-2.3c4.9,0.3,9.6,2.1,14.1,4c6.5,2.7,11.2,6,17.5,8.2
			c0.4,0.2,0.9,0.3,1.3,0.4c14.6,4.8,29.7-0.9,44.8-1.2c4.3-0.1,8.7,0.3,13,1.2c16.8,3.5,30.5,14.8,34.7,32.9
			c3.8,16.3-1.5,36-14.5,47.5c-11,9.7-25.6,13.3-36.7,22.7c-7.8,6.6-13,15.6-20.5,21.9c-9.1,7.7-20.7,10.9-32.1,11.1
			c-3.7,0.1-7.4-0.2-11.1-0.9c-15.1-2.7-29.1-11.8-38-24.5c-7.3-10.4-11.2-22.8-18.6-33.1c-6-8.3-13.9-15-20.5-22.8
			c-7-8.3-12.9-19-10.8-30c1.8-9.2,9.3-15.5,16.8-18.9c7.5-3.4,15.6-4.6,24.1-6.2C478.1,348.5,487.1,345.6,494.7,340.1z"/>
		<path class="st0" d="M495.5,351.9c3.4-2.2,6.1-2,9.9-1.7c4.2,0.3,8.2,1.8,12,3.5c5.5,2.4,9.6,5.1,15,7.2c0.4,0.1,0.7,0.3,1.1,0.4
			c12.4,4.4,25.3,0.5,38.2,0.8c3.7,0.1,7.4,0.5,11,1.4c14.4,3.3,25.8,13,29,28.8c2.7,13-1.5,28.6-11.8,37.8
			c-8.7,7.8-20.1,11-29.1,18.3c-6.3,5.1-10.6,12.1-16.7,16.7c-7.6,5.8-17.2,7.8-26.5,7.5c-3-0.1-6-0.4-9-1.1
			c-12.3-2.6-23.7-10.1-31.3-20.3c-6.2-8.3-9.9-18.2-16.1-26.5c-5-6.7-11.6-12.2-17.1-18.5c-5.9-6.8-11.1-15.5-9.8-24.6
			c1.1-7.3,6.8-12.6,12.4-15.6c5.7-3.1,12-4.4,18.7-5.9C482.1,358.4,489.2,356,495.5,351.9z"/>
		<path class="st0" d="M496.2,363.6c2.8-1.7,5.2-1.5,8.3-1.2c3.5,0.3,6.8,1.6,10,3c4.5,2,8,4.3,12.4,6.1c0.3,0.1,0.6,0.2,0.9,0.4
			c10.2,3.9,20.9,2,31.5,2.9c3,0.3,6.1,0.8,9.1,1.6c11.9,3.2,21.2,11.2,23.4,24.7c1.6,9.8-1.5,21.2-9,28.2
			c-6.3,6-14.7,8.7-21.5,13.9c-4.7,3.7-8.2,8.5-12.8,11.5c-6.2,4-13.7,4.7-20.8,3.9c-2.3-0.2-4.7-0.7-7-1.3
			c-9.5-2.6-18.3-8.4-24.6-16.1c-5.1-6.3-8.5-13.6-13.7-20c-4.1-5.1-9.2-9.4-13.7-14.2c-4.9-5.3-9.3-12-8.8-19.2
			c0.4-5.5,4.2-9.6,8.1-12.2c3.9-2.7,8.3-4.2,13.3-5.7C486,368.4,491.4,366.5,496.2,363.6z"/>
	</g>
	<g>
		<path class="st0" d="M2067.8,333.1c-44.1,42.1-104.5,55.9-161.3,59.8c-56.8,3.9-113.8-0.3-170,13.7
			c-56.2,14-113.6,51.3-134.6,109.3c-22.2,61.3,2.1,127.1,37.5,175.3c35.4,48.2,81.8,86.7,112.5,138.7
			c38.1,64.4,49.3,145.1,85.7,210.7c44.8,80.8,128.4,133.6,219.1,138.4c90.7,4.8,186.4-38.5,250.9-113.4
			c44.2-51.4,74.2-116.2,123.6-161.8c70.5-65.2,169-81.1,243.1-141.5c87.8-71.6,126.5-205.7,88.9-307.9
			c-37.6-102.2-147.9-162.6-253.2-138.7c-75.9,17.2-150.8,72.8-224.1,56.3c-37.3-8.4-58.3-24.4-93.8-38.2
			c-22.2-8.7-45-17.4-69.3-17.4C2098.5,316.3,2086.7,315,2067.8,333.1z"/>
		<path class="st0" d="M2068.5,344.9c18.4-17.5,29.8-16.3,53.4-16.3c23.6,0,45.7,8.5,67.2,16.9c32.3,12.6,52.3,27.1,84.7,35.5
			c2.1,0.5,4.2,1.1,6.3,1.5c71.1,16.1,143.8-37.7,217.5-54.3c21.1-4.8,42.4-6,63.3-4.2c80.1,7.1,153.5,60.2,182.3,139
			c36.4,99-1.1,228.9-86.2,298.3c-71.7,58.5-167.1,73.9-235.4,137.1c-47.9,44.2-76.9,106.9-119.8,156.7
			c-47.3,54.8-111.8,92.1-178.4,105c-21.6,4.2-43.3,5.8-64.8,4.6c-87.9-4.7-168.9-55.9-212.4-134.1
			c-35.3-63.6-46.3-141.7-83.2-204.1c-29.8-50.3-74.7-87.6-109.1-134.4c-34.3-46.7-58-110.5-36.5-169.9
			c20.3-56.2,75.9-92.4,130.3-106c54.3-13.6,109.6-9.7,164.6-13.5C1967.3,399,2025.8,385.6,2068.5,344.9z"/>
		<path class="st0" d="M2069.3,356.6c17.8-16.9,29-15.8,51.8-15.7c22.9,0,44.3,8.3,65.2,16.4c31.3,12.2,50.7,26.3,82.1,34.5
			c2,0.5,4,1,6.1,1.5c68.9,15.7,139.4-36.2,210.8-52.2c20.5-4.6,41.1-5.8,61.4-4c77.7,6.9,148.8,58.5,176.6,134.9
			c35.2,95.8-1.1,221.5-83.4,288.6c-69.4,56.7-161.6,71.6-227.8,132.7c-46.3,42.8-74.5,103.4-116,151.5
			c-45.8,53-108.3,88.9-172.8,101.4c-20.9,4-42,5.6-62.8,4.4c-85.1-4.7-163.5-54.2-205.6-129.9c-34.2-61.5-45-137.1-80.8-197.5
			c-28.9-48.7-72.4-84.8-105.7-130.1c-33.3-45.3-56.2-107-35.5-164.5c19.6-54.4,73.4-89.4,125.9-102.6c52.5-13.3,106-9.5,159.2-13.2
			C1971.3,409,2027.9,396,2069.3,356.6z"/>
		<path class="st0" d="M2070,368.3c17.3-16.4,28.1-15.2,50.2-15.2c22.1,0,42.9,8,63.1,15.9c30.4,11.9,49.2,25.4,79.5,33.4
			c1.9,0.5,3.9,1,5.9,1.5c66.8,15.2,135.1-34.8,204.2-50.2c19.8-4.4,39.8-5.6,59.4-3.8c75.3,6.8,144.1,56.7,171,130.8
			c33.9,92.6-1.2,214-80.7,279c-67.1,54.8-156.2,69.3-220.1,128.3c-44.8,41.3-72,99.8-112.2,146.3c-44.4,51.2-104.8,85.8-167.1,97.8
			c-20.2,3.9-40.6,5.3-60.7,4.2c-82.3-4.6-158.1-52.5-198.9-125.7c-33.2-59.5-43.6-132.5-78.3-191c-27.9-47.1-70.1-82-102.3-125.8
			c-32.2-43.8-54.5-103.4-34.5-159.1c18.9-52.6,70.8-86.5,121.5-99.3c50.7-12.9,102.4-9.3,153.8-12.9
			C1975.3,419,2030,406.4,2070,368.3z"/>
		<path class="st0" d="M2070.8,380.1c16.7-15.8,27.2-14.7,48.6-14.7c21.4,0,41.5,7.8,61.1,15.4c29.4,11.5,47.6,24.6,76.9,32.4
			c1.9,0.5,3.8,1,5.7,1.4c64.6,14.8,130.7-33.4,197.5-48.1c19.2-4.2,38.5-5.3,57.5-3.6c72.8,6.7,139.2,55,165.3,126.8
			c32.5,89.5-1.2,206.6-77.9,269.3c-64.7,52.9-150.7,67-212.5,123.9c-43.3,39.9-69.6,96.3-108.3,141.1
			c-42.9,49.3-101.3,82.7-161.5,94.1c-19.5,3.7-39.2,5.1-58.6,4c-79.5-4.5-152.7-50.8-192.2-121.5c-32.1-57.4-42.3-128-75.8-184.4
			c-27-45.5-67.7-79.3-98.8-121.5c-31.2-42.3-52.7-99.9-33.5-153.8c18.2-50.8,68.2-83.5,117.2-96c48.9-12.5,98.8-9.1,148.4-12.6
			C1979.2,428.9,2032.1,416.8,2070.8,380.1z"/>
		<path class="st0" d="M2071.5,391.8c16.2-15.2,26.3-14.2,47-14.1c20.7,0.1,40.1,7.5,59,14.9c28.4,11.1,46,23.8,74.3,31.3
			c1.8,0.5,3.6,0.9,5.5,1.4c62.4,14.4,126.3-32,190.9-46.1c18.5-4,37.2-5.1,55.6-3.4c70.4,6.5,134.5,53.3,159.6,122.7
			c31.3,86.4-1.2,199.2-75.1,259.7c-62.4,51-145.3,64.6-204.8,119.5c-41.7,38.4-67.1,92.8-104.5,135.9
			c-41.4,47.5-97.8,79.6-155.9,90.5c-18.8,3.5-37.8,4.9-56.6,3.8c-76.7-4.4-147.4-49.1-185.5-117.3c-31-55.4-40.9-123.4-73.3-177.8
			c-26.1-43.9-65.4-76.5-95.4-117.2c-30.1-40.8-51-96.4-32.6-148.4c17.5-49,65.7-80.6,112.8-92.6c47.1-12.1,95.2-8.9,143-12.4
			C1983.2,438.9,2034.2,427.2,2071.5,391.8z"/>
		<path class="st0" d="M2072.2,403.6c15.6-14.7,25.4-13.6,45.3-13.6c20,0.1,38.7,7.3,57,14.4c27.4,10.7,44.4,23,71.8,30.3
			c1.7,0.5,3.5,0.9,5.3,1.3c60.2,13.9,121.9-30.6,184.3-44.1c17.9-3.9,35.9-4.8,53.6-3.2c68,6.4,129.8,51.5,153.9,118.6
			c30,83.2-1.2,191.8-72.4,250c-60,49.1-139.9,62.3-197.2,115.1c-40.2,37-64.6,89.4-100.7,130.7c-39.9,45.8-94.3,76.5-150.2,86.9
			c-18.1,3.4-36.4,4.6-54.5,3.6c-73.9-4.3-142-47.4-178.8-113.1c-29.9-53.3-39.6-118.8-70.8-171.2c-25.2-42.3-63-73.7-92-112.9
			c-29.1-39.3-49.3-92.9-31.6-143c16.7-47.2,63.1-77.6,108.4-89.3c45.3-11.7,91.5-8.7,137.6-12.1
			C1987.2,448.9,2036.2,437.5,2072.2,403.6z"/>
		<path class="st0" d="M2073,415.3c15-14.1,24.6-13.1,43.7-13.1c19.3,0.1,37.3,7,54.9,13.9c26.4,10.3,42.8,22.2,69.2,29.2
			c1.7,0.4,3.4,0.9,5.2,1.3c58.1,13.5,117.5-29.2,177.6-42c17.2-3.7,34.6-4.6,51.7-3c65.5,6.3,125,49.8,148.3,114.5
			c28.7,80-1.2,184.4-69.6,240.4c-57.7,47.3-134.4,60-189.6,110.7c-38.6,35.5-62.1,85.8-96.9,125.6c-38.4,43.9-90.8,73.3-144.6,83.3
			c-17.4,3.2-35.1,4.4-52.4,3.4c-71.1-4.3-136.6-45.7-172.1-108.9c-28.8-51.3-38.2-114.2-68.3-164.7
			c-24.3-40.6-60.7-70.9-88.6-108.6c-28-37.9-47.6-89.4-30.6-137.6c16-45.4,60.6-74.6,104.1-85.9c43.5-11.3,87.9-8.5,132.2-11.8
			C1991.2,458.9,2038.3,447.9,2073,415.3z"/>
		<path class="st0" d="M2073.7,427c14.5-13.6,23.7-12.6,42.1-12.5c18.6,0.1,35.9,6.8,52.9,13.4c25.4,10,41.2,21.4,66.6,28.2
			c1.6,0.4,3.3,0.9,5,1.2c55.9,13.1,113.1-27.8,171-40c16.6-3.5,33.3-4.3,49.7-2.8c63.1,6.1,120.3,48.1,142.6,110.4
			c27.5,76.8-1.2,177-66.9,230.8c-55.4,45.4-129,57.6-181.9,106.3c-37.1,34.1-59.7,82.3-93.1,120.4c-37,42.1-87.2,70.2-139,79.7
			c-16.8,3.1-33.7,4.2-50.4,3.2c-68.3-4.2-131.2-44-165.4-104.6c-27.8-49.2-36.9-109.7-65.8-158.1c-23.4-39-58.4-68.1-85.2-104.3
			c-27-36.4-45.9-85.9-29.6-132.2c15.3-43.6,58-71.7,99.7-82.6c41.7-10.9,84.3-8.3,126.8-11.5C1995.2,468.9,2040.4,458.3,2073.7,427
			z"/>
		<path class="st0" d="M2074.4,438.8c13.9-13,22.8-12,40.5-12c17.8,0.1,34.5,6.5,50.9,12.9c24.4,9.6,39.7,20.6,64,27.1
			c1.6,0.4,3.1,0.8,4.8,1.2c53.7,12.6,108.7-26.3,164.3-37.9c16-3.3,32.1-4.1,47.8-2.6c60.7,6,115.6,46.3,136.9,106.3
			c26.2,73.7-1.2,169.5-64.1,221.1c-53,43.5-123.5,55.3-174.3,101.9c-35.6,32.6-57.2,78.8-89.2,115.2
			c-35.5,40.3-83.7,67.1-133.4,76.1c-16.1,2.9-32.3,4-48.3,3c-65.5-4.1-125.8-42.3-158.7-100.4c-26.7-47.2-35.5-105.1-63.4-151.5
			c-22.4-37.4-56-65.3-81.8-100c-25.9-34.9-44.1-82.4-28.6-126.8c14.6-41.8,55.4-68.7,95.4-79.2c39.9-10.5,80.7-8.1,121.4-11.2
			C1999.2,478.8,2042.5,468.7,2074.4,438.8z"/>
		<path class="st0" d="M2075.2,450.5c13.3-12.4,21.9-11.5,38.9-11.4c17.1,0.1,33.2,6.3,48.8,12.5c23.4,9.2,38.1,19.8,61.4,26.1
			c1.5,0.4,3,0.8,4.6,1.2c51.5,12.2,104.3-24.9,157.7-35.9c15.3-3.1,30.8-3.9,45.9-2.3c58.2,5.8,110.8,44.6,131.2,102.3
			c24.9,70.5-1.3,162.1-61.4,211.5c-50.7,41.6-118.1,53-166.6,97.5c-34,31.2-54.8,75.3-85.4,110c-34,38.5-80.2,64-127.7,72.5
			c-15.4,2.8-30.9,3.7-46.2,2.7c-62.7-4-120.5-40.6-152-96.2c-25.6-45.2-34.2-100.5-60.9-144.9c-21.5-35.8-53.7-62.5-78.4-95.8
			c-24.9-33.4-42.4-78.9-27.6-121.5c13.9-40,52.9-65.8,91-75.9c38.1-10.1,77.1-7.9,116-11C2003.2,488.8,2044.6,479,2075.2,450.5z"/>
		<path class="st0" d="M2075.9,462.3c12.8-11.9,21-11,37.3-10.9c16.4,0.1,31.8,6,46.8,12c22.4,8.8,36.5,19,58.9,25
			c1.4,0.4,2.9,0.8,4.4,1.1c49.4,11.7,99.9-23.5,151.1-33.9c14.7-3,29.5-3.6,43.9-2.1c55.8,5.7,106.1,42.8,125.6,98.2
			c23.7,67.3-1.3,154.7-58.6,201.8c-48.4,39.8-112.6,50.6-159,93.1c-32.5,29.7-52.3,71.8-81.6,104.8
			c-32.5,36.7-76.7,60.9-122.1,68.9c-14.7,2.6-29.5,3.5-44.2,2.5c-59.9-4-115.1-38.9-145.3-92c-24.5-43.1-32.8-96-58.4-138.3
			c-20.6-34.2-51.4-59.7-75-91.5c-23.8-31.9-40.6-75.4-26.6-116.1c13.2-38.2,50.3-62.8,86.6-72.5c36.3-9.7,73.5-7.7,110.5-10.7
			C2007.2,498.8,2046.6,489.4,2075.9,462.3z"/>
		<path class="st0" d="M2076.7,474c12.2-11.3,20.2-10.5,35.7-10.4c15.7,0.1,30.4,5.8,44.7,11.5c21.4,8.4,34.9,18.1,56.3,24
			c1.4,0.4,2.8,0.7,4.2,1.1c47.2,11.3,95.5-22.1,144.4-31.8c14-2.8,28.2-3.4,42-1.9c53.3,5.6,101.4,41.1,119.9,94.1
			c22.4,64.2-1.3,147.3-55.9,192.2c-46,37.9-107.2,48.3-151.4,88.7c-30.9,28.3-49.8,68.3-77.8,99.6c-31.1,34.9-73.2,57.7-116.5,65.3
			c-14,2.4-28.1,3.3-42.1,2.3c-57.1-3.9-109.7-37.2-138.6-87.8c-23.4-41.1-31.5-91.4-55.9-131.8c-19.7-32.6-49-56.9-71.6-87.2
			c-22.8-30.4-38.9-71.8-25.6-110.7c12.4-36.3,47.7-59.9,82.3-69.2c34.5-9.4,69.8-7.5,105.1-10.4
			C2011.2,508.8,2048.7,499.8,2076.7,474z"/>
		<path class="st0" d="M2077.4,485.7c11.7-10.7,19.3-9.9,34.1-9.8c15,0.1,29,5.5,42.7,11c20.4,8.1,33.3,17.3,53.7,22.9
			c1.3,0.4,2.6,0.7,4,1c45,10.9,91.1-20.7,137.8-29.8c13.4-2.6,26.9-3.1,40.1-1.7c50.9,5.4,96.6,39.3,114.2,90
			c21.1,61-1.3,139.9-53.1,182.5c-43.7,36-101.8,46-143.7,84.3c-29.4,26.9-47.4,64.8-74,94.5c-29.6,33-69.7,54.6-110.9,61.7
			c-13.3,2.3-26.8,3-40,2.1c-54.3-3.8-104.3-35.5-131.9-83.6c-22.4-39-30.1-86.8-53.4-125.2c-18.8-31-46.7-54.1-68.2-82.9
			c-21.7-29-37.2-68.3-24.6-105.3c11.7-34.5,45.2-56.9,77.9-65.8c32.7-9,66.2-7.3,99.7-10.1C2015.2,518.8,2050.8,510.2,2077.4,485.7
			z"/>
		<path class="st0" d="M2078.1,497.5c11.1-10.2,18.4-9.4,32.4-9.3c14.3,0.1,27.6,5.3,40.6,10.5c19.4,7.7,31.7,16.5,51.1,21.9
			c1.2,0.3,2.5,0.7,3.8,1c42.8,10.4,86.8-19.3,131.1-27.7c12.7-2.4,25.6-2.9,38.1-1.5c48.5,5.3,91.9,37.6,108.5,85.9
			c19.9,57.8-1.3,132.4-50.3,172.9c-41.4,34.1-96.3,43.6-136.1,79.9c-27.9,25.4-44.9,61.3-70.1,89.3
			c-28.1,31.2-66.2,51.5-105.2,58.1c-12.6,2.1-25.4,2.8-38,1.9c-51.5-3.7-99-33.8-125.2-79.3c-21.3-37-28.8-82.2-50.9-118.6
			c-17.9-29.3-44.3-51.3-64.8-78.6c-20.7-27.5-35.4-64.8-23.6-99.9c11-32.7,42.6-54,73.5-62.5c30.9-8.6,62.6-7.1,94.3-9.8
			C2019.2,528.7,2052.9,520.6,2078.1,497.5z"/>
		<path class="st0" d="M2078.9,509.2c10.6-9.6,17.5-8.9,30.8-8.7c13.5,0.2,26.2,5,38.6,10c18.4,7.3,30.2,15.7,48.5,20.8
			c1.2,0.3,2.4,0.6,3.6,1c40.7,10,82.4-17.8,124.5-25.7c12.1-2.3,24.3-2.6,36.2-1.3c46,5.2,87.2,35.9,102.8,81.8
			c18.6,54.6-1.3,125-47.6,163.2c-39,32.2-90.9,41.3-128.4,75.5c-26.3,24-42.5,57.7-66.3,84.1c-26.6,29.4-62.7,48.4-99.6,54.4
			c-11.9,2-24,2.6-35.9,1.7c-48.7-3.6-93.6-32.1-118.5-75.1c-20.2-34.9-27.4-77.7-48.4-112c-17-27.7-42-48.5-61.4-74.3
			c-19.6-26-33.7-61.3-22.6-94.6c10.3-30.9,40.1-51,69.2-59.1c29.1-8.2,59-6.9,88.9-9.6C2023.2,538.7,2055,531,2078.9,509.2z"/>
		<path class="st0" d="M2079.6,521c10-9,16.6-8.3,29.2-8.2c12.8,0.2,24.8,4.8,36.6,9.5c17.4,6.9,28.6,14.9,45.9,19.8
			c1.1,0.3,2.3,0.6,3.4,0.9c38.5,9.6,78-16.4,117.9-23.7c11.4-2.1,23-2.4,34.3-1.1c43.6,5,82.4,34.1,97.2,77.8
			c17.4,51.4-1.3,117.6-44.8,153.6c-36.7,30.4-85.4,39-120.8,71.1c-24.8,22.5-40,54.2-62.5,78.9c-25.2,27.6-59.2,45.2-94,50.8
			c-11.3,1.8-22.6,2.3-33.8,1.5c-45.9-3.6-88.2-30.4-111.8-70.9c-19.1-32.9-26.1-73.1-46-105.5c-16-26.1-39.7-45.7-58-70
			c-18.6-24.5-32-57.8-21.7-89.2c9.6-29.1,37.5-48.1,64.8-55.8c27.3-7.8,55.4-6.7,83.5-9.3C2027.2,548.7,2057.1,541.3,2079.6,521z"
			/>
		<path class="st0" d="M2080.4,532.7c9.4-8.5,15.8-7.8,27.6-7.7c12.1,0.2,23.4,4.5,34.5,9c16.4,6.5,27,14.1,43.4,18.7
			c1.1,0.3,2.1,0.6,3.2,0.9c36.3,9.1,73.6-15,111.2-21.6c10.8-1.9,21.7-2.1,32.3-0.9c41.2,4.9,77.7,32.4,91.5,73.7
			c16.1,48.3-1.3,110.2-42.1,143.9c-34.4,28.5-80,36.6-113.2,66.7c-23.2,21.1-37.5,50.7-58.7,73.7c-23.7,25.8-55.7,42.1-88.4,47.2
			c-10.6,1.7-21.2,2.1-31.8,1.3c-43.1-3.5-82.8-28.7-105.1-66.7c-18.1-30.8-24.7-68.5-43.5-98.9c-15.1-24.5-37.3-42.9-54.6-65.7
			c-17.5-23-30.2-54.3-20.7-83.8c8.9-27.3,34.9-45.1,60.4-52.4c25.5-7.4,51.8-6.5,78.1-9C2031.1,558.7,2059.2,551.7,2080.4,532.7z"
			/>
		<path class="st0" d="M2081.1,544.4c8.9-7.9,14.9-7.3,26-7.1c11.4,0.2,22.1,4.3,32.5,8.5c15.4,6.2,25.4,13.3,40.8,17.7
			c1,0.3,2,0.6,3,0.8c34.1,8.7,69.2-13.6,104.6-19.6c10.1-1.7,20.4-1.9,30.4-0.7c38.7,4.7,73,30.6,85.8,69.6
			c14.8,45.1-1.4,102.8-39.3,134.3c-32,26.6-74.6,34.3-105.5,62.3c-21.7,19.6-35.1,47.2-54.9,68.6c-22.2,24-52.2,39-82.7,43.6
			c-9.9,1.5-19.9,1.9-29.7,1c-40.3-3.4-77.5-27-98.3-62.5c-17-28.8-23.4-63.9-41-92.3c-14.2-22.9-35-40.1-51.2-61.4
			c-16.5-21.6-28.5-50.7-19.7-78.4c8.1-25.5,32.4-42.1,56.1-49.1c23.7-7,48.1-6.3,72.7-8.7C2035.1,568.7,2061.2,562.1,2081.1,544.4z
			"/>
		<path class="st0" d="M2081.8,556.2c8.3-7.3,14-6.7,24.4-6.6c10.7,0.2,20.7,4.1,30.4,8c14.4,5.8,23.8,12.5,38.2,16.6
			c0.9,0.3,1.9,0.5,2.8,0.8c32,8.3,64.8-12.2,97.9-17.5c9.5-1.5,19.1-1.7,28.4-0.5c36.3,4.6,68.3,28.9,80.1,65.5
			c13.6,41.9-1.4,95.3-36.6,124.7c-29.7,24.7-69.1,32-97.9,57.9c-20.1,18.2-32.6,43.7-51,63.4c-20.8,22.2-48.7,35.9-77.1,40
			c-9.2,1.3-18.5,1.6-27.6,0.8c-37.5-3.3-72.1-25.3-91.6-58.3c-15.9-26.7-22-59.4-38.5-85.7c-13.3-21.3-32.6-37.3-47.8-57.1
			c-15.4-20.1-26.8-47.2-18.7-73c7.4-23.7,29.8-39.2,51.7-45.7c21.9-6.6,44.5-6.1,67.3-8.5C2039.1,578.7,2063.3,572.5,2081.8,556.2z
			"/>
		<path class="st0" d="M2082.6,567.9c7.8-6.8,13.1-6.2,22.8-6c9.9,0.2,19.3,3.8,28.4,7.5c13.4,5.4,22.2,11.7,35.6,15.6
			c0.9,0.3,1.7,0.5,2.6,0.7c29.8,7.8,60.4-10.8,91.3-15.5c8.9-1.4,17.8-1.4,26.5-0.3c33.9,4.5,63.5,27.1,74.5,61.4
			c12.3,38.7-1.4,87.9-33.8,115c-27.4,22.9-63.7,29.7-90.2,53.5c-18.6,16.7-30.2,40.2-47.2,58.2c-19.3,20.3-45.2,32.8-71.5,36.4
			c-8.5,1.2-17.1,1.4-25.6,0.6c-34.7-3.3-66.7-23.6-84.9-54.1c-14.8-24.7-20.7-54.8-36-79.2c-12.4-19.6-30.3-34.5-44.4-52.9
			c-14.4-18.6-25-43.7-17.7-67.6c6.7-21.9,27.3-36.2,47.3-42.4c20.1-6.2,40.9-5.9,61.9-8.2C2043.1,588.6,2065.4,582.9,2082.6,567.9z
			"/>
		<path class="st0" d="M2083.3,579.7c7.2-6.2,12.2-5.7,21.2-5.5c9.2,0.2,17.9,3.6,26.3,7c12.4,5,20.7,10.8,33,14.5
			c0.8,0.2,1.6,0.5,2.5,0.7c27.6,7.4,56-9.4,84.7-13.5c8.2-1.2,16.5-1.2,24.6-0.1c31.4,4.3,58.8,25.4,68.8,57.3
			c11.1,35.5-1.4,80.5-31,105.4c-25,21-58.2,27.3-82.6,49.1c-17.1,15.3-27.7,36.7-43.4,53c-17.8,18.5-41.7,29.6-65.9,32.8
			c-7.8,1-15.7,1.2-23.5,0.4c-31.9-3.2-61.3-22-78.2-49.8c-13.7-22.7-19.3-50.2-33.5-72.6c-11.5-18-27.9-31.7-40.9-48.6
			c-13.3-17.1-23.3-40.2-16.7-62.3c6-20.1,24.7-33.2,43-39c18.3-5.8,37.3-5.7,56.5-7.9C2047.1,598.6,2067.5,593.3,2083.3,579.7z"/>
		<path class="st0" d="M2084,591.4c6.7-5.6,11.4-5.2,19.6-5c8.5,0.2,16.5,3.3,24.3,6.5c11.4,4.6,19.1,10,30.5,13.5
			c0.7,0.2,1.5,0.4,2.3,0.7c25.4,7,51.6-7.9,78-11.4c7.6-1,15.2-0.9,22.6,0.1c29,4.2,54.1,23.6,63.1,53.3
			c9.9,32.3-1.4,73.1-28.3,95.7c-22.7,19.1-52.8,25-74.9,44.7c-15.5,13.8-25.2,33.2-39.6,47.8c-16.4,16.7-38.2,26.5-60.2,29.2
			c-7.1,0.9-14.3,1-21.4,0.2c-29.1-3.1-55.9-20.3-71.5-45.6c-12.7-20.6-18-45.6-31.1-66c-10.5-16.4-25.6-29-37.5-44.3
			c-12.2-15.7-21.6-36.7-15.7-56.9c5.3-18.3,22.1-30.3,38.6-35.7c16.5-5.4,33.7-5.6,51.1-7.6C2051.1,608.6,2069.6,603.7,2084,591.4z
			"/>
		<path class="st0" d="M2084.8,603.1c6.1-5.1,10.5-4.6,17.9-4.4c7.8,0.2,15.1,3.1,22.2,6c10.4,4.3,17.5,9.2,27.9,12.4
			c0.7,0.2,1.4,0.4,2.1,0.6c23.3,6.5,47.2-6.5,71.4-9.4c6.9-0.8,13.9-0.7,20.7,0.3c26.5,4.1,49.3,21.9,57.4,49.2
			c8.6,29.1-1.4,65.7-25.5,86.1c-20.4,17.2-47.3,22.7-67.3,40.3c-14,12.4-22.8,29.7-35.8,42.6c-14.9,14.9-34.7,23.4-54.6,25.6
			c-6.5,0.7-13,0.7-19.4,0c-26.3-3-50.6-18.6-64.8-41.4c-11.6-18.6-16.6-41.1-28.6-59.4c-9.6-14.8-23.3-26.2-34.1-40
			c-11.2-14.2-19.8-33.2-14.7-51.5c4.6-16.4,19.6-27.3,34.2-32.3c14.7-5,30-5.4,45.7-7.3C2055.1,618.5,2071.7,614,2084.8,603.1z"/>
		<path class="st0" d="M2085.5,614.9c5.5-4.5,9.6-4.1,16.3-3.9c7.1,0.2,13.7,2.8,20.2,5.5c9.4,3.9,15.9,8.4,25.3,11.4
			c0.6,0.2,1.2,0.4,1.9,0.6c21.1,6.1,42.8-5.1,64.7-7.3c6.3-0.6,12.6-0.4,18.8,0.5c24.1,3.9,44.6,20.1,51.8,45.1
			c7.4,25.9-1.4,58.3-22.8,76.4c-18,15.3-41.9,20.3-59.7,35.9c-12.4,10.9-20.3,26.1-31.9,37.5c-13.4,13.1-31.2,20.3-49,22
			c-5.8,0.5-11.6,0.5-17.3-0.2c-23.5-2.9-45.2-16.9-58.1-37.2c-10.5-16.5-15.3-36.5-26.1-52.8c-8.7-13.2-20.9-23.4-30.7-35.7
			c-10.1-12.7-18.1-29.6-13.7-46.1c3.9-14.6,17-24.4,29.9-29c12.9-4.6,26.4-5.2,40.3-7.1C2059.1,628.5,2073.8,624.4,2085.5,614.9z"
			/>
		<path class="st0" d="M2086.3,626.6c5-4,8.7-3.6,14.7-3.4c6.4,0.2,12.3,2.6,18.2,5c8.4,3.5,14.3,7.6,22.7,10.3
			c0.5,0.2,1.1,0.4,1.7,0.5c18.9,5.7,38.5-3.7,58.1-5.3c5.6-0.5,11.3-0.2,16.8,0.8c21.7,3.8,39.9,18.3,46.1,41
			c6.2,22.7-1.4,50.8-20,66.8c-15.7,13.5-36.5,18-52,31.5c-10.9,9.5-17.9,22.6-28.1,32.3c-12,11.3-27.7,17.2-43.3,18.4
			c-5.1,0.4-10.2,0.3-15.2-0.4c-20.7-2.9-39.8-15.2-51.4-33c-9.4-14.5-13.9-31.9-23.6-46.3c-7.8-11.6-18.6-20.6-27.3-31.4
			c-9.1-11.2-16.4-26.1-12.7-40.7c3.2-12.8,14.5-21.4,25.5-25.6c11.1-4.2,22.8-5,34.9-6.8C2063.1,638.5,2075.9,634.8,2086.3,626.6z"
			/>
		<path class="st0" d="M2087,638.4c4.4-3.4,7.8-3.1,13.1-2.8c5.7,0.2,10.9,2.3,16.1,4.5c7.4,3.1,12.8,6.8,20.1,9.3
			c0.5,0.2,1,0.3,1.5,0.5c16.7,5.2,34.1-2.3,51.5-3.3c5-0.3,10,0,14.9,1c19.2,3.7,35.2,16.6,40.4,36.9c5,19.5-1.5,43.4-17.3,57.1
			c-13.3,11.6-31,15.7-44.4,27.1c-9.4,8-15.4,19.1-24.3,27.1c-10.5,9.5-24.2,14-37.7,14.8c-4.4,0.2-8.8,0-13.2-0.7
			c-17.9-2.8-34.4-13.5-44.7-28.8c-8.3-12.4-12.6-27.4-21.1-39.7c-6.9-9.9-16.2-17.8-23.9-27.1c-8-9.7-14.6-22.6-11.7-35.4
			c2.5-11,11.9-18.5,21.1-22.3c9.3-3.8,19.2-4.8,29.5-6.5C2067.1,648.5,2078,645.2,2087,638.4z"/>
		<path class="st0" d="M2087.7,650.1c3.9-2.8,7-2.5,11.5-2.3c4.9,0.3,9.6,2.1,14.1,4c6.5,2.7,11.2,6,17.5,8.2
			c0.4,0.2,0.9,0.3,1.3,0.4c14.6,4.8,29.7-0.9,44.8-1.2c4.3-0.1,8.7,0.3,13,1.2c16.8,3.5,30.5,14.8,34.7,32.9
			c3.8,16.3-1.5,36-14.5,47.5c-11,9.7-25.6,13.3-36.7,22.7c-7.8,6.6-13,15.6-20.5,21.9c-9.1,7.7-20.7,10.9-32.1,11.1
			c-3.7,0.1-7.4-0.2-11.1-0.9c-15.1-2.7-29.1-11.8-38-24.5c-7.3-10.4-11.2-22.8-18.6-33.1c-6-8.3-13.9-15-20.5-22.8
			c-7-8.3-12.9-19-10.8-30c1.8-9.2,9.3-15.5,16.8-18.9c7.5-3.4,15.6-4.6,24.1-6.2C2071.1,658.5,2080.1,655.6,2087.7,650.1z"/>
		<path class="st0" d="M2088.5,661.9c3.4-2.2,6.1-2,9.9-1.7c4.2,0.3,8.2,1.8,12,3.5c5.5,2.4,9.6,5.1,15,7.2c0.4,0.1,0.7,0.3,1.1,0.4
			c12.4,4.4,25.3,0.5,38.2,0.8c3.7,0.1,7.4,0.5,11,1.4c14.4,3.3,25.8,13,29,28.8c2.7,13-1.5,28.6-11.8,37.8
			c-8.7,7.8-20.1,11-29.1,18.3c-6.3,5.1-10.6,12.1-16.7,16.7c-7.6,5.8-17.2,7.8-26.5,7.5c-3-0.1-6-0.4-9-1.1
			c-12.3-2.6-23.7-10.1-31.3-20.3c-6.2-8.3-9.9-18.2-16.1-26.5c-5-6.7-11.6-12.2-17.1-18.5c-5.9-6.8-11.1-15.5-9.8-24.6
			c1.1-7.3,6.8-12.6,12.4-15.6c5.7-3.1,12-4.4,18.7-5.9C2075.1,668.4,2082.2,666,2088.5,661.9z"/>
		<path class="st0" d="M2089.2,673.6c2.8-1.7,5.2-1.5,8.3-1.2c3.5,0.3,6.8,1.6,10,3c4.5,2,8,4.3,12.4,6.1c0.3,0.1,0.6,0.2,0.9,0.4
			c10.2,3.9,20.9,2,31.5,2.9c3,0.3,6.1,0.8,9.1,1.6c11.9,3.2,21.2,11.2,23.4,24.7c1.6,9.8-1.5,21.2-9,28.2
			c-6.3,6-14.7,8.7-21.5,13.9c-4.7,3.7-8.2,8.5-12.8,11.5c-6.2,4-13.7,4.7-20.8,3.9c-2.3-0.2-4.7-0.7-7-1.3
			c-9.5-2.6-18.3-8.4-24.6-16.1c-5.1-6.3-8.5-13.6-13.7-20c-4.1-5.1-9.2-9.4-13.7-14.2c-4.9-5.3-9.3-12-8.8-19.2
			c0.4-5.5,4.2-9.6,8.1-12.2c3.9-2.7,8.3-4.2,13.3-5.7C2079,678.4,2084.4,676.5,2089.2,673.6z"/>
	</g>
</g>
</svg>
