<?xml version="1.0" encoding="utf-8"?>
<!-- Generator: Adobe Illustrator 24.1.2, SVG Export Plug-In . SVG Version: 6.00 Build 0)  -->
<svg version="1.1" id="Layer_1" xmlns="http://www.w3.org/2000/svg" xmlns:xlink="http://www.w3.org/1999/xlink" x="0px" y="0px"
	 viewBox="0 0 2670 1780" style="enable-background:new 0 0 2670 1780;" xml:space="preserve">
<style type="text/css">
	.st0{fill:none;stroke:#FFFFFF;stroke-width:0.75;stroke-miterlimit:10;}
	.st1{fill:none;}
</style>
<g>
	<g>
		<path class="st0" d="M541.5,254.6c72.9,1.9,137.6-34.4,191.1-76.5c53.5-42.2,100.8-91.7,161.9-124.4
			c61.1-32.7,142-45.7,207.3-11.1c68.9,36.5,100.2,114.4,107.5,185.6c7.3,71.2-2.9,142.6,11.6,213.4c18,87.7,72.8,168.3,93.2,255.8
			c25.1,107.7-6.6,221.6-83.2,298.7c-76.6,77.1-196.3,115.6-313.7,100.9c-80.6-10.1-159.1-43.4-239.7-44.3
			c-115-1.2-215.1,63.8-329.3,69.7c-135.4,7-277.5-80.9-326.2-201.8c-48.7-120.9,0.6-263,113.3-326.4
			c81.2-45.7,192.3-56.5,244-130.1c26.3-37.4,32.2-68.4,52.5-109.2c12.7-25.5,25.9-51.6,47.4-71.1
			C500.8,264.4,510.2,253.8,541.5,254.6z"/>
		<path class="st0" d="M550.3,265.6c-30.4-0.8-39.6,9.5-60.5,28.4c-20.9,18.9-33.7,44.2-46,69c-18.6,37.2-24.7,66-46.6,99.6
			c-1.4,2.1-2.8,4.3-4.4,6.4c-50.2,71.4-157.9,82.1-236.5,126.5c-22.6,12.7-42.5,28.7-59.5,47.1C31.4,713.4,9.1,819.4,46.7,912.5
			c47.3,117.1,184.9,202.2,316,195.4c110.7-5.7,207.6-68.6,319-67.5c78,0.8,154.1,33,232.1,42.7c86,10.7,173.1-8.1,242.6-50.2
			c22.5-13.6,43.1-29.7,61.3-48c74.2-74.8,104.9-185.2,80.6-289.6c-19.7-84.8-72.7-162.9-90.1-248c-14-68.6-4.1-137.8-11.2-206.8
			c-7.1-69.1-37.3-144.6-104.1-180.1c-63.2-33.5-141.6-21-200.7,10.6c-59.2,31.6-105,79.5-156.8,120.3
			C683.6,232.3,621,267.5,550.3,265.6z"/>
		<path class="st0" d="M559.1,276.6c-29.4-0.7-38.4,9.3-58.6,27.6c-20.3,18.4-32.6,42.9-44.6,66.9c-18,36-23.9,64.1-45.1,96.5
			c-1.3,2.1-2.8,4.1-4.2,6.2c-48.6,69.3-152.8,79.9-229,123c-21.8,12.4-41.2,27.9-57.6,45.7c-63.4,68.6-85,171.4-48.3,261.6
			c45.8,113.3,178.9,195.6,305.9,189.1c107.1-5.5,200.9-66.3,308.7-65.2c75.5,0.7,149.1,31.9,224.6,41.2
			c83.2,10.2,167.5-8.1,234.7-48.8c21.7-13.2,41.7-28.8,59.3-46.5c71.7-72.5,101.5-179.4,78.1-280.5c-19-82.1-70.2-157.8-87-240.1
			c-13.5-66.4-3.9-133.4-10.7-200.3c-6.8-66.9-36-140.1-100.6-174.5c-61.1-32.5-136.9-20.4-194.2,10.1
			c-57.3,30.5-101.7,76.7-151.8,116.2C688.1,244.4,627.4,278.4,559.1,276.6z"/>
		<path class="st0" d="M567.9,287.6c-28.5-0.6-37.1,9-56.7,26.8c-19.6,17.8-31.6,41.6-43.2,64.8c-17.4,34.9-23.2,62.1-43.7,93.5
			c-1.3,2-2.7,4-4.1,6.1c-47,67.1-147.8,77.6-221.5,119.5c-21.1,12-39.8,27.1-55.8,44.4c-61.3,66.5-82.3,166-46.6,253.4
			c44.3,109.4,173,189,295.7,182.7c103.5-5.3,194.2-64,298.3-63c73,0.7,144.1,30.7,217,39.7c80.5,9.8,161.9-8,226.8-47.5
			c21-12.8,40.3-27.9,57.3-45c69.3-70.2,98.1-173.6,75.5-271.3c-18.3-79.4-67.8-152.6-84-232.3c-13.1-64.2-3.7-129.1-10.3-193.7
			c-6.6-64.7-34.8-135.5-97.2-168.9c-59-31.5-132.3-19.8-187.6,9.5c-55.4,29.3-98.3,74-146.8,112.1
			C692.6,256.4,633.9,289.3,567.9,287.6z"/>
		<path class="st0" d="M576.6,298.7c-27.5-0.6-35.9,8.8-54.9,26c-19,17.2-30.6,40.2-41.8,62.8c-16.8,33.8-22.4,60.1-42.2,90.5
			c-1.3,1.9-2.6,3.9-4,5.9c-45.4,65-142.8,75.3-213.9,116c-20.4,11.7-38.5,26.2-53.9,43c-59.3,64.4-79.3,160.7-44.8,245.2
			c43.1,105.6,167,182.4,285.5,176.4c99.9-5.1,187.5-61.7,288-60.8c70.4,0.6,139.1,29.6,209.5,38.2c77.7,9.3,156.3-8,218.9-46.2
			c20.3-12.4,38.9-27,55.2-43.5c66.9-67.8,94.7-167.7,73-262.2c-17.7-76.7-65.3-147.5-80.9-224.5c-12.6-62.1-3.6-124.7-9.9-187.2
			c-6.3-62.6-33.5-131-93.7-163.4c-57-30.4-127.6-19.3-181,9c-53.4,28.2-94.9,71.3-141.8,108C697.1,268.5,640.4,300.2,576.6,298.7z"
			/>
		<path class="st0" d="M585.4,309.7c-26.6-0.5-34.7,8.6-53,25.2c-18.3,16.7-29.5,38.9-40.4,60.7c-16.2,32.6-21.7,58.1-40.8,87.5
			c-1.2,1.9-2.5,3.8-3.8,5.7c-43.8,62.9-137.7,73-206.4,112.4c-19.7,11.3-37.1,25.4-52,41.6c-57.2,62.3-76.5,155.3-43.1,237
			c41.6,101.7,161.1,175.8,275.3,170c96.3-4.8,180.8-59.4,277.7-58.5c67.9,0.6,134.1,28.4,201.9,36.6c74.9,8.9,150.7-7.9,211-44.9
			c19.5-12,37.5-26,53.2-42.1c64.5-65.5,91.3-161.9,70.4-253.1c-17-74-62.8-142.3-77.8-216.6c-12.1-59.9-3.4-120.4-9.5-180.7
			c-6.1-60.4-32.2-126.5-90.3-157.8c-54.9-29.4-123-18.7-174.5,8.5c-51.5,27.1-91.6,68.5-136.8,103.9
			C701.5,280.6,646.9,311.1,585.4,309.7z"/>
		<path class="st0" d="M594.2,320.7c-25.6-0.5-33.5,8.3-51.1,24.4c-17.7,16.1-28.5,37.6-39,58.6c-15.7,31.5-20.9,56.1-39.3,84.5
			c-1.2,1.8-2.4,3.6-3.7,5.5c-42.3,60.7-132.7,70.8-198.9,108.9c-19,10.9-35.8,24.6-50.1,40.3c-55.2,60.3-73.7,150-41.3,228.9
			c40.2,97.9,155.1,169.2,265.1,163.7c92.8-4.6,174.1-57.1,267.4-56.3c65.4,0.5,129.1,27.4,194.4,35.1c72.2,8.5,145-7.9,203.1-43.6
			c18.8-11.6,36.1-25.1,51.2-40.6c62.1-63.2,87.9-156.1,67.8-244c-16.3-71.4-60.3-137.2-74.7-208.8c-11.6-57.7-3.2-116-9-174.1
			c-5.8-58.3-30.9-122.1-86.9-152.2c-52.8-28.4-118.3-18.1-167.9,7.9c-49.6,26-88.2,65.8-131.8,99.8
			C706,292.6,653.4,321.9,594.2,320.7z"/>
		<path class="st0" d="M603,331.7c-24.7-0.5-32.3,8.1-49.3,23.5c-17,15.5-27.5,36.2-37.5,56.5c-15.1,30.4-20.2,54.1-37.9,81.5
			c-1.1,1.7-2.3,3.5-3.5,5.3C434,557.1,347,567,283.4,603.9c-18.3,10.6-34.4,23.8-48.2,38.9C182,701,164.2,787.4,195.6,863.5
			c38.8,94.1,149.2,162.6,254.9,157.4c89.2-4.4,167.4-54.8,257.1-54.1c62.8,0.5,124.1,26.2,186.8,33.6
			c69.4,8.1,139.4-7.8,195.2-42.2c18.1-11.1,34.7-24.2,49.2-39.1c59.6-60.9,84.5-150.3,65.3-234.8c-15.6-68.7-57.9-132.1-71.6-201
			c-11.1-55.6-3.1-111.6-8.6-167.6c-5.5-56.1-29.6-117.5-83.4-146.6c-50.7-27.4-113.7-17.6-161.3,7.4
			c-47.7,24.9-84.8,63.1-126.7,95.7C710.5,304.7,659.9,332.8,603,331.7z"/>
		<path class="st0" d="M611.7,342.7c-23.7-0.4-31.1,7.9-47.4,22.7c-16.4,15-26.4,34.9-36.1,54.4c-14.5,29.2-19.4,52.1-36.4,78.5
			c-1.1,1.7-2.2,3.4-3.4,5.1c-39.1,56.5-122.6,66.2-183.8,101.9c-17.5,10.2-33.1,22.9-46.3,37.5c-51.1,56.1-68.1,139.3-37.8,212.5
			c37.4,90.2,143.2,156,244.7,151c85.6-4.2,160.7-52.5,246.8-51.8c60.3,0.4,119.1,25.1,179.3,32c66.6,7.7,133.8-7.8,187.3-40.9
			c17.3-10.7,33.2-23.3,47.2-37.7c57.2-58.6,81.1-144.5,62.7-225.7c-14.9-66-55.4-126.9-68.6-193.1c-10.6-53.4-2.9-107.3-8.2-161
			c-5.3-53.9-28.3-113-80-141.1c-48.6-26.4-109-17-154.8,6.9c-45.8,23.8-81.5,60.4-121.7,91.6C715,316.7,666.4,343.6,611.7,342.7z"
			/>
		<path class="st0" d="M620.5,353.7c-22.8-0.4-29.9,7.6-45.6,21.9c-15.7,14.4-25.4,33.5-34.7,52.3c-13.9,28.1-18.7,50.1-35,75.5
			c-1,1.6-2.1,3.3-3.3,4.9c-37.5,54.3-117.6,64-176.3,98.3c-16.8,9.9-31.7,22.1-44.5,36.1c-49,54-65.3,133.9-36,204.3
			c35.9,86.4,137.3,149.4,234.5,144.7c82-4,154-50.2,236.5-49.6c57.8,0.4,114.1,24,171.7,30.5c63.9,7.3,128.2-7.7,179.5-39.6
			c16.6-10.3,31.8-22.4,45.2-36.2c54.8-56.2,77.7-138.6,60.1-216.6c-14.2-63.3-52.9-121.8-65.5-185.3
			c-10.1-51.2-2.7-102.9-7.8-154.5c-5-51.8-27-108.5-76.5-135.5c-46.5-25.3-104.4-16.5-148.2,6.3c-43.9,22.7-78.1,57.6-116.7,87.5
			C719.5,328.8,672.9,354.5,620.5,353.7z"/>
		<path class="st0" d="M629.3,364.7c-21.8-0.3-28.7,7.4-43.7,21.1c-15.1,13.8-24.4,32.2-33.3,50.3c-13.4,26.9-17.9,48.1-33.6,72.5
			c-1,1.6-2,3.1-3.1,4.7C479.7,565.5,403,575,346.9,608.1c-16.1,9.5-30.4,21.3-42.6,34.8c-47,51.9-62.5,128.6-34.3,196.1
			c34.5,82.6,131.3,142.8,224.3,138.3c78.4-3.8,147.3-47.9,226.2-47.4c55.2,0.4,109.1,22.8,164.2,29c61.1,6.8,122.6-7.7,171.6-38.3
			c15.9-9.9,30.4-21.5,43.2-34.7c52.4-53.9,74.3-132.8,57.6-207.4c-13.6-60.6-50.4-116.6-62.4-177.5c-9.7-49.1-2.5-98.6-7.4-147.9
			c-4.8-49.6-25.8-104-73.1-129.9c-44.4-24.3-99.8-15.9-141.7,5.8c-42,21.6-74.7,54.9-111.7,83.4
			C723.9,340.9,679.4,365.4,629.3,364.7z"/>
		<path class="st0" d="M638.1,375.7c-20.9-0.3-27.5,7.2-41.8,20.3c-14.5,13.3-23.3,30.9-31.9,48.2c-12.8,25.8-17.2,46.1-32.1,69.5
			c-1,1.5-1.9,3-3,4.5c-34.4,50.1-107.5,59.4-161.2,91.3c-15.4,9.1-29,20.5-40.7,33.4c-44.9,49.9-59.7,123.2-32.5,188
			c33.1,78.7,125.4,136.2,214.1,132c74.9-3.6,140.6-45.6,215.8-45.1c52.7,0.3,104.1,21.7,156.6,27.5c58.3,6.4,117-7.6,163.7-37
			c15.1-9.5,29-20.6,41.2-33.2c49.9-51.6,70.8-127,55-198.3c-12.9-57.9-48-111.5-59.3-169.6c-9.2-46.9-2.4-94.2-6.9-141.4
			c-4.5-47.5-24.5-99.5-69.6-124.4c-42.3-23.3-95.1-15.3-135.1,5.3c-40.1,20.5-71.4,52.2-106.7,79.3
			C728.4,352.9,685.9,376.3,638.1,375.7z"/>
		<path class="st0" d="M646.8,386.7c-19.9-0.2-26.3,6.9-40,19.5c-13.8,12.7-22.3,29.5-30.5,46.1c-12.2,24.7-16.4,44.1-30.7,66.5
			c-0.9,1.4-1.9,2.9-2.9,4.3c-32.8,47.9-102.5,57.1-153.7,87.8c-14.7,8.8-27.7,19.6-38.8,32c-42.9,47.8-56.9,117.9-30.8,179.8
			c31.7,74.9,119.4,129.6,203.9,125.6c71.3-3.4,133.9-43.3,205.5-42.9c50.2,0.3,99.1,20.5,149.1,25.9c55.6,6,111.3-7.6,155.8-35.7
			c14.4-9.1,27.6-19.7,39.2-31.8c47.5-49.3,67.4-121.2,52.4-189.2c-12.2-55.3-45.5-106.4-56.3-161.8c-8.7-44.7-2.2-89.8-6.5-134.9
			c-4.3-45.3-23.2-95-66.2-118.8c-40.2-22.3-90.5-14.8-128.5,4.7c-38.1,19.4-68,49.4-101.6,75.2C732.9,365,692.4,387.2,646.8,386.7z
			"/>
		<path class="st0" d="M655.6,397.7c-19-0.1-25.1,6.7-38.1,18.6c-13.2,12.1-21.3,28.2-29.1,44c-11.6,23.5-15.6,42.1-29.2,63.5
			c-0.9,1.4-1.8,2.7-2.7,4.1c-31.2,45.8-97.5,54.9-146.2,84.3c-14,8.4-26.3,18.8-36.9,30.7c-40.8,45.7-54.1,112.5-29,171.6
			c30.2,71.1,113.5,123,193.7,119.3c67.7-3.2,127.2-41,195.2-40.7c47.6,0.2,94.1,19.4,141.5,24.4c52.8,5.5,105.7-7.6,147.9-34.3
			c13.7-8.7,26.2-18.8,37.2-30.3c45.1-47,64-115.3,49.9-180.1c-11.5-52.6-43-101.2-53.2-154c-8.2-42.6-2-85.5-6.1-128.3
			c-4-43.1-21.9-90.5-62.7-113.2c-38.1-21.2-85.8-14.2-122,4.2c-36.2,18.3-64.6,46.7-96.6,71.1C737.4,377.1,698.8,398.1,655.6,397.7
			z"/>
		<path class="st0" d="M664.4,408.7c-18-0.1-23.9,6.4-36.2,17.8c-12.5,11.6-20.2,26.9-27.7,41.9c-11,22.4-14.9,40.2-27.8,60.5
			c-0.8,1.3-1.7,2.6-2.6,3.9c-29.6,43.7-92.4,52.6-138.6,80.7c-13.2,8.1-25,18-35,29.3c-38.7,43.6-51.3,107.2-27.3,163.4
			c28.8,67.2,107.5,116.5,183.5,112.9c64.1-3,120.5-38.7,184.9-38.4c45.1,0.2,89.1,18.3,134,22.9c50,5.1,100.1-7.5,140-33
			c12.9-8.3,24.8-17.9,35.2-28.8c42.7-44.6,60.6-109.5,47.3-170.9c-10.8-49.9-40.5-96.1-50.1-146.1c-7.7-40.4-1.9-81.1-5.7-121.8
			c-3.7-41-20.6-86-59.3-107.7c-36.1-20.2-81.2-13.6-115.4,3.6c-34.3,17.2-61.2,44-91.6,67C741.8,389.1,705.3,409,664.4,408.7z"/>
		<path class="st0" d="M673.2,419.8c-17.1,0-22.7,6.2-34.4,17c-11.9,11-19.2,25.5-26.2,39.8c-10.5,21.3-14.1,38.2-26.3,57.5
			c-0.8,1.2-1.6,2.5-2.4,3.7c-28,41.5-87.4,50.3-131.1,77.2c-12.5,7.7-23.6,17.2-33.2,27.9C382.8,684.5,371,744.8,394,798.2
			c27.4,63.4,101.6,109.9,173.3,106.6c60.5-2.7,113.8-36.4,174.6-36.2c42.6,0.1,84.1,17.1,126.4,21.3c47.3,4.7,94.5-7.5,132.1-31.7
			c12.2-7.8,23.4-17,33.2-27.3c40.3-42.3,57.2-103.7,44.8-161.8c-10.1-47.2-38.1-90.9-47-138.3c-7.2-38.2-1.7-76.8-5.2-115.2
			c-3.5-38.8-19.3-81.5-55.9-102.1c-34-19.2-76.5-13.1-108.8,3.1c-32.4,16.1-57.9,41.3-86.6,62.9
			C746.3,401.2,711.8,419.8,673.2,419.8z"/>
		<path class="st0" d="M682,430.8c-16.1,0-21.5,6-32.5,16.2c-11.2,10.4-18.2,24.2-24.8,37.8c-9.9,20.1-13.4,36.2-24.9,54.5
			c-0.7,1.2-1.5,2.4-2.3,3.6c-26.5,39.4-82.4,48.1-123.6,73.7c-11.8,7.3-22.3,16.3-31.3,26.5c-34.6,39.5-45.7,96.5-23.7,147
			c25.9,59.6,95.6,103.3,163.1,100.3c57-2.5,107.1-34.1,164.3-34c40.1,0.1,79,16,118.8,19.8c44.5,4.3,88.9-7.4,124.2-30.4
			c11.4-7.4,21.9-16.1,31.2-25.9c37.8-40,53.8-97.9,42.2-152.7c-9.4-44.5-35.6-85.8-43.9-130.5c-6.7-36-1.5-72.4-4.8-108.7
			c-3.2-36.7-18-77-52.4-96.5c-31.9-18.1-71.9-12.5-102.3,2.6c-30.5,15-54.5,38.5-81.6,58.9C750.8,413.2,718.3,430.7,682,430.8z"/>
		<path class="st0" d="M690.7,441.8c-15.2,0.1-20.3,5.7-30.7,15.4c-10.6,9.9-17.1,22.9-23.4,35.7c-9.3,19-12.6,34.2-23.4,51.5
			c-0.7,1.1-1.4,2.2-2.2,3.4c-24.9,37.3-77.3,45.8-116,70.2c-11.1,7-20.9,15.5-29.4,25.2c-32.6,37.4-43,91.1-22,138.9
			c24.5,55.8,89.7,96.7,153,93.9C650,873.4,697,844,750.6,844c37.5,0,74,14.9,111.3,18.3c41.7,3.8,83.3-7.4,116.3-29.1
			c10.7-7,20.5-15.2,29.2-24.4c35.4-37.7,50.4-92,39.6-143.6c-8.8-41.9-33.1-80.6-40.9-122.7c-6.3-33.9-1.3-68-4.4-102.1
			c-3-34.5-16.8-72.4-49-90.9c-29.8-17.1-67.2-12-95.7,2c-28.6,13.9-51.1,35.8-76.5,54.8C755.3,425.3,724.8,441.6,690.7,441.8z"/>
		<path class="st0" d="M699.5,452.8c-14.2,0.1-19,5.5-28.8,14.6c-9.9,9.3-16.1,21.5-22,33.6c-8.7,17.8-11.9,32.2-22,48.4
			c-0.6,1-1.3,2.1-2,3.2c-23.3,35.1-72.3,43.5-108.5,66.6c-10.4,6.6-19.6,14.7-27.5,23.8c-30.5,35.3-40.2,85.8-20.2,130.7
			c23.1,51.9,83.8,90.1,142.8,87.6c49.8-2.1,93.7-29.4,143.7-29.5c35,0,69,13.7,103.7,16.7c39,3.4,77.6-7.3,108.4-27.8
			c10-6.6,19.1-14.3,27.2-22.9c33-35.4,47-86.2,37.1-134.4c-8.1-39.2-30.6-75.5-37.8-114.8c-5.8-31.7-1.2-63.7-4-95.6
			c-2.7-32.3-15.5-67.9-45.5-85.4c-27.7-16.1-62.6-11.3-89.2,1.5c-26.6,12.9-47.8,33.1-71.5,50.7
			C759.7,437.4,731.3,452.5,699.5,452.8z"/>
		<path class="st0" d="M708.3,463.8c-13.3,0.2-17.8,5.3-26.9,13.7c-9.3,8.7-15.1,20.2-20.6,31.5c-8.2,16.7-11.1,30.2-20.5,45.4
			c-0.6,1-1.2,2-1.9,3c-21.7,33-67.3,41.2-101,63.1c-9.7,6.3-18.3,13.8-25.6,22.4c-28.5,33.2-37.4,80.4-18.5,122.5
			c21.6,48.1,77.8,83.5,132.6,81.2c46.2-1.9,87-27.1,133.3-27.2c32.5-0.1,64,12.6,96.2,15.2c36.2,3,72-7.3,100.6-26.4
			c9.2-6.2,17.7-13.4,25.2-21.5c30.6-33.1,43.6-80.4,34.5-125.3c-7.4-36.5-28.2-70.4-34.7-107c-5.3-29.5-1-59.3-3.5-89.1
			c-2.5-30.2-14.2-63.4-42.1-79.8c-25.6-15.1-57.9-10.8-82.6,1c-24.7,11.8-44.4,30.3-66.5,46.6C764.2,449.4,737.8,463.4,708.3,463.8
			z"/>
		<path class="st0" d="M717.1,474.8c-12.3,0.2-16.6,5-25.1,12.9c-8.7,8.2-14,18.9-19.2,29.4c-7.6,15.6-10.4,28.2-19.1,42.4
			c-0.6,0.9-1.1,1.8-1.8,2.8c-20.1,30.9-62.2,39-93.4,59.6c-8.9,5.9-16.9,13-23.7,21c-26.4,31.2-34.6,75.1-16.7,114.3
			c20.2,44.3,71.9,76.9,122.4,74.9c42.6-1.7,80.3-24.8,123-25c29.9-0.1,59,11.4,88.6,13.7c33.5,2.6,66.4-7.2,92.7-25.1
			c8.5-5.8,16.3-12.5,23.2-20c28.1-30.7,40.2-74.6,31.9-116.2c-6.7-33.8-25.7-65.2-31.6-99.2c-4.8-27.4-0.8-55-3.1-82.5
			c-2.2-28-12.9-58.9-38.6-74.2c-23.5-14-53.3-10.2-76,0.4c-22.8,10.7-41,27.6-61.5,42.5C768.7,461.5,744.3,474.3,717.1,474.8z"/>
		<path class="st0" d="M725.8,485.8c-11.4,0.3-15.4,4.8-23.2,12.1c-8,7.6-13,17.5-17.8,27.3c-7,14.4-9.6,26.2-17.6,39.4
			c-0.5,0.9-1.1,1.7-1.6,2.6c-18.6,28.8-57.2,36.7-85.9,56.1c-8.2,5.5-15.6,12.2-21.9,19.7c-24.4,29.1-31.8,69.7-15,106.1
			c18.7,40.4,65.9,70.3,112.2,68.5c39.1-1.5,73.6-22.5,112.7-22.8c27.4-0.2,54,10.3,81.1,12.2c30.7,2.1,60.8-7.2,84.8-23.8
			c7.8-5.4,14.9-11.6,21.2-18.5c25.7-28.4,36.8-68.7,29.4-107.1c-6-31.1-23.2-60.1-28.5-91.3c-4.3-25.2-0.7-50.6-2.7-76
			c-2-25.9-11.6-54.4-35.2-68.7c-21.4-13-48.6-9.6-69.5-0.1c-20.9,9.6-37.7,24.9-56.5,38.4C773.2,473.5,750.8,485.2,725.8,485.8z"/>
		<path class="st0" d="M734.6,496.8c-10.4,0.3-14.2,4.5-21.3,11.3c-7.4,7-12,16.2-16.3,25.3c-6.4,13.3-8.9,24.2-16.2,36.4
			c-0.5,0.8-1,1.6-1.5,2.4c-17,26.6-52.2,34.4-78.4,52.5c-7.5,5.2-14.2,11.4-20,18.3c-22.3,27-29,64.4-13.2,98
			c17.2,36.6,60,63.7,102,62.2c35.5-1.3,66.9-20.2,102.4-20.5c24.9-0.2,49,9.1,73.5,10.6c27.9,1.7,55.2-7.1,76.9-22.5
			c7-5,13.5-10.7,19.2-17c23.3-26.1,33.4-62.9,26.8-97.9c-5.3-28.4-20.7-54.9-25.5-83.5c-3.8-23-0.5-46.2-2.3-69.4
			c-1.7-23.7-10.3-49.9-31.8-63.1c-19.4-12-44-9.1-62.9-0.6c-19,8.5-34.3,22.1-51.4,34.3C777.6,485.6,757.2,496.1,734.6,496.8z"/>
		<path class="st0" d="M743.4,507.8c-9.5,0.4-13,4.3-19.5,10.5c-6.7,6.5-11,14.9-14.9,23.2c-5.8,12.2-8.1,22.2-14.8,33.4
			c-0.4,0.7-0.9,1.5-1.3,2.2c-15.4,24.5-47.2,32.2-70.9,49c-6.8,4.8-12.9,10.5-18.1,16.9c-20.3,24.9-26.2,59-11.4,89.8
			c15.8,32.8,54,57.1,91.8,55.9c31.9-1.1,60.2-17.9,92.1-18.3c22.3-0.3,44,8,66,9.1c25.2,1.3,49.6-7.1,69-21.2
			c6.3-4.6,12.1-9.8,17.2-15.6c20.9-23.8,30-57.1,24.2-88.8c-4.6-25.8-18.2-49.8-22.4-75.7c-3.3-20.9-0.4-41.9-1.8-62.9
			c-1.5-21.5-9-45.3-28.3-57.5c-17.3-10.9-39.3-8.5-56.3-1.2c-17.1,7.4-31,19.4-46.4,30.2C782.1,497.6,763.7,507,743.4,507.8z"/>
		<path class="st0" d="M752.2,518.8c-8.6,0.5-11.8,4.1-17.6,9.7c-6.1,5.9-9.9,13.5-13.5,21.1c-5.3,11-7.4,20.2-13.3,30.4
			c-0.4,0.7-0.8,1.3-1.2,2c-13.8,22.4-42.1,29.9-63.3,45.5c-6.1,4.5-11.5,9.7-16.2,15.6c-18.2,22.8-23.4,53.7-9.7,81.6
			c14.3,29,48.1,50.5,81.6,49.5c28.3-0.9,53.5-15.6,81.8-16.1c19.8-0.3,39,6.9,58.4,7.6c22.4,0.8,43.9-7.1,61.1-19.8
			c5.6-4.1,10.7-8.9,15.2-14.1c18.5-21.5,26.6-51.3,21.7-79.7c-4-23.1-15.8-44.6-19.3-67.8c-2.9-18.7-0.2-37.5-1.4-56.3
			c-1.2-19.4-7.8-40.8-24.9-51.9c-15.2-9.9-34.7-7.9-49.8-1.7c-15.2,6.3-27.6,16.6-41.4,26.1C786.6,509.7,770.2,517.9,752.2,518.8z"
			/>
		<path class="st0" d="M760.9,529.8c-7.6,0.5-10.6,3.8-15.8,8.8c-5.5,5.3-8.9,12.2-12.1,19c-4.7,9.9-6.6,18.2-11.9,27.4
			c-0.3,0.6-0.7,1.2-1.1,1.8c-12.2,20.2-37.1,27.6-55.8,42c-5.4,4.1-10.2,8.9-14.3,14.2c-16.2,20.8-20.7,48.3-7.9,73.4
			c12.8,25.1,42.1,43.9,71.4,43.2c24.7-0.6,46.8-13.3,71.5-13.8c17.3-0.4,34,5.7,50.9,6c19.7,0.4,38.3-7,53.2-18.5
			c4.8-3.7,9.2-8,13.2-12.6c16-19.1,23.1-45.4,19.1-70.5c-3.3-20.4-13.3-39.5-16.2-60c-2.4-16.5,0-33.2-1-49.8
			c-1-17.2-6.5-36.3-21.4-46.4c-13.1-8.8-30-7.4-43.2-2.2c-13.2,5.2-24.2,13.9-36.4,22C791,521.8,776.7,528.8,760.9,529.8z"/>
		<path class="st0" d="M769.7,540.9c-6.7,0.6-9.4,3.6-13.9,8c-4.8,4.8-7.9,10.8-10.7,16.9c-4.1,8.7-5.9,16.2-10.4,24.4
			c-0.3,0.5-0.6,1.1-0.9,1.6c-10.6,18.1-32.1,25.3-48.3,38.5c-4.6,3.8-8.8,8.1-12.4,12.8c-14.1,18.7-17.9,43-6.2,65.2
			c11.3,21.3,36.2,37.3,61.2,36.8c21.2-0.4,40.1-11,61.2-11.6c14.7-0.4,29,4.6,43.3,4.5c16.9,0,32.7-7,45.3-17.2
			c4.1-3.3,7.8-7.1,11.2-11.2c13.6-16.8,19.7-39.6,16.6-61.4c-2.6-17.7-10.8-34.4-13.2-52.2c-1.9-14.3,0.1-28.8-0.6-43.3
			c-0.7-15.1-5.2-31.8-18-40.8c-11-7.8-25.4-6.8-36.6-2.8c-11.3,4.1-20.9,11.2-31.4,17.9C795.5,533.8,783.2,539.7,769.7,540.9z"/>
		<path class="st0" d="M778.5,551.9c-5.7,0.6-8.2,3.4-12,7.2c-4.2,4.2-6.8,9.5-9.3,14.8c-3.5,7.6-5.1,14.3-9,21.4
			c-0.3,0.5-0.5,1-0.8,1.4c-9.1,16-27,23.1-40.7,34.9c-3.9,3.4-7.5,7.2-10.6,11.4c-12.1,16.6-15.2,37.6-4.4,57
			c9.7,17.5,30.2,30.8,51,30.5c17.6-0.2,33.4-8.7,50.8-9.4c12.2-0.5,24.1,3.4,35.8,3c14.2-0.5,27.1-6.9,37.4-15.9
			c3.3-2.9,6.4-6.1,9.2-9.7c11.2-14.5,16.3-33.8,14-52.3c-1.9-15-8.3-29.2-10.1-44.3c-1.4-12.2,0.3-24.5-0.1-36.7
			c-0.5-12.9-3.9-27.2-14.5-35.2c-8.9-6.7-20.8-6.3-30.1-3.3c-9.4,3-17.5,8.5-26.4,13.8C800,545.9,789.7,550.6,778.5,551.9z"/>
		<path class="st0" d="M787.3,562.9c-4.8,0.7-7,3.1-10.2,6.4c-3.5,3.6-5.8,8.2-7.9,12.8c-2.9,6.5-4.4,12.3-7.5,18.4
			c-0.2,0.4-0.4,0.8-0.7,1.2c-7.5,13.8-22,20.8-33.2,31.4c-3.2,3-6.1,6.4-8.7,10.1c-10.1,14.5-12.5,32.3-2.7,48.9
			c8.1,13.7,24.3,24.2,40.8,24.1c14,0,26.7-6.4,40.5-7.1c9.7-0.5,19.1,2.2,28.2,1.5c11.4-0.9,21.5-6.9,29.5-14.6
			c2.6-2.5,5-5.2,7.2-8.2c8.8-12.2,12.9-28,11.4-43.2c-1.2-12.4-5.9-24.1-7-36.5c-0.9-10,0.5-20.1,0.3-30.2
			c-0.2-10.8-2.6-22.7-11.1-29.7c-6.9-5.6-16.1-5.7-23.5-3.8c-7.5,1.9-14.1,5.7-21.3,9.7C804.5,557.9,796.2,561.6,787.3,562.9z"/>
		<path class="st0" d="M796,573.9c-3.8,0.8-5.8,2.9-8.3,5.6c-2.9,3.1-4.8,6.8-6.5,10.7c-2.4,5.3-3.6,10.3-6.1,15.4
			c-0.2,0.3-0.3,0.7-0.5,1c-5.9,11.7-17,18.5-25.7,27.9c-2.5,2.7-4.8,5.6-6.8,8.7c-8,12.4-9.8,26.9-0.9,40.7
			c6.4,9.9,18.3,17.6,30.6,17.8c10.4,0.2,20-4.1,30.2-4.9c7.2-0.5,14.1,1,20.7-0.1c8.7-1.4,15.9-6.8,21.6-13.3
			c1.9-2.1,3.6-4.3,5.1-6.7c6.3-9.9,9.5-22.1,8.9-34c-0.5-9.7-3.4-18.9-3.9-28.7c-0.4-7.8,0.7-15.7,0.7-23.6
			c0.1-8.6-1.3-18.1-7.6-24.1c-4.8-4.6-11.5-5.1-17-4.4c-5.6,0.8-10.7,3-16.3,5.6C808.9,570,802.6,572.5,796,573.9z"/>
	</g>
	<g>
		<path class="st0" d="M2044.4,1598.2c-71.8-13.1-141.3,12.8-200.6,46.3c-59.3,33.5-113.7,75.2-179,98
			c-65.4,22.9-147.3,23.4-206.5-20.8c-62.5-46.7-81.4-128.4-77.8-199.9c3.7-71.5,24.8-140.5,21.3-212.6
			c-4.3-89.5-46.1-177.5-52.8-267.1c-8.3-110.2,40.5-218,128.1-282.4c87.5-64.4,211.7-84.1,325.5-51.6
			c78.1,22.3,150.6,67.4,230,80.5c113.4,18.8,222.3-30.1,336.1-18.4c134.9,13.9,261.8,122.5,291.4,249.4
			c29.6,126.9-40.9,259.8-162,305.2c-87.2,32.7-198.7,26.3-261.1,91.1c-31.8,32.9-42.3,62.7-68.7,99.8c-16.5,23.3-33.5,47-57.8,63
			C2086.2,1594.8,2075.2,1603.8,2044.4,1598.2z"/>
		<path class="st0" d="M2037.4,1585.9c29.9,5.4,40.6-3.3,64.1-18.8c23.6-15.5,40.1-38.5,56.1-61.1c24-33.9,34.5-61.5,61.3-91.2
			c1.7-1.9,3.5-3.8,5.3-5.7c60.5-62.9,168.6-56.9,253.1-88.7c24.2-9.1,46.4-21.9,66.1-37.4c75.5-59.8,113.9-161.1,90.9-258.9
			c-28.7-122.9-151.6-228.1-282.3-241.6c-110.2-11.4-215.7,35.9-325.6,17.7c-77-12.7-147.2-56.3-222.8-77.9
			c-83.3-23.7-172.3-18.6-247.4,12.3c-24.3,10-47.2,22.7-67.9,38c-84.8,62.5-132.1,166.9-124.1,273.8c6.5,86.8,46.9,172.1,51,258.8
			c3.3,69.9-17.1,136.8-20.7,206.1c-3.6,69.3,14.7,148.6,75.2,193.9c57.3,42.8,136.7,42.4,200,20.3c63.3-22.1,116-62.4,173.4-94.8
			C1900.6,1598.4,1967.9,1573.3,2037.4,1585.9z"/>
		<path class="st0" d="M2030.4,1573.7c29,5.2,39.3-3.3,62.1-18.3c22.8-15.1,38.8-37.4,54.4-59.3c23.3-32.9,33.5-59.6,59.4-88.5
			c1.6-1.8,3.4-3.7,5.1-5.5c58.6-61,163.3-55.5,245.2-86.4c23.5-8.9,44.9-21.3,64-36.4c73.1-58,110.3-156.3,87.9-251.1
			c-27.8-118.9-146.8-220.7-273.2-233.8c-106.6-11-208.7,34.7-315,17.1c-74.5-12.3-142.5-54.4-215.6-75.2
			c-80.7-22.9-166.8-17.7-239.4,12.2c-23.5,9.7-45.6,22-65.7,36.8c-82,60.6-127.8,161.7-120.2,265.2c6.2,84,45.2,166.7,49.2,250.6
			c3.2,67.7-16.6,132.5-20.1,199.6c-3.5,67.1,14.1,143.9,72.7,187.9c55.4,41.5,132.2,41.2,193.4,19.9
			c61.3-21.3,112.2-60.2,167.9-91.5C1898,1585.8,1963.2,1561.5,2030.4,1573.7z"/>
		<path class="st0" d="M2023.5,1561.5c28,5,38.1-3.2,60.2-17.8c22.1-14.6,37.6-36.2,52.6-57.4c22.6-31.8,32.4-57.8,57.5-85.7
			c1.6-1.8,3.2-3.6,5-5.4c56.8-59.1,158-54,237.2-84.1c22.7-8.6,43.5-20.6,61.9-35.3c70.8-56.3,106.8-151.5,84.9-243.3
			c-27-114.9-141.9-213.3-264.1-225.9c-103.1-10.7-201.7,33.4-304.5,16.5c-72-11.9-137.7-52.5-208.4-72.5
			c-78-22-161.2-16.9-231.4,12.2c-22.7,9.4-44.1,21.3-63.5,35.7c-79.3,58.7-123.6,156.5-116.3,256.5c5.9,81.3,43.5,161.2,47.3,242.4
			c3,65.5-16.1,128.1-19.5,193c-3.4,65,13.6,139.3,70.1,181.8c53.5,40.1,127.7,39.9,186.8,19.4c59.2-20.5,108.5-58,162.3-88.2
			C1895.4,1573.2,1958.4,1549.7,2023.5,1561.5z"/>
		<path class="st0" d="M2016.5,1549.3c27.1,4.8,36.9-3.2,58.2-17.3c21.4-14.1,36.4-35.1,50.9-55.6c21.8-30.8,31.4-55.9,55.6-83
			c1.5-1.7,3.1-3.4,4.8-5.2c54.9-57.3,152.6-52.5,229.2-81.8c22-8.4,42-20,59.8-34.2c68.4-54.6,103-146.6,81.9-235.4
			c-26.3-110.9-137-205.8-255-218.1c-99.5-10.3-194.8,32.2-293.9,15.8c-69.5-11.4-132.9-50.6-201.1-69.9
			c-75.3-21.1-155.6-16.1-223.4,12.1c-21.9,9.1-42.6,20.7-61.3,34.5c-76.5,56.8-119.3,151.2-112.3,247.9
			c5.7,78.5,41.9,155.8,45.5,234.2c2.9,63.3-15.6,123.8-18.9,186.5c-3.4,62.8,13,134.6,67.6,175.8c51.6,38.8,123.1,38.6,180.3,18.9
			c57.1-19.7,104.8-55.9,156.7-84.9C1892.8,1560.6,1953.7,1538,2016.5,1549.3z"/>
		<path class="st0" d="M2009.5,1537c26.2,4.6,35.6-3.1,56.2-16.7c20.7-13.7,35.2-33.9,49.2-53.8c21.1-29.7,30.3-54.1,53.7-80.2
			c1.5-1.7,3-3.3,4.6-5c53-55.4,147.3-51,221.2-79.4c21.2-8.1,40.6-19.4,57.8-33.2c66.1-52.8,99.5-141.7,78.9-227.6
			c-25.5-106.9-132.2-198.4-245.9-210.3c-95.9-10-187.8,30.9-283.4,15.2c-67-11-128.2-48.7-193.9-67.2
			c-72.7-20.2-150.1-15.3-215.4,12c-21.1,8.8-41,20-59.1,33.4c-73.8,54.8-115.1,146-108.4,239.3c5.4,75.8,40.2,150.3,43.6,226
			c2.7,61.1-15.1,119.5-18.4,180c-3.3,60.6,12.4,129.9,65,169.8c49.7,37.4,118.6,37.4,173.7,18.4c55.1-18.9,101-53.7,151.1-81.7
			C1890.3,1548,1948.9,1526.2,2009.5,1537z"/>
		<path class="st0" d="M2002.5,1524.8c25.2,4.4,34.4-3.1,54.3-16.2c19.9-13.2,33.9-32.7,47.5-51.9c20.3-28.7,29.3-52.2,51.8-77.5
			c1.4-1.6,2.9-3.2,4.5-4.8c51.1-53.5,142-49.6,213.2-77.1c20.4-7.9,39.1-18.8,55.7-32.1c63.8-51.1,95.9-136.9,76-219.8
			c-24.7-102.9-127.3-191-236.8-202.4c-92.4-9.7-180.8,29.7-272.9,14.6c-64.5-10.6-123.4-46.9-186.7-64.5
			c-70-19.5-144.5-14.5-207.4,11.9c-20.4,8.5-39.5,19.3-56.9,32.3c-71,52.9-110.8,140.8-104.5,230.7c5.1,73,38.6,144.8,41.8,217.8
			c2.6,58.8-14.6,115.1-17.8,173.4c-3.2,58.5,11.8,125.4,62.5,163.7c47.8,36.2,114.1,36.1,167.1,17.9c53-18.1,97.3-51.5,145.5-78.4
			C1887.7,1535.4,1944.2,1514.5,2002.5,1524.8z"/>
		<path class="st0" d="M1995.5,1512.6c24.3,4.2,33.2-3,52.3-15.7c19.2-12.7,32.7-31.6,45.8-50.1c19.6-27.7,28.2-50.4,50-74.7
			c1.4-1.6,2.8-3.1,4.3-4.7c49.2-51.7,136.7-48.1,205.2-74.8c19.7-7.7,37.7-18.2,53.6-31c61.4-49.3,92.3-132,73-212
			C2455.8,950.7,2357.3,866,2252,855c-88.8-9.3-173.8,28.4-262.3,14c-62-10.1-118.6-45-179.5-61.8c-67.3-18.7-139-13.7-199.4,11.8
			c-19.6,8.2-38,18.6-54.7,31.1c-68.3,51-106.5,135.5-100.5,222c4.9,70.3,36.9,139.4,40,209.6c2.5,56.6-14.1,110.8-17.2,166.9
			c-3.1,56.3,11.2,120.7,59.9,157.7c45.9,34.8,109.6,34.8,160.6,17.5c51-17.3,93.5-49.3,139.9-75.1
			C1885.1,1522.8,1939.4,1502.8,1995.5,1512.6z"/>
		<path class="st0" d="M1988.5,1500.4c23.4,4,32-3,50.3-15.2c18.5-12.3,31.5-30.4,44.1-48.2c18.8-26.6,27.2-48.5,48.1-72
			c1.3-1.5,2.7-3,4.1-4.5c47.3-49.8,131.3-46.6,197.3-72.5c18.9-7.4,36.2-17.6,51.6-30c59.1-47.6,88.7-127.2,70-204.2
			c-23.1-94.9-117.6-176.1-218.6-186.8c-85.2-9-166.9,27.2-251.8,13.3c-59.5-9.7-113.8-43.1-172.2-59.2
			c-64.7-17.8-133.4-12.8-191.4,11.7c-18.8,7.9-36.4,18-52.5,30c-65.5,49.1-102.3,130.3-96.6,213.4c4.6,67.5,35.3,133.9,38.1,201.4
			c2.3,54.4-13.6,106.5-16.6,160.4c-3.1,54.1,10.6,116,57.4,151.7c44,33.5,105.1,33.6,154,17c48.9-16.5,89.8-47.1,134.3-71.8
			C1882.6,1510.2,1934.7,1491,1988.5,1500.4z"/>
		<path class="st0" d="M1981.6,1488.1c22.5,3.9,30.7-2.9,48.4-14.7c17.8-11.8,30.3-29.3,42.3-46.4c18.1-25.6,26.1-46.7,46.2-69.2
			c1.3-1.4,2.6-2.9,4-4.3c45.4-47.9,126-45.2,189.3-70.1c18.1-7.2,34.7-17,49.5-28.9c56.7-45.9,85.1-122.3,67-196.4
			c-22.3-90.9-112.7-168.7-209.5-178.9c-81.7-8.6-159.9,25.9-241.3,12.7c-57-9.3-109-41.2-165-56.5c-62-17-127.9-12-183.4,11.6
			c-18,7.7-34.9,17.3-50.2,28.8c-62.8,47.2-98,125.1-92.7,204.8c4.4,64.7,33.6,128.5,36.3,193.2c2.2,52.2-13.1,102.1-16,153.8
			c-3,51.9,10.1,111.4,54.8,145.6c42.1,32.2,100.6,32.3,147.4,16.5c46.8-15.7,86-45,128.7-68.6
			C1880,1497.6,1929.9,1479.3,1981.6,1488.1z"/>
		<path class="st0" d="M1974.6,1475.9c21.5,3.7,29.5-2.9,46.4-14.1c17.1-11.4,29-28.1,40.6-44.6c17.3-24.6,25.1-44.8,44.3-66.5
			c1.2-1.4,2.5-2.8,3.8-4.2c43.5-46.1,120.7-43.7,181.3-67.8c17.4-6.9,33.3-16.4,47.4-27.8c54.4-44.1,81.5-117.5,64-188.6
			c-21.4-86.9-107.9-161.3-200.4-171.1c-78.1-8.3-152.9,24.7-230.7,12.1c-54.5-8.8-104.3-39.3-157.8-53.8
			c-59.3-16.1-122.3-11.2-175.4,11.5c-17.2,7.4-33.4,16.6-48,27.7c-60,45.2-93.8,119.8-88.7,196.2c4.1,62,31.9,123,34.4,184.9
			c2,50-12.6,97.8-15.4,147.3c-2.9,49.8,9.5,106.7,52.3,139.6c40.1,30.8,96.1,31,140.9,16c44.8-14.9,82.3-42.8,123.2-65.3
			C1877.4,1485,1925.2,1467.5,1974.6,1475.9z"/>
		<path class="st0" d="M1967.6,1463.7c20.6,3.5,28.3-2.9,44.4-13.6c16.3-10.9,27.8-26.9,38.9-42.7c16.6-23.5,24-43,42.4-63.7
			c1.2-1.3,2.4-2.7,3.6-4c41.6-44.2,115.4-42.2,173.3-65.5c16.6-6.7,31.8-15.8,45.3-26.8c52-42.4,77.9-112.6,61-180.7
			c-20.6-82.9-103-153.9-191.3-163.3c-74.5-7.9-145.9,23.4-220.2,11.5c-52-8.4-99.5-37.4-150.5-51.2
			c-56.7-15.3-116.7-10.4-167.4,11.4c-16.4,7.1-31.8,15.9-45.8,26.5c-57.3,43.3-89.5,114.6-84.8,187.5
			c3.8,59.2,30.3,117.5,32.6,176.7c1.9,47.7-12.1,93.4-14.9,140.8c-2.8,47.6,8.9,102.1,49.7,133.6c38.2,29.5,91.6,29.7,134.3,15.5
			c42.7-14.1,78.5-40.6,117.6-62C1874.8,1472.3,1920.5,1455.8,1967.6,1463.7z"/>
		<path class="st0" d="M1960.6,1451.5c19.7,3.3,27-2.8,42.5-13.1c15.6-10.4,26.6-25.8,37.2-40.9c15.8-22.5,23-41.1,40.5-61
			c1.1-1.3,2.3-2.5,3.5-3.8c39.7-42.3,110.1-40.7,165.3-63.2c15.9-6.4,30.4-15.2,43.3-25.7c49.7-40.6,74.4-107.8,58-172.9
			c-19.8-78.9-98.1-146.4-182.2-155.4c-70.9-7.6-139,22.2-209.7,10.8c-49.5-8-94.7-35.5-143.3-48.5c-54-14.4-111.2-9.6-159.4,11.3
			c-15.6,6.8-30.3,15.2-43.6,25.4c-54.5,41.4-85.2,109.4-80.9,178.9c3.6,56.5,28.6,112.1,30.8,168.5c1.7,45.5-11.6,89.1-14.3,134.3
			c-2.7,45.4,8.3,97.4,47.2,127.5c36.3,28.2,87.1,28.5,127.7,15.1c40.7-13.3,74.8-38.4,112-58.7
			C1872.3,1459.7,1915.7,1444,1960.6,1451.5z"/>
		<path class="st0" d="M1953.6,1439.2c18.7,3.1,25.8-2.8,40.5-12.6c14.9-10,25.4-24.6,35.5-39c15.1-21.5,21.9-39.2,38.6-58.2
			c1.1-1.2,2.2-2.4,3.3-3.7c37.9-40.5,104.7-39.3,157.4-60.8c15.1-6.2,28.9-14.5,41.2-24.6c47.3-38.9,70.8-102.9,55-165.1
			c-19-74.9-93.3-139-173.1-147.6c-67.4-7.3-132,20.9-199.1,10.2c-47.1-7.5-90-33.6-136.1-45.8c-51.3-13.6-105.6-8.8-151.4,11.2
			c-14.8,6.5-28.8,14.6-41.4,24.2c-51.8,39.5-81,104.1-76.9,170.3c3.3,53.7,27,106.6,28.9,160.3c1.6,43.3-11.1,84.8-13.7,127.7
			c-2.7,43.2,7.8,92.8,44.6,121.5c34.4,26.8,82.6,27.2,121.2,14.6c38.6-12.5,71-36.2,106.4-55.5
			C1869.7,1447.1,1911,1432.3,1953.6,1439.2z"/>
		<path class="st0" d="M1946.7,1427c17.8,2.9,24.6-2.7,38.5-12.1c14.2-9.5,24.1-23.4,33.8-37.2c14.3-20.4,20.9-37.4,36.7-55.5
			c1-1.2,2.1-2.3,3.1-3.5c36-38.6,99.4-37.8,149.4-58.5c14.3-5.9,27.5-13.9,39.1-23.6c45-37.2,67.2-98,52-157.3
			c-18.1-70.9-88.4-131.6-164-139.8c-63.8-6.9-125,19.7-188.6,9.6c-44.6-7.1-85.2-31.7-128.9-43.2c-48.7-12.7-100.1-7.9-143.4,11.1
			c-14,6.2-27.2,13.9-39.2,23.1c-49,37.6-76.7,98.9-73,161.7c3,51,25.3,101.1,27.1,152.1c1.4,41.1-10.6,80.4-13.1,121.2
			c-2.6,41.1,7.2,88.1,42.1,115.5c32.5,25.5,78.1,25.9,114.6,14.1c36.6-11.8,67.3-34.1,100.8-52.2
			C1867.1,1434.5,1906.2,1420.5,1946.7,1427z"/>
		<path class="st0" d="M1939.7,1414.8c16.9,2.7,23.4-2.7,36.6-11.5c13.4-9.1,22.9-22.3,32-35.3c13.6-19.4,19.8-35.5,34.8-52.7
			c1-1.1,2-2.2,3-3.3c34.1-36.8,94.1-36.3,141.4-56.2c13.6-5.7,26-13.3,37.1-22.5c42.6-35.4,63.6-93.2,49-149.5
			c-17.3-66.9-83.5-124.2-154.9-131.9c-60.2-6.6-118,18.5-178.1,9c-42.1-6.6-80.4-29.8-121.6-40.5c-46-11.9-94.5-7.1-135.4,11.1
			c-13.2,5.9-25.7,13.2-37,21.9c-46.3,35.7-72.5,93.7-69.1,153c2.8,48.2,23.7,95.7,25.2,143.9c1.3,38.9-10.1,76.1-12.5,114.7
			c-2.5,38.9,6.6,83.5,39.5,109.4c30.6,24.2,73.6,24.7,108,13.6c34.5-11,63.5-31.9,95.2-48.9
			C1864.6,1421.9,1901.5,1408.8,1939.7,1414.8z"/>
		<path class="st0" d="M1932.7,1402.6c15.9,2.5,22.1-2.6,34.6-11c12.7-8.6,21.7-21.1,30.3-33.5c12.9-18.4,18.8-33.7,32.9-50
			c0.9-1,1.8-2.1,2.8-3.2c32.2-34.9,88.8-34.8,133.4-53.8c12.8-5.4,24.5-12.7,35-21.4c40.3-33.7,60-88.3,46-141.7
			c-16.5-62.9-78.7-116.7-145.8-124.1c-56.7-6.2-111.1,17.2-167.5,8.3c-39.6-6.2-75.7-27.9-114.4-37.8c-43.3-11-89-6.3-127.4,11
			c-12.4,5.6-24.2,12.5-34.8,20.8c-43.5,33.7-68.2,88.4-65.1,144.4c2.5,45.5,22,90.2,23.4,135.7c1.1,36.7-9.6,71.8-11.9,108.1
			c-2.4,36.7,6,78.8,37,103.4c28.7,22.8,69.1,23.4,101.5,13.1c32.4-10.2,59.8-29.7,89.6-45.6C1862,1409.3,1896.8,1397,1932.7,1402.6
			z"/>
		<path class="st0" d="M1925.7,1390.3c15,2.3,20.9-2.6,32.7-10.5c12-8.1,20.5-20,28.6-31.7c12.1-17.3,17.7-31.8,31-47.2
			c0.9-1,1.7-2,2.7-3c30.3-33,83.5-33.4,125.4-51.5c12-5.2,23.1-12.1,32.9-20.4c37.9-32,56.4-83.5,43-133.8
			c-15.6-58.9-73.8-109.3-136.7-116.3c-53.1-5.9-104.1,16-157,7.7c-37.1-5.8-70.9-26-107.2-35.1c-40.7-10.2-83.4-5.5-119.4,10.9
			c-11.7,5.3-22.6,11.9-32.6,19.6c-40.8,31.8-63.9,83.2-61.2,135.8c2.2,42.7,20.3,84.8,21.6,127.5c1,34.4-9.1,67.4-11.3,101.6
			c-2.4,34.5,5.4,74.2,34.4,97.4c26.8,21.5,64.6,22.1,94.9,12.7c30.4-9.4,56-27.5,84-42.4C1859.4,1396.7,1892,1385.3,1925.7,1390.3z
			"/>
		<path class="st0" d="M1918.7,1378.1c14.1,2.1,19.7-2.5,30.7-10c11.3-7.7,19.2-18.8,26.9-29.8c11.4-16.3,16.7-30,29.2-44.5
			c0.8-0.9,1.6-1.9,2.5-2.8c28.4-31.2,78.1-31.9,117.4-49.2c11.3-5,21.6-11.5,30.8-19.3c35.6-30.2,52.8-78.6,40-126
			c-14.8-54.8-68.9-101.9-127.6-108.4c-49.5-5.6-97.1,14.7-146.5,7.1c-34.6-5.3-66.1-24.1-99.9-32.5c-38-9.4-77.9-4.7-111.4,10.8
			c-10.9,5-21.1,11.2-30.4,18.5c-38,29.9-59.7,78-57.3,127.2c2,39.9,18.7,79.3,19.7,119.3c0.8,32.2-8.6,63.1-10.8,95.1
			c-2.3,32.4,4.9,69.5,31.9,91.3c24.9,20.1,60.1,20.8,88.3,12.2c28.3-8.6,52.3-25.3,78.4-39.1
			C1856.8,1384.1,1887.3,1373.5,1918.7,1378.1z"/>
		<path class="st0" d="M1911.7,1365.9c13.2,1.9,18.4-2.5,28.7-9.4c10.5-7.2,18-17.6,25.2-28c10.6-15.3,15.6-28.1,27.3-41.7
			c0.7-0.9,1.5-1.8,2.3-2.6c26.5-29.3,72.8-30.4,109.5-46.9c10.5-4.7,20.2-10.9,28.8-18.2c33.3-28.5,49.3-73.8,37.1-118.2
			c-14-50.8-64.1-94.4-118.5-100.6c-46-5.2-90.1,13.5-135.9,6.5c-32.1-4.9-61.4-22.3-92.7-29.8c-35.3-8.5-72.3-3.9-103.4,10.7
			c-10.1,4.7-19.6,10.5-28.2,17.3c-35.3,28-55.4,72.7-53.3,118.5c1.7,37.2,17,73.8,17.9,111.1c0.7,30-8.1,58.8-10.2,88.5
			c-2.2,30.2,4.3,64.8,29.3,85.3c23,18.8,55.6,19.5,81.8,11.7c26.2-7.8,48.5-23.2,72.9-35.8
			C1854.3,1371.5,1882.5,1361.7,1911.7,1365.9z"/>
		<path class="st0" d="M1904.8,1353.7c12.2,1.7,17.2-2.4,26.8-8.9c9.8-6.8,16.8-16.5,23.5-26.1c9.9-14.2,14.6-26.3,25.4-39
			c0.7-0.8,1.4-1.7,2.2-2.5c24.6-27.4,67.5-29,101.5-44.5c9.7-4.5,18.7-10.3,26.7-17.2c30.9-26.7,45.7-68.9,34.1-110.4
			c-13.1-46.8-59.2-87-109.4-92.8c-42.4-4.9-83.2,12.2-125.4,5.8c-29.6-4.5-56.6-20.4-85.5-27.1c-32.7-7.7-66.7-3-95.4,10.6
			c-9.3,4.4-18,9.8-26,16.2c-32.5,26.1-51.1,67.5-49.4,109.9c1.4,34.4,15.4,68.4,16,102.8c0.5,27.8-7.6,54.4-9.6,82
			c-2.1,28,3.7,60.2,26.8,79.3c21.1,17.5,51.1,18.3,75.2,11.2c24.2-7,44.8-21,67.3-32.5C1851.7,1358.9,1877.8,1350,1904.8,1353.7z"
			/>
		<path class="st0" d="M1897.8,1341.4c11.3,1.5,16-2.3,24.8-8.4c9.1-6.3,15.6-15.3,21.7-24.3c9.1-13.2,13.5-24.4,23.5-36.3
			c0.6-0.8,1.3-1.5,2-2.3c22.7-25.6,62.2-27.5,93.5-42.2c9-4.2,17.2-9.7,24.6-16.1c28.6-25,42.1-64,31.1-102.6
			c-12.3-42.8-54.3-79.6-100.3-84.9c-38.8-4.5-76.2,11-114.9,5.2c-27.1-4-51.8-18.5-78.3-24.5c-30-6.8-61.2-2.2-87.4,10.5
			c-8.5,4.1-16.5,9.2-23.8,15c-29.8,24.1-46.9,62.3-45.5,101.3c1.2,31.7,13.7,62.9,14.2,94.6c0.4,25.6-7.1,50.1-9,75.5
			c-2,25.9,3.1,55.5,24.2,73.2c19.2,16.1,46.6,17,68.6,10.8c22.1-6.3,41-18.8,61.7-29.3C1849.1,1346.3,1873,1338.2,1897.8,1341.4z"
			/>
		<path class="st0" d="M1890.8,1329.2c10.4,1.3,14.8-2.3,22.8-7.9c8.4-5.8,14.3-14.2,20-22.5c8.4-12.2,12.5-22.6,21.6-33.5
			c0.6-0.7,1.2-1.4,1.8-2.1c20.9-23.7,56.9-26,85.5-39.9c8.2-4,15.8-9.1,22.6-15c26.2-23.3,38.5-59.2,28.1-94.8
			c-11.4-38.8-49.5-72.2-91.2-77.1c-35.2-4.2-69.2,9.7-104.3,4.6c-24.6-3.6-47-16.6-71-21.8c-27.3-6-55.6-1.4-79.4,10.4
			c-7.7,3.8-15,8.5-21.6,13.9c-27,22.2-42.6,57-41.5,92.7c0.9,28.9,12,57.5,12.3,86.4c0.2,23.3-6.6,45.8-8.4,69
			c-1.9,23.7,2.6,50.9,21.7,67.2c17.3,14.8,42.1,15.7,62.1,10.3c20.1-5.5,37.3-16.6,56.1-26
			C1846.6,1333.7,1868.3,1326.5,1890.8,1329.2z"/>
		<path class="st0" d="M1883.8,1317c9.4,1.1,13.5-2.3,20.9-7.4c7.7-5.3,13.1-13,18.3-20.6c7.6-11.1,11.5-20.7,19.7-30.8
			c0.5-0.7,1.1-1.3,1.7-2c19-21.8,51.5-24.5,77.5-37.6c7.5-3.7,14.3-8.4,20.5-14c23.9-21.5,35-54.3,25.1-87
			c-10.5-34.8-44.6-64.7-82.1-69.3c-31.7-3.8-62.2,8.5-93.8,4c-22.1-3.2-42.3-14.7-63.8-19.1c-24.7-5.1-50.1-0.6-71.4,10.3
			c-6.9,3.5-13.4,7.8-19.4,12.8c-24.3,20.3-38.4,51.8-37.6,84c0.6,26.2,10.4,52,10.5,78.2c0.1,21.1-6.1,41.5-7.8,62.4
			c-1.8,21.5,2,46.2,19.1,61.2c15.4,13.4,37.6,14.4,55.5,9.8c18-4.7,33.6-14.4,50.5-22.7C1844,1321.1,1863.6,1314.7,1883.8,1317z"/>
		<path class="st0" d="M1876.8,1304.8c8.5,0.9,12.3-2.2,18.9-6.8c6.9-4.9,11.9-11.8,16.6-18.8c6.9-10.1,10.4-18.9,17.8-28
			c0.5-0.6,1-1.2,1.5-1.8c17.1-20,46.2-23.1,69.6-35.2c6.7-3.5,12.9-7.8,18.4-12.9c21.5-19.8,31.4-49.4,22.1-79.1
			c-9.7-30.8-39.7-57.3-73-61.4c-28.1-3.5-55.3,7.2-83.3,3.3c-19.6-2.7-37.5-12.8-56.6-16.5c-22-4.3-44.5,0.2-63.4,10.2
			c-6.1,3.2-11.9,7.1-17.2,11.6c-21.5,18.4-34.1,46.6-33.6,75.4c0.4,23.4,8.7,46.5,8.7,70c0,18.9-5.6,37.1-7.3,55.9
			c-1.8,19.3,1.4,41.5,16.6,55.1c13.5,12.1,33.1,13.2,48.9,9.3c15.9-3.9,29.8-12.2,44.9-19.4
			C1841.4,1308.5,1858.8,1302.9,1876.8,1304.8z"/>
		<path class="st0" d="M1869.8,1292.5c7.6,0.7,11.1-2.2,16.9-6.3c6.2-4.4,10.7-10.7,14.9-16.9c6.1-9,9.4-17,15.9-25.3
			c0.4-0.5,0.9-1.1,1.3-1.6c15.2-18.1,40.9-21.6,61.6-32.9c5.9-3.2,11.4-7.2,16.3-11.8c19.2-18,27.8-44.6,19.1-71.3
			c-8.8-26.8-34.9-49.9-63.9-53.6c-24.5-3.2-48.3,6-72.7,2.7c-17.1-2.3-32.8-10.9-49.3-13.8c-19.4-3.4-39,1-55.4,10.1
			c-5.3,2.9-10.4,6.4-14.9,10.5c-18.8,16.5-29.8,41.3-29.7,66.8c0.1,20.7,7.1,41.1,6.8,61.8c-0.2,16.7-5.1,32.8-6.7,49.4
			c-1.7,17.2,0.8,36.9,14.1,49.1c11.6,10.7,28.6,11.9,42.4,8.8c13.9-3.1,26.1-10,39.3-16.2
			C1838.9,1295.9,1854.1,1291.1,1869.8,1292.5z"/>
		<path class="st0" d="M1862.9,1280.3c6.7,0.5,9.8-2.1,15-5.8c5.5-4,9.4-9.5,13.2-15.1c5.4-8,8.3-15.2,14-22.5
			c0.4-0.5,0.8-1,1.2-1.5c13.3-16.2,35.6-20.1,53.6-30.6c5.2-3,10-6.6,14.3-10.8c16.8-16.3,24.3-39.7,16.1-63.5
			c-7.8-22.8-30-42.5-54.8-45.8c-21-2.8-41.3,4.7-62.2,2.1c-14.6-1.9-28-9-42.1-11.1c-16.7-2.6-33.4,1.9-47.4,10.1
			c-4.5,2.7-8.8,5.8-12.7,9.3c-16,14.5-25.6,36.1-25.8,58.2c-0.2,17.9,5.4,35.6,5,53.6c-0.3,14.5-4.6,28.5-6.1,42.8
			c-1.6,15,0.2,32.2,11.5,43.1c9.7,9.4,24,10.6,35.8,8.4c11.8-2.3,22.3-7.9,33.7-12.9C1836.3,1283.3,1849.4,1279.4,1862.9,1280.3z"
			/>
		<path class="st0" d="M1855.9,1268.1c5.7,0.3,8.6-2.1,13-5.3c4.8-3.5,8.2-8.4,11.4-13.2c4.7-7,7.3-13.3,12.1-19.8
			c0.3-0.4,0.7-0.9,1-1.3c11.4-14.4,30.2-18.6,45.6-28.3c4.4-2.7,8.5-6,12.2-9.7c14.5-14.5,20.8-34.8,13.1-55.7
			c-6.9-18.8-25.1-35-45.7-37.9c-17.4-2.5-34.3,3.5-51.7,1.5c-12.1-1.4-23.3-7-34.9-8.4c-14.1-1.7-27.8,2.7-39.4,10
			c-3.8,2.4-7.3,5.1-10.5,8.2c-13.3,12.6-21.3,30.9-21.8,49.5c-0.4,15.2,3.8,30.2,3.1,45.4c-0.5,12.2-4.1,24.1-5.5,36.3
			c-1.5,12.8-0.3,27.5,9,37c7.8,8,19.5,9.4,29.2,7.9c9.8-1.5,18.6-5.7,28.2-9.6C1833.7,1270.7,1844.6,1267.6,1855.9,1268.1z"/>
		<path class="st0" d="M1848.9,1255.9c4.8,0,7.4-2,11-4.8c4-3,7-7.2,9.7-11.4c3.9-5.9,6.2-11.5,10.3-17c0.3-0.4,0.5-0.8,0.8-1.1
			c9.5-12.5,24.9-17.2,37.6-25.9c3.6-2.5,7-5.4,10.1-8.6c12.2-12.8,17.3-30,10.1-47.9c-5.9-14.8-20.3-27.6-36.6-30.1
			c-13.8-2.1-27.4,2.2-41.1,0.8c-9.6-1-18.5-5.1-27.7-5.8c-11.5-0.8-22.3,3.5-31.4,9.9c-3,2.1-5.8,4.4-8.3,7
			c-10.5,10.7-17.1,25.7-17.9,40.9c-0.7,12.4,2.1,24.7,1.3,37.2c-0.6,10-3.6,19.8-4.9,29.8c-1.4,10.7-0.9,22.8,6.4,31
			c5.9,6.6,15.1,8.1,22.7,7.4c7.7-0.7,14.8-3.5,22.6-6.3C1831.1,1258.1,1839.9,1255.8,1848.9,1255.9z"/>
		<path class="st0" d="M1841.9,1243.6c3.9-0.2,6.2-2,9.1-4.2c3.3-2.6,5.8-6,8-9.6c3.2-4.9,5.2-9.6,8.4-14.3c0.2-0.3,0.4-0.6,0.7-1
			c7.6-10.6,19.6-15.7,29.6-23.6c2.9-2.3,5.6-4.8,8.1-7.6c9.8-11.1,13.8-25.1,7.1-40.1c-4.8-10.8-15.4-20.2-27.5-22.3
			c-10.3-1.8-20.4,1-30.6,0.2c-7.2-0.6-13.8-3.2-20.4-3.1c-8.8,0.1-16.7,4.3-23.4,9.8c-2.2,1.8-4.2,3.7-6.1,5.9
			c-7.8,8.8-12.8,20.4-14,32.3c-1,9.6,0.4,19.2-0.5,28.9c-0.8,7.8-3.1,15.4-4.3,23.2c-1.4,8.5-1.5,18.1,3.9,25
			c4,5.2,10.6,6.8,16.1,6.9c5.7,0.1,11.1-1.3,17-3.1C1828.6,1245.5,1835.2,1243.9,1841.9,1243.6z"/>
	</g>
	<rect x="1103.9" y="636.3" class="st1" width="756" height="530"/>
</g>
</svg>
