<svg version="1.1" id="Layer_1" xmlns="http://www.w3.org/2000/svg" x="0" y="0" viewBox="0 0 590.42 98.82" xml:space="preserve"><style>.st0{fill:none;stroke:#fff;stroke-width:.75;stroke-miterlimit:10}</style><path class="st0" d="M52.24 30.37h11.82L50.18 68.61h-9.84L32.4 45.68l-7.86 22.93h-9.92L.75 30.37h11.98l7.62 20.95 7.14-20.95h9.84l7.3 20.87 7.61-20.87zM69.46 64.17c-4.05-3.89-6.03-8.81-6.03-14.76s1.98-10.87 6.03-14.68c4.05-3.89 9.13-5.79 15.23-5.79 6.11 0 11.11 1.9 15.16 5.79 4.05 3.81 6.11 8.73 6.11 14.68s-2.06 10.87-6.11 14.76c-4.05 3.81-9.05 5.71-15.16 5.71-6.1 0-11.18-1.9-15.23-5.71zM84.7 39.41c-5.71 0-9.44 4.28-9.44 10s3.73 10 9.44 10 9.44-4.28 9.44-10c0-5.79-3.73-10-9.44-10zM141.27 29.81l-2.7 12.14a9.867 9.867 0 00-3.65-.71c-5.95 0-9.84 4.68-9.84 12.93v14.44h-12.54v-38.4h11.74v7.62c2.54-5.63 6.98-8.89 12.62-8.89 1.2 0 2.63.32 4.37.87zM175.55 68.61l-11.11-16.42-5.71 5.4v11.03h-12.54V11.48h12.54v32.77l14.6-14.04h14.36l-15.15 14.28 16.35 24.12h-13.34zM223.71 29.18v1.03h9.6V41h-9.6v27.61h-12.14V41h-7.62V30.21h7.62v-1.03c0-5.4 1.43-9.92 4.36-13.49 2.94-3.65 7.3-5.47 13.01-5.47 2.54 0 5 .4 7.3 1.27l-2.86 11.35a7.2 7.2 0 00-3.41-.87c-4.04-.01-6.26 3-6.26 7.21zM242.28 64.17c-4.05-3.89-6.03-8.81-6.03-14.76s1.98-10.87 6.03-14.68c4.05-3.89 9.13-5.79 15.23-5.79 6.11 0 11.11 1.9 15.16 5.79 4.05 3.81 6.11 8.73 6.11 14.68s-2.06 10.87-6.11 14.76c-4.05 3.81-9.05 5.71-15.16 5.71-6.11 0-11.19-1.9-15.23-5.71zm15.23-24.76c-5.71 0-9.44 4.28-9.44 10s3.73 10 9.44 10 9.44-4.28 9.44-10c0-5.79-3.73-10-9.44-10zM314.08 29.81l-2.7 12.14a9.867 9.867 0 00-3.65-.71c-5.95 0-9.84 4.68-9.84 12.93v14.44h-12.54v-38.4h11.74v7.62c2.54-5.63 6.98-8.89 12.62-8.89 1.2 0 2.63.32 4.37.87zM380.18 30.37H392l-13.88 38.24h-9.84l-7.93-22.93-7.86 22.93h-9.92l-13.89-38.24h11.98l7.62 20.95 7.14-20.95h9.84l7.3 20.87 7.62-20.87zM401.6 24.97c-2.14 0-3.97-.71-5.32-2.14-2.78-2.86-2.78-7.62 0-10.47 1.35-1.51 3.17-2.22 5.32-2.22s3.97.71 5.32 2.22c2.78 2.86 2.78 7.62 0 10.47-1.35 1.43-3.18 2.14-5.32 2.14zm-6.19 43.64v-38.4h12.46v38.4h-12.46zM441.67 30.21V41h-9.13v27.61H420.4V41h-7.78V30.21h7.78V17.83h12.14v12.38h9.13zM486.9 68.61h-12.54V48.78c0-5.95-2.7-9.2-7.14-9.2-4.76 0-7.46 3.57-7.46 9.52v19.52h-12.54V11.48h12.54v22.46c2.62-3.33 6.35-5 11.19-5 9.6 0 15.95 6.82 15.95 17.93v21.74zM508.88 30.21h12.46V50.6c0 5.16 2.46 8.33 6.9 8.33 4.36 0 6.82-3.17 6.82-8.33V30.21h12.46V50.6c0 6.03-1.83 10.79-5.4 14.2s-8.17 5.08-13.88 5.08-10.39-1.67-13.96-5.08-5.4-8.17-5.4-14.2V30.21zM562.67 54.81c1.43 4.05 4.05 6.03 7.78 6.03 3.49 0 5.79-1.27 5.79-3.49 0-1.9-2.06-3.09-6.19-3.65l-1.82-.24c-8.57-1.03-13.57-5.47-13.57-12.22 0-7.7 6.19-12.3 15.95-12.3 8.65 0 15.08 3.65 16.74 11.82l-9.6 1.98c-.95-3.09-3.1-4.68-6.35-4.68-2.62 0-4.84 1.03-4.84 3.17 0 2.14 2.46 3.41 7.38 3.97l2.06.24c7.62.71 12.14 5.24 12.14 11.82 0 4.13-1.67 7.3-5 9.44s-7.46 3.17-12.3 3.17c-9.76 0-16.34-4.68-17.85-13.01l9.68-2.05z"/></svg>