<?xml version="1.0" encoding="utf-8"?>
<!-- Generator: Adobe Illustrator 24.1.2, SVG Export Plug-In . SVG Version: 6.00 Build 0)  -->
<svg version="1.1" id="Layer_1" xmlns="http://www.w3.org/2000/svg" xmlns:xlink="http://www.w3.org/1999/xlink" x="0px" y="0px"
	 viewBox="0 0 590.42 98.82" style="enable-background:new 0 0 590.42 98.82;" xml:space="preserve">
<style type="text/css">
	.st0{fill:none;stroke:#FFFFFF;stroke-width:0.75;stroke-miterlimit:10;}
</style>
<g>
	<g>
		<path class="st0" d="M52.24,30.37h11.82L50.18,68.61h-9.84l-7.94-22.93l-7.86,22.93h-9.92L0.75,30.37h11.98l7.62,20.95l7.14-20.95
			h9.84l7.3,20.87L52.24,30.37z"/>
		<path class="st0" d="M69.46,64.17c-4.05-3.89-6.03-8.81-6.03-14.76s1.98-10.87,6.03-14.68c4.05-3.89,9.13-5.79,15.23-5.79
			c6.11,0,11.11,1.9,15.16,5.79c4.05,3.81,6.11,8.73,6.11,14.68s-2.06,10.87-6.11,14.76c-4.05,3.81-9.05,5.71-15.16,5.71
			C78.59,69.88,73.51,67.98,69.46,64.17z M84.7,39.41c-5.71,0-9.44,4.28-9.44,10s3.73,10,9.44,10s9.44-4.28,9.44-10
			C94.14,43.62,90.41,39.41,84.7,39.41z"/>
		<path class="st0" d="M141.27,29.81l-2.7,12.14c-1.19-0.48-2.46-0.71-3.65-0.71c-5.95,0-9.84,4.68-9.84,12.93v14.44h-12.54v-38.4
			h11.74v7.62c2.54-5.63,6.98-8.89,12.62-8.89C138.1,28.94,139.53,29.26,141.27,29.81z"/>
		<path class="st0" d="M175.55,68.61l-11.11-16.42l-5.71,5.4v11.03h-12.54V11.48h12.54v32.77l14.6-14.04h14.36l-15.15,14.28
			l16.35,24.12H175.55z"/>
		<path class="st0" d="M223.71,29.18v1.03h9.6V41h-9.6v27.61h-12.14V41h-7.62V30.21h7.62v-1.03c0-5.4,1.43-9.92,4.36-13.49
			c2.94-3.65,7.3-5.47,13.01-5.47c2.54,0,5,0.4,7.3,1.27l-2.86,11.35c-1.03-0.56-2.22-0.87-3.41-0.87
			C225.93,21.96,223.71,24.97,223.71,29.18z"/>
		<path class="st0" d="M242.28,64.17c-4.05-3.89-6.03-8.81-6.03-14.76s1.98-10.87,6.03-14.68c4.05-3.89,9.13-5.79,15.23-5.79
			c6.11,0,11.11,1.9,15.16,5.79c4.05,3.81,6.11,8.73,6.11,14.68s-2.06,10.87-6.11,14.76c-4.05,3.81-9.05,5.71-15.16,5.71
			C251.4,69.88,246.32,67.98,242.28,64.17z M257.51,39.41c-5.71,0-9.44,4.28-9.44,10s3.73,10,9.44,10s9.44-4.28,9.44-10
			C266.95,43.62,263.22,39.41,257.51,39.41z"/>
		<path class="st0" d="M314.08,29.81l-2.7,12.14c-1.19-0.48-2.46-0.71-3.65-0.71c-5.95,0-9.84,4.68-9.84,12.93v14.44h-12.54v-38.4
			h11.74v7.62c2.54-5.63,6.98-8.89,12.62-8.89C310.91,28.94,312.34,29.26,314.08,29.81z"/>
		<path class="st0" d="M380.18,30.37H392l-13.88,38.24h-9.84l-7.93-22.93l-7.86,22.93h-9.92l-13.89-38.24h11.98l7.62,20.95
			l7.14-20.95h9.84l7.3,20.87L380.18,30.37z"/>
		<path class="st0" d="M401.6,24.97c-2.14,0-3.97-0.71-5.32-2.14c-2.78-2.86-2.78-7.62,0-10.47c1.35-1.51,3.17-2.22,5.32-2.22
			s3.97,0.71,5.32,2.22c2.78,2.86,2.78,7.62,0,10.47C405.57,24.26,403.74,24.97,401.6,24.97z M395.41,68.61v-38.4h12.46v38.4H395.41
			z"/>
		<path class="st0" d="M441.67,30.21V41h-9.13v27.61h-12.14V41h-7.78V30.21h7.78V17.83h12.14v12.38H441.67z"/>
		<path class="st0" d="M486.9,68.61h-12.54V48.78c0-5.95-2.7-9.2-7.14-9.2c-4.76,0-7.46,3.57-7.46,9.52v19.52h-12.54V11.48h12.54
			v22.46c2.62-3.33,6.35-5,11.19-5c9.6,0,15.95,6.82,15.95,17.93V68.61z"/>
		<path class="st0" d="M508.88,30.21h12.46V50.6c0,5.16,2.46,8.33,6.9,8.33c4.36,0,6.82-3.17,6.82-8.33V30.21h12.46V50.6
			c0,6.03-1.83,10.79-5.4,14.2s-8.17,5.08-13.88,5.08s-10.39-1.67-13.96-5.08s-5.4-8.17-5.4-14.2V30.21z"/>
		<path class="st0" d="M562.67,54.81c1.43,4.05,4.05,6.03,7.78,6.03c3.49,0,5.79-1.27,5.79-3.49c0-1.9-2.06-3.09-6.19-3.65
			l-1.82-0.24c-8.57-1.03-13.57-5.47-13.57-12.22c0-7.7,6.19-12.3,15.95-12.3c8.65,0,15.08,3.65,16.74,11.82l-9.6,1.98
			c-0.95-3.09-3.1-4.68-6.35-4.68c-2.62,0-4.84,1.03-4.84,3.17c0,2.14,2.46,3.41,7.38,3.97l2.06,0.24
			c7.62,0.71,12.14,5.24,12.14,11.82c0,4.13-1.67,7.3-5,9.44s-7.46,3.17-12.3,3.17c-9.76,0-16.34-4.68-17.85-13.01L562.67,54.81z"/>
	</g>
</g>
<g>
</g>
<g>
</g>
<g>
</g>
<g>
</g>
<g>
</g>
<g>
</g>
<g>
</g>
<g>
</g>
<g>
</g>
<g>
</g>
<g>
</g>
<g>
</g>
<g>
</g>
<g>
</g>
<g>
</g>
</svg>
