<svg version="1.1" id="Layer_1" xmlns="http://www.w3.org/2000/svg" x="0" y="0" viewBox="0 0 1280 990" xml:space="preserve"><style>.st0{fill:none;stroke:#e1e6e7;stroke-width:.75;stroke-miterlimit:10}</style><path class="st0" d="M665 84.8c64.5 23.3 133 9.9 193.2-11.9 60.2-21.9 117-52.1 181.2-63.3 64.2-11.1 140.3 1.1 188.3 51.2 50.8 52.9 55.7 131.7 41.2 197.5-14.5 65.7-44.7 126.5-52.6 193.9-9.8 83.6 15.3 171.8 7.7 255.8-9.3 103.5-71.3 195.9-162.4 242.1-91.1 46.2-209.3 45.3-309.9-2.5-68.9-32.8-129.2-85.7-200.9-110.2-102.3-35-210.8-6.5-314.5-34.9-123-33.7-223.9-154.1-231.8-276.4-7.8-122.3 78.1-234.7 197.5-258 85.9-16.8 188.4 6.3 256.2-44.1 34.5-25.6 48.9-51.6 79.1-82 18.9-19 38.3-38.4 63.3-49.5 25.1-11 36.6-17.7 64.4-7.7z"/><path class="st0" d="M669.5 97.2c-26.9-9.7-38.1-3.2-62.4 7.6-24.3 10.7-43.1 29.6-61.5 48-27.5 27.7-41.5 51.7-71 75.1-1.9 1.5-3.8 3-5.8 4.5-65.9 48.9-165.2 26.7-248.5 43.2-23.9 4.7-46.4 13.1-67 24.5-79.1 43.8-130.4 131.8-124.2 226 7.6 118.5 105.4 235 224.5 267.7 100.5 27.6 205.6 0 304.7 33.9 69.4 23.7 127.8 75 194.6 106.7 73.6 34.9 156.9 43.9 231.4 26.8 24.1-5.5 47.2-13.8 68.8-24.7 88.3-44.9 148.3-134.4 157.4-234.7 7.4-81.5-16.9-166.9-7.3-247.9 7.7-65.4 37-124.2 51.1-187.9 14.1-63.7 9.4-140.1-39.8-191.5-46.5-48.6-120.2-60.5-182.3-49.8-62.1 10.6-117.2 39.9-175.5 61s-124.6 34-187.2 11.5z"/><path class="st0" d="M674.1 109.7c-26.1-9.3-37-3-60.5 7.4s-41.8 28.7-59.6 46.6c-26.7 26.9-40.3 50.1-68.8 72.9-1.8 1.4-3.7 2.9-5.6 4.3-63.8 47.5-160 26.2-240.7 42.2-23.2 4.6-45 12.8-65 23.8C97.2 349.4 47.5 434.8 53.7 526.2c7.4 114.6 102 227.4 217.3 259 97.2 26.7 198.9.1 294.8 32.8 67.1 23 123.6 72.5 188.2 103.1 71.3 33.7 151.9 42.2 223.9 25.7 23.3-5.4 45.7-13.4 66.6-24 85.4-43.5 143.6-130.2 152.5-227.3 7.2-78.9-16.2-161.6-6.8-240 7.5-63.3 35.9-120.3 49.5-182 13.6-61.7 9.2-135.7-38.3-185.5-45-47-116.2-58.6-176.3-48.3C965 49.9 911.6 78.1 855.2 98.5c-56.4 20.4-120.6 32.9-181.1 11.2z"/><path class="st0" d="M678.7 122.1c-25.2-9-35.8-2.9-58.6 7.2-22.8 10.1-40.5 27.8-57.7 45.1-25.8 26-39 48.6-66.6 70.6l-5.4 4.2c-61.8 46.1-154.8 25.7-233 41.3-22.4 4.5-43.5 12.4-62.9 23.2-74.3 41.3-122.4 124-116.3 212.5 7.2 110.8 98.6 219.7 210 250.4 93.9 25.8 192.3.2 284.9 31.8 64.9 22.1 119.6 70 182 99.5 68.9 32.4 146.9 40.6 216.5 24.5 22.5-5.2 44.2-13 64.4-23.3 82.6-42.2 138.8-126 147.5-219.9 7-76.3-15.5-156.3-6.4-232.1 7.3-61.2 34.7-116.3 48-176 13.2-59.7 9-131.3-36.9-179.5-43.4-45.5-112.2-56.7-170.3-46.8-58.1 9.9-109.6 37.1-164.1 56.7-54.5 19.5-116.6 31.5-175.1 10.6z"/><path class="st0" d="M683.3 134.5c-24.4-8.6-34.7-2.7-56.7 7-22 9.8-39.2 26.9-55.8 43.7-25 25.2-37.7 47-64.4 68.4-1.7 1.4-3.4 2.7-5.3 4.1-59.7 44.6-149.7 25.1-225.2 40.4-21.7 4.4-42.1 12.1-60.8 22.5-71.9 40-118.2 120-112.4 205.7C110 633.2 198 738.4 305.5 768c90.7 25 185.6.3 275.1 30.7 62.7 21.4 115.5 67.4 175.7 95.9 66.6 31.2 141.9 39 209.1 23.3 21.8-5.1 42.7-12.6 62.2-22.6 79.7-40.8 134-121.8 142.5-212.6 6.9-73.7-14.8-150.9-6-224.2 7.1-59.1 33.6-112.4 46.4-170 12.8-57.7 8.8-126.8-35.5-173.5-41.9-44-108.2-54.9-164.3-45.4-56 9.4-105.8 35.6-158.4 54.6-52.6 18.9-112.5 30.5-169 10.3z"/><path class="st0" d="M687.9 146.9c-23.6-8.3-33.5-2.6-54.8 6.8-21.3 9.5-37.8 26-53.9 42.3-24.1 24.3-36.5 45.5-62.2 66.1-1.6 1.3-3.3 2.6-5.1 3.9-57.7 43.2-144.5 24.6-217.4 39.5-20.9 4.3-40.6 11.7-58.7 21.8-69.5 38.8-114.2 116.1-108.4 198.9 7.2 103.1 91.9 204.5 195.6 233 87.4 24.1 178.9.3 265.2 29.7 60.4 20.6 111.3 64.9 169.5 92.3 64.3 30 136.8 37.4 201.6 22.2 21-4.9 41.1-12.2 59.9-21.8 76.9-39.5 129.3-117.6 137.5-205.2 6.7-71.1-14.1-145.6-5.5-216.3 6.9-57 32.5-108.4 44.8-164.1 12.4-55.7 8.6-122.4-34.1-167.5-40.3-42.4-104.3-53-158.3-43.9-54 9-102 34.2-152.8 52.4-50.6 18.2-108.4 29.3-162.9 9.9z"/><path class="st0" d="M692.5 159.3c-22.7-8-32.4-2.5-52.8 6.7-20.5 9.2-36.5 25.1-52.1 40.8-23.3 23.5-35.2 43.9-60.1 63.8-1.6 1.3-3.2 2.5-4.9 3.8-55.7 41.8-139.3 24-209.7 38.6-20.2 4.2-39.2 11.4-56.6 21.1-67 37.5-110.1 112.1-104.4 192.1 7 99.3 88.6 196.8 188.3 224.4 84.2 23.2 172.3.4 255.3 28.6 58.2 19.8 107.2 62.5 163.2 88.7 61.9 28.9 131.8 35.8 194.2 21 20.2-4.8 39.6-11.8 57.7-21.1 74.1-38.1 124.5-113.4 132.5-197.8 6.5-68.5-13.4-140.3-5.1-208.4 6.7-55 31.3-104.5 43.3-158.1 12-53.7 8.4-118.1-32.6-161.5-38.7-40.9-100.3-51.1-152.2-42.5-52 8.6-98.2 32.7-147.1 50.2-48.8 17.6-104.4 28.2-156.9 9.6z"/><path class="st0" d="M697.1 171.7c-21.9-7.7-31.2-2.3-50.9 6.5-19.8 8.9-35.2 24.2-50.2 39.4-22.4 22.6-34 42.3-57.9 61.6-1.5 1.2-3.1 2.5-4.7 3.7-53.6 40.3-134.2 23.5-201.9 37.6-19.4 4.1-37.7 11.1-54.5 20.5-64.6 36.3-106 108.2-100.4 185.3 6.9 95.4 85.2 189.2 181.1 215.7 80.9 22.4 165.6.5 245.5 27.6 55.9 19 103 60 156.9 85.1 59.5 27.7 126.8 34.2 186.8 19.9 19.4-4.6 38.1-11.4 55.5-20.4 71.2-36.8 119.8-109.2 127.6-190.4 6.3-65.9-12.7-135-4.7-200.5 6.5-52.9 30.2-100.6 41.7-152.1 11.6-51.7 8.3-113.7-31.2-155.5-37.1-39.4-96.3-49.2-146.2-41-49.9 8.2-94.3 31.3-141.4 48-47.2 16.7-100.6 26.8-151.1 9z"/><path class="st0" d="M701.6 184.2c-21.1-7.4-30.1-2.2-49 6.3-19.1 8.5-33.9 23.3-48.3 37.9-21.6 21.8-32.7 40.8-55.7 59.3-1.5 1.2-3 2.4-4.5 3.5-51.6 38.9-129 22.9-194.2 36.7-18.7 3.9-36.3 10.7-52.4 19.8-62.1 35-101.9 104.2-96.5 178.5 6.7 91.6 81.8 181.5 173.9 207 77.7 21.5 159 .6 235.6 26.5 53.7 18.2 98.9 57.5 150.6 81.5 57.2 26.5 121.8 32.5 179.3 18.7 18.6-4.5 36.6-11 53.3-19.7 68.4-35.4 115-105 122.6-183 6.2-63.3-12-129.6-4.2-192.6 6.3-50.8 29.1-96.6 40.2-146.2 11.2-49.7 8.1-109.3-29.8-149.5-35.6-37.9-92.3-47.4-140.2-39.6-47.9 7.8-90.5 29.8-135.7 45.9-45.1 16.3-96.4 25.9-145 9z"/><path class="st0" d="M706.2 196.6c-20.2-7-28.9-2-47.1 6.1-18.3 8.2-32.6 22.5-46.4 36.5-20.7 21-31.4 39.2-53.5 57.1-1.4 1.1-2.9 2.3-4.4 3.4-49.5 37.4-123.9 22.4-186.4 35.8-17.9 3.8-34.8 10.4-50.4 19.1-59.7 33.8-97.8 100.3-92.5 171.8 6.6 87.7 78.5 173.9 166.7 198.3 74.4 20.6 152.3.7 225.7 25.5 51.5 17.4 94.8 55.1 144.3 77.9 54.9 25.3 116.7 30.9 171.9 17.6 17.9-4.3 35-10.6 51.1-19 65.5-34 110.2-100.8 117.6-175.6 6-60.7-11.3-124.3-3.8-184.8 6.1-48.7 27.9-92.7 38.6-140.2 10.8-47.7 7.9-104.9-28.3-143.6-34-36.3-88.3-45.5-134.2-38.1-45.9 7.3-86.7 28.4-130 43.7-43.2 15.4-92.4 24.7-138.9 8.5z"/><path class="st0" d="M710.8 209c-19.4-6.7-27.8-1.9-45.2 5.9-17.6 7.9-31.3 21.6-44.6 35-19.9 20.1-30.2 37.7-51.3 54.8-1.3 1.1-2.7 2.2-4.2 3.3-47.5 36-118.7 21.9-178.6 34.9-17.2 3.7-33.4 10-48.3 18.5-57.2 32.5-93.8 96.3-88.5 165 6.4 83.9 75.1 166.3 159.4 189.7 71.1 19.8 145.6.7 215.9 24.5 49.2 16.6 90.6 52.6 138 74.3 52.5 24.1 111.7 29.3 164.5 16.4 17.1-4.2 33.5-10.2 48.8-18.2 62.7-32.7 105.5-96.6 112.6-168.2 5.8-58.1-10.6-119-3.3-176.9 5.9-46.6 26.8-88.7 37.1-134.2 10.4-45.7 7.7-100.5-26.9-137.6-32.5-34.8-84.4-43.6-128.2-36.6-43.8 6.9-82.9 27-124.3 41.5-41.4 14.5-88.4 23.3-132.9 7.9z"/><path class="st0" d="M715.4 221.4c-18.6-6.4-26.7-1.7-43.3 5.8-16.8 7.6-29.9 20.7-42.7 33.6-19 19.3-28.9 36.1-49.2 52.6-1.3 1.1-2.6 2.1-4 3.1-45.4 34.6-113.5 21.3-170.9 33.9-16.4 3.6-32 9.7-46.2 17.8-54.8 31.3-89.7 92.4-84.5 158.2 6.3 80.1 71.7 158.6 152.2 181 67.9 18.9 139 .8 206 23.4 47 15.8 86.5 50.1 131.7 70.7 50.2 22.9 106.7 27.7 157 15.3 16.3-4 32-9.9 46.6-17.5 59.8-31.3 100.7-92.5 107.6-160.8 5.6-55.5-9.9-113.7-2.9-169 5.7-44.6 25.7-84.8 35.5-128.3 10-43.7 7.5-96.1-25.5-131.6-30.9-33.3-80.4-41.8-122.2-35.2-41.8 6.5-79.1 25.5-118.6 39.3-39.2 14-84.1 22.3-126.6 7.7z"/><path class="st0" d="M720 233.8c-17.7-6.1-25.5-1.6-41.4 5.6-16.1 7.3-28.6 19.8-40.8 32.2-18.2 18.4-27.7 34.6-47 50.3-1.2 1-2.5 2-3.8 3-43.4 33.1-108.4 20.8-163.1 33-15.7 3.5-30.5 9.4-44.1 17.1-52.4 30-85.6 88.4-80.5 151.4 6.2 76.2 68.4 151 145 172.3 64.6 18 132.3.9 196.1 22.4 44.7 15 82.4 47.6 125.4 67.1 47.8 21.7 101.6 26.1 149.6 14.1 15.5-3.9 30.5-9.5 44.4-16.8 57-30 96-88.3 102.6-153.4 5.4-52.9-9.2-108.4-2.5-161.1 5.4-42.5 24.5-80.9 34-122.3 9.6-41.7 7.3-91.6-24-125.6-29.3-31.7-76.4-39.9-116.1-33.7-39.8 6.1-75.3 24.1-112.9 37.2-37.7 13.2-80.4 21.1-120.9 7.2z"/><path class="st0" d="M724.6 246.3c-16.9-5.7-24.4-1.4-39.5 5.4-15.3 7-27.3 18.9-38.9 30.7-17.3 17.6-26.4 33-44.8 48-1.2 1-2.4 1.9-3.6 2.9-41.4 31.7-103.2 20.2-155.3 32.1-14.9 3.4-29.1 9-42 16.5-49.9 28.8-81.5 84.5-76.5 144.6 6 72.4 65 143.3 137.7 163.7 61.4 17.1 125.7 1 186.3 21.3 42.5 14.2 78.2 45.1 119.1 63.5 45.5 20.5 96.6 24.5 142.2 13 14.7-3.7 28.9-9.1 42.2-16.1 54.1-28.6 91.2-84.1 97.7-146 5.3-50.3-8.5-103-2-153.2 5.2-40.4 23.4-76.9 32.4-116.3 9.2-39.7 7.2-87.2-22.6-119.6-27.8-30.2-72.4-38-110.1-32.3-37.8 5.7-71.5 22.6-107.2 35-36.1 12.4-76.6 19.8-115.1 6.8z"/><path class="st0" d="M729.2 258.7c-16.1-5.4-23.2-1.3-37.6 5.2-14.6 6.6-26 18-37.1 29.3-16.5 16.7-25.1 31.5-42.6 45.8-1.1.9-2.3 1.8-3.5 2.8-39.3 30.3-98 19.7-147.6 31.2-14.2 3.3-27.6 8.7-39.9 15.8-47.5 27.5-77.5 80.5-72.6 137.8 5.9 68.5 61.6 135.7 130.5 155 58.1 16.3 119 1.1 176.4 20.3 40.2 13.5 74.1 42.6 112.8 59.9 43.2 19.3 91.6 22.8 134.7 11.8 14-3.6 27.4-8.7 39.9-15.3 51.3-27.3 86.4-79.9 92.7-138.6 5.1-47.7-7.8-97.7-1.6-145.3 5-38.3 22.3-73 30.9-110.4 8.7-37.7 7-82.8-21.2-113.6-26.2-28.7-68.4-36.1-104.1-30.8-35.7 5.2-67.7 21.2-101.6 32.8-33.6 11.6-72.1 18.5-108.5 6.3z"/><path class="st0" d="M733.8 271.1c-15.2-5.1-22.1-1.1-35.7 5-13.9 6.3-24.7 17.1-35.2 27.8-15.6 15.9-23.9 29.9-40.5 43.5-1.1.9-2.2 1.7-3.3 2.6-37.3 28.8-92.9 19.1-139.8 30.2-13.5 3.2-26.2 8.3-37.8 15.1-45 26.3-73.4 76.6-68.6 131 5.7 64.7 58.3 128.1 123.3 146.3 54.8 15.4 112.3 1.1 166.5 19.2 38 12.7 70 40.1 106.5 56.3 40.8 18.1 86.6 21.2 127.3 10.7 13.2-3.4 25.9-8.3 37.7-14.6 48.4-25.9 81.7-75.7 87.7-131.3 4.9-45.1-7.1-92.4-1.2-137.4 4.8-36.2 21.1-69 29.3-104.4 8.3-35.7 6.8-78.4-19.7-107.6-24.7-27.1-64.5-34.3-98.1-29.3-33.7 4.8-63.8 19.7-95.9 30.6-31.8 11.3-68.1 17.8-102.5 6.3z"/><path class="st0" d="M738.3 283.5c-14.4-4.8-20.9-1-33.8 4.9-13.1 6-23.4 16.2-33.3 26.4-14.8 15-22.6 28.3-38.3 41.3-1 .8-2 1.7-3.1 2.5-35.2 27.4-87.7 18.6-132.1 29.3-12.7 3.1-24.7 8-35.8 14.5-42.6 25-69.3 72.6-64.6 124.3 5.6 60.8 54.9 120.4 116.1 137.6 51.6 14.5 105.7 1.2 156.7 18.2 35.7 11.9 65.8 37.6 100.3 52.8 38.5 16.9 81.5 19.6 119.9 9.5 12.4-3.3 24.3-7.9 35.5-13.9 45.6-24.6 76.9-71.5 82.7-123.9 4.7-42.5-6.5-87.1-.7-129.5 4.6-34.2 20-65.1 27.8-98.4 7.9-33.7 6.6-74-18.3-101.6-23.1-25.6-60.5-32.4-92.1-27.9-31.7 4.4-60 18.3-90.2 28.5-30 10.1-64.2 16.1-96.7 5.4z"/><path class="st0" d="M742.9 295.9c-13.6-4.4-19.8-.9-31.9 4.7-12.4 5.7-22.1 15.4-31.4 24.9-13.9 14.2-21.4 26.8-36.1 39-.9.8-1.9 1.6-2.9 2.4-33.2 25.9-82.6 18-124.3 28.4-12 3-23.3 7.7-33.7 13.8-40.1 23.8-65.2 68.7-60.6 117.5 5.4 57 51.6 112.8 108.8 129 48.3 13.7 99 1.3 146.8 17.1 33.5 11.1 61.7 35.1 94 49.2 36.1 15.7 76.5 18 112.4 8.4 11.6-3.1 22.8-7.5 33.3-13.2 42.7-23.2 72.2-67.3 77.7-116.5 4.5-39.9-5.8-81.8-.3-121.6 4.4-32.1 18.9-61.1 26.2-92.5 7.5-31.7 6.4-69.6-16.9-95.6-21.5-24.1-56.5-30.5-86.1-26.4-29.6 4-56.2 16.9-84.5 26.3-28 9.5-60 15-90.5 5.1z"/><path class="st0" d="M747.5 308.3c-12.7-4.1-18.6-.7-30 4.5-11.6 5.4-20.7 14.5-29.6 23.5-13.1 13.4-20.1 25.2-33.9 36.8-.9.7-1.8 1.5-2.7 2.2-31.2 24.5-77.4 17.5-116.5 27.5-11.2 2.9-21.8 7.3-31.6 13.1-37.7 22.5-61.2 64.7-56.6 110.7 5.3 53.2 48.2 105.1 101.6 120.3 45.1 12.8 92.3 1.4 136.9 16.1 31.2 10.3 57.6 32.6 87.7 45.6 33.8 14.5 71.5 16.4 105 7.2 10.9-3 21.3-7.1 31-12.4 39.9-21.8 67.4-63.1 72.8-109.1 4.4-37.4-5.1-76.4.2-113.7 4.2-30 17.7-57.2 24.7-86.5 7.1-29.7 6.2-65.2-15.5-89.6-20-22.5-52.5-28.6-80-25-27.6 3.6-52.4 15.4-78.8 24.1-26.4 8.7-56.2 13.9-84.7 4.7z"/><path class="st0" d="M752.1 320.8c-11.9-3.8-17.5-.6-28.1 4.3-10.9 5.1-19.4 13.6-27.7 22.1-12.2 12.5-18.8 23.7-31.7 34.5-.8.7-1.7 1.4-2.6 2.1-29.1 23.1-72.2 17-108.8 26.5-10.5 2.7-20.4 7-29.5 12.5-35.2 21.3-57.1 60.8-52.6 103.9 5.1 49.3 44.8 97.5 94.4 111.6 41.8 11.9 85.7 1.4 127.1 15 29 9.5 53.5 30.1 81.4 42 31.5 13.3 66.5 14.8 97.6 6.1 10.1-2.8 19.8-6.7 28.8-11.7 37-20.5 62.6-58.9 67.8-101.7 4.2-34.8-4.4-71.1.6-105.8 4-27.9 16.6-53.3 23.1-80.5 6.7-27.7 6-60.8-14-83.7-18.4-21-48.5-26.7-74-23.5-25.5 3.2-48.6 14-73.1 21.9-24.5 8-52.3 12.7-78.7 4.4z"/><path class="st0" d="M756.7 333.2c-11.1-3.4-16.3-.4-26.2 4.1-10.1 4.7-18.1 12.7-25.8 20.6-11.4 11.7-17.6 22.1-29.6 32.2-.8.7-1.6 1.3-2.4 2-27.1 21.6-67.1 16.4-101 25.6-9.7 2.6-18.9 6.6-27.4 11.8-32.8 20-53 56.8-48.7 97.1 4.9 45.5 41.5 89.9 87.1 103 38.6 11.1 79 1.5 117.2 14 26.8 8.7 49.3 27.6 75.1 38.4 29.1 12.2 61.4 13.1 90.1 4.9 9.3-2.7 18.2-6.3 26.6-11 34.2-19.1 57.9-54.7 62.8-94.3 4-32.2-3.7-65.8 1-97.9 3.8-25.8 15.5-49.3 21.6-74.6 6.3-25.7 5.9-56.4-12.6-77.7-16.9-19.5-44.5-24.8-68-22-23.5 2.8-44.8 12.5-67.4 19.8-22.4 7.3-48 11.6-72.4 4z"/><path class="st0" d="M761.3 345.6c-10.3-3.1-15.2-.3-24.3 4-9.4 4.4-16.8 11.8-23.9 19.2-10.5 10.8-16.3 20.6-27.4 30-.7.6-1.4 1.2-2.2 1.8-25 20.2-61.9 15.9-93.2 24.7-9 2.5-17.5 6.3-25.3 11.1-30.4 18.8-49 52.9-44.7 90.3 4.8 41.6 38.1 82.2 79.9 94.3 35.3 10.2 72.4 1.6 107.3 12.9 24.5 7.9 45.2 25.1 68.8 34.8 26.8 11 56.4 11.5 82.7 3.8 8.5-2.5 16.7-5.9 24.4-10.3 31.3-17.8 53.1-50.5 57.8-86.9 3.8-29.6-3-60.5 1.5-90 3.6-23.8 14.3-45.4 20-68.6 5.8-23.7 5.7-52-11.2-71.7-15.3-17.9-40.6-23-62-20.6-21.5 2.4-41 11.1-61.7 17.6-20.7 6.6-44.1 10.4-66.5 3.6z"/><path class="st0" d="M765.9 358c-9.4-2.8-14-.2-22.4 3.8-8.7 4.1-15.5 10.9-22 17.7-9.7 10-15.1 19-25.2 27.7-.7.6-1.3 1.1-2 1.7-23 18.8-56.7 15.3-85.5 23.8-8.2 2.4-16 6-23.2 10.4-27.9 17.5-44.9 48.9-40.7 83.5 4.6 37.8 34.7 74.6 72.7 85.6 32 9.3 65.7 1.7 97.5 11.9 22.3 7.1 41.1 22.6 62.5 31.2 24.4 9.8 51.4 9.9 75.3 2.6 7.7-2.4 15.2-5.5 22.1-9.6 28.5-16.4 48.4-46.3 52.8-79.5 3.6-27-2.3-55.2 1.9-82.1 3.4-21.7 13.2-41.4 18.5-62.6 5.4-21.7 5.5-47.6-9.7-65.7-13.8-16.4-36.6-21.1-56-19.1s-37.2 9.6-56 15.4c-18.9 6-40.2 9.3-60.6 3.3z"/><path class="st0" d="M770.4 370.4c-8.6-2.5-12.9 0-20.5 3.6-7.9 3.8-14.2 10-20.2 16.3-8.8 9.1-13.8 17.4-23 25.5-.6.5-1.2 1-1.8 1.6-21 17.3-51.6 14.8-77.7 22.9-7.5 2.3-14.6 5.6-21.2 9.8-25.5 16.3-40.8 45-36.7 76.8 4.4 33.9 31.4 66.9 65.5 76.9 28.8 8.5 59 1.8 87.6 10.8 20 6.4 36.9 20.1 56.2 27.6 22.1 8.6 46.3 8.3 67.8 1.5 7-2.2 13.7-5.2 19.9-8.8 25.7-15.1 43.6-42.1 47.8-72.1 3.5-24.4-1.6-49.8 2.3-74.2 3.2-19.6 12-37.5 16.9-56.7 5-19.7 5.3-43.1-8.3-59.7-12.2-14.8-32.6-19.2-49.9-17.7-17.4 1.5-33.4 8.2-50.4 13.3-16.7 4.9-35.8 7.9-54.3 2.6z"/><path class="st0" d="M775 382.9c-7.8-2.1-11.8.1-18.6 3.4-7.2 3.5-12.8 9.1-18.3 14.8-7.9 8.3-12.6 15.9-20.9 23.2-.5.5-1.1 1-1.7 1.4-18.9 15.9-46.4 14.2-70 21.9-6.7 2.2-13.1 5.3-19.1 9.1-23 15-36.8 41-32.7 70 4.2 30.1 28 59.3 58.2 68.3 25.5 7.6 52.4 1.8 77.7 9.8 17.8 5.6 32.8 17.6 49.9 24 19.8 7.4 41.3 6.7 60.4.3 6.2-2.1 12.1-4.8 17.7-8.1 22.8-13.7 38.8-37.9 42.9-64.7 3.3-21.8-.9-44.5 2.8-66.3 3-17.5 10.9-33.6 15.4-50.7 4.6-17.7 5.1-38.7-6.9-53.7-10.6-13.3-28.6-17.3-43.9-16.2-15.4 1.1-29.5 6.7-44.7 11.1-14.8 4.3-31.8 6.8-48.2 2.4z"/><path class="st0" d="M779.6 395.3c-6.9-1.8-10.6.3-16.7 3.2-6.4 3.1-11.5 8.3-16.4 13.4-7.1 7.4-11.3 14.3-18.7 21-.5.4-1 .9-1.5 1.3-16.9 14.4-41.3 13.7-62.2 21-6 2.1-11.7 4.9-17 8.4-20.6 13.8-32.7 37-28.7 63.2 4 26.2 24.6 51.7 51 59.6 22.3 6.7 45.7 1.9 67.9 8.7 15.5 4.8 28.7 15.1 43.6 20.4 17.4 6.2 36.3 5.1 53-.8 5.4-1.9 10.6-4.4 15.5-7.4 20-12.4 34.1-33.7 37.9-57.3 3.1-19.2-.2-39.2 3.2-58.4 2.8-15.4 9.8-29.6 13.8-44.8 4.2-15.7 4.9-34.3-5.4-47.7-9.1-11.7-24.6-15.5-37.9-14.7-13.3.7-25.7 5.3-39 8.9-13.1 3.6-28 5.7-42.4 2z"/><path class="st0" d="M784.2 407.7c-6.1-1.5-9.5.4-14.8 3.1-5.7 2.8-10.2 7.4-14.5 12-6.2 6.6-10.1 12.8-16.5 18.7-.4.4-.9.8-1.3 1.2-14.8 13-36.1 13.2-54.4 20.1-5.3 2-10.3 4.6-14.9 7.8-18.1 12.5-28.7 33.1-24.8 56.4 3.8 22.4 21.3 44 43.8 50.9 19 5.9 39.1 2 58 7.7 13.3 4 24.6 12.6 37.3 16.8 15.1 5 31.3 3.4 45.5-2 4.6-1.8 9.1-4 13.3-6.7 17.1-11 29.3-29.5 32.9-50 2.9-16.6.5-33.9 3.7-50.5 2.5-13.4 8.6-25.7 12.3-38.8 3.8-13.7 4.8-29.9-4-41.7-7.5-10.2-20.7-13.6-31.9-13.3-11.3.3-21.9 3.8-33.3 6.7-11.3 2.9-24 4.5-36.4 1.6z"/><path class="st0" d="M788.8 420.1c-5.3-1.1-8.3.6-12.9 2.9-5 2.5-8.9 6.5-12.7 10.5-5.4 5.7-8.8 11.2-14.3 16.4-.4.3-.7.7-1.1 1-12.8 11.6-30.9 12.6-46.7 19.2-4.5 1.9-8.8 4.2-12.8 7.1-15.7 11.2-24.6 29.1-20.8 49.6 3.5 18.5 17.9 36.4 36.6 42.3 15.8 5 32.4 2.1 48.1 6.6 11 3.2 20.5 10.1 31.1 13.2 12.8 3.7 26.2 1.8 38.1-3.1 3.8-1.6 7.5-3.6 11-5.9 14.3-9.6 24.5-25.3 27.9-42.6 2.7-14 1.2-28.5 4.1-42.6 2.3-11.3 7.5-21.7 10.7-32.8 3.4-11.7 4.6-25.5-2.6-35.7-6-8.6-16.7-11.7-25.9-11.8-9.3-.1-18.1 2.4-27.6 4.6-9.3 2.1-19.9 3.3-30.2 1.1z"/><path class="st0" d="M793.4 432.5c-4.5-.8-7.2.7-11 2.7-4.2 2.2-7.6 5.6-10.8 9.1-4.5 4.9-7.5 9.7-12.1 14.2l-.9.9c-10.8 10.1-25.8 12.1-38.9 18.2-3.8 1.8-7.4 3.9-10.7 6.4-13.3 10-20.7 25.1-16.8 42.8 3.2 14.6 14.5 28.7 29.3 33.6 12.5 4.1 25.7 2.2 38.3 5.6 8.8 2.4 16.4 7.6 24.8 9.6 10.5 2.5 21.2.2 30.7-4.3 3.1-1.5 6-3.2 8.8-5.2 11.4-8.3 19.8-21.2 22.9-35.2 2.6-11.4 1.9-23.2 4.5-34.7 2.1-9.2 6.4-17.8 9.2-26.9 3-9.7 4.4-21-1.1-29.8-4.5-7.1-12.7-9.8-19.9-10.4-7.3-.5-14.3.9-21.9 2.4-7.6 1.7-16.1 2.5-24.4 1z"/><path class="st0" d="M798 444.9c-3.7-.4-6 .9-9.1 2.5-3.5 1.9-6.3 4.7-8.9 7.6-3.7 4.1-6.3 8.1-10 11.9l-.8.8c-8.7 8.7-20.6 11.5-31.1 17.3-3 1.6-5.9 3.6-8.6 5.8-10.8 8.7-16.7 21.1-12.8 36 2.8 10.8 11.2 21.1 22.1 24.9 9.2 3.2 19.1 2.2 28.4 4.5 6.5 1.6 12.3 5.1 18.5 6 8.2 1.3 16.2-1.4 23.2-5.5 2.3-1.3 4.5-2.8 6.6-4.5 8.6-6.9 15-17 18-27.8 2.4-8.8 2.6-17.9 5-26.8 1.9-7.1 5.2-13.9 7.6-20.9 2.6-7.7 4.2-16.5.3-23.8-2.9-5.5-8.7-8-13.8-8.9-5.2-1-10.5-.5-16.2.2-5.8 1.1-12.2 1.5-18.4.7z"/></svg>