<?xml version="1.0" encoding="utf-8"?>
<!-- Generator: Adobe Illustrator 24.1.2, SVG Export Plug-In . SVG Version: 6.00 Build 0)  -->
<svg version="1.1" id="Layer_1" xmlns="http://www.w3.org/2000/svg" xmlns:xlink="http://www.w3.org/1999/xlink" x="0px" y="0px"
	 viewBox="0 0 1280 990" style="enable-background:new 0 0 1280 990;" xml:space="preserve">
<style type="text/css">
	.st0{fill:none;stroke:#E1E6E7;stroke-width:0.75;stroke-miterlimit:10;}
</style>
<g>
	<path class="st0" d="M665,84.8c64.5,23.3,133,9.9,193.2-11.9c60.2-21.9,117-52.1,181.2-63.3c64.2-11.1,140.3,1.1,188.3,51.2
		c50.8,52.9,55.7,131.7,41.2,197.5c-14.5,65.7-44.7,126.5-52.6,193.9c-9.8,83.6,15.3,171.8,7.7,255.8
		c-9.3,103.5-71.3,195.9-162.4,242.1c-91.1,46.2-209.3,45.3-309.9-2.5c-68.9-32.8-129.2-85.7-200.9-110.2
		c-102.3-35-210.8-6.5-314.5-34.9C113.3,768.8,12.4,648.4,4.5,526.1c-7.8-122.3,78.1-234.7,197.5-258
		c85.9-16.8,188.4,6.3,256.2-44.1c34.5-25.6,48.9-51.6,79.1-82c18.9-19,38.3-38.4,63.3-49.5C625.7,81.5,637.2,74.8,665,84.8z"/>
	<path class="st0" d="M669.5,97.2c-26.9-9.7-38.1-3.2-62.4,7.6c-24.3,10.7-43.1,29.6-61.5,48c-27.5,27.7-41.5,51.7-71,75.1
		c-1.9,1.5-3.8,3-5.8,4.5c-65.9,48.9-165.2,26.7-248.5,43.2c-23.9,4.7-46.4,13.1-67,24.5C74.2,343.9,22.9,431.9,29.1,526.1
		c7.6,118.5,105.4,235,224.5,267.7c100.5,27.6,205.6,0,304.7,33.9c69.4,23.7,127.8,75,194.6,106.7c73.6,34.9,156.9,43.9,231.4,26.8
		c24.1-5.5,47.2-13.8,68.8-24.7c88.3-44.9,148.3-134.4,157.4-234.7c7.4-81.5-16.9-166.9-7.3-247.9c7.7-65.4,37-124.2,51.1-187.9
		c14.1-63.7,9.4-140.1-39.8-191.5c-46.5-48.6-120.2-60.5-182.3-49.8C970.1,35.3,915,64.6,856.7,85.7
		C798.4,106.8,732.1,119.7,669.5,97.2z"/>
	<path class="st0" d="M674.1,109.7c-26.1-9.3-37-3-60.5,7.4c-23.5,10.4-41.8,28.7-59.6,46.6c-26.7,26.9-40.3,50.1-68.8,72.9
		c-1.8,1.4-3.7,2.9-5.6,4.3c-63.8,47.5-160,26.2-240.7,42.2c-23.2,4.6-45,12.8-65,23.8C97.2,349.4,47.5,434.8,53.7,526.2
		c7.4,114.6,102,227.4,217.3,259c97.2,26.7,198.9,0.1,294.8,32.8C632.9,841,689.4,890.5,754,921.1c71.3,33.7,151.9,42.2,223.9,25.7
		c23.3-5.4,45.7-13.4,66.6-24c85.4-43.5,143.6-130.2,152.5-227.3c7.2-78.9-16.2-161.6-6.8-240c7.5-63.3,35.9-120.3,49.5-182
		c13.6-61.7,9.2-135.7-38.3-185.5c-45-47-116.2-58.6-176.3-48.3C965,49.9,911.6,78.1,855.2,98.5
		C798.8,118.9,734.6,131.4,674.1,109.7z"/>
	<path class="st0" d="M678.7,122.1c-25.2-9-35.8-2.9-58.6,7.2c-22.8,10.1-40.5,27.8-57.7,45.1c-25.8,26-39,48.6-66.6,70.6
		c-1.8,1.4-3.6,2.8-5.4,4.2c-61.8,46.1-154.8,25.7-233,41.3c-22.4,4.5-43.5,12.4-62.9,23.2C120.2,355,72.1,437.7,78.2,526.2
		c7.2,110.8,98.6,219.7,210,250.4c93.9,25.8,192.3,0.2,284.9,31.8c64.9,22.1,119.6,70,182,99.5c68.9,32.4,146.9,40.6,216.5,24.5
		c22.5-5.2,44.2-13,64.4-23.3c82.6-42.2,138.8-126,147.5-219.9c7-76.3-15.5-156.3-6.4-232.1c7.3-61.2,34.7-116.3,48-176
		c13.2-59.7,9-131.3-36.9-179.5c-43.4-45.5-112.2-56.7-170.3-46.8c-58.1,9.9-109.6,37.1-164.1,56.7C799.3,131,737.2,143,678.7,122.1
		z"/>
	<path class="st0" d="M683.3,134.5c-24.4-8.6-34.7-2.7-56.7,7c-22,9.8-39.2,26.9-55.8,43.7c-25,25.2-37.7,47-64.4,68.4
		c-1.7,1.4-3.4,2.7-5.3,4.1c-59.7,44.6-149.7,25.1-225.2,40.4c-21.7,4.4-42.1,12.1-60.8,22.5c-71.9,40-118.2,120-112.4,205.7
		c7.3,106.9,95.3,212.1,202.8,241.7c90.7,25,185.6,0.3,275.1,30.7c62.7,21.4,115.5,67.4,175.7,95.9c66.6,31.2,141.9,39,209.1,23.3
		c21.8-5.1,42.7-12.6,62.2-22.6c79.7-40.8,134-121.8,142.5-212.6c6.9-73.7-14.8-150.9-6-224.2c7.1-59.1,33.6-112.4,46.4-170
		c12.8-57.7,8.8-126.8-35.5-173.5c-41.9-44-108.2-54.9-164.3-45.4c-56,9.4-105.8,35.6-158.4,54.6
		C799.7,143.1,739.8,154.7,683.3,134.5z"/>
	<path class="st0" d="M687.9,146.9c-23.6-8.3-33.5-2.6-54.8,6.8c-21.3,9.5-37.8,26-53.9,42.3c-24.1,24.3-36.5,45.5-62.2,66.1
		c-1.6,1.3-3.3,2.6-5.1,3.9c-57.7,43.2-144.5,24.6-217.4,39.5c-20.9,4.3-40.6,11.7-58.7,21.8c-69.5,38.8-114.2,116.1-108.4,198.9
		c7.2,103.1,91.9,204.5,195.6,233c87.4,24.1,178.9,0.3,265.2,29.7c60.4,20.6,111.3,64.9,169.5,92.3c64.3,30,136.8,37.4,201.6,22.2
		c21-4.9,41.1-12.2,59.9-21.8c76.9-39.5,129.3-117.6,137.5-205.2c6.7-71.1-14.1-145.6-5.5-216.3c6.9-57,32.5-108.4,44.8-164.1
		c12.4-55.7,8.6-122.4-34.1-167.5c-40.3-42.4-104.3-53-158.3-43.9c-54,9-102,34.2-152.8,52.4C800.2,155.2,742.4,166.3,687.9,146.9z"
		/>
	<path class="st0" d="M692.5,159.3c-22.7-8-32.4-2.5-52.8,6.7c-20.5,9.2-36.5,25.1-52.1,40.8c-23.3,23.5-35.2,43.9-60.1,63.8
		c-1.6,1.3-3.2,2.5-4.9,3.8c-55.7,41.8-139.3,24-209.7,38.6c-20.2,4.2-39.2,11.4-56.6,21.1c-67,37.5-110.1,112.1-104.4,192.1
		c7,99.3,88.6,196.8,188.3,224.4c84.2,23.2,172.3,0.4,255.3,28.6c58.2,19.8,107.2,62.5,163.2,88.7c61.9,28.9,131.8,35.8,194.2,21
		c20.2-4.8,39.6-11.8,57.7-21.1c74.1-38.1,124.5-113.4,132.5-197.8c6.5-68.5-13.4-140.3-5.1-208.4c6.7-55,31.3-104.5,43.3-158.1
		c12-53.7,8.4-118.1-32.6-161.5c-38.7-40.9-100.3-51.1-152.2-42.5c-52,8.6-98.2,32.7-147.1,50.2C800.6,167.3,745,177.9,692.5,159.3z
		"/>
	<path class="st0" d="M697.1,171.7c-21.9-7.7-31.2-2.3-50.9,6.5c-19.8,8.9-35.2,24.2-50.2,39.4c-22.4,22.6-34,42.3-57.9,61.6
		c-1.5,1.2-3.1,2.5-4.7,3.7c-53.6,40.3-134.2,23.5-201.9,37.6c-19.4,4.1-37.7,11.1-54.5,20.5c-64.6,36.3-106,108.2-100.4,185.3
		c6.9,95.4,85.2,189.2,181.1,215.7c80.9,22.4,165.6,0.5,245.5,27.6c55.9,19,103,60,156.9,85.1c59.5,27.7,126.8,34.2,186.8,19.9
		c19.4-4.6,38.1-11.4,55.5-20.4c71.2-36.8,119.8-109.2,127.6-190.4c6.3-65.9-12.7-135-4.7-200.5c6.5-52.9,30.2-100.6,41.7-152.1
		c11.6-51.7,8.3-113.7-31.2-155.5c-37.1-39.4-96.3-49.2-146.2-41c-49.9,8.2-94.3,31.3-141.4,48C801,179.4,747.6,189.5,697.1,171.7z"
		/>
	<path class="st0" d="M701.6,184.2c-21.1-7.4-30.1-2.2-49,6.3c-19.1,8.5-33.9,23.3-48.3,37.9c-21.6,21.8-32.7,40.8-55.7,59.3
		c-1.5,1.2-3,2.4-4.5,3.5c-51.6,38.9-129,22.9-194.2,36.7c-18.7,3.9-36.3,10.7-52.4,19.8c-62.1,35-101.9,104.2-96.5,178.5
		c6.7,91.6,81.8,181.5,173.9,207c77.7,21.5,159,0.6,235.6,26.5c53.7,18.2,98.9,57.5,150.6,81.5c57.2,26.5,121.8,32.5,179.3,18.7
		c18.6-4.5,36.6-11,53.3-19.7c68.4-35.4,115-105,122.6-183c6.2-63.3-12-129.6-4.2-192.6c6.3-50.8,29.1-96.6,40.2-146.2
		c11.2-49.7,8.1-109.3-29.8-149.5c-35.6-37.9-92.3-47.4-140.2-39.6c-47.9,7.8-90.5,29.8-135.7,45.9
		C801.5,191.5,750.2,201.1,701.6,184.2z"/>
	<path class="st0" d="M706.2,196.6c-20.2-7-28.9-2-47.1,6.1c-18.3,8.2-32.6,22.5-46.4,36.5c-20.7,21-31.4,39.2-53.5,57.1
		c-1.4,1.1-2.9,2.3-4.4,3.4c-49.5,37.4-123.9,22.4-186.4,35.8c-17.9,3.8-34.8,10.4-50.4,19.1c-59.7,33.8-97.8,100.3-92.5,171.8
		c6.6,87.7,78.5,173.9,166.7,198.3c74.4,20.6,152.3,0.7,225.7,25.5c51.5,17.4,94.8,55.1,144.3,77.9c54.9,25.3,116.7,30.9,171.9,17.6
		c17.9-4.3,35-10.6,51.1-19c65.5-34,110.2-100.8,117.6-175.6c6-60.7-11.3-124.3-3.8-184.8c6.1-48.7,27.9-92.7,38.6-140.2
		c10.8-47.7,7.9-104.9-28.3-143.6c-34-36.3-88.3-45.5-134.2-38.1c-45.9,7.3-86.7,28.4-130,43.7C801.9,203.5,752.7,212.8,706.2,196.6
		z"/>
	<path class="st0" d="M710.8,209c-19.4-6.7-27.8-1.9-45.2,5.9c-17.6,7.9-31.3,21.6-44.6,35c-19.9,20.1-30.2,37.7-51.3,54.8
		c-1.3,1.1-2.7,2.2-4.2,3.3c-47.5,36-118.7,21.9-178.6,34.9c-17.2,3.7-33.4,10-48.3,18.5c-57.2,32.5-93.8,96.3-88.5,165
		c6.4,83.9,75.1,166.3,159.4,189.7c71.1,19.8,145.6,0.7,215.9,24.5c49.2,16.6,90.6,52.6,138,74.3c52.5,24.1,111.7,29.3,164.5,16.4
		c17.1-4.2,33.5-10.2,48.8-18.2c62.7-32.7,105.5-96.6,112.6-168.2c5.8-58.1-10.6-119-3.3-176.9c5.9-46.6,26.8-88.7,37.1-134.2
		c10.4-45.7,7.7-100.5-26.9-137.6c-32.5-34.8-84.4-43.6-128.2-36.6c-43.8,6.9-82.9,27-124.3,41.5C802.3,215.6,755.3,224.4,710.8,209
		z"/>
	<path class="st0" d="M715.4,221.4c-18.6-6.4-26.7-1.7-43.3,5.8c-16.8,7.6-29.9,20.7-42.7,33.6c-19,19.3-28.9,36.1-49.2,52.6
		c-1.3,1.1-2.6,2.1-4,3.1c-45.4,34.6-113.5,21.3-170.9,33.9c-16.4,3.6-32,9.7-46.2,17.8c-54.8,31.3-89.7,92.4-84.5,158.2
		c6.3,80.1,71.7,158.6,152.2,181c67.9,18.9,139,0.8,206,23.4c47,15.8,86.5,50.1,131.7,70.7c50.2,22.9,106.7,27.7,157,15.3
		c16.3-4,32-9.9,46.6-17.5c59.8-31.3,100.7-92.5,107.6-160.8c5.6-55.5-9.9-113.7-2.9-169c5.7-44.6,25.7-84.8,35.5-128.3
		c10-43.7,7.5-96.1-25.5-131.6c-30.9-33.3-80.4-41.8-122.2-35.2c-41.8,6.5-79.1,25.5-118.6,39.3C802.8,227.7,757.9,236,715.4,221.4z
		"/>
	<path class="st0" d="M720,233.8c-17.7-6.1-25.5-1.6-41.4,5.6c-16.1,7.3-28.6,19.8-40.8,32.2c-18.2,18.4-27.7,34.6-47,50.3
		c-1.2,1-2.5,2-3.8,3c-43.4,33.1-108.4,20.8-163.1,33c-15.7,3.5-30.5,9.4-44.1,17.1c-52.4,30-85.6,88.4-80.5,151.4
		c6.2,76.2,68.4,151,145,172.3c64.6,18,132.3,0.9,196.1,22.4c44.7,15,82.4,47.6,125.4,67.1c47.8,21.7,101.6,26.1,149.6,14.1
		c15.5-3.9,30.5-9.5,44.4-16.8c57-30,96-88.3,102.6-153.4c5.4-52.9-9.2-108.4-2.5-161.1c5.4-42.5,24.5-80.9,34-122.3
		c9.6-41.7,7.3-91.6-24-125.6c-29.3-31.7-76.4-39.9-116.1-33.7c-39.8,6.1-75.3,24.1-112.9,37.2C803.2,239.8,760.5,247.7,720,233.8z"
		/>
	<path class="st0" d="M724.6,246.3c-16.9-5.7-24.4-1.4-39.5,5.4c-15.3,7-27.3,18.9-38.9,30.7c-17.3,17.6-26.4,33-44.8,48
		c-1.2,1-2.4,1.9-3.6,2.9c-41.4,31.7-103.2,20.2-155.3,32.1c-14.9,3.4-29.1,9-42,16.5c-49.9,28.8-81.5,84.5-76.5,144.6
		c6,72.4,65,143.3,137.7,163.7c61.4,17.1,125.7,1,186.3,21.3c42.5,14.2,78.2,45.1,119.1,63.5c45.5,20.5,96.6,24.5,142.2,13
		c14.7-3.7,28.9-9.1,42.2-16.1c54.1-28.6,91.2-84.1,97.7-146c5.3-50.3-8.5-103-2-153.2c5.2-40.4,23.4-76.9,32.4-116.3
		c9.2-39.7,7.2-87.2-22.6-119.6c-27.8-30.2-72.4-38-110.1-32.3c-37.8,5.7-71.5,22.6-107.2,35C803.6,251.9,763.1,259.3,724.6,246.3z"
		/>
	<path class="st0" d="M729.2,258.7c-16.1-5.4-23.2-1.3-37.6,5.2c-14.6,6.6-26,18-37.1,29.3c-16.5,16.7-25.1,31.5-42.6,45.8
		c-1.1,0.9-2.3,1.8-3.5,2.8c-39.3,30.3-98,19.7-147.6,31.2c-14.2,3.3-27.6,8.7-39.9,15.8c-47.5,27.5-77.5,80.5-72.6,137.8
		c5.9,68.5,61.6,135.7,130.5,155c58.1,16.3,119,1.1,176.4,20.3c40.2,13.5,74.1,42.6,112.8,59.9c43.2,19.3,91.6,22.8,134.7,11.8
		c14-3.6,27.4-8.7,39.9-15.3c51.3-27.3,86.4-79.9,92.7-138.6c5.1-47.7-7.8-97.7-1.6-145.3c5-38.3,22.3-73,30.9-110.4
		c8.7-37.7,7-82.8-21.2-113.6c-26.2-28.7-68.4-36.1-104.1-30.8c-35.7,5.2-67.7,21.2-101.6,32.8C804.1,264,765.6,270.9,729.2,258.7z"
		/>
	<path class="st0" d="M733.8,271.1c-15.2-5.1-22.1-1.1-35.7,5c-13.9,6.3-24.7,17.1-35.2,27.8c-15.6,15.9-23.9,29.9-40.5,43.5
		c-1.1,0.9-2.2,1.7-3.3,2.6c-37.3,28.8-92.9,19.1-139.8,30.2c-13.5,3.2-26.2,8.3-37.8,15.1c-45,26.3-73.4,76.6-68.6,131
		c5.7,64.7,58.3,128.1,123.3,146.3c54.8,15.4,112.3,1.1,166.5,19.2c38,12.7,70,40.1,106.5,56.3c40.8,18.1,86.6,21.2,127.3,10.7
		c13.2-3.4,25.9-8.3,37.7-14.6c48.4-25.9,81.7-75.7,87.7-131.3c4.9-45.1-7.1-92.4-1.2-137.4c4.8-36.2,21.1-69,29.3-104.4
		c8.3-35.7,6.8-78.4-19.7-107.6c-24.7-27.1-64.5-34.3-98.1-29.3c-33.7,4.8-63.8,19.7-95.9,30.6C804.5,276.1,768.2,282.6,733.8,271.1
		z"/>
	<path class="st0" d="M738.3,283.5c-14.4-4.8-20.9-1-33.8,4.9c-13.1,6-23.4,16.2-33.3,26.4c-14.8,15-22.6,28.3-38.3,41.3
		c-1,0.8-2,1.7-3.1,2.5c-35.2,27.4-87.7,18.6-132.1,29.3c-12.7,3.1-24.7,8-35.8,14.5c-42.6,25-69.3,72.6-64.6,124.3
		c5.6,60.8,54.9,120.4,116.1,137.6c51.6,14.5,105.7,1.2,156.7,18.2c35.7,11.9,65.8,37.6,100.3,52.8c38.5,16.9,81.5,19.6,119.9,9.5
		c12.4-3.3,24.3-7.9,35.5-13.9c45.6-24.6,76.9-71.5,82.7-123.9c4.7-42.5-6.5-87.1-0.7-129.5c4.6-34.2,20-65.1,27.8-98.4
		c7.9-33.7,6.6-74-18.3-101.6c-23.1-25.6-60.5-32.4-92.1-27.9c-31.7,4.4-60,18.3-90.2,28.5C805,288.2,770.8,294.2,738.3,283.5z"/>
	<path class="st0" d="M742.9,295.9c-13.6-4.4-19.8-0.9-31.9,4.7c-12.4,5.7-22.1,15.4-31.4,24.9c-13.9,14.2-21.4,26.8-36.1,39
		c-0.9,0.8-1.9,1.6-2.9,2.4c-33.2,25.9-82.6,18-124.3,28.4c-12,3-23.3,7.7-33.7,13.8c-40.1,23.8-65.2,68.7-60.6,117.5
		c5.4,57,51.6,112.8,108.8,129c48.3,13.7,99,1.3,146.8,17.1c33.5,11.1,61.7,35.1,94,49.2c36.1,15.7,76.5,18,112.4,8.4
		c11.6-3.1,22.8-7.5,33.3-13.2c42.7-23.2,72.2-67.3,77.7-116.5c4.5-39.9-5.8-81.8-0.3-121.6c4.4-32.1,18.9-61.1,26.2-92.5
		c7.5-31.7,6.4-69.6-16.9-95.6c-21.5-24.1-56.5-30.5-86.1-26.4c-29.6,4-56.2,16.9-84.5,26.3C805.4,300.3,773.4,305.8,742.9,295.9z"
		/>
	<path class="st0" d="M747.5,308.3c-12.7-4.1-18.6-0.7-30,4.5c-11.6,5.4-20.7,14.5-29.6,23.5c-13.1,13.4-20.1,25.2-33.9,36.8
		c-0.9,0.7-1.8,1.5-2.7,2.2c-31.2,24.5-77.4,17.5-116.5,27.5c-11.2,2.9-21.8,7.3-31.6,13.1c-37.7,22.5-61.2,64.7-56.6,110.7
		c5.3,53.2,48.2,105.1,101.6,120.3c45.1,12.8,92.3,1.4,136.9,16.1c31.2,10.3,57.6,32.6,87.7,45.6c33.8,14.5,71.5,16.4,105,7.2
		c10.9-3,21.3-7.1,31-12.4c39.9-21.8,67.4-63.1,72.8-109.1c4.4-37.4-5.1-76.4,0.2-113.7c4.2-30,17.7-57.2,24.7-86.5
		c7.1-29.7,6.2-65.2-15.5-89.6c-20-22.5-52.5-28.6-80-25c-27.6,3.6-52.4,15.4-78.8,24.1C805.8,312.3,776,317.5,747.5,308.3z"/>
	<path class="st0" d="M752.1,320.8c-11.9-3.8-17.5-0.6-28.1,4.3c-10.9,5.1-19.4,13.6-27.7,22.1c-12.2,12.5-18.8,23.7-31.7,34.5
		c-0.8,0.7-1.7,1.4-2.6,2.1c-29.1,23.1-72.2,17-108.8,26.5c-10.5,2.7-20.4,7-29.5,12.5c-35.2,21.3-57.1,60.8-52.6,103.9
		c5.1,49.3,44.8,97.5,94.4,111.6c41.8,11.9,85.7,1.4,127.1,15c29,9.5,53.5,30.1,81.4,42c31.5,13.3,66.5,14.8,97.6,6.1
		c10.1-2.8,19.8-6.7,28.8-11.7c37-20.5,62.6-58.9,67.8-101.7c4.2-34.8-4.4-71.1,0.6-105.8c4-27.9,16.6-53.3,23.1-80.5
		c6.7-27.7,6-60.8-14-83.7c-18.4-21-48.5-26.7-74-23.5c-25.5,3.2-48.6,14-73.1,21.9C806.3,324.4,778.5,329.1,752.1,320.8z"/>
	<path class="st0" d="M756.7,333.2c-11.1-3.4-16.3-0.4-26.2,4.1c-10.1,4.7-18.1,12.7-25.8,20.6c-11.4,11.7-17.6,22.1-29.6,32.2
		c-0.8,0.7-1.6,1.3-2.4,2c-27.1,21.6-67.1,16.4-101,25.6c-9.7,2.6-18.9,6.6-27.4,11.8c-32.8,20-53,56.8-48.7,97.1
		c4.9,45.5,41.5,89.9,87.1,103c38.6,11.1,79,1.5,117.2,14c26.8,8.7,49.3,27.6,75.1,38.4c29.1,12.2,61.4,13.1,90.1,4.9
		c9.3-2.7,18.2-6.3,26.6-11c34.2-19.1,57.9-54.7,62.8-94.3c4-32.2-3.7-65.8,1-97.9c3.8-25.8,15.5-49.3,21.6-74.6
		c6.3-25.7,5.9-56.4-12.6-77.7c-16.9-19.5-44.5-24.8-68-22c-23.5,2.8-44.8,12.5-67.4,19.8C806.7,336.5,781.1,340.8,756.7,333.2z"/>
	<path class="st0" d="M761.3,345.6c-10.3-3.1-15.2-0.3-24.3,4c-9.4,4.4-16.8,11.8-23.9,19.2c-10.5,10.8-16.3,20.6-27.4,30
		c-0.7,0.6-1.4,1.2-2.2,1.8c-25,20.2-61.9,15.9-93.2,24.7c-9,2.5-17.5,6.3-25.3,11.1c-30.4,18.8-49,52.9-44.7,90.3
		c4.8,41.6,38.1,82.2,79.9,94.3c35.3,10.2,72.4,1.6,107.3,12.9c24.5,7.9,45.2,25.1,68.8,34.8c26.8,11,56.4,11.5,82.7,3.8
		c8.5-2.5,16.7-5.9,24.4-10.3c31.3-17.8,53.1-50.5,57.8-86.9c3.8-29.6-3-60.5,1.5-90c3.6-23.8,14.3-45.4,20-68.6
		c5.8-23.7,5.7-52-11.2-71.7c-15.3-17.9-40.6-23-62-20.6c-21.5,2.4-41,11.1-61.7,17.6C807.1,348.6,783.7,352.4,761.3,345.6z"/>
	<path class="st0" d="M765.9,358c-9.4-2.8-14-0.2-22.4,3.8c-8.7,4.1-15.5,10.9-22,17.7c-9.7,10-15.1,19-25.2,27.7
		c-0.7,0.6-1.3,1.1-2,1.7c-23,18.8-56.7,15.3-85.5,23.8c-8.2,2.4-16,6-23.2,10.4c-27.9,17.5-44.9,48.9-40.7,83.5
		c4.6,37.8,34.7,74.6,72.7,85.6c32,9.3,65.7,1.7,97.5,11.9c22.3,7.1,41.1,22.6,62.5,31.2c24.4,9.8,51.4,9.9,75.3,2.6
		c7.7-2.4,15.2-5.5,22.1-9.6c28.5-16.4,48.4-46.3,52.8-79.5c3.6-27-2.3-55.2,1.9-82.1c3.4-21.7,13.2-41.4,18.5-62.6
		c5.4-21.7,5.5-47.6-9.7-65.7c-13.8-16.4-36.6-21.1-56-19.1c-19.4,2-37.2,9.6-56,15.4C807.6,360.7,786.3,364,765.9,358z"/>
	<path class="st0" d="M770.4,370.4c-8.6-2.5-12.9,0-20.5,3.6c-7.9,3.8-14.2,10-20.2,16.3c-8.8,9.1-13.8,17.4-23,25.5
		c-0.6,0.5-1.2,1-1.8,1.6c-21,17.3-51.6,14.8-77.7,22.9c-7.5,2.3-14.6,5.6-21.2,9.8c-25.5,16.3-40.8,45-36.7,76.8
		c4.4,33.9,31.4,66.9,65.5,76.9c28.8,8.5,59,1.8,87.6,10.8c20,6.4,36.9,20.1,56.2,27.6c22.1,8.6,46.3,8.3,67.8,1.5
		c7-2.2,13.7-5.2,19.9-8.8c25.7-15.1,43.6-42.1,47.8-72.1c3.5-24.4-1.6-49.8,2.3-74.2c3.2-19.6,12-37.5,16.9-56.7
		c5-19.7,5.3-43.1-8.3-59.7c-12.2-14.8-32.6-19.2-49.9-17.7c-17.4,1.5-33.4,8.2-50.4,13.3C808,372.7,788.9,375.7,770.4,370.4z"/>
	<path class="st0" d="M775,382.9c-7.8-2.1-11.8,0.1-18.6,3.4c-7.2,3.5-12.8,9.1-18.3,14.8c-7.9,8.3-12.6,15.9-20.9,23.2
		c-0.5,0.5-1.1,1-1.7,1.4c-18.9,15.9-46.4,14.2-70,21.9c-6.7,2.2-13.1,5.3-19.1,9.1c-23,15-36.8,41-32.7,70
		c4.2,30.1,28,59.3,58.2,68.3c25.5,7.6,52.4,1.8,77.7,9.8c17.8,5.6,32.8,17.6,49.9,24c19.8,7.4,41.3,6.7,60.4,0.3
		c6.2-2.1,12.1-4.8,17.7-8.1c22.8-13.7,38.8-37.9,42.9-64.7c3.3-21.8-0.9-44.5,2.8-66.3c3-17.5,10.9-33.6,15.4-50.7
		c4.6-17.7,5.1-38.7-6.9-53.7c-10.6-13.3-28.6-17.3-43.9-16.2c-15.4,1.1-29.5,6.7-44.7,11.1C808.4,384.8,791.4,387.3,775,382.9z"/>
	<path class="st0" d="M779.6,395.3c-6.9-1.8-10.6,0.3-16.7,3.2c-6.4,3.1-11.5,8.3-16.4,13.4c-7.1,7.4-11.3,14.3-18.7,21
		c-0.5,0.4-1,0.9-1.5,1.3c-16.9,14.4-41.3,13.7-62.2,21c-6,2.1-11.7,4.9-17,8.4c-20.6,13.8-32.7,37-28.7,63.2
		c4,26.2,24.6,51.7,51,59.6c22.3,6.7,45.7,1.9,67.9,8.7c15.5,4.8,28.7,15.1,43.6,20.4c17.4,6.2,36.3,5.1,53-0.8
		c5.4-1.9,10.6-4.4,15.5-7.4c20-12.4,34.1-33.7,37.9-57.3c3.1-19.2-0.2-39.2,3.2-58.4c2.8-15.4,9.8-29.6,13.8-44.8
		c4.2-15.7,4.9-34.3-5.4-47.7c-9.1-11.7-24.6-15.5-37.9-14.7c-13.3,0.7-25.7,5.3-39,8.9C808.9,396.9,794,399,779.6,395.3z"/>
	<path class="st0" d="M784.2,407.7c-6.1-1.5-9.5,0.4-14.8,3.1c-5.7,2.8-10.2,7.4-14.5,12c-6.2,6.6-10.1,12.8-16.5,18.7
		c-0.4,0.4-0.9,0.8-1.3,1.2c-14.8,13-36.1,13.2-54.4,20.1c-5.3,2-10.3,4.6-14.9,7.8c-18.1,12.5-28.7,33.1-24.8,56.4
		c3.8,22.4,21.3,44,43.8,50.9c19,5.9,39.1,2,58,7.7c13.3,4,24.6,12.6,37.3,16.8c15.1,5,31.3,3.4,45.5-2c4.6-1.8,9.1-4,13.3-6.7
		c17.1-11,29.3-29.5,32.9-50c2.9-16.6,0.5-33.9,3.7-50.5c2.5-13.4,8.6-25.7,12.3-38.8c3.8-13.7,4.8-29.9-4-41.7
		c-7.5-10.2-20.7-13.6-31.9-13.3c-11.3,0.3-21.9,3.8-33.3,6.7C809.3,409,796.6,410.6,784.2,407.7z"/>
	<path class="st0" d="M788.8,420.1c-5.3-1.1-8.3,0.6-12.9,2.9c-5,2.5-8.9,6.5-12.7,10.5c-5.4,5.7-8.8,11.2-14.3,16.4
		c-0.4,0.3-0.7,0.7-1.1,1c-12.8,11.6-30.9,12.6-46.7,19.2c-4.5,1.9-8.8,4.2-12.8,7.1c-15.7,11.2-24.6,29.1-20.8,49.6
		c3.5,18.5,17.9,36.4,36.6,42.3c15.8,5,32.4,2.1,48.1,6.6c11,3.2,20.5,10.1,31.1,13.2c12.8,3.7,26.2,1.8,38.1-3.1
		c3.8-1.6,7.5-3.6,11-5.9c14.3-9.6,24.5-25.3,27.9-42.6c2.7-14,1.2-28.5,4.1-42.6c2.3-11.3,7.5-21.7,10.7-32.8
		c3.4-11.7,4.6-25.5-2.6-35.7c-6-8.6-16.7-11.7-25.9-11.8c-9.3-0.1-18.1,2.4-27.6,4.6C809.7,421.1,799.1,422.3,788.8,420.1z"/>
	<path class="st0" d="M793.4,432.5c-4.5-0.8-7.2,0.7-11,2.7c-4.2,2.2-7.6,5.6-10.8,9.1c-4.5,4.9-7.5,9.7-12.1,14.2
		c-0.3,0.3-0.6,0.6-0.9,0.9c-10.8,10.1-25.8,12.1-38.9,18.2c-3.8,1.8-7.4,3.9-10.7,6.4c-13.3,10-20.7,25.1-16.8,42.8
		c3.2,14.6,14.5,28.7,29.3,33.6c12.5,4.1,25.7,2.2,38.3,5.6c8.8,2.4,16.4,7.6,24.8,9.6c10.5,2.5,21.2,0.2,30.7-4.3
		c3.1-1.5,6-3.2,8.8-5.2c11.4-8.3,19.8-21.2,22.9-35.2c2.6-11.4,1.9-23.2,4.5-34.7c2.1-9.2,6.4-17.8,9.2-26.9c3-9.7,4.4-21-1.1-29.8
		c-4.5-7.1-12.7-9.8-19.9-10.4c-7.3-0.5-14.3,0.9-21.9,2.4C810.2,433.2,801.7,434,793.4,432.5z"/>
	<path class="st0" d="M798,444.9c-3.7-0.4-6,0.9-9.1,2.5c-3.5,1.9-6.3,4.7-8.9,7.6c-3.7,4.1-6.3,8.1-10,11.9
		c-0.3,0.3-0.5,0.5-0.8,0.8c-8.7,8.7-20.6,11.5-31.1,17.3c-3,1.6-5.9,3.6-8.6,5.8c-10.8,8.7-16.7,21.1-12.8,36
		c2.8,10.8,11.2,21.1,22.1,24.9c9.2,3.2,19.1,2.2,28.4,4.5c6.5,1.6,12.3,5.1,18.5,6c8.2,1.3,16.2-1.4,23.2-5.5
		c2.3-1.3,4.5-2.8,6.6-4.5c8.6-6.9,15-17,18-27.8c2.4-8.8,2.6-17.9,5-26.8c1.9-7.1,5.2-13.9,7.6-20.9c2.6-7.7,4.2-16.5,0.3-23.8
		c-2.9-5.5-8.7-8-13.8-8.9c-5.2-1-10.5-0.5-16.2,0.2C810.6,445.3,804.2,445.7,798,444.9z"/>
</g>
</svg>
