<?xml version="1.0" encoding="utf-8"?>
<!-- Generator: Adobe Illustrator 24.1.2, SVG Export Plug-In . SVG Version: 6.00 Build 0)  -->
<svg version="1.1" id="Layer_1" xmlns="http://www.w3.org/2000/svg" xmlns:xlink="http://www.w3.org/1999/xlink" x="0px" y="0px"
	 viewBox="0 0 1110 880" style="enable-background:new 0 0 1110 880;" xml:space="preserve">
<style type="text/css">
	.st0{fill:none;stroke:#E5E5E5;stroke-width:0.75;stroke-miterlimit:10;}
</style>
<g>
	<path class="st0" d="M556.9,774c58.9-15.5,118.5,1.2,170.2,24.8c51.6,23.6,99.7,54.3,155.7,68.8c56,14.5,124.3,9.5,170.6-30.8
		c48.9-42.5,59.2-111,51.3-169.6c-7.9-58.5-30.1-113.9-32-173.4c-2.4-73.8,26.5-149,26.1-223.1c-0.5-91.2-48.4-176.6-125.6-223.7
		C895.9-0.3,791.2-8.2,698.6,26.1c-63.5,23.5-120.9,65.4-186.2,81.5c-93.2,23-187.2-10-281.1,7.2C119.8,135.1,21.4,232.8,5.3,339.2
		c-16.1,106.3,51.5,211,155.4,240.2c74.8,21.1,167.3,8.5,223.6,57.6c28.7,25,39.4,48.8,63.9,77.6c15.3,18,31.1,36.4,52.4,48
		C521.9,774,531.6,780.7,556.9,774z"/>
	<path class="st0" d="M561.9,763.5c-24.5,6.4-34-0.1-54.7-11.2c-20.7-11.2-35.9-29-50.8-46.6c-22.3-26.3-32.9-48.3-57.2-71
		c-1.5-1.4-3.1-2.9-4.8-4.3c-54.6-47.7-144.2-35.6-216.8-56.2c-20.8-5.9-40.1-14.9-57.5-26.4C53.3,503.7,14.5,422.9,27.1,341
		C42.7,238,138,143.3,246,123.6c91-16.7,182,15.2,272.3-7c63.3-15.6,118.8-56.1,180.3-78.8c67.8-25,142.3-26.7,206.9-6.3
		c20.9,6.6,40.8,15.5,59.1,26.7c74.8,45.8,121.2,128.5,121.8,216.9c0.4,71.8-27.5,144.7-25.1,216.2c1.9,57.7,23.4,111.4,31.1,168.1
		c7.7,56.8-2.3,123.2-49.6,164.4c-44.8,39-111,44-165.2,30c-54.2-14-100.8-43.6-150.8-66.4C676.7,764.7,618.9,748.5,561.9,763.5z"/>
	<path class="st0" d="M566.9,753c-23.8,6.2-33-0.1-53-10.9c-20-10.9-34.8-28.2-49.3-45.2c-21.6-25.5-31.9-46.8-55.4-68.8
		c-1.5-1.4-3-2.8-4.6-4.2c-52.9-46.3-139.7-34.8-210-54.8c-20.2-5.7-38.9-14.5-55.7-25.7C74.1,500.6,36.5,422.2,48.8,342.8
		C64,243.1,156.2,151.6,260.6,132.4c88.1-16.1,176.2,14.7,263.5-6.8c61.2-15.1,115-54.2,174.5-76.1c65.6-24.1,137.7-25.6,200.2-5.8
		c20.2,6.4,39.5,15.1,57.2,25.9c72.4,44.4,117.3,124.5,117.9,210.1c0.5,69.5-26.5,140.1-24.1,209.4c1.9,55.9,22.7,107.8,30.1,162.8
		c7.4,55-2.1,119.3-47.9,159.3c-43.4,37.8-107.3,42.6-159.7,29.1c-52.5-13.5-97.5-42.1-145.9-64.1C678,754.2,622.1,738.5,566.9,753z
		"/>
	<path class="st0" d="M571.9,742.5c-23,6-31.9-0.1-51.3-10.6c-19.4-10.5-33.7-27.3-47.7-43.7c-20.9-24.7-30.9-45.4-53.7-66.7
		c-1.4-1.4-2.9-2.7-4.5-4.1c-51.2-44.9-135.2-33.9-203.2-53.4c-19.5-5.6-37.6-14.1-53.9-24.9c-62.7-41.6-99.1-117.5-87.1-194.4
		c14.7-96.3,103.9-184.8,204.8-203.3c85.1-15.6,170.3,14.1,254.7-6.6c59.2-14.5,111.2-52.3,168.7-73.4
		c63.5-23.2,133.1-24.6,193.5-5.3c19.6,6.2,38.2,14.6,55.3,25.1c70,43,113.4,120.5,114.1,203.3c0.5,67.2-25.4,135.5-23.1,202.5
		c1.9,54.1,22,104.3,29.2,157.4c7.2,53.2-1.9,115.4-46.2,154.2c-41.9,36.6-103.6,41.3-154.3,28.3c-50.7-12.9-94.3-40.5-141.1-61.8
		C679.3,743.6,625.3,728.5,571.9,742.5z"/>
	<path class="st0" d="M576.9,732c-22.3,5.7-30.9-0.2-49.6-10.3c-18.8-10.2-32.6-26.4-46.1-42.3c-20.2-23.9-29.9-43.9-51.9-64.6
		c-1.4-1.3-2.8-2.6-4.3-3.9c-49.5-43.5-130.6-33.1-196.4-52c-18.8-5.4-36.4-13.7-52.1-24.2c-60.7-40.3-95.7-113.7-84-188.2
		c14.5-93,100.3-178.4,197.7-196.3c82.2-15.1,164.4,13.5,245.9-6.4c57.1-14,107.3-50.4,162.8-70.8c61.3-22.4,128.5-23.6,186.9-4.9
		c18.9,6,36.8,14.2,53.4,24.3c67.5,41.6,109.5,116.5,110.2,196.4c0.5,64.9-24.4,130.9-22.1,195.6c1.8,52.2,21.3,100.8,28.3,152.1
		c7,51.4-1.8,111.5-44.5,149.1c-40.4,35.3-100,39.9-148.9,27.5c-48.9-12.4-91-39-136.2-59.5C680.6,733.1,628.4,718.5,576.9,732z"/>
	<path class="st0" d="M581.9,721.5c-21.5,5.5-29.9-0.2-48-10c-18.1-9.9-31.6-25.5-44.6-40.9c-19.5-23.1-28.9-42.4-50.1-62.4
		c-1.3-1.3-2.7-2.5-4.2-3.8c-47.8-42-126.1-32.2-189.6-50.7c-18.2-5.3-35.1-13.3-50.3-23.4c-58.6-39.1-92.3-110-81-182
		c14.1-89.6,96.8-171.9,190.7-189.2c79.2-14.6,158.5,13,237.1-6.3c55.1-13.5,103.5-48.5,157-68.1c59.2-21.5,124-22.5,180.2-4.4
		c18.2,5.9,35.5,13.7,51.4,23.6c65.1,40.2,105.6,112.4,106.3,189.6c0.6,62.7-23.4,126.3-21.2,188.7c1.8,50.4,20.6,97.2,27.4,146.8
		c6.8,49.6-1.6,107.7-42.7,143.9c-38.9,34.1-96.3,38.6-143.4,26.7c-47.1-11.9-87.7-37.5-131.3-57.1
		C681.9,722.6,631.6,708.5,581.9,721.5z"/>
	<path class="st0" d="M586.9,711c-20.7,5.3-28.9-0.3-46.3-9.7c-17.5-9.5-30.5-24.7-43-39.5c-18.8-22.3-27.9-41-48.4-60.3
		c-1.3-1.2-2.7-2.5-4.1-3.7C399,557,323.5,566.3,262.3,548.4c-17.5-5.1-33.8-12.9-48.5-22.7c-56.5-37.8-89-106.2-78-175.7
		c13.7-86.3,93.2-165.5,183.6-182.2c76.3-14.1,152.6,12.4,228.2-6.1c53-13,99.6-46.7,151.1-65.4c57-20.7,119.4-21.5,173.5-4
		c17.5,5.7,34.2,13.3,49.5,22.8c62.7,38.8,101.7,108.4,102.5,182.8c0.6,60.4-22.4,121.7-20.2,181.9c1.8,48.6,19.9,93.7,26.4,141.4
		c6.6,47.9-1.4,103.9-41,138.8c-37.4,32.9-92.6,37.2-138,25.8c-45.4-11.4-84.5-35.9-126.4-54.8C683.2,712,634.8,698.6,586.9,711z"/>
	<path class="st0" d="M591.9,700.4c-20,5.1-27.8-0.3-44.6-9.4c-16.9-9.2-29.4-23.8-41.5-38.1c-18.2-21.5-26.9-39.5-46.6-58.1
		c-1.3-1.2-2.6-2.4-3.9-3.6c-44.4-39.2-117.1-30.5-176-47.9c-16.9-5-32.6-12.5-46.7-22c-54.5-36.5-85.7-102.5-75-169.5
		c13.3-82.9,89.7-159.1,176.6-175.1c73.3-13.5,146.7,11.9,219.4-5.9c51-12.4,95.8-44.8,145.3-62.7c54.8-19.8,114.8-20.4,166.9-3.5
		c16.8,5.5,32.9,12.8,47.6,22c60.3,37.4,97.8,104.4,98.6,175.9c0.7,58.1-21.4,117.1-19.2,175c1.8,46.7,19.2,90.2,25.5,136.1
		c6.4,46.1-1.2,100-39.3,133.7c-35.9,31.7-89,35.9-132.6,25c-43.6-10.9-81.2-34.4-121.6-52.5C684.5,701.5,637.9,688.7,591.9,700.4z"
		/>
	<path class="st0" d="M596.9,689.9c-19.2,4.9-26.8-0.3-42.9-9.2c-16.2-8.9-28.3-22.9-39.9-36.7c-17.5-20.7-25.9-38.1-44.9-56
		c-1.2-1.1-2.5-2.3-3.8-3.4c-42.7-37.8-112.5-29.6-169.2-46.5c-16.2-4.8-31.3-12.1-44.9-21.2c-52.4-35.2-82.4-98.7-72-163.3
		c12.9-79.6,86.1-152.6,169.5-168.1c70.4-13,140.8,11.3,210.6-5.7c48.9-11.9,91.9-43,139.5-60.1c52.6-18.9,110.3-19.4,160.2-3.1
		c16.2,5.3,31.5,12.4,45.7,21.2c57.9,36,93.9,100.4,94.8,169.1c0.7,55.8-20.4,112.5-18.2,168.1c1.7,44.9,18.5,86.6,24.6,130.8
		c6.2,44.3-1.1,96.1-37.6,128.5c-34.4,30.5-85.3,34.6-127.1,24.2c-41.8-10.4-77.9-32.8-116.7-50.2
		C685.8,691,641.1,678.7,596.9,689.9z"/>
	<path class="st0" d="M601.8,679.4c-18.4,4.7-25.8-0.4-41.3-8.9c-15.6-8.5-27.2-22.1-38.4-35.3c-16.8-19.9-24.9-36.6-43.1-53.9
		c-1.2-1.1-2.4-2.2-3.6-3.3c-41-36.4-108-28.8-162.4-45.1c-15.6-4.7-30.1-11.7-43.2-20.5c-50.3-34-79.1-94.9-69-157
		c12.4-76.2,82.6-146.2,162.5-161c67.4-12.5,134.9,10.7,201.8-5.5c46.9-11.4,88.1-41.1,133.6-57.4c50.5-18.1,105.7-18.4,153.5-2.6
		c15.5,5.1,30.2,11.9,43.8,20.4c55.4,34.6,90,96.4,90.9,162.3c0.7,53.5-19.4,107.9-17.2,161.2c1.7,43.1,17.8,83.1,23.7,125.5
		c6,42.5-0.9,92.3-35.9,123.4c-32.9,29.3-81.6,33.2-121.7,23.3C796,735,761.4,713.6,724.2,697C687.1,680.4,644.2,668.7,601.8,679.4z
		"/>
	<path class="st0" d="M606.8,668.9c-17.7,4.4-24.8-0.4-39.6-8.6c-15-8.2-26.1-21.2-36.8-33.9c-16.1-19.1-23.9-35.2-41.3-51.7
		c-1.1-1.1-2.3-2.1-3.5-3.2c-39.3-35-103.5-27.9-155.5-43.7c-14.9-4.5-28.8-11.3-41.4-19.7c-48.2-32.7-75.8-91.2-65.9-150.8
		c12-72.9,79-139.8,155.4-154c64.5-12,129,10.2,193-5.3C616,187,655.4,158.6,699,143.1c48.3-17.2,101.1-17.3,146.9-2.2
		c14.8,4.9,28.9,11.4,41.9,19.6c53,33.2,86.1,92.3,87.1,155.4c0.8,51.2-18.3,103.3-16.3,154.4c1.7,41.2,17.1,79.6,22.7,120.1
		c5.8,40.7-0.7,88.4-34.2,118.3c-31.4,28-78,31.9-116.2,22.5c-38.3-9.3-71.4-29.7-107-45.5C688.4,669.9,647.4,658.7,606.8,668.9z"/>
	<path class="st0" d="M611.8,658.4c-16.9,4.2-23.7-0.5-37.9-8.3c-14.3-7.9-25-20.3-35.3-32.5c-15.4-18.3-22.9-33.7-39.6-49.6
		c-1.1-1-2.2-2-3.3-3c-37.6-33.6-98.9-27.1-148.7-42.4c-14.3-4.4-27.6-10.9-39.6-19c-46.2-31.4-72.5-87.4-62.9-144.6
		c11.6-69.5,75.4-133.4,148.4-147c61.5-11.5,123.1,9.6,184.2-5.2c42.8-10.3,80.4-37.4,121.9-52.1c46.2-16.3,96.5-16.3,140.2-1.7
		c14.1,4.7,27.6,11,40,18.8c50.6,31.8,82.2,88.3,83.2,148.6c0.8,49-17.3,98.7-15.3,147.5c1.7,39.4,16.4,76,21.8,114.8
		c5.5,38.9-0.6,84.5-32.4,113.1c-29.9,26.8-74.3,30.5-110.8,21.7c-36.5-8.8-68.1-28.2-102.1-43.2
		C689.7,659.3,650.6,648.7,611.8,658.4z"/>
	<path class="st0" d="M616.8,647.9c-16.2,4-22.7-0.5-36.3-8c-13.7-7.6-23.9-19.4-33.7-31.1c-14.7-17.5-21.9-32.3-37.8-47.5
		c-1-1-2.1-1.9-3.2-2.9c-35.9-32.2-94.4-26.2-141.9-41c-13.6-4.2-26.3-10.4-37.8-18.3c-44.1-30.1-69.2-83.7-59.9-138.4
		c11.2-66.2,71.9-126.9,141.3-139.9c58.6-11,117.2,9,175.4-5c40.7-9.8,76.5-35.5,116.1-49.4c44-15.4,92-15.2,133.5-1.2
		c13.5,4.5,26.3,10.5,38,18c48.2,30.4,78.3,84.3,79.4,141.8c0.8,46.7-16.3,94.1-14.3,140.6c1.6,37.6,15.7,72.5,20.9,109.5
		c5.3,37.2-0.4,80.7-30.7,108c-28.4,25.6-70.6,29.2-105.4,20.9c-34.8-8.3-64.9-26.6-97.2-40.9C691,648.8,653.7,638.8,616.8,647.9z"
		/>
	<path class="st0" d="M621.8,637.3c-15.4,3.8-21.7-0.6-34.6-7.7c-13.1-7.2-22.8-18.6-32.2-29.7c-14-16.7-20.9-30.8-36.1-45.3
		c-1-0.9-2-1.9-3-2.8c-34.2-30.8-89.9-25.3-135.1-39.6c-13-4.1-25.1-10-36-17.5c-42-28.9-65.8-79.9-56.9-132.1
		c10.8-62.8,68.3-120.5,134.3-132.9c55.6-10.4,111.3,8.5,166.5-4.8c38.7-9.3,72.7-33.6,110.3-46.7c41.8-14.6,87.4-14.2,126.9-0.8
		c12.8,4.3,24.9,10.1,36.1,17.2c45.8,29,74.4,80.3,75.5,134.9c0.9,44.4-15.3,89.5-13.3,133.8c1.6,35.7,14.9,69,20,104.1
		c5.1,35.4-0.2,76.8-29,102.9c-26.9,24.4-67,27.9-99.9,20c-33-7.8-61.6-25.1-92.3-38.6C692.3,638.3,656.9,628.8,621.8,637.3z"/>
	<path class="st0" d="M626.8,626.8c-14.6,3.5-20.7-0.6-32.9-7.4c-12.4-6.9-21.7-17.7-30.6-28.3c-13.3-15.9-19.9-29.4-34.3-43.2
		c-0.9-0.9-1.9-1.8-2.9-2.7c-32.5-29.4-85.3-24.5-128.3-38.2c-12.3-3.9-23.8-9.6-34.2-16.8c-40-27.6-62.5-76.2-53.9-125.9
		c10.4-59.5,64.8-114.1,127.2-125.8c52.7-9.9,105.4,7.9,157.7-4.6c36.6-8.8,68.8-31.7,104.4-44c39.7-13.7,82.8-13.2,120.2-0.3
		c12.1,4.2,23.6,9.6,34.2,16.4c43.4,27.6,70.5,76.2,71.6,128.1c0.9,42.1-14.3,84.9-12.3,126.9c1.6,33.9,14.2,65.5,19,98.8
		c4.9,33.6-0.1,72.9-27.3,97.8c-25.4,23.1-63.3,26.5-94.5,19.2c-31.2-7.2-58.3-23.6-87.5-36.2C693.6,627.7,660,618.8,626.8,626.8z"
		/>
	<path class="st0" d="M631.8,616.3c-13.9,3.3-19.6-0.6-31.2-7.1c-11.8-6.6-20.6-16.8-29.1-26.9c-12.6-15-18.9-27.9-32.5-41.1
		c-0.9-0.8-1.8-1.7-2.7-2.5c-30.8-28-80.8-23.6-121.5-36.8c-11.7-3.8-22.5-9.2-32.4-16c-37.9-26.3-59.2-72.4-50.9-119.7
		c9.9-56.1,61.2-107.6,120.2-118.8c49.7-9.4,99.6,7.4,148.9-4.4c34.6-8.3,65-29.9,98.6-41.4c37.5-12.8,78.2-12.1,113.5,0.1
		c11.4,4,22.3,9.2,32.3,15.6c40.9,26.3,66.6,72.2,67.8,121.3c0.9,39.8-13.3,80.3-11.4,120c1.5,32,13.5,61.9,18.1,93.5
		c4.7,31.8,0.1,69.1-25.6,92.6c-23.9,21.9-59.7,25.2-89.1,18.4c-29.5-6.7-55-22-82.6-33.9C694.9,617.2,663.2,608.8,631.8,616.3z"/>
	<path class="st0" d="M636.8,605.8c-13.1,3.1-18.6-0.7-29.6-6.8c-11.2-6.2-19.5-15.9-27.5-25.5c-11.9-14.2-17.9-26.5-30.8-38.9
		c-0.8-0.8-1.7-1.6-2.6-2.4c-29.2-26.6-76.3-22.8-114.7-35.4c-11-3.6-21.3-8.8-30.6-15.3c-35.8-25-55.9-68.7-47.8-113.4
		c9.5-52.8,57.7-101.2,113.1-111.7c46.8-8.9,93.7,6.8,140.1-4.2c32.5-7.7,61.1-28,92.7-38.7c35.3-12,73.7-11.1,106.9,0.6
		c10.7,3.8,21,8.7,30.4,14.8c38.5,24.9,62.7,68.2,63.9,114.4c1,37.5-12.3,75.7-10.4,113.1c1.5,30.2,12.8,58.4,17.2,88.1
		c4.5,30,0.3,65.2-23.9,87.5c-22.4,20.7-56,23.8-83.6,17.5c-27.7-6.2-51.8-20.5-77.7-31.6C696.1,606.7,666.4,598.8,636.8,605.8z"/>
	<path class="st0" d="M641.8,595.3c-12.4,2.9-17.6-0.7-27.9-6.5c-10.5-5.9-18.4-15.1-26-24.1c-11.2-13.4-16.9-25-29-36.8
		c-0.8-0.8-1.6-1.5-2.4-2.3c-27.5-25.1-71.7-21.9-107.9-34.1c-10.4-3.5-20-8.4-28.8-14.6c-33.8-23.8-52.6-64.9-44.8-107.2
		c9.1-49.4,54.1-94.8,106.1-104.7c43.8-8.4,87.8,6.2,131.3-4.1c30.5-7.2,57.3-26.1,86.9-36c33.2-11.1,69.1-10,100.2,1
		c10.1,3.6,19.6,8.3,28.5,14c36.1,23.5,58.8,64.2,60.1,107.6c1,35.3-11.2,71.1-9.4,106.3c1.5,28.4,12.1,54.9,16.3,82.8
		c4.3,28.3,0.4,61.3-22.1,82.4c-20.9,19.4-52.3,22.5-78.2,16.7c-25.9-5.7-48.5-18.9-72.8-29.3C697.4,596.1,669.5,588.9,641.8,595.3z
		"/>
	<path class="st0" d="M646.8,584.8c-11.6,2.6-16.5-0.8-26.2-6.2c-9.9-5.6-17.3-14.2-24.4-22.7c-10.6-12.6-15.9-23.6-27.3-34.7
		c-0.7-0.7-1.5-1.4-2.3-2.2c-25.8-23.7-67.2-21.1-101.1-32.7c-9.7-3.3-18.8-8-27-13.8c-31.7-22.5-49.3-61.1-41.8-101
		c8.7-46.1,50.6-88.3,99-97.6c40.9-7.8,81.9,5.7,122.5-3.9c28.4-6.7,53.4-24.2,81.1-33.3c31-10.2,64.5-9,93.5,1.5
		c9.4,3.4,18.3,7.8,26.5,13.2c33.7,22.1,54.9,60.2,56.2,100.8c1,33-10.2,66.5-8.4,99.4c1.5,26.5,11.4,51.3,15.3,77.5
		c4.1,26.5,0.6,57.5-20.4,77.2c-19.4,18.2-48.6,21.1-72.7,15.9c-24.1-5.2-45.2-17.4-68-26.9C698.7,585.6,672.7,578.9,646.8,584.8z"
		/>
	<path class="st0" d="M651.8,574.2c-10.8,2.4-15.5-0.8-24.6-5.9c-9.3-5.2-16.2-13.3-22.8-21.3c-9.9-11.8-14.9-22.1-25.5-32.5
		c-0.7-0.7-1.4-1.3-2.1-2c-24.1-22.3-62.7-20.2-94.3-31.3c-9.1-3.2-17.5-7.6-25.2-13.1c-29.6-21.2-46-57.4-38.8-94.8
		c8.2-42.7,47-81.9,92-90.6c37.9-7.3,76,5.1,113.7-3.7c26.4-6.2,49.6-22.4,75.2-30.7c28.9-9.3,60-8,86.8,1.9
		c8.7,3.2,17,7.3,24.6,12.4c31.3,20.7,51,56.1,52.4,93.9c1.1,30.7-9.2,61.9-7.4,92.5c1.4,24.7,10.7,47.8,14.4,72.1
		c3.9,24.7,0.8,53.6-18.7,72.1c-17.9,17-45,19.8-67.3,15.1c-22.4-4.7-42-15.8-63.1-24.6C700,575,675.8,568.9,651.8,574.2z"/>
	<path class="st0" d="M656.8,563.7c-10.1,2.2-14.5-0.8-22.9-5.6c-8.6-4.9-15.1-12.4-21.3-19.9c-9.2-11-13.9-20.6-23.8-30.4
		c-0.6-0.6-1.3-1.3-2-1.9c-22.4-20.9-58.2-19.3-87.5-29.9c-8.4-3-16.3-7.2-23.4-12.3c-27.5-19.9-42.7-53.6-35.8-88.5
		c7.8-39.4,43.5-75.5,84.9-83.5c35-6.8,70.1,4.5,104.8-3.5c24.3-5.6,45.8-20.5,69.4-28c26.7-8.5,55.4-6.9,80.2,2.4
		c8,3,15.7,6.9,22.7,11.6c28.8,19.3,47.1,52.1,48.5,87.1c1.1,28.4-8.2,57.3-6.4,85.6c1.4,22.9,10,44.3,13.5,66.8
		c3.6,22.9,0.9,49.7-17,67c-16.4,15.8-41.3,18.4-61.9,14.2c-20.6-4.2-38.7-14.3-58.2-22.3C701.3,564.5,679,558.9,656.8,563.7z"/>
	<path class="st0" d="M661.8,553.2c-9.3,2-13.5-0.9-21.2-5.3c-8-4.6-14-11.6-19.7-18.5c-8.5-10.2-12.9-19.2-22-28.3
		c-0.6-0.6-1.2-1.2-1.8-1.8c-20.7-19.5-53.6-18.5-80.7-28.5c-7.8-2.9-15-6.8-21.6-11.6c-25.5-18.7-39.4-49.9-32.8-82.3
		c7.3-36,39.9-69.1,77.9-76.5c32-6.3,64.2,4,96-3.3c22.3-5.1,41.9-18.6,63.5-25.3c24.5-7.6,50.8-5.9,73.5,2.8
		c7.4,2.8,14.3,6.4,20.8,10.8c26.4,17.9,43.2,48.1,44.7,80.3c1.2,26.1-7.2,52.7-5.5,78.8c1.4,21,9.2,40.7,12.6,61.5
		c3.4,21.1,1.1,45.9-15.3,61.8c-14.9,14.5-37.6,17.1-56.4,13.4c-18.8-3.7-35.4-12.7-53.3-20C702.6,554,682.2,548.9,661.8,553.2z"/>
	<path class="st0" d="M666.8,542.7c-8.6,1.7-12.5-0.9-19.5-5c-7.4-4.2-12.9-10.7-18.2-17.1c-7.8-9.4-11.9-17.7-20.2-26.1
		c-0.5-0.5-1.1-1.1-1.7-1.6c-19-18.1-49.1-17.6-73.9-27.1c-7.1-2.7-13.8-6.4-19.8-10.9c-23.4-17.4-36.1-46.1-29.7-76.1
		c6.9-32.7,36.4-62.6,70.8-69.5c29.1-5.8,58.3,3.4,87.2-3.1c20.3-4.6,38.1-16.7,57.7-22.6c22.4-6.7,46.2-4.8,66.8,3.3
		c6.7,2.6,13,6,18.9,10c24,16.5,39.3,44.1,40.8,73.4c1.2,23.9-6.2,48.1-4.5,71.9c1.4,19.2,8.5,37.2,11.6,56.1
		c3.2,19.4,1.3,42-13.6,56.7c-13.4,13.3-34,15.7-51,12.6c-17.1-3.2-32.2-11.2-48.5-17.6C703.9,543.5,685.3,538.9,666.8,542.7z"/>
	<path class="st0" d="M671.8,532.2c-7.8,1.5-11.4-1-17.9-4.7c-6.7-3.9-11.8-9.8-16.6-15.7c-7.1-8.6-10.9-16.3-18.5-24
		c-0.5-0.5-1-1-1.5-1.5c-17.3-16.7-44.6-16.8-67.1-25.8c-6.5-2.6-12.5-6-18-10.1c-21.3-16.1-32.8-42.3-26.7-69.8
		c6.4-29.3,32.8-56.2,63.8-62.4c26.1-5.3,52.4,2.8,78.4-3c18.2-4.1,34.2-14.9,51.9-20c20.2-5.8,41.7-3.8,60.2,3.8
		c6,2.5,11.7,5.5,17,9.2c21.6,15.1,35.4,40.1,36.9,66.6c1.2,21.6-5.2,43.5-3.5,65c1.3,17.4,7.8,33.7,10.7,50.8
		c3,17.6,1.5,38.1-11.8,51.6c-11.9,12.1-30.3,14.4-45.6,11.7c-15.3-2.6-28.9-9.6-43.6-15.3C705.2,532.9,688.5,528.9,671.8,532.2z"/>
	<path class="st0" d="M676.8,521.7c-7,1.3-10.4-1-16.2-4.4c-6.1-3.6-10.7-8.9-15.1-14.3c-6.4-7.8-9.9-14.8-16.7-21.8
		c-0.4-0.5-0.9-0.9-1.4-1.4c-15.6-15.3-40-15.9-60.3-24.4c-5.8-2.4-11.2-5.6-16.2-9.4c-19.3-14.8-29.5-38.6-23.7-63.6
		c6-26,29.3-49.8,56.7-55.4c23.2-4.7,46.5,2.3,69.6-2.8c16.2-3.5,30.4-13,46-17.3c18.1-5,37.1-2.8,53.5,4.2
		c5.3,2.3,10.4,5.1,15.1,8.4c19.2,13.7,31.5,36,33.1,59.8c1.3,19.3-4.1,38.8-2.5,58.1c1.3,15.5,7.1,30.2,9.8,45.5
		c2.8,15.8,1.6,34.2-10.1,46.5c-10.4,10.8-26.6,13-40.1,10.9c-13.5-2.1-25.7-8.1-38.7-13C706.5,522.4,691.6,519,676.8,521.7z"/>
	<path class="st0" d="M681.8,511.1c-6.3,1.1-9.4-1-14.5-4.1c-5.5-3.2-9.6-8.1-13.5-12.9c-5.7-7-8.9-13.4-15-19.7
		c-0.4-0.4-0.8-0.8-1.2-1.3c-13.9-13.9-35.5-15-53.5-23c-5.2-2.3-10-5.2-14.4-8.6c-17.2-13.6-26.2-34.8-20.7-57.4
		c5.5-22.6,25.7-43.3,49.7-48.3c20.2-4.2,40.6,1.7,60.8-2.6c14.1-3,26.6-11.1,40.2-14.6c15.9-4.1,32.5-1.7,46.8,4.7
		c4.6,2.1,9.1,4.6,13.1,7.6c16.7,12.3,27.6,32,29.2,52.9c1.3,17-3.1,34.2-1.5,51.3c1.3,13.7,6.4,26.6,8.9,40.2
		c2.5,14,1.8,30.4-8.4,41.3c-8.9,9.6-23,11.7-34.7,10.1c-11.8-1.6-22.4-6.5-33.8-10.7C707.8,511.9,694.8,509,681.8,511.1z"/>
	<path class="st0" d="M686.8,500.6c-5.5,0.8-8.3-1.1-12.8-3.8c-4.8-2.9-8.5-7.2-12-11.5c-5-6.2-7.9-11.9-13.2-17.6
		c-0.3-0.4-0.7-0.8-1.1-1.1c-12.2-12.5-31-14.2-46.7-21.6c-4.5-2.1-8.7-4.8-12.6-7.9c-15.1-12.3-22.9-31-17.7-51.2
		c5-19.3,22.1-36.9,42.6-41.3c17.3-3.7,34.7,1.2,51.9-2.4c12.1-2.5,22.7-9.2,34.3-11.9c13.8-3.2,27.9-0.7,40.2,5.1
		c4,1.9,7.7,4.2,11.2,6.8c14.3,10.9,23.7,28,25.4,46.1c1.3,14.7-2.1,29.6-0.6,44.4c1.3,11.9,5.7,23.1,7.9,34.8
		c2.3,12.2,2,26.5-6.7,36.2c-7.4,8.4-19.3,10.3-29.2,9.2c-10-1.1-19.1-5-29-8.4C709.1,501.3,697.9,499,686.8,500.6z"/>
	<path class="st0" d="M691.8,490.1c-4.8,0.6-7.3-1.1-11.2-3.5c-4.2-2.6-7.4-6.3-10.4-10.1c-4.3-5.4-6.9-10.5-11.4-15.4
		c-0.3-0.3-0.6-0.7-0.9-1c-10.5-11.1-26.4-13.3-39.9-20.2c-3.8-2-7.5-4.4-10.8-7.2c-13.1-11-19.6-27.3-14.7-44.9
		c4.5-15.9,18.6-30.5,35.5-34.2c14.3-3.2,28.8,0.6,43.1-2.2c10-2,18.9-7.3,28.5-9.3c11.6-2.3,23.4,0.4,33.5,5.6
		c3.3,1.7,6.4,3.7,9.3,6c11.9,9.5,19.8,24,21.5,39.3c1.4,12.4-1.1,25,0.4,37.5c1.2,10,5,19.6,7,29.5c2.1,10.5,2.1,22.6-5,31.1
		c-6,7.1-15.7,9-23.8,8.4c-8.2-0.6-15.9-3.4-24.1-6C710.4,490.8,701.1,488.9,691.8,490.1z"/>
	<path class="st0" d="M696.7,479.6c-4,0.4-6.3-1.2-9.5-3.2c-3.6-2.2-6.3-5.5-8.9-8.7c-3.7-4.6-5.9-9-9.7-13.3
		c-0.3-0.3-0.5-0.6-0.8-0.9c-8.8-9.7-21.9-12.5-33.1-18.8c-3.2-1.8-6.2-4-9-6.4c-11-9.7-16.4-23.5-11.6-38.7
		c3.9-12.6,15-24,28.5-27.2c11.4-2.7,22.9,0,34.3-2c8-1.5,15.1-5.4,22.6-6.6c9.5-1.4,18.8,1.4,26.8,6c2.6,1.5,5.1,3.2,7.4,5.2
		c9.5,8.1,15.9,20,17.7,32.5c1.4,10.2-0.1,20.4,1.4,30.6c1.2,8.2,4.3,16,6.1,24.2c1.9,8.7,2.3,18.7-3.3,25.9
		c-4.5,5.8-12,7.7-18.4,7.6c-6.5-0.1-12.6-1.9-19.2-3.7C711.7,480.2,704.2,478.9,696.7,479.6z"/>
	<path class="st0" d="M701.7,469.1c-3.3,0.1-5.3-1.2-7.8-2.9c-2.9-1.9-5.2-4.6-7.3-7.3c-3-3.8-4.9-7.6-7.9-11.2
		c-0.2-0.2-0.4-0.5-0.6-0.7c-7.1-8.2-17.4-11.6-26.3-17.5c-2.5-1.7-5-3.6-7.2-5.7c-8.9-8.4-13.2-19.7-8.6-32.5
		c3.3-9.2,11.5-17.6,21.4-20.1c8.4-2.2,17.1-0.5,25.5-1.9c5.9-0.9,11.3-3.5,16.8-3.9c7.4-0.5,14.2,2.4,20.2,6.5
		c1.9,1.3,3.8,2.8,5.5,4.4c7.1,6.7,12,15.9,13.8,25.6c1.4,7.9,0.9,15.8,2.4,23.8c1.2,6.4,3.6,12.5,5.2,18.8
		c1.7,6.9,2.4,14.8-1.5,20.8c-3,4.6-8.3,6.3-12.9,6.8c-4.7,0.5-9.3-0.3-14.3-1.4C713,469.7,707.4,468.9,701.7,469.1z"/>
</g>
</svg>
