<svg version="1.1" id="Layer_1" xmlns="http://www.w3.org/2000/svg" x="0" y="0" viewBox="0 0 1120 900" xml:space="preserve"><style>.st0{fill:none;stroke:#fff;stroke-width:.75;stroke-miterlimit:10}</style><path class="st0" d="M561.9 788.31c58.89-15.74 118.53 1.21 170.15 25.1 51.63 23.89 99.7 54.96 155.69 69.64 55.99 14.68 124.29 9.59 170.62-31.19 48.92-43.06 59.2-112.44 51.33-171.74-7.86-59.3-30.05-115.33-32-175.65-2.41-74.79 26.47-150.94 26.07-225.96-.49-92.38-48.4-178.81-125.62-226.6-77.21-47.8-181.93-55.84-274.55-21.1-63.51 23.83-120.89 66.2-186.19 82.51-93.2 23.28-187.16-10.11-281.14 7.28C124.84 141.22 26.45 240.2 10.31 347.91c-16.14 107.71 51.55 213.65 155.44 243.3 74.82 21.35 167.26 8.6 223.59 58.31 28.66 25.3 39.43 49.38 63.88 78.54 15.32 18.27 31.06 36.89 52.36 48.56 21.29 11.68 31.02 18.45 56.32 11.69z"/><path class="st0" d="M566.89 777.66c-24.53 6.52-34-.05-54.66-11.38-20.67-11.34-35.94-29.41-50.81-47.15-22.3-26.61-32.88-48.88-57.18-71.86-1.54-1.46-3.14-2.92-4.8-4.39-54.63-48.29-144.24-36.1-216.78-56.91-20.81-5.97-40.12-15.09-57.53-26.73C58.27 514.52 19.5 432.68 32.05 349.73c15.67-104.32 110.98-200.18 218.9-220.17 91.03-16.86 182.04 15.43 272.32-7.09 63.25-15.78 118.84-56.77 180.35-79.8 67.81-25.35 142.27-27.03 206.88-6.34 20.92 6.7 40.8 15.74 59.09 27.08 74.8 46.38 121.23 130.15 121.76 219.68.43 72.71-27.47 146.51-25.09 219 1.92 58.46 23.43 112.77 31.07 170.25 7.65 57.49-2.25 124.75-49.62 166.55-44.84 39.53-110.97 44.51-165.18 30.36-54.22-14.15-100.8-44.19-150.81-67.29-50-23.1-107.77-39.51-164.83-24.3z"/><path class="st0" d="M571.89 767.01c-23.77 6.29-32.97-.1-52.98-11.08-20.03-11-34.85-28.53-49.25-45.73-21.61-25.8-31.89-47.41-55.42-69.7-1.49-1.42-3.04-2.83-4.65-4.26-52.93-46.86-139.71-35.23-209.98-55.51-20.15-5.82-38.86-14.68-55.73-25.98C79.07 511.33 41.5 431.99 53.8 351.55c15.21-100.93 107.43-193.67 211.85-213.04 88.08-16.34 176.15 14.86 263.51-6.9 61.2-15.25 114.99-54.86 174.51-77.1 65.65-24.45 137.7-25.97 200.21-5.88 20.24 6.51 39.48 15.28 57.18 26.27 72.38 44.97 117.33 126.08 117.91 212.76.47 70.4-26.46 141.85-24.11 212.04 1.89 56.6 22.72 109.2 30.15 164.85 7.44 55.69-2.1 120.82-47.9 161.35-43.36 38.28-107.3 43.16-159.74 29.52-52.45-13.63-97.53-42.62-145.94-64.93-48.42-22.31-104.33-38.16-159.54-23.48z"/><path class="st0" d="M576.88 756.36c-23.01 6.05-31.95-.14-51.31-10.78-19.4-10.67-33.75-27.64-47.7-44.31-20.92-24.99-30.89-45.94-53.66-67.54-1.45-1.37-2.94-2.75-4.5-4.13-51.23-45.44-135.18-34.36-203.17-54.11-19.5-5.66-37.61-14.27-53.93-25.23C99.87 508.13 63.5 431.3 75.54 353.37c14.75-97.54 103.87-187.15 204.8-205.9 85.13-15.82 170.26 14.29 254.69-6.72 59.16-14.72 111.15-52.95 168.67-74.39 63.49-23.55 133.12-24.92 193.54-5.41 19.56 6.31 38.16 14.82 55.27 25.47 69.96 43.55 113.43 122.01 114.05 205.85.5 68.09-25.44 137.19-23.13 205.08 1.87 54.75 22.02 105.62 29.22 159.45 7.23 53.88-1.94 116.9-46.18 156.15-41.87 37.03-103.64 41.8-154.31 28.68-50.68-13.1-94.26-41.06-141.07-62.58-46.78-21.54-100.83-36.84-154.21-22.69z"/><path class="st0" d="M581.87 745.71c-22.25 5.82-30.92-.18-49.64-10.48-18.77-10.33-32.65-26.76-46.15-42.89-20.23-24.17-29.89-44.46-51.9-65.38-1.4-1.33-2.85-2.66-4.35-4-49.53-44.01-130.64-33.49-196.37-52.71-18.85-5.51-36.35-13.86-52.14-24.48-60.67-40.85-95.66-115.16-84.05-190.59 14.5-94.15 100.32-180.64 197.75-198.77 82.18-15.29 164.37 13.72 245.88-6.53 57.11-14.19 107.31-51.04 162.83-71.68 61.33-22.64 128.55-23.87 186.87-4.95 18.88 6.12 36.83 14.36 53.35 24.66 67.54 42.14 109.53 117.94 110.2 198.93.54 65.78-24.43 132.54-22.15 198.12 1.84 52.89 21.31 102.05 28.3 154.05 7.02 52.08-1.79 112.97-44.47 150.96-40.39 35.78-99.97 40.44-148.87 27.84-48.91-12.58-90.99-39.49-136.19-60.23-45.17-20.74-97.35-35.5-148.9-21.87z"/><path class="st0" d="M586.87 735.06c-21.49 5.58-29.89-.22-47.97-10.17-18.13-10-31.55-25.87-44.59-41.47-19.54-23.36-28.89-42.99-50.14-63.21-1.35-1.29-2.75-2.57-4.2-3.87-47.84-42.59-126.11-32.62-189.57-51.31-18.2-5.36-35.1-13.45-50.34-23.73-58.6-39.55-92.35-111.36-81.03-184.28 14.09-90.76 96.77-174.13 190.69-191.63 79.23-14.77 158.47 13.15 237.06-6.35 55.06-13.66 103.47-49.12 156.98-68.97 59.17-21.74 123.98-22.81 180.21-4.49 18.2 5.93 35.51 13.89 51.44 23.85 65.12 40.72 105.63 113.87 106.34 192.01.58 63.46-23.42 127.88-21.17 191.16 1.81 51.03 20.6 98.47 27.37 148.65 6.81 50.27-1.63 109.04-42.75 145.76-38.9 34.52-96.31 39.08-143.43 27-47.15-12.06-87.72-37.93-131.32-57.88-43.55-19.96-93.87-34.17-143.58-21.07z"/><path class="st0" d="M591.86 724.41c-20.73 5.4-28.87-.27-46.29-9.87-17.5-9.66-30.45-24.99-43.04-40.05-18.85-22.55-27.89-41.52-48.38-61.05-1.3-1.24-2.65-2.49-4.05-3.74-46.14-41.16-121.58-31.75-182.76-49.91-17.55-5.21-33.84-13.04-48.54-22.98-56.53-38.26-89.03-107.56-78.01-177.97 13.68-87.37 93.22-167.62 183.64-184.5 76.28-14.24 152.58 12.58 228.25-6.16 53.01-13.13 99.6-47.31 151.14-66.26 56.98-20.95 119.4-21.76 173.54-4.03 17.53 5.74 34.19 13.43 49.52 23.05 62.7 39.31 101.73 109.8 102.48 185.09.61 61.15-22.4 123.22-20.19 184.19 1.79 49.17 19.9 94.9 26.45 143.25 6.6 48.47-1.4 105.19-41.03 140.57-37.35 33.34-92.64 37.72-137.99 26.16-45.38-11.53-84.46-36.37-126.45-55.52-41.95-19.18-90.39-32.74-138.29-20.27z"/><path class="st0" d="M596.86 713.76c-19.96 5.17-27.84-.31-44.62-9.57-16.87-9.33-29.36-24.1-41.49-38.63-18.16-21.74-26.89-40.05-46.62-58.89-1.25-1.2-2.55-2.4-3.9-3.61-44.44-39.73-117.05-30.88-175.96-48.5-16.89-5.05-32.58-12.63-46.74-22.23-54.46-36.97-85.72-103.76-75-171.66 13.26-83.98 89.66-161.11 176.59-177.37 73.33-13.72 146.69 12.01 219.43-5.97 50.97-12.6 95.75-45.41 145.3-63.55 54.81-20.06 114.83-20.71 166.87-3.57 16.85 5.55 32.87 12.97 47.61 22.24 60.29 37.9 97.83 105.72 98.63 178.17.65 58.84-21.39 118.56-19.2 177.23 1.76 47.32 19.19 91.32 25.52 137.85 6.39 46.66-1.24 101.28-39.31 135.37-35.85 32.1-88.97 36.36-132.56 25.32-43.61-11.01-81.19-34.8-121.57-53.17-40.35-18.39-86.92-31.39-132.98-19.46z"/><path class="st0" d="M601.85 703.11c-19.2 4.94-26.81-.35-42.95-9.27-16.23-8.99-28.26-23.22-39.93-37.21-17.46-20.92-25.89-38.58-44.86-56.73-1.21-1.16-2.46-2.32-3.75-3.48-42.74-38.31-112.52-30.01-169.16-47.1-16.24-4.9-31.33-12.22-44.95-21.49-52.39-35.68-82.41-99.96-71.98-165.35 12.85-80.58 86.11-154.59 169.54-170.23 70.38-13.19 140.8 11.44 210.62-5.79 48.92-12.07 91.9-43.52 139.46-60.84 52.65-19.18 110.26-19.65 160.2-3.11 16.17 5.36 31.54 12.51 45.69 21.43 57.87 36.48 93.93 101.65 94.77 171.25.69 56.53-20.37 113.9-18.22 170.27 1.73 45.46 18.48 87.74 24.6 132.45 6.18 44.86-1.07 97.36-37.6 130.17-34.36 30.86-85.31 35-127.12 24.48-41.84-10.48-77.92-33.24-116.7-50.82-38.72-17.58-83.43-30.01-127.66-18.63z"/><path class="st0" d="M606.85 692.46c-18.44 4.71-25.79-.39-41.28-8.96-15.6-8.66-27.16-22.33-38.38-35.8-16.77-20.11-24.9-37.1-43.1-54.56-1.16-1.11-2.36-2.23-3.6-3.35-41.04-36.88-107.99-29.14-162.35-45.7-15.59-4.75-30.08-11.81-43.15-20.74-50.32-34.39-79.09-96.15-68.96-159.05 12.44-77.19 82.56-148.08 162.49-163.1 67.43-12.67 134.91 10.87 201.8-5.6 46.87-11.54 88.06-41.62 133.62-58.13 50.48-18.3 105.68-18.6 153.53-2.65 15.49 5.16 30.22 12.05 43.78 20.62 55.45 35.07 90.03 97.58 90.92 164.33.72 54.21-19.36 109.24-17.24 163.31 1.71 43.6 17.77 84.17 23.67 127.05 5.97 43.05-.9 93.45-35.88 124.98-32.86 29.62-81.64 33.64-121.68 23.64-40.07-9.96-74.65-31.67-111.82-48.46-37.14-16.81-79.98-28.67-122.37-17.83z"/><path class="st0" d="M611.84 681.81c-17.68 4.49-24.76-.43-39.61-8.66-14.96-8.32-26.06-21.45-36.83-34.38-16.08-19.3-23.9-35.63-41.34-52.4-1.11-1.07-2.26-2.14-3.45-3.22-39.34-35.45-103.46-28.27-155.55-44.3-14.94-4.59-28.82-11.4-41.35-19.99-48.24-33.1-75.78-92.35-65.95-152.74 12.02-73.8 79-141.57 155.43-155.96 64.48-12.14 129.01 10.3 192.99-5.42 44.82-11.01 84.21-39.72 127.78-55.42 48.32-17.41 101.11-17.55 146.86-2.19 14.81 4.97 28.9 11.59 41.87 19.82 53.03 33.66 86.13 93.51 87.06 157.41.76 51.9-18.35 104.58-16.26 156.35 1.68 41.74 17.07 80.59 22.75 121.65 5.76 41.25-.73 89.53-34.16 119.78-31.36 28.38-77.98 32.29-116.24 22.8-38.31-9.43-71.39-30.11-106.95-46.11-35.51-16.02-76.49-27.32-117.05-17.02z"/><path class="st0" d="M616.84 671.15c-16.92 4.26-23.73-.48-37.93-8.36-14.33-7.98-24.96-20.56-35.27-32.96-15.39-18.49-22.9-34.16-39.58-50.24-1.06-1.03-2.16-2.06-3.31-3.09-37.64-34.03-98.93-27.41-148.74-42.9-14.28-4.44-27.56-10.99-39.56-19.24-46.17-31.81-72.47-88.55-62.93-146.43 11.61-70.41 75.45-135.06 148.38-148.83 61.53-11.62 123.12 9.73 184.17-5.23 42.78-10.48 80.36-37.83 121.94-52.72 46.16-16.53 96.54-16.49 140.2-1.73 14.13 4.78 27.58 11.13 39.95 19.01 50.61 32.24 82.23 89.44 83.21 150.49.8 49.59-17.33 99.92-15.28 149.38 1.65 39.89 16.36 77.02 21.82 116.26 5.55 39.45-.56 85.62-32.45 114.59-29.87 27.14-74.31 30.93-110.81 21.96-36.54-8.91-68.12-28.55-102.08-43.76-33.9-15.21-73.01-25.95-111.73-16.2z"/><path class="st0" d="M621.83 660.5c-16.16 4.03-22.71-.52-36.26-8.06-13.7-7.65-23.86-19.68-33.72-31.54-14.7-17.68-21.9-32.69-37.83-48.08-1.02-.98-2.07-1.97-3.16-2.96-35.95-32.6-94.4-26.54-141.94-41.5-13.63-4.29-26.31-10.58-37.76-18.49-44.1-30.52-69.16-84.75-59.91-140.12 11.19-67.02 71.89-128.54 141.33-141.69 58.58-11.1 117.23 9.16 175.36-5.04 40.73-9.95 76.52-35.93 116.1-50.01 43.99-15.64 91.96-15.44 133.53-1.26 13.46 4.59 26.25 10.67 38.04 18.2 48.19 30.83 78.33 85.37 79.35 143.57.83 47.28-16.32 95.26-14.3 142.42 1.63 38.03 15.65 73.44 20.9 110.86 5.33 37.64-.4 81.7-30.73 109.39-28.37 25.9-70.65 29.57-105.37 21.12-34.77-8.38-64.85-26.98-97.2-41.4-32.29-14.44-69.54-24.61-106.43-15.41z"/><path class="st0" d="M626.83 649.85c-15.4 3.8-21.68-.56-34.59-7.76-13.06-7.31-22.77-18.79-32.17-30.12-14.01-16.86-20.9-31.22-36.07-45.91-.97-.94-1.97-1.88-3.01-2.83-34.25-31.17-89.87-25.67-135.14-40.1-12.98-4.14-25.05-10.17-35.96-17.74-42.03-29.23-65.84-80.95-56.9-133.81 10.77-63.63 68.34-122.03 134.28-134.56 55.63-10.57 111.34 8.59 166.54-4.86 38.68-9.42 72.67-34.04 110.26-47.3 41.83-14.76 87.39-14.39 126.86-.8 12.78 4.4 24.93 10.2 36.12 17.39 45.77 29.41 74.43 81.29 75.5 136.65.87 44.96-15.3 90.6-13.32 135.46 1.6 36.17 14.95 69.86 19.97 105.46 5.12 35.84-.23 77.79-29.01 104.2-26.88 24.66-66.98 28.21-99.93 20.28-33-7.86-61.58-25.42-92.33-39.05-30.67-13.65-66.04-23.26-101.1-14.6z"/><path class="st0" d="M631.82 639.2c-14.64 3.58-20.65-.6-32.92-7.45-12.43-6.98-21.67-17.91-30.61-28.7-13.32-16.05-19.9-29.74-34.31-43.75-.92-.9-1.87-1.8-2.86-2.7-32.55-29.75-85.34-24.8-128.33-38.69-12.33-3.98-23.8-9.76-34.17-16.99-39.96-27.94-62.53-77.14-53.88-127.51 10.35-60.24 64.79-115.52 127.22-127.42 52.68-10.05 105.44 8.02 157.73-4.67 36.63-8.89 68.83-32.14 104.42-44.59 39.67-13.88 82.82-13.33 120.19-.34 12.1 4.21 23.61 9.74 34.21 16.59 43.35 28 70.53 77.22 71.64 129.73.9 42.65-14.29 85.94-12.33 128.5 1.57 34.31 14.24 66.29 19.05 100.06 4.91 34.03-.06 73.87-27.29 99-25.38 23.42-63.32 26.85-94.49 19.44-31.23-7.33-58.32-23.85-87.46-36.7-29.07-12.88-62.58-21.93-95.81-13.81z"/><path class="st0" d="M636.82 628.55c-13.88 3.35-19.63-.65-31.24-7.15-11.79-6.64-20.57-17.02-29.06-27.28-12.63-15.24-18.9-28.27-32.55-41.59-.87-.85-1.77-1.71-2.71-2.57-30.85-28.32-80.81-23.93-121.53-37.29-11.68-3.83-22.54-9.35-32.37-16.24-37.89-26.64-59.22-73.34-50.86-121.2 9.93-56.85 61.23-109.01 120.17-120.29 49.73-9.52 99.55 7.45 148.91-4.49 34.59-8.36 64.98-30.24 98.58-41.88 37.5-12.99 78.24-12.28 113.52.12 11.42 4.02 22.28 9.28 32.29 15.78 40.93 26.59 66.63 73.15 67.79 122.82.94 40.34-13.27 81.28-11.35 121.54 1.55 32.46 13.53 62.71 18.12 94.66 4.7 32.23.11 69.96-25.58 93.81-23.88 22.18-59.65 25.49-89.06 18.6-29.47-6.81-55.05-22.29-82.58-34.35-27.46-12.1-59.1-20.58-90.49-13z"/><path class="st0" d="M641.81 617.9c-13.11 3.12-18.6-.69-29.57-6.85-11.16-6.31-19.47-16.14-27.51-25.87-11.94-14.43-17.91-26.8-30.79-39.43-.82-.81-1.68-1.62-2.56-2.44-29.15-26.9-76.28-23.06-114.73-35.89a117.606 117.606 0 01-30.57-15.49c-35.82-25.35-55.91-69.54-47.85-114.89 9.51-53.46 57.68-102.5 113.12-113.15 46.77-9 93.66 6.88 140.1-4.3 32.54-7.83 61.14-28.34 92.74-39.17 35.34-12.11 73.67-11.23 106.85.58 10.74 3.82 20.96 8.82 30.38 14.97 38.52 25.17 62.73 69.08 63.93 115.9.98 38.03-12.26 76.62-10.37 114.57 1.52 30.6 12.82 59.14 17.2 89.26 4.49 30.42.27 66.04-23.86 88.61-22.39 20.94-55.99 24.13-83.62 17.76-27.7-6.28-51.78-20.72-77.71-31.99-25.84-11.3-55.62-19.22-85.18-12.18z"/><path class="st0" d="M646.81 607.25c-12.35 2.89-17.57-.73-27.9-6.55-10.53-5.97-18.37-15.25-25.95-24.45-11.25-13.62-16.91-25.33-29.03-37.27-.78-.77-1.58-1.54-2.41-2.31-27.45-25.47-71.75-22.19-107.92-34.49-10.37-3.52-20.03-8.53-28.78-14.74-33.75-24.06-52.6-65.73-44.83-108.58 9.08-50.06 54.13-95.98 106.07-106.02 43.82-8.47 87.77 6.31 131.28-4.11 30.49-7.3 57.29-26.45 86.9-36.46 33.18-11.22 69.1-10.17 100.18 1.04 10.06 3.63 19.64 8.36 28.46 14.16 36.1 23.76 58.83 65.01 60.07 108.98 1.01 35.72-11.25 71.96-9.39 107.61 1.49 28.74 12.12 55.56 16.27 83.86 4.28 28.62.44 62.12-22.14 83.41-20.89 19.69-52.32 22.77-78.18 16.92-25.93-5.76-48.51-19.16-72.83-29.64-24.23-10.5-52.15-17.86-79.87-11.36z"/><path class="st0" d="M651.8 596.6c-11.59 2.67-16.55-.77-26.23-6.24-9.89-5.64-17.28-14.37-24.4-23.03-10.56-12.81-15.91-23.86-27.27-35.1-.73-.73-1.48-1.45-2.26-2.18-25.75-24.04-67.22-21.32-101.12-33.09-9.72-3.37-18.78-8.12-26.98-13.99-31.68-22.77-49.29-61.93-41.81-102.27 8.65-46.67 50.57-89.47 99.02-98.88 40.88-7.95 81.87 5.74 122.47-3.93 28.44-6.77 53.45-24.55 81.06-33.75 31.02-10.34 64.52-9.12 93.52 1.5 9.39 3.44 18.32 7.9 26.55 13.36 33.68 22.34 54.93 60.94 56.22 102.06 1.05 33.4-10.23 67.3-8.41 100.65 1.47 26.88 11.41 51.98 15.35 78.46 4.07 26.81.61 58.2-20.43 78.22-19.4 18.45-48.64 21.36-72.75 16.08-24.14-5.29-45.24-17.6-67.96-27.29-22.63-9.74-48.68-16.54-74.57-10.58z"/><path class="st0" d="M656.8 585.95c-10.83 2.44-15.52-.81-24.55-5.94-9.26-5.3-16.18-13.48-22.85-21.61-9.87-11.99-14.91-22.38-25.51-32.94-.68-.68-1.38-1.37-2.11-2.05-24.05-22.62-62.68-20.45-94.32-31.69-9.07-3.22-17.52-7.71-25.18-13.24-29.61-21.48-45.99-58.12-38.8-95.97 8.22-43.28 47.02-82.96 91.96-91.75 37.92-7.42 75.98 5.16 113.65-3.74 26.4-6.24 49.6-22.65 75.22-31.04 28.85-9.45 59.95-8.07 86.85 1.96 8.71 3.25 16.99 7.44 24.63 12.55 31.26 20.93 51.03 56.86 52.36 95.14 1.09 31.09-9.22 62.64-7.43 93.69 1.44 25.03 10.7 48.41 14.42 73.06 3.86 25.01.78 54.29-18.71 73.02-17.9 17.21-44.97 20-67.31 15.24-22.37-4.77-41.98-16.03-63.09-24.93-20.99-8.94-45.18-15.18-69.23-9.76z"/><path class="st0" d="M661.79 575.3c-10.07 2.21-14.49-.86-22.88-5.64-8.62-4.96-15.08-12.6-21.29-20.19-9.18-11.18-13.91-20.91-23.75-30.78-.63-.64-1.29-1.28-1.96-1.92-22.36-21.19-58.15-19.58-87.51-30.29a94.418 94.418 0 01-23.39-12.5c-27.54-20.19-42.68-54.32-35.78-89.66 7.79-39.89 43.47-76.45 84.91-84.62 34.98-6.9 70.09 4.59 104.84-3.56 24.35-5.71 45.76-20.75 69.37-28.34 26.69-8.57 55.38-7.01 80.18 2.42 8.03 3.06 15.67 6.98 22.72 11.74 28.84 19.52 47.13 52.79 48.51 88.22 1.12 28.78-8.2 57.98-6.45 86.73 1.41 23.17 10 44.83 13.5 67.66 3.65 23.2.95 50.37-16.99 67.83-16.4 15.96-41.31 18.64-61.87 14.4-20.61-4.24-38.71-14.47-58.21-22.58-19.41-8.12-41.74-13.8-63.95-8.92z"/><path class="st0" d="M666.79 564.65c-9.31 1.98-13.48-.88-21.21-5.34-8-4.61-13.98-11.71-19.74-18.77-8.49-10.37-12.91-19.44-21.99-28.62-.59-.6-1.19-1.19-1.81-1.79-20.66-19.76-53.62-18.71-80.71-28.89a88.88 88.88 0 01-21.59-11.75c-25.47-18.9-39.37-50.51-32.76-83.35 7.35-36.49 39.91-69.93 77.86-77.48 32.02-6.38 64.2 4.02 96.02-3.37 22.3-5.18 41.92-18.85 63.53-25.63 24.53-7.68 50.8-5.96 73.51 2.88 7.35 2.87 14.35 6.52 20.81 10.94 26.42 18.1 43.23 48.72 44.65 81.3 1.16 26.47-7.19 53.32-5.47 79.76 1.39 21.31 9.24 41.27 12.57 62.26 3.39 21.41 1.12 46.45-15.27 62.63-14.91 14.72-37.64 17.28-56.43 13.57-18.84-3.72-35.44-12.9-53.34-20.23-17.79-7.35-38.26-12.46-58.63-8.12z"/><path class="st0" d="M671.78 554c-8.55 1.75-12.45-.92-19.54-5.03-7.37-4.28-12.88-10.83-18.19-17.36-7.8-9.56-11.93-17.95-20.23-26.45a65.54 65.54 0 00-1.67-1.66c-18.96-18.34-49.09-17.85-73.9-27.48a83.216 83.216 0 01-19.79-11c-23.4-17.61-36.07-46.7-29.75-77.04 6.9-33.1 36.36-63.42 70.81-70.35 29.07-5.85 58.3 3.45 87.21-3.19 20.25-4.65 38.07-16.96 57.69-22.92 22.38-6.8 46.23-4.91 66.84 3.35 6.67 2.67 13.03 6.05 18.89 10.13 24 16.69 39.33 44.65 40.8 74.38 1.19 24.15-6.18 48.67-4.48 72.8 1.36 19.46 8.54 37.69 11.65 56.86 3.18 19.6 1.29 42.53-13.56 57.44-13.41 13.47-33.97 15.92-50.99 12.73-17.07-3.2-32.19-11.3-48.47-17.87-16.19-6.55-34.78-11.14-53.32-7.34z"/><path class="st0" d="M676.78 543.35c-7.8 1.52-11.43-.97-17.86-4.73-6.74-3.94-11.79-9.95-16.64-15.94-7.11-8.74-10.94-16.48-18.47-24.29-.49-.51-.99-1.02-1.52-1.53-17.26-16.91-44.56-16.98-67.1-26.08a78.1 78.1 0 01-18-10.25c-21.33-16.32-32.77-42.89-26.73-70.73 6.45-29.7 32.81-56.91 63.76-63.21 26.12-5.33 52.41 2.88 78.39-3 18.2-4.12 34.23-15.06 51.85-20.21 20.22-5.91 41.66-3.85 60.17 3.81 6 2.48 11.7 5.59 16.98 9.32 21.58 15.27 35.43 40.58 36.94 67.46 1.23 21.84-5.16 44.01-3.5 65.84 1.33 17.6 7.83 34.12 10.72 51.46 2.97 17.8 1.45 38.61-11.84 52.24-11.92 12.22-30.31 14.56-45.56 11.89-15.3-2.68-28.92-9.74-43.59-15.52-14.58-5.76-31.3-9.8-48-6.53z"/><path class="st0" d="M681.77 532.69c-7.04 1.29-10.4-1.01-16.19-4.43-6.1-3.6-10.69-9.06-15.08-14.52-6.42-7.93-9.94-15-16.72-22.13-.44-.47-.9-.93-1.37-1.4-15.56-15.48-40.03-16.11-60.3-24.68a72.251 72.251 0 01-16.2-9.5c-19.25-15.03-29.48-39.07-23.71-64.42 5.98-26.31 29.25-50.4 56.7-56.08 23.17-4.8 46.52 2.31 69.58-2.81 16.16-3.59 30.39-13.15 46.01-17.5 18.06-5.03 37.09-2.8 53.51 4.27 5.32 2.29 10.38 5.13 15.06 8.51 19.16 13.86 31.53 36.51 33.09 60.54 1.27 19.53-4.15 39.35-2.52 58.88 1.31 15.74 7.12 30.54 9.8 46.06 2.76 16 1.62 34.68-10.12 47.04-10.43 10.97-26.64 13.19-40.12 11.05-13.53-2.16-25.66-8.17-38.72-13.17-12.98-4.95-27.84-8.44-42.7-5.71z"/><path class="st0" d="M686.77 522.04c-6.28 1.06-9.37-1.05-14.52-4.13-5.47-3.27-9.59-8.18-13.53-13.1-5.72-7.12-8.94-13.53-14.96-19.97-.4-.42-.8-.85-1.22-1.27-13.86-14.06-35.5-15.24-53.49-23.28-5.15-2.3-9.99-5.25-14.4-8.75-17.18-13.74-26.19-35.26-20.7-58.12 5.5-22.91 25.7-43.88 49.65-48.94 20.22-4.28 40.63 1.74 60.76-2.63 14.11-3.06 26.56-11.25 40.17-14.79 15.91-4.14 32.51-1.75 46.84 4.73 4.64 2.1 9.06 4.67 13.15 7.71 16.75 12.45 27.63 32.43 29.23 53.62 1.3 17.22-3.13 34.69-1.54 51.92 1.28 13.88 6.41 26.96 8.87 40.66 2.55 14.19 1.79 30.75-8.41 41.85-8.93 9.72-22.98 11.83-34.68 10.21-11.77-1.63-22.39-6.61-33.84-10.82-11.36-4.16-24.37-7.1-37.38-4.9z"/><path class="st0" d="M691.76 511.39c-5.52.83-8.34-1.09-12.85-3.83-4.83-2.93-8.49-7.29-11.98-11.68-5.03-6.31-7.94-12.06-13.2-17.8-.35-.38-.7-.76-1.07-1.14-12.16-12.63-30.97-14.37-46.69-21.88-4.5-2.15-8.73-4.84-12.61-8-15.11-12.44-22.9-31.44-17.68-51.81 5.01-19.52 22.15-37.37 42.6-41.81 17.27-3.75 34.73 1.17 51.95-2.44 12.06-2.53 22.72-9.34 34.33-12.08 13.76-3.25 27.94-.69 40.17 5.19 3.96 1.91 7.74 4.21 11.23 6.9 14.33 11.03 23.73 28.36 25.38 46.7 1.34 14.91-2.12 30.03-.56 44.95 1.25 12.03 5.71 23.39 7.95 35.26 2.34 12.39 1.96 26.82-6.69 36.65-7.44 8.46-19.32 10.47-29.25 9.37-10-1.11-19.12-5.04-28.97-8.46-9.73-3.37-20.88-5.77-32.06-4.09z"/><path class="st0" d="M696.76 500.74c-4.77.6-7.32-1.14-11.17-3.52-4.2-2.6-7.39-6.41-10.42-10.26-4.34-5.5-6.94-10.59-11.44-15.64-.3-.34-.61-.67-.92-1.01-10.46-11.21-26.44-13.5-39.89-20.48a57.066 57.066 0 01-10.81-7.25c-13.07-11.12-19.64-27.62-14.66-45.5 4.49-16.12 18.59-30.86 35.55-34.67 14.32-3.23 28.84.6 43.13-2.26 10.01-2 18.89-7.43 28.49-9.37 11.62-2.36 23.37.36 33.5 5.65 3.28 1.72 6.41 3.75 9.32 6.09 11.91 9.62 19.83 24.29 21.52 39.79 1.38 12.59-1.1 25.37.42 37.99 1.23 10.17 5 19.81 7.02 29.87 2.13 10.58 2.13 22.88-4.97 31.46-5.96 7.2-15.65 9.11-23.81 8.53-8.24-.59-15.85-3.48-24.1-6.11-8.14-2.61-17.44-4.48-26.76-3.31z"/><path class="st0" d="M701.75 490.09c-4.02.36-6.29-1.18-9.5-3.22-3.57-2.27-6.29-5.52-8.87-8.84-3.65-4.69-5.94-9.12-9.68-13.48-.25-.29-.51-.59-.77-.88-8.77-9.78-21.91-12.63-33.08-19.08a53.38 53.38 0 01-9.01-6.5c-11-9.84-16.4-23.79-11.65-39.19 3.93-12.72 15.04-24.35 28.49-27.54 11.37-2.7 22.95.03 34.32-2.07 7.97-1.47 15.07-5.5 22.65-6.66 9.49-1.45 18.79 1.41 26.83 6.11 2.6 1.52 5.09 3.29 7.41 5.28 9.49 8.2 15.93 20.22 17.66 32.87 1.41 10.28-.09 20.71 1.4 31.03 1.2 8.31 4.3 16.24 6.1 24.47 1.92 8.78 2.29 18.93-3.26 26.26-4.48 5.92-11.99 7.75-18.37 7.69-6.47-.07-12.58-1.91-19.22-3.76-6.52-1.82-13.97-3.16-21.45-2.49z"/><path class="st0" d="M706.74 479.44c-3.27.11-5.26-1.22-7.83-2.92-2.93-1.93-5.2-4.64-7.32-7.43-2.96-3.87-4.94-7.65-7.92-11.32-.2-.25-.41-.5-.62-.75-7.07-8.35-17.38-11.76-26.28-17.67-2.55-1.69-4.97-3.6-7.22-5.75-8.92-8.55-13.2-19.97-8.63-32.88 3.31-9.34 11.49-17.84 21.44-20.4 8.42-2.18 17.06-.54 25.5-1.88 5.92-.94 11.26-3.56 16.81-3.96 7.37-.53 14.22 2.47 20.16 6.57 1.93 1.33 3.77 2.83 5.49 4.48 7.07 6.79 12.03 16.15 13.81 25.95 1.45 7.97.92 16.05 2.39 24.07 1.17 6.45 3.59 12.66 5.17 19.07 1.71 6.97 2.43 14.97-1.54 21.07-3.01 4.63-8.34 6.4-12.93 6.85-4.71.46-9.31-.35-14.35-1.4-4.89-1.05-10.5-1.89-16.13-1.7z"/></svg>