<?xml version="1.0" encoding="utf-8"?>
<!-- Generator: Adobe Illustrator 24.1.2, SVG Export Plug-In . SVG Version: 6.00 Build 0)  -->
<svg version="1.1" id="Layer_1" xmlns="http://www.w3.org/2000/svg" xmlns:xlink="http://www.w3.org/1999/xlink" x="0px" y="0px"
	 viewBox="0 0 770 690" style="enable-background:new 0 0 770 690;" xml:space="preserve">
<style type="text/css">
	.st0{fill:none;stroke:#FF1D26;stroke-width:0.75;stroke-miterlimit:10;}
	.st1{fill:none;}
</style>
<g>
	<path class="st0" d="M280.31,518.35c41.83,3.62,76.48,28.58,104.31,56.16c27.83,27.58,51.68,58.98,84.5,81.62
		c32.82,22.64,78.25,35.36,117.82,19.81c41.79-16.42,64.71-58.94,73.53-99.19c8.81-40.25,7.58-81.74,20.47-121.27
		c15.98-49.01,52.54-91.55,69.88-140.23c21.35-59.94,10.59-127.16-28.21-176.22c-38.8-49.06-104.74-78.83-172.87-78.05
		c-46.72,0.54-93.82,14.53-139.94,9.77c-65.82-6.78-118.84-50.44-183.79-61.22c-77-12.78-163.94,28.25-199.65,94.23
		C-9.36,169.73,9.63,254.22,69.97,297.78c43.45,31.37,106.31,44.79,131.13,90.2c12.63,23.11,13.96,41.23,22.95,65.85
		c5.64,15.42,11.46,31.17,22.52,43.73C257.63,510.13,262.35,516.8,280.31,518.35z"/>
	<path class="st0" d="M286.05,512.62c-17.42-1.53-22.01-8.01-32.73-20.19c-10.73-12.19-16.38-27.48-21.85-42.45
		c-8.2-22.46-9.83-39.37-20.18-59.95c-0.66-1.31-1.35-2.63-2.08-3.97c-24.06-44.09-84.95-57.2-127.05-87.7
		c-12.07-8.75-22.44-19.18-30.99-30.8c-32.83-44.65-38.74-106.75-11.16-157.53C74.63,46.15,158.84,6.41,233.43,18.78
		c62.91,10.43,114.28,52.69,178.04,59.28c44.67,4.61,90.28-8.9,135.52-9.39c49.86-0.51,98.48,15.86,135.47,44.41
		c11.98,9.24,22.73,19.76,31.92,31.4c37.57,47.58,47.99,112.73,27.34,170.84c-16.77,47.19-52.15,88.45-67.61,135.95
		c-12.47,38.31-11.27,78.54-19.8,117.55c-8.53,39.03-30.72,80.27-71.19,96.23c-38.32,15.08-82.31,2.81-114.1-19.08
		c-31.8-21.88-54.92-52.26-81.9-78.95C360.14,540.33,326.57,516.15,286.05,512.62z"/>
	<path class="st0" d="M291.78,506.9c-16.87-1.5-21.33-7.8-31.72-19.6c-10.4-11.83-15.88-26.65-21.17-41.17
		c-7.95-21.77-9.53-38.18-19.55-58.14c-0.64-1.27-1.3-2.55-2.01-3.85c-23.29-42.77-82.22-55.58-122.98-85.2
		c-11.69-8.49-21.73-18.62-30-29.9c-31.79-43.33-37.52-103.52-10.68-152.73c33.52-61.8,115-100.24,187.17-88.29
		c60.88,10.07,110.6,50.94,172.28,57.33c43.22,4.48,87.34-8.56,131.1-9.01c48.25-0.44,95.27,15.47,131.05,43.15
		c11.58,8.96,21.99,19.15,30.87,30.43c36.33,46.1,46.42,109.18,26.46,165.45c-16.21,45.7-50.4,85.67-65.35,131.68
		c-12.05,37.1-10.89,76.05-19.13,113.84c-8.24,37.81-29.7,77.76-68.86,93.27c-37.06,14.62-79.62,2.79-110.38-18.35
		c-30.77-21.13-53.17-50.48-79.29-76.28C363.48,533.72,330.99,510.34,291.78,506.9z"/>
	<path class="st0" d="M297.51,501.17c-16.33-1.48-20.66-7.58-30.71-19.01c-10.06-11.46-15.37-25.82-20.5-39.88
		c-7.69-21.09-9.23-37-18.91-56.33c-0.61-1.23-1.26-2.47-1.95-3.73c-22.53-41.44-79.49-53.95-118.9-82.7
		c-11.3-8.24-21.01-18.06-29.01-28.99c-30.75-42-36.29-100.29-10.21-147.94C99.75,62.88,178.5,25.74,248.26,37.27
		c58.84,9.72,106.92,49.19,166.53,55.38c41.77,4.34,84.41-8.23,126.68-8.62c46.64-0.36,92.06,15.08,126.62,41.88
		c11.19,8.68,21.24,18.54,29.82,29.46c35.1,44.62,44.85,105.62,25.59,160.07c-15.64,44.22-48.66,82.89-63.08,127.4
		c-11.63,35.89-10.51,73.57-18.47,110.12c-7.95,36.59-28.67,75.25-66.53,90.3c-35.8,14.16-76.92,2.76-106.66-17.62
		c-29.75-20.37-51.42-48.7-76.69-73.62C366.82,527.11,335.41,504.52,297.51,501.17z"/>
	<path class="st0" d="M303.24,495.44c-15.78-1.45-19.98-7.37-29.69-18.43c-9.73-11.09-14.87-24.99-19.83-38.6
		c-7.43-20.4-8.93-35.81-18.28-54.51c-0.59-1.19-1.22-2.39-1.88-3.61c-21.76-40.12-76.76-52.33-114.82-80.19
		c-10.92-7.99-20.29-17.5-28.02-28.08C61.01,231.34,55.77,175,80.98,128.87c31.47-57.57,107.34-93.47,174.69-82.36
		c56.81,9.37,103.24,47.44,160.78,53.43c40.32,4.2,81.47-7.89,122.27-8.24c45.03-0.28,88.85,14.69,122.19,40.62
		c10.79,8.39,20.49,17.94,28.77,28.48c33.86,43.13,43.28,102.07,24.72,154.68c-15.08,42.73-46.91,80.11-60.81,123.12
		c-11.21,34.69-10.13,71.09-17.8,106.41c-7.67,35.38-27.65,72.75-64.2,87.34c-34.55,13.7-74.23,2.74-102.95-16.89
		c-28.73-19.62-49.67-46.92-74.08-70.95C370.16,520.5,339.83,498.71,303.24,495.44z"/>
	<path class="st0" d="M308.98,489.72c-15.23-1.42-19.31-7.16-28.68-17.84c-9.4-10.73-14.37-24.15-19.16-37.32
		c-7.17-19.71-8.63-34.62-17.65-52.7c-0.57-1.15-1.18-2.31-1.81-3.49c-20.99-38.8-74.03-50.7-110.74-77.69
		c-10.53-7.74-19.58-16.94-27.04-27.18c-28.68-39.36-33.69-93.78-9.26-138.35c30.41-55.48,103.51-90.08,168.45-79.39
		c54.78,9.02,99.55,45.69,155.03,51.49c38.87,4.07,78.53-7.55,117.85-7.85c43.42-0.2,85.64,14.3,117.77,39.35
		c10.4,8.11,19.74,17.33,27.72,27.51c32.63,41.65,41.71,98.52,23.84,149.29c-14.51,41.24-45.16,77.33-58.54,118.84
		c-10.79,33.48-9.75,68.61-17.13,102.7c-7.38,34.16-26.63,70.24-61.87,84.38c-33.29,13.24-71.54,2.72-99.23-16.15
		c-27.71-18.86-47.92-45.14-71.48-68.28C373.5,513.89,344.25,492.89,308.98,489.72z"/>
	<path class="st0" d="M314.71,483.99c-14.69-1.37-18.63-6.94-27.67-17.25c-9.07-10.36-13.86-23.33-18.48-36.03
		c-6.92-19.02-8.33-33.43-17.02-50.89c-0.55-1.11-1.13-2.23-1.75-3.37c-20.23-37.48-71.3-49.08-106.66-75.19
		c-10.14-7.49-18.86-16.38-26.05-26.27c-27.64-38.04-32.44-90.54-8.79-133.56c29.35-53.38,99.68-86.7,162.21-76.42
		c52.74,8.66,95.87,43.93,149.27,49.54c37.42,3.93,75.6-7.28,113.43-7.47c41.82-0.2,82.44,13.91,113.34,38.09
		c10,7.83,18.99,16.72,26.67,26.54c31.39,40.17,40.14,94.97,22.97,143.91c-13.94,39.75-43.41,74.55-56.27,114.56
		c-10.38,32.27-9.37,66.13-16.47,98.98c-7.09,32.94-25.58,67.8-59.54,81.42c-32.01,12.84-68.85,2.7-95.51-15.42
		c-26.69-18.11-46.17-43.36-68.87-65.61C376.85,507.29,348.65,487.15,314.71,483.99z"/>
	<path class="st0" d="M320.44,478.26c-14.14-1.33-17.96-6.73-26.66-16.66c-8.74-10-13.36-22.49-17.81-34.75
		c-6.66-18.34-8.03-32.24-16.38-49.07c-0.53-1.07-1.09-2.15-1.68-3.25c-19.46-36.15-68.57-47.45-102.59-72.68
		c-9.76-7.23-18.14-15.82-25.06-25.36c-26.6-36.72-31.18-87.3-8.31-128.77c28.28-51.28,95.85-83.31,155.97-73.46
		c50.71,8.31,92.19,42.18,143.52,47.59c35.96,3.79,72.66-6.96,109.01-7.08c40.21-0.14,79.23,13.52,108.91,36.82
		c9.61,7.54,18.24,16.11,25.62,25.57c30.16,38.68,38.57,91.42,22.09,138.52c-13.38,38.26-41.66,71.77-54,110.28
		c-9.96,31.06-8.99,63.64-15.8,95.27c-6.81,31.72-24.55,65.3-57.21,78.45c-30.75,12.38-66.15,2.68-91.79-14.69
		c-25.66-17.36-44.42-41.58-66.27-62.95C380.19,500.68,353.07,481.34,320.44,478.26z"/>
	<path class="st0" d="M326.18,472.54c-13.6-1.3-17.28-6.52-25.64-16.07c-8.4-9.63-12.86-21.66-17.14-33.47
		c-6.4-17.65-7.72-31.06-15.75-47.26c-0.51-1.03-1.05-2.08-1.61-3.13c-18.7-34.83-65.84-45.83-98.51-70.18
		c-9.37-6.98-17.42-15.26-24.07-24.46c-25.56-35.4-29.93-84.06-7.84-123.98c27.22-49.18,92.03-79.93,149.73-70.49
		c48.67,7.96,88.51,40.43,137.77,45.65c34.51,3.65,69.73-6.63,104.59-6.7c38.6-0.07,76.02,13.13,104.48,35.56
		c9.22,7.26,17.5,15.5,24.57,24.6c28.92,37.2,37,87.87,21.22,133.14c-12.81,36.77-39.91,68.99-51.74,106
		c-9.54,29.85-8.61,61.16-15.13,91.55c-6.52,30.5-23.53,62.81-54.88,75.49c-29.49,11.93-63.46,2.66-88.07-13.96
		c-24.64-16.6-42.67-39.8-63.66-60.28C383.53,494.07,357.49,475.54,326.18,472.54z"/>
	<path class="st0" d="M331.91,466.81c-13.05-1.27-16.61-6.3-24.63-15.49c-8.07-9.26-12.35-20.83-16.46-32.19
		c-6.15-16.96-7.42-29.87-15.12-45.45c-0.49-0.99-1-2-1.55-3.01c-17.93-33.51-63.11-44.2-94.43-67.68
		c-8.98-6.73-16.71-14.7-23.08-23.55c-24.52-34.07-28.68-80.83-7.36-119.18c26.16-47.08,88.2-76.54,143.49-67.52
		c46.64,7.61,84.82,38.68,132.01,43.7c33.06,3.52,66.79-6.3,100.18-6.31c36.99-0.01,72.81,12.74,100.06,34.29
		c8.82,6.98,16.75,14.89,23.52,23.62c27.69,35.72,35.42,84.31,20.34,127.75c-12.25,35.28-38.16,66.21-49.47,101.72
		c-9.12,28.64-8.23,58.68-14.47,87.84c-6.23,29.28-22.5,60.31-52.55,72.53c-28.23,11.48-60.77,2.64-84.35-13.23
		c-23.62-15.85-40.92-38.02-61.06-57.61C386.87,487.46,361.91,469.73,331.91,466.81z"/>
	<path class="st0" d="M337.64,461.08c-12.5-1.24-15.93-6.09-23.62-14.9c-7.74-8.9-11.85-20-15.79-30.9
		c-5.89-16.27-7.12-28.68-14.49-43.64c-0.47-0.95-0.96-1.92-1.48-2.89c-17.17-32.19-60.38-42.58-90.35-65.17
		c-8.6-6.48-15.99-14.14-22.1-22.64c-23.48-32.75-27.42-77.59-6.89-114.39c25.09-44.98,84.37-73.16,137.25-64.56
		c44.61,7.26,81.14,36.93,126.26,41.75c31.61,3.38,63.86-5.98,95.76-5.93c35.38,0.06,69.6,12.35,95.63,33.03
		c8.43,6.69,16,14.28,22.47,22.65c26.45,34.23,33.85,80.76,19.47,122.37c-11.68,33.79-36.41,63.43-47.2,97.45
		c-8.7,27.43-7.85,56.2-13.8,84.13c-5.95,28.07-21.47,57.82-50.22,69.57c-26.97,11.03-58.08,2.62-80.63-12.5
		c-22.6-15.09-39.17-36.24-58.45-54.95C390.21,480.86,366.32,463.93,337.64,461.08z"/>
	<path class="st0" d="M343.37,455.36c-11.96-1.21-15.26-5.87-22.61-14.31c-7.41-8.53-11.34-19.17-15.12-29.62
		c-5.63-15.58-6.82-27.49-13.86-41.82c-0.45-0.91-0.92-1.84-1.42-2.77c-16.4-30.87-57.65-40.95-86.28-62.67
		c-8.21-6.23-15.28-13.58-21.11-21.74c-22.45-31.43-26.17-74.35-6.42-109.6c24.03-42.88,80.54-69.78,131-61.59
		c42.57,6.9,77.46,35.18,120.51,39.81c30.16,3.24,60.92-5.65,91.34-5.54c33.77,0.12,66.39,11.96,91.2,31.76
		c8.03,6.41,15.25,13.67,21.42,21.68c25.22,32.75,32.28,77.21,18.6,116.98c-11.12,32.3-34.66,60.65-44.93,93.17
		c-8.28,26.22-7.47,53.72-13.13,80.41c-5.66,26.85-20.45,55.32-47.89,66.61c-25.71,10.57-55.38,2.6-76.92-11.76
		c-21.57-14.34-37.42-34.46-55.85-52.28C393.55,474.25,370.74,458.12,343.37,455.36z"/>
	<path class="st0" d="M349.11,449.63c-11.41-1.18-14.58-5.66-21.59-13.72c-7.08-8.17-10.84-18.34-14.44-28.34
		c-5.38-14.9-6.52-26.31-13.22-40.01c-0.43-0.88-0.88-1.76-1.35-2.66c-15.63-29.54-54.92-39.33-82.2-60.17
		c-7.82-5.97-14.56-13.02-20.12-20.83c-21.41-30.11-24.91-71.11-5.94-104.8c22.96-40.78,76.71-66.39,124.76-58.62
		c40.54,6.55,73.78,33.42,114.76,37.86c28.71,3.11,57.98-5.33,86.92-5.16c32.16,0.19,63.18,11.57,86.78,30.5
		c7.64,6.13,14.5,13.06,20.37,20.71c23.98,31.27,30.71,73.66,17.72,111.6c-10.55,30.81-32.91,57.87-42.66,88.89
		c-7.87,25.01-7.09,51.24-12.46,76.7c-5.37,25.63-19.42,52.82-45.56,63.64c-24.45,10.12-52.69,2.58-73.2-11.03
		c-20.55-13.58-35.67-32.68-53.24-49.61C396.9,467.64,375.16,452.32,349.11,449.63z"/>
	<path class="st0" d="M354.84,443.9c-10.86-1.15-13.91-5.45-20.58-13.13c-6.74-7.8-10.34-17.51-13.77-27.05
		c-5.12-14.21-6.22-25.12-12.59-38.2c-0.41-0.84-0.83-1.68-1.28-2.54c-14.87-28.22-52.18-37.7-78.12-57.66
		c-7.44-5.72-13.84-12.46-19.13-19.92c-20.37-28.79-23.66-67.87-5.47-100.01c21.9-38.69,72.88-63.01,118.52-55.66
		c38.51,6.2,70.09,31.67,109,35.91c27.26,2.97,55.05-5,82.5-4.77c30.55,0.25,59.97,11.18,82.35,29.23
		c7.24,5.85,13.75,12.46,19.32,19.74c22.75,29.78,29.14,70.11,16.85,106.21c-9.98,29.33-31.16,55.09-40.39,84.61
		c-7.45,23.8-6.71,48.75-11.8,72.98c-5.09,24.41-18.39,50.33-43.23,60.68c-23.19,9.67-50,2.56-69.48-10.3
		c-19.53-12.83-33.92-30.9-50.64-46.95C400.24,461.03,379.58,446.51,354.84,443.9z"/>
	<path class="st0" d="M360.57,438.18c-10.32-1.12-13.23-5.23-19.57-12.55c-6.41-7.43-9.83-16.68-13.1-25.77
		c-4.86-13.52-5.91-23.93-11.96-36.38c-0.39-0.8-0.79-1.6-1.22-2.42c-14.1-26.9-49.45-36.07-74.04-55.16
		c-7.05-5.47-13.12-11.9-18.14-19.02c-19.33-27.47-22.41-64.63-4.99-95.22c20.83-36.59,69.05-59.62,112.28-52.69
		c36.47,5.85,66.41,29.92,103.25,33.97c25.81,2.83,52.11-4.67,78.09-4.39c28.94,0.32,56.76,10.79,77.92,27.97
		c6.85,5.56,13,11.85,18.26,18.76c21.51,28.3,27.57,66.56,15.97,100.83c-9.42,27.84-29.41,52.31-38.12,80.33
		c-7.03,22.59-6.32,46.27-11.13,69.27c-4.8,23.19-17.36,47.83-40.9,57.72c-21.93,9.22-47.31,2.54-65.76-9.57
		c-18.51-12.08-32.17-29.12-48.04-44.28C403.58,454.43,384,440.71,360.57,438.18z"/>
	<path class="st0" d="M366.31,432.45c-9.77-1.08-12.56-5.02-18.56-11.96c-6.08-7.07-9.33-15.85-12.42-24.49
		c-4.61-12.83-5.61-22.74-11.33-34.57c-0.36-0.76-0.75-1.52-1.15-2.3c-13.34-25.58-46.72-34.45-69.96-52.66
		c-6.66-5.22-12.41-11.34-17.16-18.11c-18.29-26.14-21.16-61.39-4.52-90.42c19.76-34.49,65.22-56.24,106.04-49.72
		c34.44,5.5,62.73,28.17,97.5,32.02c24.36,2.7,49.18-4.35,73.67-4c27.34,0.38,53.56,10.4,73.5,26.7
		c6.46,5.28,12.26,11.24,17.21,17.79c20.28,26.82,26,63,15.1,95.44c-8.85,26.35-27.66,49.53-35.86,76.05
		c-6.61,21.38-5.94,43.79-10.46,65.56c-4.51,21.97-16.34,45.33-38.57,54.76c-20.67,8.76-44.61,2.52-62.04-8.84
		c-17.49-11.32-30.43-27.35-45.43-41.61C406.92,447.82,388.41,434.9,366.31,432.45z"/>
	<path class="st0" d="M372.04,426.72c-9.23-1.05-11.88-4.81-17.55-11.37c-5.75-6.7-8.83-15.02-11.75-23.2
		c-4.35-12.15-5.31-21.56-10.69-32.76c-0.34-0.72-0.7-1.45-1.09-2.18c-12.57-24.26-43.99-32.82-65.89-50.15
		c-6.28-4.97-11.69-10.78-16.17-17.2c-17.25-24.82-19.9-58.15-4.04-85.63c18.69-32.39,61.4-52.85,99.8-46.76
		c32.4,5.14,59.05,26.42,91.75,30.07c22.91,2.56,46.24-4.02,69.25-3.62c25.73,0.45,50.35,10.01,69.07,25.43
		c6.06,5,11.51,10.63,16.16,16.82c19.04,25.34,24.43,59.45,14.22,90.05c-8.29,24.86-25.91,46.75-33.59,71.77
		c-6.19,20.17-5.56,41.31-9.8,61.84c-4.23,20.76-15.31,42.84-36.23,51.79c-19.41,8.31-41.92,2.5-58.32-8.11
		c-16.46-10.57-28.68-25.57-42.83-38.94C410.26,441.21,392.83,429.1,372.04,426.72z"/>
	<path class="st0" d="M377.77,421c-8.68-1.02-11.21-4.59-16.53-10.78c-5.42-6.34-8.32-14.19-11.08-21.92
		c-4.09-11.46-5.01-20.37-10.06-30.94c-0.32-0.68-0.66-1.37-1.02-2.06c-11.81-22.93-41.26-31.2-61.81-47.65
		c-5.89-4.71-10.97-10.22-15.18-16.3c-16.22-23.5-18.65-54.91-3.57-80.84c17.62-30.29,57.57-49.47,93.56-43.79
		c30.37,4.79,55.36,24.67,85.99,28.12c21.46,2.42,43.31-3.69,64.83-3.24c24.12,0.51,47.14,9.62,64.64,24.17
		c5.67,4.71,10.76,10.02,15.11,15.85c17.81,23.85,22.86,55.9,13.35,84.67c-7.72,23.37-24.16,43.97-31.32,67.49
		c-5.77,18.97-5.18,38.83-9.13,58.13c-3.94,19.54-14.28,40.34-33.9,48.83c-18.15,7.86-39.23,2.48-54.6-7.38
		c-15.44-9.81-26.93-23.79-40.22-36.28C413.6,434.6,397.25,423.29,377.77,421z"/>
	<path class="st0" d="M383.5,415.27c-8.13-0.99-10.53-4.38-15.52-10.2c-5.09-5.97-7.82-13.36-10.4-20.64
		c-3.84-10.77-4.71-19.18-9.43-29.13c-0.3-0.64-0.62-1.29-0.95-1.94c-11.04-21.61-38.53-29.57-57.73-45.15
		c-5.5-4.46-10.26-9.66-14.19-15.39c-15.18-22.18-17.4-51.67-3.1-76.04c16.55-28.2,53.74-46.09,87.32-40.82
		c28.34,4.44,51.68,22.92,80.24,26.18c20.01,2.29,40.37-3.37,60.41-2.85c22.51,0.58,43.93,9.23,60.21,22.9
		c5.27,4.43,10.01,9.41,14.06,14.88c16.57,22.37,21.29,52.35,12.48,79.28c-7.15,21.88-22.41,41.19-29.05,63.21
		c-5.36,17.76-4.8,36.34-8.46,54.41c-3.65,18.32-13.25,37.84-31.57,45.87c-16.89,7.4-36.51,2.43-50.89-6.64
		c-14.4-9.09-25.18-22.01-37.62-33.61C416.95,427.99,401.67,417.48,383.5,415.27z"/>
	<path class="st0" d="M389.24,409.54c-7.59-0.96-9.86-4.17-14.51-9.61c-4.75-5.6-7.32-12.53-9.73-19.35
		c-3.58-10.08-4.41-17.99-8.8-27.32c-0.28-0.6-0.58-1.21-0.89-1.82c-10.28-20.29-35.8-27.95-53.65-42.64
		c-5.12-4.21-9.54-9.1-13.2-14.48c-14.14-20.86-16.15-48.43-2.62-71.25c15.47-26.1,49.91-42.7,81.08-37.85
		c26.3,4.09,48,21.16,74.49,24.23c18.56,2.15,37.44-3.04,55.99-2.47c20.9,0.64,40.72,8.84,55.79,21.64
		c4.88,4.15,9.26,8.8,13.01,13.91c15.34,20.89,19.71,48.8,11.6,73.9c-6.59,20.39-20.66,38.41-26.78,58.94
		c-4.94,16.55-4.42,33.86-7.79,50.7c-3.36,17.1-12.23,35.34-29.24,42.91c-15.63,6.95-33.82,2.41-47.17-5.91
		c-13.37-8.33-23.43-20.23-35.01-30.94C420.29,421.39,406.08,411.68,389.24,409.54z"/>
	<path class="st0" d="M394.97,403.82c-7.04-0.93-9.19-3.95-13.5-9.02c-4.42-5.24-6.81-11.7-9.06-18.07
		c-3.32-9.39-4.11-16.81-8.17-25.5c-0.26-0.56-0.53-1.13-0.82-1.7c-9.51-18.97-33.07-26.32-49.57-40.14
		c-4.73-3.96-8.82-8.54-12.22-13.58c-13.1-19.53-14.9-45.19-2.15-66.46c14.4-24.01,46.08-39.32,74.84-34.89
		c24.27,3.73,44.32,19.41,68.73,22.28c17.11,2.01,34.5-2.71,51.58-2.08c19.3,0.71,37.51,8.45,51.36,20.37
		c4.48,3.86,8.51,8.19,11.96,12.93c14.1,19.4,18.14,45.25,10.73,68.51c-6.02,18.9-18.91,35.63-24.52,54.66
		c-4.52,15.34-4.04,31.38-7.13,46.99c-3.08,15.88-11.2,32.84-26.91,39.94c-14.37,6.49-31.12,2.39-43.45-5.18
		c-12.35-7.58-21.68-18.45-32.41-28.28C423.63,414.78,410.5,405.87,394.97,403.82z"/>
	<path class="st0" d="M400.7,398.09c-6.5-0.9-8.52-3.73-12.48-8.43c-4.1-4.86-6.31-10.87-8.38-16.79
		c-3.07-8.71-3.8-15.62-7.53-23.69c-0.24-0.52-0.49-1.05-0.76-1.59c-8.74-17.64-30.34-24.7-45.5-37.64
		c-4.34-3.71-8.11-7.98-11.23-12.67c-12.06-18.21-13.66-41.95-1.67-61.67c13.32-21.91,42.25-35.93,68.6-31.92
		c22.24,3.38,40.63,17.66,62.98,20.34c15.66,1.87,31.57-2.38,47.16-1.7c17.69,0.78,34.3,8.06,46.93,19.11
		c4.09,3.58,7.77,7.58,10.91,11.96c12.87,17.92,16.57,41.69,9.85,63.13c-5.46,17.41-17.16,32.85-22.25,50.38
		c-4.1,14.13-3.69,28.89-6.46,43.27c-2.82,14.66-10.17,30.35-24.58,36.98c-13.11,6.04-28.43,2.36-39.73-4.45
		c-11.33-6.83-19.93-16.67-29.8-25.61C426.97,408.17,414.92,400.06,400.7,398.09z"/>
	<path class="st0" d="M406.44,392.36c-5.95-0.87-7.85-3.52-11.47-7.84c-3.77-4.5-5.8-10.04-7.71-15.51
		c-2.81-8.02-3.52-14.42-6.9-21.88c-0.22-0.48-0.45-0.97-0.69-1.47c-7.98-16.32-27.61-23.07-41.42-35.13
		c-3.96-3.45-7.39-7.42-10.24-11.76c-11.02-16.89-12.41-38.7-1.2-56.87c12.23-19.82,38.42-32.55,62.36-28.95
		c20.2,3.03,36.95,15.91,57.23,18.39c14.21,1.74,28.64-2.05,42.74-1.31c16.09,0.84,31.09,7.66,42.51,17.84
		c3.7,3.3,7.02,6.98,9.86,10.99c11.63,16.44,15,38.14,8.98,57.74c-4.89,15.92-15.41,30.07-19.98,46.1
		c-3.68,12.92-3.31,26.41-5.79,39.56c-2.54,13.44-9.14,27.85-22.25,34.02c-11.85,5.58-25.74,2.34-36.01-3.72
		c-10.3-6.08-18.2-14.87-27.2-22.94C430.29,401.58,419.33,394.25,406.44,392.36z"/>
	<path class="st0" d="M412.17,386.64c-5.41-0.84-7.17-3.31-10.46-7.25c-3.44-4.13-5.3-9.2-7.04-14.22
		c-2.55-7.33-3.22-13.24-6.27-20.07c-0.2-0.44-0.41-0.89-0.62-1.35c-7.21-15-24.88-21.45-37.34-32.63
		c-3.57-3.2-6.67-6.86-9.25-10.86c-9.98-15.57-11.17-35.46-0.72-52.08c11.14-17.73,34.6-29.16,56.12-25.99
		c18.17,2.68,33.27,14.16,51.48,16.44c12.76,1.6,25.7-1.72,38.32-0.93c14.48,0.91,27.88,7.27,38.08,16.58
		c3.3,3.01,6.27,6.37,8.81,10.02c10.4,14.95,13.43,34.59,8.1,52.36c-4.33,14.44-13.66,27.29-17.71,41.82
		c-3.26,11.71-2.93,23.93-5.13,35.85c-2.25,12.23-8.11,25.34-19.92,31.06c-10.59,5.12-23.04,2.32-32.29-2.99
		c-9.28-5.32-16.45-13.09-24.59-20.28C433.63,394.97,423.75,388.44,412.17,386.64z"/>
	<path class="st0" d="M417.9,380.91c-4.86-0.81-6.5-3.09-9.45-6.67c-3.11-3.77-4.8-8.37-6.36-12.94
		c-2.29-6.64-2.92-12.05-5.64-18.25c-0.18-0.41-0.36-0.82-0.56-1.23c-6.45-13.68-22.15-19.82-33.26-30.13
		c-3.19-2.95-5.96-6.3-8.26-9.95c-8.95-14.25-9.93-32.22-0.25-47.29c10.04-15.64,30.77-25.78,49.88-23.02
		c16.13,2.32,29.59,12.41,45.72,14.5c11.31,1.46,22.77-1.39,33.9-0.54c12.88,0.98,24.68,6.88,33.65,15.31
		c2.91,2.73,5.52,5.76,7.76,9.05c9.16,13.47,11.86,31.04,7.23,46.97c-3.76,12.95-11.91,24.51-15.44,37.54
		c-2.85,10.5-2.55,21.45-4.46,32.13c-1.97,11.01-7.08,22.84-17.59,28.09c-9.33,4.66-20.35,2.3-28.58-2.25
		c-8.26-4.57-14.7-11.31-21.99-17.61C436.98,388.37,428.17,382.62,417.9,380.91z"/>
	<path class="st0" d="M423.63,375.18c-4.32-0.78-5.82-2.88-8.44-6.08c-2.77-3.4-4.29-7.54-5.69-11.66c-2.04-5.95-2.61-10.86-5-16.44
		c-0.16-0.37-0.32-0.74-0.49-1.11c-5.68-12.36-19.42-18.19-29.19-27.62c-2.8-2.7-5.24-5.74-7.28-9.04
		c-7.91-12.93-8.69-28.98,0.23-42.49c8.94-13.55,26.94-22.39,43.64-20.05c14.1,1.97,25.9,10.66,39.97,12.55
		c9.86,1.33,19.84-1.06,29.49-0.16c11.28,1.05,21.47,6.49,29.22,14.05c2.51,2.45,4.77,5.15,6.71,8.07
		c7.93,11.99,10.29,27.49,6.36,41.58c-3.19,11.46-10.16,21.73-13.17,33.26c-2.43,9.29-2.17,18.97-3.79,28.42
		c-1.68,9.79-6.05,20.34-15.26,25.13c-8.07,4.2-17.66,2.27-24.86-1.52c-7.24-3.82-12.95-9.53-19.38-14.94
		C440.32,381.76,432.58,376.81,423.63,375.18z"/>
	<path class="st0" d="M429.37,369.46c-3.77-0.76-5.15-2.67-7.42-5.49c-2.44-3.03-3.79-6.71-5.02-10.37
		c-1.78-5.27-2.31-9.67-4.37-14.63c-0.14-0.33-0.28-0.66-0.42-0.99c-4.92-11.03-16.69-16.57-25.11-25.12
		c-2.41-2.45-4.52-5.18-6.29-8.14c-6.87-11.6-7.46-25.73,0.7-37.7c7.82-11.47,23.11-19.01,37.39-17.09
		c12.07,1.62,22.22,8.9,34.22,10.6c8.41,1.19,16.91-0.72,25.07,0.23c9.68,1.12,18.26,6.1,24.8,12.78c2.12,2.16,4.02,4.54,5.66,7.1
		c6.69,10.5,8.72,23.93,5.48,36.2c-2.63,9.97-8.41,18.95-10.9,28.98c-2.01,8.08-1.79,16.49-3.12,24.7
		c-1.39,8.57-5.02,17.83-12.93,22.17c-6.81,3.73-14.97,2.25-21.14-0.79c-6.22-3.07-11.2-7.75-16.78-12.28
		C443.66,375.15,437,370.99,429.37,369.46z"/>
	<path class="st0" d="M435.1,363.73c-3.23-0.73-4.47-2.45-6.41-4.9c-2.11-2.67-3.29-5.88-4.34-9.09c-1.52-4.58-2.01-8.49-3.74-12.81
		c-0.12-0.29-0.23-0.58-0.36-0.87c-4.15-9.71-13.96-14.94-21.03-22.62c-2.03-2.19-3.81-4.62-5.3-7.23
		c-5.86-10.27-6.24-22.49,1.17-32.91c6.69-9.39,19.28-15.63,31.15-14.12c10.03,1.27,18.54,7.15,28.47,8.66
		c6.96,1.05,13.98-0.38,20.65,0.61c8.08,1.2,15.05,5.71,20.37,11.52c1.72,1.88,3.27,3.93,4.61,6.13c5.46,9.02,7.15,20.38,4.61,30.81
		c-2.06,8.48-6.66,16.17-8.64,24.71c-1.59,6.87-1.41,14-2.46,20.99c-1.1,7.35-3.99,15.32-10.6,19.21
		c-5.55,3.26-12.27,2.23-17.42-0.06c-5.2-2.31-9.45-5.97-14.17-9.61C447,368.55,441.42,365.16,435.1,363.73z"/>
	<path class="st0" d="M440.83,358c-2.68-0.71-3.8-2.24-5.4-4.31c-1.78-2.3-2.78-5.05-3.67-7.81c-1.27-3.89-1.71-7.3-3.11-11
		c-0.09-0.25-0.19-0.5-0.29-0.75c-3.38-8.39-11.23-13.32-16.95-20.11c-1.64-1.94-3.09-4.06-4.31-6.32
		c-4.82-8.95-5.04-19.26,1.65-28.11c5.53-7.32,15.45-12.24,24.91-11.15c8,0.92,14.86,5.4,22.71,6.71c5.5,0.92,11.05-0.03,16.23,1
		c6.49,1.28,11.84,5.32,15.94,10.25c1.33,1.6,2.53,3.32,3.56,5.16c4.22,7.54,5.58,16.83,3.73,25.43c-1.5,6.99-4.91,13.39-6.37,20.43
		c-1.17,5.66-1.03,11.52-1.79,17.28c-0.82,6.14-2.96,12.8-8.27,16.25c-4.29,2.79-9.59,2.21-13.7,0.67
		c-4.18-1.56-7.7-4.19-11.57-6.94C450.35,361.94,445.83,359.32,440.83,358z"/>
	<path class="st0" d="M446.57,352.28c-2.14-0.7-3.12-2.03-4.39-3.73c-1.44-1.94-2.28-4.22-3-6.52c-1.01-3.2-1.4-6.11-2.47-9.19
		c-0.07-0.21-0.15-0.42-0.23-0.63c-2.62-7.07-8.5-11.69-12.87-17.61c-1.25-1.69-2.38-3.5-3.32-5.42
		c-3.77-7.63-3.87-16.03,2.12-23.32c4.33-5.27,11.62-8.86,18.67-8.19c5.97,0.56,11.17,3.65,16.96,4.76
		c4.05,0.78,8.13,0.34,11.81,1.38c4.9,1.38,8.63,4.93,11.52,8.99c0.93,1.31,1.78,2.71,2.51,4.19c2.99,6.06,4.01,13.28,2.86,20.04
		c-0.93,5.5-3.17,10.61-4.1,16.15c-0.75,4.45-0.64,9.04-1.12,13.56c-0.52,4.92-1.93,10.26-5.94,13.28c-3.04,2.29-6.9,2.19-9.98,1.4
		c-3.16-0.81-5.95-2.41-8.96-4.27C453.69,355.33,450.25,353.47,446.57,352.28z"/>
</g>
<rect x="157.92" y="584.35" transform="matrix(-1 -2.289248e-11 2.289248e-11 -1 1501.8385 1504.7041)" class="st1" width="1186" height="336"/>
</svg>
