<?xml version="1.0" encoding="utf-8"?>
<!-- Generator: Adobe Illustrator 24.1.2, SVG Export Plug-In . SVG Version: 6.00 Build 0)  -->
<svg version="1.1" id="Layer_1" xmlns="http://www.w3.org/2000/svg" xmlns:xlink="http://www.w3.org/1999/xlink" x="0px" y="0px"
	 viewBox="0 0 1920 1080" style="enable-background:new 0 0 1920 1080;" xml:space="preserve">
<style type="text/css">
	.st0{opacity:1;}
	.st1{fill:none;stroke:#FF555C;stroke-width:1;stroke-miterlimit:10;}
	.st2{fill:none;}
</style>
<g>
	<g class="st0">
		<path class="st1" d="M544.6-121c46.09,56.55,115.82,81.93,182.64,94.95c66.82,13.02,135.24,16.59,199.84,41.61
			c64.59,25.01,127.28,77.84,143.62,149.88c17.26,76.07-21.42,150.57-70.62,202.57c-49.2,52-110.01,90.79-154.19,147.93
			C791.1,586.8,765.73,680.91,712.74,753.4c-65.24,89.26-172.31,139.5-280.72,131.72c-108.41-7.78-215.62-73.4-281.09-172.04
			c-44.9-67.64-70.84-148.97-122.74-210.57C-45.89,414.58-160.44,381.1-239.4,298.34c-93.62-98.12-119.66-263.11-59.8-378.9
			c59.86-115.79,199.8-171.09,321.35-127.01c87.54,31.75,168.26,108.93,257.75,100.2c45.54-4.44,72.87-20.25,117.03-31.39
			c27.66-6.98,55.99-14.01,84.83-10.39C510.61-145.54,524.8-145.29,544.6-121z"/>
		<path class="st1" d="M541.97-107.17c-19.22-23.53-33.02-23.79-60.99-27.28c-28-3.49-55.48,3.32-82.33,10.11
			c-40.29,10.17-66.17,24.35-105.84,29.62c-2.52,0.33-5.09,0.63-7.73,0.89c-86.85,8.54-165.21-66.12-250.17-96.79
			c-24.37-8.8-49.49-13.49-74.54-14.41c-96.22-3.52-191.21,48.69-237.19,137.94c-57.94,112.17-32.7,271.97,57.96,367.03
			c76.47,80.18,187.4,112.66,259.17,197.81c50.29,59.66,75.46,138.39,118.98,203.85c48,72.13,119.04,125.96,196.22,151.19
			c24.98,8.17,50.61,13.34,76.31,15.16c105.07,7.46,208.84-41.25,272.13-127.71c51.4-70.22,76.08-161.37,129.21-230.02
			c42.85-55.36,101.8-92.96,149.51-143.35c47.73-50.4,85.28-122.58,68.64-196.33c-15.78-69.78-76.42-120.98-138.94-145.26
			C849.84,1.03,783.61-2.49,718.89-15.16C654.19-27.81,586.65-52.41,541.97-107.17z"/>
		<path class="st1" d="M539.35-93.33c-18.65-22.77-32.05-23.02-59.16-26.4c-27.15-3.37-53.8,3.24-79.83,9.82
			c-39.05,9.87-64.17,23.63-102.62,28.75c-2.44,0.33-4.93,0.62-7.49,0.87c-84.2,8.34-160.21-63.78-242.59-93.38
			c-23.63-8.49-47.99-13.01-72.27-13.87c-93.31-3.32-185.38,47.3-229.84,133.94c-56.01,108.56-31.58,263.17,56.12,355.17
			c73.97,77.6,181.28,109.09,250.75,191.45c48.67,57.7,73.07,133.84,115.21,197.13c46.54,69.74,115.35,121.73,190.08,146.07
			c24.19,7.88,49,12.86,73.88,14.61c101.73,7.13,202.21-40.03,263.54-123.7c49.81-67.96,73.79-156.14,125.28-222.57
			c41.52-53.58,98.6-89.99,144.82-138.76c46.26-48.8,82.68-118.66,66.66-190.08c-15.22-67.53-73.82-117.09-134.25-140.63
			C837.21,11.52,773.16,8.04,710.55-4.26C647.96-16.56,582.62-40.38,539.35-93.33z"/>
		<path class="st1" d="M536.73-79.5c-18.08-22.01-31.08-22.26-57.33-25.52c-26.3-3.26-52.11,3.15-77.33,9.53
			c-37.81,9.57-62.17,22.9-99.4,27.89c-2.36,0.32-4.78,0.6-7.25,0.85c-81.55,8.15-155.2-61.45-235.01-89.97
			c-22.89-8.18-46.48-12.52-70-13.34c-90.4-3.12-179.54,45.91-222.5,129.94c-54.09,104.95-30.46,254.36,54.28,343.3
			c71.48,75.03,175.17,105.51,242.33,185.09c47.06,55.75,70.69,129.29,111.44,190.41c45.07,67.35,111.65,117.51,183.93,140.95
			c23.4,7.59,47.4,12.38,71.46,14.05c98.39,6.81,195.57-38.82,254.95-119.7c48.23-65.69,71.51-150.91,121.35-215.13
			c40.19-51.79,95.41-87.01,140.14-134.17c44.79-47.19,80.07-114.75,64.69-183.84c-14.66-65.27-71.22-113.2-129.56-136
			C824.57,22.01,762.7,18.57,702.21,6.63C641.74-5.3,578.58-28.34,536.73-79.5z"/>
		<path class="st1" d="M534.1-65.67c-17.51-21.25-30.12-21.5-55.49-24.64c-25.45-3.14-50.43,3.06-74.83,9.25
			c-36.57,9.26-60.17,22.17-96.18,27.02c-2.29,0.31-4.63,0.59-7.02,0.83c-78.9,7.96-150.2-59.12-227.43-86.55
			c-22.15-7.87-44.98-12.04-67.73-12.81c-87.48-2.92-173.53,44.63-215.15,125.93c-51.95,101.48-29.34,245.55,52.44,331.44
			c68.99,72.45,169.05,101.93,233.91,178.73c45.44,53.81,68.3,124.74,107.68,183.68c43.61,64.96,107.95,113.28,177.79,135.83
			c22.61,7.3,45.79,11.9,69.04,13.49c95.06,6.48,188.93-37.6,246.36-115.69c46.64-63.42,69.23-145.68,117.42-207.69
			c38.87-50.01,92.22-84.04,135.46-129.58c43.32-45.59,77.47-110.83,62.71-177.6C978.99,122.95,924.47,76.65,868.2,54.59
			C811.94,32.5,752.25,29.1,693.87,17.52C635.51,5.96,574.55-16.31,534.1-65.67z"/>
		<path class="st1" d="M531.48-51.84c-16.93-20.49-29.15-20.74-53.66-23.76c-24.6-3.02-48.74,2.97-72.33,8.96
			c-35.33,8.96-58.16,21.44-92.95,26.16c-2.21,0.3-4.47,0.57-6.78,0.81c-76.26,7.77-145.19-56.78-219.84-83.14
			c-21.41-7.56-43.47-11.56-65.47-12.27c-84.57-2.72-167.65,43.27-207.8,121.93c-49.97,97.91-28.22,236.74,50.61,319.58
			c66.49,69.87,162.93,98.35,225.49,172.37c43.83,51.86,65.92,120.19,103.91,176.96c42.15,62.57,104.26,109.05,171.64,130.7
			c21.82,7.01,44.19,11.42,66.62,12.93c91.72,6.16,182.29-36.39,237.76-111.68c45.06-61.15,66.94-140.45,113.49-200.25
			c37.54-48.23,89.02-81.07,130.77-124.99c41.85-43.99,74.87-106.91,60.73-171.35c-13.53-60.76-66.01-105.43-120.19-126.75
			C799.3,42.99,741.8,39.63,685.53,28.42C629.28,17.22,570.51-4.27,531.48-51.84z"/>
		<path class="st1" d="M528.86-38c-16.32-19.76-28.18-19.98-51.82-22.88c-23.75-2.9-47.06,2.88-69.83,8.67
			c-34.09,8.66-56.16,20.72-89.73,25.3c-2.13,0.29-4.32,0.55-6.55,0.78c-73.61,7.57-140.19-54.45-212.26-79.73
			C78-113.12,56.7-116.94,35.47-117.6C-46.19-120.12-126.3-75.7-164.98,0.32c-47.99,94.33-27.11,227.94,48.77,307.71
			c64,67.29,156.82,94.78,217.07,166.01c42.21,49.91,63.43,115.72,100.15,170.24c40.58,60.27,100.56,104.82,165.5,125.58
			c21.02,6.72,42.58,10.94,64.19,12.37c88.38,5.83,175.65-35.17,229.17-107.67c43.47-58.88,64.66-135.22,109.56-192.81
			c36.21-46.44,85.83-78.09,126.09-120.4c40.38-42.39,72.39-103.01,58.76-165.11C941.42,137.7,890.86,94.69,838.77,74.11
			c-52.1-20.63-107.42-23.94-161.57-34.8C623.06,28.48,566.57,7.67,528.86-38z"/>
		<path class="st1" d="M526.24-24.17c-15.74-19.01-27.22-19.22-49.99-22c-22.9-2.78-45.37,2.8-67.33,8.39
			c-32.85,8.35-54.16,19.99-86.51,24.43c-2.06,0.28-4.16,0.54-6.31,0.76c-70.96,7.38-135.19-52.12-204.68-76.32
			c-19.93-6.94-40.46-10.59-60.93-11.21c-78.74-2.32-155.89,40.54-193.1,113.92c-46.01,90.75-25.99,219.13,46.93,295.85
			c61.51,64.72,150.7,91.2,208.65,159.64c40.6,47.96,61.03,111.18,96.38,163.52c39.1,57.89,96.86,100.59,159.35,120.46
			c20.23,6.43,40.97,10.46,61.77,11.81c85.04,5.51,169.02-33.96,220.58-103.66c41.88-56.61,62.38-129.99,105.63-185.37
			c34.88-44.66,82.64-75.12,121.41-115.82c38.91-40.78,69.81-99.1,56.78-158.87c-12.27-56.28-60.81-97.65-110.82-117.5
			C774.03,63.97,720.9,60.7,668.85,50.2C616.83,39.74,562.55,19.69,526.24-24.17z"/>
		<path class="st1" d="M523.61-10.34c-15.16-18.26-26.25-18.46-48.16-21.12c-22.05-2.66-43.69,2.71-64.83,8.1
			c-31.61,8.05-52.16,19.26-83.29,23.57c-1.98,0.28-4,0.52-6.08,0.74c-68.31,7.19-130.18-49.78-197.1-72.91
			c-19.19-6.63-38.96-10.11-58.66-10.67C-10.32-84.76-84.51-43.46-120.24,27.28c-44.04,87.17-24.87,210.32,45.09,283.98
			c59.01,62.14,144.59,87.62,200.23,153.28c38.99,46.01,58.63,106.64,92.61,156.79c37.62,55.52,93.16,96.37,153.21,115.34
			c19.44,6.14,39.37,9.98,59.35,11.25c81.71,5.18,162.38-32.74,211.99-99.66c40.3-54.35,60.09-124.76,101.7-177.93
			c33.55-42.88,79.44-72.15,116.73-111.23c37.44-39.18,67.23-95.19,54.8-152.62c-11.69-54.03-58.2-93.76-106.14-112.87
			c-47.93-19.17-98.88-22.39-148.82-32.53C610.61,51,558.53,31.71,523.61-10.34z"/>
		<path class="st1" d="M520.99,3.5c-14.58-17.5-25.29-17.7-46.32-20.25c-21.2-2.54-42,2.62-62.32,7.81
			c-30.37,7.75-50.16,18.53-80.06,22.7c-1.9,0.27-3.85,0.51-5.84,0.72c-65.67,7-125.18-47.45-189.52-69.5
			c-18.45-6.33-37.45-9.63-56.39-10.14C7.61-67.07-63.61-27.34-97.88,40.76c-42.06,83.59-23.75,201.51,43.25,272.12
			C1.9,372.44,83.85,396.92,137.19,459.8c37.37,44.06,56.23,102.11,88.85,150.07c36.14,53.14,89.47,92.14,147.06,110.21
			c18.65,5.85,37.76,9.5,56.92,10.69c78.37,4.86,155.74-31.53,203.4-95.65c38.71-52.08,57.81-119.53,97.77-170.49
			c32.22-41.09,76.25-69.18,112.04-106.64c35.97-37.58,64.64-91.27,52.82-146.38c-11.1-51.77-55.6-89.88-101.45-108.24
			C748.76,84.94,700,81.76,652.17,71.99C604.38,62.26,554.51,43.73,520.99,3.5z"/>
		<path class="st1" d="M518.37,17.33c-14-16.75-24.32-16.94-44.49-19.37c-20.35-2.42-40.31,2.53-59.82,7.52
			c-29.13,7.44-48.16,17.81-76.84,21.84c-1.83,0.26-3.69,0.49-5.61,0.7c-63.02,6.8-120.18-45.11-181.93-66.09
			c-17.71-6.02-35.95-9.15-54.13-9.61c-70-1.72-138.26,36.45-171.05,101.91c-40.09,80.01-22.63,192.7,41.41,260.25
			c54.02,56.98,132.36,80.46,183.39,140.56c35.76,42.11,53.83,97.57,85.08,143.35c34.66,50.77,85.77,87.91,140.92,105.09
			c17.85,5.56,36.15,9.02,54.5,10.13c75.03,4.54,149.1-30.31,194.81-91.64c37.12-49.81,55.53-114.3,93.85-163.05
			c30.9-39.31,73.06-66.2,107.36-102.05c34.5-35.98,62.06-87.36,50.85-140.14c-10.52-49.52-53-85.99-96.77-103.62
			c-43.77-17.71-90.35-20.85-136.07-30.26C598.16,73.52,550.49,55.75,518.37,17.33z"/>
		<path class="st1" d="M515.74,31.16c-13.42-15.99-23.35-16.18-42.65-18.49c-19.5-2.3-38.63,2.44-57.32,7.24
			c-27.89,7.14-46.16,17.08-73.62,20.98c-1.75,0.25-3.54,0.48-5.37,0.68c-60.37,6.61-115.17-42.78-174.35-62.68
			c-16.97-5.71-34.44-8.67-51.86-9.08C43.48-31.71-21.81,4.9-53.14,67.72c-38.11,76.43-21.51,183.9,39.58,248.39
			c51.53,54.41,126.24,76.89,174.97,134.2c34.14,40.16,51.43,93.04,81.32,136.63c33.18,48.39,82.07,83.68,134.77,99.97
			c17.06,5.27,34.55,8.54,52.08,9.57c71.69,4.21,142.47-29.1,186.22-87.63c35.54-47.54,53.25-109.07,89.92-155.61
			c29.57-37.53,69.87-63.23,102.68-97.46c33.03-34.37,59.48-83.44,48.87-133.89c-9.94-47.27-50.4-82.1-92.08-98.99
			c-41.68-16.98-86.08-20.07-129.69-29.13C591.93,84.78,546.47,67.77,515.74,31.16z"/>
		<path class="st1" d="M513.12,44.99c-12.85-15.24-22.39-15.42-40.82-17.61c-18.65-2.18-36.94,2.35-54.82,6.95
			c-26.65,6.84-44.16,16.35-70.4,20.11c-1.67,0.24-3.39,0.46-5.14,0.66c-57.72,6.42-110.17-40.45-166.77-59.27
			c-16.23-5.4-32.94-8.18-49.59-8.54C61.41-14.02-0.91,21.01-30.77,81.2c-36.14,72.85-20.39,175.09,37.74,236.52
			c49.04,51.83,120.13,73.31,166.55,127.84c32.53,38.21,49.03,88.5,77.55,129.9c31.7,46.02,78.37,79.45,128.63,94.85
			c16.27,4.98,32.94,8.06,49.65,9.01c68.36,3.89,135.83-27.88,177.63-83.62c33.95-45.27,50.96-103.84,85.99-148.17
			c28.24-35.75,66.67-60.26,97.99-92.87c31.56-32.77,56.9-79.53,46.89-127.65c-9.36-45.02-47.79-78.21-87.39-94.36
			c-39.6-16.25-81.82-19.3-123.31-27.99C585.7,96.04,542.45,79.79,513.12,44.99z"/>
		<path class="st1" d="M510.5,58.83c-12.27-14.49-21.42-14.66-38.99-16.73c-17.8-2.06-35.26,2.27-52.32,6.66
			c-25.42,6.53-42.16,15.62-67.18,19.25c-1.6,0.23-3.23,0.45-4.9,0.63c-55.07,6.23-105.16-38.11-159.19-55.86
			c-15.49-5.09-31.43-7.7-47.32-8.01C79.35,3.66,19.99,37.13-8.4,94.68c-34.17,69.27-19.27,166.28,35.9,224.66
			c46.54,49.25,114.01,69.73,158.13,121.48c30.91,36.26,46.63,83.96,73.79,123.18c30.22,43.64,74.68,75.23,122.48,89.72
			c15.48,4.69,31.34,7.58,47.23,8.45c65.02,3.56,129.19-26.67,169.04-79.61c32.37-43.01,48.68-98.61,82.06-140.73
			c26.91-33.96,63.48-57.29,93.31-88.28c30.1-31.17,54.32-75.61,44.91-121.41c-8.78-42.76-45.19-74.33-82.71-89.74
			c-37.52-15.52-77.55-18.52-116.93-26.86C579.48,107.3,538.43,91.81,510.5,58.83z"/>
		<path class="st1" d="M507.88,72.66c-11.69-13.73-20.46-13.89-37.15-15.85c-16.95-1.95-33.57,2.18-49.82,6.38
			c-24.18,6.23-40.16,14.9-63.95,18.38c-1.52,0.23-3.08,0.43-4.66,0.61c-52.43,6.03-100.16-35.78-151.61-52.45
			c-14.75-4.78-29.93-7.22-45.05-7.47c-58.35-0.92-114.74,30.98-141.66,85.9c-32.2,65.69-18.15,157.47,34.06,212.79
			c44.05,46.68,107.9,66.15,149.71,115.12c29.3,34.31,44.22,79.43,70.02,116.46c28.75,41.27,70.98,71,116.34,84.6
			c14.68,4.4,29.73,7.1,44.81,7.9c61.68,3.24,122.55-25.45,160.45-75.61c30.78-40.74,46.4-93.38,78.13-133.28
			c25.58-32.18,60.29-54.31,88.63-83.7c28.63-29.56,51.73-71.69,42.94-115.16c-8.2-40.51-42.59-70.44-78.02-85.11
			c-35.44-14.78-73.29-17.75-110.56-25.72C573.25,118.55,534.41,103.83,507.88,72.66z"/>
		<path class="st1" d="M505.25,86.49c-11.11-12.98-19.49-13.13-35.32-14.97c-16.1-1.83-31.89,2.09-47.32,6.09
			c-22.94,5.93-38.16,14.17-60.73,17.52c-1.45,0.22-2.92,0.42-4.43,0.59c-49.78,5.84-95.16-33.45-144.03-49.03
			c-14.01-4.47-28.42-6.74-42.79-6.94c-55.43-0.72-108.86,29.62-134.31,81.89c-30.23,62.1-17.03,148.66,32.22,200.93
			c41.56,44.1,101.78,62.57,141.29,108.76c27.68,32.36,41.82,74.89,66.25,109.74c27.27,38.89,67.28,66.77,110.19,79.48
			c13.89,4.11,28.12,6.62,42.39,7.34c58.34,2.91,115.92-24.24,151.86-71.6c29.19-38.47,44.11-88.15,74.2-125.84
			c24.26-30.4,57.09-51.34,83.94-79.11c27.16-27.96,49.15-67.78,40.96-108.92c-7.62-38.26-39.99-66.55-73.34-80.48
			c-33.35-14.05-69.02-16.98-104.18-24.59C567.03,129.81,530.39,115.85,505.25,86.49z"/>
		<path class="st1" d="M502.63,100.32c-10.53-12.22-18.52-12.37-33.48-14.09c-15.25-1.71-30.2,2-44.82,5.8
			c-21.7,5.62-36.16,13.44-57.51,16.66c-1.37,0.21-2.77,0.4-4.19,0.57c-47.13,5.65-90.15-31.11-136.44-45.62
			c-13.27-4.16-26.92-6.25-40.52-6.41c-52.52-0.52-102.99,28.25-126.96,77.89c-28.26,58.51-15.91,139.86,30.39,189.07
			c39.06,41.52,95.67,59,132.87,102.4c26.07,30.41,39.43,70.36,62.49,103.01c25.79,36.52,63.59,62.54,104.05,74.35
			c13.1,3.82,26.52,6.14,39.96,6.78c55.01,2.59,109.28-23.02,143.27-67.59c27.61-36.2,41.83-82.91,70.27-118.4
			c22.93-28.62,53.9-48.37,79.26-74.52c25.69-26.36,46.57-63.86,38.98-102.68c-7.04-36-37.38-62.66-68.65-75.86
			c-31.27-13.32-64.75-16.2-97.8-23.45C560.8,141.07,526.36,127.87,502.63,100.32z"/>
		<path class="st1" d="M500.01,114.16c-9.95-11.47-17.56-11.61-31.65-13.21c-14.4-1.59-28.52,1.91-42.32,5.52
			c-20.46,5.32-34.16,12.71-54.28,15.79c-1.29,0.2-2.61,0.38-3.96,0.55c-44.48,5.46-85.15-28.78-128.86-42.21
			c-12.53-3.85-25.41-5.77-38.25-5.88c-49.61-0.32-97.11,26.88-119.61,73.89c-26.29,54.93-14.79,131.05,28.55,177.2
			c36.57,38.94,89.55,55.42,124.45,96.04c24.46,28.46,37.03,65.82,58.72,96.29c24.31,34.15,59.89,58.31,97.9,69.23
			c12.31,3.53,24.91,5.66,37.54,6.22c51.67,2.26,102.64-21.81,134.68-63.58c26.02-33.93,39.55-77.68,66.34-110.96
			c21.6-26.83,50.71-45.4,74.58-69.93c24.22-24.75,43.98-59.94,37.01-96.43c-6.46-33.75-34.78-58.77-63.97-71.23
			c-29.19-12.59-60.49-15.43-91.43-22.32C554.58,152.33,522.34,139.89,500.01,114.16z"/>
		<path class="st1" d="M497.38,127.99c-9.38-10.71-16.59-10.85-29.82-12.33c-13.55-1.47-26.83,1.83-39.81,5.23
			c-19.22,5.02-32.16,11.99-51.06,14.93c-1.22,0.19-2.46,0.37-3.72,0.53c-41.84,5.26-80.15-26.45-121.28-38.8
			c-11.79-3.55-23.91-5.29-35.98-5.34c-46.69-0.12-91.23,25.51-112.26,69.88c-24.33,51.34-13.67,122.24,26.71,165.34
			c34.07,36.37,83.43,51.84,116.03,89.68c22.84,26.51,34.63,61.28,54.96,89.57c22.84,31.77,56.19,54.09,91.76,64.11
			c11.52,3.24,23.3,5.18,35.12,5.66c48.33,1.94,96-20.59,126.08-59.57c24.44-31.66,37.26-72.45,62.41-103.52
			c20.27-25.05,47.51-42.42,69.9-65.34c22.75-23.15,41.4-56.03,35.03-90.19c-5.88-31.5-32.2-54.82-59.28-66.6
			c-27.13-11.8-56.22-14.65-85.05-21.18C548.35,163.59,518.32,151.91,497.38,127.99z"/>
		<path class="st1" d="M494.76,141.82c-8.8-9.96-15.62-10.09-27.98-11.45c-12.7-1.35-25.15,1.74-37.31,4.94
			c-17.98,4.71-30.15,11.26-47.84,14.06c-1.14,0.18-2.3,0.35-3.49,0.51c-39.19,5.07-75.14-24.11-113.7-35.39
			c-11.05-3.24-22.4-4.81-33.71-4.81c-43.78,0.08-85.35,24.13-104.91,65.88c-22.37,47.74-12.56,113.43,24.87,153.47
			c31.58,33.79,77.32,48.26,107.61,83.32c21.23,24.56,32.23,56.75,51.19,82.85c21.36,29.4,52.49,49.86,85.61,58.99
			c10.72,2.95,21.7,4.7,32.69,5.1c44.99,1.62,89.37-19.38,117.49-55.57c22.85-29.4,34.98-67.22,58.48-96.08
			c18.94-23.27,44.32-39.45,65.21-60.75c21.28-21.55,38.82-52.11,33.05-83.95c-5.3-29.24-29.6-50.93-54.6-61.98
			c-25.04-11.06-51.96-13.88-78.67-20.05C542.13,174.85,514.29,163.94,494.76,141.82z"/>
		<path class="st1" d="M492.14,155.66c-8.22-9.21-14.66-9.33-26.15-10.57c-11.85-1.23-23.46,1.65-34.81,4.66
			c-16.74,4.41-28.15,10.53-44.62,13.2c-1.06,0.18-2.15,0.34-3.25,0.49c-36.54,4.88-70.14-21.78-106.12-31.98
			c-10.31-2.93-20.9-4.32-31.44-4.28c-40.87,0.28-79.48,22.76-97.57,61.88c-20.41,44.15-11.44,104.63,23.03,141.61
			c29.09,31.21,71.2,44.68,99.2,76.96c19.61,22.61,29.83,52.21,47.42,76.12c19.88,27.03,48.8,45.63,79.47,53.86
			c9.93,2.67,20.09,4.22,30.27,4.54c41.66,1.29,82.73-18.16,108.9-51.56c21.27-27.13,32.7-61.99,54.55-88.64
			c17.62-21.48,41.13-36.48,60.53-56.17c19.81-19.95,36.23-48.19,31.07-77.7c-4.72-26.99-27-47.04-49.91-57.35
			c-22.96-10.33-47.69-13.11-72.3-18.91C535.9,186.11,510.27,175.96,492.14,155.66z"/>
		<path class="st1" d="M489.52,169.49c-7.64-8.45-13.69-8.59-24.31-9.69c-11-1.14-21.77,1.56-32.31,4.37
			c-15.5,4.11-26.15,9.8-41.4,12.34c-0.99,0.17-1.99,0.32-3.02,0.46c-33.89,4.69-65.13-19.44-98.54-28.57
			c-9.57-2.62-19.39-3.84-29.18-3.74c-37.95,0.48-73.6,21.38-90.22,57.87c-18.46,40.55-10.32,95.82,21.2,129.74
			c26.59,28.64,65.09,41.11,90.78,70.6c18,20.66,27.44,47.68,43.66,69.4c18.41,24.65,45.1,41.4,73.32,48.74
			c9.14,2.38,18.49,3.74,27.85,3.98c38.32,0.97,76.09-16.95,100.31-47.55c19.68-24.86,30.41-56.76,50.62-81.2
			c16.29-19.7,37.9-33.55,55.85-51.58c18.3-18.39,33.65-44.27,29.1-71.46c-4.14-24.73-24.39-43.15-45.23-52.72
			c-20.88-9.6-43.42-12.33-65.92-17.78C529.68,197.37,506.24,187.98,489.52,169.49z"/>
		<path class="st1" d="M486.89,183.32c-7.07-7.7-12.72-7.83-22.48-8.81c-10.15-1.02-20.09,1.47-29.81,4.08
			c-14.26,3.8-24.16,9.04-38.17,11.47c-0.91,0.16-1.84,0.31-2.78,0.44c-31.25,4.49-60.13-17.11-90.95-25.16
			c-8.83-2.31-17.89-3.36-26.91-3.21c-35.04,0.68-67.73,20.01-82.87,53.87c-16.51,36.94-9.2,87.01,19.36,117.88
			c24.1,26.06,58.97,37.53,82.36,64.23c16.38,18.71,25.04,43.14,39.89,62.68c16.94,22.28,41.4,37.17,67.18,43.62
			c8.35,2.09,16.88,3.26,25.43,3.42c34.98,0.64,69.45-15.73,91.72-43.54c18.09-22.59,28.13-51.53,46.69-73.76
			c14.96-17.92,34.71-30.57,51.16-46.99c16.83-16.78,31.06-40.35,27.12-65.21c-3.57-22.47-21.79-39.26-40.54-48.1
			c-18.8-8.86-39.15-11.61-59.54-16.64C523.46,208.58,502.21,200,486.89,183.32z"/>
		<path class="st1" d="M484.27,197.15c-6.49-6.94-11.76-7.07-20.64-7.93c-9.3-0.9-18.4,1.38-27.31,3.79
			c-13.02,3.5-22.16,8.31-34.95,10.61c-0.83,0.15-1.68,0.29-2.54,0.42c-28.6,4.3-55.13-14.78-83.37-21.75
			c-8.09-2-16.38-2.88-24.64-2.68c-32.13,0.87-61.86,18.62-75.52,49.87c-14.57,33.33-8.08,78.2,17.52,106.01
			c21.61,23.48,52.86,33.95,73.94,57.87c14.77,16.76,22.65,38.6,36.13,55.96c15.46,19.91,37.7,32.95,61.03,38.5
			c7.56,1.8,15.27,2.78,23,2.86c31.64,0.32,62.82-14.52,83.13-39.53c16.51-20.32,25.85-46.3,42.76-66.32
			c13.63-16.13,31.51-27.6,46.48-42.4c15.36-15.18,28.48-36.43,25.14-58.97c-2.99-20.21-19.19-35.37-35.85-43.47
			c-16.72-8.13-34.88-10.83-53.16-15.51C517.23,219.84,498.18,212.03,484.27,197.15z"/>
		<path class="st1" d="M481.65,210.99c-5.92-6.19-10.79-6.31-18.81-7.05c-8.45-0.78-16.72,1.3-24.81,3.51
			c-11.78,3.2-20.16,7.59-31.73,9.74c-0.76,0.14-1.52,0.28-2.31,0.4c-25.95,4.11-50.12-12.44-75.79-18.34
			c-7.35-1.69-14.88-2.39-22.37-2.15c-29.21,1.07-55.99,17.23-68.17,45.86c-12.64,29.71-6.96,69.39,15.68,94.15
			c19.11,20.91,46.74,30.37,65.52,51.51c13.15,14.81,20.26,34.07,32.36,49.23c14,17.54,34.01,28.72,54.89,33.37
			c6.76,1.51,13.67,2.3,20.58,2.3c28.31-0.01,56.18-13.3,74.54-35.53c14.92-18.06,23.56-41.07,38.83-58.88
			c12.3-14.35,28.32-24.63,41.8-37.81c13.89-13.58,25.89-32.5,23.17-52.73c-2.42-17.95-16.59-31.48-31.17-38.84
			c-14.64-7.4-30.62-10.06-46.79-14.37C511.01,231.1,494.14,224.06,481.65,210.99z"/>
		<path class="st1" d="M479.02,224.82c-5.35-5.43-9.83-5.55-16.98-6.18c-7.6-0.66-15.03,1.21-22.31,3.22
			c-10.55,2.89-18.16,6.86-28.51,8.88c-0.68,0.13-1.37,0.26-2.07,0.38c-23.3,3.92-45.12-10.11-68.21-14.92
			c-6.61-1.38-13.37-1.91-20.1-1.61c-26.3,1.27-50.12,15.84-60.82,41.86c-10.73,26.08-5.84,60.58,13.84,82.28
			c16.62,18.33,40.63,26.8,57.1,45.15c11.54,12.86,17.87,29.53,28.59,42.51c12.53,15.17,30.31,24.49,48.74,28.25
			c5.97,1.22,12.06,1.82,18.16,1.75c24.97-0.33,49.54-12.09,65.95-31.52c13.34-15.79,21.28-35.84,34.91-51.44
			c10.97-12.57,25.13-21.66,37.11-33.22c12.42-11.98,23.3-28.57,21.19-46.49c-1.85-15.69-13.99-27.59-26.48-34.22
			c-12.56-6.66-26.35-9.29-40.41-13.24C504.78,242.36,490.11,236.09,479.02,224.82z"/>
		<path class="st1" d="M476.4,238.65c-4.77-4.68-8.86-4.79-15.14-5.3c-6.75-0.54-13.35,1.12-19.81,2.93
			c-9.31,2.59-16.16,6.13-25.28,8.02c-0.6,0.12-1.21,0.25-1.84,0.36c-20.65,3.72-40.11-7.78-60.63-11.51
			c-5.87-1.07-11.87-1.43-17.84-1.08c-23.38,1.47-44.26,14.44-53.47,37.86c-8.83,22.44-4.72,51.78,12,70.42
			c14.12,15.75,34.51,23.22,48.68,38.79c9.92,10.91,15.49,24.99,24.83,35.79c11.07,12.8,26.61,20.26,42.6,23.13
			c5.18,0.93,10.45,1.34,15.73,1.19c21.63-0.65,42.9-10.87,57.36-27.51c11.75-13.52,19-30.61,30.98-44
			c9.65-10.79,21.93-18.69,32.43-28.63c10.95-10.38,20.71-24.64,19.21-40.24c-1.29-13.43-11.39-23.7-21.8-29.59
			c-10.48-5.93-22.08-8.51-34.03-12.1C498.56,253.61,486.06,248.12,476.4,238.65z"/>
		<path class="st1" d="M473.78,252.48c-4.21-3.92-7.89-4.03-13.31-4.42c-5.9-0.42-11.66,1.03-17.3,2.65
			c-8.07,2.29-14.16,5.41-22.06,7.15c-0.53,0.12-1.06,0.23-1.6,0.34c-18.01,3.53-35.11-5.44-53.04-8.1
			c-5.13-0.77-10.36-0.96-15.57-0.55c-20.48,1.63-38.41,13.02-46.12,33.85c-6.95,18.78-3.6,42.97,10.17,58.55
			c11.63,13.17,28.4,19.64,40.26,32.43c8.31,8.96,13.12,20.45,21.06,29.07c9.62,10.43,22.92,16.03,36.46,18
			c4.39,0.64,8.85,0.86,13.31,0.63c18.29-0.98,36.27-9.66,48.77-23.5c10.16-11.25,16.71-25.38,27.05-36.55
			c8.32-9,18.74-15.71,27.75-24.05c9.48-8.77,18.11-20.71,17.23-34c-0.73-11.16-8.79-19.81-17.11-24.96
			c-8.4-5.2-17.81-7.74-27.66-10.97C492.33,264.87,482.01,260.16,473.78,252.48z"/>
		<path class="st1" d="M471.16,266.32c-3.64-3.16-6.93-3.27-11.47-3.54c-5.05-0.3-9.98,0.94-14.8,2.36
			c-6.83,1.98-12.16,4.68-18.84,6.29c-0.45,0.11-0.91,0.21-1.37,0.31c-15.36,3.34-30.11-3.11-45.46-4.69
			c-4.39-0.46-8.86-0.48-13.3-0.01c-17.56,1.83-32.59,11.58-38.77,29.85c-5.11,15.09-2.48,34.16,8.33,46.69
			c9.14,10.6,22.28,16.06,31.84,26.07c6.7,7.01,10.76,15.9,17.3,22.34c8.18,8.06,19.22,11.81,30.31,12.88
			c3.59,0.35,7.24,0.38,10.89,0.07c14.96-1.3,29.63-8.44,40.18-19.49c8.58-8.98,14.43-20.15,23.12-29.11
			c6.99-7.22,15.55-12.74,23.07-19.46c8.02-7.17,15.49-16.76,15.25-27.75c-0.19-8.88-6.19-15.93-12.43-20.34
			c-6.32-4.47-13.55-6.97-21.28-9.83C486.11,276.13,477.95,272.21,471.16,266.32z"/>
		<path class="st1" d="M468.53,280.15c-3.09-2.4-5.96-2.5-9.64-2.66c-4.2-0.18-8.29,0.85-12.3,2.07
			c-5.59,1.68-10.15,3.96-15.62,5.42c-0.37,0.1-0.75,0.2-1.13,0.29c-12.71,3.15-25.1-0.78-37.88-1.28
			c-3.65-0.15-7.35,0.01-11.03,0.52c-14.65,2.04-26.81,10.11-31.43,25.84c-3.34,11.37-1.36,25.35,6.49,34.82
			c6.64,8.02,16.17,12.48,23.42,19.71c5.08,5.06,8.43,11.34,13.53,15.62c6.78,5.68,15.52,7.58,24.17,7.76
			c2.8,0.06,5.64-0.1,8.46-0.49c11.62-1.63,22.99-7.23,31.59-15.48c6.99-6.71,12.15-14.92,19.19-21.67
			c5.66-5.44,12.36-9.76,18.38-14.87c6.55-5.56,12.85-12.81,13.28-21.51c0.32-6.6-3.6-12.05-7.74-15.71
			c-4.25-3.75-9.28-6.19-14.9-8.7C479.88,287.4,473.86,284.28,468.53,280.15z"/>
	</g>
	<rect x="195.35" y="268.23" class="st2" width="904" height="700"/>
	<g>
		<path class="st1" d="M1649.01,314.48c61.42,39.36,135.59,41.73,203.14,33.27c67.55-8.46,133.67-26.4,202.85-22.78
			c69.17,3.63,145.2,34.28,183.19,97.63c40.12,66.9,26.6,149.74-3.94,214.49c-30.53,64.75-76.22,120.57-100.38,188.64
			c-29.95,84.4-24.72,181.73-52.46,267.13c-34.16,105.15-120.22,186.27-225.65,212.68c-105.43,26.41-227.76-2.51-320.72-75.82
			c-63.75-50.27-113.76-119.46-182.28-161.81c-97.8-60.45-217.08-56.55-317.91-110.56C915.31,893.33,839.12,744.68,859.89,616
			c20.77-128.68,136.49-224.86,265.73-220.88c93.07,2.87,193.83,51.03,276.14,14.83c41.88-18.42,62.92-41.96,101.4-66.32
			c24.11-15.26,48.83-30.76,77.36-36.33C1609.07,301.75,1622.63,297.57,1649.01,314.48z"/>
		<path class="st1" d="M1650.83,328.44c-25.6-16.36-38.79-12.3-66.46-6.9c-27.69,5.41-51.68,20.46-75.08,35.28
			c-35.1,22.23-55.27,43.77-91.33,61.14c-2.29,1.1-4.64,2.19-7.06,3.26c-79.86,35.19-177.59-11.31-267.88-13.96
			c-25.89-0.76-51.23,2.62-75.31,9.55c-92.52,26.66-166.5,105.88-182.36,205.03c-20.07,124.65,53.73,268.61,169.51,330.66
			c97.66,52.34,213.18,48.62,307.93,107.14c66.38,41,114.85,107.96,176.61,156.59c68.09,53.57,152.39,82.56,233.58,82.47
			c26.29-0.03,52.25-3.11,77.23-9.38c102.16-25.68,185.57-104.31,218.74-206.2c26.94-82.75,21.97-177.05,51.05-258.84
			c23.45-65.96,67.74-120.06,97.36-182.82c29.64-62.77,42.81-143.06,4-207.94c-36.75-61.38-110.33-91.12-177.3-94.69
			c-66.97-3.58-131,13.72-196.43,21.87C1782.19,368.85,1710.35,366.53,1650.83,328.44z"/>
		<path class="st1" d="M1652.65,342.4c-24.82-15.82-37.63-11.88-64.44-6.64c-26.85,5.26-50.11,19.85-72.79,34.22
			c-34.02,21.55-53.6,42.46-88.54,59.32c-2.22,1.07-4.5,2.12-6.85,3.16c-77.4,34.18-172.11-10.65-259.61-13.08
			c-25.1-0.7-49.65,2.61-72.99,9.35c-89.69,25.94-161.39,102.74-176.62,198.93c-19.37,120.61,52.05,259.89,164.07,319.96
			c94.48,50.67,206.26,47.12,297.94,103.72c64.24,39.65,111.16,104.38,170.93,151.38c65.96,51.75,147.55,79.7,226.15,79.52
			c25.44-0.06,50.57-3.06,74.75-9.16c98.88-24.94,179.64-101.08,211.83-199.71c26.14-80.1,21.43-171.37,49.63-250.54
			c22.75-63.85,65.63-116.24,94.34-177c28.74-60.79,41.55-138.53,4.07-201.39c-35.52-59.42-106.65-88.24-171.41-91.76
			c-64.76-3.54-126.7,13.13-190.02,20.95C1779.79,381.49,1710.27,379.23,1652.65,342.4z"/>
		<path class="st1" d="M1654.47,356.36c-24.04-15.27-36.48-11.46-62.43-6.37c-26,5.11-48.53,19.24-70.5,33.17
			c-32.94,20.88-51.93,41.14-85.75,57.49c-2.15,1.04-4.35,2.06-6.63,3.07c-74.94,33.17-166.63-9.99-251.34-12.2
			c-24.3-0.63-48.07,2.59-70.67,9.15c-86.86,25.22-156.28,99.6-170.89,192.84c-18.67,116.58,50.37,251.18,158.62,309.26
			c91.31,49,199.33,45.63,287.96,100.3c62.1,38.3,107.48,100.8,165.26,146.17c63.83,49.94,142.72,76.83,218.71,76.57
			c24.6-0.08,48.9-3.01,72.28-8.94c95.61-24.21,173.71-97.86,204.92-193.22c25.34-77.45,20.89-165.68,48.22-242.25
			c22.04-61.74,63.52-112.42,91.32-171.18c27.84-58.81,40.3-133.99,4.14-194.85c-34.28-57.45-102.96-85.35-165.51-88.82
			c-62.55-3.49-122.41,12.53-183.61,20.04C1777.38,394.12,1710.19,391.92,1654.47,356.36z"/>
		<path class="st1" d="M1656.29,370.32c-23.26-14.73-35.32-11.04-60.41-6.11c-25.16,4.95-46.96,18.63-68.22,32.12
			c-31.86,20.2-50.25,39.83-82.96,55.67c-2.08,1.01-4.21,2-6.41,2.97c-72.49,32.16-161.14-9.34-243.08-11.33
			c-23.5-0.57-46.49,2.58-68.35,8.95c-84.03,24.51-150.96,96.51-165.15,186.74c-17.71,112.62,48.68,242.46,153.17,298.56
			c88.14,47.33,192.4,44.14,277.98,96.88c59.95,36.95,103.79,97.23,159.58,140.95c61.69,48.13,137.89,73.97,211.27,73.62
			c23.76-0.11,47.22-2.97,69.8-8.71c92.34-23.48,167.79-94.64,198-186.74c24.54-74.8,20.35-160,46.81-233.95
			c21.33-59.64,61.42-108.6,88.3-165.36c26.95-56.83,39.05-129.46,4.21-188.3c-33.04-55.48-99.28-82.47-159.62-85.89
			c-60.35-3.45-118.11,11.94-177.2,19.13C1774.98,406.76,1710.11,404.61,1656.29,370.32z"/>
		<path class="st1" d="M1658.11,384.28c-22.48-14.19-34.17-10.62-58.39-5.85c-24.31,4.8-45.38,18.02-65.93,31.07
			c-30.77,19.53-48.58,38.51-80.16,53.84c-2.01,0.98-4.07,1.94-6.19,2.88c-70.03,31.16-155.66-8.68-234.81-10.45
			c-22.7-0.51-44.91,2.57-66.03,8.75c-81.2,23.79-145.8,93.38-159.42,180.64c-16.95,108.6,47,233.74,147.73,287.86
			c84.96,45.65,185.48,42.65,267.99,93.46c57.81,35.6,100.11,93.65,153.91,135.74c59.56,46.31,133.06,71.11,203.84,70.67
			c22.91-0.14,45.54-2.93,67.32-8.49c89.07-22.75,161.86-91.41,191.09-180.25c23.74-72.15,19.81-154.32,45.39-225.66
			c20.63-57.53,59.31-104.78,85.28-159.54c26.05-54.85,37.8-124.93,4.28-181.75c-31.8-53.52-95.59-79.59-153.72-82.95
			c-58.14-3.4-113.82,11.34-170.78,18.22C1772.57,419.4,1710.03,417.3,1658.11,384.28z"/>
		<path class="st1" d="M1659.94,398.24c-21.67-13.69-33.01-10.2-56.38-5.58c-23.47,4.65-43.81,17.41-63.64,30.01
			c-29.69,18.86-46.9,37.2-77.37,52.01c-1.94,0.94-3.93,1.87-5.98,2.79c-67.58,30.15-150.18-8.02-226.54-9.57
			c-21.9-0.45-43.33,2.56-63.71,8.55c-78.37,23.07-140.64,90.25-153.69,174.55c-16.18,104.59,45.32,225.02,142.28,277.16
			c81.79,43.98,178.55,41.15,258.01,90.05c55.67,34.26,96.35,90.17,148.24,130.53c57.35,44.61,128.23,68.24,196.4,67.72
			c22.07-0.17,43.87-2.88,64.85-8.26c85.79-22.02,155.93-88.19,184.18-173.76c22.94-69.5,19.28-148.64,43.98-217.36
			c19.92-55.42,57.2-100.96,82.26-153.72c25.15-52.86,36.66-120.45,4.34-175.2c-30.46-51.6-91.91-76.71-147.83-80.02
			c-55.93-3.36-109.53,10.75-164.37,17.31C1770.17,432.04,1710.01,429.88,1659.94,398.24z"/>
		<path class="st1" d="M1661.76,412.21c-20.88-13.16-31.85-9.78-54.36-5.32c-22.62,4.5-42.24,16.8-61.36,28.96
			c-28.61,18.18-45.23,35.88-74.58,50.19c-1.87,0.91-3.78,1.81-5.76,2.69c-65.12,29.14-144.7-7.36-218.27-8.7
			c-21.1-0.38-41.75,2.55-61.39,8.35c-75.54,22.35-135.48,87.13-147.95,168.45c-15.42,100.57,43.63,216.31,136.84,266.47
			c78.62,42.31,171.63,39.66,248.03,86.63c53.53,32.91,92.66,86.61,142.56,125.31c55.2,42.81,123.4,65.38,188.97,64.77
			c21.23-0.2,42.19-2.84,62.37-8.04c82.52-21.28,150-84.96,177.26-167.27c22.14-66.85,18.74-142.96,42.57-209.07
			c19.22-53.31,55.09-97.14,79.24-147.9c24.26-50.88,35.43-115.93,4.41-168.65c-29.21-49.65-88.22-73.82-141.93-77.08
			c-53.73-3.31-105.23,10.15-157.96,16.4C1767.76,444.68,1709.94,442.56,1661.76,412.21z"/>
		<path class="st1" d="M1663.58,426.17c-20.1-12.62-30.7-9.35-52.34-5.06c-21.78,4.35-40.66,16.19-59.07,27.91
			c-27.52,17.51-43.56,34.57-71.79,48.36c-1.8,0.88-3.64,1.75-5.54,2.6c-62.67,28.13-139.22-6.71-210.01-7.82
			c-20.3-0.32-40.17,2.54-59.07,8.15c-72.71,21.63-130.32,84-142.22,162.36c-14.66,96.56,41.95,207.59,131.39,255.76
			c75.45,40.64,164.7,38.17,238.04,83.21c51.39,31.56,88.96,83.05,136.89,120.1c53.06,41.02,118.57,62.51,181.53,61.82
			c20.38-0.23,40.52-2.79,59.9-7.81c79.25-20.55,144.08-81.74,170.35-160.79c21.34-64.2,18.2-137.28,41.15-200.77
			c18.51-51.2,52.99-93.32,76.23-142.08c23.36-48.9,34.2-111.4,4.48-162.1c-27.95-47.69-84.54-70.94-136.04-74.15
			c-51.52-3.27-100.94,9.56-151.54,15.49C1765.36,457.32,1709.87,455.23,1663.58,426.17z"/>
		<path class="st1" d="M1665.4,440.13c-19.31-12.08-29.54-8.93-50.33-4.79c-20.93,4.2-39.09,15.58-56.78,26.86
			c-26.44,16.83-41.88,33.25-68.99,46.54c-1.73,0.85-3.5,1.68-5.33,2.51c-60.21,27.12-133.73-6.05-201.74-6.94
			c-19.5-0.26-38.59,2.53-56.74,7.95c-69.88,20.91-125.16,80.87-136.48,156.26c-13.9,92.54,40.27,198.87,125.94,245.06
			c72.27,38.97,157.77,36.68,228.06,79.79c49.25,30.21,85.26,79.49,131.21,114.89c50.91,39.22,113.74,59.65,174.09,58.86
			c19.54-0.25,38.84-2.75,57.42-7.59c75.98-19.82,138.15-78.52,163.44-154.3c20.54-61.55,17.66-131.59,39.74-192.48
			c17.8-49.09,50.88-89.5,73.21-136.26c22.46-46.92,32.96-106.88,4.55-155.55c-26.69-45.73-80.85-68.06-130.14-71.21
			c-49.31-3.22-96.64,8.96-145.13,14.58C1762.96,469.96,1709.79,467.9,1665.4,440.13z"/>
		<path class="st1" d="M1667.22,454.09c-18.53-11.55-28.39-8.51-48.31-4.53c-20.09,4.04-37.51,14.97-54.49,25.8
			c-25.36,16.16-40.21,31.94-66.2,44.71c-1.66,0.82-3.36,1.62-5.11,2.41c-57.75,26.11-128.25-5.39-193.47-6.07
			c-18.7-0.2-37.01,2.52-54.42,7.75c-67.05,20.19-120,77.74-130.75,150.17c-13.14,88.52,38.59,190.15,120.5,234.37
			c69.1,37.3,150.85,35.18,218.08,76.37c47.1,28.86,81.57,75.92,125.54,109.67c48.76,37.43,108.9,56.78,166.66,55.91
			c18.7-0.28,37.17-2.7,54.94-7.37c72.7-19.09,132.22-75.29,156.53-147.81c19.74-58.9,17.12-125.91,38.33-184.18
			c17.1-46.99,48.77-85.68,70.19-130.44c21.57-44.94,31.73-102.35,4.62-149.01c-25.44-43.77-77.17-65.18-124.25-68.28
			c-47.11-3.18-92.35,8.37-138.72,13.67C1760.55,482.6,1709.72,480.58,1667.22,454.09z"/>
		<path class="st1" d="M1669.04,468.05c-17.74-11.01-27.23-8.09-46.29-4.26c-19.24,3.89-35.94,14.37-52.21,24.75
			c-24.28,15.48-38.53,30.62-63.41,42.89c-1.59,0.78-3.21,1.56-4.89,2.32c-55.3,25.1-122.77-4.74-185.2-5.19
			c-17.9-0.13-35.43,2.51-52.1,7.55c-64.22,19.47-114.84,74.61-125.02,144.07c-12.38,84.51,36.9,181.44,115.05,223.67
			c65.93,35.63,143.92,33.69,208.09,72.95c44.96,27.51,77.87,72.36,119.86,104.46c46.62,35.63,104.07,53.92,159.22,52.96
			c17.85-0.31,35.49-2.66,52.47-7.14c69.43-18.35,126.29-72.07,149.61-141.33c18.94-56.25,16.58-120.23,36.91-175.89
			c16.39-44.88,46.67-81.86,67.17-124.62c20.67-42.96,30.5-97.83,4.69-142.46c-24.18-41.81-73.48-62.29-118.36-65.34
			c-44.9-3.13-88.05,7.77-132.3,12.76C1758.15,495.24,1709.65,493.25,1669.04,468.05z"/>
		<path class="st1" d="M1670.86,482.01c-16.96-10.47-26.08-7.67-44.27-4c-18.4,3.74-34.37,13.76-49.92,23.7
			c-23.19,14.81-36.86,29.3-60.62,41.06c-1.52,0.75-3.07,1.49-4.67,2.22c-52.84,24.1-117.29-4.08-176.94-4.31
			c-17.1-0.07-33.85,2.5-49.78,7.35c-61.39,18.75-109.68,71.48-119.28,137.98c-11.62,80.49,35.22,172.72,109.61,212.96
			c62.75,33.96,137,32.2,198.11,69.54c42.82,26.16,74.18,68.8,114.19,99.25c44.47,33.84,99.24,51.05,151.79,50.01
			c17.01-0.34,33.81-2.61,49.99-6.92c66.16-17.62,120.36-68.84,142.7-134.84c18.14-53.6,16.04-114.55,35.5-167.59
			c15.69-42.77,44.56-78.04,64.15-118.8c19.77-40.98,29.26-93.3,4.75-135.91c-22.93-39.85-69.8-59.41-112.46-62.41
			c-42.69-3.09-83.76,7.18-125.89,11.85C1755.74,507.88,1709.58,505.93,1670.86,482.01z"/>
		<path class="st1" d="M1672.68,495.97c-16.17-9.94-24.92-7.25-42.26-3.74c-17.55,3.59-32.79,13.15-47.63,22.65
			c-22.11,14.13-35.19,27.99-57.82,39.23c-1.45,0.72-2.93,1.43-4.46,2.13c-50.39,23.09-111.81-3.42-168.67-3.44
			c-16.3-0.01-32.27,2.49-47.46,7.15c-58.56,18.04-104.52,68.35-113.55,131.88c-10.86,76.47,33.54,164,104.16,202.26
			c59.58,32.29,130.07,30.7,188.13,66.12c40.68,24.81,70.48,65.24,108.52,94.03c42.33,32.04,94.41,48.19,144.35,47.06
			c16.17-0.37,32.14-2.57,47.51-6.69c62.89-16.89,114.44-65.62,135.79-128.35c17.34-50.95,15.51-108.87,34.09-159.29
			c14.98-40.66,42.45-74.22,61.13-112.98c18.88-39,28.03-88.78,4.82-129.36c-21.67-37.9-66.11-56.53-106.57-59.47
			c-40.49-3.04-79.46,6.58-119.48,10.94C1753.34,520.51,1709.5,518.6,1672.68,495.97z"/>
		<path class="st1" d="M1674.5,509.93c-15.39-9.4-23.77-6.82-40.24-3.47c-16.71,3.44-31.22,12.54-45.35,21.59
			c-21.03,13.46-33.51,26.67-55.03,37.41c-1.38,0.69-2.79,1.37-4.24,2.04c-47.93,22.08-106.32-2.77-160.4-2.56
			c-15.51,0.06-30.68,2.47-45.14,6.95c-55.73,17.32-99.36,65.22-107.81,125.79c-10.11,72.45,31.85,155.28,98.71,191.56
			c56.41,30.61,123.14,29.21,178.14,62.7c38.54,23.46,66.79,61.68,102.84,88.82c40.18,30.25,89.58,45.33,136.92,44.11
			c15.33-0.4,30.46-2.52,45.04-6.47c59.62-16.16,108.51-62.4,128.87-121.87c16.54-48.3,14.97-103.19,32.67-151
			c14.27-38.55,40.35-70.4,58.11-107.16c17.98-37.02,26.8-84.25,4.89-122.81c-20.42-35.93-62.43-53.65-100.67-56.54
			c-38.28-3-75.17,5.99-113.07,10.03C1750.93,533.15,1709.43,531.28,1674.5,509.93z"/>
		<path class="st1" d="M1676.33,523.89c-14.6-8.87-22.61-6.4-38.22-3.21c-15.86,3.28-29.65,11.93-43.06,20.54
			c-19.95,12.78-31.84,25.36-52.24,35.58c-1.31,0.66-2.64,1.31-4.02,1.94c-45.48,21.07-100.84-2.11-152.13-1.68
			c-14.71,0.12-29.11,2.46-42.82,6.74c-52.9,16.6-94.2,62.08-102.08,119.69c-9.36,68.43,30.17,146.56,93.27,180.86
			c53.23,28.94,116.22,27.72,168.16,59.28c36.39,22.11,63.09,58.12,97.17,83.61c38.04,28.45,84.75,42.46,129.48,41.16
			c14.48-0.42,28.79-2.48,42.56-6.25c56.34-15.42,102.58-59.17,121.96-115.38c15.74-45.65,14.43-97.51,31.26-142.71
			c13.57-36.45,38.24-66.58,55.09-101.34c17.08-35.03,25.57-79.72,4.96-116.26c-19.17-33.98-58.74-50.76-94.78-53.6
			c-36.07-2.95-70.87,5.39-106.65,9.12C1748.53,545.79,1709.36,543.95,1676.33,523.89z"/>
		<path class="st1" d="M1678.15,537.85c-13.82-8.33-21.46-5.98-36.21-2.95c-15.02,3.13-28.07,11.32-40.77,19.49
			c-18.86,12.11-30.16,24.04-49.45,33.76c-1.24,0.63-2.5,1.24-3.81,1.85c-43.02,20.06-95.36-1.45-143.87-0.8
			c-13.91,0.18-27.52,2.45-40.5,6.54c-50.07,15.88-89.04,58.95-96.34,113.59c-8.6,64.41,28.49,137.85,87.82,170.17
			c50.06,27.27,109.29,26.23,158.18,55.86c34.25,20.77,59.4,54.56,91.49,78.39c35.89,26.66,79.92,39.6,122.04,38.21
			c13.64-0.45,27.11-2.43,40.08-6.02c53.07-14.69,96.65-55.95,115.05-108.89c14.95-43,13.89-91.82,29.85-134.41
			c12.86-34.34,36.13-62.76,52.07-95.52c16.19-33.05,24.33-75.2,5.02-109.71c-17.91-32.02-55.06-47.88-88.88-50.67
			c-33.87-2.91-66.58,4.8-100.24,8.21C1746.12,558.43,1709.29,556.63,1678.15,537.85z"/>
		<path class="st1" d="M1679.97,551.81c-13.03-7.79-20.3-5.56-34.19-2.68c-14.17,2.98-26.5,10.71-38.49,18.43
			c-17.78,11.43-28.49,22.73-46.65,31.93c-1.17,0.59-2.36,1.18-3.59,1.76c-40.56,19.05-89.88-0.79-135.6,0.07
			c-13.11,0.24-25.94,2.44-38.17,6.34c-47.23,15.16-83.89,55.82-90.61,107.5c-7.86,60.39,26.8,129.13,82.38,159.47
			c46.89,25.6,102.36,24.73,148.19,52.44c32.11,19.42,55.7,50.99,85.82,73.18c33.75,24.86,75.09,36.73,114.61,35.25
			c12.8-0.48,25.43-2.39,37.61-5.8c49.8-13.96,90.73-52.72,108.14-102.41c14.15-40.36,13.35-86.14,28.43-126.12
			c12.16-32.23,34.02-58.94,49.06-89.7c15.29-31.07,23.1-70.67,5.09-103.16c-16.66-30.06-51.37-45-82.99-47.73
			c-31.66-2.86-62.28,4.2-93.83,7.3C1743.72,571.07,1709.21,569.3,1679.97,551.81z"/>
		<path class="st1" d="M1681.79,565.78c-12.25-7.26-19.15-5.14-32.17-2.42c-13.33,2.83-24.92,10.1-36.2,17.38
			c-16.7,10.76-26.82,21.41-43.86,30.11c-1.09,0.56-2.22,1.12-3.37,1.66c-38.11,18.05-84.4-0.14-127.33,0.95
			c-12.31,0.31-24.36,2.43-35.85,6.14c-44.4,14.44-78.73,52.68-84.88,101.4c-7.11,56.36,25.12,120.41,76.93,148.76
			c43.71,23.93,95.44,23.24,138.21,49.03c29.97,18.07,52.01,47.43,80.14,67.97c31.6,23.07,70.25,33.87,107.17,32.3
			c11.95-0.51,23.76-2.34,35.13-5.57c46.53-13.23,84.8-49.5,101.22-95.92c13.35-37.71,12.81-80.46,27.02-117.82
			c11.45-30.12,31.92-55.12,46.04-83.88c14.39-29.09,21.87-66.14,5.16-96.61c-15.4-28.09-47.69-42.05-77.09-44.8
			c-29.45-2.75-57.99,3.61-87.41,6.39C1741.31,583.71,1709.14,581.98,1681.79,565.78z"/>
		<path class="st1" d="M1683.61,579.74c-11.46-6.72-17.99-4.72-30.16-2.16c-12.48,2.68-23.35,9.49-33.91,16.33
			c-15.61,10.09-25.14,20.1-41.07,28.28c-1.02,0.53-2.08,1.05-3.16,1.57c-35.65,17.04-78.91,0.52-119.06,1.83
			c-11.51,0.37-22.78,2.42-33.53,5.94c-41.57,13.72-73.57,49.55-79.14,95.31c-6.37,52.34,23.44,111.69,71.49,138.06
			c40.54,22.26,88.51,21.75,128.23,45.61c27.83,16.72,48.32,43.87,74.47,62.76c29.46,21.28,65.42,31,99.74,29.35
			c11.11-0.54,22.08-2.3,32.65-5.35c43.25-12.49,78.87-46.28,94.31-89.43c12.55-35.06,12.28-74.78,25.61-109.52
			c10.74-28.01,29.81-51.3,43.02-78.06c13.5-27.11,20.63-61.61,5.23-90.07c-14.15-26.13-44-39.16-71.2-41.86
			c-27.24-2.7-53.69,3.01-81,5.48C1738.91,596.35,1709.06,594.66,1683.61,579.74z"/>
		<path class="st1" d="M1685.43,593.7c-10.68-6.18-16.84-4.29-28.14-1.89c-11.64,2.52-21.78,8.88-31.62,15.28
			c-14.53,9.41-23.47,18.78-38.28,26.45c-0.95,0.5-1.93,0.99-2.94,1.48c-33.2,16.03-73.43,1.18-110.8,2.7
			c-10.71,0.43-21.2,2.41-31.21,5.74c-38.74,13-68.42,46.41-73.41,89.21c-5.63,48.31,21.76,102.98,66.04,127.37
			c37.37,20.59,81.59,20.25,118.24,42.19c25.68,15.37,44.62,40.31,68.79,57.54c27.32,19.48,60.59,28.14,92.3,26.4
			c10.27-0.56,20.41-2.25,30.18-5.12c39.98-11.76,72.94-43.05,87.4-82.94c11.75-32.41,11.74-69.1,24.19-101.23
			c10.04-25.91,27.7-47.48,40-72.24c12.6-25.13,19.4-57.09,5.3-83.52c-12.9-24.17-40.32-36.28-65.31-38.93
			c-25.04-2.66-49.4,2.42-74.59,4.57C1736.51,608.99,1708.98,607.34,1685.43,593.7z"/>
		<path class="st1" d="M1687.25,607.66c-9.9-5.65-15.69-3.9-26.12-1.63c-10.8,2.35-20.2,8.27-29.34,14.22
			c-13.45,8.74-21.79,17.47-35.49,24.63c-0.88,0.47-1.79,0.93-2.72,1.38c-30.74,15.02-67.95,1.83-102.53,3.58
			c-9.91,0.5-19.62,2.4-28.89,5.54c-35.91,12.29-63.27,43.27-67.67,83.12c-4.9,44.28,20.07,94.26,60.59,116.66
			c34.2,18.92,74.66,18.76,108.26,38.77c23.54,14.02,40.93,36.74,63.12,52.33c25.18,17.69,55.76,25.27,84.87,23.45
			c9.42-0.59,18.73-2.21,27.7-4.9c36.71-11.03,67.01-39.83,80.48-76.46c10.95-29.76,11.2-63.41,22.78-92.93
			c9.33-23.8,25.55-43.69,36.98-66.42c11.66-23.18,18.17-52.56,5.36-76.97c-11.65-22.21-36.63-33.39-59.41-35.99
			c-22.83-2.61-45.1,1.82-68.17,3.66C1734.1,621.63,1708.91,620.01,1687.25,607.66z"/>
		<path class="st1" d="M1689.07,621.62c-9.12-5.11-14.53-3.48-24.11-1.37c-9.96,2.2-18.63,7.66-27.05,13.17
			c-12.37,8.06-20.13,16.13-32.69,22.8c-0.82,0.43-1.65,0.87-2.5,1.29c-28.29,14.01-62.47,2.49-94.26,4.46
			c-9.11,0.56-18.04,2.39-26.57,5.34c-33.08,11.57-58.11,40.13-61.94,77.02c-4.17,40.25,18.39,85.54,55.15,105.96
			c31.02,17.25,67.73,17.27,98.28,35.35c21.4,12.67,37.24,33.18,57.45,47.12c23.04,15.89,50.93,22.41,77.43,20.5
			c8.58-0.62,17.06-2.16,25.23-4.68c33.44-10.3,61.09-36.6,73.57-69.97c10.15-27.11,10.66-57.73,21.37-84.64
			c8.63-21.69,23.44-39.87,33.96-60.6c10.76-21.2,16.94-48.02,5.43-70.42c-10.4-20.24-32.95-30.51-53.52-33.06
			c-20.63-2.56-40.82,1.18-61.76,2.75C1731.69,634.22,1708.83,632.7,1689.07,621.62z"/>
		<path class="st1" d="M1690.89,635.58c-8.33-4.57-13.38-3.05-22.09-1.1c-9.11,2.04-17.05,7.05-24.76,12.12
			c-11.28,7.39-18.46,14.81-29.9,20.98c-0.74,0.4-1.51,0.8-2.29,1.19c-25.83,13-56.99,3.15-86,5.33
			c-8.31,0.62-16.46,2.37-24.25,5.14c-30.25,10.85-52.97,36.98-56.21,70.93c-3.45,36.21,16.71,76.82,49.7,95.27
			c27.85,15.57,60.81,15.78,88.29,31.93c19.26,11.32,33.56,29.62,51.77,41.9c20.9,14.1,46.1,19.55,69.99,17.55
			c7.74-0.65,15.38-2.12,22.75-4.45c30.16-9.56,55.16-33.38,66.66-63.48c9.35-24.46,10.12-52.05,19.95-76.35
			c7.92-19.58,21.33-36.05,30.94-54.78c9.86-19.22,15.7-43.49,5.5-63.87c-9.14-18.27-29.26-27.62-47.62-30.12
			c-18.42-2.51-36.52,0.58-55.35,1.84C1729.28,646.86,1708.75,645.38,1690.89,635.58z"/>
		<path class="st1" d="M1692.71,649.54c-7.55-4.04-12.22-2.63-20.07-0.84c-8.27,1.89-15.48,6.44-22.48,11.07
			c-10.2,6.71-16.79,13.49-27.11,19.15c-0.67,0.37-1.36,0.74-2.07,1.1c-23.37,12-51.5,3.8-77.73,6.21
			c-7.51,0.68-14.88,2.36-21.93,4.94c-27.42,10.13-47.82,33.83-50.47,64.83c-2.75,32.17,15.03,68.1,44.26,84.56
			c24.68,13.9,53.88,14.28,78.31,28.52c17.12,9.97,29.87,26.05,46.1,36.69c18.77,12.3,41.27,16.68,62.56,14.59
			c6.89-0.68,13.7-2.08,20.27-4.23c26.89-8.83,49.23-30.15,59.75-57c8.55-21.81,9.58-46.37,18.54-68.05
			c7.22-17.47,19.23-32.23,27.92-48.96c8.96-17.24,14.46-38.95,5.57-57.32c-7.9-16.31-25.58-24.74-41.73-27.19
			c-16.22-2.46-32.23-0.01-48.94,0.93C1726.88,659.49,1708.66,658.06,1692.71,649.54z"/>
		<path class="st1" d="M1694.54,663.5c-6.77-3.5-11.07-2.21-18.06-0.57c-7.42,1.74-13.91,5.83-20.19,10.02
			c-9.12,6.04-15.11,12.18-24.32,17.33c-0.6,0.34-1.22,0.68-1.85,1.01c-20.92,10.99-46.02,4.46-69.46,7.09
			c-6.71,0.75-13.3,2.35-19.6,4.74c-24.59,9.41-42.68,30.68-44.74,58.74c-2.06,28.13,13.34,59.39,38.81,73.86
			c21.5,12.23,46.96,12.79,68.33,25.1c14.97,8.62,26.19,22.48,40.42,31.48c16.64,10.51,36.44,13.82,55.12,11.64
			c6.05-0.71,12.03-2.03,17.8-4c23.62-8.1,43.3-26.93,52.83-50.51c7.75-19.16,9.04-40.69,17.13-59.76
			c6.51-15.36,17.12-28.41,24.91-43.14c8.07-15.26,13.23-34.42,5.64-50.77c-6.65-14.33-21.9-21.85-35.83-24.25
			c-14.01-2.42-27.93-0.61-42.52,0.02C1724.48,672.13,1708.58,670.75,1694.54,663.5z"/>
		<path class="st1" d="M1696.36,677.46c-6-2.96-9.91-1.79-16.04-0.31c-6.58,1.59-12.33,5.22-17.9,8.96
			c-8.03,5.36-13.44,10.87-21.52,15.5c-0.53,0.31-1.08,0.61-1.64,0.91c-18.46,9.98-40.54,5.12-61.19,7.96
			c-5.91,0.81-11.72,2.34-17.28,4.54c-21.76,8.69-37.55,27.52-39,52.64c-1.39,24.07,11.66,50.67,33.36,63.17
			c18.33,10.56,40.03,11.3,58.35,21.68c12.83,7.27,22.51,18.92,34.75,26.26c14.51,8.71,31.6,10.95,47.69,8.69
			c5.21-0.73,10.35-1.99,15.32-3.78c20.35-7.37,37.38-23.71,45.92-44.02c6.95-16.51,8.51-35.01,15.71-51.46
			c5.8-13.26,15.01-24.59,21.89-37.32c7.17-13.28,11.99-29.87,5.7-44.23c-5.41-12.36-18.21-18.97-29.94-21.32
			c-11.81-2.37-23.64-1.21-36.11-0.89C1722.07,684.77,1708.49,683.45,1696.36,677.46z"/>
		<path class="st1" d="M1698.18,691.42c-5.22-2.42-8.76-1.37-14.02-0.05c-5.73,1.44-10.76,4.62-15.62,7.91
			c-6.95,4.69-11.76,9.55-18.73,13.67c-0.46,0.28-0.94,0.55-1.42,0.82c-16.01,8.97-35.06,5.78-52.93,8.84
			c-5.11,0.87-10.14,2.32-14.96,4.34c-18.95,7.93-32.44,24.35-33.27,46.55c-0.75,20.01,9.98,41.95,27.92,52.47
			c15.16,8.89,33.1,9.81,48.36,18.26c10.69,5.93,18.84,15.34,29.08,21.05c12.39,6.91,26.77,8.09,40.25,5.74
			c4.37-0.76,8.68-1.94,12.84-3.55c17.08-6.63,31.45-20.48,39.01-37.54c6.15-13.86,7.97-29.33,14.3-43.17
			c5.1-11.15,12.91-20.77,18.87-31.5c6.27-11.29,10.75-25.32,5.77-37.68c-4.18-10.37-14.53-16.08-24.04-18.38
			c-9.6-2.32-19.34-1.8-29.7-1.8C1719.67,697.41,1708.39,696.15,1698.18,691.42z"/>
		<path class="st1" d="M1700,705.38c-4.45-1.87-7.6-0.94-12,0.22c-4.89,1.29-9.18,4.01-13.33,6.86
			c-5.87,4.01-10.09,8.24-15.94,11.85c-0.39,0.24-0.79,0.49-1.2,0.72c-13.55,7.96-29.58,6.43-44.66,9.72
			c-4.31,0.94-8.56,2.31-12.64,4.14c-16.12,7.22-27.35,21.17-27.53,40.45c-0.15,15.94,8.29,33.23,22.47,41.76
			c11.98,7.22,26.18,8.31,38.38,14.84c8.55,4.58,15.18,11.76,23.4,15.84c10.29,5.11,21.94,5.22,32.82,2.79
			c3.52-0.79,7-1.9,10.37-3.33c13.8-5.9,25.52-17.26,32.09-31.05c5.35-11.21,7.43-23.64,12.89-34.87
			c4.39-9.04,10.8-16.95,15.85-25.68c5.38-9.31,9.49-20.76,5.84-31.13c-2.95-8.38-10.85-13.2-18.15-15.45
			c-7.4-2.28-15.04-2.39-23.29-2.71C1717.27,710.05,1708.29,708.86,1700,705.38z"/>
		<path class="st1" d="M1701.82,719.35c-3.68-1.31-6.44-0.52-9.99,0.48c-4.04,1.14-7.61,3.4-11.04,5.81
			c-4.79,3.34-8.41,6.93-13.15,10.02c-0.32,0.21-0.65,0.42-0.98,0.63c-11.1,6.95-24.09,7.09-36.39,10.59
			c-3.52,1-6.98,2.3-10.32,3.94c-13.28,6.5-22.32,17.97-21.8,34.35c0.38,11.85,6.61,24.52,17.03,31.06
			c8.81,5.55,19.25,6.82,28.4,11.43c6.41,3.23,11.54,8.15,17.73,10.62c8.21,3.29,17.11,2.36,25.38-0.16
			c2.68-0.82,5.32-1.85,7.89-3.11c10.53-5.17,19.59-14.04,25.18-24.56c4.55-8.56,6.89-17.96,11.47-26.58
			c3.68-6.93,8.7-13.13,12.83-19.86c4.49-7.33,8.22-16.18,5.91-24.58c-1.75-6.37-7.18-10.33-12.26-12.51
			c-5.21-2.24-10.74-2.99-16.87-3.62C1714.86,722.69,1708.17,721.61,1701.82,719.35z"/>
	</g>
</g>
</svg>
