<svg version="1.1" id="Layer_1" xmlns="http://www.w3.org/2000/svg" x="0" y="0" viewBox="0 0 1000 1150" xml:space="preserve"><style>.st0{fill:none;stroke:#fff;stroke-width:.75;stroke-miterlimit:10}</style><path class="st0" d="M759.81 698.76c1.4-60.94 34.39-113.44 71.79-156.3 37.4-42.86 80.71-80.3 110.49-129.93 29.78-49.63 44.04-116.62 17.88-172.52-27.62-59.03-91.34-88.34-150.47-97.42-59.12-9.07-119.13-3.48-177.58-18.52-72.47-18.65-137.47-67.72-209.6-88.37-88.81-25.43-185.21-3.66-252.73 57.06C102.08 153.51 65 251.78 72.4 350.42c5.07 67.64 29.66 134.6 27.02 201.85-3.78 95.99-62.17 176.82-71.82 271.91-11.44 112.73 55.99 234.93 154.86 280.61 98.86 45.68 219.54 10.41 277.12-81.01 41.47-65.83 55.14-158.14 118.65-198.28 32.32-20.42 58.45-24.01 93.3-39.3 21.83-9.58 44.11-19.47 61.29-36.65 17.16-17.17 26.39-24.61 26.99-50.79z"/><path class="st0" d="M750.99 690.98c-.61 25.38-9.58 32.62-26.25 49.27-16.68 16.66-38.31 26.26-59.5 35.55-31.79 13.95-56.14 17.87-85.01 34.74a191.81 191.81 0 00-5.55 3.37c-61.67 38.9-75.08 128.34-115.4 192.14-11.56 18.3-25.73 34.28-41.78 47.73-61.67 51.66-151.1 65.94-227.21 30.64-95.74-44.28-161.04-162.63-149.98-271.83 9.33-92.11 65.84-170.42 69.53-263.39 2.58-65.14-21.19-129.99-26.05-195.49-5.33-72.19 13.94-144.14 51.91-200.36 12.29-18.2 26.55-34.75 42.56-49.13 65.49-58.8 158.92-79.89 245.01-55.3 69.92 19.97 132.94 67.44 203.19 85.48 56.65 14.55 114.82 9.12 172.13 17.89 57.33 8.77 119.12 37.13 145.96 94.31 25.37 54.13 11.63 119-17.16 167.07-28.78 48.08-70.67 84.37-106.86 125.91-36.21 41.51-68.15 92.37-69.54 151.4z"/><path class="st0" d="M742.16 683.2c-.63 24.58-9.33 31.62-25.49 47.75-16.18 16.15-37.15 25.45-57.7 34.46-30.82 13.51-54.45 17.32-82.44 33.66-1.78 1.04-3.57 2.12-5.39 3.27-59.82 37.67-72.98 124.23-112.14 186-11.23 17.72-24.99 33.19-40.56 46.21-59.85 50.04-146.54 63.86-220.31 29.51-92.62-42.89-155.79-157.41-145.11-263.07 9-89.13 63.64-164.92 67.24-254.88 2.52-63.03-20.43-125.76-25.09-189.12-5.07-69.87 13.67-139.46 50.48-193.83 11.92-17.6 25.73-33.61 41.25-47.52 63.45-56.87 153.92-77.29 237.29-53.54 67.71 19.28 128.75 65.16 196.78 82.58 54.86 14.05 111.19 8.8 166.69 17.27 55.54 8.47 115.39 35.88 141.45 91.21 24.59 52.35 11.35 115.1-16.45 161.61-27.79 46.53-68.25 81.67-103.24 121.89-34.98 40.2-65.87 89.42-67.26 146.54z"/><path class="st0" d="M733.34 675.42c-.64 23.79-9.09 30.63-24.73 46.23-15.68 15.63-35.99 24.65-55.9 33.37-29.85 13.08-52.75 16.77-79.87 32.58-1.72 1-3.46 2.05-5.22 3.16-57.98 36.44-70.87 120.13-108.89 179.86-10.9 17.13-24.24 32.1-39.34 44.7-58.03 48.41-141.98 61.79-213.41 28.38-89.5-41.5-150.53-152.17-140.24-254.3 8.68-86.15 61.45-159.43 64.94-246.37 2.45-60.91-19.67-121.54-24.13-182.76-4.81-67.54 13.4-134.77 49.05-187.3 11.54-17.01 24.92-32.47 39.94-45.91 61.42-54.95 148.92-74.68 229.56-51.78 65.5 18.6 124.56 62.88 190.37 79.69 53.07 13.55 107.56 8.47 161.25 16.64 53.75 8.16 111.67 34.63 136.95 88.1 23.8 50.57 11.07 111.2-15.73 156.16-26.79 44.98-65.83 78.97-99.61 117.87-33.77 38.88-63.62 86.47-64.99 141.68z"/><path class="st0" d="M724.52 667.64c-.65 22.99-8.84 29.63-23.97 44.71-15.18 15.12-34.83 23.84-54.1 32.27-28.87 12.64-51.06 16.23-77.3 31.49-1.67.97-3.35 1.99-5.05 3.05-56.13 35.21-68.77 116.02-105.64 173.72-10.57 16.55-23.5 31.01-38.12 43.18-56.21 46.79-137.36 59.55-206.51 27.25C127.51 983.03 68.54 876.4 78.45 777.8c8.36-83.17 59.25-153.93 62.65-237.85 2.39-58.8-18.91-117.31-23.16-176.39-4.54-65.22 13.12-130.09 47.63-180.77 11.17-16.41 24.1-31.33 38.63-44.3 59.38-53.02 143.91-72.08 221.84-50.02 63.29 17.92 120.37 60.6 183.97 76.79 51.28 13.06 103.93 8.15 155.81 16.02 51.96 7.86 107.94 33.38 132.44 85 23.02 48.8 10.79 107.3-15.01 150.7-25.79 43.43-63.42 76.27-95.99 113.85-32.58 37.56-61.38 83.51-62.74 136.81z"/><path class="st0" d="M715.69 659.86c-.66 22.2-8.59 28.63-23.21 43.19-14.68 14.6-33.68 23.03-52.31 31.18-27.9 12.21-49.37 15.68-74.73 30.41-1.61.94-3.24 1.92-4.89 2.95-54.29 33.98-66.66 111.91-102.39 167.59-10.25 15.97-22.75 29.92-36.89 41.67-54.39 45.16-132.78 57.43-199.61 26.13-83.17-38.96-140.02-141.7-130.5-236.77 8.03-80.19 57.05-148.43 60.36-229.34 2.32-56.68-18.15-113.09-22.2-170.02-4.28-62.89 12.85-125.4 46.2-174.24 10.8-15.81 23.29-30.19 37.32-42.69 57.35-51.1 138.91-69.48 214.12-48.26 61.08 17.23 116.19 58.32 177.56 73.9 49.49 12.56 100.3 7.83 150.37 15.39 50.17 7.56 104.22 32.13 127.94 81.89 22.24 47.02 10.52 103.4-14.29 145.25-24.79 41.88-61 73.58-92.36 109.83-31.38 36.24-59.13 80.55-60.49 131.94z"/><path class="st0" d="M706.87 652.08c-.63 21.41-8.35 27.63-22.45 41.67-14.18 14.09-32.52 22.23-50.51 30.09-26.93 11.77-47.67 15.14-72.17 29.33-1.56.9-3.13 1.85-4.72 2.84-52.44 32.75-64.56 107.81-99.14 161.45-9.91 15.38-22 28.83-35.67 40.15-52.57 43.54-128.2 55.32-192.7 25-80.03-37.62-134.77-136.46-125.63-228 7.71-77.21 54.85-142.94 58.07-220.83 2.26-54.57-17.5-108.87-21.24-163.66-4.14-60.57 12.58-120.72 44.77-167.71 10.42-15.21 22.48-29.05 36-41.08 55.31-49.17 133.91-66.88 206.39-46.49 58.87 16.55 112 56.04 171.15 71.01 47.7 12.07 96.67 7.5 144.92 14.77 48.38 7.25 100.58 30.83 123.43 78.79 21.54 45.2 10.24 99.5-13.57 139.79-23.79 40.33-58.58 70.88-88.74 105.81-30.14 34.91-56.74 77.61-58.19 127.07z"/><path class="st0" d="M698.04 644.3c-.63 20.61-8.1 26.64-21.69 40.15-13.68 13.58-31.36 21.42-48.71 28.99-25.96 11.34-45.98 14.59-69.6 28.25-1.5.87-3.02 1.78-4.56 2.73-50.6 31.52-62.45 103.7-95.88 155.31-9.59 14.8-21.26 27.74-34.45 38.64-50.76 41.91-123.63 53.2-185.8 23.87-76.89-36.27-129.51-131.23-120.76-219.23 7.39-74.23 52.65-137.44 55.77-212.31 2.19-52.46-16.75-104.64-20.27-157.29-3.89-58.24 12.31-116.03 43.35-161.18 10.05-14.62 21.66-27.91 34.69-39.47 53.28-47.25 128.91-64.27 198.67-44.73 56.66 15.87 107.81 53.76 164.74 68.11 45.91 11.57 93.04 7.18 139.48 14.14 46.58 6.95 96.87 29.58 118.92 75.68 20.77 43.42 9.96 95.6-12.85 134.34-22.79 38.78-56.16 68.18-85.12 101.8-28.93 33.59-54.46 74.65-55.93 122.2z"/><path class="st0" d="M689.22 636.52c-.64 19.82-7.85 25.64-20.93 38.63-13.18 13.06-30.21 20.62-46.92 27.9-24.98 10.9-44.29 14.04-67.03 27.16-1.45.83-2.91 1.71-4.39 2.63-48.75 30.29-60.35 99.6-92.63 149.17-9.26 14.22-20.51 26.65-33.22 37.12-48.93 40.28-119.05 51.09-178.9 22.74-73.75-34.92-124.26-125.99-115.88-210.46 7.06-71.25 50.45-131.95 53.48-203.8 2.12-50.34-16.01-100.42-19.31-150.93-3.65-55.92 12.04-111.35 41.92-154.65 9.67-14.02 20.85-26.77 33.38-37.86 51.24-45.32 123.91-61.67 190.95-42.97 54.45 15.19 103.62 51.48 158.34 65.22 44.12 11.08 89.41 6.86 134.04 13.52 44.79 6.64 93.16 28.32 114.42 72.58 20 41.63 9.69 91.7-12.14 128.88-21.79 37.23-53.75 65.48-81.49 97.78-27.76 32.27-52.22 71.7-53.69 117.34z"/><path class="st0" d="M680.4 628.74c-.64 19.02-7.6 24.64-20.18 37.11-12.68 12.55-29.05 19.81-45.12 26.81-24.01 10.46-42.59 13.5-64.46 26.08-1.39.8-2.8 1.64-4.22 2.52-46.91 29.06-58.25 95.49-89.38 143.03-8.93 13.63-19.77 25.56-32 35.61-47.12 38.66-114.47 48.97-172 21.62-70.61-33.58-119-120.75-111.01-201.69 6.74-68.28 48.25-126.45 51.19-195.28 2.06-48.23-15.27-96.19-18.35-144.56-3.41-53.59 11.77-106.66 40.49-148.12 9.3-13.42 20.04-25.63 32.07-36.24 49.21-43.39 118.91-59.07 183.23-41.21 52.24 14.5 99.43 49.2 151.93 62.33 42.33 10.58 85.77 6.53 128.6 12.89 43 6.34 89.45 27.06 109.91 69.47 19.22 39.85 9.41 87.8-11.42 123.43-20.79 35.68-51.33 62.78-77.87 93.76-26.54 30.92-49.93 68.71-51.41 112.44z"/><path class="st0" d="M671.57 620.96c-.65 18.23-7.36 23.65-19.42 35.59-12.18 12.03-27.89 19-43.32 25.71-23.04 10.03-40.9 12.95-61.89 25-1.34.77-2.69 1.57-4.06 2.41-45.06 27.83-56.14 91.39-86.13 136.9-8.6 13.05-19.02 24.47-30.78 34.09-45.3 37.03-109.89 46.86-165.1 20.49-67.48-32.23-113.75-115.52-106.14-192.92 6.42-65.3 46.05-120.95 48.9-186.77 1.99-46.11-14.53-91.97-17.38-138.19-3.17-51.26 11.5-101.97 39.07-141.59 8.93-12.82 19.22-24.49 30.76-34.63 47.17-41.47 113.9-56.47 175.5-39.45 50.03 13.82 95.24 46.92 145.52 59.43 40.54 10.09 82.14 6.21 123.15 12.26 41.21 6.04 85.74 25.8 105.41 66.37 18.45 38.06 9.13 83.9-10.7 117.97-19.79 34.13-48.91 60.08-74.24 89.74-25.33 29.61-47.66 65.78-49.15 107.59z"/><path class="st0" d="M662.75 613.18c-.65 17.43-7.11 22.65-18.66 34.07-11.68 11.52-26.73 18.2-41.52 24.62-22.06 9.59-39.21 12.41-59.32 23.92-1.28.73-2.58 1.5-3.89 2.31-43.21 26.6-54.04 87.28-82.87 130.76-8.27 12.47-18.28 23.38-29.55 32.58-43.48 35.41-105.32 44.74-158.2 19.36-64.34-30.88-108.49-110.28-101.27-184.15 6.09-62.32 43.85-115.46 46.6-178.26 1.93-44-13.79-87.75-16.42-131.83-2.93-48.94 11.23-97.29 37.64-135.06 8.55-12.23 18.41-23.35 29.44-33.02 45.13-39.54 108.9-53.86 167.78-37.69 47.82 13.14 91.06 44.64 139.11 56.54 38.75 9.59 78.51 5.88 117.71 11.64 39.42 5.73 82.03 24.54 100.9 63.26 17.68 36.28 8.86 80-9.98 112.52-18.79 32.58-46.49 57.39-70.62 85.72-24.12 28.28-45.38 62.81-46.88 102.71z"/><path class="st0" d="M653.93 605.4c-.66 16.64-6.86 21.65-17.9 32.55-11.18 11-25.58 17.39-39.73 23.53-21.09 9.16-37.52 11.86-56.75 22.83-1.23.7-2.47 1.43-3.72 2.2-41.37 25.37-51.93 83.18-79.62 124.62a140.75 140.75 0 01-28.33 31.06c-41.66 33.78-100.74 42.63-151.3 18.23-61.2-29.53-103.24-105.04-96.4-175.38 5.77-59.34 41.65-109.96 44.31-169.74 1.86-41.89-13.04-83.52-15.46-125.46-2.68-46.61 10.96-92.6 36.21-128.53 8.18-11.63 17.6-22.21 28.13-31.41 43.1-37.62 103.9-51.26 160.06-35.93 45.61 12.45 86.87 42.36 132.7 53.65 36.96 9.1 74.88 5.56 112.27 11.01 37.63 5.43 78.32 23.28 96.39 60.16 16.91 34.5 8.58 76.1-9.26 107.07-17.79 31.03-44.08 54.69-66.99 81.7-22.91 26.95-43.11 59.85-44.61 97.84z"/><path class="st0" d="M645.1 597.62c-.66 15.85-6.62 20.65-17.14 31.03-10.68 10.49-24.42 16.59-37.93 22.43-20.12 8.72-35.82 11.31-54.18 21.75-1.17.66-2.36 1.36-3.56 2.09-39.52 24.14-49.83 79.07-76.37 118.48-7.61 11.3-16.79 21.2-27.11 29.55-39.84 32.16-96.16 40.52-144.4 17.11-58.06-28.17-97.98-99.81-91.52-166.61 5.45-56.36 39.45-104.46 42.02-161.23 1.8-39.77-12.3-79.3-14.49-119.1-2.44-44.29 10.69-87.92 34.79-122 7.8-11.03 16.78-21.07 26.82-29.8 41.06-35.69 98.9-48.66 152.34-34.17 43.41 11.77 82.68 40.08 126.3 50.75 35.17 8.6 71.25 5.24 106.83 10.39 35.84 5.13 74.6 22.02 91.89 57.06 16.14 32.71 8.3 72.2-8.54 101.61-16.79 29.48-41.66 51.99-63.37 77.68-21.73 25.64-40.87 56.9-42.38 92.98z"/><path class="st0" d="M636.28 589.84c-.67 15.05-6.37 19.66-16.38 29.51-10.18 9.97-23.26 15.78-36.13 21.34-19.14 8.29-34.13 10.77-51.62 20.67-1.12.63-2.25 1.29-3.39 1.99-37.68 22.91-47.72 74.97-73.12 112.34-7.28 10.72-16.04 20.11-25.89 28.03-38.02 30.53-91.58 38.4-137.5 15.98-54.92-26.82-92.73-94.57-86.65-157.84 5.12-53.38 37.25-98.97 39.73-152.72 1.73-37.66-11.56-75.08-13.53-112.73-2.2-41.96 10.42-83.23 33.36-115.47 7.43-10.43 15.97-19.93 25.51-28.19 39.03-33.77 93.9-46.06 144.61-32.4 41.2 11.09 78.49 37.8 119.89 47.86 33.38 8.11 67.62 4.91 101.39 9.76 34.04 4.82 70.89 20.77 87.38 53.95 15.37 30.93 8.03 68.31-7.83 96.16-15.8 27.93-39.24 49.29-59.74 73.66-20.5 24.3-38.57 53.94-40.09 88.1z"/><path class="st0" d="M627.45 582.06c-.67 14.26-6.12 18.66-15.62 27.99-9.68 9.46-22.11 14.97-34.34 20.25-18.17 7.85-32.44 10.22-49.05 19.59-1.07.6-2.14 1.22-3.22 1.88-35.83 21.67-45.62 70.86-69.86 106.2-6.95 10.13-15.3 19.02-24.66 26.52-36.2 28.9-87 36.29-130.6 14.85-51.79-25.47-87.47-89.34-81.78-149.07 4.8-50.4 35.05-93.47 37.43-144.2 1.67-35.54-10.81-70.85-12.57-106.37-1.96-39.64 10.14-78.55 31.93-108.94 7.06-9.84 15.16-18.79 24.2-26.58 36.99-31.84 88.9-43.46 136.89-30.64 38.99 10.41 74.3 35.53 113.48 44.97 31.59 7.61 63.99 4.59 95.94 9.14 32.25 4.52 67.18 19.51 82.88 50.85 14.59 29.14 7.75 64.41-7.11 90.7-14.8 26.38-36.82 46.59-56.12 69.64-19.28 22.97-36.29 50.97-37.82 83.22z"/><path class="st0" d="M618.63 574.28c-.68 13.46-5.87 17.66-14.86 26.47-9.18 8.94-20.95 14.17-32.54 19.15-17.2 7.42-30.74 9.68-46.48 18.5-1.01.56-2.03 1.15-3.06 1.77-33.99 20.44-43.52 66.76-66.61 100.07-6.62 9.55-14.55 17.93-23.44 25.01-34.38 27.28-82.42 34.18-123.7 13.72-48.65-24.11-82.22-84.1-76.91-140.3 4.47-47.42 32.85-87.98 35.14-135.69 1.6-33.43-10.07-66.63-11.61-100-1.72-37.32 9.87-73.86 30.51-102.41 6.68-9.24 14.34-17.65 22.89-24.96 34.96-29.92 83.89-40.85 129.17-28.88 36.78 9.72 70.11 33.25 107.07 42.07 29.8 7.12 60.36 4.27 90.5 8.51 30.46 4.22 63.47 18.25 78.37 47.74 13.82 27.36 7.47 60.51-6.39 85.25-13.8 24.83-34.41 43.9-52.49 65.63-18.08 21.64-34.03 48.01-35.56 78.35z"/><path class="st0" d="M609.81 566.5c-.68 12.67-5.63 16.66-14.1 24.94-8.68 8.43-19.79 13.36-30.74 18.06-16.22 6.98-29.05 9.13-43.91 17.42-.96.53-1.92 1.08-2.89 1.67-32.14 19.21-41.41 62.65-63.36 93.93-6.29 8.97-13.8 16.84-22.22 23.49-32.56 25.65-77.84 32.07-116.79 12.6-45.51-22.75-76.96-78.86-72.04-131.53 4.15-44.44 30.65-82.48 32.85-127.17 1.54-31.31-9.33-62.41-10.64-93.63-1.47-34.99 9.6-69.18 29.08-95.88 6.31-8.64 13.53-16.51 21.57-23.35 32.92-27.99 78.89-38.25 121.45-27.12 34.57 9.04 65.92 30.97 100.67 39.18 28.01 6.62 56.73 3.94 85.06 7.89 28.67 3.91 59.76 16.99 73.86 44.64 13.05 25.57 7.2 56.61-5.67 79.79-12.8 23.28-31.99 41.2-48.87 61.61-16.89 20.3-31.78 45.04-33.31 73.46z"/><path class="st0" d="M600.98 558.72c-.69 11.88-5.38 15.67-13.35 23.42-8.18 7.92-18.64 12.56-28.95 16.97-15.25 6.55-27.36 8.58-41.34 16.34-.9.5-1.81 1.02-2.73 1.56-30.3 17.98-39.31 58.54-60.11 87.79-5.96 8.39-13.06 15.75-21 21.98-30.74 24.03-73.26 29.96-109.89 11.47-42.37-21.39-71.71-73.63-67.17-122.76 3.83-41.46 28.46-76.98 30.56-118.66 1.47-29.2-8.58-58.18-9.68-87.27-1.23-32.67 9.33-64.49 27.65-89.35 5.93-8.05 12.72-15.37 20.26-21.74 30.89-26.06 73.89-35.65 113.72-25.36 32.36 8.36 61.74 28.69 94.26 36.28 26.22 6.13 53.1 3.62 79.62 7.26 26.88 3.61 56.04 15.73 69.36 41.53 12.28 23.79 6.87 52.68-4.95 74.34-11.84 21.69-29.57 38.5-45.24 57.59-15.65 18.99-29.48 42.1-31.02 68.61z"/><path class="st0" d="M592.16 550.94c-.69 11.08-5.13 14.67-12.59 21.9-7.68 7.4-17.48 11.75-27.15 15.87-14.28 6.11-25.67 8.04-38.77 15.26-.85.46-1.7.95-2.56 1.45-28.45 16.75-37.2 54.44-56.85 81.65-5.63 7.8-12.31 14.66-19.77 20.46-28.92 22.4-68.68 27.85-102.99 10.34-39.24-20.02-66.45-68.39-62.29-114 3.5-38.49 26.26-71.49 28.26-110.15 1.41-27.09-7.84-53.96-8.72-80.9-.99-30.35 9.06-59.81 26.23-82.82 5.56-7.45 11.9-14.23 18.95-20.13 28.85-24.14 68.89-33.05 106-23.6 30.15 7.67 57.55 26.41 87.85 33.39 24.43 5.63 49.47 3.3 74.17 6.64 25.09 3.3 52.33 14.47 64.85 38.43 11.5 22.01 6.6 48.78-4.23 68.88-10.85 20.14-27.15 35.8-41.62 53.57-14.46 17.69-27.23 39.16-28.77 63.76z"/><path class="st0" d="M583.34 543.16c-.7 10.29-4.88 13.67-11.83 20.38-7.18 6.89-16.32 10.94-25.35 14.78-13.31 5.68-23.97 7.49-36.2 14.17-.79.43-1.59.88-2.39 1.35-26.61 15.52-35.1 50.33-53.6 75.51-5.3 7.22-11.57 13.57-18.55 18.95-27.1 20.77-64.1 25.74-96.09 9.21-36.1-18.65-61.2-63.15-57.42-105.23 3.18-35.51 24.06-65.99 25.97-101.63 1.34-24.97-7.1-49.74-7.75-74.54-.74-28.03 8.79-55.12 24.8-76.28 5.18-6.85 11.09-13.09 17.64-18.52 26.82-22.21 63.89-30.44 98.28-21.84 27.94 6.99 53.36 24.13 81.44 30.5 22.64 5.14 45.84 2.97 68.73 6.01 23.3 3 48.62 13.21 60.35 35.32 10.73 20.22 6.31 44.87-3.52 63.43-9.85 18.59-24.74 33.1-37.99 49.55-13.27 16.35-24.98 36.19-26.52 58.88z"/><path class="st0" d="M574.51 535.38c-.71 9.5-4.62 12.69-11.07 18.86-6.67 6.39-15.16 10.14-23.55 13.69-12.33 5.24-22.28 6.95-33.63 13.09-.74.39-1.48.81-2.23 1.24-24.76 14.29-33 46.23-50.35 69.38a88.61 88.61 0 01-17.33 17.43c-25.28 19.15-59.52 23.64-89.19 8.09-32.97-17.28-55.94-57.92-52.55-96.46 2.86-32.53 21.86-60.49 23.68-93.12 1.28-22.86-6.35-45.52-6.79-68.17-.5-25.7 8.52-50.44 23.37-69.75 4.81-6.25 10.28-11.95 16.33-16.91 24.78-20.29 58.89-27.84 90.56-20.07 25.73 6.31 49.17 21.85 75.03 27.6 20.85 4.64 42.2 2.69 63.29 5.39 21.5 2.74 44.9 11.95 55.84 32.22 9.95 18.44 6.04 40.97-2.8 57.97-8.85 17.04-22.32 30.4-34.37 45.53-12.04 15.01-22.69 33.22-24.24 53.99z"/><path class="st0" d="M565.69 527.6c-.71 8.7-4.38 11.69-10.31 17.34-6.17 5.88-14.01 9.33-21.76 12.59-11.36 4.81-20.57 6.42-31.06 12.01-.68.36-1.37.74-2.06 1.13-22.92 13.06-30.89 42.12-47.1 63.24a83.697 83.697 0 01-16.1 15.92c-23.46 17.52-54.94 21.53-82.29 6.96-29.84-15.9-50.69-52.68-47.68-87.69 2.53-29.55 19.66-55 21.39-84.61 1.21-20.74-5.6-41.3-5.83-61.8-.25-23.38 8.25-45.75 21.95-63.22 4.44-5.66 9.46-10.81 15.02-15.3 22.75-18.36 53.88-25.24 82.83-18.31 23.52 5.62 44.98 19.57 68.63 24.71 19.06 4.15 38.57 2.37 57.85 4.76 19.71 2.44 41.18 10.69 51.33 29.11 9.17 16.65 5.76 37.07-2.08 52.52-7.86 15.49-19.87 27.73-30.74 41.51-10.83 13.72-20.44 30.27-21.99 49.13z"/><path class="st0" d="M556.86 519.82c-.72 7.91-4.13 10.7-9.55 15.82-5.67 5.36-12.85 8.52-19.96 11.5-10.39 4.37-18.88 5.88-28.5 10.93-.63.33-1.26.67-1.89 1.03-21.07 11.83-28.79 38.02-43.85 57.1a77.736 77.736 0 01-14.88 14.4c-21.64 15.9-50.35 19.44-75.39 5.83-26.71-14.51-45.43-47.44-42.81-78.92 2.21-26.57 17.46-49.5 19.1-76.09 1.15-18.63-4.86-37.08-4.86-55.44-.01-21.07 7.98-41.07 20.52-56.69 4.06-5.06 8.65-9.67 13.71-13.68 20.71-16.44 48.88-22.64 75.11-16.55 21.31 4.94 40.79 17.29 62.22 21.82 17.27 3.65 34.94 2.05 52.41 4.13 17.92 2.14 37.47 9.43 46.83 26.01 8.39 14.87 5.48 33.17-1.36 47.06-6.86 13.94-17.46 25.03-27.12 37.49-9.62 12.39-18.18 27.31-19.73 44.25z"/><path class="st0" d="M548.04 512.04c-.73 7.12-3.88 9.7-8.79 14.3-5.17 4.85-11.69 7.72-18.16 10.41-9.41 3.93-17.19 5.33-25.93 9.84-.57.3-1.15.6-1.73.92-19.23 10.6-26.68 33.91-40.59 50.96a72.525 72.525 0 01-13.66 12.89c-19.82 14.27-45.77 17.34-68.49 4.7-23.58-13.12-40.18-42.21-37.94-70.15 1.89-23.59 15.26-44.01 16.8-67.58 1.08-16.52-4.11-32.86-3.9-49.07.24-18.75 7.71-36.38 19.1-50.16 3.69-4.46 7.84-8.53 12.39-12.07 18.68-14.51 43.88-20.04 67.39-14.79 19.1 4.26 36.61 15.01 55.81 18.92 15.48 3.16 31.31 1.73 46.96 3.51 16.13 1.84 33.75 8.16 42.32 22.9 7.61 13.08 5.2 29.27-.64 41.61-5.86 12.39-15.04 22.34-23.49 33.47-8.4 11.07-15.91 24.36-17.45 39.39z"/><path class="st0" d="M539.22 504.26c-.74 6.33-3.64 8.7-8.03 12.78-4.67 4.33-10.54 6.91-16.37 9.31-8.44 3.5-15.5 4.79-23.36 8.76-.52.26-1.04.53-1.56.81-17.38 9.37-24.58 29.81-37.34 44.82a67.13 67.13 0 01-12.44 11.37c-18 12.65-41.19 15.25-61.59 3.58-20.45-11.7-34.92-36.97-33.06-61.38 1.56-20.61 13.06-38.51 14.51-59.07 1.02-14.4-3.35-28.64-2.94-42.71.49-16.43 7.44-31.7 17.67-43.63 3.31-3.86 7.02-7.39 11.08-10.46 16.64-12.59 38.88-17.43 59.67-13.03 16.89 3.58 32.42 12.73 49.4 16.03 13.69 2.66 27.68 1.4 41.52 2.88 14.34 1.53 30.02 6.9 37.81 19.8 6.83 11.3 4.92 25.38.08 36.15-4.87 10.84-12.62 19.64-19.87 29.46-7.18 9.76-13.65 21.42-15.18 34.53z"/><path class="st0" d="M530.39 496.48c-.75 5.54-3.39 7.7-7.27 11.26-4.17 3.82-9.38 6.11-14.57 8.22-7.47 3.06-13.8 4.24-20.79 7.68-.46.23-.93.46-1.4.71-15.53 8.14-22.47 25.7-34.09 38.69a62.31 62.31 0 01-11.21 9.86c-16.18 11.02-36.6 13.17-54.69 2.45-17.33-10.28-29.67-31.73-28.19-52.61 1.24-17.63 10.86-33.01 12.22-50.55.95-12.29-2.6-24.43-1.98-36.34.74-14.12 7.17-27.01 16.24-37.1a63.63 63.63 0 019.77-8.85c14.6-10.66 33.88-14.83 51.94-11.27 14.68 2.89 28.23 10.45 43 13.14 11.89 2.17 24.05 1.08 36.08 2.26 12.55 1.23 26.3 5.64 33.31 16.7 6.04 9.52 4.64 21.48.79 30.7-3.87 9.29-10.2 16.94-16.24 25.44-5.97 8.38-11.4 18.41-12.92 29.61z"/><path class="st0" d="M521.57 488.7c-.76 4.75-3.14 6.71-6.51 9.74-3.67 3.3-8.22 5.3-12.77 7.13-6.49 2.63-12.11 3.69-18.22 6.6-.41.19-.82.39-1.23.6-13.69 6.9-20.37 21.6-30.84 32.55a56.712 56.712 0 01-9.99 8.34c-14.34 9.43-32.02 11.11-47.79 1.32-14.22-8.82-24.41-26.5-23.32-43.84.92-14.65 8.66-27.52 9.93-42.04.89-10.17-1.83-20.22-1.01-29.98 1-11.81 6.89-22.33 14.82-30.57a56.34 56.34 0 018.46-7.24c12.57-8.73 28.88-12.23 44.22-9.51 12.47 2.21 24.04 8.17 36.59 10.24 10.1 1.67 20.42.75 30.64 1.63 10.76.92 22.56 4.37 28.8 13.59 5.24 7.74 4.36 17.58 1.51 25.24-2.87 7.74-7.78 14.24-12.62 21.42-4.78 7.1-9.18 15.5-10.67 24.78z"/><path class="st0" d="M512.75 480.92c-.78 3.96-2.9 5.71-5.75 8.22-3.17 2.79-7.06 4.49-10.98 6.03-5.52 2.19-10.42 3.14-15.65 5.51-.35.16-.71.32-1.06.49-11.84 5.67-18.27 17.49-27.58 26.41-2.66 2.55-5.6 4.86-8.77 6.83-12.52 7.8-27.44 9.07-40.88.19-11.11-7.34-19.16-21.26-18.45-35.07.59-11.68 6.46-22.02 7.63-33.52.82-8.06-1.06-16.01-.05-23.61 1.26-9.51 6.62-17.64 13.39-24.04 2.19-2.07 4.58-3.97 7.15-5.63 10.54-6.81 23.87-9.63 36.5-7.74 10.26 1.53 19.85 5.89 30.18 7.35 8.31 1.18 16.79.43 25.19 1.01 8.96.62 18.82 3.11 24.3 10.49 4.43 5.96 4.08 13.68 2.23 19.79-1.88 6.19-5.36 11.54-9 17.4-3.57 5.75-6.95 12.53-8.4 19.89z"/><path class="st0" d="M503.92 473.14c-.81 3.17-2.65 4.71-5 6.7-2.68 2.27-5.91 3.69-9.18 4.94-4.55 1.76-8.73 2.59-13.08 4.43-.3.13-.6.25-.9.39-10 4.44-16.16 13.38-24.33 20.27a51.583 51.583 0 01-7.54 5.31c-10.71 6.17-22.87 7.08-33.98-.93-8.03-5.79-13.9-16.03-13.58-26.3.27-8.7 4.26-16.52 5.34-25.01.75-5.95-.26-11.8.91-17.24 1.56-7.22 6.35-12.96 11.96-17.51 1.82-1.47 3.77-2.82 5.84-4.02 8.5-4.88 18.87-7.02 28.78-5.98 8.06.84 15.66 3.61 23.77 4.46 6.52.68 13.16.1 19.75.38 7.17.31 15.05 1.86 19.79 7.38 3.6 4.19 3.81 9.79 2.95 14.33-.88 4.65-2.95 8.84-5.37 13.38-2.36 4.42-4.73 9.57-6.13 15.02z"/></svg>