<svg version="1.1" id="Layer_1" xmlns="http://www.w3.org/2000/svg" x="0" y="0" viewBox="0 0 1450 1150" xml:space="preserve"><style>.st0{fill:none;stroke:#e1e6e7;stroke-width:.75;stroke-miterlimit:10}</style><path class="st0" d="M897.81 122.39c46.09 56.55 115.82 81.93 182.64 94.95 66.82 13.02 135.24 16.59 199.84 41.61 64.59 25.01 127.28 77.84 143.62 149.88 17.26 76.07-21.42 150.57-70.62 202.57s-110.01 90.79-154.19 147.93c-54.78 70.85-80.15 164.96-133.14 237.46-65.24 89.26-172.31 139.5-280.72 131.72-108.41-7.78-215.62-73.4-281.09-172.04-44.9-67.64-70.84-148.97-122.74-210.57-74.08-87.93-188.63-121.41-267.59-204.17-93.62-98.12-119.66-263.12-59.8-378.9C113.88 47.04 253.82-8.27 375.37 35.82c87.54 31.75 168.26 108.93 257.75 100.2 45.54-4.44 72.87-20.25 117.03-31.39 27.66-6.98 55.99-14.01 84.83-10.39 28.85 3.6 43.04 3.86 62.83 28.15z"/><path class="st0" d="M895.19 136.22c-19.22-23.53-33.02-23.79-60.99-27.28-28-3.49-55.48 3.32-82.33 10.11-40.29 10.17-66.17 24.35-105.84 29.62-2.52.33-5.09.63-7.73.89-86.85 8.54-165.21-66.12-250.17-96.79-24.37-8.8-49.49-13.49-74.54-14.41C217.37 34.84 122.38 87.05 76.4 176.3c-57.94 112.17-32.7 271.97 57.96 367.03 76.47 80.18 187.4 112.66 259.17 197.81 50.27 59.67 75.45 138.4 118.96 203.86 48 72.13 119.04 125.96 196.22 151.2 24.98 8.17 50.61 13.34 76.31 15.16 105.07 7.46 208.84-41.25 272.13-127.71 51.4-70.22 76.08-161.37 129.21-230.02 42.85-55.36 101.8-92.96 149.51-143.35 47.73-50.4 85.28-122.58 68.64-196.33-15.78-69.78-76.42-120.98-138.93-145.26-62.51-24.28-128.75-27.81-193.46-40.47-64.72-12.65-132.25-37.24-176.93-92z"/><path class="st0" d="M892.57 150.05c-18.65-22.77-32.05-23.02-59.16-26.4-27.15-3.37-53.8 3.24-79.83 9.82-39.05 9.87-64.17 23.63-102.62 28.75-2.44.33-4.93.62-7.49.87-84.2 8.34-160.21-63.78-242.59-93.38-23.63-8.49-47.99-13.01-72.27-13.87-93.31-3.32-185.38 47.3-229.84 133.94-56.01 108.56-31.58 263.17 56.12 355.17 73.97 77.6 181.28 109.09 250.75 191.45 48.67 57.7 73.07 133.84 115.21 197.13 46.54 69.74 115.35 121.73 190.08 146.07 24.19 7.88 49 12.86 73.88 14.61 101.73 7.13 202.21-40.03 263.54-123.7 49.81-67.96 73.79-156.14 125.28-222.57 41.52-53.58 98.6-89.99 144.82-138.76 46.26-48.8 82.68-118.66 66.66-190.08-15.22-67.53-73.82-117.09-134.25-140.63-60.43-23.55-124.48-27.04-187.08-39.34-62.6-12.3-127.95-36.12-171.21-89.08z"/><path class="st0" d="M889.94 163.89c-18.08-22.01-31.08-22.26-57.33-25.52-26.3-3.26-52.11 3.15-77.33 9.53-37.81 9.57-62.17 22.9-99.4 27.89-2.36.32-4.78.6-7.25.85-81.55 8.15-155.2-61.45-235.01-89.97-22.89-8.18-46.48-12.52-70-13.34-90.4-3.12-179.54 45.91-222.5 129.94-54.09 104.95-30.46 254.36 54.28 343.3 71.48 75.03 175.17 105.51 242.33 185.09 47.06 55.75 70.69 129.29 111.44 190.41 45.07 67.35 111.65 117.51 183.93 140.95 23.4 7.59 47.4 12.38 71.46 14.05 98.39 6.81 195.57-38.82 254.95-119.7 48.23-65.69 71.51-150.91 121.35-215.13 40.19-51.79 95.41-87.01 140.14-134.17 44.79-47.19 80.07-114.75 64.69-183.84-14.66-65.27-71.22-113.2-129.56-136-58.35-22.82-120.22-26.26-180.71-38.2-60.47-11.94-123.62-34.98-165.48-86.14z"/><path class="st0" d="M887.32 177.72c-17.51-21.25-30.12-21.5-55.49-24.64-25.45-3.14-50.43 3.06-74.83 9.25-36.57 9.26-60.17 22.17-96.18 27.02-2.29.31-4.63.59-7.02.83-78.9 7.96-150.2-59.12-227.43-86.55-22.15-7.87-44.98-12.04-67.73-12.81-87.48-2.92-173.53 44.63-215.15 125.93-51.94 101.48-29.34 245.55 52.44 331.44 68.99 72.45 169.05 101.93 233.91 178.73 45.44 53.81 68.3 124.74 107.68 183.68 43.61 64.96 107.95 113.28 177.79 135.83 22.61 7.3 45.79 11.9 69.04 13.49 95.06 6.48 188.93-37.6 246.36-115.69 46.64-63.42 69.23-145.68 117.42-207.69 38.87-50.01 92.22-84.04 135.46-129.58 43.32-45.59 77.47-110.83 62.71-177.6-14.09-63.02-68.62-109.31-124.88-131.38-56.26-22.09-115.95-25.49-174.33-37.07-58.36-11.56-119.33-33.83-159.77-83.19z"/><path class="st0" d="M884.7 191.55c-16.93-20.49-29.15-20.74-53.66-23.76-24.6-3.02-48.74 2.97-72.33 8.96-35.33 8.96-58.16 21.44-92.95 26.16-2.21.3-4.47.57-6.78.81-76.26 7.77-145.19-56.78-219.84-83.14-21.41-7.56-43.47-11.56-65.47-12.27-84.57-2.72-167.65 43.27-207.8 121.93-49.97 97.91-28.22 236.74 50.61 319.58 66.49 69.87 162.93 98.35 225.49 172.37 43.83 51.86 65.92 120.19 103.91 176.96 42.15 62.57 104.26 109.05 171.64 130.7 21.82 7.01 44.19 11.42 66.62 12.93 91.72 6.16 182.29-36.39 237.76-111.68 45.06-61.15 66.94-140.45 113.49-200.25 37.54-48.23 89.02-81.07 130.77-124.99 41.85-43.99 74.87-106.91 60.73-171.35-13.53-60.76-66.01-105.43-120.19-126.75-54.18-21.36-111.68-24.72-167.95-35.93-56.25-11.22-115.02-32.72-154.05-80.28z"/><path class="st0" d="M882.08 205.38c-16.32-19.76-28.18-19.98-51.82-22.88-23.75-2.9-47.06 2.88-69.83 8.67-34.09 8.66-56.16 20.72-89.73 25.3-2.13.29-4.32.55-6.55.78-73.61 7.57-140.19-54.45-212.26-79.73-20.67-7.25-41.97-11.08-63.2-11.74-81.66-2.52-161.77 41.9-200.45 117.93-47.99 94.33-27.11 227.94 48.77 307.71 64 67.29 156.82 94.78 217.07 166.01 42.21 49.91 63.43 115.72 100.15 170.24 40.58 60.27 100.56 104.82 165.5 125.58 21.02 6.72 42.58 10.94 64.19 12.37 88.38 5.83 175.65-35.17 229.17-107.67 43.47-58.88 64.66-135.22 109.56-192.81 36.21-46.44 85.83-78.09 126.09-120.4 40.38-42.39 72.39-103.01 58.76-165.11-12.85-58.53-63.41-101.54-115.51-122.12-52.1-20.63-107.42-23.94-161.57-34.8-54.14-10.84-110.63-31.65-148.34-77.33z"/><path class="st0" d="M879.45 219.22c-15.74-19.01-27.22-19.22-49.99-22-22.9-2.78-45.37 2.8-67.33 8.39-32.85 8.35-54.16 19.99-86.51 24.43-2.06.28-4.16.54-6.31.76-70.96 7.38-135.19-52.12-204.68-76.32-19.93-6.94-40.46-10.59-60.93-11.21-78.74-2.32-155.89 40.54-193.1 113.92-46.01 90.75-25.99 219.13 46.93 295.85 61.51 64.72 150.7 91.2 208.65 159.64 40.6 47.96 61.03 111.18 96.38 163.52 39.1 57.89 96.86 100.59 159.35 120.46 20.23 6.43 40.97 10.46 61.77 11.81 85.04 5.51 169.02-33.96 220.58-103.66 41.88-56.61 62.38-129.99 105.63-185.37 34.88-44.66 82.64-75.12 121.41-115.82 38.91-40.78 69.81-99.1 56.78-158.87-12.27-56.28-60.81-97.65-110.82-117.5-50.02-19.9-103.15-23.17-155.2-33.67-52.01-10.45-106.29-30.5-142.61-74.36z"/><path class="st0" d="M876.83 233.05c-15.16-18.26-26.25-18.46-48.16-21.12-22.05-2.66-43.69 2.71-64.83 8.1-31.61 8.05-52.16 19.26-83.29 23.57-1.98.28-4 .52-6.08.74-68.31 7.19-130.18-49.78-197.1-72.91-19.19-6.63-38.96-10.11-58.66-10.67-75.83-2.12-150.01 39.17-185.75 109.92-44.04 87.17-24.87 210.32 45.09 283.98 59.01 62.14 144.59 87.62 200.23 153.28 38.99 46.01 58.63 106.64 92.61 156.79 37.62 55.52 93.16 96.37 153.21 115.34 19.44 6.14 39.37 9.98 59.35 11.25 81.71 5.18 162.38-32.74 211.99-99.66 40.3-54.35 60.09-124.76 101.7-177.93 33.55-42.88 79.44-72.15 116.73-111.23 37.44-39.18 67.23-95.19 54.8-152.62-11.69-54.03-58.2-93.76-106.14-112.87-47.93-19.17-98.88-22.39-148.82-32.53-49.89-10.09-101.96-29.38-136.88-71.43z"/><path class="st0" d="M874.21 246.88c-14.58-17.5-25.29-17.7-46.32-20.25-21.2-2.54-42 2.62-62.32 7.81-30.37 7.75-50.16 18.53-80.06 22.7-1.9.27-3.85.51-5.84.72-65.67 7-125.18-47.45-189.52-69.5-18.45-6.33-37.45-9.63-56.39-10.14-72.91-1.92-144.13 37.81-178.4 105.92-42.06 83.59-23.75 201.51 43.25 272.12 56.52 59.56 138.47 84.04 191.81 146.92 37.37 44.06 56.23 102.11 88.85 150.07 36.14 53.14 89.47 92.14 147.06 110.21 18.65 5.85 37.76 9.5 56.92 10.69 78.37 4.86 155.74-31.53 203.4-95.65 38.71-52.08 57.81-119.53 97.77-170.49 32.22-41.09 76.25-69.18 112.04-106.64 35.97-37.58 64.64-91.27 52.82-146.38-11.1-51.77-55.6-89.88-101.45-108.24-45.85-18.44-94.62-21.62-142.44-31.4-47.79-9.7-97.66-28.23-131.18-68.47z"/><path class="st0" d="M871.58 260.72c-14-16.75-24.32-16.94-44.49-19.37-20.35-2.42-40.31 2.53-59.82 7.52-29.13 7.44-48.16 17.81-76.84 21.84-1.83.26-3.69.49-5.61.7-63.02 6.8-120.18-45.11-181.93-66.09-17.71-6.02-35.95-9.15-54.13-9.61-70-1.72-138.26 36.45-171.05 101.91-40.09 80.01-22.63 192.7 41.41 260.25 54.02 56.98 132.36 80.46 183.39 140.56 35.76 42.11 53.83 97.57 85.08 143.35 34.66 50.77 85.77 87.91 140.92 105.09 17.85 5.56 36.15 9.02 54.5 10.13 75.03 4.54 149.1-30.31 194.81-91.64 37.12-49.81 55.53-114.3 93.85-163.05 30.9-39.31 73.06-66.2 107.36-102.05 34.5-35.98 62.06-87.36 50.85-140.14-10.52-49.52-53-85.99-96.77-103.62-43.77-17.71-90.35-20.85-136.07-30.26-45.67-9.34-93.33-27.1-125.46-65.52z"/><path class="st0" d="M868.96 274.55c-13.42-15.99-23.35-16.18-42.65-18.49-19.5-2.3-38.63 2.44-57.32 7.24-27.89 7.14-46.16 17.08-73.62 20.98-1.75.25-3.54.48-5.37.68-60.37 6.61-115.17-42.78-174.35-62.68-16.97-5.71-34.44-8.67-51.86-9.08-67.09-1.52-132.38 35.08-163.7 97.91-38.11 76.43-21.51 183.9 39.58 248.39 51.53 54.41 126.24 76.89 174.97 134.2 34.14 40.16 51.43 93.04 81.32 136.63 33.18 48.39 82.07 83.68 134.77 99.97 17.06 5.27 34.55 8.54 52.08 9.57 71.69 4.21 142.47-29.1 186.22-87.63 35.54-47.54 53.25-109.07 89.92-155.61 29.57-37.53 69.87-63.23 102.68-97.46 33.03-34.37 59.48-83.44 48.87-133.89-9.94-47.27-50.4-82.1-92.08-98.99-41.68-16.98-86.08-20.07-129.69-29.13-43.58-9-89.04-26-119.77-62.61z"/><path class="st0" d="M866.34 288.38c-12.85-15.24-22.39-15.42-40.82-17.61-18.65-2.18-36.94 2.35-54.82 6.95-26.65 6.84-44.16 16.35-70.4 20.11-1.67.24-3.39.46-5.14.66-57.72 6.42-110.17-40.45-166.77-59.27-16.23-5.4-32.94-8.18-49.59-8.54-64.17-1.32-126.5 33.72-156.36 93.91-36.14 72.85-20.39 175.09 37.74 236.52 49.04 51.83 120.13 73.31 166.55 127.84 32.53 38.21 49.03 88.5 77.55 129.9 31.7 46.02 78.37 79.45 128.63 94.85 16.27 4.98 32.94 8.06 49.65 9.01 68.36 3.89 135.83-27.88 177.63-83.62 33.95-45.27 50.96-103.84 85.99-148.17 28.24-35.75 66.67-60.26 97.99-92.87 31.56-32.77 56.9-79.53 46.89-127.65-9.36-45.02-47.79-78.21-87.4-94.36-39.6-16.25-81.82-19.3-123.31-27.99-41.43-8.63-84.68-24.87-114.01-59.67z"/><path class="st0" d="M863.72 302.21c-12.27-14.49-21.42-14.66-38.99-16.73-17.8-2.06-35.26 2.27-52.32 6.66-25.42 6.53-42.16 15.62-67.18 19.25-1.6.23-3.23.45-4.9.63-55.07 6.23-105.16-38.11-159.19-55.86-15.49-5.09-31.43-7.7-47.32-8.01-61.26-1.12-120.62 32.35-149.01 89.9-34.17 69.27-19.27 166.28 35.9 224.66 46.54 49.25 114.01 69.73 158.13 121.48 30.91 36.26 46.63 83.96 73.79 123.18 30.22 43.64 74.68 75.23 122.48 89.72 15.48 4.69 31.34 7.58 47.23 8.45 65.02 3.56 129.19-26.67 169.04-79.61 32.37-43.01 48.68-98.61 82.06-140.72 26.91-33.96 63.48-57.29 93.31-88.28 30.1-31.17 54.32-75.61 44.91-121.41-8.78-42.76-45.19-74.33-82.71-89.74-37.52-15.52-77.55-18.52-116.93-26.86-39.32-8.24-80.37-23.72-108.3-56.71z"/><path class="st0" d="M861.09 316.05c-11.69-13.73-20.46-13.89-37.15-15.85-16.95-1.95-33.57 2.18-49.82 6.38-24.18 6.23-40.16 14.9-63.95 18.38-1.52.23-3.08.43-4.66.61-52.43 6.03-100.16-35.78-151.61-52.45-14.75-4.78-29.93-7.22-45.05-7.47-58.35-.92-114.74 30.98-141.66 85.9-32.2 65.69-18.15 157.47 34.06 212.79 44.05 46.68 107.9 66.15 149.71 115.12 29.3 34.31 44.22 79.43 70.02 116.46 28.75 41.27 70.98 71 116.34 84.6 14.68 4.4 29.73 7.1 44.81 7.9 61.68 3.24 122.55-25.45 160.45-75.61 30.78-40.74 46.4-93.38 78.13-133.28 25.58-32.18 60.29-54.31 88.63-83.7 28.63-29.56 51.73-71.69 42.94-115.16-8.2-40.51-42.59-70.44-78.02-85.11-35.44-14.78-73.29-17.75-110.56-25.72-37.23-7.9-76.08-22.62-102.61-53.79z"/><path class="st0" d="M858.47 329.88c-11.11-12.98-19.49-13.13-35.32-14.97-16.1-1.83-31.89 2.09-47.32 6.09-22.94 5.93-38.16 14.17-60.73 17.52-1.45.22-2.92.42-4.43.59-49.78 5.84-95.16-33.45-144.03-49.03-14.01-4.47-28.42-6.74-42.79-6.94-55.43-.72-108.86 29.62-134.31 81.89-30.23 62.1-17.03 148.66 32.22 200.93 41.56 44.1 101.78 62.57 141.29 108.76 27.68 32.36 41.82 74.89 66.25 109.74 27.27 38.89 67.28 66.77 110.19 79.48 13.89 4.11 28.12 6.62 42.39 7.34 58.34 2.91 115.92-24.24 151.86-71.6 29.19-38.47 44.11-88.15 74.2-125.84 24.26-30.4 57.09-51.34 83.94-79.11 27.16-27.96 49.15-67.78 40.96-108.92-7.62-38.26-39.99-66.55-73.34-80.48-33.35-14.05-69.02-16.98-104.18-24.59-35.07-7.54-71.72-21.5-96.85-50.86z"/><path class="st0" d="M855.85 343.71c-10.53-12.22-18.52-12.37-33.48-14.09-15.25-1.71-30.2 2-44.82 5.8-21.7 5.62-36.16 13.44-57.51 16.66-1.37.21-2.77.4-4.19.57-47.13 5.65-90.15-31.11-136.44-45.62-13.27-4.16-26.92-6.25-40.52-6.41-52.52-.52-102.99 28.25-126.96 77.89-28.26 58.51-15.91 139.86 30.39 189.07 39.06 41.52 95.67 59 132.87 102.4 26.07 30.41 39.43 70.36 62.49 103.01 25.79 36.52 63.59 62.54 104.05 74.36 13.1 3.82 26.52 6.14 39.96 6.78 55.01 2.59 109.28-23.02 143.27-67.59 27.61-36.2 41.83-82.91 70.27-118.4 22.93-28.62 53.9-48.37 79.26-74.52 25.69-26.36 46.57-63.86 38.98-102.68-7.04-36-37.38-62.66-68.65-75.86-31.27-13.32-64.75-16.2-97.8-23.45-33-7.17-67.44-20.37-91.17-47.92z"/><path class="st0" d="M853.22 357.54c-9.95-11.47-17.56-11.61-31.65-13.21-14.4-1.59-28.52 1.91-42.32 5.52-20.46 5.32-34.16 12.71-54.28 15.79-1.29.2-2.61.38-3.96.55-44.48 5.46-85.15-28.78-128.86-42.21-12.53-3.85-25.41-5.77-38.25-5.88-49.61-.32-97.11 26.88-119.61 73.89-26.29 54.93-14.79 131.05 28.55 177.2 36.57 38.94 89.55 55.42 124.45 96.04 24.46 28.46 37.03 65.82 58.72 96.29 24.31 34.15 59.89 58.31 97.9 69.23 12.31 3.53 24.91 5.66 37.54 6.22 51.67 2.26 102.64-21.81 134.68-63.58 26.02-33.93 39.55-77.68 66.34-110.96 21.6-26.83 50.71-45.4 74.58-69.93 24.22-24.75 43.98-59.94 37.01-96.43-6.46-33.75-34.78-58.77-63.97-71.23-29.19-12.59-60.49-15.43-91.43-22.32-30.87-6.8-63.1-19.24-85.44-44.98z"/><path class="st0" d="M850.6 371.38c-9.38-10.71-16.59-10.85-29.82-12.33-13.55-1.47-26.83 1.83-39.81 5.23-19.22 5.02-32.16 11.99-51.06 14.93-1.22.19-2.46.37-3.72.53-41.84 5.26-80.15-26.45-121.28-38.8-11.79-3.55-23.91-5.29-35.98-5.34-46.69-.12-91.23 25.51-112.26 69.88-24.33 51.34-13.67 122.24 26.71 165.34 34.07 36.37 83.43 51.84 116.03 89.68 22.84 26.51 34.63 61.28 54.96 89.57 22.84 31.77 56.19 54.09 91.76 64.11 11.52 3.24 23.3 5.18 35.12 5.66 48.33 1.94 96-20.59 126.08-59.57 24.44-31.66 37.26-72.45 62.41-103.52 20.27-25.05 47.51-42.42 69.9-65.34 22.75-23.15 41.4-56.03 35.03-90.19-5.88-31.5-32.2-54.82-59.28-66.6-27.13-11.8-56.22-14.65-85.05-21.18-28.77-6.46-58.81-18.14-79.74-42.06z"/><path class="st0" d="M847.98 385.21c-8.8-9.96-15.62-10.09-27.98-11.45-12.7-1.35-25.15 1.74-37.31 4.94-17.98 4.71-30.15 11.26-47.84 14.06-1.14.18-2.3.35-3.49.51-39.19 5.07-75.14-24.11-113.7-35.39-11.05-3.24-22.4-4.81-33.71-4.81-43.78.08-85.35 24.13-104.91 65.88-22.37 47.74-12.56 113.43 24.87 153.47 31.58 33.79 77.32 48.26 107.61 83.32 21.23 24.56 32.23 56.75 51.19 82.85 21.36 29.4 52.49 49.86 85.61 58.99 10.72 2.95 21.7 4.7 32.69 5.1 44.99 1.62 89.37-19.38 117.49-55.57 22.85-29.4 34.98-67.22 58.48-96.08 18.94-23.27 44.32-39.45 65.21-60.75 21.28-21.55 38.82-52.11 33.05-83.95-5.3-29.24-29.6-50.93-54.6-61.98-25.04-11.06-51.96-13.88-78.67-20.05-26.63-6.06-54.46-16.98-73.99-39.09z"/><path class="st0" d="M845.36 399.04c-8.22-9.21-14.66-9.33-26.15-10.57-11.85-1.23-23.46 1.65-34.81 4.66-16.74 4.41-28.15 10.53-44.62 13.2-1.06.18-2.15.34-3.25.49-36.54 4.88-70.14-21.78-106.12-31.98-10.31-2.93-20.9-4.32-31.44-4.28-40.87.28-79.48 22.76-97.57 61.88-20.41 44.15-11.44 104.63 23.03 141.61 29.09 31.21 71.2 44.68 99.2 76.96 19.61 22.61 29.83 52.21 47.42 76.12 19.88 27.03 48.8 45.63 79.47 53.86 9.93 2.67 20.09 4.22 30.27 4.54 41.66 1.29 82.73-18.16 108.9-51.56 21.27-27.13 32.7-61.99 54.55-88.64 17.62-21.48 41.13-36.48 60.53-56.17 19.81-19.95 36.23-48.19 31.07-77.7-4.72-26.99-27-47.04-49.91-57.35-22.96-10.33-47.69-13.11-72.3-18.91-24.51-5.7-50.15-15.85-68.27-36.16z"/><path class="st0" d="M842.73 412.88c-7.64-8.45-13.69-8.59-24.31-9.69-11-1.14-21.77 1.56-32.31 4.37-15.5 4.11-26.15 9.8-41.4 12.34-.99.17-1.99.32-3.02.46-33.89 4.69-65.13-19.44-98.54-28.57-9.57-2.62-19.39-3.84-29.18-3.74-37.95.48-73.6 21.38-90.22 57.87-18.46 40.55-10.32 95.82 21.2 129.74 26.59 28.64 65.09 41.11 90.78 70.6 18 20.66 27.44 47.68 43.66 69.4 18.41 24.65 45.1 41.4 73.32 48.74 9.14 2.38 18.49 3.74 27.85 3.98 38.32.97 76.09-16.95 100.31-47.55 19.68-24.86 30.41-56.76 50.62-81.2 16.29-19.7 37.9-33.55 55.85-51.58 18.3-18.39 33.65-44.27 29.1-71.46-4.14-24.73-24.39-43.15-45.23-52.72-20.88-9.6-43.42-12.33-65.92-17.78-22.4-5.33-45.83-14.72-62.56-33.21z"/><path class="st0" d="M840.11 426.71c-7.07-7.7-12.72-7.83-22.48-8.81-10.15-1.02-20.09 1.47-29.81 4.08-14.26 3.8-24.16 9.04-38.17 11.47-.91.16-1.84.31-2.78.44-31.25 4.49-60.13-17.11-90.95-25.16a99.771 99.771 0 00-26.91-3.21c-35.04.68-67.73 20.01-82.87 53.87-16.51 36.94-9.2 87.01 19.36 117.88 24.1 26.06 58.97 37.53 82.36 64.23 16.38 18.71 25.04 43.14 39.89 62.68 16.94 22.28 41.4 37.17 67.18 43.62 8.35 2.09 16.88 3.26 25.43 3.42 34.98.64 69.45-15.73 91.72-43.54 18.09-22.59 28.13-51.53 46.69-73.76 14.96-17.92 34.71-30.57 51.16-46.99 16.83-16.78 31.06-40.35 27.12-65.21-3.57-22.47-21.79-39.26-40.54-48.1-18.8-8.86-39.15-11.61-59.54-16.64-20.3-5.01-41.54-13.59-56.86-30.27z"/><path class="st0" d="M837.49 440.54c-6.49-6.94-11.76-7.07-20.64-7.93-9.3-.9-18.4 1.38-27.31 3.79-13.02 3.5-22.16 8.31-34.95 10.61-.83.15-1.68.29-2.54.42-28.6 4.3-55.13-14.78-83.37-21.75a93.26 93.26 0 00-24.64-2.68c-32.13.88-61.86 18.62-75.52 49.87-14.57 33.33-8.08 78.2 17.52 106.01 21.61 23.48 52.86 33.95 73.94 57.87 14.77 16.76 22.65 38.6 36.13 55.96 15.46 19.91 37.7 32.95 61.03 38.5 7.56 1.8 15.27 2.78 23 2.86 31.64.32 62.82-14.52 83.13-39.53 16.51-20.32 25.85-46.3 42.76-66.32 13.63-16.13 31.51-27.6 46.48-42.4 15.36-15.18 28.48-36.43 25.14-58.97-2.99-20.21-19.19-35.37-35.85-43.47-16.72-8.13-34.88-10.83-53.16-15.51-18.19-4.64-37.25-12.45-51.15-27.33z"/><path class="st0" d="M834.86 454.37c-5.92-6.19-10.79-6.31-18.81-7.05-8.45-.78-16.72 1.3-24.81 3.51-11.78 3.2-20.16 7.59-31.73 9.74-.76.14-1.52.28-2.31.4-25.95 4.11-50.12-12.44-75.79-18.34-7.35-1.69-14.88-2.39-22.37-2.15-29.21 1.07-55.99 17.23-68.17 45.86-12.64 29.71-6.96 69.39 15.68 94.15 19.11 20.91 46.74 30.37 65.52 51.51 13.15 14.81 20.26 34.07 32.36 49.23 14 17.54 34.01 28.72 54.89 33.37 6.76 1.51 13.67 2.3 20.58 2.3 28.31-.01 56.18-13.3 74.54-35.53 14.92-18.06 23.56-41.07 38.83-58.88 12.3-14.35 28.32-24.63 41.8-37.81 13.89-13.58 25.89-32.5 23.17-52.73-2.42-17.95-16.59-31.48-31.17-38.84-14.64-7.4-30.62-10.06-46.79-14.37-16.06-4.26-32.92-11.3-45.42-24.37z"/><path class="st0" d="M832.24 468.21c-5.35-5.43-9.83-5.55-16.98-6.18-7.6-.66-15.03 1.21-22.31 3.22-10.55 2.89-18.16 6.86-28.51 8.88-.68.13-1.37.26-2.07.38-23.3 3.92-45.12-10.11-68.21-14.92a80.789 80.789 0 00-20.1-1.61c-26.3 1.27-50.12 15.84-60.82 41.86-10.73 26.08-5.84 60.58 13.84 82.28 16.62 18.33 40.63 26.8 57.1 45.15 11.54 12.86 17.87 29.53 28.59 42.51 12.53 15.17 30.31 24.49 48.74 28.25a85.818 85.818 0 0018.16 1.75c24.97-.33 49.54-12.09 65.95-31.52 13.34-15.79 21.28-35.84 34.91-51.44 10.97-12.57 25.13-21.66 37.11-33.22 12.42-11.98 23.3-28.57 21.19-46.49-1.85-15.69-13.99-27.59-26.48-34.22-12.56-6.66-26.35-9.29-40.41-13.24-13.94-3.91-28.62-10.18-39.7-21.44z"/></svg>