<?xml version="1.0" encoding="utf-8"?>
<!-- Generator: Adobe Illustrator 24.1.2, SVG Export Plug-In . SVG Version: 6.00 Build 0)  -->
<svg version="1.1" id="Layer_1" xmlns="http://www.w3.org/2000/svg" xmlns:xlink="http://www.w3.org/1999/xlink" x="0px" y="0px"
	 viewBox="0 0 800 600" style="enable-background:new 0 0 800 600;" xml:space="preserve">
<style type="text/css">
	.st0{fill:#FFB200;stroke:#FFB200;stroke-width:2;stroke-miterlimit:10;}
	.st1{fill:#FF1D26;stroke:#FF1D26;stroke-width:2;stroke-miterlimit:10;}
	.st2{fill:none;stroke:#000000;stroke-miterlimit:10;}
	.st3{fill:#3F4040;}
</style>
<g>
	<path class="st0" d="M210.41,92.66l-5.01-5.01l-5.81,5.81v4.82h34.7V86.8h11.01c3.9,0,7.08-3.18,7.08-7.08V64.94h7.77
		c0.86,0,1.64-0.39,2.15-1.08c0.51-0.69,0.67-1.55,0.42-2.37l-7.42-25.17h-11.42l-0.14-18.74c-0.84-0.85-3.73-3.56-8.38-5.62
		c-7.43-3.29-15.58-3.43-24.22-0.44c-12.24,4.24-20.87,16.14-21.46,29.59c-0.29,6.46,2.51,17.72,11.31,28.29h9.25L210.41,92.66z
		 M227.72,24.99c0.43-1.69,1.78-3.82,4.92-3.82c3.14,0,4.49,2.13,4.92,3.82h3.97l-0.3,5.85h-1.02c-0.64,0-1.18,0.15-1.59,0.43
		c-1,0.69-1.14,1.89-1.15,2.03c0,0.12,0.01,1.09,0.75,1.83c0.75,0.75,1.7,0.76,1.89,0.75l1.11-0.04v5.82h-5.97v-1.08
		c0-0.84-0.21-1.45-0.65-1.87c-0.71-0.69-1.86-0.68-1.87-0.68l-0.16,0c-0.03,0-1.19-0.02-1.92,0.69c-0.43,0.42-0.64,1.03-0.64,1.86
		v1.08h-5.97v-5.82l1.11,0.04c0.18,0.01,1.15,0,1.89-0.75c0.75-0.75,0.76-1.71,0.75-1.9c-0.02-0.16-0.17-1.3-1.15-1.97
		c-0.42-0.29-0.96-0.43-1.59-0.43h-1.02l-0.3-5.85H227.72z M224.13,49.44v-3.54l3.53,0.03c0.55-2.8,3.19-3.66,4.66-3.71c0,0,0,0,0,0
		c3.1,0,4.49,2.26,4.95,4.02h3.78v3.34c1.16,0.18,2.09,0.65,2.79,1.41c1.27,1.4,1.22,3.22,1.19,3.61c-0.02,3.1-2.27,4.45-4.02,4.89
		v4.06h-5.71v-1.08c0-0.98-0.26-1.72-0.76-2.2c-0.8-0.75-2.06-0.71-2.07-0.71c-2.51,0-2.71,2.61-2.72,2.72l-0.07,1H224v-3.72
		c-0.78-0.17-1.81-0.57-2.67-1.5c-1.23-1.32-1.35-2.88-1.35-3.49c-0.01-0.16-0.07-2.12,1.28-3.61
		C222.18,49.97,223.3,49.58,224.13,49.44z M198.23,32.53c0.08-1.38,0.89-3.74,3.31-4.29l-0.07-3.47h6.19l-0.15,1.21
		c-0.03,0.3-0.01,1.23,0.48,1.78c0.34,0.38,0.89,0.57,1.65,0.57c0.5,0,2.12-0.18,2.12-2.39v-1.08h5.58v3.71
		c0.53,0.14,1.14,0.41,1.72,0.91c1.4,1.21,1.53,2.86,1.53,3.34c0,0.28-0.09,2.51-1.96,3.78c-0.44,0.3-0.93,0.5-1.47,0.62v3.04h-4.98
		l-0.1-0.96c-0.03-0.24-0.34-2.39-2.29-2.39c0,0,0,0,0,0c-0.04,0-1.18,0.01-1.89,0.71c-0.41,0.41-0.62,1-0.62,1.79v1.08h-5.53v-3.56
		C200.21,36.42,198.23,35.13,198.23,32.53z M209.66,64.04L209.66,64.04c-2.62,0-3.84-1.89-4.28-3.42h-3.47V55.4H203
		c1.9,0,2.08-1.62,2.1-2.11c0-1.95-1.93-2.2-2.31-2.23l-1-0.08l-0.01-5.52l3.71,0.07c0.17-0.86,0.55-1.57,1.14-2.14
		c1.28-1.23,3.03-1.19,3.22-1.18c0,0,0,0,0,0c2.37,0,3.57,1.79,4.04,3.23h3.25v5.22h-1.08c-1.89,0-2.29,2.03-2.34,2.41
		c0.05,2.05,2.37,2.29,2.47,2.3l0.97,0.09v5.37h-3.3c-0.16,0.8-0.52,1.47-1.07,2c-1.15,1.12-2.71,1.19-3.06,1.19
		C209.69,64.04,209.68,64.04,209.66,64.04z"/>
	<path class="st1" d="M222.52,57.08c0.83,0.9,1.97,0.94,2.19,0.94l1.09-0.01v3.64h1.63c0.44-1.67,1.75-3.76,4.67-3.76
		c0.15-0.01,2.16-0.1,3.65,1.3c0.74,0.69,1.2,1.6,1.38,2.72h1.5v-3.87l1.02-0.06c0.31-0.02,3.04-0.3,3.04-2.98l0-0.1
		c0,0,0.09-1.24-0.65-2.05c-0.48-0.52-1.25-0.78-2.29-0.78h-1.09v-3.29h-3.55l-0.08-1c-0.03-0.31-0.36-3.07-2.98-3.07
		c-0.41,0.02-2.67,0.25-2.67,2.67v1.1l-3.46-0.03v3.56l-1.16-0.07c-0.14-0.01-1.42-0.06-2.31,0.92c-0.77,0.84-0.73,2.12-0.73,2.14
		C221.73,55.4,221.81,56.31,222.52,57.08z"/>
	<path class="st1" d="M204.08,35.81v3.23h1.33c0.17-0.91,0.57-1.67,1.19-2.28c1.36-1.33,3.24-1.33,3.44-1.33
		c2.55,0,3.79,1.88,4.25,3.39h1v-2.96h1.09c0.54,0,0.99-0.12,1.34-0.36c1-0.68,1.03-1.97,1.03-2.03c0-0.15-0.05-1.08-0.79-1.72
		c-0.53-0.45-1.12-0.54-1.43-0.55l-1.05-0.03v-3.56h-1.38c-0.17,0.91-0.55,1.67-1.16,2.27c-1.24,1.23-2.91,1.23-3.08,1.24
		c-1.41,0-2.52-0.44-3.29-1.32c-0.64-0.72-0.89-1.59-0.99-2.27h-1.74l0.07,3.39h-1.11c-2.08,0-2.27,2.11-2.28,2.35
		c0,2.04,2.53,2.41,2.63,2.43L204.08,35.81z"/>
	<path class="st1" d="M215.27,57.81c-1.55-0.46-3.47-1.71-3.47-4.36l0.01-0.12c0.15-1.34,1.07-3.73,3.45-4.29v-1.05h-2.93
		l-0.12-0.95c-0.03-0.23-0.37-2.32-2.19-2.32c-0.05,0-1.07-0.02-1.71,0.6c-0.38,0.37-0.57,0.92-0.57,1.68v1.11l-3.64-0.07v1.44
		c1.51,0.42,3.35,1.61,3.35,4.26c-0.01,1.51-0.89,3.66-3.2,4.18v1.04h3.22l0.08,1c0.02,0.25,0.3,2.46,2.37,2.46
		c0.03,0,1.01,0,1.61-0.59c0.35-0.35,0.52-0.85,0.52-1.54v-1.09h3.22V57.81z"/>
	<path class="st1" d="M227.53,29.69c1.75,1.2,2.05,3.1,2.1,3.65c0.02,0.55-0.03,2.23-1.39,3.59c-0.79,0.79-1.69,1.14-2.4,1.29v1.6
		h1.78c0.17-0.95,0.58-1.75,1.23-2.37c1.38-1.33,3.26-1.31,3.47-1.3l0.07,0c0.28,0,2.11,0,3.46,1.3c0.64,0.62,1.05,1.42,1.23,2.37
		h1.77v-1.6c-0.71-0.15-1.61-0.5-2.4-1.29c-1.35-1.35-1.41-3.04-1.39-3.52c0.04-0.46,0.31-2.48,2.11-3.71
		c0.53-0.36,1.13-0.6,1.8-0.73l0.08-1.65h-3.69l-0.05-1.03c-0.03-0.47-0.31-2.82-2.96-2.82c-2.74,0-2.95,2.53-2.96,2.82l-0.05,1.03
		h-3.69l0.08,1.65C226.4,29.09,227,29.33,227.53,29.69z"/>
	<path class="st2" d="M226.48,519.36h-24.77c-15.54,0-28.15-12.6-28.15-28.15v-219.2c0-15.54,12.6-28.15,28.15-28.15h24.77
		c15.54,0,28.15,12.6,28.15,28.15v219.2C254.63,506.76,242.03,519.36,226.48,519.36z"/>
	<rect x="166.63" y="265.64" class="st2" width="6.53" height="31.98"/>
	<path class="st2" d="M501.33,219.98H398.85c-7.25,0-13.14-5.88-13.14-13.14v-62c0-7.25,5.88-13.14,13.14-13.14h102.48
		c7.25,0,13.14,5.88,13.14,13.14v62C514.47,214.09,508.58,219.98,501.33,219.98z"/>
	<path class="st2" d="M494.72,212.43h-89.25c-7.25,0-13.14-5.88-13.14-13.14v-46.9c0-7.25,5.88-13.14,13.14-13.14h89.25
		c7.25,0,13.14,5.88,13.14,13.14v46.9C507.85,206.54,501.97,212.43,494.72,212.43z"/>
	<path class="st2" d="M491.46,201.86h-16.2c-3.97,0-7.19-3.22-7.19-7.19v-38.27c0-3.97,3.22-7.19,7.19-7.19h16.2
		c3.97,0,7.19,3.22,7.19,7.19v38.27C498.64,198.65,495.42,201.86,491.46,201.86z"/>
	<path class="st2" d="M408.84,175.23v29.1c0,1.58-1.28,2.86-2.86,2.86l0,0c-1.58,0-2.86-1.28-2.86-2.86v-29.1"/>
	<path class="st2" d="M403.12,158.46v-8.71c0-1.58,1.28-2.86,2.86-2.86l0,0c1.58,0,2.86,1.28,2.86,2.86v8.71"/>
	<path class="st2" d="M428.48,199.02v5.32c0,1.58-1.28,2.86-2.86,2.86l0,0c-1.58,0-2.86-1.28-2.86-2.86v-5.32"/>
	<path class="st2" d="M422.76,182.24v-32.49c0-1.58,1.28-2.86,2.86-2.86l0,0c1.58,0,2.86,1.28,2.86,2.86v32.49"/>
	<path class="st2" d="M448.11,167.5v36.84c0,1.58-1.28,2.86-2.86,2.86l0,0c-1.58,0-2.86-1.28-2.86-2.86v-36.96"/>
	<path class="st2" d="M442.39,150.6v-0.85c0-1.58,1.28-2.86,2.86-2.86l0,0c1.58,0,2.86,1.28,2.86,2.86v0.85"/>
	<circle class="st2" cx="405.98" cy="166.85" r="8.86"/>
	<circle class="st2" cx="425.62" cy="190.63" r="8.86"/>
	<circle class="st2" cx="445.25" cy="158.99" r="8.86"/>
	<path class="st2" d="M487.95,227.59h-76.86c-3.74,0-6.76-3.03-6.76-6.76v-0.85h90.38v0.85
		C494.71,224.56,491.68,227.59,487.95,227.59z"/>
	<path class="st2" d="M481.44,233.94h-62.94c-3.11,0-5.64-2.52-5.64-5.64v-0.71h74.22v0.71
		C487.07,231.41,484.55,233.94,481.44,233.94z"/>
	<polyline class="st2" points="407.74,89.35 407.74,131.7 403.12,131.7 403.12,88.87 	"/>
	<circle class="st2" cx="405.95" cy="78.77" r="10.72"/>
	<circle class="st2" cx="405.95" cy="78.77" r="4.85"/>
	<polyline class="st2" points="499.6,89.35 499.6,131.7 494.98,131.7 494.98,88.87 	"/>
	<circle class="st2" cx="497.81" cy="78.77" r="10.72"/>
	<polyline class="st2" points="416.67,78.77 423.79,83.43 430.91,69.7 437.99,87.84 442.39,81.46 450.09,84.55 457.1,69.7 
		461.92,91.49 468.79,80.6 476,84.97 480.73,55.73 483.35,83.48 487.09,78.77 	"/>
	<path class="st2" d="M94.03,220.06v-25.05c0-6.3,5.11-11.41,11.41-11.41h32.62"/>
	<path class="st2" d="M101.03,220.24v-24.55c0-2.7,2.19-4.9,4.9-4.9h32.13"/>
	<polyline class="st2" points="140.03,345.98 140.03,257.73 127.54,236.43 116.08,236.43 116.08,229.81 112.96,226.68 
		109.93,226.68 109.93,220.43 84.56,220.43 84.56,226.87 81.53,226.87 78.31,230.09 78.31,236.43 64.68,236.43 51.24,257.35 
		51.24,385.34 37.42,408.62 37.42,435.89 24.55,446.87 24.55,457.47 123.27,457.47 	"/>
	<line class="st2" x1="84.56" y1="226.87" x2="109.93" y2="226.87"/>
	<line class="st2" x1="78.31" y1="236.43" x2="116.67" y2="236.43"/>
	<line class="st2" x1="51.24" y1="257.35" x2="140.03" y2="257.35"/>
	<line class="st2" x1="51.24" y1="265.75" x2="140.03" y2="265.75"/>
	<rect x="91.3" y="373.04" class="st2" width="46.03" height="43.89"/>
	<rect x="99.71" y="381.06" class="st2" width="29.22" height="27.86"/>
	<line class="st2" x1="114.32" y1="387.53" x2="114.32" y2="398.07"/>
	<line class="st2" x1="114.32" y1="400.48" x2="114.32" y2="402.66"/>
	<rect x="96.63" y="416.93" class="st2" width="34.79" height="7.59"/>
	<rect x="121.76" y="424.53" class="st2" width="7.16" height="5.25"/>
	<circle class="st2" cx="104.24" cy="243.57" r="1.31"/>
	<circle class="st2" cx="110.56" cy="243.57" r="1.31"/>
	<circle class="st2" cx="116.88" cy="243.57" r="1.31"/>
	<circle class="st2" cx="123.2" cy="243.57" r="1.31"/>
	<rect x="140.03" y="274.46" class="st2" width="8.13" height="14.59"/>
	<line class="st2" x1="148.16" y1="277.75" x2="166.63" y2="277.75"/>
	<line class="st2" x1="148.16" y1="284.9" x2="166.63" y2="284.9"/>
	<polyline class="st2" points="227.66,211.85 242.68,211.85 242.68,216.11 	"/>
	<polyline class="st2" points="227.66,211.85 220.42,211.85 220.42,216.03 210.66,216.03 210.66,236.38 341.66,236.38 
		341.66,205.16 311,205.16 304.87,216.31 220.42,216.03 	"/>
	<line class="st2" x1="229.17" y1="206.16" x2="229.17" y2="211.85"/>
	<line class="st2" x1="234.18" y1="206.16" x2="234.18" y2="211.85"/>
	<polyline class="st2" points="233.74,206.16 296.9,206.16 297.51,129.53 171.08,129.53 144.31,170.88 144.31,206.16 233.74,206.16 
			"/>
	<polyline class="st2" points="283.43,206.16 283.43,211.85 275.06,211.85 275.06,216.21 	"/>
	<polyline class="st2" points="288.83,206.16 288.83,211.85 297.21,211.85 297.21,216.21 	"/>
	<polyline class="st2" points="144.31,176.5 138.01,176.5 138.01,196.28 144.31,196.28 	"/>
	<polyline class="st2" points="262.6,58.88 295.53,58.88 295.53,115.87 164.06,115.87 137.91,87.02 163.7,58.88 193.3,58.88 	"/>
	<polyline class="st2" points="262.12,65.56 289.76,65.56 289.76,108.84 167.31,108.84 146.21,87.38 166.77,65.56 196.37,65.56 	"/>
	<polyline class="st2" points="199.09,115.87 199.09,123.03 192.57,123.03 192.57,129.53 	"/>
	<polyline class="st2" points="205.91,115.87 205.91,123.03 212.44,123.03 212.44,129.53 	"/>
	<line class="st2" x1="205.91" y1="123.03" x2="199.09" y2="123.03"/>
	<polyline class="st2" points="247.74,115.87 247.74,123.03 241.22,123.03 241.22,129.53 	"/>
	<polyline class="st2" points="254.56,115.87 254.56,123.03 261.09,123.03 261.09,129.53 	"/>
	<line class="st2" x1="254.56" y1="123.03" x2="247.74" y2="123.03"/>
	<polyline class="st2" points="168.7,207.67 168.7,212.87 171.6,215.77 199.51,215.77 203.73,219.99 203.73,230.67 206.84,233.78 
		210.66,233.78 	"/>
	<rect x="269.18" y="231.49" class="st2" width="17.25" height="4.88"/>
	<line class="st2" x1="275.47" y1="231.49" x2="275.47" y2="236.38"/>
	<line class="st2" x1="280.34" y1="231.49" x2="280.34" y2="236.38"/>
	<rect x="221.19" y="223.99" class="st2" width="8.01" height="6.9"/>
	<rect x="234.32" y="223.99" class="st2" width="8.01" height="6.9"/>
	<rect x="247.44" y="223.99" class="st2" width="8.01" height="6.9"/>
	<path class="st2" d="M242.38,188.07v8.62c-0.17,2.1-1.8,3.75-3.73,3.93c-2.19,0.2-4.3-1.53-4.52-3.93c0-1.37,0-2.75,0-4.12h-40.27
		v5.11c0,0,0.39,1.48,1.81,2.34c0.97,0.59,1.92,0.62,2.32,0.61h40.66"/>
	<line class="st2" x1="242.38" y1="174.78" x2="242.38" y2="180"/>
	<polyline class="st2" points="199.37,143.06 199.37,137.17 242.38,137.17 242.38,169.32 	"/>
	<circle class="st2" cx="228.32" cy="148.21" r="3.82"/>
	<line class="st2" x1="228.38" y1="140.93" x2="228.38" y2="144.69"/>
	<line class="st2" x1="228.38" y1="151.85" x2="228.38" y2="155.61"/>
	<line class="st2" x1="233.57" y1="143.08" x2="230.91" y2="145.74"/>
	<line class="st2" x1="225.85" y1="150.8" x2="223.19" y2="153.46"/>
	<line class="st2" x1="235.72" y1="148.27" x2="231.96" y2="148.27"/>
	<line class="st2" x1="224.8" y1="148.27" x2="221.04" y2="148.27"/>
	<line class="st2" x1="233.57" y1="153.46" x2="230.91" y2="150.8"/>
	<line class="st2" x1="225.85" y1="145.74" x2="223.19" y2="143.08"/>
	<line class="st2" x1="218.61" y1="159.61" x2="220.43" y2="159.61"/>
	<line class="st2" x1="223.04" y1="159.61" x2="238.64" y2="159.61"/>
	<line class="st2" x1="218.37" y1="164.77" x2="238.64" y2="164.77"/>
	<path class="st2" d="M223.71,169.69h2.18h21.17c0,0,1.82,0.42,1.82,2.91c0,0-0.12,2.21-2.21,2.21h-23.15l-5.64-2.52L223.71,169.69z
		"/>
	<line class="st2" x1="225.83" y1="175.02" x2="225.89" y2="169.69"/>
	<rect x="212.97" y="179.7" class="st2" width="35.98" height="8.49"/>
	<line class="st2" x1="218.07" y1="179.64" x2="218.07" y2="183.34"/>
	<line class="st2" x1="223.23" y1="179.64" x2="223.23" y2="183.34"/>
	<line class="st2" x1="228.38" y1="179.64" x2="228.38" y2="183.34"/>
	<line class="st2" x1="233.54" y1="179.64" x2="233.54" y2="183.34"/>
	<line class="st2" x1="238.7" y1="179.64" x2="238.7" y2="183.34"/>
	<line class="st2" x1="199.09" y1="185.28" x2="199.09" y2="192.5"/>
	<polygon class="st2" points="191.97,175.03 206.32,175.03 206.32,179.99 191.87,179.99 	"/>
	<polyline class="st2" points="192.73,179.99 194.13,185.28 203.73,185.28 205.35,179.99 	"/>
	<path class="st2" d="M193.92,175.03v-3.24c0,0-5.18-1.62-7.66-7.67c-1.78-4.34-1.48-9.37,1-13.36c1.94-3.13,5.47-6.26,11.84-6.26
		c0,0,13.75-0.32,13.75,13.75c0,0,0.81,9.87-8.9,12.78v3.99"/>
	<polyline class="st2" points="193.45,161.02 195.47,167.26 199.09,167.26 202.36,167.26 204.27,160.82 	"/>
	<line class="st2" x1="199.04" y1="174.91" x2="199.04" y2="167.11"/>
	<path class="st2" d="M244.62,17.97c0,0-12.3-13.95-33.63-6.56c-12.72,4.41-21.33,16.76-21.93,30.2
		c-0.34,7.64,3.33,19.05,11.57,28.86"/>
	<polygon class="st2" points="244.62,17.58 248.29,21.25 261.03,8.78 271.57,19.72 259.43,31.99 263.3,35.86 244.75,35.86 	"/>
	<polygon class="st2" points="194.46,74.95 190.19,70.68 209.4,70.68 209.53,90.03 205.66,86.16 192.66,99.17 181.65,88.16 	"/>
	<path class="st2" d="M255.74,35.71l7.61,25.79c0.71,2.39-1.08,4.78-3.57,4.78h-6.62v13.55c0,4.45-3.61,8.06-8.06,8.06h-9.82v11.34
		h-36.42v-6.27"/>
	<path class="st2" d="M202.87,26.58h3.82c0,0-0.44,3.52,3.16,3.52c0,0,3.16,0.04,3.16-3.43h3.38v3.52c0.29,0.01,1.23,0.07,2.07,0.79
		c1.1,0.95,1.14,2.29,1.14,2.5c0,0.18-0.07,1.89-1.47,2.85c-0.47,0.32-1.09,0.54-1.91,0.54v2.9h-2.9c0,0-0.35-3.32-3.32-3.32
		c0,0-3.54-0.07-3.54,3.54h-3.34v-3.3c0,0-3.49-0.48-3.49-3.49c0,0,0.2-3.3,3.3-3.3L202.87,26.58z"/>
	<path class="st2" d="M203.14,47.05v3.38c0,0,3.28,0.2,3.28,3.28c0,0-0.02,3.14-3.14,3.14v3.03h3.24c0,0,0.29,3.38,3.38,3.38
		c0,0,3.16,0.08,3.16-3.16h3.16v-3.28c0,0-3.4-0.33-3.4-3.4c0,0,0.39-3.38,3.38-3.38v-3.03h-2.99c0,0-0.41-3.2-3.2-3.2
		c0,0-3.3-0.14-3.3,3.3L203.14,47.05z"/>
	<path class="st2" d="M225.24,47.47v3.42c-0.22-0.01-1.9-0.09-3.11,1.25c-1.07,1.18-0.99,2.85-0.99,2.85c0,0.29,0.02,1.61,1.05,2.72
		c1.15,1.24,2.67,1.26,2.92,1.26c0,1.19,0,2.37,0,3.56h3.56c0,0,0.25-3.68,3.68-3.68c0,0,3.93-0.25,3.93,3.93h3.51v-3.85
		c0,0,3.97-0.25,3.97-3.97c0,0,0.38-3.93-3.93-3.93v-3.22h-3.56c0,0-0.33-3.97-3.97-3.97c0,0-3.68,0.13-3.68,3.68L225.24,47.47z"/>
	<path class="st2" d="M232.64,37.56c0,0,3.59-0.12,3.59,3.59h3.77v-3.59c-0.23,0.01-1.58,0.03-2.66-1.05
		c-1.08-1.08-1.06-2.44-1.05-2.66c0.02-0.23,0.2-1.83,1.6-2.79c0.53-0.36,1.24-0.61,2.18-0.61l0.19-3.65h-3.71
		c0,0-0.19-3.77-3.96-3.77c-3.77,0-3.96,3.77-3.96,3.77h-3.71l0.19,3.65c0.94,0,1.64,0.25,2.18,0.61c1.4,0.96,1.58,2.56,1.6,2.79
		c0.01,0.23,0.03,1.58-1.05,2.66c-1.08,1.08-2.44,1.06-2.66,1.05v3.59h3.77c0-3.71,3.59-3.59,3.59-3.59H232.64z"/>
	<polyline class="st2" points="37.42,435.89 112.42,435.89 112.42,424.53 	"/>
	<line class="st2" x1="24.55" y1="446.87" x2="123.27" y2="446.87"/>
	<polyline class="st2" points="24.55,457.47 31.47,467.24 114.19,467.24 123.27,457.47 123.27,446.87 112.42,435.89 	"/>
	<line class="st2" x1="96.63" y1="420.73" x2="106.92" y2="420.73"/>
	<line class="st2" x1="110.8" y1="420.73" x2="114.03" y2="420.73"/>
	<line class="st2" x1="254.63" y1="354.78" x2="280.34" y2="354.78"/>
	<polyline class="st2" points="97.87,373.04 97.87,365.59 108.68,354.78 173.57,354.78 	"/>
	<polyline class="st2" points="125.34,354.78 125.34,345.98 150.67,345.98 150.67,354.78 	"/>
	<circle class="st2" cx="302.2" cy="278.61" r="18.42"/>
	<circle class="st2" cx="302.2" cy="278.61" r="24.8"/>
	<path class="st2" d="M279.83,267.89h-3.88c-2.56,0-4.64,2.08-4.64,4.64v13.28c0,2.56,2.08,4.64,4.64,4.64h3.88"/>
	<line class="st2" x1="271.32" y1="273.26" x2="254.63" y2="273.26"/>
	<line class="st2" x1="271.32" y1="284.31" x2="254.63" y2="284.31"/>
	<path class="st2" d="M324.69,267.89h3.88c2.56,0,4.64,2.08,4.64,4.64v13.28c0,2.56-2.08,4.64-4.64,4.64h-3.88"/>
	<path class="st2" d="M375.77,394.99h-12.25c-2.56,0-4.64,2.08-4.64,4.64v13.28c0,2.56,2.08,4.64,4.64,4.64h18.98"/>
	<path class="st2" d="M531.1,394.99h13.23c2.56,0,4.64,2.08,4.64,4.64v13.28c0,2.56-2.08,4.64-4.64,4.64h-20.31"/>
	<path class="st2" d="M333.2,273.26h9.74c10.74,0,19.45,8.71,19.45,19.45v32.4c0,10.05-8.15,18.19-18.19,18.19h-40.71
		c-5.78,0-10.47,4.69-10.47,10.47v35.37c0,5.35,4.33,9.68,9.68,9.68h56.67"/>
	<path class="st2" d="M333.2,284.31h7.5c5.07,0,9.19,4.11,9.19,9.19v27.7c0,5.08-4.12,9.2-9.2,9.2h-41.72
		c-10.29,0-18.63,8.34-18.63,18.63v43.94c0,10.44,8.46,18.89,18.89,18.89h60.14"/>
	<line class="st2" x1="558.71" y1="398.82" x2="548.63" y2="398.82"/>
	<line class="st2" x1="559.14" y1="411.86" x2="548.63" y2="411.86"/>
	<circle class="st2" cx="214.1" cy="294.4" r="25.69"/>
	<circle class="st2" cx="214.1" cy="294.4" r="18.92"/>
	<circle class="st2" cx="214.1" cy="294.4" r="9.28"/>
	<line class="st2" x1="211.46" y1="275.48" x2="211.46" y2="285.51"/>
	<line class="st2" x1="215.64" y1="275.48" x2="215.64" y2="285.51"/>
	<line class="st2" x1="230.21" y1="304.44" x2="222.87" y2="297.62"/>
	<line class="st2" x1="227.37" y1="307.5" x2="220.03" y2="300.68"/>
	<line class="st2" x1="197.73" y1="304.44" x2="205.07" y2="297.62"/>
	<line class="st2" x1="200.58" y1="307.5" x2="207.92" y2="300.68"/>
	<line class="st2" x1="284.13" y1="282.13" x2="320.62" y2="282.13"/>
	<path class="st2" d="M297.17,282.13l9-9.08c0.7-0.71,1.83-0.75,2.58-0.09l0,0c0.8,0.7,0.87,1.92,0.14,2.7l-5.99,6.47"/>
	<circle class="st2" cx="290.43" cy="271.01" r="0.64"/>
	<circle class="st2" cx="314.87" cy="271.01" r="0.64"/>
	<circle class="st2" cx="297.17" cy="265.71" r="0.64"/>
	<circle class="st2" cx="308.2" cy="265.71" r="0.64"/>
	<path class="st2" d="M235.98,469.93h-42.75c-5.71,0-10.33-4.63-10.33-10.33v-12.75c0-5.71,4.63-10.33,10.33-10.33h42.75
		c5.71,0,10.33,4.63,10.33,10.33v12.75C246.31,465.31,241.68,469.93,235.98,469.93z"/>
	<path class="st2" d="M194.56,461.89h-0.61c-1.33,0-2.41-1.08-2.41-2.41V445.3c0-1.33,1.08-2.41,2.41-2.41h0.61
		c1.33,0,2.41,1.08,2.41,2.41v14.17C196.98,460.81,195.9,461.89,194.56,461.89z"/>
	<path class="st2" d="M207.1,461.89h-0.61c-1.33,0-2.41-1.08-2.41-2.41V445.3c0-1.33,1.08-2.41,2.41-2.41h0.61
		c1.33,0,2.41,1.08,2.41,2.41v14.17C209.51,460.81,208.43,461.89,207.1,461.89z"/>
	<path class="st2" d="M219.64,461.89h-0.61c-1.33,0-2.41-1.08-2.41-2.41V445.3c0-1.33,1.08-2.41,2.41-2.41h0.61
		c1.33,0,2.41,1.08,2.41,2.41v14.17C222.05,460.81,220.97,461.89,219.64,461.89z"/>
	<path class="st2" d="M232.17,461.89h-0.61c-1.33,0-2.41-1.08-2.41-2.41V445.3c0-1.33,1.08-2.41,2.41-2.41h0.61
		c1.33,0,2.41,1.08,2.41,2.41v14.17C234.58,460.81,233.5,461.89,232.17,461.89z"/>
	<rect x="194.26" y="431" class="st2" width="6.46" height="5.51"/>
	<rect x="228.64" y="431" class="st2" width="6.46" height="5.51"/>
	<path class="st2" d="M78.44,473.49v6.97c0,1.66,1.35,3.01,3.01,3.01h61.07c1.83,0,3.31-1.48,3.31-3.31v-1.72
		c0-2.75,2.21-4.99,4.96-5.02l15.56-0.21"/>
	<path class="st2" d="M67.62,473.49v10.84c0,5.65,4.58,10.24,10.24,10.24h73.4c2.97,0,5.39-2.41,5.39-5.39v-2.53
		c0-1.46,1.16-2.65,2.62-2.7l7.08-0.2"/>
	<rect x="167.14" y="465.02" class="st2" width="6.43" height="32.33"/>
	<rect x="314.87" y="211.85" class="st2" width="19.64" height="19.64"/>
	<path class="st2" d="M491.26,451.9c24.29-13.37,40.75-39.2,40.75-68.89c0-43.39-35.18-78.57-78.57-78.57s-78.57,35.18-78.57,78.57
		c0,29.31,16.05,54.87,39.84,68.38L491.26,451.9z"/>
	<path class="st2" d="M384.06,373.51c-0.38,2.94-0.57,5.93-0.57,8.97"/>
	<path class="st2" d="M453.43,312.54c-32.55,0-59.9,22.23-67.71,52.34"/>
	<polyline class="st2" points="491.26,451.9 491.26,463.92 482.94,469.37 421.26,469.37 414.7,465.96 414.7,451.39 	"/>
	<polyline class="st2" points="421.26,469.37 421.26,480.96 427.73,486.07 477.83,486.07 483.62,481.98 482.94,469.37 	"/>
	<polyline class="st2" points="427.73,486.07 427.73,498.68 434.55,503.45 470.67,503.45 477.83,497.65 477.83,486.07 	"/>
	<path class="st2" d="M436.25,503.45v8.52c0.83,0.96,6.66,7.5,16.36,7.5c9.7,0,15.53-6.53,16.36-7.5c0-2.84,0-5.68,0-8.52"/>
	<rect x="558.71" y="389.1" class="st2" width="8.99" height="32.81"/>
	
		<rect x="659.88" y="389.1" transform="matrix(-1 -4.451651e-11 4.451651e-11 -1 1328.7544 811.0231)" class="st2" width="8.99" height="32.81"/>
	<polyline class="st2" points="567.7,389.1 567.7,383.18 583.41,367.47 591.71,367.47 598.62,360.55 629.43,360.55 636.66,367.78 
		644.51,367.78 659.88,383.15 659.88,427.84 644.17,443.55 635.87,443.55 628.95,450.47 598.15,450.47 590.92,443.24 583.07,443.24 
		567.7,427.87 567.7,421.92 	"/>
	<line class="st2" x1="635.87" y1="367.47" x2="635.87" y2="443.55"/>
	<line class="st2" x1="591.71" y1="443.55" x2="591.71" y2="367.47"/>
	<line class="st2" x1="583.41" y1="367.47" x2="583.41" y2="443.24"/>
	<line class="st2" x1="644.51" y1="367.78" x2="644.51" y2="443.55"/>
	<path class="st2" d="M668.87,398.76h40.21c3.36,0,6.08-2.72,6.08-6.08v-19.57"/>
	<path class="st2" d="M668.87,411.86h47.74c6.29,0,11.39-5.1,11.39-11.39v-26.77"/>
	<path class="st2" d="M709.75,362.9c0,6.8,5.52,12.32,12.32,12.32c6.8,0,12.32-5.52,12.32-12.32H709.75z"/>
	<rect x="709.75" y="356.79" class="st2" width="24.64" height="6.11"/>
	<polyline class="st2" points="606.28,293.68 606.28,329.39 557.26,329.39 557.26,232.58 606.28,232.58 606.28,261.42 	"/>
	<polyline class="st2" points="619.87,261.42 619.87,232.58 668.89,232.58 668.89,329.39 619.87,329.39 619.87,293.68 	"/>
	<polyline class="st2" points="619.87,293.68 598.62,293.68 598.62,261.42 619.87,261.42 	"/>
	<polyline class="st2" points="619.87,261.42 627.53,261.42 627.53,293.68 619.87,293.68 	"/>
	<path class="st2" d="M584.29,336.3v3.52c0,1.18,0.96,2.14,2.14,2.14h18.48c1.18,0,2.14,0.96,2.14,2.14v16.46"/>
	<path class="st2" d="M578.75,336.3v9.55c0,1.18,0.96,2.14,2.14,2.14h18.48c1.18,0,2.14,0.96,2.14,2.14v10.42"/>
	<path class="st2" d="M638.98,336.3v3.44c0,1.22-0.99,2.22-2.22,2.22h-18.32c-1.22,0-2.22,0.99-2.22,2.22v16.38"/>
	<path class="st2" d="M644.51,336.3v9.48c0,1.22-0.99,2.22-2.22,2.22h-18.32c-1.22,0-2.22,0.99-2.22,2.22v10.34"/>
	<rect x="549.69" y="224.99" class="st2" width="127.01" height="111.31"/>
	<rect x="424.64" y="234.24" class="st2" width="7.76" height="19.17"/>
	<path class="st2" d="M431.48,283.18h-5.91c-2.97,0-5.38-2.41-5.38-5.38v-19.01c0-2.97,2.41-5.38,5.38-5.38h5.91
		c2.97,0,5.38,2.41,5.38,5.38v19.01C436.85,280.77,434.45,283.18,431.48,283.18z"/>
	<rect x="466.63" y="234.24" class="st2" width="7.76" height="19.17"/>
	<path class="st2" d="M473.47,283.18h-5.91c-2.97,0-5.38-2.41-5.38-5.38v-19.01c0-2.97,2.41-5.38,5.38-5.38h5.91
		c2.97,0,5.38,2.41,5.38,5.38v19.01C478.85,280.77,476.44,283.18,473.47,283.18z"/>
	<polyline class="st2" points="424.64,309.89 424.64,283.48 432.4,283.48 432.4,306.46 	"/>
	<polyline class="st2" points="466.63,305.55 466.63,283.48 474.4,283.48 474.4,307.5 	"/>
	<line class="st2" x1="604.54" y1="260.76" x2="598.36" y2="268.01"/>
	<line class="st2" x1="610.26" y1="261.32" x2="598.44" y2="275.19"/>
	<line class="st2" x1="616.36" y1="261.42" x2="598.62" y2="282.25"/>
	<line class="st2" x1="622.56" y1="261.42" x2="598.62" y2="289.52"/>
	<line class="st2" x1="627.8" y1="262.54" x2="601.45" y2="293.46"/>
	<line class="st2" x1="627.53" y1="270.12" x2="607.47" y2="293.67"/>
	<line class="st2" x1="627.53" y1="277.39" x2="613.66" y2="293.67"/>
	<line class="st2" x1="627.8" y1="284.35" x2="619.86" y2="293.67"/>
	<line class="st2" x1="578" y1="270.12" x2="578" y2="286.06"/>
	<line class="st2" x1="585.97" y1="278.09" x2="570.03" y2="278.09"/>
	<line class="st2" x1="654.91" y1="278.09" x2="638.98" y2="278.09"/>
	<path class="st2" d="M231.11,519.8c-0.85,5.47-5.58,9.66-11.29,9.66H207.6c-5.79,0-10.57-4.31-11.32-9.9"/>
	<path class="st2" d="M219.82,529.46v19.86c0,3.03,2.46,5.49,5.49,5.49h30.03c3.22,0,5.83-2.61,5.83-5.83v-42.09
		c0-5.51,4.47-9.97,9.97-9.97h7.67"/>
	<path class="st2" d="M207.6,529.46v22.53c0,7.21,5.85,13.06,13.06,13.06h39.3c7.03,0,12.73-5.7,12.73-12.73v-39.51
		c0-2.12,1.72-3.83,3.83-3.83h2.29"/>
	<path class="st2" d="M445.5,518.9v31.17c0,3.03-2.46,5.49-5.49,5.49h-16.45c-3.22,0-5.83-2.61-5.83-5.83v-42.85
		c0-5.51-4.47-9.97-9.97-9.97h-7.15"/>
	<path class="st2" d="M457.73,518.9v33.84c0,7.21-5.85,13.06-13.06,13.06h-25.72c-7.03,0-12.73-5.7-12.73-12.73v-40.26
		c0-2.12-1.72-3.83-3.83-3.83l0,0"/>
	<path class="st2" d="M283.82,520.07h3.55v-41.3h-3.55c-2.76,0-5,2.24-5,5v31.3C278.82,517.83,281.05,520.07,283.82,520.07z"/>
	<line class="st2" x1="302.33" y1="531.14" x2="287.36" y2="520.07"/>
	<line class="st2" x1="287.36" y1="478.76" x2="302.33" y2="467.64"/>
	<line class="st2" x1="377.89" y1="530.78" x2="392.06" y2="520.07"/>
	<line class="st2" x1="392.06" y1="478.76" x2="376.83" y2="467.64"/>
	<path class="st2" d="M370.29,532.02h-61.15c-5.56,0-10.07-4.51-10.07-10.07v-44.91c0-5.56,4.51-10.07,10.07-10.07h61.15
		c5.56,0,10.07,4.51,10.07,10.07v44.91C380.36,527.51,375.85,532.02,370.29,532.02z"/>
	<path class="st2" d="M392.06,520.07h3.55c2.76,0,5-2.24,5-5v-31.3c0-2.76-2.24-5-5-5h-3.55V520.07z"/>
	<line class="st2" x1="402.38" y1="508.98" x2="400.26" y2="508.98"/>
	<polygon class="st2" points="700,341.92 743.11,341.92 743.11,347.38 733.7,356.79 710.52,356.79 700,347.99 	"/>
	<line class="st2" x1="700" y1="347.99" x2="743.11" y2="347.99"/>
	<polyline class="st2" points="336.26,398.82 336.26,354.78 333.2,354.78 293.02,354.78 	"/>
	<polyline class="st2" points="254.63,451.56 319.86,451.56 336.26,435.16 336.26,411.86 	"/>
	<line class="st2" x1="123.77" y1="451.56" x2="173.57" y2="451.56"/>
	<path class="st2" d="M66.01,324.31c0-0.58,0.67-0.89,1.13-0.53c1.42,1.09,3.28,1.44,4.95,0.87c1.84-0.63,3.19-2.28,3.5-4.26v-0.54
		c-0.32-1.99-1.67-3.64-3.5-4.26c-1.67-0.57-3.52-0.22-4.94,0.86c-0.47,0.36-1.13,0.05-1.13-0.54v-20.55c0-0.59,0.67-0.89,1.13-0.54
		c1.41,1.08,3.27,1.43,4.94,0.86c1.84-0.63,3.19-2.28,3.5-4.26v-0.54c-0.32-1.99-1.67-3.64-3.5-4.26c-1.67-0.57-3.52-0.22-4.94,0.86
		c-0.47,0.36-1.13,0.05-1.13-0.54l0-8.47c0-0.78,0.64-1.42,1.42-1.41l9.32,0.05c0.58,0,0.89,0.67,0.53,1.13
		c-1.09,1.42-1.44,3.28-0.87,4.95c0.63,1.84,2.28,3.19,4.26,3.5h0.54c1.99-0.32,3.64-1.67,4.26-3.5c0.57-1.67,0.22-3.52-0.86-4.94
		c-0.36-0.47-0.05-1.13,0.54-1.13h20.71c0.59,0,0.89,0.67,0.54,1.13c-1.08,1.41-1.43,3.27-0.86,4.94c0.63,1.84,2.28,3.19,4.26,3.5
		h0.54c1.99-0.32,3.64-1.67,4.26-3.5c0.57-1.67,0.22-3.52-0.86-4.94c-0.36-0.47-0.05-1.13,0.54-1.13l9.42,0
		c0.78,0,1.41,0.63,1.41,1.41l-0.01,8.4c0,0.59-0.67,0.89-1.13,0.54c-1.41-1.08-3.27-1.43-4.94-0.86c-1.84,0.63-3.19,2.28-3.5,4.26
		v0.54c0.32,1.99,1.67,3.64,3.5,4.26c1.67,0.57,3.52,0.22,4.94-0.86c0.47-0.36,1.13-0.05,1.13,0.54v20.55
		c0,0.59-0.67,0.89-1.13,0.54c-1.41-1.08-3.27-1.43-4.94-0.86c-1.84,0.63-3.19,2.28-3.5,4.26v0.54c0.32,1.99,1.67,3.64,3.5,4.26
		c1.67,0.57,3.52,0.22,4.94-0.86c0.46-0.36,1.13-0.05,1.13,0.54l0.01,10.48c0,0.78-0.63,1.41-1.41,1.41l-9.42,0
		c-0.59,0-0.89-0.67-0.54-1.13c1.08-1.41,1.43-3.27,0.86-4.94c-0.63-1.84-2.28-3.19-4.26-3.5h-0.54c-1.99,0.32-3.64,1.67-4.26,3.5
		c-0.57,1.67-0.22,3.52,0.86,4.94c0.36,0.47,0.05,1.13-0.54,1.13l-10.83,0l-9.89,0c-0.59,0-0.89-0.67-0.54-1.13
		c1.08-1.41,1.43-3.27,0.86-4.94c-0.63-1.84-2.28-3.19-4.26-3.5h-0.54c-1.99,0.32-3.64,1.67-4.26,3.5
		c-0.57,1.67-0.22,3.52,0.86,4.94c0.36,0.47,0.05,1.13-0.54,1.13l-9.41,0c-0.78,0-1.42-0.64-1.41-1.42L66.01,324.31z"/>
	<line class="st2" x1="119.63" y1="306.46" x2="125.34" y2="306.46"/>
	<line class="st2" x1="95.65" y1="276.77" x2="95.65" y2="282.49"/>
	<line class="st2" x1="95.65" y1="330.43" x2="95.65" y2="336.15"/>
	<line class="st2" x1="95.54" y1="312.45" x2="95.54" y2="310.16"/>
	<line class="st2" x1="95.6" y1="307.19" x2="95.6" y2="289.24"/>
	<path class="st2" d="M95.6,289.24c-1.53-1.55-4.33-1.89-5.76-0.08c-1.1,1.4-1.27,3.7,0.57,4.9c-2.6-2.28-6.49-1.9-8.42,0.49
		c-1.65,2.05-1.59,5.24,0.32,7.44c-3.82,1.58-6.23,5.33-5.99,9.22c0.28,4.51,4.05,8.34,8.9,8.74c0.14,2.49,1.96,4.57,4.37,5.02
		c2.51,0.46,5.06-0.96,5.99-3.4v-7.1"/>
	<path class="st2" d="M95.68,289.24c1.53-1.55,4.33-1.89,5.76-0.08c1.1,1.4,1.27,3.7-0.57,4.9c2.6-2.28,6.49-1.9,8.42,0.49
		c1.65,2.05,1.59,5.24-0.32,7.44c3.82,1.58,6.23,5.33,5.99,9.22c-0.28,4.51-4.05,8.34-8.9,8.74c-0.14,2.49-1.96,4.57-4.37,5.02
		c-2.51,0.46-5.06-0.96-5.99-3.4v-0.11"/>
	<path class="st2" d="M108.96,301.99c0,0-2.91-0.32-5.99,0.81"/>
	<path class="st2" d="M100.26,300.57c0.36,0.1,1.69,0.5,2.59,1.82c1.1,1.62,0.72,3.36,0.65,3.64"/>
	<path class="st2" d="M106.05,319.95c0,0,0.04-1.86-1.13-3.24"/>
	<path class="st2" d="M106.17,312.79c0.04,0.27,0.27,2.3-1.25,3.92c-1.43,1.52-3.3,1.5-3.6,1.5"/>
	<polyline class="st2" points="104.92,373.15 104.92,366.45 110.9,360.48 151.54,360.48 	"/>
	<polyline class="st2" points="306.82,362.55 328.44,362.55 328.44,391.35 	"/>
	<line class="st2" x1="130.04" y1="444.56" x2="165.01" y2="444.56"/>
	<polyline class="st2" points="259.69,444.56 315.92,444.56 328.44,432.82 328.44,417.54 	"/>
	<path class="st2" d="M348.08,216.21h11.93c3.48,0,6.31-2.82,6.31-6.31v-38.39c0-3.6,2.92-6.51,6.51-6.51h6.74"/>
	<path class="st2" d="M348.78,226.02h15.31c5.51,0,9.98-4.47,9.98-9.98v-34.03c0-2.22,1.8-4.01,4.01-4.01h2.24"/>
	<path class="st2" d="M384.92,180.75h0.79v-19.02h-0.79c-3.49,0-6.33,2.83-6.33,6.33v6.36
		C378.59,177.92,381.43,180.75,384.92,180.75z"/>
	<path class="st2" d="M342.45,212.17h-0.79v19.02h0.79c3.49,0,6.33-2.83,6.33-6.33v-6.36C348.78,215,345.95,212.17,342.45,212.17z"
		/>
	<circle class="st2" cx="195.01" cy="375.53" r="2.92"/>
	<path class="st2" d="M202.81,357.92c0,0-3.84,1.92-3.84,6.4c0,0-5.76,2.13-5.34,8.54"/>
	<circle class="st2" cx="232.56" cy="375.53" r="2.92"/>
	<path class="st2" d="M196.31,377.69c0,0,3.57,4.44,8.44,1.62c0,0,0.11,4.76,5.95,6.6"/>
	<path class="st2" d="M224.33,357.92c0,0,3.84,1.92,3.84,6.4c0,0,5.76,2.13,5.34,8.54"/>
	<path class="st2" d="M230.83,377.69c0,0-3.57,4.44-8.44,1.62c0,0-0.11,4.76-5.95,6.6"/>
	<path class="st2" d="M206.18,373.71v-13.39c-5.29-3.89-4.98-8.17-4.98-8.17c-1.56-15.34,12.92-14.95,12.92-14.95h-0.19
		c0,0,14.48-0.39,12.92,14.95c0,0,0.31,4.28-4.98,8.17v13.39H206.18z"/>
	<polygon class="st2" points="216.25,367.17 216.25,356.89 219.44,349.65 208.47,349.65 211.66,356.89 211.66,367.17 	"/>
	<circle class="st2" cx="213.87" cy="390.34" r="5.23"/>
	<polyline class="st2" points="210.7,394.39 204.29,397.63 204.29,403.52 223.15,403.52 223.15,397.63 216.74,394.39 	"/>
	<circle class="st2" cx="230.95" cy="390.34" r="5.23"/>
	<polyline class="st2" points="223.37,403.52 240.23,403.52 240.23,397.63 233.83,394.39 	"/>
	<line class="st2" x1="227.79" y1="394.39" x2="222.52" y2="397.05"/>
	<circle class="st2" cx="196.6" cy="390.34" r="5.23"/>
	<polyline class="st2" points="204.19,403.52 187.32,403.52 187.32,397.63 193.73,394.39 	"/>
	<line class="st2" x1="199.77" y1="394.39" x2="205.03" y2="397.05"/>
	<line class="st2" x1="182.51" y1="338.38" x2="185.16" y2="339.53"/>
	<line class="st2" x1="187.48" y1="340.61" x2="197.2" y2="344.33"/>
	<line class="st2" x1="179.99" y1="349.79" x2="182.89" y2="350.03"/>
	<line class="st2" x1="185.43" y1="350.17" x2="195.83" y2="350.3"/>
	<line class="st2" x1="180.31" y1="359.96" x2="183.17" y2="359.2"/>
	<line class="st2" x1="185.59" y1="358.61" x2="195.51" y2="355.45"/>
	<line class="st2" x1="245.21" y1="338.38" x2="242.67" y2="339.53"/>
	<line class="st2" x1="240.24" y1="340.61" x2="230.52" y2="344.33"/>
	<line class="st2" x1="247.73" y1="349.79" x2="244.87" y2="349.9"/>
	<line class="st2" x1="242.29" y1="350.17" x2="231.89" y2="350.3"/>
	<line class="st2" x1="247.41" y1="359.96" x2="244.8" y2="359.34"/>
	<line class="st2" x1="242.13" y1="358.61" x2="232.21" y2="355.45"/>
	<line class="st2" x1="205.74" y1="367.36" x2="222.14" y2="367.36"/>
	<path class="st2" d="M519.48,184.83h-5.01v-30.2h5.01c4.97,0,9,4.03,9,9v12.2C528.48,180.8,524.45,184.83,519.48,184.83z"/>
	<path class="st2" d="M595.7,215.49h35.79c4.66,0,8.44,3.78,8.44,8.44v1.06h-52.67v-1.06C587.26,219.27,591.04,215.49,595.7,215.49z
		"/>
	<line class="st2" x1="712.15" y1="320.49" x2="712.15" y2="337.06"/>
	<line class="st2" x1="729.01" y1="320.49" x2="729.01" y2="337.06"/>
	<line class="st2" x1="720.58" y1="311.56" x2="720.58" y2="337.06"/>
	<line class="st2" x1="288.83" y1="211.85" x2="283.43" y2="211.85"/>
	<polyline class="st2" points="270.56,147.64 290.32,147.64 290.32,172.1 	"/>
	<polygon class="st2" points="546.25,461.22 660.52,461.22 667.51,471.36 677.3,471.36 677.3,478 529.13,478 529.13,471.36 
		539.61,471.36 	"/>
	<line class="st2" x1="539.61" y1="471.36" x2="667.51" y2="471.36"/>
	<polyline class="st2" points="553.24,471.36 553.24,466.81 563.37,466.81 563.37,471.36 	"/>
	<polyline class="st2" points="643.75,471.36 643.75,466.81 653.88,466.81 653.88,471.36 	"/>
	<line class="st2" x1="573.73" y1="433.9" x2="573.73" y2="461.22"/>
	<line class="st2" x1="655.21" y1="432.51" x2="655.21" y2="461.22"/>
	<line class="st2" x1="390.42" y1="304.44" x2="390.42" y2="336.04"/>
	<path class="st2" d="M327,236.38v6.72c0,7.34,5.95,13.29,13.29,13.29h36.84c7.34,0,13.29,5.95,13.29,13.29v12.45"/>
	<path class="st2" d="M514.47,333.54v-34.03c0-5.52,4.47-9.99,9.99-9.99h25.24"/>
	<rect x="385.72" y="282.13" class="st2" width="9.22" height="22.31"/>
	<circle class="st2" cx="497.81" cy="78.77" r="4.85"/>
	<polyline class="st2" points="97.48,495.27 97.48,575.52 49.5,575.52 49.5,467.52 97.48,467.52 97.48,484.18 	"/>
	<polygon class="st3" points="269.65,430.56 274.13,430.56 270.4,436.96 265.82,436.96 	"/>
	<polygon class="st3" points="278.61,430.56 283.08,430.56 279.35,436.96 274.77,436.96 	"/>
	<polygon class="st3" points="287.56,430.56 292.04,430.56 288.31,436.96 283.72,436.96 	"/>
	<polygon class="st3" points="296.51,430.56 300.99,430.56 297.26,436.96 292.67,436.96 	"/>
	<polygon class="st3" points="305.46,430.56 309.94,430.56 306.21,436.96 301.63,436.96 	"/>
	<rect x="44.24" y="575.52" class="st2" width="57.38" height="7.96"/>
	<rect x="38.94" y="583.47" class="st2" width="67.98" height="7.96"/>
	<rect x="586.83" y="478" class="st2" width="47.97" height="98.86"/>
	<rect x="581.57" y="576.86" class="st2" width="57.38" height="7.29"/>
	<rect x="576.27" y="584.15" class="st2" width="67.98" height="7.29"/>
	<rect x="690.4" y="576.86" class="st2" width="57.38" height="7.29"/>
	<rect x="685.09" y="584.15" class="st2" width="67.98" height="7.29"/>
	<line class="st2" x1="505.74" y1="591.43" x2="753.77" y2="591.43"/>
	<line class="st2" x1="38.94" y1="591.43" x2="505.74" y2="591.43"/>
	<path class="st2" d="M537.02,478.07v11.05c0,0,1.1,11.64,10.06,11.64c0,0,5.53,1.39,8.11-8.11c0,0,1.51-7.53,0-14.57"/>
	<path class="st2" d="M547.4,478.07c0,0-0.38,12.57,7.04,14.81c1.92,0.58,4.02,0.16,5.61-1.07c2.32-1.8,5.12-5.7,3.55-13.74"/>
	<line class="st2" x1="569.89" y1="478.07" x2="569.89" y2="488.96"/>
	<line class="st2" x1="578.06" y1="478.07" x2="578.06" y2="493.14"/>
	<rect x="567.53" y="488.96" class="st2" width="4.72" height="3.3"/>
	<rect x="575.71" y="493.14" class="st2" width="4.72" height="3.3"/>
	<path class="st2" d="M747.54,576.77h-58.3c-3.72,0-6.74-3.02-6.74-6.74v-54.94c0-3.72,3.02-6.74,6.74-6.74h58.3
		c3.72,0,6.74,3.02,6.74,6.74v54.94C754.28,573.75,751.26,576.77,747.54,576.77z"/>
	<rect x="754.28" y="518.05" class="st2" width="7.13" height="20.27"/>
	<rect x="740.68" y="518.05" class="st2" width="8.2" height="47.14"/>
	<rect x="689.9" y="548.11" class="st2" width="22.09" height="19.36"/>
	<rect x="717.23" y="548.11" class="st2" width="13.87" height="19.36"/>
	<path class="st2" d="M707.89,537.18v3.39c0,1.1-0.89,1.99-1.99,1.99h-0.57c-1.1,0-1.99-0.89-1.99-1.99v-3.06"/>
	<path class="st2" d="M703.33,531.79v-11.75c0-1.1,0.89-1.99,1.99-1.99h0.57c1.1,0,1.99,0.89,1.99,1.99v11.75"/>
	<path class="st2" d="M719.5,528.33v12.23c0,1.1-0.89,1.99-1.99,1.99h-0.57c-1.1,0-1.99-0.89-1.99-1.99v-12.23"/>
	<path class="st2" d="M714.95,522.6v-2.56c0-1.1,0.89-1.99,1.99-1.99h0.57c1.1,0,1.99,0.89,1.99,1.99v2.57"/>
	<path class="st2" d="M731.12,533.17v7.4c0,1.1-0.89,1.99-1.99,1.99h-0.57c-1.1,0-1.99-0.89-1.99-1.99v-7.4"/>
	<path class="st2" d="M726.56,527.44v-7.4c0-1.1,0.89-1.99,1.99-1.99h0.57c1.1,0,1.99,0.89,1.99,1.99v7.4"/>
	<circle class="st2" cx="705.61" cy="534.65" r="3.66"/>
	<circle class="st2" cx="717.23" cy="525.47" r="3.66"/>
	<circle class="st2" cx="728.84" cy="530.3" r="3.66"/>
	<line class="st2" x1="771.4" y1="523.01" x2="761.41" y2="532.94"/>
	<line class="st2" x1="761.41" y1="527.71" x2="767.8" y2="521.34"/>
	<circle class="st2" cx="771.63" cy="519.46" r="3.83"/>
	<circle class="st2" cx="452.61" cy="388.71" r="35.86"/>
	<circle class="st2" cx="452.61" cy="388.71" r="24.17"/>
	<circle class="st2" cx="452.61" cy="388.71" r="11.48"/>
	<polyline class="st2" points="452.61,388.71 488.47,352.85 488.47,341.98 496.73,333.72 496.73,344.8 507.61,344.8 499.45,352.95 
		488.47,352.85 	"/>
	<path class="st2" d="M438.37,451.9v-7.48l7.08-2.29v-9.6c1.04-3.19,3.72-5.52,6.86-5.94c3.85-0.51,7.75,1.93,9.14,5.94
		c0,3.23,0,6.45,0,9.68l6.86,2.66c0,2.23,0,4.46,0,6.68"/>
	<line class="st2" x1="421.26" y1="406.27" x2="445.46" y2="442.14"/>
	<line class="st2" x1="484.04" y1="405.98" x2="461.4" y2="442.14"/>
	<path class="st2" d="M497.81,447.86v77.95c0,12.32,9.99,22.3,22.3,22.3h66.72"/>
	<path class="st2" d="M543.92,244.88h-26.73c-10.7,0-19.37,8.67-19.37,19.37v53.92"/>
	<rect x="543.92" y="236.38" class="st2" width="5.77" height="17.03"/>
	<path class="st2" d="M337.85,499.95h3.9c0,0-0.9,3.32,1.44,3.56c0,0,1.98,0.68,3.01-1.78l2.78,2.78c0,0-3.39,1.8-1.62,3.58
		c0,0,1.25,1.65,3.09,0.82v3.42c0,0-2.88-0.48-3.16,1.44c0,0-1.23,1.57,1.37,3.63l-2.39,2.19c0,0-1.25-2.15-3.15-1.73
		c0,0-2.39,0.91-1.3,3.51h-3.97c0,0,0.68-2.74-1.03-3.22c0,0-2-1.16-3.22,1.37l-2.8-2.58c0,0,1.92-0.71,1.85-2.96
		c0,0-0.93-2.26-3.51-1.23v-3.9c0,0,3.31,0.41,3.31-1.09c0,0,1.03-1.85-1.51-3.49l3.08-2.6c0,0,0.75,1.76,2.39,1.85
		c0.26-0.18,0.91-0.69,1.26-1.61C338.02,501.03,337.91,500.26,337.85,499.95z"/>
	<path class="st2" d="M329.14,508.85h-18.68c-2.5,0-4.54,2.03-4.54,4.54v8.65c0,2.5,2.03,4.54,4.54,4.54h51.31l12.52-8.86
		l-12.59-8.86h-11.26"/>
	<line class="st2" x1="314.61" y1="508.85" x2="314.61" y2="526.57"/>
	<line class="st2" x1="318.06" y1="508.85" x2="318.06" y2="526.57"/>
	<line class="st2" x1="318.06" y1="517.71" x2="331.72" y2="517.71"/>
	<circle class="st2" cx="339.78" cy="510.75" r="5.35"/>
	<circle class="st2" cx="339.78" cy="510.75" r="1.97"/>
	<polyline class="st2" points="321.18,491.81 321.18,496.46 334.02,496.46 334.02,501.66 	"/>
	<polyline class="st2" points="358.83,491.81 358.83,496.46 345.98,496.46 345.98,501.66 	"/>
	<line class="st2" x1="339.78" y1="486.9" x2="339.78" y2="499.95"/>
	<polygon class="st2" points="320.3,476.89 319.02,480.75 315.01,480.75 318.13,483.45 316.95,487.7 320.34,485.13 323.73,487.71 
		322.5,483.53 325.69,480.74 321.65,480.74 	"/>
	<path class="st2" d="M358.51,478.5c0,0,2.5-2.51,5.09,0.42c0,0,1.44,2.2-0.56,4.21l-4.64,4.63l-4.66-4.63
		c-2-2.01-0.56-4.21-0.56-4.21c2.59-2.93,5.09-0.42,5.09-0.42H358.51z"/>
	<polygon class="st2" points="347.76,481.5 344.21,481.5 344.54,484.75 337.5,481.5 331.82,481.5 331.82,472.25 347.76,472.25 	"/>
	<line class="st2" x1="348.16" y1="517.86" x2="361.72" y2="517.86"/>
	<line class="st2" x1="361.7" y1="508.85" x2="361.7" y2="526.57"/>
	<line class="st2" x1="368.58" y1="513.69" x2="368.58" y2="521.75"/>
	<rect x="634.8" y="530.99" class="st2" width="39.66" height="10.63"/>
	<rect x="674.47" y="525.47" class="st2" width="8.04" height="22.64"/>
	<circle class="st2" cx="405.95" cy="78.77" r="4.85"/>
	<circle class="st2" cx="448.04" cy="105.4" r="13.8"/>
	<circle class="st2" cx="448.04" cy="105.4" r="9.35"/>
	<polyline class="st2" points="437.52,114.32 431.74,125.06 436.94,124.22 438.7,129.22 445,118.86 	"/>
	<line class="st2" x1="436.94" y1="124.22" x2="438.7" y2="121.77"/>
	<polyline class="st2" points="458.7,114.32 464.49,125.06 459.28,124.22 457.52,129.22 451.22,118.86 	"/>
	<line class="st2" x1="459.28" y1="124.22" x2="457.52" y2="121.77"/>
	<polygon class="st2" points="448.04,99.71 446.4,103.01 442.5,103.71 445.27,106.4 444.41,109.96 448.04,108.48 451.22,109.96 
		450.74,106.48 453.08,103.79 449.87,103.19 	"/>
	<circle class="st2" cx="375.79" cy="435.4" r="3.07"/>
	<circle class="st2" cx="382.81" cy="444.44" r="1.66"/>
	<circle class="st2" cx="359.33" cy="118.95" r="3.25"/>
	<circle class="st2" cx="366.76" cy="128.53" r="1.76"/>
	<circle class="st2" cx="133.52" cy="535.28" r="3.25"/>
	<circle class="st2" cx="142.63" cy="527.27" r="1.76"/>
	<path class="st2" d="M382.51,330.43c-4.01,5.01-10.21,14.07-13.72,26.92c-3.92,14.34-2.6,26.47-1.42,32.98"/>
	<path class="st2" d="M341.66,298.21v16.33c0,3.15-2.55,5.71-5.71,5.71h-15.34"/>
	<line class="st2" x1="168.7" y1="306.46" x2="168.7" y2="333.29"/>
	<line class="st2" x1="168.7" y1="336.97" x2="168.7" y2="344.33"/>
	<path class="st2" d="M737.01,383.84v25.21c0,5.88-6.18,12.06-12.06,12.06h-19.38"/>
	<line class="st2" x1="370.7" y1="461.99" x2="327" y2="461.99"/>
	<polyline class="st2" points="286.43,528.33 297.73,539.64 341.66,539.64 	"/>
	<line class="st2" x1="666.45" y1="461.22" x2="670.43" y2="466.81"/>
	<polyline class="st2" points="537.02,464.02 542.32,456.41 566.05,456.41 	"/>
	<path class="st2" d="M201.12,542.97v13.01c0,9.22,8.08,16.7,18.05,16.7h42.41c9.97,0,18.05-7.48,18.05-16.7v-16.35"/>
	<path class="st2" d="M398.36,542.97v13.01c0,9.22,6.91,16.7,15.44,16.7h36.28c8.53,0,15.44-7.48,15.44-16.7v-16.35"/>
	<path class="st2" d="M715.03,383.37l1.29,1.29c1.28,1.28,3.33,1.39,4.74,0.25l0,0c1.41-1.14,3.46-1.04,4.74,0.25l2,2"/>
	<path class="st2" d="M51.37,340.23l5.71,3.11c6.43,3.5,14.45,3.84,21.23,0.89l4.41-1.92c5.82-2.53,12.6-2.66,18.54-0.36l3.3,1.28
		c6.42,2.49,13.8,2.12,19.86-0.99h0c4.79-2.46,10.39-3.19,15.68-2.19"/>
	<path class="st2" d="M627.32,106.97h-28.09c-2.92,0-5.28-2.37-5.28-5.28v-1.33c0-2.92,2.37-5.28,5.28-5.28h28.09
		c2.92,0,5.28,2.37,5.28,5.28v1.33C632.6,104.6,630.23,106.97,627.32,106.97z"/>
	<path class="st2" d="M627.32,203.81h-28.09c-2.92,0-5.28-2.37-5.28-5.28v-1.33c0-2.92,2.37-5.28,5.28-5.28h28.09
		c2.92,0,5.28,2.37,5.28,5.28v1.33C632.6,201.44,630.23,203.81,627.32,203.81z"/>
	<path class="st2" d="M614.45,106.97h10.67v15.51c1.37,0.73,16.04,8.89,18,25.75c1.55,13.39-5.56,26.77-18,33.65v10.24h-12.13h-0.96
		h-12.13v-10.24c-12.44-6.88-19.55-20.25-18-33.65c1.96-16.86,16.63-25.02,18-25.75v-15.51h10.67"/>
	<path class="st2" d="M643.52,149.37c-14.48,13.9-33.01,0.29-33.01,0.29c-17.95-10.13-28.95,0-28.95,0"/>
	<path class="st2" d="M608.4,148.94c0,0,7.12,0.16,11.65-1.8c0.44-0.19,0.87-0.37,1.33-0.52c2.39-0.76,5.87-1.55,10.1-1.47
		c5.11,0.09,9.12,1.41,11.53,2.41"/>
	<circle class="st2" cx="611.77" cy="139.14" r="2.32"/>
	<circle class="st2" cx="618.72" cy="129.29" r="2.32"/>
	<circle class="st2" cx="595.75" cy="138.17" r="1.7"/>
	<path class="st2" d="M603.87,95.31v-8.89c0-3.71-3.01-6.72-6.72-6.72h-19.09c-4.56,0-8.25,3.69-8.25,8.25v69.26
		c0,11.66-9.45,21.11-21.11,21.11h-20.23"/>
	<path class="st2" d="M620.27,95.07v-9.14c0-11.67-9.46-21.14-21.14-21.14h-26.02c-11.22,0-20.32,9.1-20.32,20.32v68.74
		c0,4.11-3.33,7.43-7.43,7.43h-16.88"/>
	<line class="st2" x1="604.18" y1="203.92" x2="604.18" y2="215.66"/>
	<line class="st2" x1="621.75" y1="203.92" x2="621.75" y2="215.66"/>
	<path class="st2" d="M674.11,514.63v-8.62c0-5.43,4.4-9.83,9.83-9.83h16.07"/>
	<polygon class="st3" points="622.41,567.28 622.41,562.8 628.8,566.54 628.8,571.12 	"/>
	<polygon class="st3" points="622.41,558.33 622.41,553.85 628.8,557.58 628.8,562.17 	"/>
	<polygon class="st3" points="622.41,549.38 622.41,544.9 628.8,548.63 628.8,553.21 	"/>
	<polygon class="st3" points="622.41,540.42 622.41,535.95 628.8,539.68 628.8,544.26 	"/>
	<polygon class="st3" points="622.41,531.47 622.41,527 628.8,530.73 628.8,535.31 	"/>
</g>
</svg>
