<?xml version="1.0" encoding="utf-8"?>
<!-- Generator: Adobe Illustrator 24.1.2, SVG Export Plug-In . SVG Version: 6.00 Build 0)  -->
<svg version="1.1" id="Layer_1" xmlns="http://www.w3.org/2000/svg" xmlns:xlink="http://www.w3.org/1999/xlink" x="0px" y="0px"
	 viewBox="0 0 1360 760" style="enable-background:new 0 0 1360 760;" xml:space="preserve">
<style type="text/css">
	.st0{fill:#FF3333;}
    .st1{opacity:0.3;}
    .st2{clip-path:url(#SVGID_2_);}
    .st3{fill:none;stroke:#FFFFFF;stroke-miterlimit:10;}
    .st4{fill:url(#SVGID_3_);}
    .st5{fill:url(#SVGID_4_);}
</style>
<rect x="-2.66" y="-4.17" transform="matrix(-1 -4.489710e-11 4.489710e-11 -1 1360.6863 759.655)" class="st0" width="1366" height="768"/>
<g class="st1">
	<defs>
		
			<rect id="SVGID_1_" x="-2.66" y="-4.17" transform="matrix(-1 -4.536295e-11 4.536295e-11 -1 1360.6863 758.655)" class="st1" width="1366" height="767"/>
	</defs>
	<clipPath id="SVGID_2_">
		<use xlink:href="#SVGID_1_"  style="overflow:visible;"/>
	</clipPath>
	<g class="st2">
		<path class="st3" d="M401,1052.09c86.6,11.15,156.42,66.01,211.85,125.73c55.43,59.71,102.26,127.02,168.48,176.89
			c66.22,49.88,159.5,80.24,243.06,51.37c88.24-30.48,139.55-116.85,161.35-199.7c21.8-82.85,22.84-169.17,53.04-250.16
			c37.45-100.43,117.1-185.65,157.34-285.29c49.55-122.69,33.02-263.26-43.34-368.56c-76.36-105.3-210.77-172.87-352.39-177.14
			c-97.11-2.93-196.18,22.04-291.58,8.17C572.65,113.6,466.28,18.29,332.29-9.73C173.43-42.95-10.75,34.75-90.67,168.72
			c-79.92,133.97-47.79,311.15,73.78,406.89c87.55,68.95,216.98,102.28,264.61,198.78c24.24,49.1,25.42,86.87,41.98,138.8
			c10.37,32.53,21.11,65.76,43,92.81C354.59,1033.04,363.8,1047.3,401,1052.09z"/>
		<path class="st3" d="M413.41,1040.69c-36.06-4.69-45.03-18.55-66.25-44.79c-21.23-26.26-31.65-58.51-41.71-90.09
			c-15.09-47.38-17.02-82.65-36.72-126.31c-1.25-2.77-2.57-5.57-3.97-8.42C218.6,677.42,93.22,644.88,8.39,577.87
			c-24.33-19.22-44.96-41.8-61.71-66.68c-64.33-95.61-71.24-225.13-9.53-328.24C14.62,53.22,193.01-22.02,346.9,10.12
			c129.8,27.12,232.86,119.38,364.75,138.59c92.4,13.46,188.34-10.66,282.37-7.76c103.63,3.25,203.23,41.49,277.61,104.02
			c24.08,20.24,45.52,43.03,63.6,68c73.92,102.11,89.93,238.36,41.99,357.3c-38.94,96.59-116.02,179.24-152.26,276.59
			c-29.22,78.52-30.23,162.19-51.33,242.5c-21.1,80.35-70.78,164.1-156.26,193.75c-80.91,28.02-171.25-1.31-235.4-49.53
			c-64.16-48.22-109.57-113.33-163.3-171.12C564.93,1104.67,497.28,1051.54,413.41,1040.69z"/>
		<path class="st3" d="M425.81,1029.29c-34.92-4.58-43.64-18.04-64.2-43.48c-20.57-25.47-30.68-56.74-40.42-87.36
			c-14.62-45.93-16.5-80.15-35.57-122.48c-1.21-2.69-2.49-5.41-3.84-8.16c-44.68-90.87-166-122.6-248.11-187.67
			c-23.55-18.66-43.52-40.58-59.74-64.71c-62.29-92.77-68.97-218.32-8.96-318.24C39.99,71.69,212.59-1.1,361.5,29.98
			c125.6,26.21,225.37,115.42,352.96,134.04c89.4,13.05,182.21-10.22,273.16-7.34c100.28,3.28,196.59,40.4,268.52,101.01
			c23.29,19.62,44.02,41.7,61.5,65.89c71.48,98.92,86.98,230.85,40.64,346.03c-37.63,93.55-112.15,173.61-147.18,267.9
			c-28.25,76.04-29.22,157.06-49.62,234.85c-20.4,77.84-68.44,158.98-151.16,187.8c-78.26,27.17-165.65-1.12-227.74-47.69
			c-62.1-46.56-106.09-109.48-158.12-165.36C572.45,1091.23,506.97,1039.84,425.81,1029.29z"/>
		<path class="st3" d="M438.22,1017.89c-33.79-4.48-42.26-17.54-62.14-42.17c-19.91-24.68-29.7-54.97-39.14-84.64
			c-14.14-44.48-15.97-77.66-34.41-118.66c-1.17-2.6-2.41-5.24-3.72-7.91C255.61,676.46,138.34,645.53,58.96,582.4
			c-22.77-18.1-42.08-39.35-57.76-62.74c-60.25-89.93-66.69-211.51-8.39-308.24C65.36,90.15,232.17,19.83,376.11,49.83
			c121.41,25.3,217.87,111.46,341.18,129.5c86.4,12.64,176.07-9.77,263.94-6.93c96.93,3.3,189.96,39.32,259.43,98
			c22.49,19,42.52,40.37,59.4,63.78c69.05,95.73,84.02,223.33,39.29,334.77c-36.33,90.51-108.27,167.99-142.09,259.21
			c-27.28,73.56-28.22,151.94-47.92,227.19c-19.7,75.34-66.1,153.86-146.06,181.84c-75.61,26.31-160.05-0.93-220.07-45.85
			c-60.04-44.91-102.61-105.63-152.94-159.59C579.96,1077.79,516.66,1028.14,438.22,1017.89z"/>
		<path class="st3" d="M450.63,1006.49c-32.65-4.38-40.88-17.04-60.09-40.86c-19.26-23.89-28.73-53.2-37.85-81.91
			c-13.67-43.03-15.45-75.17-33.25-114.84c-1.13-2.52-2.33-5.07-3.59-7.66c-41.73-85.24-154.94-115.37-231.59-176.56
			c-21.99-17.55-40.64-38.12-55.79-60.78c-58.21-87.1-64.2-204.6-7.82-298.24C91.02,108.75,251.75,40.76,390.72,69.68
			c117.21,24.39,210.37,107.5,329.4,124.95c83.39,12.23,169.94-9.32,254.73-6.51c93.58,3.32,183.33,38.23,250.34,94.98
			c21.7,18.37,41.01,39.04,57.3,61.67c66.61,92.55,81.07,215.82,37.94,323.5c-35.03,87.46-104.4,162.36-137.01,250.52
			c-26.3,71.09-27.21,146.82-46.21,219.53c-19,72.83-63.76,148.74-140.96,175.89c-72.97,25.46-154.46-0.73-212.41-44.01
			c-57.99-43.25-99.12-101.78-147.76-153.82C587.48,1064.35,526.34,1016.44,450.63,1006.49z"/>
		<path class="st3" d="M463.03,995.09c-31.52-4.28-39.49-16.54-58.04-39.55c-18.6-23.1-27.75-51.43-36.56-79.19
			c-13.2-41.57-14.92-72.67-32.1-111.02c-1.09-2.44-2.24-4.9-3.46-7.4c-40.25-82.43-149.4-111.76-223.34-171.01
			c-21.2-16.99-39.2-36.9-53.81-58.81c-56.16-84.26-61.87-197.76-7.25-288.25C116.46,127.25,271.33,61.69,405.32,89.53
			c113.02,23.48,202.87,103.55,317.61,120.41c80.39,11.82,163.81-8.88,245.52-6.09c90.23,3.34,176.69,37.14,241.26,91.97
			c20.9,17.75,39.51,37.71,55.2,59.56c64.17,89.36,78.11,208.3,36.59,312.24c-33.72,84.42-100.52,156.74-131.92,241.82
			c-25.33,68.61-26.21,141.69-44.5,211.87c-18.3,70.32-61.42,143.62-135.86,169.94c-70.32,24.61-148.86-0.54-204.75-42.16
			c-55.93-41.6-95.65-97.94-142.58-148.06C594.99,1050.92,536.03,1004.74,463.03,995.09z"/>
		<path class="st3" d="M475.44,983.69c-30.4-4.11-38.11-16.04-55.99-38.24c-17.94-22.31-26.78-49.66-35.27-76.47
			c-12.72-40.12-14.4-70.18-30.94-107.2c-1.05-2.36-2.16-4.74-3.34-7.15c-38.78-79.62-143.87-108.15-215.09-165.45
			c-20.42-16.43-37.76-35.67-51.84-56.84C28.86,450.92,23.43,341.42,76.3,254.1c65.6-108.35,214.61-171.48,343.63-144.71
			c108.82,22.57,195.37,99.59,305.83,115.87c77.39,11.41,157.7-8.58,236.31-5.68c86.89,3.2,170.06,36.05,232.17,88.96
			c20.11,17.13,38.01,36.38,53.11,57.45c61.74,86.17,75.15,200.79,35.24,300.97c-32.42,81.37-96.64,151.12-126.84,233.13
			c-24.35,66.14-25.2,136.57-42.79,204.21c-17.59,67.82-59.02,138.64-130.76,163.99c-67.62,23.89-143.27-0.35-197.09-40.32
			c-53.87-39.94-92.16-94.09-137.4-142.29C602.51,1037.48,545.69,993.19,475.44,983.69z"/>
		<path class="st3" d="M487.85,972.29c-29.27-4-36.73-15.53-53.93-36.93c-17.28-21.52-25.81-47.89-33.99-73.74
			c-12.25-38.67-13.88-67.69-29.78-103.38c-1.01-2.27-2.08-4.57-3.21-6.9c-37.3-76.8-138.34-104.53-206.83-159.9
			c-19.64-15.88-36.32-34.45-49.87-54.87c-52.08-78.59-57.22-184.08-6.11-268.25c63.21-104.08,206.37-164.78,330.4-139.09
			c104.63,21.67,187.87,95.63,294.05,111.32c74.39,11,151.57-8.15,227.1-5.26c83.54,3.2,163.43,34.96,223.08,85.94
			c19.31,16.51,36.51,35.05,51.01,55.34c59.3,82.98,72.2,193.27,33.89,289.71c-31.11,78.33-92.77,145.49-121.76,224.44
			c-23.38,63.66-24.19,131.45-41.08,196.56c-16.89,65.31-56.67,133.54-125.66,158.04c-64.96,23.06-137.67-0.16-189.43-38.48
			c-51.81-38.28-88.68-90.24-132.22-136.52C610.03,1024.04,555.37,981.51,487.85,972.29z"/>
		<path class="st3" d="M500.25,960.89c-28.13-3.89-35.34-15.03-51.88-35.62c-16.63-20.73-24.83-46.12-32.7-71.02
			c-11.77-37.22-13.35-65.19-28.63-99.55c-0.97-2.19-2-4.4-3.08-6.65c-35.83-73.99-132.81-100.92-198.58-154.34
			c-18.86-15.32-34.88-33.22-47.89-52.9c-50.03-75.75-54.89-177.25-5.54-258.25c60.82-99.81,198.12-158.08,317.18-133.47
			c100.44,20.76,180.37,91.67,282.27,106.78c71.39,10.59,145.44-7.73,217.88-4.85c80.2,3.19,156.8,33.87,213.99,82.93
			c18.52,15.88,35,33.72,48.91,53.23c56.86,79.79,69.24,185.76,32.54,278.44c-29.81,75.28-88.89,139.87-116.67,215.74
			c-22.41,61.19-23.19,126.32-39.38,188.9c-16.19,62.8-54.32,128.45-120.56,152.08c-62.3,22.23-132.08,0.03-181.76-36.64
			c-49.75-36.63-85.2-86.39-127.04-130.76C617.54,1010.6,565.05,969.84,500.25,960.89z"/>
		<path class="st3" d="M512.66,949.49c-27-3.77-33.96-14.53-49.83-34.31c-15.97-19.95-23.86-44.35-31.41-68.29
			c-11.3-35.77-12.83-62.7-27.47-95.73c-0.93-2.11-1.91-4.24-2.96-6.39c-34.35-71.18-127.28-97.3-190.32-148.79
			c-18.08-14.76-33.44-32-45.92-50.93c-47.99-72.92-52.57-170.41-4.97-248.25c58.43-95.54,189.87-151.38,303.96-127.84
			c96.24,19.85,172.87,87.71,270.48,102.23c68.39,10.18,139.31-7.31,208.67-4.43c76.85,3.19,150.16,32.78,204.9,79.92
			c17.72,15.26,33.5,32.39,46.81,51.12c54.42,76.6,66.29,178.24,31.19,267.18c-28.5,72.24-85.02,134.24-111.59,207.05
			c-21.43,58.71-22.18,121.2-37.67,181.24c-15.49,60.3-51.97,123.35-115.46,146.13c-59.65,21.4-126.48,0.22-174.1-34.79
			c-47.7-34.97-81.72-82.54-121.86-124.99C625.06,997.16,574.73,958.16,512.66,949.49z"/>
		<path class="st3" d="M525.07,938.09c-25.87-3.66-32.58-14.03-47.78-33c-15.31-19.16-22.88-42.58-30.12-65.57
			c-10.83-34.32-12.31-60.21-26.32-91.91c-0.89-2.02-1.83-4.07-2.83-6.14c-32.87-68.36-121.75-93.69-182.07-143.23
			c-17.3-14.2-32-30.77-43.94-48.96c-45.95-70.08-50.24-163.57-4.4-238.25c56.03-91.28,181.62-144.68,290.74-122.22
			c92.04,18.94,165.37,83.76,258.7,97.69c65.38,9.76,133.18-6.88,199.46-4.01c73.5,3.18,143.53,31.69,195.82,76.91
			c16.93,14.64,32,31.06,44.71,49.01c51.99,73.42,63.33,170.72,29.84,255.92c-27.2,69.19-81.14,128.62-106.51,198.36
			c-20.46,56.23-21.18,116.08-35.96,173.58c-14.79,57.79-49.62,118.25-110.37,140.18c-56.99,20.57-120.88,0.41-166.44-32.95
			c-45.64-33.32-78.24-78.69-116.68-119.22C632.57,983.72,584.41,946.49,525.07,938.09z"/>
		<path class="st3" d="M537.47,926.69c-24.74-3.55-31.19-13.53-45.73-31.69c-14.65-18.37-21.91-40.81-28.84-62.85
			c-10.35-32.87-11.78-57.71-25.16-88.09c-0.85-1.94-1.75-3.9-2.7-5.89c-31.4-65.55-116.21-90.08-173.81-137.68
			c-16.52-13.65-30.56-29.54-41.97-46.99c-43.91-67.25-47.92-156.73-3.83-228.25c53.64-87.01,173.38-137.98,277.51-116.6
			c87.85,18.03,157.88,79.8,246.92,93.15c62.38,9.35,127.06-6.46,190.25-3.6c70.15,3.18,136.9,30.6,186.73,73.89
			c16.13,14.02,30.5,29.73,42.61,46.9c49.55,70.23,60.37,163.21,28.49,244.65c-25.89,66.15-77.26,123-101.42,189.67
			c-19.48,53.76-20.17,110.95-34.25,165.92c-14.09,55.29-47.27,113.16-105.27,134.23c-54.33,19.74-115.29,0.6-158.78-31.11
			c-43.58-31.66-74.76-74.84-111.5-113.46C640.09,970.29,594.09,934.81,537.47,926.69z"/>
		<path class="st3" d="M549.88,915.28c-23.6-3.44-29.81-13.03-43.67-30.38c-13.99-17.58-20.93-39.05-27.55-60.12
			c-9.88-31.41-11.26-55.22-24-84.27c-0.81-1.86-1.67-3.73-2.58-5.64c-29.92-62.74-110.68-86.46-165.55-132.13
			c-15.74-13.09-29.12-28.32-40-45.02c-41.86-64.41-45.6-149.89-3.26-218.25c51.25-82.74,165.13-131.28,264.29-110.98
			c83.66,17.13,150.38,75.84,235.13,88.6c59.38,8.94,120.93-6.04,181.03-3.18c66.8,3.17,130.26,29.51,177.64,70.88
			c15.34,13.39,28.99,28.4,40.52,44.79c47.11,67.04,57.42,155.69,27.14,233.39c-24.59,63.11-73.39,117.37-96.34,180.97
			c-18.51,51.28-19.16,105.83-32.54,158.27c-13.38,52.78-44.92,108.06-100.17,128.27c-51.68,18.91-109.69,0.79-151.12-29.27
			c-41.52-30-71.28-71-106.32-107.69C647.6,956.85,603.77,923.13,549.88,915.28z"/>
		<path class="st3" d="M562.29,903.88c-22.47-3.32-28.43-12.52-41.62-29.07c-13.34-16.79-19.96-37.28-26.26-57.4
			c-9.41-29.96-10.74-52.73-22.85-80.45c-0.77-1.77-1.59-3.57-2.45-5.38c-28.44-59.92-105.15-82.85-157.3-126.57
			c-14.95-12.53-27.68-27.09-38.02-43.05c-39.82-61.57-43.27-143.05-2.69-208.25c48.85-78.47,156.88-124.58,251.07-105.35
			c79.46,16.22,142.88,71.88,223.35,84.06c56.38,8.53,114.8-5.61,171.82-2.77c63.45,3.17,123.63,28.42,168.55,67.87
			c14.54,12.77,27.49,27.07,38.42,42.68c44.68,63.85,54.46,148.18,25.79,222.12c-23.28,60.06-69.51,111.75-91.26,172.28
			c-17.54,48.81-18.16,100.71-30.84,150.61c-12.68,50.28-42.57,102.96-95.07,122.32c-49.02,18.08-104.1,0.99-143.46-27.43
			c-39.46-28.35-67.8-67.15-101.14-101.92C655.12,943.41,613.46,911.45,562.29,903.88z"/>
		<path class="st3" d="M574.7,892.48c-21.34-3.21-27.04-12.02-39.57-27.76c-12.68-16-18.98-35.51-24.97-54.67
			c-8.93-28.51-10.21-50.23-21.69-76.63c-0.73-1.69-1.5-3.4-2.32-5.13c-26.97-57.11-99.62-79.24-149.05-121.02
			c-14.17-11.98-26.23-25.87-36.05-41.08c-37.78-58.74-40.95-136.21-2.12-198.25c46.45-74.21,148.63-117.88,237.84-99.73
			c75.27,15.31,135.38,67.92,211.57,79.52c53.38,8.12,108.67-5.19,162.61-2.35c60.11,3.17,117,27.33,159.47,64.86
			c13.75,12.15,25.99,25.74,36.32,40.57c42.24,60.66,51.51,140.67,24.44,210.86c-21.98,57.02-65.64,106.13-86.17,163.59
			c-16.56,46.33-17.15,95.58-29.13,142.95c-11.98,47.77-40.22,97.86-89.97,116.37c-46.36,17.25-98.5,1.18-135.79-25.58
			c-37.41-26.69-64.32-63.3-95.96-96.16C662.64,929.97,623.14,899.78,574.7,892.48z"/>
		<path class="st3" d="M587.1,881.08c-20.21-3.1-25.66-11.52-37.52-26.45c-12.02-15.21-18.01-33.74-23.69-51.95
			c-8.46-27.06-9.69-47.74-20.53-72.8c-0.69-1.61-1.42-3.23-2.19-4.88c-25.49-54.3-94.09-75.62-140.79-115.46
			c-13.39-11.42-24.79-24.64-34.07-39.11c-35.74-55.9-38.63-129.38-1.55-188.25c44.05-69.94,140.38-111.19,224.62-94.11
			c71.07,14.4,127.88,63.97,199.79,74.97c50.38,7.71,102.55-4.77,153.4-1.93c56.76,3.16,110.36,26.24,150.38,61.84
			c12.95,11.53,24.49,24.41,34.22,38.46c39.8,57.48,48.55,133.15,23.09,199.59c-20.68,53.97-61.76,100.5-81.09,154.89
			c-15.59,43.85-16.15,90.46-27.42,135.29c-11.28,45.26-37.87,92.76-84.87,110.42c-43.7,16.41-92.9,1.37-128.13-23.74
			c-35.35-25.03-60.84-59.45-90.78-90.39C670.15,916.53,632.82,888.1,587.1,881.08z"/>
		<path class="st3" d="M599.51,869.68c-19.08-2.99-24.28-11.02-35.47-25.14c-11.36-14.42-17.03-31.97-22.4-49.23
			c-7.98-25.61-9.17-45.25-19.38-68.98c-0.65-1.52-1.34-3.06-2.07-4.62c-24.02-51.48-88.55-72.01-132.53-109.91
			c-12.61-10.86-23.35-23.42-32.1-37.15c-33.69-53.06-36.31-122.54-0.98-178.26c41.65-65.68,132.14-104.49,211.4-88.49
			c66.88,13.49,120.38,60.01,188,70.43c47.38,7.3,96.42-4.34,144.18-1.52c53.41,3.16,103.73,25.15,141.29,58.83
			c12.16,10.9,22.99,23.08,32.12,36.35c37.36,54.29,45.6,125.63,21.74,188.33c-19.37,50.93-57.88,94.88-76,146.2
			c-14.61,41.38-15.14,85.34-25.71,127.63c-10.58,42.76-35.52,87.67-79.77,104.46c-41.05,15.58-87.31,1.56-120.47-21.9
			c-33.29-23.38-57.36-55.6-85.6-84.62C677.67,903.09,642.5,876.42,599.51,869.68z"/>
		<path class="st3" d="M611.92,858.28c-17.94-2.88-22.89-10.52-33.41-23.84c-10.7-13.63-16.06-30.2-21.11-46.5
			c-7.51-24.16-8.64-42.75-18.22-65.16c-0.61-1.44-1.26-2.9-1.94-4.37c-22.54-48.67-83.02-68.4-124.28-104.35
			c-11.83-10.3-21.91-22.19-30.12-35.17c-31.65-50.23-33.99-115.7-0.41-168.26c39.24-61.41,123.89-97.79,198.18-82.86
			c62.68,12.59,112.88,56.05,176.22,65.89c44.37,6.89,90.29-3.92,134.97-1.1c50.07,3.16,97.1,24.07,132.2,55.82
			c11.36,10.28,21.48,21.75,30.02,34.24c34.93,51.1,42.64,118.12,20.4,177.06c-18.07,47.88-54.01,89.26-70.92,137.51
			c-13.64,38.9-14.13,80.21-24.01,119.98c-9.88,40.25-33.17,82.57-74.67,98.51c-38.39,14.75-81.71,1.75-112.81-20.06
			c-31.23-21.72-53.88-51.75-80.42-78.86C685.18,889.66,652.18,864.74,611.92,858.28z"/>
		<path class="st3" d="M624.32,846.88c-16.81-2.77-21.51-10.01-31.36-22.53c-10.05-12.84-15.09-28.43-19.82-43.78
			c-7.03-22.71-8.12-40.26-17.07-61.34c-0.57-1.36-1.17-2.73-1.81-4.12c-21.06-45.86-77.49-64.78-116.03-98.8
			c-11.05-9.75-20.47-20.97-28.15-33.21c-29.61-47.39-31.67-108.85,0.16-158.26c36.83-57.15,115.64-91.09,184.95-77.24
			c58.49,11.68,105.38,52.09,164.44,61.34c41.37,6.48,84.17-3.49,125.76-0.69c46.72,3.15,90.47,22.98,123.11,52.81
			c10.57,9.66,19.98,20.42,27.93,32.13c32.49,47.91,39.68,110.6,19.05,165.8c-16.76,44.84-50.13,83.63-65.84,128.81
			c-12.67,36.43-13.13,75.09-22.3,112.32c-9.18,37.74-30.82,77.47-69.57,92.56c-35.73,13.91-76.07,1.88-105.14-18.21
			c-29.12-20.13-50.4-47.9-75.24-73.09C692.7,876.22,661.86,853.06,624.32,846.88z"/>
		<path class="st3" d="M636.73,835.48c-15.68-2.65-20.12-9.51-29.31-21.22c-9.39-12.06-14.11-26.66-18.54-41.05
			c-6.56-21.26-7.59-37.77-15.91-57.52c-0.53-1.27-1.09-2.56-1.69-3.87c-19.59-43.04-71.96-61.17-107.77-93.24
			c-10.27-9.19-19.03-19.74-26.18-31.24c-27.57-44.56-29.36-102.01,0.73-148.26c34.41-52.89,107.39-84.39,171.73-71.62
			c54.29,10.77,97.89,48.13,152.65,56.8c38.37,6.07,78.04-3.07,116.55-0.27c43.38,3.15,83.83,21.89,114.03,49.79
			c9.77,9.04,18.48,19.09,25.83,30.02c30.05,44.72,36.73,103.09,17.7,154.53c-15.46,41.79-46.26,78.01-60.75,120.12
			c-11.69,33.95-12.12,69.97-20.59,104.66c-8.47,35.24-28.47,72.37-64.47,86.61c-33.07,13.08-70.47,2.07-97.48-16.37
			c-27.06-18.47-46.92-44.06-70.06-67.32C700.21,862.78,671.54,841.37,636.73,835.48z"/>
		<path class="st3" d="M649.14,824.08c-14.55-2.54-18.74-9.01-27.26-19.91c-8.73-11.27-13.14-24.89-17.25-38.33
			c-6.09-19.8-7.07-35.27-14.75-53.7c-0.49-1.19-1.01-2.4-1.56-3.61c-18.11-40.23-66.43-57.55-99.52-87.69
			c-9.49-8.63-17.59-18.51-24.2-29.27c-25.52-41.72-27.04-95.17,1.3-138.26c31.99-48.63,99.15-77.69,158.51-66
			c50.1,9.86,90.39,44.17,140.87,52.26c35.37,5.66,71.92-2.64,107.34,0.15c40.03,3.15,77.2,20.8,104.94,46.78
			c8.98,8.41,16.98,17.76,23.73,27.91c27.62,41.53,33.77,95.57,16.35,143.27c-14.15,38.75-42.38,72.38-55.67,111.43
			c-10.72,31.47-11.12,64.84-18.88,97c-7.77,32.73-26.11,67.27-59.38,80.65c-30.41,12.24-64.87,2.26-89.82-14.53
			c-25-16.82-43.44-40.21-64.88-61.56C707.73,849.34,681.22,829.69,649.14,824.08z"/>
		<path class="st3" d="M661.54,812.68c-13.42-2.43-17.38-8.49-25.21-18.6c-8.1-10.46-12.16-23.12-15.96-35.61
			c-5.61-18.35-6.55-32.78-13.6-49.87c-0.45-1.11-0.93-2.23-1.43-3.36c-16.64-37.42-60.89-53.94-91.26-82.14
			c-8.71-8.08-16.15-17.29-22.23-27.3c-23.48-38.88-24.73-88.33,1.87-128.26c29.56-44.37,90.9-70.99,145.28-60.37
			c45.9,8.95,82.89,40.22,129.09,47.71c32.37,5.25,65.79-2.21,98.12,0.56c36.69,3.15,70.57,19.71,95.85,43.77
			c8.19,7.79,15.48,16.43,21.63,25.8c25.18,38.35,30.82,88.06,15,132.01c-12.85,35.7-38.5,66.76-50.59,102.74
			c-9.74,29-10.18,59.71-17.17,89.34c-7.14,30.22-23.76,62.16-54.28,74.7c-27.76,11.4-59.27,2.44-82.16-12.69
			c-22.94-15.17-39.96-36.36-59.69-55.79C715.24,835.9,690.9,818,661.54,812.68z"/>
		<path class="st3" d="M673.95,801.28c-12.29-2.32-16-7.99-23.15-17.29c-7.44-9.67-11.19-21.35-14.67-32.88
			c-5.14-16.9-6.06-30.27-12.44-46.05c-0.41-1.03-0.85-2.06-1.3-3.11c-15.16-34.6-55.36-50.33-83.01-76.58
			c-7.92-7.52-14.71-16.06-20.25-25.33c-21.44-36.05-22.43-81.49,2.44-118.26c27.13-40.11,82.65-64.29,132.06-54.75
			c41.71,8.05,75.39,36.26,117.3,43.17c29.37,4.84,59.67-1.78,88.91,0.98c33.35,3.15,63.93,18.62,86.76,40.76
			c7.39,7.17,13.97,15.1,19.53,23.69c22.74,35.16,27.86,80.54,13.65,120.74c-11.54,32.66-34.63,61.14-45.5,94.04
			c-8.77,26.52-9.17,54.59-15.47,81.69c-6.44,27.71-21.41,57.06-49.18,68.75c-25.1,10.56-53.67,2.63-74.5-10.85
			c-20.88-13.52-36.52-32.47-54.52-50.02C722.72,822.5,700.58,806.32,673.95,801.28z"/>
		<path class="st3" d="M686.36,789.88c-11.16-2.22-14.62-7.49-21.1-15.98c-6.79-8.88-10.21-19.58-13.39-30.16
			c-4.66-15.45-5.54-27.78-11.28-42.23c-0.37-0.94-0.76-1.89-1.18-2.85c-13.68-31.79-49.83-46.71-74.75-71.03
			c-7.14-6.96-13.27-14.84-18.28-23.36c-19.39-33.21-20.12-74.64,3.01-108.26c24.68-35.86,74.4-57.59,118.84-49.13
			c37.51,7.14,67.89,32.3,105.52,38.62c26.37,4.43,53.55-1.35,79.7,1.39c30.01,3.15,57.3,17.53,77.68,37.74
			c6.6,6.55,12.47,13.77,17.43,21.58c20.3,31.97,24.91,73.03,12.3,109.48c-10.24,29.61-30.75,55.51-40.42,85.35
			c-7.8,24.05-8.17,49.46-13.76,74.03c-5.74,25.2-19.05,51.95-44.08,62.8c-22.44,9.72-48.08,2.82-66.83-9
			c-18.82-11.87-33.04-28.62-49.33-44.26C730.23,809.06,710.26,794.62,686.36,789.88z"/>
		<path class="st3" d="M698.76,778.48c-10.03-2.11-13.23-6.99-19.05-14.67c-6.13-8.09-9.24-17.81-12.1-27.43
			c-4.19-14-5.01-25.28-10.13-38.41c-0.33-0.86-0.68-1.72-1.05-2.6c-12.21-28.98-44.3-43.1-66.5-65.47
			c-6.36-6.4-11.83-13.61-16.31-21.39c-17.35-30.38-17.83-67.8,3.58-98.26c22.22-31.61,66.15-50.89,105.62-43.5
			c33.32,6.23,60.39,28.34,93.74,34.08c23.36,4.02,47.43-0.92,70.49,1.81c26.67,3.15,50.67,16.44,68.59,34.73
			c5.8,5.92,10.97,12.44,15.34,19.47c17.87,28.78,21.95,65.51,10.95,98.21c-8.93,26.57-26.88,49.89-35.34,76.66
			c-6.82,21.57-7.16,44.34-12.05,66.37c-5.04,22.7-16.7,46.84-38.98,56.84c-19.78,8.88-42.48,3.01-59.17-7.16
			c-16.76-10.21-29.56-24.77-44.15-38.49C737.75,795.63,719.94,782.93,698.76,778.48z"/>
		<path class="st3" d="M711.17,767.08c-8.9-2-11.85-6.48-17-13.36c-5.47-7.3-8.26-16.04-10.81-24.71
			c-3.72-12.55-4.49-22.79-8.97-34.59c-0.3-0.77-0.6-1.56-0.92-2.35c-10.73-26.16-38.77-39.48-58.24-59.92
			c-5.58-5.85-10.39-12.39-14.33-19.42c-15.31-27.54-15.54-60.96,4.15-88.26c19.74-27.37,57.91-44.19,92.39-37.88
			c29.13,5.32,52.89,24.38,81.96,29.54c20.36,3.61,41.3-0.48,61.27,2.23c23.33,3.16,44.04,15.35,59.5,31.72
			c5.01,5.3,9.47,11.11,13.24,17.36c15.43,25.59,18.99,58,9.6,86.95c-7.63,23.53-23,44.27-30.25,67.96
			c-5.85,19.09-6.15,39.22-10.34,58.71c-4.34,20.19-14.34,41.73-33.88,50.89c-17.12,8.03-36.88,3.2-51.51-5.32
			c-14.71-8.56-26.08-20.92-38.97-32.72C745.26,782.19,729.62,771.23,711.17,767.08z"/>
		<path class="st3" d="M723.58,755.68c-7.77-1.9-10.46-5.98-14.95-12.05c-4.81-6.52-7.29-14.28-9.52-21.99
			c-3.24-11.1-3.97-20.3-7.82-30.77c-0.25-0.69-0.52-1.39-0.8-2.09c-9.26-23.35-33.24-35.87-49.99-54.36
			c-4.8-5.29-8.94-11.16-12.36-17.45c-13.27-24.7-13.27-54.11,4.72-78.26c17.24-23.14,49.66-37.49,79.17-32.26
			c24.93,4.41,45.39,20.43,70.17,24.99c17.36,3.2,35.19-0.03,52.06,2.64c20.01,3.17,37.4,14.26,50.41,28.71
			c4.21,4.68,7.97,9.78,11.14,15.25c12.99,22.4,16.04,50.48,8.25,75.68c-6.33,20.48-19.12,38.64-25.17,59.27
			c-4.87,16.62-5.15,34.1-8.63,51.05c-3.64,17.69-11.98,36.61-28.78,44.94c-14.46,7.17-31.29,3.38-43.85-3.48
			c-12.65-6.91-22.6-17.07-33.79-26.96C752.78,768.75,739.3,759.52,723.58,755.68z"/>
		<path class="st3" d="M735.99,744.27c-6.64-1.8-9.08-5.48-12.89-10.74c-4.15-5.73-6.32-12.51-8.23-19.26
			c-2.77-9.64-3.44-17.81-6.66-26.94c-0.21-0.61-0.44-1.22-0.67-1.84c-7.78-20.54-27.7-32.26-41.73-48.81
			c-4.02-4.73-7.52-9.93-10.38-15.48c-11.28-21.85-11.02-47.27,5.29-68.26c14.7-18.92,41.41-30.79,65.95-26.64
			c20.74,3.51,37.9,16.47,58.39,20.45c14.36,2.79,29.07,0.42,42.85,3.06c16.68,3.19,30.77,13.17,41.32,25.69
			c3.42,4.06,6.46,8.45,9.04,13.14c10.55,19.22,13.08,42.97,6.9,64.42c-5.02,17.44-15.25,33.02-20.08,50.58
			c-3.9,14.14-4.14,28.97-6.93,43.39c-2.93,15.18-9.62,31.48-23.68,38.99c-11.81,6.3-25.7,3.57-36.19-1.64
			c-10.59-5.26-19.12-13.22-28.61-21.19C760.29,755.32,748.98,747.8,735.99,744.27z"/>
		<path class="st3" d="M748.39,732.87c-5.52-1.71-7.69-4.98-10.84-9.43c-3.49-4.94-5.34-10.74-6.95-16.54
			c-2.3-8.19-2.91-15.32-5.5-23.12c-0.17-0.53-0.35-1.06-0.54-1.59c-6.3-17.72-22.17-28.64-33.48-43.26
			c-3.24-4.18-6.08-8.7-8.41-13.51c-9.23-19.01-8.8-40.44,5.86-58.27c12.12-14.73,33.16-24.09,52.73-21.01
			c16.54,2.6,30.4,12.51,46.61,15.91c11.36,2.38,22.96,0.9,33.64,3.48c13.36,3.23,24.14,12.08,32.24,22.68
			c2.62,3.43,4.96,7.12,6.94,11.03c8.12,16.03,10.13,35.45,5.55,53.15c-3.72,14.39-11.37,27.39-15,41.88
			c-2.93,11.67-3.13,23.85-5.22,35.74c-2.23,12.68-7.26,26.34-18.58,33.03c-9.15,5.42-20.11,3.76-28.52,0.21
			c-8.54-3.6-15.64-9.37-23.43-15.43C767.81,741.88,758.67,736.06,748.39,732.87z"/>
		<path class="st3" d="M760.8,721.47c-4.39-1.63-6.31-4.48-8.79-8.12c-2.83-4.15-4.37-8.97-5.66-13.82
			c-1.82-6.74-2.39-12.82-4.35-19.3c-0.13-0.44-0.27-0.89-0.42-1.34c-4.83-14.91-16.64-25.03-25.22-37.7
			c-2.46-3.62-4.63-7.48-6.44-11.54c-7.18-16.18-6.65-33.64,6.43-48.27c9.46-10.58,24.92-17.39,39.5-15.39
			c12.35,1.69,22.9,8.55,34.82,11.36c8.36,1.97,16.85,1.4,24.42,3.89c10.05,3.3,17.5,11,23.15,19.67c1.83,2.81,3.46,5.79,4.84,8.92
			c5.68,12.84,7.17,27.94,4.2,41.89c-2.41,11.35-7.5,21.77-9.92,33.19c-1.95,9.19-2.12,18.73-3.51,28.08
			c-1.52,10.17-4.91,21.16-13.48,27.08c-6.51,4.5-14.52,3.95-20.86,2.05c-6.5-1.95-12.15-5.53-18.25-9.66
			C775.33,728.44,768.36,724.28,760.8,721.47z"/>
	</g>
</g>
<radialGradient id="SVGID_3_" cx="1171.375" cy="-24.5222" r="1591.5242" gradientTransform="matrix(-1 0 0 1 1187.988 0)" gradientUnits="userSpaceOnUse">
	<stop  offset="0.1488" style="stop-color:#FFCC33;stop-opacity:0"/>
	<stop  offset="0.941" style="stop-color:#FFCC33"/>
</radialGradient>
<polygon class="st4" points="-2.66,764.17 1363.34,764.17 1363.34,-4.17 -2.66,-4.17 "/>
<linearGradient id="SVGID_4_" gradientUnits="userSpaceOnUse" x1="-3" y1="380" x2="1363" y2="380">
	<stop  offset="0.0355" style="stop-color:#FF3333"/>
	<stop  offset="0.6755" style="stop-color:#FF3333;stop-opacity:0"/>
</linearGradient>
<polygon class="st5" points="-3,764.17 1363,764.17 1363,-4.17 -3,-4.17 "/>
<g>
</g>
<g>
</g>
<g>
</g>
<g>
</g>
<g>
</g>
<g>
</g>
<g>
</g>
<g>
</g>
<g>
</g>
<g>
</g>
<g>
</g>
<g>
</g>
<g>
</g>
<g>
</g>
<g>
</g>
</svg>
