<svg version="1.1" id="Layer_1" xmlns="http://www.w3.org/2000/svg" x="0" y="0" viewBox="0 0 800 600" xml:space="preserve"><style>.st1,.st2{stroke-miterlimit:10}.st1{fill:#ff1d26;stroke:#ff1d26;stroke-width:2}.st2{fill:none;stroke:#000}.st3{fill:#3f4040}</style><path d="M210.41 92.66l-5.01-5.01-5.81 5.81v4.82h34.7V86.8h11.01c3.9 0 7.08-3.18 7.08-7.08V64.94h7.77c.86 0 1.64-.39 2.15-1.08.51-.69.67-1.55.42-2.37l-7.42-25.17h-11.42l-.14-18.74c-.84-.85-3.73-3.56-8.38-5.62-7.43-3.29-15.58-3.43-24.22-.44-12.24 4.24-20.87 16.14-21.46 29.59-.29 6.46 2.51 17.72 11.31 28.29h9.25l.17 23.26zm17.31-67.67c.43-1.69 1.78-3.82 4.92-3.82 3.14 0 4.49 2.13 4.92 3.82h3.97l-.3 5.85h-1.02c-.64 0-1.18.15-1.59.43-1 .69-1.14 1.89-1.15 2.03 0 .12.01 1.09.75 1.83.75.75 1.7.76 1.89.75l1.11-.04v5.82h-5.97v-1.08c0-.84-.21-1.45-.65-1.87-.71-.69-1.86-.68-1.87-.68h-.16c-.03 0-1.19-.02-1.92.69-.43.42-.64 1.03-.64 1.86v1.08h-5.97v-5.82l1.11.04c.18.01 1.15 0 1.89-.75.75-.75.76-1.71.75-1.9-.02-.16-.17-1.3-1.15-1.97-.42-.29-.96-.43-1.59-.43h-1.02l-.3-5.85h3.99zm-3.59 24.45V45.9l3.53.03c.55-2.8 3.19-3.66 4.66-3.71 0 0 0 0 0 0 3.1 0 4.49 2.26 4.95 4.02h3.78v3.34c1.16.18 2.09.65 2.79 1.41 1.27 1.4 1.22 3.22 1.19 3.61-.02 3.1-2.27 4.45-4.02 4.89v4.06h-5.71v-1.08c0-.98-.26-1.72-.76-2.2-.8-.75-2.06-.71-2.07-.71-2.51 0-2.71 2.61-2.72 2.72l-.07 1H224v-3.72c-.78-.17-1.81-.57-2.67-1.5-1.23-1.32-1.35-2.88-1.35-3.49-.01-.16-.07-2.12 1.28-3.61.92-.99 2.04-1.38 2.87-1.52zm-25.9-16.91c.08-1.38.89-3.74 3.31-4.29l-.07-3.47h6.19l-.15 1.21c-.03.3-.01 1.23.48 1.78.34.38.89.57 1.65.57.5 0 2.12-.18 2.12-2.39v-1.08h5.58v3.71c.53.14 1.14.41 1.72.91 1.4 1.21 1.53 2.86 1.53 3.34 0 .28-.09 2.51-1.96 3.78-.44.3-.93.5-1.47.62v3.04h-4.98l-.1-.96c-.03-.24-.34-2.39-2.29-2.39 0 0 0 0 0 0-.04 0-1.18.01-1.89.71-.41.41-.62 1-.62 1.79v1.08h-5.53v-3.56c-1.54-.51-3.52-1.8-3.52-4.4zm11.43 31.51h0c-2.62 0-3.84-1.89-4.28-3.42h-3.47V55.4H203c1.9 0 2.08-1.62 2.1-2.11 0-1.95-1.93-2.2-2.31-2.23l-1-.08-.01-5.52 3.71.07c.17-.86.55-1.57 1.14-2.14 1.28-1.23 3.03-1.19 3.22-1.18 0 0 0 0 0 0 2.37 0 3.57 1.79 4.04 3.23h3.25v5.22h-1.08c-1.89 0-2.29 2.03-2.34 2.41.05 2.05 2.37 2.29 2.47 2.3l.97.09v5.37h-3.3c-.16.8-.52 1.47-1.07 2-1.15 1.12-2.71 1.19-3.06 1.19-.04.02-.05.02-.07.02z" fill="#ffb200" stroke="#ffb200" stroke-width="2" stroke-miterlimit="10"/><path class="st1" d="M222.52 57.08c.83.9 1.97.94 2.19.94l1.09-.01v3.64h1.63c.44-1.67 1.75-3.76 4.67-3.76.15-.01 2.16-.1 3.65 1.3.74.69 1.2 1.6 1.38 2.72h1.5v-3.87l1.02-.06c.31-.02 3.04-.3 3.04-2.98v-.1s.09-1.24-.65-2.05c-.48-.52-1.25-.78-2.29-.78h-1.09v-3.29h-3.55l-.08-1c-.03-.31-.36-3.07-2.98-3.07-.41.02-2.67.25-2.67 2.67v1.1l-3.46-.03v3.56l-1.16-.07c-.14-.01-1.42-.06-2.31.92-.77.84-.73 2.12-.73 2.14.01.4.09 1.31.8 2.08zM204.08 35.81v3.23h1.33c.17-.91.57-1.67 1.19-2.28 1.36-1.33 3.24-1.33 3.44-1.33 2.55 0 3.79 1.88 4.25 3.39h1v-2.96h1.09c.54 0 .99-.12 1.34-.36 1-.68 1.03-1.97 1.03-2.03 0-.15-.05-1.08-.79-1.72a2.35 2.35 0 00-1.43-.55l-1.05-.03v-3.56h-1.38c-.17.91-.55 1.67-1.16 2.27-1.24 1.23-2.91 1.23-3.08 1.24-1.41 0-2.52-.44-3.29-1.32-.64-.72-.89-1.59-.99-2.27h-1.74l.07 3.39h-1.11c-2.08 0-2.27 2.11-2.28 2.35 0 2.04 2.53 2.41 2.63 2.43l.93.11zM215.27 57.81c-1.55-.46-3.47-1.71-3.47-4.36l.01-.12c.15-1.34 1.07-3.73 3.45-4.29v-1.05h-2.93l-.12-.95c-.03-.23-.37-2.32-2.19-2.32-.05 0-1.07-.02-1.71.6-.38.37-.57.92-.57 1.68v1.11l-3.64-.07v1.44c1.51.42 3.35 1.61 3.35 4.26-.01 1.51-.89 3.66-3.2 4.18v1.04h3.22l.08 1c.02.25.3 2.46 2.37 2.46.03 0 1.01 0 1.61-.59.35-.35.52-.85.52-1.54V59.2h3.22v-1.39zM227.53 29.69c1.75 1.2 2.05 3.1 2.1 3.65.02.55-.03 2.23-1.39 3.59-.79.79-1.69 1.14-2.4 1.29v1.6h1.78c.17-.95.58-1.75 1.23-2.37 1.38-1.33 3.26-1.31 3.47-1.3h.07c.28 0 2.11 0 3.46 1.3.64.62 1.05 1.42 1.23 2.37h1.77v-1.6c-.71-.15-1.61-.5-2.4-1.29-1.35-1.35-1.41-3.04-1.39-3.52.04-.46.31-2.48 2.11-3.71.53-.36 1.13-.6 1.8-.73l.08-1.65h-3.69l-.05-1.03c-.03-.47-.31-2.82-2.96-2.82-2.74 0-2.95 2.53-2.96 2.82l-.05 1.03h-3.69l.08 1.65c.67.12 1.27.36 1.8.72z"/><path class="st2" d="M226.48 519.36h-24.77c-15.54 0-28.15-12.6-28.15-28.15v-219.2c0-15.54 12.6-28.15 28.15-28.15h24.77c15.54 0 28.15 12.6 28.15 28.15v219.2c0 15.55-12.6 28.15-28.15 28.15zM166.63 265.64h6.53v31.98h-6.53zM501.33 219.98H398.85c-7.25 0-13.14-5.88-13.14-13.14v-62c0-7.25 5.88-13.14 13.14-13.14h102.48c7.25 0 13.14 5.88 13.14 13.14v62c0 7.25-5.89 13.14-13.14 13.14z"/><path class="st2" d="M494.72 212.43h-89.25c-7.25 0-13.14-5.88-13.14-13.14v-46.9c0-7.25 5.88-13.14 13.14-13.14h89.25c7.25 0 13.14 5.88 13.14 13.14v46.9c-.01 7.25-5.89 13.14-13.14 13.14z"/><path class="st2" d="M491.46 201.86h-16.2c-3.97 0-7.19-3.22-7.19-7.19V156.4c0-3.97 3.22-7.19 7.19-7.19h16.2c3.97 0 7.19 3.22 7.19 7.19v38.27c-.01 3.98-3.23 7.19-7.19 7.19zM408.84 175.23v29.1a2.86 2.86 0 11-5.72 0v-29.1M403.12 158.46v-8.71a2.86 2.86 0 115.72 0v8.71M428.48 199.02v5.32a2.86 2.86 0 11-5.72 0v-5.32M422.76 182.24v-32.49a2.86 2.86 0 115.72 0v32.49M448.11 167.5v36.84a2.86 2.86 0 11-5.72 0v-36.96M442.39 150.6v-.85a2.86 2.86 0 115.72 0v.85"/><circle class="st2" cx="405.98" cy="166.85" r="8.86"/><circle class="st2" cx="425.62" cy="190.63" r="8.86"/><circle class="st2" cx="445.25" cy="158.99" r="8.86"/><path class="st2" d="M487.95 227.59h-76.86c-3.74 0-6.76-3.03-6.76-6.76v-.85h90.38v.85c0 3.73-3.03 6.76-6.76 6.76zM481.44 233.94H418.5a5.64 5.64 0 01-5.64-5.64v-.71h74.22v.71c-.01 3.11-2.53 5.64-5.64 5.64zM407.74 89.35v42.35h-4.62V88.87"/><circle class="st2" cx="405.95" cy="78.77" r="10.72"/><circle class="st2" cx="405.95" cy="78.77" r="4.85"/><path class="st2" d="M499.6 89.35v42.35h-4.62V88.87"/><circle class="st2" cx="497.81" cy="78.77" r="10.72"/><path class="st2" d="M416.67 78.77l7.12 4.66 7.12-13.73 7.08 18.14 4.4-6.38 7.7 3.09 7.01-14.85 4.82 21.79 6.87-10.89 7.21 4.37 4.73-29.24 2.62 27.75 3.74-4.71M94.03 220.06v-25.05c0-6.3 5.11-11.41 11.41-11.41h32.62"/><path class="st2" d="M101.03 220.24v-24.55c0-2.7 2.19-4.9 4.9-4.9h32.13M140.03 345.98v-88.25l-12.49-21.3h-11.46v-6.62l-3.12-3.13h-3.03v-6.25H84.56v6.44h-3.03l-3.22 3.22v6.34H64.68l-13.44 20.92v127.99l-13.82 23.28v27.27l-12.87 10.98v10.6h98.72M84.56 226.87h25.37M78.31 236.43h38.36M51.24 257.35h88.79M51.24 265.75h88.79"/><path class="st2" d="M91.3 373.04h46.03v43.89H91.3z"/><path class="st2" d="M99.71 381.06h29.22v27.86H99.71zM114.32 387.53v10.54M114.32 400.48v2.18M96.63 416.93h34.79v7.59H96.63zM121.76 424.53h7.16v5.25h-7.16z"/><circle class="st2" cx="104.24" cy="243.57" r="1.31"/><circle class="st2" cx="110.56" cy="243.57" r="1.31"/><circle class="st2" cx="116.88" cy="243.57" r="1.31"/><circle class="st2" cx="123.2" cy="243.57" r="1.31"/><path class="st2" d="M140.03 274.46h8.13v14.59h-8.13zM148.16 277.75h18.47M148.16 284.9h18.47M227.66 211.85h15.02v4.26"/><path class="st2" d="M227.66 211.85h-7.24v4.18h-9.76v20.35h131v-31.22H311l-6.13 11.15-84.45-.28M229.17 206.16v5.69M234.18 206.16v5.69M233.74 206.16h63.16l.61-76.63H171.08l-26.77 41.35v35.28h89.43"/><path class="st2" d="M283.43 206.16v5.69h-8.37v4.36M288.83 206.16v5.69h8.38v4.36M144.31 176.5h-6.3v19.78h6.3M262.6 58.88h32.93v56.99H164.06l-26.15-28.85 25.79-28.14h29.6"/><path class="st2" d="M262.12 65.56h27.64v43.28H167.31l-21.1-21.46 20.56-21.82h29.6M199.09 115.87v7.16h-6.52v6.5M205.91 115.87v7.16h6.53v6.5M205.91 123.03h-6.82M247.74 115.87v7.16h-6.52v6.5M254.56 115.87v7.16h6.53v6.5M254.56 123.03h-6.82M168.7 207.67v5.2l2.9 2.9h27.91l4.22 4.22v10.68l3.11 3.11h3.82M269.18 231.49h17.25v4.88h-17.25zM275.47 231.49v4.89M280.34 231.49v4.89M221.19 223.99h8.01v6.9h-8.01zM234.32 223.99h8.01v6.9h-8.01zM247.44 223.99h8.01v6.9h-8.01zM242.38 188.07v8.62c-.17 2.1-1.8 3.75-3.73 3.93-2.19.2-4.3-1.53-4.52-3.93v-4.12h-40.27v5.11s.39 1.48 1.81 2.34c.97.59 1.92.62 2.32.61h40.66M242.38 174.78V180M199.37 143.06v-5.89h43.01v32.15"/><circle class="st2" cx="228.32" cy="148.21" r="3.82"/><path class="st2" d="M228.38 140.93v3.76M228.38 151.85v3.76M233.57 143.08l-2.66 2.66M225.85 150.8l-2.66 2.66M235.72 148.27h-3.76M224.8 148.27h-3.76M233.57 153.46l-2.66-2.66M225.85 145.74l-2.66-2.66M218.61 159.61h1.82M223.04 159.61h15.6M218.37 164.77h20.27M223.71 169.69h23.35s1.82.42 1.82 2.91c0 0-.12 2.21-2.21 2.21h-23.15l-5.64-2.52 5.83-2.6zM225.83 175.02l.06-5.33M212.97 179.7h35.98v8.49h-35.98zM218.07 179.64v3.7M223.23 179.64v3.7M228.38 179.64v3.7M233.54 179.64v3.7M238.7 179.64v3.7M199.09 185.28v7.22M191.97 175.03h14.35v4.96h-14.45zM192.73 179.99l1.4 5.29h9.6l1.62-5.29M193.92 175.03v-3.24s-5.18-1.62-7.66-7.67c-1.78-4.34-1.48-9.37 1-13.36 1.94-3.13 5.47-6.26 11.84-6.26 0 0 13.75-.32 13.75 13.75 0 0 .81 9.87-8.9 12.78v3.99"/><path class="st2" d="M193.45 161.02l2.02 6.24H202.36l1.91-6.44M199.04 174.91v-7.8M244.62 17.97s-12.3-13.95-33.63-6.56c-12.72 4.41-21.33 16.76-21.93 30.2-.34 7.64 3.33 19.05 11.57 28.86M244.62 17.58l3.67 3.67 12.74-12.47 10.54 10.94-12.14 12.27 3.87 3.87h-18.55zM194.46 74.95l-4.27-4.27h19.21l.13 19.35-3.87-3.87-13 13.01-11.01-11.01z"/><path class="st2" d="M255.74 35.71l7.61 25.79c.71 2.39-1.08 4.78-3.57 4.78h-6.62v13.55c0 4.45-3.61 8.06-8.06 8.06h-9.82v11.34h-36.42v-6.27M202.87 26.58h3.82s-.44 3.52 3.16 3.52c0 0 3.16.04 3.16-3.43h3.38v3.52c.29.01 1.23.07 2.07.79 1.1.95 1.14 2.29 1.14 2.5 0 .18-.07 1.89-1.47 2.85-.47.32-1.09.54-1.91.54v2.9h-2.9s-.35-3.32-3.32-3.32c0 0-3.54-.07-3.54 3.54h-3.34v-3.3s-3.49-.48-3.49-3.49c0 0 .2-3.3 3.3-3.3l-.06-3.32zM203.14 47.05v3.38s3.28.2 3.28 3.28c0 0-.02 3.14-3.14 3.14v3.03h3.24s.29 3.38 3.38 3.38c0 0 3.16.08 3.16-3.16h3.16v-3.28s-3.4-.33-3.4-3.4c0 0 .39-3.38 3.38-3.38v-3.03h-2.99s-.41-3.2-3.2-3.2c0 0-3.3-.14-3.3 3.3l-3.57-.06z"/><path class="st2" d="M225.24 47.47v3.42c-.22-.01-1.9-.09-3.11 1.25-1.07 1.18-.99 2.85-.99 2.85 0 .29.02 1.61 1.05 2.72 1.15 1.24 2.67 1.26 2.92 1.26v3.56h3.56s.25-3.68 3.68-3.68c0 0 3.93-.25 3.93 3.93h3.51v-3.85s3.97-.25 3.97-3.97c0 0 .38-3.93-3.93-3.93v-3.22h-3.56s-.33-3.97-3.97-3.97c0 0-3.68.13-3.68 3.68l-3.38-.05zM232.64 37.56s3.59-.12 3.59 3.59H240v-3.59c-.23.01-1.58.03-2.66-1.05s-1.06-2.44-1.05-2.66c.02-.23.2-1.83 1.6-2.79.53-.36 1.24-.61 2.18-.61l.19-3.65h-3.71s-.19-3.77-3.96-3.77-3.96 3.77-3.96 3.77h-3.71l.19 3.65c.94 0 1.64.25 2.18.61 1.4.96 1.58 2.56 1.6 2.79.01.23.03 1.58-1.05 2.66s-2.44 1.06-2.66 1.05v3.59h3.77c0-3.71 3.59-3.59 3.59-3.59h.1zM37.42 435.89h75v-11.36M24.55 446.87h98.72M24.55 457.47l6.92 9.77h82.72l9.08-9.77v-10.6l-10.85-10.98M96.63 420.73h10.29M110.8 420.73h3.23M254.63 354.78h25.71M97.87 373.04v-7.45l10.81-10.81h64.89M125.34 354.78v-8.8h25.33v8.8"/><circle class="st2" cx="302.2" cy="278.61" r="18.42"/><circle class="st2" cx="302.2" cy="278.61" r="24.8"/><path class="st2" d="M279.83 267.89h-3.88c-2.56 0-4.64 2.08-4.64 4.64v13.28c0 2.56 2.08 4.64 4.64 4.64h3.88M271.32 273.26h-16.69M271.32 284.31h-16.69M324.69 267.89h3.88c2.56 0 4.64 2.08 4.64 4.64v13.28c0 2.56-2.08 4.64-4.64 4.64h-3.88M375.77 394.99h-12.25c-2.56 0-4.64 2.08-4.64 4.64v13.28c0 2.56 2.08 4.64 4.64 4.64h18.98M531.1 394.99h13.23c2.56 0 4.64 2.08 4.64 4.64v13.28c0 2.56-2.08 4.64-4.64 4.64h-20.31"/><path class="st2" d="M333.2 273.26h9.74c10.74 0 19.45 8.71 19.45 19.45v32.4c0 10.05-8.15 18.19-18.19 18.19h-40.71c-5.78 0-10.47 4.69-10.47 10.47v35.37c0 5.35 4.33 9.68 9.68 9.68h56.67"/><path class="st2" d="M333.2 284.31h7.5c5.07 0 9.19 4.11 9.19 9.19v27.7c0 5.08-4.12 9.2-9.2 9.2h-41.72c-10.29 0-18.63 8.34-18.63 18.63v43.94c0 10.44 8.46 18.89 18.89 18.89h60.14M558.71 398.82h-10.08M559.14 411.86h-10.51"/><circle class="st2" cx="214.1" cy="294.4" r="25.69"/><circle class="st2" cx="214.1" cy="294.4" r="18.92"/><circle class="st2" cx="214.1" cy="294.4" r="9.28"/><path class="st2" d="M211.46 275.48v10.03M215.64 275.48v10.03M230.21 304.44l-7.34-6.82M227.37 307.5l-7.34-6.82M197.73 304.44l7.34-6.82M200.58 307.5l7.34-6.82M284.13 282.13h36.49M297.17 282.13l9-9.08c.7-.71 1.83-.75 2.58-.09.8.7.87 1.92.14 2.7l-5.99 6.47"/><circle class="st2" cx="290.43" cy="271.01" r=".64"/><circle class="st2" cx="314.87" cy="271.01" r=".64"/><circle class="st2" cx="297.17" cy="265.71" r=".64"/><circle class="st2" cx="308.2" cy="265.71" r=".64"/><path class="st2" d="M235.98 469.93h-42.75c-5.71 0-10.33-4.63-10.33-10.33v-12.75c0-5.71 4.63-10.33 10.33-10.33h42.75c5.71 0 10.33 4.63 10.33 10.33v12.75c0 5.71-4.63 10.33-10.33 10.33z"/><path class="st2" d="M194.56 461.89h-.61c-1.33 0-2.41-1.08-2.41-2.41V445.3c0-1.33 1.08-2.41 2.41-2.41h.61c1.33 0 2.41 1.08 2.41 2.41v14.17a2.4 2.4 0 01-2.41 2.42zM207.1 461.89h-.61c-1.33 0-2.41-1.08-2.41-2.41V445.3c0-1.33 1.08-2.41 2.41-2.41h.61c1.33 0 2.41 1.08 2.41 2.41v14.17c0 1.34-1.08 2.42-2.41 2.42zM219.64 461.89h-.61c-1.33 0-2.41-1.08-2.41-2.41V445.3c0-1.33 1.08-2.41 2.41-2.41h.61c1.33 0 2.41 1.08 2.41 2.41v14.17c0 1.34-1.08 2.42-2.41 2.42zM232.17 461.89h-.61c-1.33 0-2.41-1.08-2.41-2.41V445.3c0-1.33 1.08-2.41 2.41-2.41h.61c1.33 0 2.41 1.08 2.41 2.41v14.17c0 1.34-1.08 2.42-2.41 2.42zM194.26 431h6.46v5.51h-6.46zM228.64 431h6.46v5.51h-6.46zM78.44 473.49v6.97c0 1.66 1.35 3.01 3.01 3.01h61.07c1.83 0 3.31-1.48 3.31-3.31v-1.72c0-2.75 2.21-4.99 4.96-5.02l15.56-.21"/><path class="st2" d="M67.62 473.49v10.84c0 5.65 4.58 10.24 10.24 10.24h73.4c2.97 0 5.39-2.41 5.39-5.39v-2.53c0-1.46 1.16-2.65 2.62-2.7l7.08-.2M167.14 465.02h6.43v32.33h-6.43zM314.87 211.85h19.64v19.64h-19.64zM491.26 451.9c24.29-13.37 40.75-39.2 40.75-68.89 0-43.39-35.18-78.57-78.57-78.57s-78.57 35.18-78.57 78.57c0 29.31 16.05 54.87 39.84 68.38l76.55.51zM384.06 373.51a69.91 69.91 0 00-.57 8.97M453.43 312.54c-32.55 0-59.9 22.23-67.71 52.34M491.26 451.9v12.02l-8.32 5.45h-61.68l-6.56-3.41v-14.57M421.26 469.37v11.59l6.47 5.11h50.1l5.79-4.09-.68-12.61M427.73 486.07v12.61l6.82 4.77h36.12l7.16-5.8v-11.58M436.25 503.45v8.52c.83.96 6.66 7.5 16.36 7.5s15.53-6.53 16.36-7.5v-8.52M558.71 389.1h8.99v32.81h-8.99z"/><path transform="rotate(-180 664.377 405.512)" class="st2" d="M659.88 389.1h8.99v32.81h-8.99z"/><path class="st2" d="M567.7 389.1v-5.92l15.71-15.71h8.3l6.91-6.92h30.81l7.23 7.23h7.85l15.37 15.37v44.69l-15.71 15.71h-8.3l-6.92 6.92h-30.8l-7.23-7.23h-7.85l-15.37-15.37v-5.95M635.87 367.47v76.08M591.71 443.55v-76.08M583.41 367.47v75.77M644.51 367.78v75.77M668.87 398.76h40.21c3.36 0 6.08-2.72 6.08-6.08v-19.57"/><path class="st2" d="M668.87 411.86h47.74c6.29 0 11.39-5.1 11.39-11.39V373.7"/><path class="st2" d="M709.75 362.9c0 6.8 5.52 12.32 12.32 12.32 6.8 0 12.32-5.52 12.32-12.32h-24.64z"/><path class="st2" d="M709.75 356.79h24.64v6.11h-24.64zM606.28 293.68v35.71h-49.02v-96.81h49.02v28.84M619.87 261.42v-28.84h49.02v96.81h-49.02v-35.71"/><path class="st2" d="M619.87 293.68h-21.25v-32.26h21.25M619.87 261.42h7.66v32.26h-7.66M584.29 336.3v3.52c0 1.18.96 2.14 2.14 2.14h18.48c1.18 0 2.14.96 2.14 2.14v16.46"/><path class="st2" d="M578.75 336.3v9.55c0 1.18.96 2.14 2.14 2.14h18.48c1.18 0 2.14.96 2.14 2.14v10.42M638.98 336.3v3.44c0 1.22-.99 2.22-2.22 2.22h-18.32c-1.22 0-2.22.99-2.22 2.22v16.38"/><path class="st2" d="M644.51 336.3v9.48c0 1.22-.99 2.22-2.22 2.22h-18.32c-1.22 0-2.22.99-2.22 2.22v10.34M549.69 224.99H676.7V336.3H549.69zM424.64 234.24h7.76v19.17h-7.76zM431.48 283.18h-5.91c-2.97 0-5.38-2.41-5.38-5.38v-19.01c0-2.97 2.41-5.38 5.38-5.38h5.91c2.97 0 5.38 2.41 5.38 5.38v19.01c-.01 2.97-2.41 5.38-5.38 5.38zM466.63 234.24h7.76v19.17h-7.76zM473.47 283.18h-5.91c-2.97 0-5.38-2.41-5.38-5.38v-19.01c0-2.97 2.41-5.38 5.38-5.38h5.91c2.97 0 5.38 2.41 5.38 5.38v19.01c0 2.97-2.41 5.38-5.38 5.38zM424.64 309.89v-26.41h7.76v22.98M466.63 305.55v-22.07h7.77v24.02M604.54 260.76l-6.18 7.25M610.26 261.32l-11.82 13.87M616.36 261.42l-17.74 20.83M622.56 261.42l-23.94 28.1M627.8 262.54l-26.35 30.92M627.53 270.12l-20.06 23.55M627.53 277.39l-13.87 16.28M627.8 284.35l-7.94 9.32M578 270.12v15.94M585.97 278.09h-15.94M654.91 278.09h-15.93M231.11 519.8c-.85 5.47-5.58 9.66-11.29 9.66H207.6c-5.79 0-10.57-4.31-11.32-9.9"/><path class="st2" d="M219.82 529.46v19.86c0 3.03 2.46 5.49 5.49 5.49h30.03a5.83 5.83 0 005.83-5.83v-42.09c0-5.51 4.47-9.97 9.97-9.97h7.67"/><path class="st2" d="M207.6 529.46v22.53c0 7.21 5.85 13.06 13.06 13.06h39.3c7.03 0 12.73-5.7 12.73-12.73v-39.51a3.83 3.83 0 013.83-3.83h2.29M445.5 518.9v31.17c0 3.03-2.46 5.49-5.49 5.49h-16.45a5.83 5.83 0 01-5.83-5.83v-42.85c0-5.51-4.47-9.97-9.97-9.97h-7.15"/><path class="st2" d="M457.73 518.9v33.84c0 7.21-5.85 13.06-13.06 13.06h-25.72c-7.03 0-12.73-5.7-12.73-12.73v-40.26a3.83 3.83 0 00-3.83-3.83M283.82 520.07h3.55v-41.3h-3.55c-2.76 0-5 2.24-5 5v31.3c0 2.76 2.23 5 5 5zM302.33 531.14l-14.97-11.07M287.36 478.76l14.97-11.12M377.89 530.78l14.17-10.71M392.06 478.76l-15.23-11.12M370.29 532.02h-61.15c-5.56 0-10.07-4.51-10.07-10.07v-44.91c0-5.56 4.51-10.07 10.07-10.07h61.15c5.56 0 10.07 4.51 10.07 10.07v44.91c0 5.56-4.51 10.07-10.07 10.07zM392.06 520.07h3.55c2.76 0 5-2.24 5-5v-31.3c0-2.76-2.24-5-5-5h-3.55v41.3zM402.38 508.98h-2.12M700 341.92h43.11v5.46l-9.41 9.41h-23.18l-10.52-8.8zM700 347.99h43.11M336.26 398.82v-44.04h-43.24M254.63 451.56h65.23l16.4-16.4v-23.3M123.77 451.56h49.8M66.01 324.31c0-.58.67-.89 1.13-.53 1.42 1.09 3.28 1.44 4.95.87 1.84-.63 3.19-2.28 3.5-4.26v-.54c-.32-1.99-1.67-3.64-3.5-4.26-1.67-.57-3.52-.22-4.94.86-.47.36-1.13.05-1.13-.54v-20.55c0-.59.67-.89 1.13-.54 1.41 1.08 3.27 1.43 4.94.86 1.84-.63 3.19-2.28 3.5-4.26v-.54c-.32-1.99-1.67-3.64-3.5-4.26-1.67-.57-3.52-.22-4.94.86-.47.36-1.13.05-1.13-.54v-8.47c0-.78.64-1.42 1.42-1.41l9.32.05c.58 0 .89.67.53 1.13-1.09 1.42-1.44 3.28-.87 4.95.63 1.84 2.28 3.19 4.26 3.5h.54c1.99-.32 3.64-1.67 4.26-3.5.57-1.67.22-3.52-.86-4.94-.36-.47-.05-1.13.54-1.13h20.71c.59 0 .89.67.54 1.13-1.08 1.41-1.43 3.27-.86 4.94.63 1.84 2.28 3.19 4.26 3.5h.54c1.99-.32 3.64-1.67 4.26-3.5.57-1.67.22-3.52-.86-4.94-.36-.47-.05-1.13.54-1.13h9.42c.78 0 1.41.63 1.41 1.41l-.01 8.4c0 .59-.67.89-1.13.54-1.41-1.08-3.27-1.43-4.94-.86-1.84.63-3.19 2.28-3.5 4.26v.54c.32 1.99 1.67 3.64 3.5 4.26 1.67.57 3.52.22 4.94-.86.47-.36 1.13-.05 1.13.54v20.55c0 .59-.67.89-1.13.54-1.41-1.08-3.27-1.43-4.94-.86-1.84.63-3.19 2.28-3.5 4.26v.54c.32 1.99 1.67 3.64 3.5 4.26 1.67.57 3.52.22 4.94-.86.46-.36 1.13-.05 1.13.54l.01 10.48c0 .78-.63 1.41-1.41 1.41h-9.42c-.59 0-.89-.67-.54-1.13 1.08-1.41 1.43-3.27.86-4.94-.63-1.84-2.28-3.19-4.26-3.5h-.54c-1.99.32-3.64 1.67-4.26 3.5-.57 1.67-.22 3.52.86 4.94.36.47.05 1.13-.54 1.13H85.15c-.59 0-.89-.67-.54-1.13 1.08-1.41 1.43-3.27.86-4.94-.63-1.84-2.28-3.19-4.26-3.5h-.54c-1.99.32-3.64 1.67-4.26 3.5-.57 1.67-.22 3.52.86 4.94.36.47.05 1.13-.54 1.13h-9.41c-.78 0-1.42-.64-1.41-1.42l.1-10.48zM119.63 306.46h5.71M95.65 276.77v5.72M95.65 330.43v5.72M95.54 312.45v-2.29M95.6 307.19v-17.95"/><path class="st2" d="M95.6 289.24c-1.53-1.55-4.33-1.89-5.76-.08-1.1 1.4-1.27 3.7.57 4.9-2.6-2.28-6.49-1.9-8.42.49-1.65 2.05-1.59 5.24.32 7.44-3.82 1.58-6.23 5.33-5.99 9.22.28 4.51 4.05 8.34 8.9 8.74.14 2.49 1.96 4.57 4.37 5.02 2.51.46 5.06-.96 5.99-3.4v-7.1M95.68 289.24c1.53-1.55 4.33-1.89 5.76-.08 1.1 1.4 1.27 3.7-.57 4.9 2.6-2.28 6.49-1.9 8.42.49 1.65 2.05 1.59 5.24-.32 7.44 3.82 1.58 6.23 5.33 5.99 9.22-.28 4.51-4.05 8.34-8.9 8.74-.14 2.49-1.96 4.57-4.37 5.02-2.51.46-5.06-.96-5.99-3.4v-.11M108.96 301.99s-2.91-.32-5.99.81"/><path class="st2" d="M100.26 300.57c.36.1 1.69.5 2.59 1.82 1.1 1.62.72 3.36.65 3.64M106.05 319.95s.04-1.86-1.13-3.24"/><path class="st2" d="M106.17 312.79c.04.27.27 2.3-1.25 3.92-1.43 1.52-3.3 1.5-3.6 1.5M104.92 373.15v-6.7l5.98-5.97h40.64M306.82 362.55h21.62v28.8M130.04 444.56h34.97M259.69 444.56h56.23l12.52-11.74v-15.28M348.08 216.21h11.93a6.31 6.31 0 006.31-6.31v-38.39c0-3.6 2.92-6.51 6.51-6.51h6.74"/><path class="st2" d="M348.78 226.02h15.31c5.51 0 9.98-4.47 9.98-9.98v-34.03c0-2.22 1.8-4.01 4.01-4.01h2.24"/><path class="st2" d="M384.92 180.75h.79v-19.02h-.79c-3.49 0-6.33 2.83-6.33 6.33v6.36c0 3.5 2.84 6.33 6.33 6.33zM342.45 212.17h-.79v19.02h.79c3.49 0 6.33-2.83 6.33-6.33v-6.36c0-3.5-2.83-6.33-6.33-6.33z"/><circle class="st2" cx="195.01" cy="375.53" r="2.92"/><path class="st2" d="M202.81 357.92s-3.84 1.92-3.84 6.4c0 0-5.76 2.13-5.34 8.54"/><circle class="st2" cx="232.56" cy="375.53" r="2.92"/><path class="st2" d="M196.31 377.69s3.57 4.44 8.44 1.62c0 0 .11 4.76 5.95 6.6M224.33 357.92s3.84 1.92 3.84 6.4c0 0 5.76 2.13 5.34 8.54M230.83 377.69s-3.57 4.44-8.44 1.62c0 0-.11 4.76-5.95 6.6"/><path class="st2" d="M206.18 373.71v-13.39c-5.29-3.89-4.98-8.17-4.98-8.17-1.56-15.34 12.92-14.95 12.92-14.95h-.19s14.48-.39 12.92 14.95c0 0 .31 4.28-4.98 8.17v13.39h-15.69z"/><path class="st2" d="M216.25 367.17v-10.28l3.19-7.24h-10.97l3.19 7.24v10.28z"/><circle class="st2" cx="213.87" cy="390.34" r="5.23"/><path class="st2" d="M210.7 394.39l-6.41 3.24v5.89h18.86v-5.89l-6.41-3.24"/><circle class="st2" cx="230.95" cy="390.34" r="5.23"/><path class="st2" d="M223.37 403.52h16.86v-5.89l-6.4-3.24M227.79 394.39l-5.27 2.66"/><circle class="st2" cx="196.6" cy="390.34" r="5.23"/><path class="st2" d="M204.19 403.52h-16.87v-5.89l6.41-3.24M199.77 394.39l5.26 2.66M182.51 338.38l2.65 1.15M187.48 340.61l9.72 3.72M179.99 349.79l2.9.24M185.43 350.17l10.4.13M180.31 359.96l2.86-.76M185.59 358.61l9.92-3.16M245.21 338.38l-2.54 1.15M240.24 340.61l-9.72 3.72M247.73 349.79l-2.86.11M242.29 350.17l-10.4.13M247.41 359.96l-2.61-.62M242.13 358.61l-9.92-3.16M205.74 367.36h16.4M519.48 184.83h-5.01v-30.2h5.01a9 9 0 019 9v12.2a9 9 0 01-9 9zM595.7 215.49h35.79c4.66 0 8.44 3.78 8.44 8.44v1.06h-52.67v-1.06c0-4.66 3.78-8.44 8.44-8.44zM712.15 320.49v16.57M729.01 320.49v16.57M720.58 311.56v25.5M288.83 211.85h-5.4M270.56 147.64h19.76v24.46M546.25 461.22h114.27l6.99 10.14h9.79V478H529.13v-6.64h10.48zM539.61 471.36h127.9"/><path class="st2" d="M553.24 471.36v-4.55h10.13v4.55M643.75 471.36v-4.55h10.13v4.55M573.73 433.9v27.32M655.21 432.51v28.71M390.42 304.44v31.6M327 236.38v6.72c0 7.34 5.95 13.29 13.29 13.29h36.84c7.34 0 13.29 5.95 13.29 13.29v12.45M514.47 333.54v-34.03c0-5.52 4.47-9.99 9.99-9.99h25.24M385.72 282.13h9.22v22.31h-9.22z"/><circle class="st2" cx="497.81" cy="78.77" r="4.85"/><path class="st2" d="M97.48 495.27v80.25H49.5v-108h47.98v16.66"/><path class="st3" d="M269.65 430.56h4.48l-3.73 6.4h-4.58zM278.61 430.56h4.47l-3.73 6.4h-4.58zM287.56 430.56h4.48l-3.73 6.4h-4.59zM296.51 430.56h4.48l-3.73 6.4h-4.59zM305.46 430.56h4.48l-3.73 6.4h-4.58z"/><path class="st2" d="M44.24 575.52h57.38v7.96H44.24z"/><path class="st2" d="M38.94 583.47h67.98v7.96H38.94zM586.83 478h47.97v98.86h-47.97zM581.57 576.86h57.38v7.29h-57.38zM576.27 584.15h67.98v7.29h-67.98zM690.4 576.86h57.38v7.29H690.4zM685.09 584.15h67.98v7.29h-67.98zM505.74 591.43h248.03M38.94 591.43h466.8M537.02 478.07v11.05s1.1 11.64 10.06 11.64c0 0 5.53 1.39 8.11-8.11 0 0 1.51-7.53 0-14.57"/><path class="st2" d="M547.4 478.07s-.38 12.57 7.04 14.81c1.92.58 4.02.16 5.61-1.07 2.32-1.8 5.12-5.7 3.55-13.74M569.89 478.07v10.89M578.06 478.07v15.07M567.53 488.96h4.72v3.3h-4.72zM575.71 493.14h4.72v3.3h-4.72zM747.54 576.77h-58.3c-3.72 0-6.74-3.02-6.74-6.74v-54.94c0-3.72 3.02-6.74 6.74-6.74h58.3c3.72 0 6.74 3.02 6.74 6.74v54.94c0 3.72-3.02 6.74-6.74 6.74zM754.28 518.05h7.13v20.27h-7.13z"/><path class="st2" d="M740.68 518.05h8.2v47.14h-8.2zM689.9 548.11h22.09v19.36H689.9zM717.23 548.11h13.87v19.36h-13.87zM707.89 537.18v3.39c0 1.1-.89 1.99-1.99 1.99h-.57c-1.1 0-1.99-.89-1.99-1.99v-3.06M703.33 531.79v-11.75c0-1.1.89-1.99 1.99-1.99h.57c1.1 0 1.99.89 1.99 1.99v11.75M719.5 528.33v12.23c0 1.1-.89 1.99-1.99 1.99h-.57c-1.1 0-1.99-.89-1.99-1.99v-12.23M714.95 522.6v-2.56c0-1.1.89-1.99 1.99-1.99h.57c1.1 0 1.99.89 1.99 1.99v2.57M731.12 533.17v7.4c0 1.1-.89 1.99-1.99 1.99h-.57c-1.1 0-1.99-.89-1.99-1.99v-7.4M726.56 527.44v-7.4c0-1.1.89-1.99 1.99-1.99h.57c1.1 0 1.99.89 1.99 1.99v7.4"/><circle class="st2" cx="705.61" cy="534.65" r="3.66"/><circle class="st2" cx="717.23" cy="525.47" r="3.66"/><circle class="st2" cx="728.84" cy="530.3" r="3.66"/><path class="st2" d="M771.4 523.01l-9.99 9.93M761.41 527.71l6.39-6.37"/><circle class="st2" cx="771.63" cy="519.46" r="3.83"/><circle class="st2" cx="452.61" cy="388.71" r="35.86"/><circle class="st2" cx="452.61" cy="388.71" r="24.17"/><circle class="st2" cx="452.61" cy="388.71" r="11.48"/><path class="st2" d="M452.61 388.71l35.86-35.86v-10.87l8.26-8.26v11.08h10.88l-8.16 8.15-10.98-.1M438.37 451.9v-7.48l7.08-2.29v-9.6c1.04-3.19 3.72-5.52 6.86-5.94 3.85-.51 7.75 1.93 9.14 5.94v9.68l6.86 2.66v6.68M421.26 406.27l24.2 35.87M484.04 405.98l-22.64 36.16M497.81 447.86v77.95c0 12.32 9.99 22.3 22.3 22.3h66.72M543.92 244.88h-26.73c-10.7 0-19.37 8.67-19.37 19.37v53.92M543.92 236.38h5.77v17.03h-5.77zM337.85 499.95h3.9s-.9 3.32 1.44 3.56c0 0 1.98.68 3.01-1.78l2.78 2.78s-3.39 1.8-1.62 3.58c0 0 1.25 1.65 3.09.82v3.42s-2.88-.48-3.16 1.44c0 0-1.23 1.57 1.37 3.63l-2.39 2.19s-1.25-2.15-3.15-1.73c0 0-2.39.91-1.3 3.51h-3.97s.68-2.74-1.03-3.22c0 0-2-1.16-3.22 1.37l-2.8-2.58s1.92-.71 1.85-2.96c0 0-.93-2.26-3.51-1.23v-3.9s3.31.41 3.31-1.09c0 0 1.03-1.85-1.51-3.49l3.08-2.6s.75 1.76 2.39 1.85a3.5 3.5 0 001.26-1.61c.35-.88.24-1.65.18-1.96z"/><path class="st2" d="M329.14 508.85h-18.68c-2.5 0-4.54 2.03-4.54 4.54v8.65c0 2.5 2.03 4.54 4.54 4.54h51.31l12.52-8.86-12.59-8.86h-11.26M314.61 508.85v17.72M318.06 508.85v17.72M318.06 517.71h13.66"/><circle class="st2" cx="339.78" cy="510.75" r="5.35"/><circle class="st2" cx="339.78" cy="510.75" r="1.97"/><path class="st2" d="M321.18 491.81v4.65h12.84v5.2M358.83 491.81v4.65h-12.85v5.2M339.78 486.9v13.05M320.3 476.89l-1.28 3.86h-4.01l3.12 2.7-1.18 4.25 3.39-2.57 3.39 2.58-1.23-4.18 3.19-2.79h-4.04zM358.51 478.5s2.5-2.51 5.09.42c0 0 1.44 2.2-.56 4.21l-4.64 4.63-4.66-4.63c-2-2.01-.56-4.21-.56-4.21 2.59-2.93 5.09-.42 5.09-.42h.24zM347.76 481.5h-3.55l.33 3.25-7.04-3.25h-5.68v-9.25h15.94zM348.16 517.86h13.56M361.7 508.85v17.72M368.58 513.69v8.06M634.8 530.99h39.66v10.63H634.8zM674.47 525.47h8.04v22.64h-8.04z"/><circle class="st2" cx="405.95" cy="78.77" r="4.85"/><circle class="st2" cx="448.04" cy="105.4" r="13.8"/><circle class="st2" cx="448.04" cy="105.4" r="9.35"/><path class="st2" d="M437.52 114.32l-5.78 10.74 5.2-.84 1.76 5 6.3-10.36M436.94 124.22l1.76-2.45M458.7 114.32l5.79 10.74-5.21-.84-1.76 5-6.3-10.36M459.28 124.22l-1.76-2.45M448.04 99.71l-1.64 3.3-3.9.7 2.77 2.69-.86 3.56 3.63-1.48 3.18 1.48-.48-3.48 2.34-2.69-3.21-.6z"/><circle class="st2" cx="375.79" cy="435.4" r="3.07"/><circle class="st2" cx="382.81" cy="444.44" r="1.66"/><circle class="st2" cx="359.33" cy="118.95" r="3.25"/><circle class="st2" cx="366.76" cy="128.53" r="1.76"/><circle class="st2" cx="133.52" cy="535.28" r="3.25"/><circle class="st2" cx="142.63" cy="527.27" r="1.76"/><path class="st2" d="M382.51 330.43c-4.01 5.01-10.21 14.07-13.72 26.92-3.92 14.34-2.6 26.47-1.42 32.98M341.66 298.21v16.33c0 3.15-2.55 5.71-5.71 5.71h-15.34M168.7 306.46v26.83M168.7 336.97v7.36M737.01 383.84v25.21c0 5.88-6.18 12.06-12.06 12.06h-19.38M370.7 461.99H327M286.43 528.33l11.3 11.31h43.93M666.45 461.22l3.98 5.59M537.02 464.02l5.3-7.61h23.73M201.12 542.97v13.01c0 9.22 8.08 16.7 18.05 16.7h42.41c9.97 0 18.05-7.48 18.05-16.7v-16.35M398.36 542.97v13.01c0 9.22 6.91 16.7 15.44 16.7h36.28c8.53 0 15.44-7.48 15.44-16.7v-16.35M715.03 383.37l1.29 1.29a3.553 3.553 0 004.74.25 3.542 3.542 0 014.74.25l2 2M51.37 340.23l5.71 3.11c6.43 3.5 14.45 3.84 21.23.89l4.41-1.92c5.82-2.53 12.6-2.66 18.54-.36l3.3 1.28c6.42 2.49 13.8 2.12 19.86-.99 4.79-2.46 10.39-3.19 15.68-2.19M627.32 106.97h-28.09c-2.92 0-5.28-2.37-5.28-5.28v-1.33c0-2.92 2.37-5.28 5.28-5.28h28.09c2.92 0 5.28 2.37 5.28 5.28v1.33c0 2.91-2.37 5.28-5.28 5.28zM627.32 203.81h-28.09c-2.92 0-5.28-2.37-5.28-5.28v-1.33c0-2.92 2.37-5.28 5.28-5.28h28.09c2.92 0 5.28 2.37 5.28 5.28v1.33c0 2.91-2.37 5.28-5.28 5.28z"/><path class="st2" d="M614.45 106.97h10.67v15.51c1.37.73 16.04 8.89 18 25.75 1.55 13.39-5.56 26.77-18 33.65v10.24H599.9v-10.24c-12.44-6.88-19.55-20.25-18-33.65 1.96-16.86 16.63-25.02 18-25.75v-15.51h10.67"/><path class="st2" d="M643.52 149.37c-14.48 13.9-33.01.29-33.01.29-17.95-10.13-28.95 0-28.95 0"/><path class="st2" d="M608.4 148.94s7.12.16 11.65-1.8c.44-.19.87-.37 1.33-.52 2.39-.76 5.87-1.55 10.1-1.47 5.11.09 9.12 1.41 11.53 2.41"/><circle class="st2" cx="611.77" cy="139.14" r="2.32"/><circle class="st2" cx="618.72" cy="129.29" r="2.32"/><circle class="st2" cx="595.75" cy="138.17" r="1.7"/><path class="st2" d="M603.87 95.31v-8.89c0-3.71-3.01-6.72-6.72-6.72h-19.09c-4.56 0-8.25 3.69-8.25 8.25v69.26c0 11.66-9.45 21.11-21.11 21.11h-20.23"/><path class="st2" d="M620.27 95.07v-9.14c0-11.67-9.46-21.14-21.14-21.14h-26.02c-11.22 0-20.32 9.1-20.32 20.32v68.74c0 4.11-3.33 7.43-7.43 7.43h-16.88M604.18 203.92v11.74M621.75 203.92v11.74M674.11 514.63v-8.62c0-5.43 4.4-9.83 9.83-9.83h16.07"/><path class="st3" d="M622.41 567.28v-4.48l6.39 3.74v4.58zM622.41 558.33v-4.48l6.39 3.73v4.59zM622.41 549.38v-4.48l6.39 3.73v4.58zM622.41 540.42v-4.47l6.39 3.73v4.58zM622.41 531.47V527l6.39 3.73v4.58z"/></svg>