<?xml version="1.0" encoding="utf-8"?>
<!-- Generator: Adobe Illustrator 24.1.2, SVG Export Plug-In . SVG Version: 6.00 Build 0)  -->
<svg version="1.1" id="Layer_1" xmlns="http://www.w3.org/2000/svg" xmlns:xlink="http://www.w3.org/1999/xlink" x="0px" y="0px"
	 viewBox="0 0 700 1000" style="enable-background:new 0 0 700 1000;" xml:space="preserve">
<style type="text/css">
	.st0{fill:none;stroke:#FF1D26;stroke-width:0.75;stroke-miterlimit:10;}
	.st1{fill:none;}
</style>
<g>
	<path class="st0" d="M688.52,447.28c-25.13-43.47-24.41-94.54-16.46-140.72c7.95-46.18,22.37-91.07,22.06-138.75
		c-0.31-47.67-18.98-100.91-61.34-129.04c-44.73-29.7-102.11-23.01-147.6-4.06c-45.48,18.95-85.3,48.6-132.86,63.06
		c-58.97,17.93-125.73,11.26-185.32,27.64C93.63,145.58,35.14,202.2,13.65,273.85c-21.48,71.65-5.46,156.67,42,222.9
		c32.55,45.42,78.54,81.98,105.49,130.43c38.47,69.15,32.03,151.04,65.98,222.07c40.25,84.21,140.05,141.29,229.18,131.07
		c89.13-10.22,158.91-86.74,160.25-175.73c0.96-64.08-28.97-134.88-1.48-190.33c13.99-28.22,30.84-41.94,48.8-67.63
		c11.25-16.09,22.69-32.6,27.42-52.04C696.01,475.15,699.32,465.96,688.52,447.28z"/>
	<path class="st0" d="M678.98,445.59c10.44,18.12,7.24,27.06,2.65,45.91c-4.59,18.87-15.7,34.89-26.62,50.51
		c-16.39,23.43-31.84,36.62-44.92,60.86c-0.83,1.54-1.65,3.12-2.46,4.75c-26.71,53.79,2.17,122.46,1.14,184.62
		c-0.29,17.83-3.42,35.14-8.95,51.48c-21.25,62.77-78.05,111.13-146.72,118.91c-86.33,9.87-182.99-45.42-222-126.98
		c-32.9-68.79-26.7-148.11-63.94-215.09c-26.1-46.93-70.6-82.37-102.09-126.37c-34.68-48.51-51.96-107.38-49.33-163.2
		c0.85-18.07,3.78-35.82,8.89-52.8c20.88-69.43,77.57-124.3,148.67-143.89c57.74-15.91,122.42-9.52,179.57-26.93
		c46.09-14.04,84.69-42.78,128.77-61.17c44.09-18.4,99.71-24.92,143.1,3.81c41.04,27.21,59.17,78.74,59.51,124.89
		c0.35,46.16-13.57,89.64-21.23,134.37C655.35,354,654.67,403.47,678.98,445.59z"/>
	<path class="st0" d="M669.44,443.9c10.09,17.56,6.98,26.25,2.53,44.52c-4.46,18.29-15.23,33.82-25.83,48.97
		c-15.89,22.71-30.88,35.51-43.58,59c-0.81,1.49-1.6,3.02-2.39,4.61c-25.94,52.14,1.89,118.67,0.8,178.91
		c-0.31,17.28-3.36,34.06-8.73,49.89c-20.67,60.85-75.73,107.72-142.35,115.16c-83.54,9.51-177.05-43.99-214.81-122.9
		c-31.85-66.56-25.89-143.3-61.91-208.12c-25.23-45.42-68.26-79.72-98.68-122.3c-33.5-46.98-50.14-103.97-47.54-158
		c0.84-17.49,3.7-34.67,8.66-51.11c20.27-67.2,75.17-120.32,143.99-139.34c55.9-15.44,118.5-9.32,173.82-26.22
		c44.62-13.62,81.99-41.45,124.67-59.28c42.7-17.84,96.55-24.2,138.6,3.56c39.73,26.29,57.3,76.11,57.68,120.75
		c0.39,44.64-13.02,86.7-20.4,129.99C646.58,355.25,645.94,403.12,669.44,443.9z"/>
	<path class="st0" d="M659.9,442.21c9.74,17.01,6.73,25.44,2.41,43.12c-4.33,17.72-14.76,32.76-25.03,47.43
		c-15.4,21.99-29.93,34.4-42.23,57.14c-0.78,1.44-1.55,2.93-2.32,4.46c-25.17,50.48,1.61,114.88,0.46,173.19
		c-0.33,16.72-3.3,32.97-8.52,48.3c-20.08,58.93-73.41,104.3-137.98,111.41c-80.75,9.15-171.1-42.56-207.63-118.82
		c-30.81-64.33-25.08-138.49-59.87-201.15c-24.37-43.9-65.91-77.08-95.28-118.24C51.59,443.59,35.59,388.5,38.17,336.26
		c0.83-16.91,3.62-33.52,8.42-49.41c19.67-64.97,72.77-116.35,139.32-134.79c54.05-14.98,114.57-9.13,168.08-25.51
		c43.15-13.2,79.3-40.13,120.57-57.38c41.31-17.29,93.4-23.48,134.1,3.3c38.42,25.38,55.43,73.49,55.85,116.6
		c0.43,43.12-12.48,83.77-19.58,125.61C637.82,356.51,637.21,402.78,659.9,442.21z"/>
	<path class="st0" d="M650.36,440.51c9.39,16.46,6.48,24.63,2.29,41.73c-4.2,17.14-14.29,31.7-24.23,45.89
		c-14.9,21.26-28.97,33.29-40.89,55.28c-0.76,1.4-1.51,2.83-2.25,4.31c-24.4,48.82,1.33,111.09,0.12,167.48
		c-0.35,16.17-3.24,31.88-8.31,46.71c-19.5,57-71.12,100.75-133.6,107.66c-77.99,8.62-165.16-41.12-200.44-114.74
		c-29.76-62.09-24.27-133.68-57.84-194.18c-23.51-42.39-63.57-74.43-91.87-114.17c-31.14-43.93-46.51-97.14-43.95-147.58
		c0.83-16.33,3.53-32.37,8.19-47.72c19.06-62.75,70.36-112.37,134.64-130.24c52.2-14.51,110.65-8.94,162.33-24.8
		c41.68-12.79,76.61-38.8,116.48-55.49c39.92-16.73,90.24-22.77,129.6,3.05c37.1,24.47,53.57,70.86,54.01,112.45
		c0.47,41.6-11.93,80.83-18.75,121.23C629.05,357.76,628.48,402.43,650.36,440.51z"/>
	<path class="st0" d="M640.82,438.82c9.04,15.9,6.22,23.83,2.18,40.33c-4.07,16.56-13.82,30.64-23.44,44.35
		c-14.4,20.54-28.01,32.18-39.55,53.42c-0.73,1.35-1.46,2.74-2.18,4.17c-23.63,47.17,1.05,107.3-0.23,161.77
		c-0.37,15.62-3.19,30.8-8.1,45.12c-18.92,55.08-68.81,97.3-129.23,103.91c-75.21,8.23-159.22-39.69-193.26-110.66
		c-28.71-59.86-23.47-128.87-55.8-187.21c-22.65-40.87-61.23-71.78-88.47-110.1c-29.96-42.41-44.69-93.73-42.16-142.38
		c0.82-15.75,3.45-31.22,7.96-46.02C87,235,136.51,187.12,198.51,169.83c50.36-14.05,106.73-8.75,156.58-24.09
		c40.2-12.37,73.92-37.47,112.38-53.6c38.53-16.18,87.09-22.05,125.1,2.8c35.79,23.55,51.7,68.24,52.18,108.31
		c0.5,40.08-11.39,77.9-17.92,116.85C620.28,359.02,619.75,402.09,640.82,438.82z"/>
	<path class="st0" d="M631.28,437.13c8.73,15.33,5.97,23.02,2.06,38.94c-3.94,15.99-13.35,29.57-22.64,42.81
		c-13.9,19.82-27.05,31.08-38.2,51.55c-0.71,1.3-1.41,2.64-2.11,4.02c-22.86,45.51,0.78,103.51-0.57,156.06
		c-0.38,15.07-3.13,29.71-7.89,43.53c-18.33,53.15-66.49,93.85-124.86,100.16c-72.42,7.83-153.28-38.26-186.07-106.57
		c-27.66-57.62-22.66-124.06-53.77-180.24c-21.8-39.36-58.95-69.09-85.06-106.04C83.3,440.51,69.29,391.03,71.8,344.18
		c0.81-15.17,3.37-30.07,7.73-44.33c17.84-58.29,65.55-104.43,125.28-121.14c48.51-13.58,102.8-8.56,150.83-23.38
		c38.73-11.95,71.22-36.14,108.28-51.71c37.14-15.63,83.97-21.4,120.59,2.54c34.52,22.57,49.84,65.61,50.35,104.16
		c0.54,38.56-10.84,74.96-17.09,112.46C611.52,360.27,611.1,401.7,631.28,437.13z"/>
	<path class="st0" d="M621.74,435.44c8.39,14.77,5.72,22.21,1.94,37.54c-3.81,15.41-12.89,28.51-21.85,41.27
		c-13.4,19.1-26.1,29.97-36.86,49.69c-0.69,1.25-1.36,2.55-2.03,3.88c-22.09,43.85,0.5,99.72-0.91,150.35
		c-0.4,14.52-3.07,28.62-7.68,41.94c-17.75,51.23-64.18,90.4-120.49,96.41c-69.64,7.43-147.34-36.83-178.89-102.49
		c-26.61-55.39-21.85-119.25-51.73-173.26c-20.93-37.84-56.62-66.44-81.66-101.97c-27.69-39.3-41.05-86.9-38.57-131.97
		c0.81-14.59,3.28-28.92,7.5-42.63c17.24-56.07,63.15-100.45,120.6-116.6c46.66-13.11,98.88-8.37,145.08-22.67
		c37.26-11.53,68.53-34.81,104.19-49.82c35.75-15.07,80.82-20.7,116.09,2.29c33.21,21.65,47.97,62.99,48.52,100.02
		c0.58,37.04-10.3,72.03-16.26,108.08C602.75,361.53,602.39,401.35,621.74,435.44z"/>
	<path class="st0" d="M612.19,433.74c8.04,14.22,5.46,21.4,1.82,36.15c-3.68,14.84-12.42,27.45-21.05,39.73
		c-12.9,18.37-25.14,28.86-35.52,47.83c-0.66,1.21-1.32,2.45-1.96,3.73c-21.32,42.2,0.22,95.93-1.25,144.63
		c-0.42,13.97-3.01,27.54-7.47,40.35c-17.17,49.31-61.86,86.95-116.12,92.66c-66.85,7.03-141.4-35.4-171.7-98.41
		c-25.56-53.16-21.04-114.44-49.7-166.29c-20.07-36.33-54.29-63.79-78.25-97.91c-26.53-37.77-39.24-83.49-36.77-126.76
		c0.8-14.01,3.2-27.77,7.26-40.93c16.63-53.84,60.75-96.48,115.92-112.05c44.82-12.65,94.96-8.18,139.34-21.96
		c35.79-11.11,65.84-33.49,100.09-47.92c34.36-14.52,77.67-19.99,111.59,2.04c31.91,20.72,46.11,60.36,46.69,95.87
		c0.62,35.53-9.76,69.1-15.44,103.7C593.99,362.78,593.67,401,612.19,433.74z"/>
	<path class="st0" d="M602.65,432.05c7.7,13.66,5.21,20.59,1.71,34.75c-3.55,14.26-11.95,26.38-20.26,38.19
		c-12.41,17.65-24.18,27.75-34.17,45.97c-0.64,1.16-1.27,2.35-1.89,3.58c-20.55,40.54-0.06,92.14-1.59,138.92
		c-0.44,13.42-2.96,26.45-7.26,38.76c-16.58,47.38-59.55,83.5-111.74,88.91c-64.06,6.64-135.46-33.96-164.52-94.33
		c-24.51-50.92-20.24-109.63-47.66-159.32c-19.21-34.81-51.96-61.13-74.85-93.84c-25.36-36.24-37.42-80.08-34.98-121.56
		c0.79-13.43,3.11-26.62,7.03-39.24c16.02-51.61,58.34-92.5,111.25-107.5c42.97-12.18,91.03-7.99,133.59-21.25
		c34.32-10.69,63.14-32.16,95.99-46.03c32.97-13.96,74.52-19.29,107.09,1.78c30.6,19.8,44.24,57.74,44.85,91.73
		c0.66,34.01-9.21,66.16-14.61,99.32C585.22,364.03,584.96,400.65,602.65,432.05z"/>
	<path class="st0" d="M593.11,430.36c7.35,13.1,4.96,19.79,1.59,33.36c-3.41,13.68-11.48,25.32-19.46,36.65
		c-11.91,16.93-23.23,26.64-32.83,44.11c-0.61,1.11-1.22,2.26-1.82,3.44c-19.78,38.88-0.34,88.35-1.94,133.21
		c-0.46,12.86-2.9,25.37-7.04,37.17c-16,45.46-57.24,80.05-107.37,85.16c-61.28,6.24-129.52-32.53-157.33-90.24
		c-23.46-48.69-19.43-104.82-45.63-152.35c-18.35-33.3-49.63-58.48-71.44-89.77c-24.19-34.71-35.6-76.67-33.18-116.35
		c0.78-12.85,3.03-25.47,6.8-37.54c15.42-49.39,55.94-88.53,106.57-102.95c41.12-11.71,87.11-7.8,127.84-20.54
		c32.84-10.27,60.45-30.83,91.9-44.14c31.58-13.41,71.37-18.59,102.59,1.53c29.29,18.87,42.38,55.11,43.02,87.58
		c0.7,32.49-8.67,63.23-13.78,94.94C576.46,365.29,576.24,400.3,593.11,430.36z"/>
	<path class="st0" d="M583.57,428.67c7.01,12.55,4.7,18.98,1.47,31.96c-3.28,13.11-11.01,24.26-18.66,35.11
		c-11.41,16.2-22.27,25.53-31.49,42.24c-0.59,1.07-1.17,2.16-1.75,3.29c-19.01,37.23-0.62,84.56-2.28,127.5
		c-0.47,12.31-2.84,24.28-6.83,35.58c-15.42,43.54-54.92,76.6-103,81.41c-58.49,5.84-123.58-31.1-150.15-86.16
		c-22.42-46.45-18.62-100.02-43.59-145.38c-17.5-31.78-47.29-55.82-68.04-85.71c-23.03-33.18-33.79-73.26-31.39-111.14
		c0.78-12.27,2.95-24.32,6.57-35.85c14.81-47.16,53.54-84.56,101.89-98.4c39.27-11.25,83.19-7.61,122.09-19.83
		c31.37-9.85,57.76-29.5,87.8-42.25c30.19-12.86,68.22-17.88,98.09,1.28c27.98,17.95,40.51,52.49,41.19,83.44
		c0.74,30.97-8.12,60.29-12.95,90.56C567.69,366.54,567.52,399.95,583.57,428.67z"/>
	<path class="st0" d="M574.03,426.97c6.67,11.99,4.45,18.17,1.35,30.57c-3.15,12.53-10.54,23.19-17.87,33.57
		c-10.91,15.48-21.31,24.42-30.14,40.38c-0.57,1.02-1.12,2.07-1.68,3.14c-18.24,35.57-0.9,80.77-2.62,121.79
		c-0.49,11.76-2.78,23.19-6.62,33.99c-14.83,41.61-52.61,73.15-98.63,77.66c-55.71,5.45-117.64-29.67-142.96-82.08
		c-21.37-44.22-17.81-95.21-41.56-138.4c-16.64-30.27-44.96-53.17-64.63-81.64c-21.86-31.64-31.97-69.84-29.59-105.94
		c0.77-11.69,2.86-23.17,6.33-34.15c14.2-44.93,51.13-80.58,97.21-93.86c37.43-10.78,79.26-7.42,116.35-19.12
		c29.9-9.44,55.06-28.17,83.7-40.36c28.8-12.3,65.07-17.18,93.59,1.02c26.68,17.02,38.64,49.86,39.36,79.29
		c0.78,29.45-7.58,57.36-12.12,86.18C558.92,367.8,558.81,399.6,574.03,426.97z"/>
	<path class="st0" d="M564.49,425.28c6.32,11.43,4.2,17.36,1.24,29.17c-3.02,11.96-10.07,22.13-17.07,32.03
		c-10.41,14.76-20.35,23.31-28.8,38.52c-0.54,0.97-1.08,1.97-1.61,3c-17.46,33.91-1.18,76.98-2.96,116.08
		c-0.51,11.21-2.73,22.11-6.41,32.4c-14.25,39.69-50.29,69.7-94.26,73.91c-52.92,5.06-111.7-28.23-135.78-78
		c-20.32-41.98-17.01-90.4-39.52-131.43c-15.78-28.75-42.63-50.52-61.23-77.58c-20.7-30.11-30.15-66.43-27.8-100.73
		c0.76-11.1,2.78-22.01,6.1-32.46c13.6-42.7,48.73-76.61,92.53-89.31c35.58-10.32,75.34-7.23,110.6-18.41
		c28.43-9.02,52.37-26.85,79.61-38.46c27.41-11.75,61.92-16.47,89.09,0.77c25.37,16.1,36.78,47.24,37.53,75.15
		c0.81,27.93-7.03,54.43-11.3,81.8C550.16,369.05,550.09,399.25,564.49,425.28z"/>
	<path class="st0" d="M554.95,423.59c5.98,10.88,3.94,16.56,1.12,27.78c-2.89,11.38-9.61,21.07-16.28,30.5
		c-9.92,14.03-19.4,22.2-27.46,36.66c-0.52,0.92-1.03,1.87-1.53,2.85c-16.69,32.26-1.45,73.19-3.3,110.36
		c-0.53,10.66-2.67,21.02-6.2,30.81c-13.66,37.77-47.97,66.26-89.89,70.16c-50.13,4.66-105.76-26.8-128.59-73.92
		c-19.27-39.75-16.2-85.59-37.49-124.46c-14.92-27.24-40.3-47.87-57.82-73.51c-19.53-28.58-28.34-63.02-26-95.53
		c0.76-10.52,2.7-20.86,5.87-30.76c12.99-40.48,46.32-72.64,87.86-84.76c33.73-9.85,71.42-7.03,104.85-17.7
		c26.96-8.6,49.68-25.52,75.51-36.57c26.02-11.19,58.77-15.77,84.59,0.52c24.06,15.17,34.91,44.62,35.7,71
		c0.85,26.41-6.49,51.49-10.47,77.42C541.39,370.31,541.37,398.9,554.95,423.59z"/>
	<path class="st0" d="M545.41,421.89c5.64,10.32,3.69,15.75,1,26.38c-2.76,10.8-9.14,20.01-15.48,28.96
		c-9.42,13.31-18.44,21.09-26.11,34.79c-0.49,0.88-0.98,1.78-1.46,2.7c-15.92,30.6-1.73,69.4-3.65,104.65
		c-0.55,10.11-2.61,19.93-5.99,29.23c-13.08,35.84-45.66,62.81-85.51,66.41c-47.34,4.27-99.82-25.37-121.41-69.83
		c-18.22-37.51-15.39-80.78-35.45-117.49c-14.06-25.72-37.97-45.21-54.42-69.45c-18.36-27.05-26.52-59.61-24.21-90.32
		c0.75-9.94,2.61-19.71,5.64-29.06c12.38-38.25,43.92-68.66,83.18-80.21c31.89-9.38,67.49-6.84,99.1-16.99
		c25.49-8.18,46.99-24.19,71.41-34.68c24.63-10.64,55.62-15.06,80.09,0.26c22.75,14.25,33.05,41.99,33.86,66.86
		c0.89,24.9-5.94,48.56-9.64,73.04C532.63,371.56,532.66,398.55,545.41,421.89z"/>
	<path class="st0" d="M535.86,420.2c5.29,9.76,3.43,14.94,0.88,24.99c-2.63,10.23-8.67,18.94-14.69,27.42
		c-8.92,12.59-17.48,19.98-24.77,32.93c-0.47,0.83-0.93,1.68-1.39,2.56c-15.15,28.95-2.01,65.61-3.99,98.94
		c-0.56,9.56-2.55,18.85-5.78,27.64c-12.5,33.92-43.34,59.36-81.14,62.66c-44.56,3.88-93.88-23.94-114.22-65.75
		c-17.17-35.28-14.58-75.97-33.42-110.52c-13.2-24.2-35.63-42.56-51.01-65.38c-17.2-25.52-24.7-56.2-22.42-85.12
		c0.74-9.36,2.53-18.56,5.4-27.37c11.78-36.02,41.52-64.69,78.5-75.66c30.04-8.92,63.57-6.65,93.35-16.28
		c24.01-7.76,44.29-22.86,67.32-32.79c23.24-10.09,52.47-14.36,75.59,0.01c21.45,13.33,31.18,39.37,32.03,62.71
		c0.93,23.38-5.4,45.62-8.81,68.66C523.86,372.81,523.94,398.2,535.86,420.2z"/>
	<path class="st0" d="M526.32,418.51c4.95,9.21,3.18,14.13,0.77,23.59c-2.5,9.65-8.2,17.88-13.89,25.88
		c-8.42,11.86-16.53,18.87-23.43,31.07c-0.45,0.78-0.89,1.59-1.32,2.41c-14.38,27.29-2.29,61.82-4.33,93.23
		c-0.58,9-2.5,17.76-5.57,26.05c-11.91,32-41.02,55.91-76.77,58.91c-41.77,3.5-87.94-22.5-107.04-61.67
		c-16.12-33.05-13.77-71.16-31.38-103.55c-12.34-22.69-33.3-39.91-47.61-61.31c-16.03-23.99-22.89-52.78-20.62-79.91
		c0.73-8.78,2.44-17.41,5.17-25.67c11.17-33.8,39.11-60.71,73.82-71.12c28.19-8.45,59.65-6.46,87.61-15.57
		c22.54-7.34,41.6-21.53,63.22-30.9c21.85-9.53,49.32-13.65,71.09-0.25c20.14,12.4,29.32,36.74,30.2,58.56
		c0.97,21.86-4.85,42.69-7.98,64.28C515.1,374.07,515.22,397.85,526.32,418.51z"/>
	<path class="st0" d="M516.78,416.82c4.6,8.65,2.93,13.33,0.65,22.2c-2.37,9.08-7.73,16.82-13.09,24.34
		c-7.92,11.14-15.57,17.76-22.08,29.21c-0.42,0.73-0.84,1.49-1.25,2.27c-13.61,25.63-2.57,58.03-4.67,87.52
		c-0.6,8.45-2.44,16.67-5.35,24.46c-11.33,30.07-38.71,52.47-72.4,55.16c-38.98,3.11-81.99-21.07-99.85-57.59
		c-15.07-30.81-12.97-66.35-29.35-96.57c-11.48-21.17-30.97-37.26-44.2-57.25c-14.86-22.46-21.07-49.37-18.83-74.71
		c0.73-8.2,2.36-16.26,4.94-23.98c10.56-31.57,36.71-56.74,69.14-66.57c26.35-7.99,55.72-6.27,81.86-14.86
		c21.07-6.92,38.91-20.2,59.12-29c20.46-8.98,46.17-12.95,66.59-0.5c18.83,11.48,27.41,34.11,28.37,54.42
		c0.96,20.34-4.31,39.76-7.15,59.9C506.33,375.32,506.5,397.5,516.78,416.82z"/>
	<path class="st0" d="M507.24,415.12c4.26,8.09,2.67,12.52,0.53,20.8c-2.23,8.5-7.26,15.75-12.3,22.8
		c-7.43,10.42-14.61,16.65-20.74,27.34c-0.4,0.69-0.79,1.39-1.18,2.12c-12.84,23.98-2.85,54.24-5.01,81.8
		c-0.62,7.9-2.38,15.59-5.14,22.87c-10.75,28.15-36.39,49.02-68.03,51.41c-36.18,2.73-76.05-19.64-92.67-53.51
		c-14.03-28.58-12.16-61.54-27.31-89.6c-10.62-19.66-28.64-34.6-40.8-53.18c-13.7-20.93-19.25-45.96-17.03-69.5
		c0.72-7.62,2.28-15.11,4.71-22.28c9.96-29.34,34.31-52.77,64.46-62.02c24.5-7.52,51.8-6.08,76.11-14.15
		c19.6-6.5,36.21-18.88,55.03-27.11c19.07-8.42,43.01-12.24,62.09-0.75c17.52,10.55,25.54,31.49,26.54,50.27
		c1,18.82-3.76,36.82-6.33,55.52C497.56,376.58,497.79,397.15,507.24,415.12z"/>
	<path class="st0" d="M497.7,413.43c3.92,7.54,2.42,11.71,0.41,19.41c-2.1,7.92-6.79,14.69-11.5,21.26
		c-6.93,9.69-13.66,15.54-19.4,25.48c-0.37,0.64-0.74,1.3-1.11,1.97c-12.07,22.32-3.13,50.45-5.36,76.09
		c-0.64,7.35-2.32,14.5-4.93,21.28c-10.16,26.23-34.07,45.58-63.65,47.66c-33.39,2.35-70.11-18.21-85.48-49.42
		c-12.98-26.34-11.35-56.73-25.27-82.63c-9.76-18.14-26.3-31.95-37.39-49.12c-12.53-19.4-17.43-42.55-15.24-64.3
		c0.71-7.04,2.19-13.96,4.48-20.59c9.35-27.12,31.9-48.79,59.79-57.47c22.65-7.05,47.88-5.89,70.36-13.44
		c18.13-6.08,33.52-17.55,50.93-25.22c17.67-7.87,39.86-11.54,57.59-1.01c16.21,9.63,23.67,28.86,24.7,46.13
		c1.04,17.3-3.22,33.89-5.5,51.14C488.8,377.83,489.07,396.81,497.7,413.43z"/>
	<path class="st0" d="M488.16,411.74c3.57,6.98,2.18,10.91,0.3,18.01c-1.96,7.35-6.32,13.63-10.71,19.72
		c-6.43,8.97-12.7,14.43-18.05,23.62c-0.35,0.59-0.7,1.2-1.04,1.83c-11.3,20.66-3.41,46.66-5.7,70.38
		c-0.65,6.8-2.27,13.42-4.72,19.69c-9.58,24.3-31.75,42.13-59.28,43.9c-30.6,1.97-64.17-16.78-78.3-45.34
		c-11.93-24.11-10.54-51.92-23.24-75.66c-8.9-16.63-23.97-29.3-33.99-45.05c-11.36-17.87-15.62-39.14-13.44-59.09
		c0.71-6.46,2.11-12.81,4.24-18.89c8.74-24.89,29.5-44.82,55.11-52.92c20.8-6.59,43.95-5.7,64.62-12.73
		c16.66-5.67,30.85-16.19,46.83-23.33c16.3-7.28,36.71-10.83,53.09-1.26c14.9,8.71,21.8,26.24,22.87,41.98
		c1.07,15.78-2.68,30.95-4.67,46.76C480.03,379.09,480.35,396.46,488.16,411.74z"/>
	<path class="st0" d="M478.62,410.05c3.23,6.43,1.93,10.1,0.18,16.62c-1.82,6.78-5.86,12.57-9.91,18.18
		c-5.93,8.25-11.72,13.33-16.71,21.76c-0.32,0.55-0.65,1.11-0.96,1.68c-10.53,19.01-3.68,42.87-6.04,64.67
		c-0.67,6.25-2.21,12.33-4.51,18.1c-9,22.38-29.42,38.69-54.91,40.15c-27.8,1.6-58.23-15.34-71.11-41.26
		c-10.88-21.87-9.74-47.12-21.2-68.69c-8.04-15.11-21.64-26.65-30.58-40.98c-10.2-16.34-13.8-35.72-11.65-53.88
		c0.7-5.88,2.03-11.66,4.01-17.2c8.13-22.66,27.09-40.84,50.43-48.38c18.96-6.12,40.03-5.51,58.87-12.02
		c15.18-5.25,28.15-14.86,42.74-21.44c14.91-6.73,33.55-10.13,48.59-1.51c13.59,7.79,19.93,23.62,21.04,37.84
		c1.11,14.26-2.1,28.03-3.84,42.38C471.3,380.35,471.62,396.11,478.62,410.05z"/>
	<path class="st0" d="M469.08,408.35c2.88,5.87,1.68,9.29,0.06,15.22c-1.69,6.2-5.39,11.5-9.11,16.64
		c-5.43,7.52-10.76,12.23-15.37,19.9c-0.3,0.5-0.6,1.01-0.89,1.53c-9.76,17.35-3.96,39.08-6.38,58.96
		c-0.69,5.69-2.15,11.24-4.3,16.51c-8.41,20.46-27.1,35.25-50.54,36.41c-25.01,1.23-52.29-13.91-63.93-37.18
		c-9.83-19.64-8.93-42.31-19.17-61.71c-7.18-13.6-19.3-24.01-27.18-36.92c-9.03-14.82-11.98-32.31-9.85-48.68
		c0.69-5.3,1.94-10.51,3.78-15.5c7.53-20.44,24.69-36.87,45.75-43.83c17.11-5.65,36.11-5.32,53.12-11.31
		c13.71-4.83,25.46-13.53,38.64-19.55c13.52-6.17,30.4-9.42,44.09-1.77c12.28,6.86,18.07,20.99,19.21,33.69
		c1.15,12.75-1.55,25.09-3.01,38C462.53,381.6,462.9,395.77,469.08,408.35z"/>
	<path class="st0" d="M459.53,406.66c2.54,5.32,1.42,8.49-0.06,13.83c-1.56,5.63-4.92,10.44-8.32,15.1
		c-4.94,6.8-9.81,11.12-14.02,18.03c-0.28,0.45-0.55,0.91-0.82,1.39c-8.99,15.69-4.24,35.29-6.72,53.25
		c-0.71,5.14-2.09,10.16-4.09,14.92c-7.83,18.53-24.77,31.81-46.17,32.65c-22.21,0.87-46.35-12.48-56.75-33.1
		c-8.78-17.4-8.12-37.5-17.13-54.74c-6.32-12.08-16.97-21.36-23.77-32.85c-7.87-13.29-10.17-28.9-8.06-43.47
		c0.68-4.72,1.86-9.36,3.55-13.8c6.92-18.21,22.29-32.9,41.07-39.28c15.26-5.19,32.18-5.12,47.37-10.6
		c12.24-4.41,22.77-12.2,34.54-17.65c12.13-5.62,27.24-8.72,39.59-2.02c10.96,5.94,16.2,18.37,17.38,29.55
		c1.18,11.23-1.01,22.16-2.19,33.62C453.77,382.86,454.18,395.43,459.53,406.66z"/>
	<path class="st0" d="M449.99,404.97c2.19,4.77,1.17,7.68-0.18,12.43c-1.43,5.05-4.45,9.38-7.52,13.57
		c-4.44,6.08-8.85,10.01-12.68,16.17c-0.25,0.41-0.5,0.82-0.75,1.24c-8.21,14.04-4.52,31.5-7.06,47.53
		c-0.73,4.59-2.04,9.07-3.88,13.33c-7.25,16.61-22.44,28.38-41.8,28.9c-19.4,0.53-40.41-11.05-49.56-29.01
		c-7.73-15.17-7.31-32.69-15.1-47.77c-5.46-10.57-14.63-18.71-20.37-28.79c-6.7-11.77-8.35-25.49-6.27-38.27
		c0.68-4.14,1.78-8.21,3.31-12.11c6.31-15.98,19.88-28.92,36.39-34.73c13.42-4.72,28.26-4.93,41.62-9.89
		c10.77-3.99,20.08-10.87,30.45-15.76c10.74-5.06,24.08-8.01,35.09-2.27c9.64,5.03,14.33,15.74,15.54,25.4
		c1.22,9.71-0.46,19.22-1.36,29.24C445,384.11,445.45,395.08,449.99,404.97z"/>
	<path class="st0" d="M440.45,403.27c1.84,4.22,0.92,6.87-0.29,11.04c-1.3,4.47-3.98,8.31-6.73,12.03
		c-3.94,5.35-7.89,8.9-11.34,14.31c-0.23,0.36-0.45,0.72-0.68,1.1c-7.44,12.38-4.8,27.71-7.41,41.82
		c-0.74,4.04-1.98,7.98-3.66,11.74c-6.66,14.69-20.11,24.95-37.42,25.15c-16.59,0.2-34.47-9.61-42.38-24.93
		c-6.68-12.94-6.5-27.88-13.06-40.8c-4.6-9.05-12.29-16.07-16.96-24.72c-5.53-10.25-6.53-22.08-4.47-33.06
		c0.67-3.56,1.69-7.05,3.08-10.41c5.71-13.76,17.48-24.95,31.72-30.18c11.57-4.26,24.34-4.74,35.88-9.18
		c9.3-3.57,17.38-9.55,26.35-13.87c9.35-4.51,20.92-7.3,30.59-2.53c8.32,4.11,12.47,13.12,13.71,21.26
		c1.26,8.19,0.08,16.29-0.53,24.86C436.24,385.36,436.72,394.75,440.45,403.27z"/>
	<path class="st0" d="M430.91,401.58c1.5,3.67,0.66,6.06-0.41,9.64c-1.17,3.9-3.51,7.25-5.93,10.49c-3.44,4.63-6.94,7.79-9.99,12.45
		c-0.2,0.31-0.41,0.63-0.61,0.95c-6.67,10.72-5.08,23.92-7.75,36.11c-0.76,3.49-1.91,6.9-3.45,10.15
		c-6.05,12.78-17.76,21.53-33.05,21.4c-13.78-0.12-28.53-8.18-35.19-20.85c-5.63-10.7-5.7-23.07-11.03-33.83
		c-3.74-7.54-9.95-13.44-13.56-20.65c-4.36-8.74-4.72-18.66-2.68-27.86c0.66-2.98,1.61-5.9,2.85-8.72
		c5.1-11.53,15.08-20.98,27.04-25.64c9.72-3.79,20.41-4.55,30.13-8.47c7.83-3.15,14.69-8.22,22.25-11.98
		c7.96-3.96,17.75-6.59,26.09-2.78c7,3.2,10.6,10.5,11.88,17.11c1.29,6.68,0.63,13.35,0.3,20.48
		C427.47,386.62,427.98,394.41,430.91,401.58z"/>
	<path class="st0" d="M421.37,399.89c1.14,3.12,0.41,5.26-0.53,8.25c-1.04,3.32-3.04,6.19-5.14,8.95
		c-2.94,3.91-5.98,6.68-8.65,10.58c-0.18,0.26-0.36,0.53-0.54,0.8c-5.9,9.07-5.36,20.13-8.09,30.4c-0.78,2.94-1.86,5.82-3.24,8.56
		c-5.47,10.85-15.42,18.14-28.68,17.65c-10.96-0.4-22.59-6.75-28.01-16.77c-4.59-8.47-4.89-18.26-8.99-26.86
		c-2.88-6.02-7.6-10.81-10.15-16.59c-3.19-7.24-2.9-15.25-0.88-22.65c0.65-2.4,1.52-4.75,2.62-7.02c4.49-9.3,12.67-17,22.36-21.09
		c7.88-3.32,16.49-4.36,24.38-7.76c6.35-2.73,12-6.89,18.16-10.09c6.57-3.41,14.57-5.87,21.59-3.03c5.67,2.29,8.73,7.88,10.05,12.97
		c1.33,5.16,1.17,10.42,1.13,16.1C418.71,387.87,419.24,394.08,421.37,399.89z"/>
	<path class="st0" d="M411.83,398.2c0.79,2.57,0.15,4.45-0.65,6.85c-0.91,2.74-2.58,5.13-4.34,7.41c-2.45,3.19-5.03,5.57-7.31,8.72
		c-0.16,0.22-0.31,0.43-0.47,0.66c-5.13,7.41-5.64,16.34-8.43,24.69c-0.8,2.39-1.8,4.73-3.03,6.97
		c-4.89,8.93-13.06,14.78-24.31,13.9c-8.13-0.63-16.65-5.32-20.82-12.69c-3.54-6.23-4.08-13.45-6.96-19.88
		c-2.02-4.51-5.24-8.19-6.74-12.52c-2-5.75-1.08-11.84,0.91-17.45c0.65-1.82,1.44-3.6,2.39-5.33c3.89-7.08,10.27-13.03,17.68-16.54
		c6.03-2.86,12.57-4.17,18.63-7.05c4.88-2.31,9.3-5.57,14.06-8.19c5.18-2.86,11.38-5.14,17.09-3.29c4.33,1.41,6.87,5.26,8.22,8.82
		c1.38,3.65,1.71,7.48,1.96,11.71C409.94,389.12,410.47,393.76,411.83,398.2z"/>
</g>
<rect x="-981.07" y="-62.2" transform="matrix(-1 -2.289248e-11 2.289248e-11 -1 -776.147 211.6063)" class="st1" width="1186" height="336"/>
</svg>
