<svg id="clientsMap" x="0px" y="0px" viewBox="0 0 800 450" style="enable-background:new 0 0 800 450;">
    <g>
        <image style="overflow:visible;" width="3236" height="1800" xlink:href="./assets/images/Home-img3-link.png" transform="matrix(0.24 0 0 0.24 11.68 9)"></image>
        <g class="clientLocation" data-location="Australia">
            <path d="M706.12,339.35c0,1.06-0.86,1.93-1.93,1.93c-1.06,0-1.92-0.86-1.92-1.93c0-1.06,0.86-1.93,1.92-1.93
			C705.26,337.42,706.12,338.28,706.12,339.35z"/>
            <path d="M706.12,346.18c0,1.06-0.86,1.92-1.93,1.92c-1.06,0-1.92-0.86-1.92-1.92c0-1.07,0.86-1.93,1.92-1.93
			C705.26,344.25,706.12,345.11,706.12,346.18z"/>
            <path d="M706.12,353.01c0,1.06-0.86,1.93-1.93,1.93c-1.06,0-1.92-0.86-1.92-1.93c0-1.06,0.86-1.93,1.92-1.93
			C705.26,351.08,706.12,351.94,706.12,353.01z"/>
            <path d="M699.29,305.19c0,1.06-0.86,1.92-1.93,1.92c-1.06,0-1.93-0.86-1.93-1.92c0-1.06,0.86-1.93,1.93-1.93
			C698.43,303.26,699.29,304.13,699.29,305.19z"/>
            <path d="M699.29,332.52c0,1.06-0.86,1.92-1.93,1.92c-1.06,0-1.93-0.86-1.93-1.92c0-1.06,0.86-1.93,1.93-1.93
			C698.43,330.59,699.29,331.45,699.29,332.52z"/>
            <path d="M699.29,339.35c0,1.06-0.86,1.93-1.93,1.93c-1.06,0-1.93-0.86-1.93-1.93c0-1.06,0.86-1.93,1.93-1.93
			C698.43,337.42,699.29,338.28,699.29,339.35z"/>
            <path d="M699.29,346.18c0,1.06-0.86,1.92-1.93,1.92c-1.06,0-1.93-0.86-1.93-1.92c0-1.07,0.86-1.93,1.93-1.93
			C698.43,344.25,699.29,345.11,699.29,346.18z"/>
            <path d="M699.29,353.01c0,1.06-0.86,1.93-1.93,1.93c-1.06,0-1.93-0.86-1.93-1.93c0-1.06,0.86-1.93,1.93-1.93
			C698.43,351.08,699.29,351.94,699.29,353.01z"/>
            <path d="M699.29,359.84c0,1.06-0.86,1.93-1.93,1.93c-1.06,0-1.93-0.86-1.93-1.93s0.86-1.93,1.93-1.93
			C698.43,357.91,699.29,358.77,699.29,359.84z"/>
            <path d="M699.29,366.67c0,1.06-0.86,1.93-1.93,1.93c-1.06,0-1.93-0.86-1.93-1.93c0-1.06,0.86-1.93,1.93-1.93
			C698.43,364.74,699.29,365.6,699.29,366.67z"/>
            <path d="M692.46,318.85c0,1.06-0.86,1.93-1.93,1.93c-1.06,0-1.93-0.86-1.93-1.93c0-1.06,0.86-1.93,1.93-1.93
			C691.6,316.93,692.46,317.79,692.46,318.85z"/>
            <path d="M692.46,325.68c0,1.06-0.86,1.93-1.93,1.93c-1.06,0-1.93-0.86-1.93-1.93c0-1.06,0.86-1.93,1.93-1.93
			C691.6,323.76,692.46,324.62,692.46,325.68z"/>
            <path d="M692.46,332.52c0,1.06-0.86,1.92-1.93,1.92c-1.06,0-1.93-0.86-1.93-1.92c0-1.06,0.86-1.93,1.93-1.93
			C691.6,330.59,692.46,331.45,692.46,332.52z"/>
            <circle cx="690.54" cy="339.35" r="1.93"/>
            <path d="M692.46,346.18c0,1.06-0.86,1.92-1.93,1.92c-1.06,0-1.93-0.86-1.93-1.92c0-1.07,0.86-1.93,1.93-1.93
			C691.6,344.25,692.46,345.11,692.46,346.18z"/>
            <path d="M692.46,353.01c0,1.06-0.86,1.93-1.93,1.93c-1.06,0-1.93-0.86-1.93-1.93c0-1.06,0.86-1.93,1.93-1.93
			C691.6,351.08,692.46,351.94,692.46,353.01z"/>
            <circle cx="690.54" cy="359.84" r="1.93"/>
            <path d="M692.46,366.67c0,1.06-0.86,1.93-1.93,1.93c-1.06,0-1.93-0.86-1.93-1.93c0-1.06,0.86-1.93,1.93-1.93
			C691.6,364.74,692.46,365.6,692.46,366.67z"/>
            <path d="M692.46,373.5c0,1.06-0.86,1.93-1.93,1.93c-1.06,0-1.93-0.86-1.93-1.93c0-1.06,0.86-1.93,1.93-1.93
			C691.6,371.57,692.46,372.43,692.46,373.5z"/>
            <path d="M692.46,380.33c0,1.06-0.86,1.92-1.93,1.92c-1.06,0-1.93-0.86-1.93-1.92c0-1.06,0.86-1.93,1.93-1.93
			C691.6,378.41,692.46,379.27,692.46,380.33z"/>
            <path d="M685.63,312.02c0,1.06-0.86,1.92-1.93,1.92c-1.06,0-1.92-0.86-1.92-1.92c0-1.06,0.86-1.93,1.92-1.93
			C684.77,310.1,685.63,310.96,685.63,312.02z"/>
            <path d="M685.63,318.85c0,1.06-0.86,1.93-1.93,1.93c-1.06,0-1.92-0.86-1.92-1.93c0-1.06,0.86-1.93,1.92-1.93
			C684.77,316.93,685.63,317.79,685.63,318.85z"/>
            <path d="M685.63,325.68c0,1.06-0.86,1.93-1.93,1.93c-1.06,0-1.92-0.86-1.92-1.93c0-1.06,0.86-1.93,1.92-1.93
			C684.77,323.76,685.63,324.62,685.63,325.68z"/>
            <path d="M685.63,332.52c0,1.06-0.86,1.92-1.93,1.92c-1.06,0-1.92-0.86-1.92-1.92c0-1.06,0.86-1.93,1.92-1.93
			C684.77,330.59,685.63,331.45,685.63,332.52z"/>
            <path d="M685.63,339.35c0,1.06-0.86,1.93-1.93,1.93c-1.06,0-1.92-0.86-1.92-1.93c0-1.06,0.86-1.93,1.92-1.93
			C684.77,337.42,685.63,338.28,685.63,339.35z"/>
            <path d="M685.63,346.18c0,1.06-0.86,1.92-1.93,1.92c-1.06,0-1.92-0.86-1.92-1.92c0-1.07,0.86-1.93,1.92-1.93
			C684.77,344.25,685.63,345.11,685.63,346.18z"/>
            <path d="M685.63,353.01c0,1.06-0.86,1.93-1.93,1.93c-1.06,0-1.92-0.86-1.92-1.93c0-1.06,0.86-1.93,1.92-1.93
			C684.77,351.08,685.63,351.94,685.63,353.01z"/>
            <path d="M685.63,359.84c0,1.06-0.86,1.93-1.93,1.93c-1.06,0-1.92-0.86-1.92-1.93s0.86-1.93,1.92-1.93
			C684.77,357.91,685.63,358.77,685.63,359.84z"/>
            <path d="M685.63,366.67c0,1.06-0.86,1.93-1.93,1.93c-1.06,0-1.92-0.86-1.92-1.93c0-1.06,0.86-1.93,1.92-1.93
			C684.77,364.74,685.63,365.6,685.63,366.67z"/>
            <path d="M685.63,373.5c0,1.06-0.86,1.93-1.93,1.93c-1.06,0-1.92-0.86-1.92-1.93c0-1.06,0.86-1.93,1.92-1.93
			C684.77,371.57,685.63,372.43,685.63,373.5z"/>
            <path d="M678.8,318.85c0,1.06-0.86,1.93-1.93,1.93c-1.06,0-1.92-0.86-1.92-1.93c0-1.06,0.86-1.93,1.92-1.93
			C677.94,316.93,678.8,317.79,678.8,318.85z"/>
            <path d="M678.8,325.68c0,1.06-0.86,1.93-1.93,1.93c-1.06,0-1.92-0.86-1.92-1.93c0-1.06,0.86-1.93,1.92-1.93
			C677.94,323.76,678.8,324.62,678.8,325.68z"/>
            <path d="M678.8,332.52c0,1.06-0.86,1.92-1.93,1.92c-1.06,0-1.92-0.86-1.92-1.92c0-1.06,0.86-1.93,1.92-1.93
			C677.94,330.59,678.8,331.45,678.8,332.52z"/>
            <path d="M678.8,339.35c0,1.06-0.86,1.93-1.93,1.93c-1.06,0-1.92-0.86-1.92-1.93c0-1.06,0.86-1.93,1.92-1.93
			C677.94,337.42,678.8,338.28,678.8,339.35z"/>
            <path d="M678.8,346.18c0,1.06-0.86,1.92-1.93,1.92c-1.06,0-1.92-0.86-1.92-1.92c0-1.07,0.86-1.93,1.92-1.93
			C677.94,344.25,678.8,345.11,678.8,346.18z"/>
            <path d="M678.8,353.01c0,1.06-0.86,1.93-1.93,1.93c-1.06,0-1.92-0.86-1.92-1.93c0-1.06,0.86-1.93,1.92-1.93
			C677.94,351.08,678.8,351.94,678.8,353.01z"/>
            <path d="M678.8,359.84c0,1.06-0.86,1.93-1.93,1.93c-1.06,0-1.92-0.86-1.92-1.93s0.86-1.93,1.92-1.93
			C677.94,357.91,678.8,358.77,678.8,359.84z"/>
            <path d="M678.8,366.67c0,1.06-0.86,1.93-1.93,1.93c-1.06,0-1.92-0.86-1.92-1.93c0-1.06,0.86-1.93,1.92-1.93
			C677.94,364.74,678.8,365.6,678.8,366.67z"/>
            <path d="M671.97,318.85c0,1.06-0.86,1.93-1.93,1.93s-1.92-0.86-1.92-1.93c0-1.06,0.86-1.93,1.92-1.93
			S671.97,317.79,671.97,318.85z"/>
            <path d="M671.97,325.68c0,1.06-0.86,1.93-1.93,1.93s-1.92-0.86-1.92-1.93c0-1.06,0.86-1.93,1.92-1.93
			S671.97,324.62,671.97,325.68z"/>
            <path d="M671.97,332.52c0,1.06-0.86,1.92-1.93,1.92s-1.92-0.86-1.92-1.92c0-1.06,0.86-1.93,1.92-1.93
			S671.97,331.45,671.97,332.52z"/>
            <path d="M671.97,339.35c0,1.06-0.86,1.93-1.93,1.93s-1.92-0.86-1.92-1.93c0-1.06,0.86-1.93,1.92-1.93
			S671.97,338.28,671.97,339.35z"/>
            <path d="M671.97,346.18c0,1.06-0.86,1.92-1.93,1.92s-1.92-0.86-1.92-1.92c0-1.07,0.86-1.93,1.92-1.93
			S671.97,345.11,671.97,346.18z"/>
            <path d="M671.97,353.01c0,1.06-0.86,1.93-1.93,1.93s-1.92-0.86-1.92-1.93c0-1.06,0.86-1.93,1.92-1.93
			S671.97,351.94,671.97,353.01z"/>
            <path d="M671.97,359.84c0,1.06-0.86,1.93-1.93,1.93s-1.92-0.86-1.92-1.93s0.86-1.93,1.92-1.93
			S671.97,358.77,671.97,359.84z"/>
            <path d="M665.14,312.02c0,1.06-0.86,1.92-1.93,1.92c-1.06,0-1.93-0.86-1.93-1.92c0-1.06,0.86-1.93,1.93-1.93
			C664.28,310.1,665.14,310.96,665.14,312.02z"/>
            <path d="M665.14,318.85c0,1.06-0.86,1.93-1.93,1.93c-1.06,0-1.93-0.86-1.93-1.93c0-1.06,0.86-1.93,1.93-1.93
			C664.28,316.93,665.14,317.79,665.14,318.85z"/>
            <path d="M665.14,325.68c0,1.06-0.86,1.93-1.93,1.93c-1.06,0-1.93-0.86-1.93-1.93c0-1.06,0.86-1.93,1.93-1.93
			C664.28,323.76,665.14,324.62,665.14,325.68z"/>
            <path d="M665.14,332.52c0,1.06-0.86,1.92-1.93,1.92c-1.06,0-1.93-0.86-1.93-1.92c0-1.06,0.86-1.93,1.93-1.93
			C664.28,330.59,665.14,331.45,665.14,332.52z"/>
            <circle cx="663.21" cy="339.35" r="1.93"/>
            <path d="M665.14,346.18c0,1.06-0.86,1.92-1.93,1.92c-1.06,0-1.93-0.86-1.93-1.92c0-1.07,0.86-1.93,1.93-1.93
			C664.28,344.25,665.14,345.11,665.14,346.18z"/>
            <path d="M665.14,353.01c0,1.06-0.86,1.93-1.93,1.93c-1.06,0-1.93-0.86-1.93-1.93c0-1.06,0.86-1.93,1.93-1.93
			C664.28,351.08,665.14,351.94,665.14,353.01z"/>
            <circle cx="663.21" cy="359.84" r="1.93"/>
            <path d="M658.31,305.19c0,1.06-0.86,1.92-1.93,1.92c-1.06,0-1.93-0.86-1.93-1.92c0-1.06,0.86-1.93,1.93-1.93
			C657.45,303.26,658.31,304.13,658.31,305.19z"/>
            <path d="M658.31,312.02c0,1.06-0.86,1.92-1.93,1.92c-1.06,0-1.93-0.86-1.93-1.92c0-1.06,0.86-1.93,1.93-1.93
			C657.45,310.1,658.31,310.96,658.31,312.02z"/>
            <path d="M658.31,318.85c0,1.06-0.86,1.93-1.93,1.93c-1.06,0-1.93-0.86-1.93-1.93c0-1.06,0.86-1.93,1.93-1.93
			C657.45,316.93,658.31,317.79,658.31,318.85z"/>
            <path d="M658.31,325.68c0,1.06-0.86,1.93-1.93,1.93c-1.06,0-1.93-0.86-1.93-1.93c0-1.06,0.86-1.93,1.93-1.93
			C657.45,323.76,658.31,324.62,658.31,325.68z"/>
            <path d="M658.31,332.52c0,1.06-0.86,1.92-1.93,1.92c-1.06,0-1.93-0.86-1.93-1.92c0-1.06,0.86-1.93,1.93-1.93
			C657.45,330.59,658.31,331.45,658.31,332.52z"/>
            <path d="M658.31,339.35c0,1.06-0.86,1.93-1.93,1.93c-1.06,0-1.93-0.86-1.93-1.93c0-1.06,0.86-1.93,1.93-1.93
			C657.45,337.42,658.31,338.28,658.31,339.35z"/>
            <path d="M658.31,346.18c0,1.06-0.86,1.92-1.93,1.92c-1.06,0-1.93-0.86-1.93-1.92c0-1.07,0.86-1.93,1.93-1.93
			C657.45,344.25,658.31,345.11,658.31,346.18z"/>
            <path d="M658.31,353.01c0,1.06-0.86,1.93-1.93,1.93c-1.06,0-1.93-0.86-1.93-1.93c0-1.06,0.86-1.93,1.93-1.93
			C657.45,351.08,658.31,351.94,658.31,353.01z"/>
            <path d="M651.48,312.02c0,1.06-0.86,1.92-1.93,1.92c-1.06,0-1.92-0.86-1.92-1.92c0-1.06,0.86-1.93,1.92-1.93
			C650.62,310.1,651.48,310.96,651.48,312.02z"/>
            <path d="M651.48,318.85c0,1.06-0.86,1.93-1.93,1.93c-1.06,0-1.92-0.86-1.92-1.93c0-1.06,0.86-1.93,1.92-1.93
			C650.62,316.93,651.48,317.79,651.48,318.85z"/>
            <path d="M651.48,325.68c0,1.06-0.86,1.93-1.93,1.93c-1.06,0-1.92-0.86-1.92-1.93c0-1.06,0.86-1.93,1.92-1.93
			C650.62,323.76,651.48,324.62,651.48,325.68z"/>
            <path d="M651.48,332.52c0,1.06-0.86,1.92-1.93,1.92c-1.06,0-1.92-0.86-1.92-1.92c0-1.06,0.86-1.93,1.92-1.93
			C650.62,330.59,651.48,331.45,651.48,332.52z"/>
            <path d="M651.48,339.35c0,1.06-0.86,1.93-1.93,1.93c-1.06,0-1.92-0.86-1.92-1.93c0-1.06,0.86-1.93,1.92-1.93
			C650.62,337.42,651.48,338.28,651.48,339.35z"/>
            <path d="M651.48,346.18c0,1.06-0.86,1.92-1.93,1.92c-1.06,0-1.92-0.86-1.92-1.92c0-1.07,0.86-1.93,1.92-1.93
			C650.62,344.25,651.48,345.11,651.48,346.18z"/>
            <path d="M651.48,353.01c0,1.06-0.86,1.93-1.93,1.93c-1.06,0-1.92-0.86-1.92-1.93c0-1.06,0.86-1.93,1.92-1.93
			C650.62,351.08,651.48,351.94,651.48,353.01z"/>
            <path d="M644.64,312.02c0,1.06-0.86,1.92-1.93,1.92c-1.06,0-1.92-0.86-1.92-1.92c0-1.06,0.86-1.93,1.92-1.93
			C643.78,310.1,644.64,310.96,644.64,312.02z"/>
            <path d="M644.64,318.85c0,1.06-0.86,1.93-1.93,1.93c-1.06,0-1.92-0.86-1.92-1.93c0-1.06,0.86-1.93,1.92-1.93
			C643.78,316.93,644.64,317.79,644.64,318.85z"/>
            <path d="M644.64,325.68c0,1.06-0.86,1.93-1.93,1.93c-1.06,0-1.92-0.86-1.92-1.93c0-1.06,0.86-1.93,1.92-1.93
			C643.78,323.76,644.64,324.62,644.64,325.68z"/>
            <path d="M644.64,332.52c0,1.06-0.86,1.92-1.93,1.92c-1.06,0-1.92-0.86-1.92-1.92c0-1.06,0.86-1.93,1.92-1.93
			C643.78,330.59,644.64,331.45,644.64,332.52z"/>
            <path d="M644.64,339.35c0,1.06-0.86,1.93-1.93,1.93c-1.06,0-1.92-0.86-1.92-1.93c0-1.06,0.86-1.93,1.92-1.93
			C643.78,337.42,644.64,338.28,644.64,339.35z"/>
            <path d="M644.64,346.18c0,1.06-0.86,1.92-1.93,1.92c-1.06,0-1.92-0.86-1.92-1.92c0-1.07,0.86-1.93,1.92-1.93
			C643.78,344.25,644.64,345.11,644.64,346.18z"/>
            <path d="M644.64,353.01c0,1.06-0.86,1.93-1.93,1.93c-1.06,0-1.92-0.86-1.92-1.93c0-1.06,0.86-1.93,1.92-1.93
			C643.78,351.08,644.64,351.94,644.64,353.01z"/>
            <path d="M637.82,305.19c0,1.06-0.86,1.92-1.93,1.92c-1.06,0-1.93-0.86-1.93-1.92c0-1.06,0.86-1.93,1.93-1.93
			C636.95,303.26,637.82,304.13,637.82,305.19z"/>
            <path d="M637.82,318.85c0,1.06-0.86,1.93-1.93,1.93c-1.06,0-1.93-0.86-1.93-1.93c0-1.06,0.86-1.93,1.93-1.93
			C636.95,316.93,637.82,317.79,637.82,318.85z"/>
            <path d="M637.82,325.68c0,1.06-0.86,1.93-1.93,1.93c-1.06,0-1.93-0.86-1.93-1.93c0-1.06,0.86-1.93,1.93-1.93
			C636.95,323.76,637.82,324.62,637.82,325.68z"/>
            <path d="M637.82,332.52c0,1.06-0.86,1.92-1.93,1.92c-1.06,0-1.93-0.86-1.93-1.92c0-1.06,0.86-1.93,1.93-1.93
			C636.95,330.59,637.82,331.45,637.82,332.52z"/>
            <path d="M637.82,339.35c0,1.06-0.86,1.93-1.93,1.93c-1.06,0-1.93-0.86-1.93-1.93c0-1.06,0.86-1.93,1.93-1.93
			C636.95,337.42,637.82,338.28,637.82,339.35z"/>
            <path d="M637.82,346.18c0,1.06-0.86,1.92-1.93,1.92c-1.06,0-1.93-0.86-1.93-1.92c0-1.07,0.86-1.93,1.93-1.93
			C636.95,344.25,637.82,345.11,637.82,346.18z"/>
            <path d="M637.82,353.01c0,1.06-0.86,1.93-1.93,1.93c-1.06,0-1.93-0.86-1.93-1.93c0-1.06,0.86-1.93,1.93-1.93
			C636.95,351.08,637.82,351.94,637.82,353.01z"/>
            <path d="M637.82,359.84c0,1.06-0.86,1.93-1.93,1.93c-1.06,0-1.93-0.86-1.93-1.93s0.86-1.93,1.93-1.93
			C636.95,357.91,637.82,358.77,637.82,359.84z"/>
            <path d="M630.98,305.19c0,1.06-0.86,1.92-1.93,1.92c-1.06,0-1.92-0.86-1.92-1.92c0-1.06,0.86-1.93,1.92-1.93
			C630.12,303.26,630.98,304.13,630.98,305.19z"/>
            <path d="M630.98,318.85c0,1.06-0.86,1.93-1.93,1.93c-1.06,0-1.92-0.86-1.92-1.93c0-1.06,0.86-1.93,1.92-1.93
			C630.12,316.93,630.98,317.79,630.98,318.85z"/>
            <path d="M630.98,325.68c0,1.06-0.86,1.93-1.93,1.93c-1.06,0-1.92-0.86-1.92-1.93c0-1.06,0.86-1.93,1.92-1.93
			C630.12,323.76,630.98,324.62,630.98,325.68z"/>
            <path d="M630.98,332.52c0,1.06-0.86,1.92-1.93,1.92c-1.06,0-1.92-0.86-1.92-1.92c0-1.06,0.86-1.93,1.92-1.93
			C630.12,330.59,630.98,331.45,630.98,332.52z"/>
            <path d="M630.98,339.35c0,1.06-0.86,1.93-1.93,1.93c-1.06,0-1.92-0.86-1.92-1.93c0-1.06,0.86-1.93,1.92-1.93
			C630.12,337.42,630.98,338.28,630.98,339.35z"/>
            <path d="M630.98,346.18c0,1.06-0.86,1.92-1.93,1.92c-1.06,0-1.92-0.86-1.92-1.92c0-1.07,0.86-1.93,1.92-1.93
			C630.12,344.25,630.98,345.11,630.98,346.18z"/>
            <path d="M630.98,353.01c0,1.06-0.86,1.93-1.93,1.93c-1.06,0-1.92-0.86-1.92-1.93c0-1.06,0.86-1.93,1.92-1.93
			C630.12,351.08,630.98,351.94,630.98,353.01z"/>
            <path d="M630.98,359.84c0,1.06-0.86,1.93-1.93,1.93c-1.06,0-1.92-0.86-1.92-1.93s0.86-1.93,1.92-1.93
			C630.12,357.91,630.98,358.77,630.98,359.84z"/>
            <path d="M624.15,332.52c0,1.06-0.86,1.92-1.93,1.92c-1.06,0-1.92-0.86-1.92-1.92c0-1.06,0.86-1.93,1.92-1.93
			C623.29,330.59,624.15,331.45,624.15,332.52z"/>
            <path d="M624.15,339.35c0,1.06-0.86,1.93-1.93,1.93c-1.06,0-1.92-0.86-1.92-1.93c0-1.06,0.86-1.93,1.92-1.93
			C623.29,337.42,624.15,338.28,624.15,339.35z"/>
            <path d="M624.15,346.18c0,1.06-0.86,1.92-1.93,1.92c-1.06,0-1.92-0.86-1.92-1.92c0-1.07,0.86-1.93,1.92-1.93
			C623.29,344.25,624.15,345.11,624.15,346.18z"/>
            <path d="M624.15,353.01c0,1.06-0.86,1.93-1.93,1.93c-1.06,0-1.92-0.86-1.92-1.93c0-1.06,0.86-1.93,1.92-1.93
			C623.29,351.08,624.15,351.94,624.15,353.01z"/>
            <path d="M624.15,359.84c0,1.06-0.86,1.93-1.93,1.93c-1.06,0-1.92-0.86-1.92-1.93s0.86-1.93,1.92-1.93
			C623.29,357.91,624.15,358.77,624.15,359.84z"/>
            <path d="M617.32,332.52c0,1.06-0.86,1.92-1.93,1.92c-1.06,0-1.92-0.86-1.92-1.92c0-1.06,0.86-1.93,1.92-1.93
			C616.46,330.59,617.32,331.45,617.32,332.52z"/>
            <path d="M617.32,339.35c0,1.06-0.86,1.93-1.93,1.93c-1.06,0-1.92-0.86-1.92-1.93c0-1.06,0.86-1.93,1.92-1.93
			C616.46,337.42,617.32,338.28,617.32,339.35z"/>
            <path d="M617.32,346.18c0,1.06-0.86,1.92-1.93,1.92c-1.06,0-1.92-0.86-1.92-1.92c0-1.07,0.86-1.93,1.92-1.93
			C616.46,344.25,617.32,345.11,617.32,346.18z"/>
        </g>
        <g class="clientLocation" data-location="India">
            <path d="M562.67,216.62c0,1.06-0.86,1.93-1.93,1.93c-1.06,0-1.92-0.86-1.92-1.93s0.86-1.93,1.92-1.93
            C561.81,214.69,562.67,215.56,562.67,216.62z"/>
            <path d="M562.67,223.45c0,1.06-0.86,1.93-1.93,1.93c-1.06,0-1.92-0.86-1.92-1.93c0-1.06,0.86-1.93,1.92-1.93
            C561.81,221.53,562.67,222.39,562.67,223.45z"/>
            <path d="M562.67,230.28c0,1.06-0.86,1.92-1.93,1.92c-1.06,0-1.92-0.86-1.92-1.92c0-1.06,0.86-1.93,1.92-1.93
            C561.81,228.36,562.67,229.22,562.67,230.28z"/>
            <path d="M555.84,223.45c0,1.06-0.86,1.93-1.93,1.93c-1.06,0-1.92-0.86-1.92-1.93c0-1.06,0.86-1.93,1.92-1.93
            C554.98,221.53,555.84,222.39,555.84,223.45z"/>
            <path d="M555.84,230.28c0,1.06-0.86,1.92-1.93,1.92c-1.06,0-1.92-0.86-1.92-1.92c0-1.06,0.86-1.93,1.92-1.93
            C554.98,228.36,555.84,229.22,555.84,230.28z"/>
            <path d="M549.01,216.62c0,1.06-0.86,1.93-1.93,1.93c-1.06,0-1.92-0.86-1.92-1.93s0.86-1.93,1.92-1.93
            C548.15,214.69,549.01,215.56,549.01,216.62z"/>
            <path d="M549.01,223.45c0,1.06-0.86,1.93-1.93,1.93c-1.06,0-1.92-0.86-1.92-1.93c0-1.06,0.86-1.93,1.92-1.93
            C548.15,221.53,549.01,222.39,549.01,223.45z"/>
            <path d="M549.01,230.28c0,1.06-0.86,1.92-1.93,1.92c-1.06,0-1.92-0.86-1.92-1.92c0-1.06,0.86-1.93,1.92-1.93
            C548.15,228.36,549.01,229.22,549.01,230.28z"/>
            <path d="M549.01,237.11c0,1.06-0.86,1.93-1.93,1.93c-1.06,0-1.92-0.86-1.92-1.93c0-1.06,0.86-1.93,1.92-1.93
            C548.15,235.19,549.01,236.05,549.01,237.11z"/>
            <path d="M542.18,209.79c0,1.06-0.86,1.92-1.92,1.92c-1.06,0-1.93-0.86-1.93-1.92c0-1.06,0.86-1.93,1.93-1.93
            C541.32,207.86,542.18,208.73,542.18,209.79z"/>
            <path d="M542.18,216.62c0,1.06-0.86,1.93-1.92,1.93c-1.06,0-1.93-0.86-1.93-1.93s0.86-1.93,1.93-1.93
            C541.32,214.69,542.18,215.56,542.18,216.62z"/>
            <path d="M542.18,223.45c0,1.06-0.86,1.93-1.92,1.93c-1.06,0-1.93-0.86-1.93-1.93c0-1.06,0.86-1.93,1.93-1.93
            C541.32,221.53,542.18,222.39,542.18,223.45z"/>
            <path d="M542.18,230.28c0,1.06-0.86,1.92-1.92,1.92c-1.06,0-1.93-0.86-1.93-1.92c0-1.06,0.86-1.93,1.93-1.93
            C541.32,228.36,542.18,229.22,542.18,230.28z"/>
            <path d="M542.18,237.11c0,1.06-0.86,1.93-1.92,1.93c-1.06,0-1.93-0.86-1.93-1.93c0-1.06,0.86-1.93,1.93-1.93
            C541.32,235.19,542.18,236.05,542.18,237.11z"/>
            <path d="M542.18,243.95c0,1.06-0.86,1.93-1.92,1.93c-1.06,0-1.93-0.86-1.93-1.93c0-1.06,0.86-1.93,1.93-1.93
            C541.32,242.02,542.18,242.88,542.18,243.95z"/>
            <path d="M542.18,250.78c0,1.06-0.86,1.92-1.92,1.92c-1.06,0-1.93-0.86-1.93-1.92s0.86-1.93,1.93-1.93
            C541.32,248.85,542.18,249.71,542.18,250.78z"/>
            <path d="M535.35,202.96c0,1.06-0.86,1.92-1.93,1.92c-1.06,0-1.92-0.86-1.92-1.92c0-1.06,0.86-1.93,1.92-1.93
            C534.49,201.03,535.35,201.9,535.35,202.96z"/>
            <path d="M535.35,209.79c0,1.06-0.86,1.92-1.93,1.92c-1.06,0-1.92-0.86-1.92-1.92c0-1.06,0.86-1.93,1.92-1.93
            C534.49,207.86,535.35,208.73,535.35,209.79z"/>
            <path d="M535.35,216.62c0,1.06-0.86,1.93-1.93,1.93c-1.06,0-1.92-0.86-1.92-1.93s0.86-1.93,1.92-1.93
            C534.49,214.69,535.35,215.56,535.35,216.62z"/>
            <path d="M535.35,223.45c0,1.06-0.86,1.93-1.93,1.93c-1.06,0-1.92-0.86-1.92-1.93c0-1.06,0.86-1.93,1.92-1.93
            C534.49,221.53,535.35,222.39,535.35,223.45z"/>
            <path d="M535.35,230.28c0,1.06-0.86,1.92-1.93,1.92c-1.06,0-1.92-0.86-1.92-1.92c0-1.06,0.86-1.93,1.92-1.93
            C534.49,228.36,535.35,229.22,535.35,230.28z"/>
            <path d="M535.35,237.11c0,1.06-0.86,1.93-1.93,1.93c-1.06,0-1.92-0.86-1.92-1.93c0-1.06,0.86-1.93,1.92-1.93
            C534.49,235.19,535.35,236.05,535.35,237.11z"/>
            <path d="M535.35,243.95c0,1.06-0.86,1.93-1.93,1.93c-1.06,0-1.92-0.86-1.92-1.93c0-1.06,0.86-1.93,1.92-1.93
            C534.49,242.02,535.35,242.88,535.35,243.95z"/>
            <path d="M535.35,250.78c0,1.06-0.86,1.92-1.93,1.92c-1.06,0-1.92-0.86-1.92-1.92s0.86-1.93,1.92-1.93
            C534.49,248.85,535.35,249.71,535.35,250.78z"/>
            <path d="M535.35,257.61c0,1.06-0.86,1.92-1.93,1.92c-1.06,0-1.92-0.86-1.92-1.92c0-1.07,0.86-1.93,1.92-1.93
            C534.49,255.68,535.35,256.54,535.35,257.61z"/>
            <path d="M528.52,202.96c0,1.06-0.86,1.92-1.93,1.92c-1.06,0-1.92-0.86-1.92-1.92c0-1.06,0.86-1.93,1.92-1.93
            C527.66,201.03,528.52,201.9,528.52,202.96z"/>
            <path d="M528.52,209.79c0,1.06-0.86,1.92-1.93,1.92c-1.06,0-1.92-0.86-1.92-1.92c0-1.06,0.86-1.93,1.92-1.93
            C527.66,207.86,528.52,208.73,528.52,209.79z"/>
            <path d="M528.52,216.62c0,1.06-0.86,1.93-1.93,1.93c-1.06,0-1.92-0.86-1.92-1.93s0.86-1.93,1.92-1.93
            C527.66,214.69,528.52,215.56,528.52,216.62z"/>
            <path d="M528.52,223.45c0,1.06-0.86,1.93-1.93,1.93c-1.06,0-1.92-0.86-1.92-1.93c0-1.06,0.86-1.93,1.92-1.93
            C527.66,221.53,528.52,222.39,528.52,223.45z"/>
            <path d="M528.52,230.28c0,1.06-0.86,1.92-1.93,1.92c-1.06,0-1.92-0.86-1.92-1.92c0-1.06,0.86-1.93,1.92-1.93
            C527.66,228.36,528.52,229.22,528.52,230.28z"/>
            <path d="M528.52,237.11c0,1.06-0.86,1.93-1.93,1.93c-1.06,0-1.92-0.86-1.92-1.93c0-1.06,0.86-1.93,1.92-1.93
            C527.66,235.19,528.52,236.05,528.52,237.11z"/>
            <path d="M528.52,243.95c0,1.06-0.86,1.93-1.93,1.93c-1.06,0-1.92-0.86-1.92-1.93c0-1.06,0.86-1.93,1.92-1.93
            C527.66,242.02,528.52,242.88,528.52,243.95z"/>
            <path d="M528.52,250.78c0,1.06-0.86,1.92-1.93,1.92c-1.06,0-1.92-0.86-1.92-1.92s0.86-1.93,1.92-1.93
            C527.66,248.85,528.52,249.71,528.52,250.78z"/>
            <path d="M521.69,216.62c0,1.06-0.86,1.93-1.93,1.93c-1.06,0-1.93-0.86-1.93-1.93s0.86-1.93,1.93-1.93
            C520.83,214.69,521.69,215.56,521.69,216.62z"/>
            <path d="M521.69,223.45c0,1.06-0.86,1.93-1.93,1.93c-1.06,0-1.93-0.86-1.93-1.93c0-1.06,0.86-1.93,1.93-1.93
            C520.83,221.53,521.69,222.39,521.69,223.45z"/>
            <path d="M521.69,230.28c0,1.06-0.86,1.92-1.93,1.92c-1.06,0-1.93-0.86-1.93-1.92c0-1.06,0.86-1.93,1.93-1.93
            C520.83,228.36,521.69,229.22,521.69,230.28z"/>
            <path d="M514.86,223.45c0,1.06-0.86,1.93-1.93,1.93c-1.06,0-1.92-0.86-1.92-1.93c0-1.06,0.86-1.93,1.92-1.93
            C514,221.53,514.86,222.39,514.86,223.45z"/>
            <path d="M514.86,230.28c0,1.06-0.86,1.92-1.93,1.92c-1.06,0-1.92-0.86-1.92-1.92c0-1.06,0.86-1.93,1.92-1.93
            C514,228.36,514.86,229.22,514.86,230.28z"/>
        </g>
        <g class="clientLocation" data-location="Singapore">
            <path d="M596.83,284.56c0,1.06-0.86,1.92-1.93,1.92c-1.06,0-1.92-0.86-1.92-1.92c0-1.06,0.86-1.93,1.92-1.93
			C595.97,282.63,596.83,283.49,596.83,284.56z"/>
            <path d="M596.83,291.39c0,1.06-0.86,1.92-1.93,1.92c-1.06,0-1.92-0.86-1.92-1.92c0-1.06,0.86-1.93,1.92-1.93
			C595.97,289.47,596.83,290.33,596.83,291.39z"/>
            <path d="M590,277.73c0,1.06-0.86,1.93-1.93,1.93c-1.06,0-1.93-0.86-1.93-1.93c0-1.07,0.86-1.93,1.93-1.93
			C589.14,275.8,590,276.66,590,277.73z"/>
            <path d="M590,284.56c0,1.06-0.86,1.92-1.93,1.92c-1.06,0-1.93-0.86-1.93-1.92c0-1.06,0.86-1.93,1.93-1.93
			C589.14,282.63,590,283.49,590,284.56z"/>
            <path d="M583.17,277.73c0,1.06-0.86,1.93-1.93,1.93c-1.06,0-1.92-0.86-1.92-1.93c0-1.07,0.86-1.93,1.92-1.93
			C582.31,275.8,583.17,276.66,583.17,277.73z"/>
        </g>
        <g class="clientLocation" data-location="UAE">
            <path d="M487.54,230.28c0,1.06-0.86,1.92-1.93,1.92c-1.06,0-1.92-0.86-1.92-1.92c0-1.06,0.86-1.93,1.92-1.93
			C486.67,228.36,487.54,229.22,487.54,230.28z"/>
            <path d="M480.71,230.28c0,1.06-0.86,1.92-1.93,1.92c-1.06,0-1.93-0.86-1.93-1.92c0-1.06,0.86-1.93,1.93-1.93
			C479.84,228.36,480.71,229.22,480.71,230.28z"/>
            <path d="M480.71,237.11c0,1.06-0.86,1.93-1.93,1.93c-1.06,0-1.93-0.86-1.93-1.93c0-1.06,0.86-1.93,1.93-1.93
			C479.84,235.19,480.71,236.05,480.71,237.11z"/>
            <path d="M473.87,230.28c0,1.06-0.86,1.92-1.93,1.92c-1.06,0-1.92-0.86-1.92-1.92c0-1.06,0.86-1.93,1.92-1.93
			C473.01,228.36,473.87,229.22,473.87,230.28z"/>
            <path d="M473.87,237.11c0,1.06-0.86,1.93-1.93,1.93c-1.06,0-1.92-0.86-1.92-1.93c0-1.06,0.86-1.93,1.92-1.93
			C473.01,235.19,473.87,236.05,473.87,237.11z"/>
        </g>
        <g class="clientLocation" data-location="Israel">
            <path d="M432.89,209.79c0,1.06-0.86,1.92-1.93,1.92c-1.06,0-1.92-0.86-1.92-1.92c0-1.06,0.86-1.93,1.92-1.93
			C432.03,207.86,432.89,208.73,432.89,209.79z"/>
            <path d="M432.89,216.62c0,1.06-0.86,1.93-1.93,1.93c-1.06,0-1.92-0.86-1.92-1.93s0.86-1.93,1.92-1.93
			C432.03,214.69,432.89,215.56,432.89,216.62z"/>
            <path d="M426.06,209.79c0,1.06-0.86,1.92-1.93,1.92c-1.06,0-1.92-0.86-1.92-1.92c0-1.06,0.86-1.93,1.92-1.93
			C425.2,207.86,426.06,208.73,426.06,209.79z"/>
            <path d="M426.06,216.62c0,1.06-0.86,1.93-1.93,1.93c-1.06,0-1.92-0.86-1.92-1.93s0.86-1.93,1.92-1.93
			C425.2,214.69,426.06,215.56,426.06,216.62z"/>
            <path d="M419.23,209.79c0,1.06-0.86,1.92-1.93,1.92c-1.06,0-1.92-0.86-1.92-1.92c0-1.06,0.86-1.93,1.92-1.93
			C418.37,207.86,419.23,208.73,419.23,209.79z"/>
            <path d="M419.23,216.62c0,1.06-0.86,1.93-1.93,1.93c-1.06,0-1.92-0.86-1.92-1.93s0.86-1.93,1.92-1.93
			C418.37,214.69,419.23,215.56,419.23,216.62z"/>
        </g>
        <g class="clientLocation" data-location="Netherlands">
            <path d="M371.41,161.87c0,1.06-0.86,1.92-1.93,1.92c-1.06,0-1.93-0.86-1.93-1.92c0-1.06,0.86-1.93,1.93-1.93
			C370.55,159.94,371.41,160.8,371.41,161.87z"/>
            <path d="M364.58,155.04c0,1.06-0.86,1.93-1.92,1.93c-1.06,0-1.93-0.86-1.93-1.93c0-1.06,0.86-1.93,1.93-1.93
			C363.72,153.11,364.58,153.98,364.58,155.04z"/>
            <path d="M364.58,161.87c0,1.06-0.86,1.92-1.92,1.92c-1.06,0-1.93-0.86-1.93-1.92c0-1.06,0.86-1.93,1.93-1.93
			C363.72,159.94,364.58,160.8,364.58,161.87z"/>
            <path d="M357.75,155.04c0,1.06-0.86,1.93-1.93,1.93c-1.06,0-1.93-0.86-1.93-1.93c0-1.06,0.86-1.93,1.93-1.93
			C356.88,153.11,357.75,153.98,357.75,155.04z"/>
            <path d="M357.75,161.87c0,1.06-0.86,1.92-1.93,1.92c-1.06,0-1.93-0.86-1.93-1.92c0-1.06,0.86-1.93,1.93-1.93
			C356.88,159.94,357.75,160.8,357.75,161.87z"/>
        </g>
        <g class="clientLocation" data-location="USA">
            <path d="M227.63,185.65c0,1.06-0.86,1.92-1.93,1.92c-1.06,0-1.92-0.86-1.92-1.92c0-1.06,0.86-1.93,1.92-1.93
			C226.76,183.72,227.63,184.58,227.63,185.65z"/>
            <path d="M227.63,192.48c0,1.06-0.86,1.92-1.93,1.92c-1.06,0-1.92-0.86-1.92-1.92c0-1.06,0.86-1.92,1.92-1.92
			C226.76,190.55,227.63,191.42,227.63,192.48z"/>
            <path d="M220.79,185.65c0,1.06-0.86,1.92-1.92,1.92c-1.06,0-1.93-0.86-1.93-1.92c0-1.06,0.86-1.93,1.93-1.93
			C219.93,183.72,220.79,184.58,220.79,185.65z"/>
            <path d="M220.79,192.48c0,1.06-0.86,1.92-1.92,1.92c-1.06,0-1.93-0.86-1.93-1.92c0-1.06,0.86-1.92,1.93-1.92
			C219.93,190.55,220.79,191.42,220.79,192.48z"/>
            <path d="M220.79,199.31c0,1.06-0.86,1.93-1.92,1.93c-1.06,0-1.93-0.86-1.93-1.93c0-1.06,0.86-1.93,1.93-1.93
			C219.93,197.38,220.79,198.25,220.79,199.31z"/>
            <path d="M220.79,206.14c0,1.06-0.86,1.93-1.92,1.93c-1.06,0-1.93-0.86-1.93-1.93c0-1.06,0.86-1.92,1.93-1.92
			C219.93,204.22,220.79,205.08,220.79,206.14z"/>
            <path d="M213.97,185.65c0,1.06-0.86,1.92-1.93,1.92c-1.06,0-1.93-0.86-1.93-1.92c0-1.06,0.86-1.93,1.93-1.93
			C213.1,183.72,213.97,184.58,213.97,185.65z"/>
            <path d="M213.97,192.48c0,1.06-0.86,1.92-1.93,1.92c-1.06,0-1.93-0.86-1.93-1.92c0-1.06,0.86-1.92,1.93-1.92
			C213.1,190.55,213.97,191.42,213.97,192.48z"/>
            <path d="M213.97,199.31c0,1.06-0.86,1.93-1.93,1.93c-1.06,0-1.93-0.86-1.93-1.93c0-1.06,0.86-1.93,1.93-1.93
			C213.1,197.38,213.97,198.25,213.97,199.31z"/>
            <path d="M213.97,206.14c0,1.06-0.86,1.93-1.93,1.93c-1.06,0-1.93-0.86-1.93-1.93c0-1.06,0.86-1.92,1.93-1.92
			C213.1,204.22,213.97,205.08,213.97,206.14z"/>
            <path d="M213.97,212.97c0,1.06-0.86,1.92-1.93,1.92c-1.06,0-1.93-0.86-1.93-1.92c0-1.06,0.86-1.93,1.93-1.93
			C213.1,211.05,213.97,211.91,213.97,212.97z"/>
            <path d="M213.97,219.8c0,1.06-0.86,1.92-1.93,1.92c-1.06,0-1.93-0.86-1.93-1.92c0-1.06,0.86-1.93,1.93-1.93
			C213.1,217.88,213.97,218.74,213.97,219.8z"/>
            <path d="M213.97,226.63c0,1.06-0.86,1.93-1.93,1.93c-1.06,0-1.93-0.86-1.93-1.93c0-1.06,0.86-1.93,1.93-1.93
			C213.1,224.71,213.97,225.57,213.97,226.63z"/>
            <path d="M207.13,185.65c0,1.06-0.86,1.92-1.93,1.92c-1.06,0-1.92-0.86-1.92-1.92c0-1.06,0.86-1.93,1.92-1.93
			C206.27,183.72,207.13,184.58,207.13,185.65z"/>
            <path d="M207.13,192.48c0,1.06-0.86,1.92-1.93,1.92c-1.06,0-1.92-0.86-1.92-1.92c0-1.06,0.86-1.92,1.92-1.92
			C206.27,190.55,207.13,191.42,207.13,192.48z"/>
            <path d="M207.13,199.31c0,1.06-0.86,1.93-1.93,1.93c-1.06,0-1.92-0.86-1.92-1.93c0-1.06,0.86-1.93,1.92-1.93
			C206.27,197.38,207.13,198.25,207.13,199.31z"/>
            <path d="M207.13,206.14c0,1.06-0.86,1.93-1.93,1.93c-1.06,0-1.92-0.86-1.92-1.93c0-1.06,0.86-1.92,1.92-1.92
			C206.27,204.22,207.13,205.08,207.13,206.14z"/>
            <path d="M207.13,212.97c0,1.06-0.86,1.92-1.93,1.92c-1.06,0-1.92-0.86-1.92-1.92c0-1.06,0.86-1.93,1.92-1.93
			C206.27,211.05,207.13,211.91,207.13,212.97z"/>
            <path d="M207.13,219.8c0,1.06-0.86,1.92-1.93,1.92c-1.06,0-1.92-0.86-1.92-1.92c0-1.06,0.86-1.93,1.92-1.93
			C206.27,217.88,207.13,218.74,207.13,219.8z"/>
            <path d="M200.3,185.65c0,1.06-0.86,1.92-1.93,1.92c-1.06,0-1.93-0.86-1.93-1.92c0-1.06,0.86-1.93,1.93-1.93
			C199.44,183.72,200.3,184.58,200.3,185.65z"/>
            <path d="M200.3,192.48c0,1.06-0.86,1.92-1.93,1.92c-1.06,0-1.93-0.86-1.93-1.92c0-1.06,0.86-1.92,1.93-1.92
			C199.44,190.55,200.3,191.42,200.3,192.48z"/>
            <path d="M200.3,199.31c0,1.06-0.86,1.93-1.93,1.93c-1.06,0-1.93-0.86-1.93-1.93c0-1.06,0.86-1.93,1.93-1.93
			C199.44,197.38,200.3,198.25,200.3,199.31z"/>
            <path d="M200.3,206.14c0,1.06-0.86,1.93-1.93,1.93c-1.06,0-1.93-0.86-1.93-1.93c0-1.06,0.86-1.92,1.93-1.92
			C199.44,204.22,200.3,205.08,200.3,206.14z"/>
            <path d="M200.3,212.97c0,1.06-0.86,1.92-1.93,1.92c-1.06,0-1.93-0.86-1.93-1.92c0-1.06,0.86-1.93,1.93-1.93
			C199.44,211.05,200.3,211.91,200.3,212.97z"/>
            <path d="M200.3,219.8c0,1.06-0.86,1.92-1.93,1.92c-1.06,0-1.93-0.86-1.93-1.92c0-1.06,0.86-1.93,1.93-1.93
			C199.44,217.88,200.3,218.74,200.3,219.8z"/>
            <path d="M193.47,185.65c0,1.06-0.86,1.92-1.93,1.92c-1.06,0-1.92-0.86-1.92-1.92c0-1.06,0.86-1.93,1.92-1.93
			C192.61,183.72,193.47,184.58,193.47,185.65z"/>
            <path d="M193.47,192.48c0,1.06-0.86,1.92-1.93,1.92c-1.06,0-1.92-0.86-1.92-1.92c0-1.06,0.86-1.92,1.92-1.92
			C192.61,190.55,193.47,191.42,193.47,192.48z"/>
            <path d="M193.47,199.31c0,1.06-0.86,1.93-1.93,1.93c-1.06,0-1.92-0.86-1.92-1.93c0-1.06,0.86-1.93,1.92-1.93
			C192.61,197.38,193.47,198.25,193.47,199.31z"/>
            <path d="M193.47,206.14c0,1.06-0.86,1.93-1.93,1.93c-1.06,0-1.92-0.86-1.92-1.93c0-1.06,0.86-1.92,1.92-1.92
			C192.61,204.22,193.47,205.08,193.47,206.14z"/>
            <path d="M193.47,212.97c0,1.06-0.86,1.92-1.93,1.92c-1.06,0-1.92-0.86-1.92-1.92c0-1.06,0.86-1.93,1.92-1.93
			C192.61,211.05,193.47,211.91,193.47,212.97z"/>
            <path d="M193.47,219.8c0,1.06-0.86,1.92-1.93,1.92c-1.06,0-1.92-0.86-1.92-1.92c0-1.06,0.86-1.93,1.92-1.93
			C192.61,217.88,193.47,218.74,193.47,219.8z"/>
            <path d="M186.64,185.65c0,1.06-0.86,1.92-1.93,1.92c-1.06,0-1.93-0.86-1.93-1.92c0-1.06,0.86-1.93,1.93-1.93
			C185.78,183.72,186.64,184.58,186.64,185.65z"/>
            <path d="M186.64,192.48c0,1.06-0.86,1.92-1.93,1.92c-1.06,0-1.93-0.86-1.93-1.92c0-1.06,0.86-1.92,1.93-1.92
			C185.78,190.55,186.64,191.42,186.64,192.48z"/>
            <path d="M186.64,199.31c0,1.06-0.86,1.93-1.93,1.93c-1.06,0-1.93-0.86-1.93-1.93c0-1.06,0.86-1.93,1.93-1.93
			C185.78,197.38,186.64,198.25,186.64,199.31z"/>
            <path d="M186.64,206.14c0,1.06-0.86,1.93-1.93,1.93c-1.06,0-1.93-0.86-1.93-1.93c0-1.06,0.86-1.92,1.93-1.92
			C185.78,204.22,186.64,205.08,186.64,206.14z"/>
            <path d="M186.64,212.97c0,1.06-0.86,1.92-1.93,1.92c-1.06,0-1.93-0.86-1.93-1.92c0-1.06,0.86-1.93,1.93-1.93
			C185.78,211.05,186.64,211.91,186.64,212.97z"/>
            <path d="M186.64,219.8c0,1.06-0.86,1.92-1.93,1.92c-1.06,0-1.93-0.86-1.93-1.92c0-1.06,0.86-1.93,1.93-1.93
			C185.78,217.88,186.64,218.74,186.64,219.8z"/>
            <path d="M179.81,185.65c0,1.06-0.86,1.92-1.93,1.92c-1.06,0-1.92-0.86-1.92-1.92c0-1.06,0.86-1.93,1.92-1.93
			C178.95,183.72,179.81,184.58,179.81,185.65z"/>
            <path d="M179.81,192.48c0,1.06-0.86,1.92-1.93,1.92c-1.06,0-1.92-0.86-1.92-1.92c0-1.06,0.86-1.92,1.92-1.92
			C178.95,190.55,179.81,191.42,179.81,192.48z"/>
            <path d="M179.81,199.31c0,1.06-0.86,1.93-1.93,1.93c-1.06,0-1.92-0.86-1.92-1.93c0-1.06,0.86-1.93,1.92-1.93
			C178.95,197.38,179.81,198.25,179.81,199.31z"/>
            <path d="M179.81,206.14c0,1.06-0.86,1.93-1.93,1.93c-1.06,0-1.92-0.86-1.92-1.93c0-1.06,0.86-1.92,1.92-1.92
			C178.95,204.22,179.81,205.08,179.81,206.14z"/>
            <path d="M179.81,212.97c0,1.06-0.86,1.92-1.93,1.92c-1.06,0-1.92-0.86-1.92-1.92c0-1.06,0.86-1.93,1.92-1.93
			C178.95,211.05,179.81,211.91,179.81,212.97z"/>
            <path d="M179.81,219.8c0,1.06-0.86,1.92-1.93,1.92c-1.06,0-1.92-0.86-1.92-1.92c0-1.06,0.86-1.93,1.92-1.93
			C178.95,217.88,179.81,218.74,179.81,219.8z"/>
            <path d="M172.98,185.65c0,1.06-0.86,1.92-1.92,1.92c-1.06,0-1.93-0.86-1.93-1.92c0-1.06,0.86-1.93,1.93-1.93
			C172.12,183.72,172.98,184.58,172.98,185.65z"/>
            <path d="M172.98,192.48c0,1.06-0.86,1.92-1.92,1.92c-1.06,0-1.93-0.86-1.93-1.92c0-1.06,0.86-1.92,1.93-1.92
			C172.12,190.55,172.98,191.42,172.98,192.48z"/>
            <path d="M172.98,199.31c0,1.06-0.86,1.93-1.92,1.93c-1.06,0-1.93-0.86-1.93-1.93c0-1.06,0.86-1.93,1.93-1.93
			C172.12,197.38,172.98,198.25,172.98,199.31z"/>
            <path d="M172.98,206.14c0,1.06-0.86,1.93-1.92,1.93c-1.06,0-1.93-0.86-1.93-1.93c0-1.06,0.86-1.92,1.93-1.92
			C172.12,204.22,172.98,205.08,172.98,206.14z"/>
            <path d="M172.98,212.97c0,1.06-0.86,1.92-1.92,1.92c-1.06,0-1.93-0.86-1.93-1.92c0-1.06,0.86-1.93,1.93-1.93
			C172.12,211.05,172.98,211.91,172.98,212.97z"/>
            <path d="M172.98,219.8c0,1.06-0.86,1.92-1.92,1.92c-1.06,0-1.93-0.86-1.93-1.92c0-1.06,0.86-1.93,1.93-1.93
			C172.12,217.88,172.98,218.74,172.98,219.8z"/>
            <path d="M172.98,226.63c0,1.06-0.86,1.93-1.92,1.93c-1.06,0-1.93-0.86-1.93-1.93c0-1.06,0.86-1.93,1.93-1.93
			C172.12,224.71,172.98,225.57,172.98,226.63z"/>
            <path d="M166.15,185.65c0,1.06-0.86,1.92-1.93,1.92c-1.06,0-1.93-0.86-1.93-1.92c0-1.06,0.86-1.93,1.93-1.93
			C165.29,183.72,166.15,184.58,166.15,185.65z"/>
            <path d="M166.15,192.48c0,1.06-0.86,1.92-1.93,1.92c-1.06,0-1.93-0.86-1.93-1.92c0-1.06,0.86-1.92,1.93-1.92
			C165.29,190.55,166.15,191.42,166.15,192.48z"/>
            <path d="M166.15,199.31c0,1.06-0.86,1.93-1.93,1.93c-1.06,0-1.93-0.86-1.93-1.93c0-1.06,0.86-1.93,1.93-1.93
			C165.29,197.38,166.15,198.25,166.15,199.31z"/>
            <path d="M166.15,206.14c0,1.06-0.86,1.93-1.93,1.93c-1.06,0-1.93-0.86-1.93-1.93c0-1.06,0.86-1.92,1.93-1.92
			C165.29,204.22,166.15,205.08,166.15,206.14z"/>
            <path d="M166.15,212.97c0,1.06-0.86,1.92-1.93,1.92c-1.06,0-1.93-0.86-1.93-1.92c0-1.06,0.86-1.93,1.93-1.93
			C165.29,211.05,166.15,211.91,166.15,212.97z"/>
            <path d="M166.15,219.8c0,1.06-0.86,1.92-1.93,1.92c-1.06,0-1.93-0.86-1.93-1.92c0-1.06,0.86-1.93,1.93-1.93
			C165.29,217.88,166.15,218.74,166.15,219.8z"/>
            <path d="M166.15,226.63c0,1.06-0.86,1.93-1.93,1.93c-1.06,0-1.93-0.86-1.93-1.93c0-1.06,0.86-1.93,1.93-1.93
			C165.29,224.71,166.15,225.57,166.15,226.63z"/>
            <path d="M159.32,185.65c0,1.06-0.86,1.92-1.93,1.92c-1.06,0-1.93-0.86-1.93-1.92c0-1.06,0.86-1.93,1.93-1.93
			C158.46,183.72,159.32,184.58,159.32,185.65z"/>
            <path d="M159.32,192.48c0,1.06-0.86,1.92-1.93,1.92c-1.06,0-1.93-0.86-1.93-1.92c0-1.06,0.86-1.92,1.93-1.92
			C158.46,190.55,159.32,191.42,159.32,192.48z"/>
            <path d="M159.32,199.31c0,1.06-0.86,1.93-1.93,1.93c-1.06,0-1.93-0.86-1.93-1.93c0-1.06,0.86-1.93,1.93-1.93
			C158.46,197.38,159.32,198.25,159.32,199.31z"/>
            <path d="M159.32,206.14c0,1.06-0.86,1.93-1.93,1.93c-1.06,0-1.93-0.86-1.93-1.93c0-1.06,0.86-1.92,1.93-1.92
			C158.46,204.22,159.32,205.08,159.32,206.14z"/>
            <path d="M159.32,212.97c0,1.06-0.86,1.92-1.93,1.92c-1.06,0-1.93-0.86-1.93-1.92c0-1.06,0.86-1.93,1.93-1.93
			C158.46,211.05,159.32,211.91,159.32,212.97z"/>
            <path d="M159.32,219.8c0,1.06-0.86,1.92-1.93,1.92c-1.06,0-1.93-0.86-1.93-1.92c0-1.06,0.86-1.93,1.93-1.93
			C158.46,217.88,159.32,218.74,159.32,219.8z"/>
            <path d="M159.32,226.63c0,1.06-0.86,1.93-1.93,1.93c-1.06,0-1.93-0.86-1.93-1.93c0-1.06,0.86-1.93,1.93-1.93
			C158.46,224.71,159.32,225.57,159.32,226.63z"/>
            <path d="M152.49,185.65c0,1.06-0.86,1.92-1.93,1.92c-1.06,0-1.93-0.86-1.93-1.92c0-1.06,0.86-1.93,1.93-1.93
			C151.63,183.72,152.49,184.58,152.49,185.65z"/>
            <path d="M152.49,192.48c0,1.06-0.86,1.92-1.93,1.92c-1.06,0-1.93-0.86-1.93-1.92c0-1.06,0.86-1.92,1.93-1.92
			C151.63,190.55,152.49,191.42,152.49,192.48z"/>
            <path d="M152.49,199.31c0,1.06-0.86,1.93-1.93,1.93c-1.06,0-1.93-0.86-1.93-1.93c0-1.06,0.86-1.93,1.93-1.93
			C151.63,197.38,152.49,198.25,152.49,199.31z"/>
            <path d="M152.49,206.14c0,1.06-0.86,1.93-1.93,1.93c-1.06,0-1.93-0.86-1.93-1.93c0-1.06,0.86-1.92,1.93-1.92
			C151.63,204.22,152.49,205.08,152.49,206.14z"/>
            <path d="M152.49,212.97c0,1.06-0.86,1.92-1.93,1.92c-1.06,0-1.93-0.86-1.93-1.92c0-1.06,0.86-1.93,1.93-1.93
			C151.63,211.05,152.49,211.91,152.49,212.97z"/>
            <path d="M152.49,219.8c0,1.06-0.86,1.92-1.93,1.92c-1.06,0-1.93-0.86-1.93-1.92c0-1.06,0.86-1.93,1.93-1.93
			C151.63,217.88,152.49,218.74,152.49,219.8z"/>
            <path d="M152.49,226.63c0,1.06-0.86,1.93-1.93,1.93c-1.06,0-1.93-0.86-1.93-1.93c0-1.06,0.86-1.93,1.93-1.93
			C151.63,224.71,152.49,225.57,152.49,226.63z"/>
            <path d="M145.66,185.65c0,1.06-0.86,1.92-1.93,1.92c-1.06,0-1.93-0.86-1.93-1.92c0-1.06,0.86-1.93,1.93-1.93
			C144.79,183.72,145.66,184.58,145.66,185.65z"/>
            <path d="M145.66,192.48c0,1.06-0.86,1.92-1.93,1.92c-1.06,0-1.93-0.86-1.93-1.92c0-1.06,0.86-1.92,1.93-1.92
			C144.79,190.55,145.66,191.42,145.66,192.48z"/>
            <path d="M145.66,199.31c0,1.06-0.86,1.93-1.93,1.93c-1.06,0-1.93-0.86-1.93-1.93c0-1.06,0.86-1.93,1.93-1.93
			C144.79,197.38,145.66,198.25,145.66,199.31z"/>
            <path d="M145.66,206.14c0,1.06-0.86,1.93-1.93,1.93c-1.06,0-1.93-0.86-1.93-1.93c0-1.06,0.86-1.92,1.93-1.92
			C144.79,204.22,145.66,205.08,145.66,206.14z"/>
            <path d="M145.66,212.97c0,1.06-0.86,1.92-1.93,1.92c-1.06,0-1.93-0.86-1.93-1.92c0-1.06,0.86-1.93,1.93-1.93
			C144.79,211.05,145.66,211.91,145.66,212.97z"/>
            <path d="M145.66,219.8c0,1.06-0.86,1.92-1.93,1.92c-1.06,0-1.93-0.86-1.93-1.92c0-1.06,0.86-1.93,1.93-1.93
			C144.79,217.88,145.66,218.74,145.66,219.8z"/>
            <path d="M145.66,226.63c0,1.06-0.86,1.93-1.93,1.93c-1.06,0-1.93-0.86-1.93-1.93c0-1.06,0.86-1.93,1.93-1.93
			C144.79,224.71,145.66,225.57,145.66,226.63z"/>
            <path d="M138.83,185.65c0,1.06-0.86,1.92-1.93,1.92c-1.06,0-1.93-0.86-1.93-1.92c0-1.06,0.86-1.93,1.93-1.93
			C137.96,183.72,138.83,184.58,138.83,185.65z"/>
            <path d="M138.83,192.48c0,1.06-0.86,1.92-1.93,1.92c-1.06,0-1.93-0.86-1.93-1.92c0-1.06,0.86-1.92,1.93-1.92
			C137.96,190.55,138.83,191.42,138.83,192.48z"/>
            <path d="M138.83,199.31c0,1.06-0.86,1.93-1.93,1.93c-1.06,0-1.93-0.86-1.93-1.93c0-1.06,0.86-1.93,1.93-1.93
			C137.96,197.38,138.83,198.25,138.83,199.31z"/>
            <path d="M138.83,206.14c0,1.06-0.86,1.93-1.93,1.93c-1.06,0-1.93-0.86-1.93-1.93c0-1.06,0.86-1.92,1.93-1.92
			C137.96,204.22,138.83,205.08,138.83,206.14z"/>
            <path d="M138.83,212.97c0,1.06-0.86,1.92-1.93,1.92c-1.06,0-1.93-0.86-1.93-1.92c0-1.06,0.86-1.93,1.93-1.93
			C137.96,211.05,138.83,211.91,138.83,212.97z"/>
            <path d="M138.83,219.8c0,1.06-0.86,1.92-1.93,1.92c-1.06,0-1.93-0.86-1.93-1.92c0-1.06,0.86-1.93,1.93-1.93
			C137.96,217.88,138.83,218.74,138.83,219.8z"/>
            <path d="M138.83,226.63c0,1.06-0.86,1.93-1.93,1.93c-1.06,0-1.93-0.86-1.93-1.93c0-1.06,0.86-1.93,1.93-1.93
			C137.96,224.71,138.83,225.57,138.83,226.63z"/>
            <path d="M131.99,185.65c0,1.06-0.86,1.92-1.93,1.92c-1.06,0-1.93-0.86-1.93-1.92c0-1.06,0.86-1.93,1.93-1.93
			C131.13,183.72,131.99,184.58,131.99,185.65z"/>
            <path d="M131.99,192.48c0,1.06-0.86,1.92-1.93,1.92c-1.06,0-1.93-0.86-1.93-1.92c0-1.06,0.86-1.92,1.93-1.92
			C131.13,190.55,131.99,191.42,131.99,192.48z"/>
            <path d="M131.99,199.31c0,1.06-0.86,1.93-1.93,1.93c-1.06,0-1.93-0.86-1.93-1.93c0-1.06,0.86-1.93,1.93-1.93
			C131.13,197.38,131.99,198.25,131.99,199.31z"/>
            <path d="M131.99,206.14c0,1.06-0.86,1.93-1.93,1.93c-1.06,0-1.93-0.86-1.93-1.93c0-1.06,0.86-1.92,1.93-1.92
			C131.13,204.22,131.99,205.08,131.99,206.14z"/>
            <path d="M131.99,212.97c0,1.06-0.86,1.92-1.93,1.92c-1.06,0-1.93-0.86-1.93-1.92c0-1.06,0.86-1.93,1.93-1.93
			C131.13,211.05,131.99,211.91,131.99,212.97z"/>
            <path d="M125.16,185.65c0,1.06-0.86,1.92-1.92,1.92c-1.06,0-1.93-0.86-1.93-1.92c0-1.06,0.86-1.93,1.93-1.93
			C124.3,183.72,125.16,184.58,125.16,185.65z"/>
            <path d="M125.16,192.48c0,1.06-0.86,1.92-1.92,1.92c-1.06,0-1.93-0.86-1.93-1.92c0-1.06,0.86-1.92,1.93-1.92
			C124.3,190.55,125.16,191.42,125.16,192.48z"/>
            <path d="M125.16,199.31c0,1.06-0.86,1.93-1.92,1.93c-1.06,0-1.93-0.86-1.93-1.93c0-1.06,0.86-1.93,1.93-1.93
			C124.3,197.38,125.16,198.25,125.16,199.31z"/>
            <path d="M125.16,206.14c0,1.06-0.86,1.93-1.92,1.93c-1.06,0-1.93-0.86-1.93-1.93c0-1.06,0.86-1.92,1.93-1.92
			C124.3,204.22,125.16,205.08,125.16,206.14z"/>
            <path d="M118.33,185.65c0,1.06-0.86,1.92-1.93,1.92c-1.06,0-1.93-0.86-1.93-1.92c0-1.06,0.86-1.93,1.93-1.93
			C117.47,183.72,118.33,184.58,118.33,185.65z"/>
            <path d="M118.33,192.48c0,1.06-0.86,1.92-1.93,1.92c-1.06,0-1.93-0.86-1.93-1.92c0-1.06,0.86-1.92,1.93-1.92
			C117.47,190.55,118.33,191.42,118.33,192.48z"/>
            <path d="M118.33,199.31c0,1.06-0.86,1.93-1.93,1.93c-1.06,0-1.93-0.86-1.93-1.93c0-1.06,0.86-1.93,1.93-1.93
			C117.47,197.38,118.33,198.25,118.33,199.31z"/>
        </g>
        <g class="clientLocation" data-location="UK">
            <path d="M357.68,127.71c0,1.06-0.86,1.93-1.93,1.93c-1.06,0-1.92-0.86-1.92-1.93c0-1.06,0.86-1.92,1.92-1.92
			C356.82,125.79,357.68,126.65,357.68,127.71z"/>
            <path d="M350.85,120.88c0,1.06-0.86,1.93-1.93,1.93c-1.06,0-1.92-0.86-1.92-1.93c0-1.06,0.86-1.92,1.92-1.92
			C349.99,118.96,350.85,119.82,350.85,120.88z"/>
            <path d="M357.68,134.54c0,1.06-0.86,1.93-1.93,1.93c-1.06,0-1.92-0.86-1.92-1.93c0-1.06,0.86-1.93,1.92-1.93
			C356.82,132.62,357.68,133.48,357.68,134.54z"/>
            <path d="M350.85,127.71c0,1.06-0.86,1.93-1.93,1.93c-1.06,0-1.93-0.86-1.93-1.93c0-1.06,0.86-1.92,1.93-1.92
			C349.99,125.79,350.85,126.65,350.85,127.71z"/>
        </g>
        <g class="clientLocation active" data-location="Luxembourg">
            <path d="M391.9,141.38c0,1.06-0.86,1.93-1.93,1.93c-1.06,0-1.93-0.86-1.93-1.93c0-1.06,0.86-1.93,1.93-1.93
            C391.04,139.45,391.9,140.31,391.9,141.38z"/>
            <path d="M391.9,148.21c0,1.06-0.86,1.93-1.93,1.93c-1.06,0-1.93-0.86-1.93-1.93c0-1.06,0.86-1.93,1.93-1.93
            C391.04,146.28,391.9,147.14,391.9,148.21z"/>
            <path d="M385.07,141.38c0,1.06-0.86,1.93-1.92,1.93c-1.06,0-1.93-0.86-1.93-1.93c0-1.06,0.86-1.93,1.93-1.93
            C384.21,139.45,385.07,140.31,385.07,141.38z"/>
            <path d="M385.07,148.21c0,1.06-0.86,1.93-1.92,1.93c-1.06,0-1.93-0.86-1.93-1.93c0-1.06,0.86-1.93,1.93-1.93
            C384.21,146.28,385.07,147.14,385.07,148.21z"/>
        </g>
    </g>
</svg>
