<?xml version="1.0" encoding="utf-8"?>
<!-- Generator: Adobe Illustrator 23.0.5, SVG Export Plug-In . SVG Version: 6.00 Build 0)  -->
<svg version="1.1" id="Layer_1" xmlns="http://www.w3.org/2000/svg" xmlns:xlink="http://www.w3.org/1999/xlink" x="0px" y="0px"
	 viewBox="0 0 144.18 39.67" style="enable-background:new 0 0 144.18 39.67;" xml:space="preserve">
<style type="text/css">
	.st0{fill:#19181B;}
</style>
<g>
	<path class="st0" d="M21.12,9.89c-4.78,0-8.66,3.88-8.66,8.66v3.95h0v8.51c0,2.1-1.71,3.8-3.8,3.8c-2.1,0-3.8-1.71-3.8-3.8
		c0-2.1,1.71-3.8,3.8-3.8v0l0,0c0.27,0,0.49-0.22,0.49-0.49v-3.88c0-0.27-0.22-0.49-0.49-0.49l0,0v0C3.89,22.35,0,26.23,0,31.01
		s3.89,8.66,8.66,8.66c4.78,0,8.66-3.88,8.66-8.66v-3.8h3.8c4.78,0,8.66-3.88,8.66-8.66C29.78,13.77,25.9,9.89,21.12,9.89
		 M21.12,22.35h-3.8v-3.8c0-2.1,1.71-3.8,3.8-3.8c2.1,0,3.8,1.71,3.8,3.8C24.93,20.64,23.22,22.35,21.12,22.35"/>
	<path class="st0" d="M126.26,23.11c-0.43,0-0.77-0.12-1.02-0.37c-0.25-0.25-0.37-0.59-0.37-1.02V10.53c0-0.21-0.17-0.39-0.39-0.39
		h-3.68c-0.21,0-0.39,0.17-0.39,0.39v0.29c0,0.33-0.38,0.5-0.63,0.3c-0.36-0.28-0.78-0.54-1.28-0.76c-0.85-0.38-1.86-0.57-3.06-0.57
		c-1.19,0-2.29,0.21-3.28,0.63c-1,0.42-1.85,1.01-2.57,1.77c-0.72,0.76-1.27,1.67-1.67,2.75c-0.4,1.07-0.6,2.27-0.6,3.59
		c0,1.32,0.2,2.52,0.6,3.59c0.06,0.16,0.13,0.32,0.2,0.48c-0.03,0.1-0.11,0.19-0.11,0.19c-0.17,0.11-0.35,0.19-0.54,0.24
		c-0.18,0.05-0.41,0.08-0.67,0.08c-0.43,0-0.78-0.12-1.02-0.37c-0.25-0.25-0.37-0.59-0.37-1.02V10.53c0-0.21-0.17-0.39-0.39-0.39
		h-3.68c-0.21,0-0.39,0.17-0.39,0.39v0.29c0,0.33-0.38,0.5-0.63,0.3c-0.36-0.28-0.78-0.54-1.29-0.76c-0.85-0.38-1.86-0.57-3.06-0.57
		c-1.19,0-2.29,0.21-3.28,0.63c-1,0.42-1.85,1.01-2.57,1.77c-0.72,0.76-1.27,1.67-1.67,2.75c-0.4,1.07-0.6,2.27-0.6,3.59
		c0,1.13,0.15,2.16,0.44,3.11c0.03,0.08,0.02,0.17-0.01,0.25c-0.23,0.58-0.55,0.93-0.55,0.93v0c-0.2,0.09-0.38,0.16-0.55,0.21
		c-0.17,0.05-0.4,0.08-0.68,0.08c-0.46,0-0.84-0.19-1.17-0.57c-0.17-0.2-0.35-0.42-0.55-0.66c-0.17-0.21-0.34-0.44-0.53-0.68
		c-0.43-0.59-0.9-1.09-1.4-1.53c-0.28-0.24-0.59-0.43-0.94-0.58c-0.29-0.12-0.31-0.54-0.04-0.69c0.36-0.21,0.72-0.44,1.07-0.71
		c0.63-0.48,1.18-1.07,1.66-1.79c0.06-0.09,0.11-0.19,0.17-0.28c0.39-0.65,0.71-1.39,0.94-2.22c0.23-0.85,0.34-2.07,0.31-3.13
		c-0.01-0.21-0.18-0.37-0.39-0.37l-0.86,0l-3.13,0c-0.21,0-0.38,0.17-0.39,0.39c-0.04,1.95-0.38,3.68-1.02,4.68
		c-0.68,1.06-1.62,1.68-2.81,1.85l-0.47,0.07c-0.23,0.03-0.44-0.15-0.44-0.38V7.2V0.39c0-0.21-0.17-0.39-0.39-0.39h-4.2
		c-0.21,0-0.39,0.17-0.39,0.39V7.2l0.02,15.37c0,0.04-0.01,0.08-0.02,0.12l-0.02,4.5h0.02l4.59,0c0.21,0,0.39-0.17,0.39-0.39v-5.77
		h0.33c0.48,0,0.89,0.08,1.25,0.24c0.36,0.16,0.68,0.39,0.96,0.68c0.28,0.29,0.54,0.64,0.78,1.04c0.24,0.4,0.49,0.83,0.75,1.28
		c0.56,1.08,1.24,1.84,2.02,2.28c0.66,0.37,1.39,0.57,2.18,0.62c0.15,0.01,0.29,0.03,0.45,0.03c0.63,0,1.13-0.05,1.5-0.15
		c0.37-0.1,0.7-0.21,1.01-0.34v0c0.53-0.23,1.53-1.29,2.2-2.06c0.06,0.07,0.13,0.15,0.19,0.22c0.72,0.77,1.57,1.36,2.57,1.77
		c1,0.41,2.09,0.62,3.28,0.62c1.17,0,2.19-0.2,3.07-0.59c0.71-0.31,1.31-0.71,1.8-1.2c0.17-0.17,0.45-0.14,0.59,0.06
		c0.35,0.49,0.82,0.87,1.4,1.14c0.74,0.35,1.54,0.52,2.41,0.52c0.76,0,1.34-0.05,1.74-0.16c0.4-0.11,0.74-0.23,1.02-0.36
		c1.33-0.49,1.96-1.43,1.96-1.43l-0.01-0.02c0.64,0.6,1.37,1.07,2.21,1.41c1,0.41,2.09,0.62,3.28,0.62c1.17,0,2.19-0.2,3.07-0.59
		c0.71-0.31,1.31-0.71,1.8-1.2c0.17-0.17,0.45-0.14,0.59,0.06c0.35,0.49,0.82,0.87,1.4,1.14c0.74,0.35,1.54,0.52,2.41,0.52
		c0.76,0,1.34-0.05,1.74-0.16 M100.68,18.92c0,1.34-0.37,2.39-1.11,3.14c-0.74,0.75-1.69,1.12-2.86,1.12c-1.19,0-2.17-0.4-2.93-1.2
		c-0.76-0.8-1.14-1.95-1.14-3.45c0-1.5,0.38-2.65,1.14-3.46c0.76-0.81,1.73-1.22,2.93-1.22c1.17,0,2.12,0.37,2.86,1.12
		c0.74,0.75,1.11,1.8,1.11,3.17V18.92z M120.15,18.92c0,1.34-0.37,2.39-1.11,3.14c-0.74,0.75-1.69,1.12-2.86,1.12
		c-1.19,0-2.17-0.4-2.93-1.2c-0.76-0.8-1.14-1.95-1.14-3.45c0-1.5,0.38-2.65,1.14-3.46c0.76-0.81,1.73-1.22,2.93-1.22
		c1.17,0,2.12,0.37,2.86,1.12c0.74,0.75,1.11,1.8,1.11,3.17V18.92z"/>
	<path class="st0" d="M50.01,21.74c-0.23-0.26-0.61-0.33-0.9-0.14c-0.65,0.42-1.41,0.62-2.19,0.58c-2.02-0.11-3.57-1.85-3.46-3.87
		c0.08-1.46,1.01-2.74,2.51-3.3c0.03-0.01,0.07-0.02,0.1-0.03c1.09-0.28,2.14-0.12,3,0.42c0.3,0.19,0.69,0.15,0.92-0.11
		c0.62-0.69,1.74-1.96,2.39-2.68c0.27-0.31,0.23-0.79-0.1-1.03c-1.35-1-2.98-1.6-4.67-1.69c-3.28-0.18-6.4,1.47-8.15,4.55
		c-0.1,0.19-0.2,0.38-0.28,0.58c-2.44,5.92,1.7,11.82,7.45,12.15c0.17,0.01,0.33,0.01,0.5,0.01c1.87,0,3.67-0.6,5.16-1.72
		c0.33-0.25,0.37-0.73,0.1-1.03L50.01,21.74z"/>
	<path class="st0" d="M33.55,7.86c1.83,0.4,3.42-1.19,3.01-3.01c-0.2-0.92-0.95-1.66-1.87-1.87c-1.83-0.4-3.42,1.19-3.01,3.01
		C31.89,6.91,32.63,7.65,33.55,7.86z"/>
	<path class="st0" d="M141.1,7.86c1.83,0.4,3.42-1.19,3.01-3.01c-0.2-0.92-0.95-1.66-1.87-1.87c-1.83-0.4-3.42,1.19-3.01,3.01
		C139.44,6.91,140.18,7.65,141.1,7.86z"/>
	<path class="st0" d="M143.54,9.88h-3.73c-0.35,0-0.64,0.29-0.64,0.64v16.01c0,0.35,0.29,0.64,0.64,0.64h3.73
		c0.35,0,0.64-0.29,0.64-0.64V10.52C144.18,10.16,143.89,9.88,143.54,9.88z"/>
	<path class="st0" d="M36.35,9.83H31.9c-0.15,0-0.28,0.12-0.28,0.28V26.9c0,0.15,0.12,0.28,0.28,0.28h4.45
		c0.15,0,0.28-0.12,0.28-0.28V10.11C36.63,9.96,36.5,9.83,36.35,9.83z"/>
	<path class="st0" d="M136.82,9.85c-4.67,0.26-8.39,4.1-8.47,8.81v8.04c0.01,0.25,0.21,0.45,0.47,0.45h4.09
		c0.26,0,0.47-0.21,0.47-0.47v-7.87c0-2.04,1.55-3.72,3.54-3.93c0.24-0.02,0.42-0.23,0.42-0.47v-4.1
		C137.33,10.05,137.1,9.84,136.82,9.85z"/>
	<path class="st0" d="M71.19,22.89h-1.37c-0.25,0-0.45-0.2-0.45-0.45c0-2.51-0.01-5.94-0.02-6.87c-0.03-3.05-2.63-5.73-5.68-5.74
		c-1.32,0-2.51,0.37-3.61,1.2c-0.27,0.2-0.65,0.02-0.65-0.31V8.63c0.14-1.89,1.63-3.41,3.5-3.61c0.24-0.03,0.42-0.23,0.42-0.46V0.48
		c0-0.27-0.23-0.48-0.5-0.47c-4.64,0.26-8.35,4.08-8.43,8.77v8l0.01,0v9.94c0,0.26,0.21,0.47,0.47,0.47h4.07
		c0.26,0,0.47-0.21,0.47-0.47v-9.56v-0.09c0-0.01,0-0.03,0-0.04l0.01-0.23c0-1.13,0.76-2.22,1.8-2.5c0.21-0.06,0.42-0.09,0.65-0.09
		c1.27,0,2.31,0.96,2.44,2.2l0.01,0.21c0,3.02,0.02,7-0.01,10.1c0,0.26,0.21,0.47,0.47,0.47h0.88h5.87v-4.5
		C71.46,22.85,71.34,22.89,71.19,22.89z"/>
	<path class="st0" d="M126.26,23.11c0,0,0.25-0.01,0.37-0.04c0.18-0.04,0.32,0.15,0.32,0.31v3.31c0,0.16-0.17,0.26-0.32,0.3
		c-0.13,0.03-0.26,0.06-0.39,0.08"/>
</g>
</svg>
