<svg version="1.1" id="Layer_1" xmlns="http://www.w3.org/2000/svg" x="0" y="0" viewBox="0 0 2382.5 1182.1" xml:space="preserve"><style>.st0{fill:none;stroke:#fff;stroke-width:.75;stroke-miterlimit:10}</style><path class="st0" d="M1091.1 706.4c53.4-14.3 107.4 1.1 154.2 22.8 46.8 21.7 90.4 49.8 141.1 63.1 50.7 13.3 112.7 8.7 154.7-28.3 44.3-39 53.7-101.9 46.5-155.7-7.1-53.8-27.2-104.5-29-159.2-2.2-67.8 24-136.8 23.6-204.8-.4-83.7-43.9-162.1-113.9-205.4-70-43.3-164.9-50.6-248.9-19.1-57.6 21.6-109.6 60-168.8 74.8-84.5 21.1-169.7-9.2-254.8 6.6-101 18.7-190.2 108.4-204.8 206-14.6 97.6 46.7 193.7 140.9 220.5 67.8 19.4 151.6 7.8 202.7 52.9 26 22.9 35.7 44.8 57.9 71.2 13.9 16.6 28.2 33.4 47.5 44 19.3 10.6 28.1 16.7 51.1 10.6z"/><path class="st0" d="M1095.6 696.7c-22.2 5.9-30.8 0-49.5-10.3s-32.6-26.7-46.1-42.7c-20.2-24.1-29.8-44.3-51.8-65.1-1.4-1.3-2.8-2.6-4.3-4-49.5-43.8-130.7-32.7-196.5-51.6-18.9-5.4-36.4-13.7-52.1-24.2-60.6-40.5-95.8-114.7-84.4-189.9 14.2-94.6 100.6-181.5 198.4-199.6 82.5-15.3 165 14 246.9-6.4 57.3-14.3 107.7-51.5 163.5-72.3 61.5-23 129-24.5 187.5-5.7 19 6.1 37 14.3 53.6 24.5 67.8 42 109.9 118 110.4 199.1.4 65.9-24.9 132.8-22.7 198.5 1.7 53 21.2 102.2 28.2 154.3 6.9 52.1-2 113.1-45 151-40.7 35.8-100.6 40.4-149.7 27.5-49.1-12.8-91.4-40.1-136.7-61-45.6-21-98-35.8-149.7-22.1z"/><path class="st0" d="M1100.1 687.1c-21.6 5.7-29.9-.1-48-10-18.2-10-31.6-25.9-44.6-41.5-19.6-23.4-28.9-43-50.2-63.2l-4.2-3.9c-48-42.5-126.6-31.9-190.3-50.3-18.3-5.3-35.2-13.3-50.5-23.6-58.7-39.4-92.8-111.3-81.7-184.2 13.8-91.5 97.4-175.6 192-193.1 79.8-14.8 159.7 13.5 238.9-6.3 55.5-13.8 104.2-49.7 158.2-69.9 59.5-22.2 124.8-23.5 181.5-5.3 18.3 5.9 35.8 13.8 51.8 23.8 65.6 40.8 106.4 114.3 106.9 192.9.4 63.8-24 128.6-21.9 192.2 1.7 51.3 20.6 99 27.3 149.4 6.7 50.5-1.9 109.5-43.4 146.3-39.3 34.7-97.3 39.1-144.8 26.8-47.5-12.4-88.4-38.6-132.3-58.9-43.9-20.1-94.6-34.5-144.7-21.2z"/><path class="st0" d="M1104.7 677.4c-20.9 5.5-29-.1-46.5-9.8-17.6-9.7-30.6-25.1-43.2-40.2-19-22.6-28-41.6-48.6-61.2-1.3-1.2-2.7-2.5-4.1-3.7-46.4-41.2-122.5-31.1-184.2-49.1-17.7-5.1-34.1-12.9-48.9-22.9-56.9-38.2-89.8-107.8-78.9-178.5 13.4-88.4 94.2-169.7 185.6-186.6 77.2-14.3 154.3 13 230.9-6.1 53.6-13.3 100.8-48 152.9-67.4 57.6-21.3 120.7-22.6 175.4-4.9 17.7 5.7 34.6 13.4 50.1 23.1 63.4 39.5 102.8 110.6 103.4 186.6.5 61.7-23.1 124.4-21 185.9 1.7 49.6 20 95.7 26.5 144.5 6.6 48.8-1.8 106-41.9 141.6-38 33.6-93.9 37.9-139.9 26-45.9-11.9-85.4-37.2-127.9-56.7-42.4-19.5-91.4-33.4-139.7-20.6z"/><path class="st0" d="M1109.2 667.8c-20.2 5.3-28-.2-45-9.5-17-9.4-29.6-24.3-41.8-38.9-18.3-21.9-27.1-40.3-47-59.3l-3.9-3.6c-44.9-39.9-118.4-30.4-178-47.8-17.1-5-33-12.6-47.3-22.2-55-37-86.7-104.4-76.2-172.8 13.1-85.3 90.9-163.7 179.3-180.2 74.5-13.9 149 12.4 222.9-5.9 51.8-12.9 97.3-46.3 147.6-65 55.6-20.5 116.5-21.6 169.4-4.5 17.1 5.5 33.4 13 48.4 22.4 61.2 38.2 99.3 106.9 99.9 180.3.5 59.6-22.1 120.1-20.1 179.6 1.7 47.9 19.3 92.5 25.7 139.6 6.4 47.2-1.6 102.4-40.3 136.8-36.6 32.4-90.6 36.7-134.9 25.2-44.3-11.4-82.5-35.8-123.5-54.6-41.2-18.6-88.5-32-135.2-19.6z"/><path class="st0" d="M1113.7 658.1c-19.5 5.1-27.1-.2-43.5-9.2-16.4-9.1-28.6-23.5-40.4-37.6-17.7-21.2-26.2-39-45.5-57.3-1.2-1.2-2.5-2.3-3.8-3.5-43.4-38.6-114.3-29.6-171.8-46.5-16.5-4.9-31.8-12.2-45.6-21.5-53.1-35.9-83.7-100.9-73.5-167 12.8-82.3 87.7-157.8 172.9-173.7 71.8-13.4 143.7 11.9 214.9-5.8 49.9-12.4 93.8-44.5 142.3-62.5 53.6-19.7 112.4-20.7 163.4-4.1 16.5 5.4 32.2 12.6 46.6 21.6 59 36.9 95.8 103.2 96.4 174 .5 57.5-21.2 115.9-19.2 173.3 1.6 46.3 18.7 89.3 24.8 134.7 6.2 45.6-1.5 98.8-38.8 132.1-35.3 31.3-87.3 35.4-130 24.5-42.7-10.9-79.5-34.4-119-52.5-39.5-18-85.1-30.8-130.2-19z"/><path class="st0" d="M1118.2 648.5c-18.8 4.9-26.2-.2-42-8.9-15.9-8.8-27.6-22.6-39-36.3-17.1-20.4-25.3-37.6-43.9-55.3-1.2-1.1-2.4-2.3-3.7-3.4-41.8-37.3-110.2-28.8-165.7-45.2-15.9-4.7-30.7-11.8-44-20.8-51.2-34.7-80.7-97.5-70.7-161.3 12.4-79.2 84.5-151.9 166.5-167.2 69.1-12.9 138.3 11.4 206.9-5.6 48.1-11.9 90.3-42.9 137-60.1 51.6-19 108.2-19.7 157.3-3.7 15.9 5.2 31 12.2 44.9 20.9 56.8 35.6 92.2 99.5 92.9 167.8.6 55.4-20.3 111.7-18.3 167 1.6 44.6 18 86 24 129.9 6 43.9-1.3 95.4-37.2 127.4-33.9 30.2-84 34.2-125.1 23.7-41.1-10.5-76.6-33-114.6-50.3-37.9-17.6-81.8-29.9-125.3-18.6z"/><path class="st0" d="M1122.8 638.8c-18.1 4.7-25.2-.3-40.4-8.7-15.3-8.5-26.6-21.8-37.6-35-16.5-19.7-24.4-36.3-42.3-53.4-1.1-1.1-2.3-2.2-3.5-3.3-40.3-36-106.1-28-159.5-44-15.3-4.6-29.5-11.5-42.4-20.2-49.4-33.5-77.7-94.1-68-155.6 12-76.1 81.3-146 160.1-160.8 66.5-12.4 133 10.9 198.9-5.4 46.2-11.4 86.8-41.2 131.7-57.6 49.7-18.2 104.1-18.8 151.3-3.2 15.3 5 29.8 11.8 43.2 20.2 54.6 34.4 88.7 95.8 89.4 161.5.6 53.3-19.4 107.5-17.4 160.7 1.6 42.9 17.4 82.8 23.1 125 5.8 42.3-1.1 91.8-35.6 122.7-32.5 29.1-80.7 33-120.2 22.9-39.5-10-73.6-31.5-110.2-48.2-36.7-16.6-78.9-28.4-120.6-17.6z"/><path class="st0" d="M1127.3 629.2c-17.4 4.5-24.3-.3-38.9-8.4-14.7-8.1-25.6-21-36.2-33.7-15.8-19-23.5-35-40.7-51.4-1.1-1-2.2-2.1-3.4-3.2-38.7-34.7-102-27.2-153.3-42.7-14.7-4.4-28.4-11.1-40.7-19.5-47.5-32.3-74.7-90.6-65.2-149.9 11.6-73 78.1-140.1 153.7-154.3 63.8-12 127.6 10.4 190.9-5.2 44.3-10.9 83.3-39.4 126.4-55.2 47.7-17.4 99.9-17.8 145.2-2.8 14.7 4.9 28.6 11.3 41.4 19.4 52.5 33.1 85.1 92.1 85.9 155.2.6 51.2-18.5 103.2-16.5 154.3 1.6 41.2 16.8 79.5 22.3 120.1 5.6 40.7-1 88.3-34.1 118-31.1 28-77.3 31.7-115.2 22.2-37.9-9.5-70.6-30.1-105.8-46.1-35.2-15.9-75.7-27.2-115.8-16.8z"/><path class="st0" d="M1131.8 619.5c-16.7 4.3-23.4-.4-37.4-8.1-14.1-7.8-24.6-20.2-34.8-32.4-15.2-18.2-22.6-33.6-39.1-49.5-1.1-1-2.1-2-3.3-3C980.1 493 919.4 500 870.1 485c-14.1-4.3-27.3-10.7-39.1-18.8C785.4 435 759.3 379 768.5 322c11.3-70 74.8-134.2 147.3-147.8 61.1-11.5 122.3 9.9 182.9-5.1 42.5-10.5 79.8-37.7 121.1-52.7 45.8-16.6 95.8-16.9 139.2-2.4 14 4.7 27.4 10.9 39.7 18.7 50.3 31.8 81.6 88.5 82.4 149 .7 49.1-17.5 99-15.6 148 1.5 39.5 16.1 76.3 21.5 115.2 5.4 39-.8 84.7-32.5 113.3-29.8 26.9-74 30.5-110.3 21.4-36.3-9-67.7-28.7-101.4-43.9-33.7-15.3-72.6-26-111-16.2z"/><path class="st0" d="M1136.3 609.9c-16 4.1-22.4-.4-35.9-7.9-13.6-7.5-23.6-19.4-33.4-31.2-14.6-17.5-21.7-32.3-37.5-47.5-1-1-2-1.9-3.1-2.9-35.7-32.1-93.8-25.6-141-40.2-13.5-4.2-26.1-10.3-37.5-18.1-43.7-30-68.7-83.7-59.8-138.5C799 256.7 859.7 195.3 929 182.2c58.4-11 116.9 9.3 174.9-4.9 40.6-10 76.3-36 115.8-50.2 43.8-15.8 91.7-15.9 133.1-2 13.4 4.5 26.2 10.5 37.9 18 48.1 30.5 78.1 84.8 78.9 142.7.7 47-16.6 94.8-14.7 141.7 1.5 37.8 15.5 73.1 20.6 110.3 5.2 37.4-.7 81.2-31 108.6-28.4 25.7-70.7 29.3-105.4 20.7-34.7-8.6-64.7-27.3-96.9-41.8-31.9-14.5-69.1-24.8-105.9-15.4z"/><path class="st0" d="M1140.9 600.2c-15.3 3.9-21.5-.4-34.4-7.6-13-7.2-22.6-18.6-32-29.9-14-16.8-20.8-31-35.9-45.5-1-.9-2-1.9-3-2.8-34.1-30.8-89.7-24.8-134.8-38.9-12.9-4-25-10-35.9-17.4-41.9-28.8-65.7-80.3-57-132.7 10.5-63.8 68.4-122.4 134.5-134.9 55.8-10.5 111.6 8.8 166.9-4.7 38.8-9.5 72.8-34.3 110.5-47.8 41.8-15 87.5-15 127.1-1.6 12.8 4.3 25 10.1 36.2 17.2 45.9 29.2 74.5 81.1 75.4 136.4.7 45-15.7 90.6-13.9 135.4 1.5 36.2 14.8 69.8 19.8 105.4 5 35.8-.5 77.6-29.4 103.9-27.1 24.6-67.4 28-100.4 19.9-33.1-8.1-61.7-25.9-92.5-39.7-30.7-13.8-66.1-23.5-101.2-14.7z"/><path class="st0" d="M1145.4 590.5c-14.6 3.7-20.6-.5-32.9-7.3-12.4-6.9-21.6-17.8-30.6-28.6-13.3-16-19.9-29.6-34.3-43.6-.9-.9-1.9-1.8-2.9-2.7-32.6-29.6-85.6-24.1-128.7-37.6-12.4-3.9-23.8-9.6-34.2-16.8-40-27.7-62.7-76.8-54.3-127 10.1-60.8 65.2-116.5 128.1-128.4 53.1-10.1 106.3 8.3 159-4.6 36.9-9 69.4-32.6 105.2-45.3 39.9-14.2 83.4-14 121-1.1 12.2 4.2 23.8 9.7 34.5 16.5 43.7 27.9 71 77.4 71.9 130.1.8 42.9-14.8 86.4-13 129.1 1.5 34.5 14.2 66.6 18.9 100.5 4.8 34.1-.4 74.1-27.9 99.2-25.7 23.5-64 26.8-95.5 19.1-31.5-7.6-58.8-24.5-88.1-37.5-29-13.1-62.8-22.3-96.2-14z"/><path class="st0" d="M1149.9 580.9c-14 3.4-19.7-.5-31.4-7-11.8-6.6-20.6-17-29.2-27.3-12.7-15.3-18.9-28.3-32.7-41.6-.9-.9-1.8-1.7-2.7-2.6-31-28.3-81.5-23.3-122.5-36.3-11.8-3.7-22.7-9.2-32.6-16.1-38.1-26.5-59.7-73.4-51.6-121.3 9.8-57.7 61.9-110.6 121.7-122 50.4-9.6 100.9 7.8 151-4.4 35.1-8.5 65.9-30.9 99.9-42.9 37.9-13.4 79.2-13 115-.7 11.6 4 22.6 9.3 32.7 15.8 41.5 26.7 67.5 73.7 68.4 123.9.8 40.8-13.9 82.1-12.1 122.8 1.4 32.8 13.5 63.3 18.1 95.6 4.6 32.5-.2 70.5-26.3 94.5-24.4 22.4-60.7 25.6-90.6 18.4-29.9-7.1-55.8-23-83.7-35.4-27.5-12.6-59.6-21.3-91.4-13.4z"/><path class="st0" d="M1154.5 571.2c-13.3 3.2-18.7-.5-29.8-6.8-11.3-6.3-19.6-16.2-27.8-26-12.1-14.6-18-27-31.1-39.7-.8-.8-1.7-1.6-2.6-2.4-29.5-27-77.4-22.5-116.3-35.1-11.2-3.6-21.6-8.8-31-15.4-36.2-25.3-56.7-69.9-48.8-115.6 9.4-54.6 58.7-104.7 115.3-115.5 47.7-9.1 95.6 7.3 143-4.2 33.2-8.1 62.4-29.1 94.7-40.4 36-12.6 75.1-12.1 108.9-.3 11 3.8 21.4 8.8 31 15 39.3 25.4 63.9 70 64.9 117.6.8 38.7-13 77.9-11.2 116.5 1.4 31.1 12.9 60.1 17.3 90.7 4.5 30.8-.1 67-24.7 89.7-23 21.2-57.4 24.3-85.7 17.6-28.3-6.6-52.9-21.6-79.3-33.3-26.3-11.5-56.7-19.7-86.8-12.4z"/><path class="st0" d="M1159 561.6c-12.6 3-17.8-.6-28.3-6.5-10.7-6-18.6-15.4-26.3-24.7-11.4-13.8-17.1-25.6-29.5-37.7-.8-.8-1.6-1.6-2.5-2.3-28-25.7-73.3-21.7-110.2-33.8-10.6-3.5-20.4-8.5-29.3-14.7-34.3-24.2-53.7-66.5-46.1-109.9 9-51.5 55.5-98.8 108.9-109 45.1-8.6 90.2 6.8 135-4.1 31.4-7.6 58.9-27.4 89.4-38 34-11.8 70.9-11.1 102.9.1 10.4 3.6 20.2 8.4 29.3 14.3 37.1 24.1 60.4 66.3 61.4 111.3.9 36.6-12 73.7-10.3 110.2 1.4 29.4 12.3 56.8 16.4 85.8 4.3 29.2.1 63.4-23.2 85-21.7 20.1-54.1 23.1-80.7 16.9-26.7-6.2-49.9-20.2-74.9-31.1-24.9-11-53.6-18.7-82-11.8z"/><path class="st0" d="M1163.5 551.9c-11.9 2.8-16.9-.6-26.8-6.2-10.1-5.7-17.7-14.6-24.9-23.4-10.8-13.1-16.2-24.3-27.9-35.7-.7-.7-1.5-1.5-2.3-2.2-26.4-24.4-69.1-20.9-104-32.5-10-3.3-19.3-8.1-27.7-14-32.5-23-50.7-63-43.4-104.1 8.6-48.5 52.3-92.9 102.5-102.6 42.4-8.2 84.9 6.2 127-3.9 29.5-7.1 55.4-25.7 84.1-35.5 32-11 66.8-10.2 96.9.5 9.7 3.5 19 8 27.5 13.6 34.9 22.8 56.9 62.6 58 105.1.9 34.5-11.1 69.5-9.4 103.9 1.4 27.7 11.6 53.6 15.6 80.9 4.1 27.6.2 59.9-21.6 80.3-20.3 19-50.8 21.9-75.8 16.1-25.1-5.7-46.9-18.8-70.4-29-23.6-10.5-50.6-17.7-77.4-11.3z"/><path class="st0" d="M1168 542.3c-11.2 2.6-15.9-.7-25.3-5.9-9.5-5.4-16.7-13.8-23.5-22.2-10.2-12.3-15.3-23-26.3-33.8-.7-.7-1.4-1.4-2.2-2.1-24.9-23.1-65-20.1-97.8-31.3-9.4-3.2-18.2-7.7-26.1-13.4-30.6-21.8-47.7-59.6-40.6-98.4 8.2-45.4 49.1-87 96.1-96.1 39.7-7.7 79.6 5.7 119-3.7 27.6-6.6 51.9-24 78.8-33.1 30.1-10.2 62.6-9.2 90.8.9 9.1 3.3 17.8 7.6 25.8 12.8 32.7 21.5 53.3 58.9 54.5 98.8.9 32.4-10.2 65.2-8.5 97.5 1.4 26.1 11 50.4 14.7 76 3.9 25.9.4 56.3-20.1 75.6-18.9 17.9-47.4 20.6-70.9 15.3-23.5-5.2-44-17.4-66-26.9-21.9-9.2-47.2-15.9-72.4-10z"/><path class="st0" d="M1172.6 532.6c-10.5 2.4-15-.7-23.8-5.7-9-5.1-15.7-13-22.1-20.9-9.6-11.6-14.4-21.6-24.7-31.8-.7-.7-1.3-1.3-2.1-2-23.3-21.8-60.9-19.3-91.7-30-8.8-3.1-17-7.4-24.5-12.7-28.7-20.6-44.7-56.1-37.9-92.7 7.8-42.3 45.8-81.1 89.8-89.6 37.1-7.2 74.2 5.2 111-3.6 25.8-6.1 48.4-22.3 73.5-30.6 28.1-9.4 58.5-8.3 84.8 1.4 8.5 3.1 16.6 7.2 24.1 12.1 30.5 20.3 49.8 55.2 51 92.5 1 30.3-9.3 61-7.6 91.2 1.3 24.4 10.3 47.1 13.9 71.1 3.7 24.3.6 52.8-18.5 70.9-17.6 16.7-44.1 19.4-65.9 14.6-21.9-4.8-41-15.9-61.6-24.7-20.6-8.7-44.3-14.9-67.7-9.5z"/><path class="st0" d="M1177.1 523c-9.8 2.2-14.1-.7-22.3-5.4-8.4-4.8-14.7-12.2-20.7-19.6-8.9-10.9-13.5-20.3-23.1-29.9-.6-.6-1.3-1.2-1.9-1.9-21.8-20.5-56.8-18.5-85.5-28.7-8.2-2.9-15.9-7-22.8-12-26.8-19.5-41.7-52.7-35.2-87 7.5-39.2 42.6-75.2 83.4-83.2 34.4-6.7 68.9 4.7 103-3.4 23.9-5.7 45-20.5 68.2-28.1 26.2-8.6 54.3-7.3 78.7 1.8 7.9 2.9 15.4 6.7 22.3 11.4 28.3 19 46.3 51.5 47.5 86.2 1 28.2-8.4 56.8-6.7 84.9 1.3 22.7 9.7 43.9 13.1 66.2 3.5 22.7.7 49.2-17 66.2-16.2 15.6-40.8 18.1-61 13.8-20.3-4.3-38.1-14.5-57.2-22.6-19.1-8-41-13.6-62.8-8.7z"/><path class="st0" d="M1181.6 513.3c-9.1 2-13.1-.8-20.7-5.1-7.8-4.5-13.7-11.4-19.3-18.3-8.3-10.1-12.6-19-21.5-27.9-.6-.6-1.2-1.2-1.8-1.7-20.3-19.2-52.7-17.8-79.3-27.5-7.6-2.8-14.7-6.6-21.2-11.3-25-18.3-38.7-49.2-32.4-81.3 7.1-36.2 39.4-69.3 77-76.7 31.7-6.3 63.5 4.2 95-3.2 22.1-5.2 41.5-18.8 62.9-25.7 24.2-7.8 50.2-6.4 72.7 2.2 7.3 2.8 14.2 6.3 20.6 10.6 26.1 17.7 42.7 47.9 44 80 1 26.1-7.4 52.6-5.8 78.6 1.3 21 9.1 40.6 12.2 61.3 3.3 21 .9 45.7-15.4 61.5-14.9 14.5-37.4 16.9-56.1 13.1-18.7-3.8-35.1-13.1-52.8-20.5-17.7-7.4-37.9-12.5-58.1-8.1z"/><path class="st0" d="M1186.2 503.7c-8.4 1.8-12.2-.8-19.2-4.8-7.3-4.2-12.7-10.6-17.9-17-7.7-9.4-11.7-17.6-19.9-25.9l-1.6-1.6c-18.7-17.9-48.6-17-73.2-26.2-7-2.6-13.6-6.2-19.6-10.6-23.1-17.1-35.7-45.8-29.7-75.6 6.7-33.1 36.2-63.4 70.6-70.2 29-5.8 58.2 3.6 87-3.1 20.2-4.7 38-17.1 57.6-23.2 22.2-7 46.1-5.4 66.6 2.6 6.7 2.6 13 5.9 18.9 9.9 24 16.4 39.2 44.2 40.5 73.7 1 24-6.5 48.3-5 72.3 1.3 19.3 8.4 37.4 11.4 56.4 3.1 19.4 1 42.1-13.8 56.8-13.5 13.3-34.1 15.7-51.2 12.3-17.1-3.4-32.1-11.7-48.4-18.3-16.1-6.8-34.7-11.5-53.1-7.5z"/><path class="st0" d="M1190.7 494c-7.8 1.6-11.3-.8-17.7-4.6-6.7-3.9-11.7-9.8-16.5-15.7-7.1-8.7-10.8-16.3-18.3-24l-1.5-1.5c-17.2-16.6-44.5-16.2-67-24.9-6.4-2.5-12.5-5.9-17.9-10-21.2-16-32.7-42.3-27-69.8 6.3-30 33-57.5 64.2-63.8 26.4-5.3 52.9 3.1 79.1-2.9 18.4-4.2 34.5-15.4 52.3-20.8 20.3-6.2 41.9-4.4 60.6 3 6 2.4 11.8 5.5 17.1 9.2 21.8 15.1 35.7 40.5 37 67.4 1.1 21.9-5.6 44.1-4.1 66 1.2 17.6 7.7 34.2 10.6 51.5 2.9 17.8 1.2 38.6-12.3 52.1-12.2 12.2-30.8 14.4-46.2 11.5-15.5-2.9-29.2-10.2-43.9-16.2-14.9-5.8-31.7-9.9-48.5-6.5z"/><path class="st0" d="M1195.2 484.3c-7.1 1.4-10.4-.9-16.2-4.3-6.1-3.6-10.7-9-15.1-14.4-6.4-7.9-9.9-14.9-16.7-22-.4-.5-.9-.9-1.4-1.4-15.6-15.3-40.4-15.4-60.8-23.6-5.9-2.4-11.3-5.5-16.3-9.3-19.3-14.8-29.7-38.9-24.2-64.1 5.8-26.9 29.7-51.6 57.8-57.3 23.7-4.8 47.5 2.6 71.1-2.7 16.5-3.7 31-13.6 47-18.3 18.3-5.4 37.8-3.5 54.5 3.5 5.4 2.3 10.6 5.1 15.4 8.4 19.6 13.8 32.1 36.8 33.5 61.2 1.1 19.8-4.7 39.9-3.2 59.7 1.2 16 7.1 30.9 9.7 46.7 2.7 16.1 1.3 35-10.7 47.4-10.8 11.1-27.5 13.2-41.3 10.8-13.9-2.4-26.2-8.8-39.5-14.1-13.3-5.5-28.5-9.1-43.6-6.2z"/><path class="st0" d="M1199.7 474.7c-6.4 1.2-9.4-.9-14.7-4-5.5-3.3-9.7-8.2-13.7-13.2-5.8-7.2-9-13.6-15.2-20.1-.4-.4-.8-.8-1.2-1.3-14.1-14-36.3-14.6-54.7-22.4-5.3-2.2-10.2-5.1-14.7-8.6-17.5-13.6-26.7-35.4-21.5-58.4 5.4-23.8 26.5-45.7 51.4-50.8 21-4.4 42.2 2.1 63.1-2.6 14.6-3.3 27.6-11.9 41.7-15.9 16.4-4.6 33.6-2.5 48.5 3.9 4.8 2.1 9.4 4.7 13.7 7.7 17.4 12.6 28.6 33.1 30 54.9 1.1 17.7-3.8 35.7-2.3 53.4 1.2 14.3 6.5 27.7 8.9 41.8 2.5 14.5 1.5 31.4-9.2 42.6-9.5 9.9-24.2 12-36.4 10-12.3-2-23.3-7.4-35.1-11.9-11.6-4.4-25.1-7.6-38.6-5.1z"/><path class="st0" d="M1204.3 465c-5.7 1-8.5-1-13.2-3.7-5-3-8.7-7.4-12.3-11.9-5.2-6.5-8.1-12.3-13.6-18.1-.4-.4-.7-.8-1.1-1.2-12.6-12.7-32.2-13.8-48.5-21.1-4.7-2.1-9.1-4.8-13.1-7.9-15.6-12.5-23.7-32-18.8-52.7 5-20.8 23.3-39.8 45-44.4 18.3-3.9 36.8 1.6 55.1-2.4 12.8-2.8 24.1-10.2 36.4-13.4 14.4-3.8 29.5-1.6 42.5 4.3 4.2 1.9 8.2 4.2 11.9 7 15.2 11.3 25 29.4 26.5 48.6 1.2 15.6-2.8 31.4-1.4 47.1 1.2 12.6 5.8 24.4 8 36.9 2.3 12.9 1.6 27.9-7.6 37.9-8.1 8.8-20.8 10.7-31.4 9.3-10.7-1.5-20.3-6-30.7-9.8-10.1-3.8-21.9-6.5-33.7-4.5z"/><path class="st0" d="M1208.8 455.4c-5 .8-7.6-1-11.6-3.5-4.4-2.7-7.7-6.6-10.9-10.6-4.6-5.7-7.2-10.9-12-16.1-.3-.3-.6-.7-1-1-11-11.4-28.1-13-42.3-19.8-4.1-1.9-7.9-4.4-11.4-7.3-13.7-11.3-20.8-28.5-16-47 4.5-17.7 20.1-33.9 38.6-37.9 15.7-3.4 31.5 1.1 47.1-2.2 10.9-2.3 20.6-8.5 31.1-11 12.5-2.9 25.3-.6 36.4 4.7 3.6 1.7 7 3.8 10.2 6.3 13 10 21.5 25.7 23 42.3 1.2 13.5-1.9 27.2-.5 40.8 1.1 10.9 5.2 21.2 7.2 32 2.1 11.2 1.8 24.3-6.1 33.2-6.7 7.7-17.5 9.5-26.5 8.5-9.1-1-17.3-4.6-26.3-7.7-8.8-3.1-18.9-5.2-29-3.7z"/><path class="st0" d="M1213.3 445.7c-4.3.5-6.6-1-10.1-3.2-3.8-2.4-6.7-5.8-9.4-9.3-3.9-5-6.3-9.6-10.4-14.2-.3-.3-.5-.6-.8-.9-9.5-10.2-24-12.2-36.2-18.6-3.5-1.8-6.8-4-9.8-6.6-11.8-10.1-17.8-25-13.3-41.2 4.1-14.6 16.9-28 32.2-31.4 13-2.9 26.1.5 39.1-2 9.1-1.8 17.1-6.7 25.8-8.5 10.5-2.1 21.2.3 30.4 5.1 3 1.6 5.8 3.4 8.4 5.5 10.8 8.7 18 22 19.5 36.1 1.2 11.4-1 23 .4 34.4 1.1 9.2 4.5 18 6.4 27.1 1.9 9.6 1.9 20.7-4.5 28.5-5.4 6.5-14.2 8.3-21.6 7.7-7.5-.5-14.4-3.2-21.8-5.5s-15.8-4-24.3-3z"/><path class="st0" d="M1217.8 436.1c-3.6.3-5.7-1.1-8.6-2.9-3.2-2.1-5.7-5-8-8-3.3-4.2-5.4-8.3-8.8-12.2-.2-.3-.5-.5-.7-.8-7.9-8.9-19.9-11.4-30-17.3-2.9-1.7-5.6-3.6-8.2-5.9-10-8.9-14.9-21.6-10.6-35.5 3.6-11.5 13.6-22.1 25.8-25 10.3-2.5 20.8 0 31.1-1.9 7.2-1.3 13.7-5 20.5-6 8.6-1.3 17 1.3 24.3 5.5 2.4 1.4 4.6 3 6.7 4.8 8.6 7.4 14.4 18.3 16 29.8 1.3 9.3-.1 18.8 1.3 28.1 1.1 7.5 3.9 14.7 5.5 22.2 1.7 8 2.1 17.2-3 23.8-4.1 5.4-10.9 7-16.7 7-5.9-.1-11.4-1.7-17.4-3.4-5.6-1.7-12.4-2.9-19.2-2.3z"/><path class="st0" d="M1222.4 426.4c-3 .1-4.8-1.1-7.1-2.6-2.7-1.8-4.7-4.2-6.6-6.7-2.7-3.5-4.5-6.9-7.2-10.3-.2-.2-.4-.5-.6-.7-6.4-7.6-15.8-10.7-23.8-16-2.3-1.5-4.5-3.3-6.5-5.2-8.1-7.8-12-18.1-7.8-29.8 3-8.5 10.4-16.2 19.4-18.5 7.6-2 15.5-.5 23.1-1.7 5.4-.9 10.2-3.2 15.2-3.6 6.7-.5 12.9 2.2 18.3 6 1.7 1.2 3.4 2.6 5 4.1 6.4 6.2 10.9 14.6 12.5 23.5 1.3 7.2.8 14.5 2.2 21.8 1.1 5.8 3.3 11.5 4.7 17.3 1.6 6.3 2.2 13.6-1.4 19.1-2.7 4.2-7.6 5.8-11.7 6.2-4.3.4-8.4-.3-13-1.3-4.5-1-9.6-1.8-14.7-1.6z"/><g><path class="st0" d="M2255.6 716.5c-9.1-54.5 11.4-106.8 37.4-151.3 26-44.5 58.3-85.2 76.4-134.4 18.1-49.2 19.4-111.3-13.3-156.7-34.6-47.9-96.3-63.2-150.5-61.2-54.2 1.9-106.7 17.1-161.3 13.6-67.7-4.3-133.9-37-201.6-43.2-83.4-7.6-165.5 28.1-215.4 93.7-49.8 65.5-66.2 159.3-42.9 245.9 16 59.4 49.2 114.8 58.3 175.2 12.9 86.1-25.4 168-17.9 254.3 8.9 102.3 89.7 199.7 185.5 223.6 95.8 23.9 197.3-28 233-119.1 25.8-65.7 22.3-150.2 72-196.7 25.3-23.7 48-31.3 76.4-50.8 17.8-12.2 36-24.8 48.4-43 12.5-18.3 19.4-26.5 15.5-49.9z"/><path class="st0" d="M2246.4 711.1c3.8 22.7-3 30.7-15 48.3-12 17.7-29.7 29.9-47 41.7-25.9 17.8-47 25.4-69.8 45.3-1.4 1.3-2.9 2.6-4.4 3.9-48.3 45.1-45.1 127-70.2 190.7-7.2 18.3-17.1 34.9-29.1 49.6-46.2 56.5-123.4 84.3-197.1 65.8-92.8-23.2-171-117.5-179.7-216.6-7.3-83.6 29.7-162.9 17.3-246.3-8.7-58.4-40.9-112.2-56.3-169.7-17-63.4-12-130.7 12.2-187.2 7.9-18.3 17.7-35.4 29.6-51 48.3-63.5 128-98.1 208.8-90.8 65.6 5.9 129.8 37.5 195.4 41.7 52.9 3.3 103.8-11.3 156.3-13.3 52.5-1.9 112.4 12.9 146 59.2 31.8 43.9 30.5 104 13 151.7-17.5 47.7-48.6 87.1-73.8 130.2-25.1 43.3-44.9 94-36.2 146.8z"/><path class="st0" d="M2237.3 705.6c3.6 22-3 29.7-14.6 46.8-11.7 17.1-28.8 29-45.5 40.5-25.2 17.3-45.5 24.7-67.7 43.9-1.4 1.2-2.8 2.5-4.2 3.8-46.9 43.7-43.9 123-68.3 184.6-7 17.7-16.6 33.8-28.3 48-44.8 54.7-119.7 81.7-191.2 63.6-89.7-22.5-165.4-113.8-173.8-209.7-7.1-80.9 28.7-157.7 16.7-238.4-8.4-56.5-39.5-108.5-54.4-164.2-16.4-61.4-11.5-126.5 12.1-181.2 7.6-17.7 17.2-34.3 28.7-49.3 46.9-61.4 124-94.9 202.2-87.9 63.6 5.7 125.7 36.2 189.2 40.2 51.2 3.2 100.5-11 151.4-12.9 50.9-1.9 108.8 12.4 141.4 57.2 30.8 42.4 29.6 100.6 12.8 146.7-16.9 46.1-46.9 84.3-71.3 126-24.5 42.2-43.7 91.2-35.2 142.3z"/><path class="st0" d="M2228.1 700.2c3.5 21.3-2.9 28.8-14.2 45.4-11.3 16.6-27.9 28-44.1 39.2-24.4 16.7-44.1 23.9-65.6 42.6-1.4 1.2-2.7 2.4-4.1 3.7-45.4 42.3-42.7 119-66.5 178.6-6.8 17.1-16.1 32.7-27.5 46.5-43.5 53-116 79.1-185.2 61.5-86.7-21.8-159.8-110-168-202.7-6.9-78.2 27.7-152.4 16.1-230.4-8.1-54.7-38.1-104.9-52.5-158.6-15.7-59.3-10.9-122.3 11.9-175.1 7.4-17.1 16.7-33.1 27.8-47.7 45.4-59.3 119.9-91.8 195.6-85 61.5 5.5 121.6 34.9 183 38.7 49.6 3.1 97.2-10.7 146.4-12.5 49.2-1.8 105.3 11.9 136.9 55.2 29.8 41 28.7 97.1 12.5 141.7-16.2 44.6-45.2 81.5-68.7 121.9-23.4 40.2-41.9 87.6-33.8 137z"/><path class="st0" d="M2218.9 694.8c3.3 20.6-2.8 27.9-13.8 43.9s-27 27.1-42.7 37.9c-23.6 16.2-42.7 23.1-63.5 41.2-1.3 1.1-2.6 2.3-4 3.6-44 40.9-41.6 115-64.6 172.6-6.6 16.5-15.7 31.6-26.6 44.9-42.1 51.2-112.2 76.3-179.3 59.3-83.7-21.3-154.3-106.2-162.2-195.7-6.7-75.5 26.7-147.1 15.5-222.4-7.8-52.8-36.7-101.3-50.5-153.1-15.1-57.3-10.4-118.1 11.8-169 7.2-16.5 16.2-32 26.9-46 43.9-57.3 115.9-88.6 189.1-82.2 59.4 5.2 117.5 33.6 176.8 37.2 47.9 2.9 93.9-10.4 141.5-12.2 47.6-1.8 101.8 11.4 132.3 53.2 28.8 39.6 27.8 93.7 12.2 136.7-15.6 43-43.5 78.7-66.2 117.7-22.7 38.9-40.5 84.7-32.7 132.4z"/><path class="st0" d="M2209.7 689.3c3.2 19.9-2.8 27-13.3 42.4-10.6 15.5-26.1 26.2-41.3 36.6-22.8 15.6-41.3 22.3-61.4 39.8-1.3 1.1-2.6 2.3-3.9 3.5-42.6 39.5-40.4 111-62.8 166.6-6.4 16-15.2 30.5-25.8 43.4-40.8 49.4-108.5 73.7-173.3 57.1-80.7-20.6-148.7-102.4-156.4-188.7-6.4-72.8 25.6-141.9 14.9-214.5-7.5-50.9-35.3-97.6-48.6-147.6-14.5-55.3-9.8-113.8 11.6-163 6.9-15.9 15.6-30.8 26-44.3 42.4-55.2 111.9-85.4 182.5-79.3 57.3 5 113.3 32.2 170.6 35.7 46.2 2.8 90.6-10 136.5-11.8 46-1.8 98.2 10.9 127.8 51.2 27.8 38.1 26.9 90.3 11.9 131.8-15 41.5-41.8 75.9-63.6 113.5-21.7 37.5-38.9 81.6-31.4 127.6z"/><path class="st0" d="M2200.6 683.9c3.1 19.2-2.7 26-12.9 40.9-10.2 15-25.2 25.3-39.9 35.4-22 15-39.9 21.6-59.3 38.4-1.2 1.1-2.5 2.2-3.7 3.3-41.1 38.1-39.2 106.9-60.9 160.6-6.2 15.4-14.7 29.4-25 41.8-39.4 47.7-104.8 71-167.4 54.9-77.6-19.9-143.1-98.7-150.5-181.7-6.2-70.1 24.6-136.6 14.3-206.5-7.2-49-34-94-46.7-142.1-14-53.2-9.3-109.6 11.4-156.9 6.7-15.3 15.1-29.7 25.1-42.7 41-53.3 107.9-82.3 175.9-76.5 55.2 4.8 109.2 30.9 164.4 34.2 44.5 2.7 87.4-9.7 131.6-11.4 44.3-1.7 94.8 10.4 123.3 49.2 26.8 36.6 26 86.9 11.6 126.8-14.3 39.9-40.1 73-61.1 109.3-20.9 36.2-37.3 78.7-30.2 123z"/><path class="st0" d="M2191.4 678.5c2.9 18.5-2.7 25.1-12.5 39.4-9.9 14.4-24.3 24.4-38.5 34.1-21.2 14.5-38.5 20.8-57.2 37-1.2 1-2.4 2.1-3.6 3.2-39.7 36.6-38 102.9-59 154.6-6 14.8-14.2 28.3-24.1 40.2-38.1 45.9-101.1 68.3-161.4 52.8-74.6-19.3-137.6-94.9-144.7-174.7-6-67.4 23.6-131.3 13.7-198.5-6.9-47.1-32.7-90.3-44.7-136.6-13.3-51.2-8.7-105.4 11.3-150.9 6.5-14.7 14.6-28.5 24.2-41 39.4-51.1 103.9-79.1 169.3-73.5 53.1 4.5 105.1 29.6 158.2 32.7 42.8 2.5 84.1-9.4 126.6-11.1 42.7-1.7 91.3 9.9 118.7 47.2 25.9 35.1 25.1 83.4 11.3 121.8-13.7 38.4-38.5 70.2-58.5 105.1-20.1 34.7-35.9 75.6-29.1 118.2z"/><path class="st0" d="M2182.2 673c2.8 17.8-2.6 24.2-12.1 37.9-9.5 13.9-23.4 23.5-37 32.8-20.4 13.9-37.1 20-55.1 35.6-1.1 1-2.3 2-3.5 3.1-38.3 35.2-36.9 98.9-57.2 148.5-5.8 14.2-13.7 27.2-23.3 38.7-36.7 44.2-97.3 65.7-155.5 50.6-71.6-18.6-132-91.1-138.9-167.8-5.8-64.6 22.6-126 13.1-190.5-6.6-45.2-31.3-86.7-42.8-131.1-12.7-49.2-8.2-101.2 11.1-144.8 6.2-14.1 14-27.4 23.3-39.4 37.9-49 99.9-75.9 162.8-70.6 51.1 4.3 101 28.3 152.1 31.2 41.2 2.4 80.8-9.1 121.7-10.7 41-1.7 87.8 9.4 114.2 45.2 24.9 33.7 24.2 80 11 116.8-13.1 36.8-36.8 67.4-56 100.9-19.2 33.5-34.3 72.7-27.9 113.6z"/><path class="st0" d="M2173 667.6c2.7 17-2.6 23.2-11.7 36.5-9.2 13.3-22.5 22.6-35.6 31.5-19.6 13.4-35.6 19.2-53 34.2-1.1.9-2.2 1.9-3.3 3-36.8 33.8-35.7 94.9-55.3 142.5-5.6 13.7-13.3 26.1-22.5 37.1-35.4 42.4-93.6 63-149.5 48.4-68.6-17.9-126.4-87.4-133-160.8-5.6-61.9 21.5-120.8 12.5-182.6-6.3-43.3-29.9-83.1-40.8-125.6-12.1-47.1-7.6-97 10.9-138.8 6-13.5 13.5-26.2 22.4-37.7 36.5-47 95.9-72.8 156.2-67.8 49 4.1 96.9 27 145.9 29.7 39.5 2.2 77.5-8.7 116.7-10.3 39.4-1.6 84.2 8.9 109.7 43.2 23.9 32.2 23.3 76.6 10.8 111.8-12.5 35.3-35.1 64.6-53.4 96.7-18.6 32.2-33.1 69.8-27 109z"/><path class="st0" d="M2163.9 662.2c2.5 16.3-2.5 22.3-11.3 35-8.8 12.8-21.6 21.7-34.2 30.2-18.8 12.8-34.2 18.5-50.9 32.8-1.1.9-2.1 1.9-3.2 2.8-35.4 32.4-34.5 90.9-53.5 136.5-5.4 13.1-12.8 25-21.6 35.6-34.1 40.7-89.9 60.4-143.5 46.2-65.5-17.3-120.9-83.6-127.2-153.8-5.4-59.2 20.5-115.5 11.9-174.6-6-41.4-28.5-79.4-38.9-120.1-11.5-45.1-7.1-92.8 10.8-132.7 5.8-12.9 13-25.1 21.5-36.1 35-44.9 91.9-69.6 149.6-64.9 46.9 3.8 92.8 25.6 139.7 28.3 37.8 2.1 74.2-8.4 111.7-10 37.7-1.6 80.7 8.4 105.1 41.2 22.9 30.8 22.4 73.2 10.5 106.9-11.8 33.7-33.4 61.8-50.9 92.5-17.6 30.7-31.4 66.7-25.6 104.2z"/><path class="st0" d="M2154.7 656.7c2.4 15.6-2.5 21.4-10.8 33.5-8.4 12.2-20.7 20.7-32.8 29-18 12.3-32.8 17.7-48.8 31.4-1 .9-2 1.8-3.1 2.7-34 31-33.3 86.9-51.6 130.5-5.2 12.5-12.3 23.9-20.8 34-32.7 38.9-86.2 57.7-137.6 44.1-62.5-16.6-115.3-79.8-121.4-146.8-5.1-56.5 19.5-110.2 11.3-166.6-5.7-39.5-27.2-75.8-37-114.6-10.9-43.1-6.5-88.5 10.6-126.6 5.5-12.3 12.4-23.9 20.6-34.4 33.5-42.9 87.8-66.4 143-62 44.8 3.6 88.7 24.3 133.5 26.8 36.1 2 70.9-8.1 106.8-9.6 36.1-1.6 77.2 7.9 100.6 39.2 21.9 29.3 21.5 69.7 10.2 101.9-11.2 32.2-31.7 59-48.3 88.3-16.8 29.1-29.8 63.5-24.4 99.2z"/><path class="st0" d="M2145.5 651.3c2.2 14.9-2.4 20.4-10.4 32-8.1 11.7-19.8 19.8-31.4 27.7-17.2 11.7-31.4 16.9-46.7 30-1 .8-2 1.7-2.9 2.6-32.5 29.6-32.1 82.9-49.8 124.5-5.1 11.9-11.8 22.8-20 32.5-31.4 37.1-82.5 55-131.6 41.9-59.5-15.9-109.7-76-115.6-139.8-4.9-53.8 18.4-105 10.7-158.7-5.4-37.6-25.8-72.2-35-109.1-10.3-41.1-5.9-84.3 10.5-120.6 5.3-11.7 11.9-22.8 19.7-32.7 32-40.8 83.8-63.3 136.4-59.1 42.7 3.4 84.5 23 127.3 25.3 34.5 1.8 67.6-7.7 101.8-9.2 34.4-1.5 73.7 7.5 96 37.2 20.9 27.9 20.5 66.3 9.9 96.9-10.6 30.6-30 56.2-45.8 84.1-15.8 27.7-28.2 60.4-23.1 94.5z"/><path class="st0" d="M2136.3 645.9c2.1 14.2-2.4 19.5-10 30.5-7.7 11.2-18.9 18.9-30 26.4-16.4 11.2-30 16.1-44.6 28.6-.9.8-1.9 1.6-2.8 2.5-31.1 28.2-31 78.9-47.9 118.5-4.9 11.4-11.4 21.7-19.1 30.9-30 35.4-78.8 52.4-125.7 39.7-56.5-15.2-104.2-72.3-109.8-132.8-4.7-51.1 17.4-99.7 10.1-150.7-5.1-35.7-24.4-68.5-33.1-103.6-9.7-39-5.4-80.1 10.3-114.5 5.1-11.1 11.4-21.6 18.8-31.1 30.5-38.7 79.8-60.1 129.9-56.3 40.6 3.1 80.4 21.7 121.1 23.8 32.8 1.7 64.3-7.4 96.9-8.9 32.8-1.5 70.2 7 91.5 35.2 19.9 26.4 19.6 62.9 9.6 91.9-10 29.1-28.3 53.4-43.3 79.9-14.9 26.5-26.6 57.6-21.9 90z"/><path class="st0" d="M2127.2 640.5c2 13.5-2.3 18.6-9.6 29.1-7.4 10.6-18 18-28.6 25.1-15.6 10.6-28.6 15.4-42.5 27.2-.9.8-1.8 1.5-2.7 2.3-29.7 26.8-29.8 74.8-46.1 112.4-4.7 10.8-10.9 20.6-18.3 29.4-28.7 33.6-75 49.7-119.7 37.5-53.5-14.6-98.6-68.5-103.9-125.9-4.5-48.4 16.4-94.4 9.5-142.7-4.8-33.8-23-64.9-31.2-98.1-9.1-37-4.8-75.9 10.1-108.5 4.8-10.6 10.8-20.5 17.9-29.4 29-36.7 75.8-56.9 123.3-53.4 38.6 2.9 76.3 20.4 114.9 22.3 31.1 1.6 61-7.1 91.9-8.5 31.1-1.5 66.6 6.5 87 33.2 18.9 24.9 18.7 59.5 9.3 87-9.3 27.5-26.6 50.5-40.7 75.7-14 25.1-25.1 54.6-20.6 85.3z"/><path class="st0" d="M2118 635c1.8 12.8-2.3 17.7-9.2 27.6-7 10.1-17.1 17.1-27.1 23.9-14.8 10.1-27.2 14.6-40.4 25.8-.8.7-1.7 1.5-2.6 2.2-28.2 25.4-28.6 70.8-44.2 106.4-4.5 10.2-10.4 19.5-17.5 27.8-27.3 31.9-71.3 47.1-113.8 35.4-50.4-13.9-93-64.7-98.1-118.9-4.3-45.7 15.4-89.2 8.9-134.8-4.5-31.9-21.6-61.3-29.2-92.6-8.5-35-4.3-71.7 10-102.4 4.6-10 10.3-19.3 17-27.8 27.5-34.6 71.8-53.8 116.7-50.5 36.5 2.7 72.2 19 108.7 20.8 29.4 1.4 57.8-6.8 87-8.1 29.5-1.4 63.1 6 82.4 31.2 17.9 23.5 17.8 56 9 82-8.7 26-24.9 47.7-38.2 71.5-13.1 23.7-23.5 51.5-19.4 80.5z"/><path class="st0" d="M2108.8 629.6c1.7 12.1-2.2 16.7-8.7 26.1-6.7 9.5-16.3 16.2-25.7 22.6-14.1 9.5-25.7 13.8-38.3 24.4l-2.4 2.1c-26.8 24-27.4 66.8-42.3 100.4-4.3 9.6-9.9 18.4-16.6 26.2-26 30.1-67.6 44.4-107.8 33.2-47.4-13.2-87.5-60.9-92.3-111.9-4.1-43 14.3-83.9 8.3-126.8-4.2-30-20.3-57.6-27.3-87.1-7.9-32.9-3.7-67.4 9.8-96.4 4.4-9.4 9.8-18.1 16.1-26.1 26.1-32.6 67.8-50.6 110.1-47.6 34.4 2.4 68.1 17.7 102.5 19.3 27.7 1.3 54.5-6.4 82-7.8 27.8-1.4 59.6 5.5 77.9 29.2 16.9 22 16.9 52.6 8.8 77-8.1 24.4-23.2 44.9-35.6 67.3-12.5 22.4-22.3 48.6-18.5 75.9z"/><path class="st0" d="M2099.6 624.2c1.5 11.4-2.2 15.8-8.3 24.6-6.3 9-15.4 15.3-24.3 21.3-13.3 9-24.3 13.1-36.1 23-.8.6-1.5 1.3-2.3 2-25.4 22.6-26.3 62.8-40.5 94.4-4.1 9.1-9.4 17.3-15.8 24.7-24.6 28.4-63.9 41.8-101.9 31-44.4-12.5-81.9-57.2-86.5-104.9-3.8-40.3 13.3-78.6 7.7-118.8-3.9-28.1-18.9-54-25.4-81.6-7.2-30.9-3.2-63.2 9.6-90.3 4.2-8.8 9.2-17 15.3-24.5 24.6-30.5 63.8-47.4 103.5-44.7 32.3 2.2 64 16.4 96.3 17.8 26.1 1.2 51.2-6.1 77.1-7.4 26.2-1.4 56.1 5 73.3 27.2 16 20.6 16 49.2 8.5 72-7.4 22.9-21.5 42.1-33.1 63.1-11.5 20.9-20.5 45.5-17.1 71.1z"/><path class="st0" d="M2090.4 618.7c1.4 10.7-2.1 14.9-7.9 23.1-5.9 8.4-14.5 14.3-22.9 20-12.5 8.4-22.9 12.3-34 21.6-.7.6-1.4 1.2-2.2 1.9-23.9 21.1-25.1 58.8-38.6 88.4-3.9 8.5-9 16.2-15 23.1-23.3 26.6-60.2 39.1-95.9 28.8-41.4-11.9-76.3-53.4-80.6-97.9-3.6-37.6 12.3-73.4 7.1-110.8-3.6-26.3-17.5-50.4-23.4-76.1-6.6-28.9-2.6-59 9.5-84.2 3.9-8.2 8.7-15.8 14.4-22.8 23.1-28.4 59.8-44.3 97-41.9 30.2 2 59.8 15.1 90.1 16.3 24.4 1 47.9-5.8 72.1-7 24.5-1.3 52.6 4.5 68.8 25.2 15 19.1 15.1 45.7 8.2 67-6.9 21.3-19.8 39.3-30.5 59-10.9 19.5-19.3 42.5-16.2 66.3z"/><path class="st0" d="M2081.3 613.3c1.3 10-2.1 13.9-7.5 21.6-5.6 7.9-13.6 13.4-21.5 18.7-11.7 7.9-21.5 11.5-31.9 20.2-.7.6-1.4 1.1-2 1.7-22.5 19.7-23.9 54.8-36.8 82.3-3.7 7.9-8.5 15.1-14.1 21.6-22 24.8-56.4 36.4-90 26.7-38.3-11.2-70.8-49.6-74.8-90.9-3.4-34.9 11.3-68.1 6.5-102.9-3.3-24.4-16.1-46.7-21.5-70.6-6-26.9-2.1-54.8 9.3-78.2 3.7-7.6 8.2-14.7 13.5-21.1 21.6-26.4 55.7-41.1 90.4-39 28.1 1.7 55.7 13.8 83.9 14.8 22.7.9 44.6-5.5 67.2-6.7 22.9-1.3 49.1 4 64.3 23.2 14 17.6 14.1 42.3 7.9 62.1-6.2 19.8-18.1 36.5-28 54.8-10 18.2-17.7 39.5-14.9 61.7z"/><path class="st0" d="M2072.1 607.9c1.1 9.3-2 13-7.1 20.2-5.2 7.4-12.7 12.5-20.1 17.5-10.9 7.3-20.1 10.7-29.8 18.8-.6.5-1.3 1.1-1.9 1.6-21.1 18.3-22.7 50.8-34.9 76.3-3.5 7.3-8 14-13.3 20-20.6 23.1-52.7 33.8-84 24.5-35.3-10.5-65.2-45.9-69-84-3.2-32.2 10.2-62.8 5.9-94.9-3-22.5-14.8-43.1-19.5-65.1-5.4-24.8-1.5-50.6 9.2-72.1 3.5-7 7.7-13.5 12.6-19.5 20.1-24.3 51.7-37.9 83.8-36.1 26.1 1.5 51.6 12.4 77.7 13.3 21 .7 41.3-5.1 62.2-6.3 21.3-1.3 45.5 3.5 59.7 21.2 13 16.2 13.2 38.9 7.6 57.1-5.6 18.2-16.4 33.7-25.4 50.6-9.1 16.7-16.2 36.4-13.7 56.9z"/><path class="st0" d="M2062.9 602.4c1 8.6-2 12.1-6.7 18.7-4.9 6.8-11.8 11.6-18.7 16.2-10.1 6.8-18.7 10-27.7 17.4l-1.8 1.5c-19.6 16.9-21.5 46.8-33.1 70.3-3.3 6.8-7.5 12.9-12.5 18.5-19.3 21.3-49 31.1-78.1 22.3-32.3-9.8-59.6-42.1-63.1-77-3-29.4 9.2-57.6 5.3-86.9-2.7-20.6-13.4-39.5-17.6-59.6-4.8-22.8-1-46.4 9-66.1 3.2-6.4 7.1-12.4 11.7-17.8 18.6-22.3 47.7-34.8 77.2-33.2 24 1.3 47.5 11.1 71.5 11.9 19.4.6 38-4.8 57.3-5.9 19.6-1.2 42 3 55.2 19.2 12 14.7 12.3 35.5 7.3 52.1-5 16.7-14.7 30.9-22.9 46.4-8 15.2-14.4 33.3-12.3 52z"/><path class="st0" d="M2053.7 597c.8 7.9-1.9 11.2-6.2 17.2-4.5 6.3-10.9 10.7-17.2 14.9-9.3 6.2-17.2 9.2-25.6 16-.5.4-1.1.9-1.6 1.4-18.2 15.5-20.4 42.7-31.2 64.3-3.1 6.2-7 11.8-11.6 16.9-17.9 19.6-45.3 28.5-72.1 20.1-29.3-9.1-54.1-38.3-57.3-70-2.8-26.7 8.2-52.3 4.7-79-2.4-18.7-12-35.8-15.7-54-4.2-20.8-.4-42.1 8.8-60 3-5.8 6.6-11.2 10.8-16.2 17.1-20.2 43.7-31.6 70.7-30.4 21.9 1 43.4 9.8 65.3 10.4 17.7.5 34.8-4.4 52.3-5.6 18-1.2 38.5 2.5 50.6 17.2 11 13.3 11.4 32 7.1 47.1-4.4 15.1-13 28.1-20.3 42.2-7.5 14.1-13.3 30.4-11.5 47.5z"/><path class="st0" d="M2044.6 591.6c.7 7.2-1.9 10.2-5.8 15.7-4.1 5.7-10 9.8-15.8 13.6-8.5 5.7-15.8 8.4-23.5 14.6l-1.5 1.2c-16.8 14.1-19.2 38.7-29.4 58.3-2.9 5.6-6.6 10.8-10.8 15.3-16.6 17.8-41.5 25.8-66.1 18-26.2-8.4-48.5-34.5-51.5-63-2.5-24 7.2-47 4.1-71-2.1-16.8-10.6-32.2-13.7-48.5-3.6-18.8.1-37.9 8.7-54 2.8-5.2 6.1-10.1 9.9-14.5 15.7-18.1 39.7-28.4 64.1-27.5 19.8.8 39.3 8.5 59.1 8.9 16 .3 31.5-4.1 47.4-5.2 16.3-1.1 35 2 46.1 15.2 10 11.8 10.5 28.6 6.8 42.1-3.7 13.6-11.3 25.3-17.8 38-6.7 12.7-11.8 27.4-10.3 42.8z"/><path class="st0" d="M2035.4 586.1c.6 6.5-1.8 9.3-5.4 14.2-3.8 5.2-9.1 8.9-14.4 12.3-7.7 5.1-14.4 7.7-21.4 13.2-.5.4-.9.7-1.4 1.1-15.3 12.7-18 34.7-27.5 52.3-2.7 5-6.1 9.7-10 13.8-15.2 16.1-37.8 23.2-60.2 15.8-23.2-7.7-42.9-30.8-45.7-56-2.3-21.3 6.1-41.8 3.5-63-1.8-14.9-9.2-28.6-11.8-43-3-16.7.7-33.7 8.5-47.9 2.5-4.6 5.5-8.9 9-12.9 14.2-16.1 35.7-25.3 57.5-24.6 17.7.6 35.1 7.2 52.9 7.4 14.3.2 28.2-3.8 42.4-4.8 14.7-1.1 31.4 1.5 41.6 13.2 9 10.4 9.6 25.2 6.5 37.2-3.1 12-9.6 22.4-15.2 33.8-5.6 11.2-10.1 24.3-8.9 37.9z"/><path class="st0" d="M2026.2 580.7c.4 5.8-1.8 8.4-5 12.7-3.4 4.6-8.2 7.9-13 11.1-6.9 4.5-13 6.9-19.3 11.8-.4.3-.8.6-1.3 1-13.9 11.3-16.8 30.7-25.7 46.2-2.5 4.5-5.6 8.6-9.1 12.2-13.9 14.3-34.1 20.6-54.2 13.6-20.2-7-37.4-27-39.8-49.1-2.1-18.6 5.1-36.5 2.9-55.1-1.5-13-7.8-24.9-9.9-37.5-2.4-14.7 1.2-29.5 8.3-41.8 2.3-4 5-7.8 8.1-11.2 12.7-14 31.7-22.1 50.9-21.7 15.6.3 31 5.8 46.7 5.9 12.6.1 24.9-3.4 37.5-4.5 13-1.1 27.9 1.1 37 11.2 8 8.9 8.7 21.8 6.2 32.2-2.5 10.5-7.9 19.6-12.7 29.6-4.7 10-8.4 21.5-7.6 33.4z"/><path class="st0" d="M2017 575.3c.3 5.1-1.7 7.4-4.6 11.3-3.1 4.1-7.3 7-11.6 9.8-6.1 4-11.6 6.1-17.2 10.4-.4.3-.7.6-1.1.9-12.5 9.9-15.7 26.7-23.8 40.2-2.3 3.9-5.1 7.5-8.3 10.7-12.5 12.6-30.4 17.9-48.3 11.5-17.2-6.2-31.8-23.2-34-42.1-1.9-15.9 4.1-31.2 2.3-47.1-1.2-11.1-6.5-21.3-7.9-32-1.7-12.7 1.8-25.3 8.2-35.8 2.1-3.4 4.5-6.6 7.2-9.5 11.2-12 27.7-19 44.3-18.8 13.6.1 26.9 4.5 40.5 4.4 11-.1 21.6-3.1 32.5-4.1 11.4-1 24.4.6 32.5 9.2 7 7.5 7.8 18.3 5.9 27.2-1.9 8.9-6.2 16.8-10.2 25.4-3.8 8.3-6.9 18.1-6.4 28.4z"/><path class="st0" d="M2007.9 569.8c.1 4.4-1.7 6.5-4.1 9.8-2.7 3.6-6.4 6.1-10.2 8.5-5.3 3.4-10.2 5.3-15.1 9-.3.2-.7.5-1 .7-11 8.5-14.5 22.7-21.9 34.2-2.1 3.3-4.6 6.4-7.5 9.1-11.2 10.8-26.6 15.3-42.3 9.3-14.2-5.4-26.2-19.5-28.2-35.1-1.7-13.2 3-26 1.7-39.1-.9-9.2-5.1-17.7-6-26.5-1.1-10.7 2.4-21.1 8-29.7 1.8-2.8 3.9-5.5 6.3-7.9 9.7-9.9 23.6-15.8 37.8-16 11.5-.1 22.8 3.2 34.3 2.9 9.3-.2 18.3-2.8 27.6-3.7 9.7-1 20.8.1 28 7.2 6 6 6.9 14.9 5.6 22.2-1.2 7.4-4.5 14-7.6 21.2-3.2 7.2-5.7 15.4-5.4 23.9z"/><path class="st0" d="M1998.7 564.4c0 3.7-1.6 5.6-3.7 8.3-2.4 3-5.5 5.2-8.8 7.2-4.5 2.9-8.7 4.6-13 7.6l-.9.6c-9.6 7.1-13.3 18.7-20.1 28.2-1.9 2.7-4.2 5.3-6.6 7.6-9.8 9.1-22.9 12.7-36.4 7.1-11.1-4.6-20.7-15.7-22.4-28.1-1.5-10.5 2-20.7 1.1-31.1-.6-7.3-3.7-14.1-4-21-.5-8.7 2.9-16.8 7.8-23.7 1.6-2.2 3.4-4.3 5.4-6.2 8.2-7.8 19.6-12.6 31.2-13.1 9.4-.4 18.7 1.9 28.1 1.4 7.6-.4 15-2.5 22.6-3.4 8.1-1 17.3-.4 23.4 5.2 5 4.6 6 11.5 5.3 17.2-.6 5.8-2.8 11.2-5.1 17-2 5.8-3.9 12.4-3.9 19.2z"/><path class="st0" d="M1989.5 559c-.2 3-1.6 4.6-3.3 6.8-2 2.5-4.6 4.3-7.3 6-3.8 2.3-7.3 3.8-10.9 6.2-.2.2-.5.3-.7.5-8.2 5.7-12.1 14.7-18.2 22.2-1.7 2.1-3.7 4.2-5.8 6-8.5 7.3-19.2 10.2-30.4 4.9-8.1-3.8-15.1-11.9-16.5-21.1-1.2-7.8 1-15.4.5-23.2-.3-5.4-2.2-10.5-2.1-15.5.2-6.7 3.5-12.6 7.7-17.6 1.4-1.6 2.9-3.2 4.5-4.6 6.7-5.8 15.6-9.5 24.6-10.2 7.3-.6 14.6.6 21.9-.1 5.9-.5 11.7-2.1 17.7-3 6.4-.9 13.7-.9 18.9 3.2 3.9 3.1 5 8.1 5.1 12.3 0 4.3-1.1 8.4-2.5 12.8-1.6 4.3-2.9 9.3-3.2 14.4z"/></g><g><path class="st0" d="M502.8 376c-53.7 12.9-107.4-3.7-153.6-26.5-46.2-22.8-89.1-52-139.5-66.6-50.4-14.6-112.4-11.5-155.3 24.5C9.1 345.2-1.8 407.9 4 461.8 9.8 515.7 28.7 567 29.1 621.7 29.6 689.5 1.7 757.9.4 825.9-1.2 909.6 40.3 989 109.2 1034s163.6 54.7 248.3 25.2c58.1-20.2 111-57.3 170.6-70.6 85-19 169.4 13.3 254.9-.3 101.4-16.2 192.8-103.7 209.8-200.9s-41.9-194.8-135.4-223.9c-67.3-21-151.4-11.5-201.3-57.8C630.7 482 621.5 460 600 433c-13.5-16.9-27.3-34.1-46.4-45.2-19-11-27.7-17.4-50.8-11.8z"/><path class="st0" d="M498.1 385.5c22.4-5.4 30.8.8 49.3 11.5 18.5 10.7 31.9 27.5 45 43.9 19.6 24.6 28.7 45 50.2 66.4 1.4 1.4 2.8 2.7 4.2 4.1 48.4 45 129.9 35.9 195.2 56.4 18.7 5.9 36 14.6 51.5 25.5 59.6 42 92.9 117.1 79.7 191.9-16.5 94.2-105 178.9-203.3 194.6-82.9 13.3-164.6-18.1-246.9.3-57.7 12.9-109 48.8-165.2 68.3-62 21.5-129.5 21.3-187.6 1.1-18.8-6.5-36.6-15.2-52.9-25.9C50.4 980.1 10.2 903.1 11.8 822 13 756.1 40 689.8 39.4 624.1c-.4-53-18.7-102.7-24.4-155-5.6-52.3 4.8-113 48.7-149.8 41.5-34.8 101.6-37.9 150.4-23.8 48.8 14 90.4 42.3 135.2 64.3 44.8 22.1 96.7 38.2 148.8 25.7z"/><path class="st0" d="M493.3 395c21.7-5.2 29.9.8 47.8 11.2 17.9 10.4 30.9 26.6 43.6 42.5 19 23.9 27.8 43.7 48.7 64.4 1.3 1.3 2.7 2.6 4.1 4 46.9 43.6 125.8 35 189 55 18.1 5.7 34.9 14.2 49.9 24.8 57.8 40.8 90 113.5 77.1 186.2-16 91.1-101.7 173.1-196.7 188.3-80.2 12.8-159.3-17.4-238.9.4-55.8 12.5-105.4 47.1-159.9 66-60 20.7-125.4 20.5-181.6.9-18.2-6.3-35.4-14.7-51.2-25.1C60.6 971.2 21.7 896.7 23.1 818.1c1.1-63.8 27.1-128 26.6-191.6-.5-51.4-18.2-99.5-23.7-150.1-5.5-50.6 4.6-109.4 47-145.1 40.1-33.7 98.2-36.7 145.4-23.2 47.2 13.5 87.4 40.8 130.8 62.1 43.4 21.3 93.8 36.9 144.1 24.8z"/><path class="st0" d="M488.6 404.6c21-5 28.9.8 46.3 10.9 17.3 10.1 30 25.8 42.2 41.2 18.4 23.1 27 42.3 47.1 62.4 1.3 1.3 2.6 2.6 4 3.8 45.4 42.3 121.7 34.2 182.9 53.6 17.5 5.6 33.8 13.8 48.3 24.1 55.9 39.6 87.2 110 74.5 180.4-15.5 88.1-98.3 167.3-190.2 182-77.5 12.4-154-16.8-231 .4-53.9 12-101.9 45.5-154.5 63.6-58.1 19.9-121.2 19.6-175.5.6-17.6-6.2-34.2-14.3-49.5-24.3-62.4-41-100.1-113.1-98.8-189.1 1.1-61.7 26.1-123.8 25.5-185.3-.5-49.7-17.6-96.2-22.9-145.1-5.3-49 4.4-105.9 45.3-140.5 38.8-32.6 94.8-35.6 140.5-22.5 45.6 13 84.5 39.3 126.4 59.9 42 20.4 90.7 35.5 139.4 23.9z"/><path class="st0" d="M483.8 414.1c20.3-4.8 28 .9 44.7 10.6 16.8 9.8 29 25 40.9 39.9 17.8 22.4 26.1 41 45.6 60.4 1.2 1.2 2.5 2.5 3.9 3.7 43.9 41 117.6 33.3 176.8 52.1 17 5.4 32.6 13.4 46.7 23.4 54.1 38.4 84.1 106.5 71.9 174.6-15.2 85-94.9 161.5-183.6 175.7-74.8 12-148.6-16.1-223 .4-52.1 11.6-98.4 43.9-149.2 61.3-56.1 19.2-117 18.8-169.5.3-17-6-33.1-13.8-47.8-23.5-60.3-39.7-96.6-109.3-95.4-182.7 1-59.6 25.1-119.6 24.5-179-.5-48-17-93-22.2-140.2-5.2-47.4 4.1-102.3 43.7-135.8 37.4-31.5 91.5-34.4 135.5-21.9s81.6 37.8 122.1 57.6c40.4 19.8 87.4 34.3 134.4 23.1z"/><path class="st0" d="M479 423.7c19.6-4.6 27.1.9 43.2 10.3 16.2 9.5 28 24.1 39.5 38.6 17.2 21.6 25.2 39.6 44 58.4 1.2 1.2 2.4 2.4 3.7 3.6C651.8 574.3 723 567 780 585.3c16.4 5.3 31.5 13 45.1 22.6 52.2 37.2 81.2 103 69.3 168.8-14.8 81.9-91.6 155.6-177.1 169.4-72.1 11.6-143.3-15.5-215 .5-50.2 11.1-94.9 42.2-143.8 59-54.1 18.4-112.9 17.9-163.4 0-16.4-5.8-31.9-13.4-46.1-22.8-57.9-38.3-93-105.5-91.9-176.3.9-57.5 24.1-115.4 23.4-172.8C80 587.4 64 544 59 498.4c-5-45.7 3.9-98.8 42-131.1 36-30.4 88.1-33.3 130.6-21.3 42.5 12 78.6 36.3 117.7 55.4 39.1 19 84.4 33 129.7 22.3z"/><path class="st0" d="M474.3 433.2c18.9-4.4 26.2.9 41.7 10 15.6 9.1 27 23.3 38.1 37.3 16.6 20.9 24.3 38.2 42.5 56.4 1.2 1.2 2.3 2.3 3.6 3.5 40.9 38.3 109.5 31.5 164.5 49.3 15.8 5.1 30.4 12.6 43.5 21.9 50.4 35.9 78.3 99.5 66.7 163-14.3 78.9-88.2 149.8-170.5 163.1-69.4 11.2-138-14.8-207 .5-48.3 10.7-91.3 40.6-138.4 56.7-52.1 17.7-108.7 17.1-157.3-.2-15.8-5.6-30.7-12.9-44.4-22-55.9-37-89.7-101.8-88.7-170 .8-55.4 23.1-111.2 22.4-166.5-.5-44.6-15.9-86.4-20.8-130.4-4.9-44.1 3.6-95.3 40.3-126.5 34.6-29.4 84.8-32.1 125.6-20.6 40.9 11.5 75.7 34.8 113.3 53.1 37.6 18.3 81.2 31.6 124.9 21.4z"/><path class="st0" d="M469.5 442.7c18.2-4.2 25.2.9 40.2 9.7 15.1 8.8 26.1 22.5 36.7 35.9 16 20.1 23.5 36.9 40.9 54.4 1.1 1.1 2.3 2.2 3.5 3.4 39.4 37 105.4 30.6 158.4 47.9 15.2 5 29.2 12.2 41.9 21.2 48.5 34.7 75.4 95.9 64.1 157.2-13.9 75.8-84.8 144-164 156.8-66.8 10.8-132.7-14.2-199 .5-46.5 10.3-87.8 39-133.1 54.3-50.1 17-104.5 16.2-151.3-.5-15.1-5.4-29.5-12.5-42.6-21.2-53.8-35.7-86.3-98-85.4-163.7.7-53.3 22-107 21.4-160.2-.5-42.9-15.3-83.2-20.1-125.5-4.7-42.4 3.4-91.7 38.6-121.8 33.2-28.3 81.4-31 120.7-20 39.3 10.9 72.8 33.4 109 50.9 36.2 17.7 78.1 30.5 120.1 20.7z"/><path class="st0" d="M464.7 452.3c17.5-4 24.3.9 38.7 9.4 14.5 8.5 25.1 21.7 35.4 34.6 15.4 19.4 22.6 35.5 39.4 52.4 1.1 1.1 2.2 2.2 3.3 3.2 37.9 35.7 101.3 29.7 152.2 46.5 14.6 4.8 28.1 11.8 40.3 20.5 46.7 33.5 72.4 92.4 61.5 151.5-13.4 72.7-81.5 138.2-157.4 150.5-64.1 10.4-127.3-13.5-191 .5-44.6 9.8-84.3 37.4-127.7 52-48.1 16.2-100.4 15.3-145.2-.8-14.5-5.2-28.3-12-40.9-20.4-51.6-34.4-82.9-94.2-82.1-157.3.6-51.2 21-102.8 20.3-153.9-.6-41.2-14.8-79.9-19.3-120.6-4.6-40.8 3.1-88.2 37-117.1 31.8-27.2 78.1-29.8 115.7-19.3 37.7 10.4 69.9 31.9 104.6 48.7 34.7 16.7 74.9 28.9 115.2 19.6z"/><path class="st0" d="M460 461.8c16.8-3.9 23.4.9 37.2 9 13.9 8.2 24.1 20.8 34 33.3 14.8 18.6 21.7 34.2 37.8 50.4 1 1 2.1 2.1 3.2 3.1 36.4 34.3 97.2 28.8 146.1 45 14 4.6 27 11.4 38.6 19.8 44.8 32.3 69.5 88.9 58.9 145.7-13 69.7-78.1 132.3-150.9 144.2-61.4 10-122-12.9-183 .6-42.7 9.4-80.7 35.8-122.4 49.7-46.2 15.5-96.2 14.5-139.2-1-13.9-5-27.1-11.6-39.2-19.7-49.5-33-79.4-90.4-78.7-150.9.6-49.1 20-98.6 19.3-147.6-.6-39.5-14.2-76.7-18.6-115.7-4.4-39.1 2.9-84.7 35.3-112.5 30.4-26.1 74.7-28.7 110.8-18.7 36.1 9.9 66.9 30.4 100.3 46.4 33.3 16.1 71.8 27.8 110.5 18.9z"/><path class="st0" d="M455.2 471.4c16.1-3.7 22.4.9 35.7 8.7 13.4 7.9 23.1 20 32.6 32 14.1 17.8 20.9 32.8 36.3 48.4 1 1 2 2 3.1 3 34.9 33 93.1 27.9 140 43.6 13.4 4.5 25.9 11 37 19 43 31.1 66.6 85.4 56.4 139.9-12.5 66.6-74.8 126.5-144.3 137.9-58.7 9.6-116.7-12.2-175 .6-40.9 9-77.2 34.1-117 47.4-44.2 14.7-92 13.6-133.1-1.3-13.3-4.8-25.9-11.1-37.5-18.9-47.3-31.7-76-86.7-75.4-144.6.5-47.1 19-94.4 18.2-141.3-.6-37.9-13.7-73.4-17.9-110.8-4.3-37.5 2.7-81.1 33.6-107.8 29.1-25 71.4-27.5 105.8-18.1 34.5 9.4 64 28.9 95.9 44.2 31.7 15.3 68.6 26.5 105.6 18.1z"/><path class="st0" d="M450.4 480.9c15.4-3.5 21.5 1 34.2 8.4 12.8 7.6 22.2 19.2 31.2 30.7 13.5 17.1 20 31.5 34.8 46.4.9 1 1.9 1.9 2.9 2.9 33.4 31.7 89 27 133.8 42.2 12.8 4.3 24.7 10.6 35.4 18.3 41.1 29.9 63.7 81.9 53.8 134.1-12.1 63.5-71.4 120.7-137.8 131.6-56 9.2-111.4-11.6-167 .6-39 8.5-73.7 32.5-111.7 45-42.2 13.9-87.9 12.8-127.1-1.6-12.7-4.6-24.7-10.7-35.8-18.1-45.1-30.3-72.5-82.9-72-138.2.4-45 17.9-90.2 17.2-135-.6-36.2-13.1-70.2-17.2-105.8-4.1-35.9 2.4-77.6 32-103.1 27.7-23.9 68-26.4 100.9-17.4 32.9 8.9 61.1 27.4 91.5 41.9s65.6 25.1 100.9 17.1z"/><path class="st0" d="M445.7 490.4c14.7-3.3 20.6 1 32.7 8.1 12.2 7.2 21.2 18.4 29.9 29.3 12.9 16.3 19.1 30.1 33.2 44.4l2.8 2.8c31.8 30.3 85 26.2 127.7 40.8 12.3 4.2 23.6 10.2 33.8 17.6 39.3 28.6 60.8 78.3 51.2 128.3-11.6 60.5-68 114.9-131.2 125.2-53.3 8.7-106-10.9-159 .7-37.1 8.1-70.1 30.9-106.3 42.7-40.2 13.2-83.7 11.9-121-1.8-12.1-4.5-23.6-10.3-34.1-17.3-43-29-69.1-79.1-68.7-131.9.3-42.9 16.9-86 16.1-128.7-.6-34.5-12.5-66.9-16.5-100.9-4-34.2 2.2-74 30.3-98.4 26.3-22.8 64.7-25.2 96-16.8 31.3 8.4 58.2 25.9 87.2 39.7 28.7 13.7 62.2 23.8 95.9 16.2z"/><path class="st0" d="M440.9 500c14-3.1 19.6 1 31.2 7.8 11.7 6.9 20.2 17.5 28.5 28 12.3 15.6 18.2 28.8 31.7 42.4.9.9 1.7 1.8 2.7 2.6 30.3 29 80.9 25.3 121.6 39.4 11.7 4 22.5 9.8 32.2 16.9 37.4 27.4 57.9 74.8 48.6 122.5-11.4 57.4-64.8 109.1-124.9 119-50.6 8.3-100.7-10.3-151 .7-35.3 7.7-66.6 29.2-101 40.4-38.2 12.4-79.5 11.1-115-2.1-11.5-4.3-22.4-9.8-32.3-16.6-40.8-27.7-65.6-75.3-65.4-125.5.2-40.8 15.9-81.8 15.1-122.5-.6-32.8-12-63.6-15.7-96-3.8-32.6 1.9-70.5 28.6-93.8 24.9-21.7 61.3-24.1 91-16.1 29.7 7.9 55.2 24.4 82.8 37.5 27.5 13 59.3 22.5 91.3 15.4z"/><path class="st0" d="M436.1 509.5c13.3-2.9 18.7 1 29.7 7.5 11.1 6.6 19.2 16.7 27.1 26.7 11.7 14.8 17.4 27.4 30.1 40.4l2.5 2.5c28.8 27.7 76.8 24.4 115.4 37.9 11.1 3.9 21.3 9.4 30.6 16.2 35.6 26.2 54.9 71.3 46 116.7-10.7 54.4-61.3 103.2-118.1 112.6-48 7.9-95.4-9.6-143 .7-33.4 7.2-63.1 27.6-95.6 38.1-36.3 11.7-75.3 10.2-108.9-2.4-10.9-4.1-21.2-9.4-30.6-15.8-38.7-26.3-62.2-71.6-62-119.2.1-38.7 14.9-77.6 14-116.2-.7-31.1-11.4-60.4-15-91.1-3.7-30.9 1.7-66.9 26.9-89.1 23.5-20.7 58-22.9 86.1-15.5 28.1 7.3 52.3 22.9 78.4 35.2 26 12.5 56.2 21.4 86.4 14.8z"/><path class="st0" d="M431.4 519.1c12.6-2.7 17.8 1 28.2 7.2 10.5 6.3 18.3 15.9 25.7 25.4 11.1 14.1 16.5 26 28.6 38.4l2.4 2.4C543.6 618.9 589 616 625.6 629c10.5 3.7 20.2 9 29 15.4 33.7 25 52 67.8 43.4 111-10.3 51.3-57.9 97.4-111.6 106.3-45.3 7.5-90-9-135 .7-31.5 6.8-59.6 26-90.3 35.8-34.3 10.9-71.2 9.4-102.9-2.6-10.3-3.9-20-8.9-28.9-15-36.5-25-58.7-67.8-58.7-112.8 0-36.6 13.8-73.4 13-109.9-.7-29.4-10.9-57.1-14.3-86.2-3.5-29.3 1.5-63.4 25.3-84.4 22.1-19.6 54.6-21.8 81.1-14.9 26.5 6.8 49.4 21.4 74.1 33 24.5 11.4 53 19.8 81.6 13.7z"/><path class="st0" d="M426.6 528.6c12-2.5 16.8 1 26.6 6.9 10 6 17.3 15.1 24.3 24.1 10.5 13.3 15.6 24.7 27 36.4.7.8 1.5 1.5 2.3 2.3 25.8 25 68.6 22.6 103.2 35.1 9.9 3.6 19.1 8.6 27.4 14.7 31.9 23.8 49.1 64.3 40.8 105.2-9.8 48.2-54.6 91.6-105 100-42.6 7.1-84.7-8.3-127.1.8-29.7 6.4-56 24.3-84.9 33.4-32.3 10.2-67 8.5-96.8-2.9-9.7-3.7-18.8-8.5-27.2-14.2-34.3-23.7-55.3-64-55.3-106.5 0-34.5 12.8-69.2 12-103.6-.7-27.8-10.3-53.9-13.6-81.3-3.4-27.7 1.2-59.9 23.6-79.8 20.8-18.5 51.3-20.6 76.2-14.2 25 6.3 46.5 19.9 69.7 30.7 23.1 10.8 49.9 18.6 76.8 12.9z"/><path class="st0" d="M421.9 538.1c11.3-2.3 15.9 1.1 25.1 6.6 9.4 5.6 16.3 14.2 23 22.7 9.9 12.6 14.8 23.3 25.5 34.4l2.1 2.1c24.3 23.7 64.5 21.7 97 33.7 9.3 3.4 18 8.2 25.7 14 30 22.6 46.2 60.7 38.2 99.4-9.3 45.2-51.2 85.8-98.5 93.7-39.9 6.7-79.4-7.7-119.1.8-27.8 5.9-52.5 22.7-79.6 31.1-30.3 9.4-62.8 7.7-90.8-3.2-9-3.5-17.6-8-25.5-13.5-32.2-22.3-51.9-60.2-52-100.1-.1-32.4 11.8-65 10.9-97.3-.7-26.1-9.7-50.6-12.9-76.4-3.2-26 1-56.3 21.9-75.1 19.4-17.4 47.9-19.5 71.2-13.6 23.4 5.8 43.5 18.4 65.3 28.5 22.1 10.2 47.2 17.5 72.5 12.2z"/><path class="st0" d="M417.1 547.7c10.6-2.2 15 1.1 23.6 6.2 8.8 5.3 15.3 13.4 21.6 21.4 9.3 11.8 13.9 22 23.9 32.4.6.7 1.3 1.3 2 2 22.8 22.4 60.4 20.8 90.9 32.2 8.7 3.3 16.8 7.8 24.1 13.3 28.2 21.3 43.3 57.2 35.6 93.6-8.9 42.1-47.8 79.9-91.9 87.4-37.2 6.3-74.1-7-111.1.8-25.9 5.5-49 21.1-74.2 28.8-28.3 8.7-58.7 6.8-84.7-3.4-8.4-3.3-16.4-7.6-23.8-12.7-30-21-48.4-56.4-48.7-93.7-.2-30.3 10.8-60.8 9.9-91-.7-24.4-9.2-47.4-12.2-71.4-3.1-24.4.7-52.8 20.3-70.4 18-16.3 44.6-18.3 66.3-13 21.8 5.3 40.6 17 61 26.2 20.3 9.4 43.8 16.1 67.4 11.3z"/><path class="st0" d="M412.3 557.2c9.9-2 14 1.1 22.1 5.9 8.3 5 14.4 12.6 20.2 20.1 8.7 11.1 13 20.6 22.4 30.4.6.6 1.2 1.3 1.9 1.9 21.3 21 56.3 19.9 84.8 30.8 8.1 3.1 15.7 7.4 22.5 12.6 26.4 20.1 40.4 53.7 33 87.8-8.4 39-44.5 74.1-85.4 81.1-34.5 5.9-68.7-6.4-103.1.9-24.1 5.1-45.5 19.4-68.9 26.5-26.4 7.9-54.5 6-78.7-3.7-7.8-3.1-15.2-7.1-22-11.9-27.9-19.7-45-52.7-45.3-87.4-.3-28.2 9.8-56.6 8.8-84.7-.7-22.7-8.6-44.1-11.4-66.5-2.9-22.7.5-49.2 18.6-65.8 16.6-15.2 41.2-17.1 61.3-12.3 20.2 4.8 37.7 15.5 56.6 24s40.7 14.7 62.6 10.3z"/><path class="st0" d="M407.6 566.8c9.2-1.8 13.1 1.1 20.6 5.6 7.7 4.7 13.4 11.8 18.8 18.8 8.1 10.3 12.1 19.3 20.8 28.4.6.6 1.1 1.2 1.7 1.8 19.8 19.7 52.3 19 78.6 29.4 7.6 3 14.6 7 20.9 11.8 24.5 18.9 37.5 50.2 30.4 82-7.9 36-41.1 68.3-78.8 74.8-31.8 5.5-63.4-5.7-95.1.9-22.2 4.6-41.9 17.8-63.5 24.1-24.4 7.2-50.3 5.1-72.6-4-7.2-2.9-14-6.7-20.3-11.1-25.7-18.3-41.5-48.9-42-81-.4-26.1 8.7-52.4 7.8-78.4-.8-21-8.1-40.9-10.7-61.6-2.8-21.1.3-45.7 16.9-61.1 15.2-14.1 37.8-16 56.4-11.7 18.6 4.3 34.8 14 52.2 21.8 17.5 7.8 37.6 13.4 57.9 9.5z"/><path class="st0" d="M402.8 576.3c8.5-1.6 12.2 1.1 19.1 5.3 7.1 4.4 12.4 10.9 17.5 17.5 7.5 9.6 11.3 17.9 19.3 26.4.5.6 1.1 1.1 1.6 1.7 18.3 18.4 48.2 18.2 72.5 28 7 2.8 13.4 6.6 19.3 11.1 22.7 17.7 34.6 46.6 27.8 76.3-7.5 32.9-37.7 62.5-72.3 68.5-29.2 5.1-58.1-5.1-87.1.9-20.3 4.2-38.4 16.2-58.1 21.8-22.4 6.4-46.2 4.3-66.6-4.3-6.6-2.8-12.9-6.2-18.6-10.4-23.5-17-38.1-45.1-38.6-74.7-.5-24 7.7-48.2 6.7-72.2-.8-19.3-7.5-37.6-10-56.7-2.6-19.5 0-42.1 15.2-56.4 13.8-13 34.5-14.8 51.4-11 17 3.8 31.8 12.5 47.9 19.5 16 7.1 34.4 12.2 53 8.7z"/><path class="st0" d="M398 585.9c7.8-1.4 11.3 1.1 17.6 5 6.6 4 11.4 10.1 16.1 16.1 6.9 8.8 10.4 16.5 17.7 24.4l1.5 1.5c16.8 17 44.1 17.3 66.4 26.6 6.4 2.7 12.3 6.2 17.7 10.4 20.8 16.5 31.6 43.1 25.2 70.5-7 29.8-34.4 56.7-65.7 62.2-26.5 4.7-52.8-4.4-79.1.9-18.5 3.8-34.9 14.5-52.8 19.5-20.4 5.7-42 3.4-60.5-4.5-6-2.6-11.7-5.8-16.9-9.6-21.4-15.7-34.6-41.3-35.3-68.3-.5-21.9 6.7-44 5.7-65.9-.8-17.7-6.9-34.3-9.3-51.8-2.4-17.8-.2-38.6 13.6-51.7 12.5-11.9 31.1-13.7 46.5-10.4 15.4 3.3 28.9 11 43.5 17.3 14.5 6.2 31.3 10.8 48.1 7.8z"/><path class="st0" d="M393.3 595.4c7.1-1.2 10.3 1.1 16.1 4.7 6 3.7 10.5 9.3 14.7 14.8 6.2 8.1 9.5 15.2 16.2 22.4.4.5.9.9 1.3 1.4 15.3 15.7 40 16.4 60.2 25.1 5.8 2.5 11.2 5.8 16.1 9.7 19 15.3 28.7 39.6 22.6 64.7-6.5 26.8-31 50.8-59.2 55.9-23.8 4.2-47.4-3.8-71.1 1-16.6 3.3-31.4 12.9-47.4 17.2-18.5 4.9-37.8 2.6-54.4-4.8-5.4-2.4-10.5-5.3-15.2-8.8-19.2-14.3-31.2-37.6-32-62-.6-19.8 5.7-39.8 4.6-59.6-.8-16-6.3-31.1-8.6-46.9-2.3-16.2-.5-35 11.9-47.1 11.1-10.8 27.8-12.5 41.5-9.8 13.8 2.8 26 9.5 39.2 15 13.2 5.6 28.3 9.7 43.5 7.1z"/><path class="st0" d="M388.5 604.9c6.4-1 9.4 1.1 14.6 4.4 5.4 3.4 9.5 8.4 13.3 13.5 5.6 7.3 8.7 13.8 14.7 20.4.4.4.8.9 1.2 1.3 13.8 14.4 35.9 15.5 54.1 23.7 5.2 2.4 10.1 5.4 14.5 9 17.1 14 25.8 36.1 20.1 58.9-6 23.7-27.6 45-52.6 49.6-21.1 3.8-42.1-3.1-63.1 1-14.7 2.9-27.8 11.2-42.1 14.8-16.5 4.2-33.7 1.7-48.4-5.1-4.8-2.2-9.3-4.9-13.5-8.1-17.1-13-27.8-33.8-28.6-55.6-.7-17.7 4.6-35.6 3.6-53.3-.8-14.3-5.8-27.8-7.8-42-2.1-14.6-.7-31.5 10.2-42.4 9.7-9.7 24.4-11.4 36.6-9.1 12.2 2.3 23.1 8 34.8 12.8 11.5 4.9 24.9 8.4 38.4 6.2z"/><path class="st0" d="M383.7 614.5c5.7-.8 8.5 1.2 13.1 4.1 4.9 3.1 8.5 7.6 12 12.2 5 6.6 7.8 12.5 13.1 18.4.3.4.7.8 1.1 1.2 12.2 13 31.8 14.6 48 22.3 4.6 2.2 8.9 5 12.9 8.3 15.3 12.8 22.9 32.5 17.5 53.1-5.5 20.6-24.3 39.2-46.1 43.2-18.4 3.4-36.8-2.5-55.1 1-12.9 2.5-24.3 9.6-36.7 12.5-14.5 3.4-29.5.9-42.3-5.3-4.2-2-8.1-4.4-11.7-7.3-14.9-11.7-24.3-30-25.3-49.2-.8-15.6 3.6-31.4 2.6-47-.8-12.6-5.2-24.6-7.1-37-2-12.9-.9-27.9 8.6-37.7 8.3-8.6 21.1-10.2 31.7-8.5 10.6 1.7 20.1 6.5 30.4 10.6 9.8 3.8 21.5 6.8 33.3 5.1z"/><path class="st0" d="M379 624c5-.6 7.5 1.2 11.6 3.8 4.3 2.8 7.5 6.8 10.6 10.9 4.4 5.8 6.9 11.1 11.6 16.4.3.4.6.7.9 1.1 10.7 11.7 27.7 13.7 41.8 20.9 4 2 7.8 4.6 11.2 7.5 13.4 11.6 20.1 29 14.9 47.3-5 17.6-20.9 33.4-39.5 36.9-15.7 3-31.4-1.8-47.1 1.1-11 2-20.8 8-31.4 10.2-12.5 2.6-25.3 0-36.3-5.6-3.5-1.8-6.9-4-10-6.5-12.7-10.3-20.9-26.2-22-42.9-.9-13.5 2.6-27.2 1.5-40.7-.9-10.9-4.6-21.3-6.4-32.1-1.8-11.3-1.2-24.4 6.9-33.1 6.9-7.5 17.7-9.1 26.7-7.8 9 1.2 17.2 5 26.1 8.3 8.7 3.2 18.7 5.6 28.9 4.3z"/><path class="st0" d="M374.2 633.6c4.3-.4 6.6 1.2 10 3.4 3.7 2.4 6.6 6 9.2 9.5 3.8 5.1 6.1 9.8 10 14.4.3.3.5.6.8.9 9.2 10.4 23.7 12.8 35.7 19.4 3.4 1.9 6.7 4.2 9.6 6.8 11.6 10.4 17.2 25.5 12.3 41.6-4.4 14.5-17.5 27.6-33 30.6-13.1 2.6-26.1-1.2-39.1 1.1-9.1 1.6-17.3 6.3-26 7.9-10.6 1.9-21.2-.8-30.2-5.9-2.9-1.6-5.7-3.5-8.3-5.7-10.6-9-17.4-22.5-18.6-36.5-1-11.4 1.6-23 .5-34.4-.9-9.2-4.1-18.1-5.7-27.2-1.7-9.6-1.4-20.8 5.2-28.4 5.6-6.4 14.4-7.9 21.8-7.2 7.4.7 14.3 3.5 21.7 6.1 7.3 2.5 15.6 4.4 24.1 3.6z"/><path class="st0" d="M369.5 643.1c3.6-.2 5.7 1.2 8.5 3.1 3.2 2.1 5.6 5.1 7.8 8.2 3.2 4.3 5.2 8.4 8.5 12.4.2.3.4.5.7.8 7.7 9.1 19.6 11.9 29.6 18 2.9 1.7 5.6 3.8 8 6.1 9.7 9.2 14.3 21.9 9.7 35.8-3.8 11.4-14.2 21.7-26.4 24.3-10.4 2.2-20.8-.5-31.1 1.1-7.3 1.2-13.8 4.7-20.7 5.5-8.6 1.1-17-1.7-24.2-6.1-2.3-1.4-4.5-3.1-6.6-5-8.4-7.6-14-18.7-15.3-30.2-1-9.3.5-18.8-.6-28.2-.9-7.6-3.5-14.8-5-22.3-1.5-8-1.6-17.2 3.5-23.7 4.2-5.3 11-6.8 16.8-6.6 5.9.2 11.4 2 17.3 3.8 5.9 2.1 12.7 3.4 19.5 3z"/><path class="st0" d="M364.7 652.6c3 0 4.7 1.2 7 2.8 2.6 1.8 4.6 4.3 6.5 6.9 2.6 3.6 4.3 7 6.9 10.4.2.2.4.5.5.7 6.2 7.7 15.5 11 23.4 16.6 2.3 1.6 4.4 3.4 6.4 5.4 7.9 7.9 11.5 18.4 7.1 30-3.2 8.4-10.8 15.9-19.9 18-7.7 1.8-15.5.1-23.2 1.1-5.4.7-10.3 3-15.3 3.2-6.7.3-12.8-2.6-18.1-6.4-1.7-1.3-3.4-2.6-4.9-4.2-6.3-6.3-10.5-14.9-11.9-23.8-1.1-7.3-.5-14.6-1.6-21.9-.9-5.9-3-11.6-4.3-17.4-1.4-6.4-1.9-13.6 1.9-19.1 2.8-4.1 7.7-5.6 11.9-5.9 4.3-.3 8.4.5 13 1.6 4.4 1.2 9.5 2.1 14.6 2z"/></g></svg>