<?xml version="1.0" encoding="utf-8"?>
<!-- Generator: Adobe Illustrator 24.1.2, SVG Export Plug-In . SVG Version: 6.00 Build 0)  -->
<svg version="1.1" id="Layer_1" xmlns="http://www.w3.org/2000/svg" xmlns:xlink="http://www.w3.org/1999/xlink" x="0px" y="0px"
	 viewBox="0 0 1000 800" style="enable-background:new 0 0 1000 800;" xml:space="preserve">
<style type="text/css">
	.st0{fill:none;stroke:#FFFFFF;stroke-width:0.75;stroke-miterlimit:10;}
</style>
<g>
	<path class="st0" d="M501.7,706.7c53.4-14.3,107.4,1.1,154.2,22.8c46.8,21.7,90.4,49.8,141.1,63.1c50.7,13.3,112.7,8.7,154.7-28.3
		c44.3-39,53.7-101.9,46.5-155.7c-7.1-53.8-27.2-104.5-29-159.2c-2.2-67.8,24-136.8,23.6-204.8C992.5,160.8,949,82.5,879,39.1
		C809-4.2,714.1-11.5,630.2,20c-57.6,21.6-109.6,60-168.8,74.8c-84.5,21.1-169.7-9.2-254.8,6.6c-101,18.7-190.2,108.4-204.8,206
		C-12.9,405.1,48.4,501.1,142.6,528c67.8,19.4,151.6,7.8,202.7,52.9c26,22.9,35.7,44.8,57.9,71.2c13.9,16.6,28.2,33.4,47.5,44
		C470,706.7,478.8,712.8,501.7,706.7z"/>
	<path class="st0" d="M506.2,697c-22.2,5.9-30.8,0-49.5-10.3C438,676.4,424.1,660,410.6,644c-20.2-24.1-29.8-44.3-51.8-65.1
		c-1.4-1.3-2.8-2.6-4.3-4c-49.5-43.8-130.7-32.7-196.5-51.6c-18.9-5.4-36.4-13.7-52.1-24.2C45.2,458.5,10,384.3,21.4,309.1
		C35.6,214.5,122,127.7,219.9,109.5c82.5-15.3,165,14,246.9-6.4c57.3-14.3,107.7-51.5,163.5-72.3c61.5-23,129-24.5,187.5-5.7
		c19,6.1,37,14.3,53.6,24.5c67.8,42,109.9,118,110.4,199.1c0.4,65.9-24.9,132.8-22.7,198.5c1.7,53,21.2,102.2,28.2,154.3
		c6.9,52.1-2,113.1-45,151c-40.7,35.8-100.6,40.4-149.7,27.5c-49.1-12.8-91.4-40.1-136.7-61C610.3,698.1,558,683.2,506.2,697z"/>
	<path class="st0" d="M510.8,687.4c-21.6,5.7-29.9-0.1-48-10c-18.2-10-31.6-25.9-44.6-41.4c-19.6-23.4-28.9-43-50.2-63.2
		c-1.4-1.3-2.8-2.6-4.2-3.9c-48-42.5-126.6-31.9-190.3-50.3c-18.3-5.3-35.2-13.3-50.5-23.6C64,455.6,30,383.7,41.1,310.8
		c13.8-91.5,97.4-175.6,192-193.1c79.8-14.8,159.7,13.5,238.9-6.3c55.5-13.8,104.2-49.7,158.2-69.9C689.7,19.3,755,18,811.7,36.2
		c18.3,5.9,35.8,13.8,51.8,23.8c65.6,40.8,106.4,114.3,106.9,192.9c0.4,63.8-24,128.6-21.9,192.2c1.7,51.3,20.6,99,27.3,149.4
		c6.7,50.5-1.9,109.5-43.4,146.3c-39.3,34.7-97.3,39.1-144.8,26.8c-47.5-12.4-88.4-38.6-132.3-58.9
		C611.5,688.4,560.8,674.1,510.8,687.4z"/>
	<path class="st0" d="M515.3,677.7c-20.9,5.5-29-0.1-46.5-9.8c-17.6-9.7-30.6-25.1-43.2-40.2c-19-22.6-28-41.6-48.6-61.2
		c-1.3-1.2-2.7-2.5-4.1-3.7c-46.4-41.2-122.5-31.1-184.2-49.1c-17.7-5.1-34.1-12.9-48.9-22.9C82.9,452.7,49.9,383,60.9,312.4
		C74.2,224,155,142.8,246.5,125.8c77.2-14.3,154.3,13,230.9-6.1c53.6-13.3,100.8-48,152.9-67.4c57.6-21.3,120.7-22.6,175.4-4.9
		c17.7,5.7,34.6,13.4,50.1,23.1C919.2,109.9,958.6,181,959.2,257c0.5,61.7-23.1,124.4-21,185.9c1.7,49.6,20,95.7,26.5,144.5
		c6.6,48.8-1.8,106-41.9,141.6c-38,33.6-93.9,37.9-139.9,26c-45.9-11.9-85.4-37.2-127.9-56.7C612.7,678.8,563.7,664.9,515.3,677.7z"
		/>
	<path class="st0" d="M519.8,668.1c-20.2,5.3-28-0.2-45-9.5c-17-9.4-29.6-24.3-41.8-38.9c-18.3-21.9-27.1-40.3-47-59.3
		c-1.3-1.2-2.6-2.4-3.9-3.6c-44.9-39.9-118.4-30.4-178-47.8c-17.1-5-33-12.6-47.3-22.2c-55-37-86.7-104.4-76.2-172.8
		c13.1-85.3,90.9-163.7,179.3-180.2c74.5-13.9,149,12.4,222.9-5.9c51.8-12.9,97.3-46.3,147.6-65c55.6-20.5,116.5-21.6,169.4-4.5
		c17.1,5.5,33.4,13,48.4,22.4c61.2,38.2,99.3,106.9,99.9,180.3c0.5,59.6-22.1,120.1-20.1,179.6c1.7,47.9,19.3,92.5,25.7,139.6
		c6.4,47.2-1.6,102.4-40.3,136.8c-36.6,32.4-90.6,36.7-134.9,25.2c-44.3-11.4-82.5-35.8-123.5-54.6
		C613.9,669.1,566.6,655.7,519.8,668.1z"/>
	<path class="st0" d="M524.4,658.4c-19.5,5.1-27.1-0.2-43.5-9.2c-16.4-9.1-28.6-23.5-40.4-37.6c-17.7-21.2-26.2-39-45.5-57.3
		c-1.2-1.2-2.5-2.3-3.8-3.5c-43.4-38.6-114.3-29.6-171.8-46.5c-16.5-4.9-31.8-12.2-45.6-21.5c-53.1-35.9-83.7-100.9-73.5-167
		C113,233.4,188,157.9,273.1,142c71.8-13.4,143.7,11.9,214.9-5.8c49.9-12.4,93.8-44.5,142.3-62.5C684,54,742.7,53,793.7,69.7
		c16.5,5.4,32.2,12.6,46.6,21.6c59,36.9,95.8,103.2,96.4,174c0.5,57.5-21.2,115.9-19.2,173.3c1.6,46.3,18.7,89.3,24.8,134.7
		c6.2,45.6-1.5,98.8-38.8,132.1c-35.3,31.3-87.3,35.4-130,24.5c-42.7-10.9-79.5-34.4-119-52.5C615,659.4,569.4,646.5,524.4,658.4z"
		/>
	<path class="st0" d="M528.9,648.7c-18.8,4.9-26.2-0.2-42-8.9c-15.9-8.8-27.6-22.6-39-36.3c-17.1-20.4-25.3-37.6-43.9-55.3
		c-1.2-1.1-2.4-2.3-3.7-3.4c-41.8-37.3-110.2-28.8-165.7-45.2c-15.9-4.7-30.7-11.8-44-20.8C139.5,444,110,381.2,120,317.4
		c12.4-79.2,84.5-151.9,166.5-167.2c69.1-12.9,138.3,11.4,206.9-5.6c48.1-11.9,90.3-42.9,137-60.1c51.6-19,108.2-19.7,157.3-3.7
		c15.9,5.2,31,12.2,44.9,20.9c56.8,35.6,92.2,99.5,92.9,167.8c0.6,55.4-20.3,111.7-18.3,167c1.6,44.6,18,86,24,129.9
		c6,43.9-1.3,95.4-37.2,127.4c-33.9,30.2-84,34.2-125.1,23.7c-41.1-10.5-76.6-33-114.6-50.3C616.2,649.7,572.3,637.4,528.9,648.7z"
		/>
	<path class="st0" d="M533.4,639.1c-18.1,4.7-25.2-0.3-40.4-8.7c-15.3-8.5-26.6-21.8-37.6-35c-16.5-19.7-24.4-36.3-42.3-53.4
		c-1.1-1.1-2.3-2.2-3.5-3.3c-40.3-36-106.1-28-159.5-44c-15.3-4.6-29.5-11.5-42.4-20.2c-49.4-33.5-77.7-94.1-68-155.6
		c12-76.1,81.3-146,160.1-160.8c66.5-12.4,133,10.9,198.9-5.4c46.2-11.4,86.8-41.2,131.7-57.6C680.1,77,734.5,76.4,781.7,92
		c15.3,5,29.8,11.8,43.2,20.2c54.6,34.4,88.7,95.8,89.4,161.5c0.6,53.3-19.4,107.5-17.4,160.7c1.6,42.9,17.4,82.8,23.1,125
		c5.8,42.3-1.1,91.8-35.6,122.7c-32.5,29.1-80.7,33-120.2,22.9c-39.5-10-73.6-31.5-110.2-48.2C617.4,640.1,575.2,628.3,533.4,639.1z
		"/>
	<path class="st0" d="M537.9,629.4c-17.4,4.5-24.3-0.3-38.9-8.4c-14.7-8.1-25.6-21-36.2-33.7c-15.8-19-23.5-35-40.7-51.4
		c-1.1-1-2.2-2.1-3.4-3.2C380,498,316.7,505.5,265.4,490c-14.7-4.4-28.4-11.1-40.7-19.5c-47.5-32.3-74.7-90.6-65.2-149.9
		c11.6-73,78.1-140.1,153.7-154.3c63.8-12,127.6,10.4,190.9-5.2c44.3-10.9,83.3-39.4,126.4-55.2c47.7-17.4,99.9-17.8,145.2-2.8
		c14.7,4.9,28.6,11.3,41.4,19.4c52.5,33.1,85.1,92.1,85.9,155.2c0.6,51.2-18.5,103.2-16.5,154.3c1.6,41.2,16.8,79.5,22.3,120.1
		c5.6,40.7-1,88.3-34.1,118c-31.1,28-77.3,31.7-115.2,22.2c-37.9-9.5-70.6-30.1-105.8-46.1C618.6,630.4,578,619.1,537.9,629.4z"/>
	<path class="st0" d="M542.5,619.8c-16.7,4.3-23.4-0.4-37.4-8.1c-14.1-7.8-24.6-20.2-34.8-32.4c-15.2-18.2-22.6-33.6-39.1-49.5
		c-1.1-1-2.1-2-3.3-3c-37.2-33.4-97.9-26.4-147.2-41.4c-14.1-4.3-27.3-10.7-39.1-18.8c-45.6-31.2-71.7-87.2-62.5-144.2
		c11.3-70,74.8-134.2,147.3-147.8c61.1-11.5,122.3,9.9,182.9-5.1c42.5-10.5,79.8-37.7,121.1-52.7c45.8-16.6,95.8-16.9,139.2-2.4
		c14,4.7,27.4,10.9,39.7,18.7c50.3,31.8,81.6,88.5,82.4,149c0.7,49.1-17.5,99-15.6,148c1.5,39.5,16.1,76.3,21.5,115.2
		c5.4,39-0.8,84.7-32.5,113.3c-29.8,26.9-74,30.5-110.3,21.4c-36.3-9-67.7-28.7-101.4-43.9C619.7,620.7,580.9,610,542.5,619.8z"/>
	<path class="st0" d="M547,610.1c-16,4.1-22.4-0.4-35.9-7.9c-13.6-7.5-23.6-19.4-33.4-31.2c-14.6-17.5-21.7-32.3-37.5-47.5
		c-1-1-2-1.9-3.1-2.9c-35.7-32.1-93.8-25.6-141-40.2c-13.5-4.2-26.1-10.3-37.5-18.1c-43.7-30-68.7-83.7-59.8-138.5
		c10.9-66.9,71.6-128.3,140.9-141.4c58.4-11,116.9,9.3,174.9-4.9c40.6-10,76.3-36,115.8-50.2c43.8-15.8,91.7-15.9,133.1-2
		c13.4,4.5,26.2,10.5,37.9,18c48.1,30.5,78.1,84.8,78.9,142.7c0.7,47-16.6,94.8-14.7,141.7c1.5,37.8,15.5,73.1,20.6,110.3
		c5.2,37.4-0.7,81.2-31,108.6C827,672.4,784.7,676,750,667.4c-34.7-8.6-64.7-27.3-96.9-41.8C620.9,611,583.8,600.8,547,610.1z"/>
	<path class="st0" d="M551.5,600.5c-15.3,3.9-21.5-0.4-34.4-7.6c-13-7.2-22.6-18.6-32-29.9c-14-16.8-20.8-31-35.9-45.5
		c-1-0.9-2-1.9-3-2.8c-34.1-30.8-89.7-24.8-134.8-38.9c-12.9-4-25-10-35.9-17.4c-41.9-28.8-65.7-80.3-57-132.7
		c10.5-63.8,68.4-122.4,134.5-134.9c55.8-10.5,111.6,8.8,166.9-4.7c38.8-9.5,72.8-34.3,110.5-47.8c41.8-15,87.5-15,127.1-1.6
		c12.8,4.3,25,10.1,36.2,17.2c45.9,29.2,74.5,81.1,75.4,136.4c0.7,45-15.7,90.6-13.9,135.4c1.5,36.2,14.8,69.8,19.8,105.4
		c5,35.8-0.5,77.6-29.4,103.9c-27.1,24.6-67.4,28-100.4,19.9c-33.1-8.1-61.7-25.9-92.5-39.7C622.1,601.4,586.6,591.6,551.5,600.5z"
		/>
	<path class="st0" d="M556.1,590.8c-14.6,3.7-20.6-0.5-32.9-7.3c-12.4-6.9-21.6-17.8-30.6-28.6c-13.3-16-19.9-29.6-34.3-43.6
		c-0.9-0.9-1.9-1.8-2.9-2.7c-32.6-29.6-85.6-24.1-128.7-37.6c-12.4-3.9-23.8-9.6-34.2-16.8c-40-27.7-62.7-76.8-54.3-127
		c10.1-60.8,65.2-116.5,128.1-128.4c53.1-10.1,106.3,8.3,159-4.6c36.9-9,69.4-32.6,105.2-45.3c39.9-14.2,83.4-14,121-1.1
		c12.2,4.2,23.8,9.7,34.5,16.5c43.7,27.9,71,77.4,71.9,130.1c0.8,42.9-14.8,86.4-13,129.1c1.5,34.5,14.2,66.6,18.9,100.5
		c4.8,34.1-0.4,74.1-27.9,99.2c-25.7,23.5-64,26.8-95.5,19.1c-31.5-7.6-58.8-24.5-88.1-37.5C623.3,591.7,589.5,582.5,556.1,590.8z"
		/>
	<path class="st0" d="M560.6,581.2c-14,3.4-19.7-0.5-31.4-7c-11.8-6.6-20.6-17-29.2-27.3c-12.7-15.3-18.9-28.3-32.7-41.6
		c-0.9-0.9-1.8-1.7-2.7-2.6c-31-28.3-81.5-23.3-122.5-36.3c-11.8-3.7-22.7-9.2-32.6-16.1c-38.1-26.5-59.7-73.4-51.6-121.3
		c9.8-57.7,61.9-110.6,121.7-122c50.4-9.6,100.9,7.8,151-4.4c35.1-8.5,65.9-30.9,99.9-42.9c37.9-13.4,79.2-13,115-0.7
		c11.6,4,22.6,9.3,32.7,15.8c41.5,26.7,67.5,73.7,68.4,123.9c0.8,40.8-13.9,82.1-12.1,122.8c1.4,32.8,13.5,63.3,18.1,95.6
		c4.6,32.5-0.2,70.5-26.3,94.5c-24.4,22.4-60.7,25.6-90.6,18.4c-29.9-7.1-55.8-23-83.7-35.4C624.4,582,592.4,573.3,560.6,581.2z"/>
	<path class="st0" d="M565.1,571.5c-13.3,3.2-18.7-0.5-29.8-6.8c-11.3-6.3-19.6-16.2-27.8-26c-12.1-14.6-18-27-31.1-39.7
		c-0.8-0.8-1.7-1.6-2.6-2.4c-29.5-27-77.4-22.5-116.3-35.1c-11.2-3.6-21.6-8.8-31-15.4c-36.2-25.3-56.7-69.9-48.8-115.6
		c9.4-54.6,58.7-104.7,115.3-115.5c47.7-9.1,95.6,7.3,143-4.2c33.2-8.1,62.4-29.1,94.7-40.4c36-12.6,75.1-12.1,108.9-0.3
		c11,3.8,21.4,8.8,31,15c39.3,25.4,63.9,70,64.9,117.6c0.8,38.7-13,77.9-11.2,116.5c1.4,31.1,12.9,60.1,17.3,90.7
		c4.5,30.8-0.1,67-24.7,89.7c-23,21.2-57.4,24.3-85.7,17.6c-28.3-6.6-52.9-21.6-79.3-33.3C625.6,572.3,595.2,564.1,565.1,571.5z"/>
	<path class="st0" d="M569.6,561.9c-12.6,3-17.8-0.6-28.3-6.5c-10.7-6-18.6-15.4-26.3-24.7c-11.4-13.8-17.1-25.6-29.5-37.7
		c-0.8-0.8-1.6-1.6-2.5-2.3c-28-25.7-73.3-21.7-110.2-33.8c-10.6-3.5-20.4-8.5-29.3-14.7c-34.3-24.2-53.7-66.5-46.1-109.9
		c9-51.5,55.5-98.8,108.9-109c45.1-8.6,90.2,6.8,135-4.1c31.4-7.6,58.9-27.4,89.4-38c34-11.8,70.9-11.1,102.9,0.1
		c10.4,3.6,20.2,8.4,29.3,14.3c37.1,24.1,60.4,66.3,61.4,111.3c0.9,36.6-12,73.7-10.3,110.2c1.4,29.4,12.3,56.8,16.4,85.8
		c4.3,29.2,0.1,63.4-23.2,85c-21.7,20.1-54.1,23.1-80.7,16.9c-26.7-6.2-49.9-20.2-74.9-31.1C626.8,562.7,598.1,555,569.6,561.9z"/>
	<path class="st0" d="M574.2,552.2c-11.9,2.8-16.9-0.6-26.8-6.2c-10.1-5.7-17.7-14.6-24.9-23.4c-10.8-13.1-16.2-24.3-27.9-35.7
		c-0.7-0.7-1.5-1.5-2.3-2.2c-26.4-24.4-69.1-20.9-104-32.5c-10-3.3-19.3-8.1-27.7-14c-32.5-23-50.7-63-43.4-104.1
		c8.6-48.5,52.3-92.9,102.5-102.6c42.4-8.2,84.9,6.2,127-3.9c29.5-7.1,55.4-25.7,84.1-35.5c32-11,66.8-10.2,96.9,0.5
		c9.7,3.5,19,8,27.5,13.6c34.9,22.8,56.9,62.6,58,105.1c0.9,34.5-11.1,69.5-9.4,103.9c1.4,27.7,11.6,53.6,15.6,80.9
		c4.1,27.6,0.2,59.9-21.6,80.3c-20.3,19-50.8,21.9-75.8,16.1c-25.1-5.7-46.9-18.8-70.4-29C627.9,553,601,545.8,574.2,552.2z"/>
	<path class="st0" d="M578.7,542.5c-11.2,2.6-15.9-0.7-25.3-5.9c-9.5-5.4-16.7-13.8-23.5-22.2c-10.2-12.3-15.3-23-26.3-33.8
		c-0.7-0.7-1.4-1.4-2.2-2.1c-24.9-23.1-65-20.1-97.8-31.3c-9.4-3.2-18.2-7.7-26.1-13.4c-30.6-21.8-47.7-59.6-40.6-98.4
		c8.2-45.4,49.1-87,96.1-96.1c39.7-7.7,79.6,5.7,119-3.7c27.6-6.6,51.9-24,78.8-33.1c30.1-10.2,62.6-9.2,90.8,0.9
		c9.1,3.3,17.8,7.6,25.8,12.8c32.7,21.5,53.3,58.9,54.5,98.8c0.9,32.4-10.2,65.2-8.5,97.5c1.4,26.1,11,50.4,14.7,76
		c3.9,25.9,0.4,56.3-20.1,75.6c-18.9,17.9-47.4,20.6-70.9,15.3c-23.5-5.2-44-17.4-66-26.9C629.1,543.3,603.8,536.7,578.7,542.5z"/>
	<path class="st0" d="M583.2,532.9c-10.5,2.4-15-0.7-23.8-5.7c-9-5.1-15.7-13-22.1-20.9c-9.6-11.6-14.4-21.6-24.7-31.8
		c-0.7-0.7-1.3-1.3-2.1-2c-23.3-21.8-60.9-19.3-91.7-30c-8.8-3.1-17-7.4-24.5-12.7c-28.7-20.6-44.7-56.1-37.9-92.7
		c7.8-42.3,45.8-81.1,89.8-89.6c37.1-7.2,74.2,5.2,111-3.6c25.8-6.1,48.4-22.3,73.5-30.6c28.1-9.4,58.5-8.3,84.8,1.4
		c8.5,3.1,16.6,7.2,24.1,12.1c30.5,20.3,49.8,55.2,51,92.5c1,30.3-9.3,61-7.6,91.2c1.3,24.4,10.3,47.1,13.9,71.1
		c3.7,24.3,0.6,52.8-18.5,70.9c-17.6,16.7-44.1,19.4-65.9,14.6c-21.9-4.8-41-15.9-61.6-24.7C630.3,533.7,606.7,527.5,583.2,532.9z"
		/>
	<path class="st0" d="M587.7,523.2c-9.8,2.2-14.1-0.7-22.3-5.4c-8.4-4.8-14.7-12.2-20.7-19.6c-8.9-10.9-13.5-20.3-23.1-29.9
		c-0.6-0.6-1.3-1.2-1.9-1.9c-21.8-20.5-56.8-18.5-85.5-28.7c-8.2-2.9-15.9-7-22.8-12c-26.8-19.5-41.7-52.7-35.2-87
		c7.5-39.2,42.6-75.2,83.4-83.2c34.4-6.7,68.9,4.7,103-3.4c23.9-5.7,45-20.5,68.2-28.1c26.2-8.6,54.3-7.3,78.7,1.8
		c7.9,2.9,15.4,6.7,22.3,11.4c28.3,19,46.3,51.5,47.5,86.2c1,28.2-8.4,56.8-6.7,84.9c1.3,22.7,9.7,43.9,13.1,66.2
		c3.5,22.7,0.7,49.2-17,66.2c-16.2,15.6-40.8,18.1-61,13.8c-20.3-4.3-38.1-14.5-57.2-22.6C631.5,524,609.5,518.3,587.7,523.2z"/>
	<path class="st0" d="M592.3,513.6c-9.1,2-13.1-0.8-20.7-5.1c-7.8-4.5-13.7-11.4-19.3-18.3c-8.3-10.1-12.6-19-21.5-27.9
		c-0.6-0.6-1.2-1.2-1.8-1.7c-20.3-19.2-52.7-17.8-79.3-27.5c-7.6-2.8-14.7-6.6-21.2-11.3c-25-18.3-38.7-49.2-32.4-81.3
		c7.1-36.2,39.4-69.3,77-76.7c31.7-6.3,63.5,4.2,95-3.2c22.1-5.2,41.5-18.8,62.9-25.7c24.2-7.8,50.2-6.4,72.7,2.2
		c7.3,2.8,14.2,6.3,20.6,10.6c26.1,17.7,42.7,47.9,44,80c1,26.1-7.4,52.6-5.8,78.6c1.3,21,9.1,40.6,12.2,61.3
		c3.3,21,0.9,45.7-15.4,61.5c-14.9,14.5-37.4,16.9-56.1,13.1c-18.7-3.8-35.1-13.1-52.8-20.5C632.6,514.3,612.4,509.2,592.3,513.6z"
		/>
	<path class="st0" d="M596.8,503.9c-8.4,1.8-12.2-0.8-19.2-4.8c-7.3-4.2-12.7-10.6-17.9-17c-7.7-9.4-11.7-17.6-19.9-25.9
		c-0.5-0.5-1.1-1.1-1.6-1.6c-18.7-17.9-48.6-17-73.2-26.2c-7-2.6-13.6-6.2-19.6-10.6c-23.1-17.1-35.7-45.8-29.7-75.6
		c6.7-33.1,36.2-63.4,70.6-70.2c29-5.8,58.2,3.6,87-3.1c20.2-4.7,38-17.1,57.6-23.2c22.2-7,46.1-5.4,66.6,2.6
		c6.7,2.6,13,5.9,18.9,9.9c24,16.4,39.2,44.2,40.5,73.7c1,24-6.5,48.3-5,72.3c1.3,19.3,8.4,37.4,11.4,56.4
		c3.1,19.4,1,42.1-13.8,56.8c-13.5,13.3-34.1,15.7-51.2,12.3c-17.1-3.4-32.1-11.7-48.4-18.3C633.8,504.6,615.3,500,596.8,503.9z"/>
	<path class="st0" d="M601.3,494.3c-7.8,1.6-11.3-0.8-17.7-4.6c-6.7-3.9-11.7-9.8-16.5-15.7c-7.1-8.7-10.8-16.3-18.3-24
		c-0.5-0.5-1-1-1.5-1.5c-17.2-16.6-44.5-16.2-67-24.9c-6.4-2.5-12.5-5.9-17.9-10c-21.2-16-32.7-42.3-27-69.8
		c6.3-30,33-57.5,64.2-63.8c26.4-5.3,52.9,3.1,79.1-2.9c18.4-4.2,34.5-15.4,52.3-20.8c20.3-6.2,41.9-4.4,60.6,3
		c6,2.4,11.8,5.5,17.1,9.2c21.8,15.1,35.7,40.5,37,67.4c1.1,21.9-5.6,44.1-4.1,66c1.2,17.6,7.7,34.2,10.6,51.5
		c2.9,17.8,1.2,38.6-12.3,52.1c-12.2,12.2-30.8,14.4-46.2,11.5c-15.5-2.9-29.2-10.2-43.9-16.2C635,495,618.1,490.8,601.3,494.3z"/>
	<path class="st0" d="M605.9,484.6c-7.1,1.4-10.4-0.9-16.2-4.3c-6.1-3.6-10.7-9-15.1-14.4c-6.4-7.9-9.9-14.9-16.7-22
		c-0.4-0.5-0.9-0.9-1.4-1.4c-15.6-15.3-40.4-15.4-60.8-23.6c-5.9-2.4-11.3-5.5-16.3-9.3c-19.3-14.8-29.7-38.9-24.2-64.1
		c5.8-26.9,29.7-51.6,57.8-57.3c23.7-4.8,47.5,2.6,71.1-2.7c16.5-3.7,31-13.6,47-18.3c18.3-5.4,37.8-3.5,54.5,3.5
		c5.4,2.3,10.6,5.1,15.4,8.4c19.6,13.8,32.1,36.8,33.5,61.2c1.1,19.8-4.7,39.9-3.2,59.7c1.2,16,7.1,30.9,9.7,46.7
		c2.7,16.1,1.3,35-10.7,47.4c-10.8,11.1-27.5,13.2-41.3,10.8c-13.9-2.4-26.2-8.8-39.5-14.1C636.2,485.3,621,481.7,605.9,484.6z"/>
	<path class="st0" d="M610.4,475c-6.4,1.2-9.4-0.9-14.7-4c-5.5-3.3-9.7-8.2-13.7-13.2c-5.8-7.2-9-13.6-15.2-20.1
		c-0.4-0.4-0.8-0.8-1.2-1.3c-14.1-14-36.3-14.6-54.7-22.4c-5.3-2.2-10.2-5.1-14.7-8.6c-17.5-13.6-26.7-35.4-21.5-58.4
		c5.4-23.8,26.5-45.7,51.4-50.8c21-4.4,42.2,2.1,63.1-2.6c14.6-3.3,27.6-11.9,41.7-15.9c16.4-4.6,33.6-2.5,48.5,3.9
		c4.8,2.1,9.4,4.7,13.7,7.7c17.4,12.6,28.6,33.1,30,54.9c1.1,17.7-3.8,35.7-2.3,53.4c1.2,14.3,6.5,27.7,8.9,41.8
		c2.5,14.5,1.5,31.4-9.2,42.6c-9.5,9.9-24.2,12-36.4,10c-12.3-2-23.3-7.4-35.1-11.9C637.3,475.6,623.9,472.5,610.4,475z"/>
	<path class="st0" d="M614.9,465.3c-5.7,1-8.5-1-13.2-3.7c-5-3-8.7-7.4-12.3-11.9c-5.2-6.5-8.1-12.3-13.6-18.1
		c-0.4-0.4-0.7-0.8-1.1-1.2c-12.6-12.7-32.2-13.8-48.5-21.1c-4.7-2.1-9.1-4.8-13.1-7.9c-15.6-12.5-23.7-32-18.8-52.7
		c5-20.8,23.3-39.8,45-44.4c18.3-3.9,36.8,1.6,55.1-2.4c12.8-2.8,24.1-10.2,36.4-13.4c14.4-3.8,29.5-1.6,42.5,4.3
		c4.2,1.9,8.2,4.2,11.9,7c15.2,11.3,25,29.4,26.5,48.6c1.2,15.6-2.8,31.4-1.4,47.1c1.2,12.6,5.8,24.4,8,36.9
		c2.3,12.9,1.6,27.9-7.6,37.9c-8.1,8.8-20.8,10.7-31.4,9.3c-10.7-1.5-20.3-6-30.7-9.8C638.5,466,626.7,463.3,614.9,465.3z"/>
	<path class="st0" d="M619.4,455.7c-5,0.8-7.6-1-11.6-3.5c-4.4-2.7-7.7-6.6-10.9-10.6c-4.6-5.7-7.2-10.9-12-16.1
		c-0.3-0.3-0.6-0.7-1-1c-11-11.4-28.1-13-42.3-19.8c-4.1-1.9-7.9-4.4-11.4-7.3c-13.7-11.3-20.8-28.5-16-47
		c4.5-17.7,20.1-33.9,38.6-37.9c15.7-3.4,31.5,1.1,47.1-2.2c10.9-2.3,20.6-8.5,31.1-11c12.5-2.9,25.3-0.6,36.4,4.7
		c3.6,1.7,7,3.8,10.2,6.3c13,10,21.5,25.7,23,42.3c1.2,13.5-1.9,27.2-0.5,40.8c1.1,10.9,5.2,21.2,7.2,32c2.1,11.2,1.8,24.3-6.1,33.2
		c-6.7,7.7-17.5,9.5-26.5,8.5c-9.1-1-17.3-4.6-26.3-7.7C639.7,456.3,629.6,454.1,619.4,455.7z"/>
	<path class="st0" d="M624,446c-4.3,0.5-6.6-1-10.1-3.2c-3.8-2.4-6.7-5.8-9.4-9.3c-3.9-5-6.3-9.6-10.4-14.2
		c-0.3-0.3-0.5-0.6-0.8-0.9c-9.5-10.2-24-12.2-36.2-18.6c-3.5-1.8-6.8-4-9.8-6.6c-11.8-10.1-17.8-25-13.3-41.2
		c4.1-14.6,16.9-28,32.2-31.4c13-2.9,26.1,0.5,39.1-2c9.1-1.8,17.1-6.7,25.8-8.5c10.5-2.1,21.2,0.3,30.4,5.1c3,1.6,5.8,3.4,8.4,5.5
		c10.8,8.7,18,22,19.5,36.1c1.2,11.4-1,23,0.4,34.4c1.1,9.2,4.5,18,6.4,27.1c1.9,9.6,1.9,20.7-4.5,28.5c-5.4,6.5-14.2,8.3-21.6,7.7
		c-7.5-0.5-14.4-3.2-21.8-5.5C640.9,446.6,632.4,444.9,624,446z"/>
	<path class="st0" d="M628.5,436.3c-3.6,0.3-5.7-1.1-8.6-2.9c-3.2-2.1-5.7-5-8-8c-3.3-4.2-5.4-8.3-8.8-12.2
		c-0.2-0.3-0.5-0.5-0.7-0.8c-7.9-8.9-19.9-11.4-30-17.3c-2.9-1.7-5.6-3.6-8.2-5.9c-10-8.9-14.9-21.6-10.6-35.5
		c3.6-11.5,13.6-22.1,25.8-25c10.3-2.5,20.8,0,31.1-1.9c7.2-1.3,13.7-5,20.5-6c8.6-1.3,17,1.3,24.3,5.5c2.4,1.4,4.6,3,6.7,4.8
		c8.6,7.4,14.4,18.3,16,29.8c1.3,9.3-0.1,18.8,1.3,28.1c1.1,7.5,3.9,14.7,5.5,22.2c1.7,8,2.1,17.2-3,23.8c-4.1,5.4-10.9,7-16.7,7
		c-5.9-0.1-11.4-1.7-17.4-3.4C642,437,635.3,435.7,628.5,436.3z"/>
	<path class="st0" d="M633,426.7c-3,0.1-4.8-1.1-7.1-2.6c-2.7-1.8-4.7-4.2-6.6-6.7c-2.7-3.5-4.5-6.9-7.2-10.3
		c-0.2-0.2-0.4-0.5-0.6-0.7c-6.4-7.6-15.8-10.7-23.8-16c-2.3-1.5-4.5-3.3-6.5-5.2c-8.1-7.8-12-18.1-7.8-29.8
		c3-8.5,10.4-16.2,19.4-18.5c7.6-2,15.5-0.5,23.1-1.7c5.4-0.9,10.2-3.2,15.2-3.6c6.7-0.5,12.9,2.2,18.3,6c1.7,1.2,3.4,2.6,5,4.1
		c6.4,6.2,10.9,14.6,12.5,23.5c1.3,7.2,0.8,14.5,2.2,21.8c1.1,5.8,3.3,11.5,4.7,17.3c1.6,6.3,2.2,13.6-1.4,19.1
		c-2.7,4.2-7.6,5.8-11.7,6.2c-4.3,0.4-8.4-0.3-13-1.3C643.2,427.3,638.1,426.5,633,426.7z"/>
</g>
</svg>
