<?xml version="1.0" encoding="utf-8"?>
<!-- Generator: Adobe Illustrator 24.1.2, SVG Export Plug-In . SVG Version: 6.00 Build 0)  -->
<svg version="1.1" id="Layer_1" xmlns="http://www.w3.org/2000/svg" xmlns:xlink="http://www.w3.org/1999/xlink" x="0px" y="0px"
	 viewBox="0 0 2382.5 1182.1" style="enable-background:new 0 0 2382.5 1182.1;" xml:space="preserve">
<style type="text/css">
	.st0{fill:none;stroke:#FFFFFF;stroke-width:0.75;stroke-miterlimit:10;}
</style>
<g>
	<g>
		<path class="st0" d="M1091.1,706.4c53.4-14.3,107.4,1.1,154.2,22.8c46.8,21.7,90.4,49.8,141.1,63.1
			c50.7,13.3,112.7,8.7,154.7-28.3c44.3-39,53.7-101.9,46.5-155.7c-7.1-53.8-27.2-104.5-29-159.2c-2.2-67.8,24-136.8,23.6-204.8
			c-0.4-83.7-43.9-162.1-113.9-205.4c-70-43.3-164.9-50.6-248.9-19.1c-57.6,21.6-109.6,60-168.8,74.8
			c-84.5,21.1-169.7-9.2-254.8,6.6c-101,18.7-190.2,108.4-204.8,206c-14.6,97.6,46.7,193.7,140.9,220.5
			c67.8,19.4,151.6,7.8,202.7,52.9c26,22.9,35.7,44.8,57.9,71.2c13.9,16.6,28.2,33.4,47.5,44
			C1059.3,706.4,1068.1,712.5,1091.1,706.4z"/>
		<path class="st0" d="M1095.6,696.7c-22.2,5.9-30.8,0-49.5-10.3c-18.7-10.3-32.6-26.7-46.1-42.7c-20.2-24.1-29.8-44.3-51.8-65.1
			c-1.4-1.3-2.8-2.6-4.3-4c-49.5-43.8-130.7-32.7-196.5-51.6c-18.9-5.4-36.4-13.7-52.1-24.2c-60.6-40.5-95.8-114.7-84.4-189.9
			c14.2-94.6,100.6-181.5,198.4-199.6c82.5-15.3,165,14,246.9-6.4c57.3-14.3,107.7-51.5,163.5-72.3c61.5-23,129-24.5,187.5-5.7
			c19,6.1,37,14.3,53.6,24.5c67.8,42,109.9,118,110.4,199.1c0.4,65.9-24.9,132.8-22.7,198.5c1.7,53,21.2,102.2,28.2,154.3
			c6.9,52.1-2,113.1-45,151c-40.7,35.8-100.6,40.4-149.7,27.5c-49.1-12.8-91.4-40.1-136.7-61C1199.7,697.8,1147.3,683,1095.6,696.7z
			"/>
		<path class="st0" d="M1100.1,687.1c-21.6,5.7-29.9-0.1-48-10c-18.2-10-31.6-25.9-44.6-41.5c-19.6-23.4-28.9-43-50.2-63.2
			c-1.4-1.3-2.8-2.6-4.2-3.9c-48-42.5-126.6-31.9-190.3-50.3c-18.3-5.3-35.2-13.3-50.5-23.6c-58.7-39.4-92.8-111.3-81.7-184.2
			c13.8-91.5,97.4-175.6,192-193.1c79.8-14.8,159.7,13.5,238.9-6.3c55.5-13.8,104.2-49.7,158.2-69.9c59.5-22.2,124.8-23.5,181.5-5.3
			c18.3,5.9,35.8,13.8,51.8,23.8c65.6,40.8,106.4,114.3,106.9,192.9c0.4,63.8-24,128.6-21.9,192.2c1.7,51.3,20.6,99,27.3,149.4
			c6.7,50.5-1.9,109.5-43.4,146.3c-39.3,34.7-97.3,39.1-144.8,26.8c-47.5-12.4-88.4-38.6-132.3-58.9
			C1200.9,688.2,1150.2,673.8,1100.1,687.1z"/>
		<path class="st0" d="M1104.7,677.4c-20.9,5.5-29-0.1-46.5-9.8c-17.6-9.7-30.6-25.1-43.2-40.2c-19-22.6-28-41.6-48.6-61.2
			c-1.3-1.2-2.7-2.5-4.1-3.7c-46.4-41.2-122.5-31.1-184.2-49.1c-17.7-5.1-34.1-12.9-48.9-22.9c-56.9-38.2-89.8-107.8-78.9-178.5
			c13.4-88.4,94.2-169.7,185.6-186.6c77.2-14.3,154.3,13,230.9-6.1c53.6-13.3,100.8-48,152.9-67.4c57.6-21.3,120.7-22.6,175.4-4.9
			c17.7,5.7,34.6,13.4,50.1,23.1c63.4,39.5,102.8,110.6,103.4,186.6c0.5,61.7-23.1,124.4-21,185.9c1.7,49.6,20,95.7,26.5,144.5
			c6.6,48.8-1.8,106-41.9,141.6c-38,33.6-93.9,37.9-139.9,26c-45.9-11.9-85.4-37.2-127.9-56.7C1202,678.5,1153,664.6,1104.7,677.4z"
			/>
		<path class="st0" d="M1109.2,667.8c-20.2,5.3-28-0.2-45-9.5c-17-9.4-29.6-24.3-41.8-38.9c-18.3-21.9-27.1-40.3-47-59.3
			c-1.3-1.2-2.6-2.4-3.9-3.6c-44.9-39.9-118.4-30.4-178-47.8c-17.1-5-33-12.6-47.3-22.2c-55-37-86.7-104.4-76.2-172.8
			c13.1-85.3,90.9-163.7,179.3-180.2c74.5-13.9,149,12.4,222.9-5.9c51.8-12.9,97.3-46.3,147.6-65c55.6-20.5,116.5-21.6,169.4-4.5
			c17.1,5.5,33.4,13,48.4,22.4c61.2,38.2,99.3,106.9,99.9,180.3c0.5,59.6-22.1,120.1-20.1,179.6c1.7,47.9,19.3,92.5,25.7,139.6
			c6.4,47.2-1.6,102.4-40.3,136.8c-36.6,32.4-90.6,36.7-134.9,25.2c-44.3-11.4-82.5-35.8-123.5-54.6
			C1203.2,668.8,1155.9,655.4,1109.2,667.8z"/>
		<path class="st0" d="M1113.7,658.1c-19.5,5.1-27.1-0.2-43.5-9.2c-16.4-9.1-28.6-23.5-40.4-37.6c-17.7-21.2-26.2-39-45.5-57.3
			c-1.2-1.2-2.5-2.3-3.8-3.5c-43.4-38.6-114.3-29.6-171.8-46.5c-16.5-4.9-31.8-12.2-45.6-21.5c-53.1-35.9-83.7-100.9-73.5-167
			c12.8-82.3,87.7-157.8,172.9-173.7c71.8-13.4,143.7,11.9,214.9-5.8c49.9-12.4,93.8-44.5,142.3-62.5
			c53.6-19.7,112.4-20.7,163.4-4.1c16.5,5.4,32.2,12.6,46.6,21.6c59,36.9,95.8,103.2,96.4,174c0.5,57.5-21.2,115.9-19.2,173.3
			c1.6,46.3,18.7,89.3,24.8,134.7c6.2,45.6-1.5,98.8-38.8,132.1c-35.3,31.3-87.3,35.4-130,24.5c-42.7-10.9-79.5-34.4-119-52.5
			C1204.4,659.1,1158.8,646.3,1113.7,658.1z"/>
		<path class="st0" d="M1118.2,648.5c-18.8,4.9-26.2-0.2-42-8.9c-15.9-8.8-27.6-22.6-39-36.3c-17.1-20.4-25.3-37.6-43.9-55.3
			c-1.2-1.1-2.4-2.3-3.7-3.4c-41.8-37.3-110.2-28.8-165.7-45.2c-15.9-4.7-30.7-11.8-44-20.8c-51.2-34.7-80.7-97.5-70.7-161.3
			c12.4-79.2,84.5-151.9,166.5-167.2c69.1-12.9,138.3,11.4,206.9-5.6c48.1-11.9,90.3-42.9,137-60.1c51.6-19,108.2-19.7,157.3-3.7
			c15.9,5.2,31,12.2,44.9,20.9c56.8,35.6,92.2,99.5,92.9,167.8c0.6,55.4-20.3,111.7-18.3,167c1.6,44.6,18,86,24,129.9
			c6,43.9-1.3,95.4-37.2,127.4c-33.9,30.2-84,34.2-125.1,23.7c-41.1-10.5-76.6-33-114.6-50.3
			C1205.6,649.5,1161.7,637.2,1118.2,648.5z"/>
		<path class="st0" d="M1122.8,638.8c-18.1,4.7-25.2-0.3-40.4-8.7c-15.3-8.5-26.6-21.8-37.6-35c-16.5-19.7-24.4-36.3-42.3-53.4
			c-1.1-1.1-2.3-2.2-3.5-3.3c-40.3-36-106.1-28-159.5-44c-15.3-4.6-29.5-11.5-42.4-20.2c-49.4-33.5-77.7-94.1-68-155.6
			c12-76.1,81.3-146,160.1-160.8c66.5-12.4,133,10.9,198.9-5.4c46.2-11.4,86.8-41.2,131.7-57.6c49.7-18.2,104.1-18.8,151.3-3.2
			c15.3,5,29.8,11.8,43.2,20.2c54.6,34.4,88.7,95.8,89.4,161.5c0.6,53.3-19.4,107.5-17.4,160.7c1.6,42.9,17.4,82.8,23.1,125
			c5.8,42.3-1.1,91.8-35.6,122.7c-32.5,29.1-80.7,33-120.2,22.9c-39.5-10-73.6-31.5-110.2-48.2
			C1206.7,639.8,1164.5,628,1122.8,638.8z"/>
		<path class="st0" d="M1127.3,629.2c-17.4,4.5-24.3-0.3-38.9-8.4c-14.7-8.1-25.6-21-36.2-33.7c-15.8-19-23.5-35-40.7-51.4
			c-1.1-1-2.2-2.1-3.4-3.2c-38.7-34.7-102-27.2-153.3-42.7c-14.7-4.4-28.4-11.1-40.7-19.5c-47.5-32.3-74.7-90.6-65.2-149.9
			c11.6-73,78.1-140.1,153.7-154.3c63.8-12,127.6,10.4,190.9-5.2c44.3-10.9,83.3-39.4,126.4-55.2c47.7-17.4,99.9-17.8,145.2-2.8
			c14.7,4.9,28.6,11.3,41.4,19.4c52.5,33.1,85.1,92.1,85.9,155.2c0.6,51.2-18.5,103.2-16.5,154.3c1.6,41.2,16.8,79.5,22.3,120.1
			c5.6,40.7-1,88.3-34.1,118c-31.1,28-77.3,31.7-115.2,22.2c-37.9-9.5-70.6-30.1-105.8-46.1C1207.9,630.1,1167.4,618.8,1127.3,629.2
			z"/>
		<path class="st0" d="M1131.8,619.5c-16.7,4.3-23.4-0.4-37.4-8.1c-14.1-7.8-24.6-20.2-34.8-32.4c-15.2-18.2-22.6-33.6-39.1-49.5
			c-1.1-1-2.1-2-3.3-3C980.1,493,919.4,500,870.1,485c-14.1-4.3-27.3-10.7-39.1-18.8c-45.6-31.2-71.7-87.2-62.5-144.2
			c11.3-70,74.8-134.2,147.3-147.8c61.1-11.5,122.3,9.9,182.9-5.1c42.5-10.5,79.8-37.7,121.1-52.7c45.8-16.6,95.8-16.9,139.2-2.4
			c14,4.7,27.4,10.9,39.7,18.7c50.3,31.8,81.6,88.5,82.4,149c0.7,49.1-17.5,99-15.6,148c1.5,39.5,16.1,76.3,21.5,115.2
			c5.4,39-0.8,84.7-32.5,113.3c-29.8,26.9-74,30.5-110.3,21.4c-36.3-9-67.7-28.7-101.4-43.9C1209.1,620.4,1170.2,609.7,1131.8,619.5
			z"/>
		<path class="st0" d="M1136.3,609.9c-16,4.1-22.4-0.4-35.9-7.9c-13.6-7.5-23.6-19.4-33.4-31.2c-14.6-17.5-21.7-32.3-37.5-47.5
			c-1-1-2-1.9-3.1-2.9c-35.7-32.1-93.8-25.6-141-40.2c-13.5-4.2-26.1-10.3-37.5-18.1c-43.7-30-68.7-83.7-59.8-138.5
			c10.9-66.9,71.6-128.3,140.9-141.4c58.4-11,116.9,9.3,174.9-4.9c40.6-10,76.3-36,115.8-50.2c43.8-15.8,91.7-15.9,133.1-2
			c13.4,4.5,26.2,10.5,37.9,18c48.1,30.5,78.1,84.8,78.9,142.7c0.7,47-16.6,94.8-14.7,141.7c1.5,37.8,15.5,73.1,20.6,110.3
			c5.2,37.4-0.7,81.2-31,108.6c-28.4,25.7-70.7,29.3-105.4,20.7c-34.7-8.6-64.7-27.3-96.9-41.8
			C1210.3,610.8,1173.1,600.5,1136.3,609.9z"/>
		<path class="st0" d="M1140.9,600.2c-15.3,3.9-21.5-0.4-34.4-7.6c-13-7.2-22.6-18.6-32-29.9c-14-16.8-20.8-31-35.9-45.5
			c-1-0.9-2-1.9-3-2.8c-34.1-30.8-89.7-24.8-134.8-38.9c-12.9-4-25-10-35.9-17.4c-41.9-28.8-65.7-80.3-57-132.7
			c10.5-63.8,68.4-122.4,134.5-134.9c55.8-10.5,111.6,8.8,166.9-4.7c38.8-9.5,72.8-34.3,110.5-47.8c41.8-15,87.5-15,127.1-1.6
			c12.8,4.3,25,10.1,36.2,17.2c45.9,29.2,74.5,81.1,75.4,136.4c0.7,45-15.7,90.6-13.9,135.4c1.5,36.2,14.8,69.8,19.8,105.4
			c5,35.8-0.5,77.6-29.4,103.9c-27.1,24.6-67.4,28-100.4,19.9c-33.1-8.1-61.7-25.9-92.5-39.7C1211.4,601.1,1176,591.4,1140.9,600.2z
			"/>
		<path class="st0" d="M1145.4,590.5c-14.6,3.7-20.6-0.5-32.9-7.3c-12.4-6.9-21.6-17.8-30.6-28.6c-13.3-16-19.9-29.6-34.3-43.6
			c-0.9-0.9-1.9-1.8-2.9-2.7c-32.6-29.6-85.6-24.1-128.7-37.6c-12.4-3.9-23.8-9.6-34.2-16.8c-40-27.7-62.7-76.8-54.3-127
			c10.1-60.8,65.2-116.5,128.1-128.4c53.1-10.1,106.3,8.3,159-4.6c36.9-9,69.4-32.6,105.2-45.3c39.9-14.2,83.4-14,121-1.1
			c12.2,4.2,23.8,9.7,34.5,16.5c43.7,27.9,71,77.4,71.9,130.1c0.8,42.9-14.8,86.4-13,129.1c1.5,34.5,14.2,66.6,18.9,100.5
			c4.8,34.1-0.4,74.1-27.9,99.2c-25.7,23.5-64,26.8-95.5,19.1c-31.5-7.6-58.8-24.5-88.1-37.5
			C1212.6,591.4,1178.8,582.2,1145.4,590.5z"/>
		<path class="st0" d="M1149.9,580.9c-14,3.4-19.7-0.5-31.4-7c-11.8-6.6-20.6-17-29.2-27.3c-12.7-15.3-18.9-28.3-32.7-41.6
			c-0.9-0.9-1.8-1.7-2.7-2.6c-31-28.3-81.5-23.3-122.5-36.3c-11.8-3.7-22.7-9.2-32.6-16.1c-38.1-26.5-59.7-73.4-51.6-121.3
			c9.8-57.7,61.9-110.6,121.7-122c50.4-9.6,100.9,7.8,151-4.4c35.1-8.5,65.9-30.9,99.9-42.9c37.9-13.4,79.2-13,115-0.7
			c11.6,4,22.6,9.3,32.7,15.8c41.5,26.7,67.5,73.7,68.4,123.9c0.8,40.8-13.9,82.1-12.1,122.8c1.4,32.8,13.5,63.3,18.1,95.6
			c4.6,32.5-0.2,70.5-26.3,94.5c-24.4,22.4-60.7,25.6-90.6,18.4c-29.9-7.1-55.8-23-83.7-35.4C1213.8,581.7,1181.7,573,1149.9,580.9z
			"/>
		<path class="st0" d="M1154.5,571.2c-13.3,3.2-18.7-0.5-29.8-6.8c-11.3-6.3-19.6-16.2-27.8-26c-12.1-14.6-18-27-31.1-39.7
			c-0.8-0.8-1.7-1.6-2.6-2.4c-29.5-27-77.4-22.5-116.3-35.1c-11.2-3.6-21.6-8.8-31-15.4c-36.2-25.3-56.7-69.9-48.8-115.6
			c9.4-54.6,58.7-104.7,115.3-115.5c47.7-9.1,95.6,7.3,143-4.2c33.2-8.1,62.4-29.1,94.7-40.4c36-12.6,75.1-12.1,108.9-0.3
			c11,3.8,21.4,8.8,31,15c39.3,25.4,63.9,70,64.9,117.6c0.8,38.7-13,77.9-11.2,116.5c1.4,31.1,12.9,60.1,17.3,90.7
			c4.5,30.8-0.1,67-24.7,89.7c-23,21.2-57.4,24.3-85.7,17.6c-28.3-6.6-52.9-21.6-79.3-33.3C1215,572.1,1184.6,563.9,1154.5,571.2z"
			/>
		<path class="st0" d="M1159,561.6c-12.6,3-17.8-0.6-28.3-6.5c-10.7-6-18.6-15.4-26.3-24.7c-11.4-13.8-17.1-25.6-29.5-37.7
			c-0.8-0.8-1.6-1.6-2.5-2.3c-28-25.7-73.3-21.7-110.2-33.8c-10.6-3.5-20.4-8.5-29.3-14.7c-34.3-24.2-53.7-66.5-46.1-109.9
			c9-51.5,55.5-98.8,108.9-109c45.1-8.6,90.2,6.8,135-4.1c31.4-7.6,58.9-27.4,89.4-38c34-11.8,70.9-11.1,102.9,0.1
			c10.4,3.6,20.2,8.4,29.3,14.3c37.1,24.1,60.4,66.3,61.4,111.3c0.9,36.6-12,73.7-10.3,110.2c1.4,29.4,12.3,56.8,16.4,85.8
			c4.3,29.2,0.1,63.4-23.2,85c-21.7,20.1-54.1,23.1-80.7,16.9c-26.7-6.2-49.9-20.2-74.9-31.1C1216.1,562.4,1187.4,554.7,1159,561.6z
			"/>
		<path class="st0" d="M1163.5,551.9c-11.9,2.8-16.9-0.6-26.8-6.2c-10.1-5.7-17.7-14.6-24.9-23.4c-10.8-13.1-16.2-24.3-27.9-35.7
			c-0.7-0.7-1.5-1.5-2.3-2.2c-26.4-24.4-69.1-20.9-104-32.5c-10-3.3-19.3-8.1-27.7-14c-32.5-23-50.7-63-43.4-104.1
			c8.6-48.5,52.3-92.9,102.5-102.6c42.4-8.2,84.9,6.2,127-3.9c29.5-7.1,55.4-25.7,84.1-35.5c32-11,66.8-10.2,96.9,0.5
			c9.7,3.5,19,8,27.5,13.6c34.9,22.8,56.9,62.6,58,105.1c0.9,34.5-11.1,69.5-9.4,103.9c1.4,27.7,11.6,53.6,15.6,80.9
			c4.1,27.6,0.2,59.9-21.6,80.3c-20.3,19-50.8,21.9-75.8,16.1c-25.1-5.7-46.9-18.8-70.4-29C1217.3,552.7,1190.3,545.5,1163.5,551.9z
			"/>
		<path class="st0" d="M1168,542.3c-11.2,2.6-15.9-0.7-25.3-5.9c-9.5-5.4-16.7-13.8-23.5-22.2c-10.2-12.3-15.3-23-26.3-33.8
			c-0.7-0.7-1.4-1.4-2.2-2.1c-24.9-23.1-65-20.1-97.8-31.3c-9.4-3.2-18.2-7.7-26.1-13.4c-30.6-21.8-47.7-59.6-40.6-98.4
			c8.2-45.4,49.1-87,96.1-96.1c39.7-7.7,79.6,5.7,119-3.7c27.6-6.6,51.9-24,78.8-33.1c30.1-10.2,62.6-9.2,90.8,0.9
			c9.1,3.3,17.8,7.6,25.8,12.8c32.7,21.5,53.3,58.9,54.5,98.8c0.9,32.4-10.2,65.2-8.5,97.5c1.4,26.1,11,50.4,14.7,76
			c3.9,25.9,0.4,56.3-20.1,75.6c-18.9,17.9-47.4,20.6-70.9,15.3c-23.5-5.2-44-17.4-66-26.9C1218.5,543.1,1193.2,536.4,1168,542.3z"
			/>
		<path class="st0" d="M1172.6,532.6c-10.5,2.4-15-0.7-23.8-5.7c-9-5.1-15.7-13-22.1-20.9c-9.6-11.6-14.4-21.6-24.7-31.8
			c-0.7-0.7-1.3-1.3-2.1-2c-23.3-21.8-60.9-19.3-91.7-30c-8.8-3.1-17-7.4-24.5-12.7c-28.7-20.6-44.7-56.1-37.9-92.7
			c7.8-42.3,45.8-81.1,89.8-89.6c37.1-7.2,74.2,5.2,111-3.6c25.8-6.1,48.4-22.3,73.5-30.6c28.1-9.4,58.5-8.3,84.8,1.4
			c8.5,3.1,16.6,7.2,24.1,12.1c30.5,20.3,49.8,55.2,51,92.5c1,30.3-9.3,61-7.6,91.2c1.3,24.4,10.3,47.1,13.9,71.1
			c3.7,24.3,0.6,52.8-18.5,70.9c-17.6,16.7-44.1,19.4-65.9,14.6c-21.9-4.8-41-15.9-61.6-24.7C1219.7,533.4,1196,527.2,1172.6,532.6z
			"/>
		<path class="st0" d="M1177.1,523c-9.8,2.2-14.1-0.7-22.3-5.4c-8.4-4.8-14.7-12.2-20.7-19.6c-8.9-10.9-13.5-20.3-23.1-29.9
			c-0.6-0.6-1.3-1.2-1.9-1.9c-21.8-20.5-56.8-18.5-85.5-28.7c-8.2-2.9-15.9-7-22.8-12c-26.8-19.5-41.7-52.7-35.2-87
			c7.5-39.2,42.6-75.2,83.4-83.2c34.4-6.7,68.9,4.7,103-3.4c23.9-5.7,45-20.5,68.2-28.1c26.2-8.6,54.3-7.3,78.7,1.8
			c7.9,2.9,15.4,6.7,22.3,11.4c28.3,19,46.3,51.5,47.5,86.2c1,28.2-8.4,56.8-6.7,84.9c1.3,22.7,9.7,43.9,13.1,66.2
			c3.5,22.7,0.7,49.2-17,66.2c-16.2,15.6-40.8,18.1-61,13.8c-20.3-4.3-38.1-14.5-57.2-22.6C1220.8,523.7,1198.9,518.1,1177.1,523z"
			/>
		<path class="st0" d="M1181.6,513.3c-9.1,2-13.1-0.8-20.7-5.1c-7.8-4.5-13.7-11.4-19.3-18.3c-8.3-10.1-12.6-19-21.5-27.9
			c-0.6-0.6-1.2-1.2-1.8-1.7c-20.3-19.2-52.7-17.8-79.3-27.5c-7.6-2.8-14.7-6.6-21.2-11.3c-25-18.3-38.7-49.2-32.4-81.3
			c7.1-36.2,39.4-69.3,77-76.7c31.7-6.3,63.5,4.2,95-3.2c22.1-5.2,41.5-18.8,62.9-25.7c24.2-7.8,50.2-6.4,72.7,2.2
			c7.3,2.8,14.2,6.3,20.6,10.6c26.1,17.7,42.7,47.9,44,80c1,26.1-7.4,52.6-5.8,78.6c1.3,21,9.1,40.6,12.2,61.3
			c3.3,21,0.9,45.7-15.4,61.5c-14.9,14.5-37.4,16.9-56.1,13.1c-18.7-3.8-35.1-13.1-52.8-20.5C1222,514,1201.8,508.9,1181.6,513.3z"
			/>
		<path class="st0" d="M1186.2,503.7c-8.4,1.8-12.2-0.8-19.2-4.8c-7.3-4.2-12.7-10.6-17.9-17c-7.7-9.4-11.7-17.6-19.9-25.9
			c-0.5-0.5-1.1-1.1-1.6-1.6c-18.7-17.9-48.6-17-73.2-26.2c-7-2.6-13.6-6.2-19.6-10.6c-23.1-17.1-35.7-45.8-29.7-75.6
			c6.7-33.1,36.2-63.4,70.6-70.2c29-5.8,58.2,3.6,87-3.1c20.2-4.7,38-17.1,57.6-23.2c22.2-7,46.1-5.4,66.6,2.6
			c6.7,2.6,13,5.9,18.9,9.9c24,16.4,39.2,44.2,40.5,73.7c1,24-6.5,48.3-5,72.3c1.3,19.3,8.4,37.4,11.4,56.4
			c3.1,19.4,1,42.1-13.8,56.8c-13.5,13.3-34.1,15.7-51.2,12.3c-17.1-3.4-32.1-11.7-48.4-18.3
			C1223.2,504.4,1204.6,499.7,1186.2,503.7z"/>
		<path class="st0" d="M1190.7,494c-7.8,1.6-11.3-0.8-17.7-4.6c-6.7-3.9-11.7-9.8-16.5-15.7c-7.1-8.7-10.8-16.3-18.3-24
			c-0.5-0.5-1-1-1.5-1.5c-17.2-16.6-44.5-16.2-67-24.9c-6.4-2.5-12.5-5.9-17.9-10c-21.2-16-32.7-42.3-27-69.8
			c6.3-30,33-57.5,64.2-63.8c26.4-5.3,52.9,3.1,79.1-2.9c18.4-4.2,34.5-15.4,52.3-20.8c20.3-6.2,41.9-4.4,60.6,3
			c6,2.4,11.8,5.5,17.1,9.2c21.8,15.1,35.7,40.5,37,67.4c1.1,21.9-5.6,44.1-4.1,66c1.2,17.6,7.7,34.2,10.6,51.5
			c2.9,17.8,1.2,38.6-12.3,52.1c-12.2,12.2-30.8,14.4-46.2,11.5c-15.5-2.9-29.2-10.2-43.9-16.2
			C1224.3,494.7,1207.5,490.6,1190.7,494z"/>
		<path class="st0" d="M1195.2,484.3c-7.1,1.4-10.4-0.9-16.2-4.3c-6.1-3.6-10.7-9-15.1-14.4c-6.4-7.9-9.9-14.9-16.7-22
			c-0.4-0.5-0.9-0.9-1.4-1.4c-15.6-15.3-40.4-15.4-60.8-23.6c-5.9-2.4-11.3-5.5-16.3-9.3c-19.3-14.8-29.7-38.9-24.2-64.1
			c5.8-26.9,29.7-51.6,57.8-57.3c23.7-4.8,47.5,2.6,71.1-2.7c16.5-3.7,31-13.6,47-18.3c18.3-5.4,37.8-3.5,54.5,3.5
			c5.4,2.3,10.6,5.1,15.4,8.4c19.6,13.8,32.1,36.8,33.5,61.2c1.1,19.8-4.7,39.9-3.2,59.7c1.2,16,7.1,30.9,9.7,46.7
			c2.7,16.1,1.3,35-10.7,47.4c-10.8,11.1-27.5,13.2-41.3,10.8c-13.9-2.4-26.2-8.8-39.5-14.1C1225.5,485,1210.3,481.4,1195.2,484.3z"
			/>
		<path class="st0" d="M1199.7,474.7c-6.4,1.2-9.4-0.9-14.7-4c-5.5-3.3-9.7-8.2-13.7-13.2c-5.8-7.2-9-13.6-15.2-20.1
			c-0.4-0.4-0.8-0.8-1.2-1.3c-14.1-14-36.3-14.6-54.7-22.4c-5.3-2.2-10.2-5.1-14.7-8.6c-17.5-13.6-26.7-35.4-21.5-58.4
			c5.4-23.8,26.5-45.7,51.4-50.8c21-4.4,42.2,2.1,63.1-2.6c14.6-3.3,27.6-11.9,41.7-15.9c16.4-4.6,33.6-2.5,48.5,3.9
			c4.8,2.1,9.4,4.7,13.7,7.7c17.4,12.6,28.6,33.1,30,54.9c1.1,17.7-3.8,35.7-2.3,53.4c1.2,14.3,6.5,27.7,8.9,41.8
			c2.5,14.5,1.5,31.4-9.2,42.6c-9.5,9.9-24.2,12-36.4,10c-12.3-2-23.3-7.4-35.1-11.9C1226.7,475.4,1213.2,472.2,1199.7,474.7z"/>
		<path class="st0" d="M1204.3,465c-5.7,1-8.5-1-13.2-3.7c-5-3-8.7-7.4-12.3-11.9c-5.2-6.5-8.1-12.3-13.6-18.1
			c-0.4-0.4-0.7-0.8-1.1-1.2c-12.6-12.7-32.2-13.8-48.5-21.1c-4.7-2.1-9.1-4.8-13.1-7.9c-15.6-12.5-23.7-32-18.8-52.7
			c5-20.8,23.3-39.8,45-44.4c18.3-3.9,36.8,1.6,55.1-2.4c12.8-2.8,24.1-10.2,36.4-13.4c14.4-3.8,29.5-1.6,42.5,4.3
			c4.2,1.9,8.2,4.2,11.9,7c15.2,11.3,25,29.4,26.5,48.6c1.2,15.6-2.8,31.4-1.4,47.1c1.2,12.6,5.8,24.4,8,36.9
			c2.3,12.9,1.6,27.9-7.6,37.9c-8.1,8.8-20.8,10.7-31.4,9.3c-10.7-1.5-20.3-6-30.7-9.8C1227.9,465.7,1216.1,463,1204.3,465z"/>
		<path class="st0" d="M1208.8,455.4c-5,0.8-7.6-1-11.6-3.5c-4.4-2.7-7.7-6.6-10.9-10.6c-4.6-5.7-7.2-10.9-12-16.1
			c-0.3-0.3-0.6-0.7-1-1c-11-11.4-28.1-13-42.3-19.8c-4.1-1.9-7.9-4.4-11.4-7.3c-13.7-11.3-20.8-28.5-16-47
			c4.5-17.7,20.1-33.9,38.6-37.9c15.7-3.4,31.5,1.1,47.1-2.2c10.9-2.3,20.6-8.5,31.1-11c12.5-2.9,25.3-0.6,36.4,4.7
			c3.6,1.7,7,3.8,10.2,6.3c13,10,21.5,25.7,23,42.3c1.2,13.5-1.9,27.2-0.5,40.8c1.1,10.9,5.2,21.2,7.2,32
			c2.1,11.2,1.8,24.3-6.1,33.2c-6.7,7.7-17.5,9.5-26.5,8.5c-9.1-1-17.3-4.6-26.3-7.7C1229,456,1218.9,453.9,1208.8,455.4z"/>
		<path class="st0" d="M1213.3,445.7c-4.3,0.5-6.6-1-10.1-3.2c-3.8-2.4-6.7-5.8-9.4-9.3c-3.9-5-6.3-9.6-10.4-14.2
			c-0.3-0.3-0.5-0.6-0.8-0.9c-9.5-10.2-24-12.2-36.2-18.6c-3.5-1.8-6.8-4-9.8-6.6c-11.8-10.1-17.8-25-13.3-41.2
			c4.1-14.6,16.9-28,32.2-31.4c13-2.9,26.1,0.5,39.1-2c9.1-1.8,17.1-6.7,25.8-8.5c10.5-2.1,21.2,0.3,30.4,5.1c3,1.6,5.8,3.4,8.4,5.5
			c10.8,8.7,18,22,19.5,36.1c1.2,11.4-1,23,0.4,34.4c1.1,9.2,4.5,18,6.4,27.1c1.9,9.6,1.9,20.7-4.5,28.5c-5.4,6.5-14.2,8.3-21.6,7.7
			c-7.5-0.5-14.4-3.2-21.8-5.5C1230.2,446.4,1221.8,444.7,1213.3,445.7z"/>
		<path class="st0" d="M1217.8,436.1c-3.6,0.3-5.7-1.1-8.6-2.9c-3.2-2.1-5.7-5-8-8c-3.3-4.2-5.4-8.3-8.8-12.2
			c-0.2-0.3-0.5-0.5-0.7-0.8c-7.9-8.9-19.9-11.4-30-17.3c-2.9-1.7-5.6-3.6-8.2-5.9c-10-8.9-14.9-21.6-10.6-35.5
			c3.6-11.5,13.6-22.1,25.8-25c10.3-2.5,20.8,0,31.1-1.9c7.2-1.3,13.7-5,20.5-6c8.6-1.3,17,1.3,24.3,5.5c2.4,1.4,4.6,3,6.7,4.8
			c8.6,7.4,14.4,18.3,16,29.8c1.3,9.3-0.1,18.8,1.3,28.1c1.1,7.5,3.9,14.7,5.5,22.2c1.7,8,2.1,17.2-3,23.8c-4.1,5.4-10.9,7-16.7,7
			c-5.9-0.1-11.4-1.7-17.4-3.4C1231.4,436.7,1224.6,435.5,1217.8,436.1z"/>
		<path class="st0" d="M1222.4,426.4c-3,0.1-4.8-1.1-7.1-2.6c-2.7-1.8-4.7-4.2-6.6-6.7c-2.7-3.5-4.5-6.9-7.2-10.3
			c-0.2-0.2-0.4-0.5-0.6-0.7c-6.4-7.6-15.8-10.7-23.8-16c-2.3-1.5-4.5-3.3-6.5-5.2c-8.1-7.8-12-18.1-7.8-29.8
			c3-8.5,10.4-16.2,19.4-18.5c7.6-2,15.5-0.5,23.1-1.7c5.4-0.9,10.2-3.2,15.2-3.6c6.7-0.5,12.9,2.2,18.3,6c1.7,1.2,3.4,2.6,5,4.1
			c6.4,6.2,10.9,14.6,12.5,23.5c1.3,7.2,0.8,14.5,2.2,21.8c1.1,5.8,3.3,11.5,4.7,17.3c1.6,6.3,2.2,13.6-1.4,19.1
			c-2.7,4.2-7.6,5.8-11.7,6.2c-4.3,0.4-8.4-0.3-13-1.3C1232.6,427,1227.5,426.2,1222.4,426.4z"/>
	</g>
	<g>
		<path class="st0" d="M2255.6,716.5c-9.1-54.5,11.4-106.8,37.4-151.3c26-44.5,58.3-85.2,76.4-134.4
			c18.1-49.2,19.4-111.3-13.3-156.7c-34.6-47.9-96.3-63.2-150.5-61.2c-54.2,1.9-106.7,17.1-161.3,13.6
			c-67.7-4.3-133.9-37-201.6-43.2c-83.4-7.6-165.5,28.1-215.4,93.7c-49.8,65.5-66.2,159.3-42.9,245.9c16,59.4,49.2,114.8,58.3,175.2
			c12.9,86.1-25.4,168-17.9,254.3c8.9,102.3,89.7,199.7,185.5,223.6c95.8,23.9,197.3-28,233-119.1c25.8-65.7,22.3-150.2,72-196.7
			c25.3-23.7,48-31.3,76.4-50.8c17.8-12.2,36-24.8,48.4-43C2252.6,748.1,2259.5,739.9,2255.6,716.5z"/>
		<path class="st0" d="M2246.4,711.1c3.8,22.7-3,30.7-15,48.3c-12,17.7-29.7,29.9-47,41.7c-25.9,17.8-47,25.4-69.8,45.3
			c-1.4,1.3-2.9,2.6-4.4,3.9c-48.3,45.1-45.1,127-70.2,190.7c-7.2,18.3-17.1,34.9-29.1,49.6c-46.2,56.5-123.4,84.3-197.1,65.8
			c-92.8-23.2-171-117.5-179.7-216.6c-7.3-83.6,29.7-162.9,17.3-246.3c-8.7-58.4-40.9-112.2-56.3-169.7
			c-17-63.4-12-130.7,12.2-187.2c7.9-18.3,17.7-35.4,29.6-51c48.3-63.5,128-98.1,208.8-90.8c65.6,5.9,129.8,37.5,195.4,41.7
			c52.9,3.3,103.8-11.3,156.3-13.3c52.5-1.9,112.4,12.9,146,59.2c31.8,43.9,30.5,104,13,151.7c-17.5,47.7-48.6,87.1-73.8,130.2
			C2257.5,607.6,2237.7,658.3,2246.4,711.1z"/>
		<path class="st0" d="M2237.3,705.6c3.6,22-3,29.7-14.6,46.8c-11.7,17.1-28.8,29-45.5,40.5c-25.2,17.3-45.5,24.7-67.7,43.9
			c-1.4,1.2-2.8,2.5-4.2,3.8c-46.9,43.7-43.9,123-68.3,184.6c-7,17.7-16.6,33.8-28.3,48c-44.8,54.7-119.7,81.7-191.2,63.6
			c-89.7-22.5-165.4-113.8-173.8-209.7c-7.1-80.9,28.7-157.7,16.7-238.4c-8.4-56.5-39.5-108.5-54.4-164.2
			c-16.4-61.4-11.5-126.5,12.1-181.2c7.6-17.7,17.2-34.3,28.7-49.3c46.9-61.4,124-94.9,202.2-87.9c63.6,5.7,125.7,36.2,189.2,40.2
			c51.2,3.2,100.5-11,151.4-12.9c50.9-1.9,108.8,12.4,141.4,57.2c30.8,42.4,29.6,100.6,12.8,146.7c-16.9,46.1-46.9,84.3-71.3,126
			C2248,605.5,2228.8,654.5,2237.3,705.6z"/>
		<path class="st0" d="M2228.1,700.2c3.5,21.3-2.9,28.8-14.2,45.4c-11.3,16.6-27.9,28-44.1,39.2c-24.4,16.7-44.1,23.9-65.6,42.6
			c-1.4,1.2-2.7,2.4-4.1,3.7c-45.4,42.3-42.7,119-66.5,178.6c-6.8,17.1-16.1,32.7-27.5,46.5c-43.5,53-116,79.1-185.2,61.5
			c-86.7-21.8-159.8-110-168-202.7c-6.9-78.2,27.7-152.4,16.1-230.4c-8.1-54.7-38.1-104.9-52.5-158.6
			c-15.7-59.3-10.9-122.3,11.9-175.1c7.4-17.1,16.7-33.1,27.8-47.7c45.4-59.3,119.9-91.8,195.6-85c61.5,5.5,121.6,34.9,183,38.7
			c49.6,3.1,97.2-10.7,146.4-12.5c49.2-1.8,105.3,11.9,136.9,55.2c29.8,41,28.7,97.1,12.5,141.7c-16.2,44.6-45.2,81.5-68.7,121.9
			C2238.5,603.4,2220,650.8,2228.1,700.2z"/>
		<path class="st0" d="M2218.9,694.8c3.3,20.6-2.8,27.9-13.8,43.9c-11,16-27,27.1-42.7,37.9c-23.6,16.2-42.7,23.1-63.5,41.2
			c-1.3,1.1-2.6,2.3-4,3.6c-44,40.9-41.6,115-64.6,172.6c-6.6,16.5-15.7,31.6-26.6,44.9c-42.1,51.2-112.2,76.3-179.3,59.3
			c-83.7-21.3-154.3-106.2-162.2-195.7c-6.7-75.5,26.7-147.1,15.5-222.4c-7.8-52.8-36.7-101.3-50.5-153.1
			c-15.1-57.3-10.4-118.1,11.8-169c7.2-16.5,16.2-32,26.9-46c43.9-57.3,115.9-88.6,189.1-82.2c59.4,5.2,117.5,33.6,176.8,37.2
			c47.9,2.9,93.9-10.4,141.5-12.2c47.6-1.8,101.8,11.4,132.3,53.2c28.8,39.6,27.8,93.7,12.2,136.7c-15.6,43-43.5,78.7-66.2,117.7
			C2228.9,601.3,2211.1,647.1,2218.9,694.8z"/>
		<path class="st0" d="M2209.7,689.3c3.2,19.9-2.8,27-13.3,42.4c-10.6,15.5-26.1,26.2-41.3,36.6c-22.8,15.6-41.3,22.3-61.4,39.8
			c-1.3,1.1-2.6,2.3-3.9,3.5c-42.6,39.5-40.4,111-62.8,166.6c-6.4,16-15.2,30.5-25.8,43.4c-40.8,49.4-108.5,73.7-173.3,57.1
			c-80.7-20.6-148.7-102.4-156.4-188.7c-6.4-72.8,25.6-141.9,14.9-214.5c-7.5-50.9-35.3-97.6-48.6-147.6
			c-14.5-55.3-9.8-113.8,11.6-163c6.9-15.9,15.6-30.8,26-44.3c42.4-55.2,111.9-85.4,182.5-79.3c57.3,5,113.3,32.2,170.6,35.7
			c46.2,2.8,90.6-10,136.5-11.8c46-1.8,98.2,10.9,127.8,51.2c27.8,38.1,26.9,90.3,11.9,131.8c-15,41.5-41.8,75.9-63.6,113.5
			C2219.4,599.2,2202.2,643.3,2209.7,689.3z"/>
		<path class="st0" d="M2200.6,683.9c3.1,19.2-2.7,26-12.9,40.9c-10.2,15-25.2,25.3-39.9,35.4c-22,15-39.9,21.6-59.3,38.4
			c-1.2,1.1-2.5,2.2-3.7,3.3c-41.1,38.1-39.2,106.9-60.9,160.6c-6.2,15.4-14.7,29.4-25,41.8c-39.4,47.7-104.8,71-167.4,54.9
			c-77.6-19.9-143.1-98.7-150.5-181.7c-6.2-70.1,24.6-136.6,14.3-206.5c-7.2-49-34-94-46.7-142.1c-14-53.2-9.3-109.6,11.4-156.9
			c6.7-15.3,15.1-29.7,25.1-42.7C1726.1,276,1793,247,1861,252.8c55.2,4.8,109.2,30.9,164.4,34.2c44.5,2.7,87.4-9.7,131.6-11.4
			c44.3-1.7,94.8,10.4,123.3,49.2c26.8,36.6,26,86.9,11.6,126.8c-14.3,39.9-40.1,73-61.1,109.3
			C2209.9,597.1,2193.5,639.6,2200.6,683.9z"/>
		<path class="st0" d="M2191.4,678.5c2.9,18.5-2.7,25.1-12.5,39.4c-9.9,14.4-24.3,24.4-38.5,34.1c-21.2,14.5-38.5,20.8-57.2,37
			c-1.2,1-2.4,2.1-3.6,3.2c-39.7,36.6-38,102.9-59,154.6c-6,14.8-14.2,28.3-24.1,40.2c-38.1,45.9-101.1,68.3-161.4,52.8
			c-74.6-19.3-137.6-94.9-144.7-174.7c-6-67.4,23.6-131.3,13.7-198.5c-6.9-47.1-32.7-90.3-44.7-136.6
			c-13.3-51.2-8.7-105.4,11.3-150.9c6.5-14.7,14.6-28.5,24.2-41c39.4-51.1,103.9-79.1,169.3-73.5c53.1,4.5,105.1,29.6,158.2,32.7
			c42.8,2.5,84.1-9.4,126.6-11.1c42.7-1.7,91.3,9.9,118.7,47.2c25.9,35.1,25.1,83.4,11.3,121.8c-13.7,38.4-38.5,70.2-58.5,105.1
			C2200.4,595,2184.6,635.9,2191.4,678.5z"/>
		<path class="st0" d="M2182.2,673c2.8,17.8-2.6,24.2-12.1,37.9c-9.5,13.9-23.4,23.5-37,32.8c-20.4,13.9-37.1,20-55.1,35.6
			c-1.1,1-2.3,2-3.5,3.1c-38.3,35.2-36.9,98.9-57.2,148.5c-5.8,14.2-13.7,27.2-23.3,38.7c-36.7,44.2-97.3,65.7-155.5,50.6
			c-71.6-18.6-132-91.1-138.9-167.8c-5.8-64.6,22.6-126,13.1-190.5c-6.6-45.2-31.3-86.7-42.8-131.1c-12.7-49.2-8.2-101.2,11.1-144.8
			c6.2-14.1,14-27.4,23.3-39.4c37.9-49,99.9-75.9,162.8-70.6c51.1,4.3,101,28.3,152.1,31.2c41.2,2.4,80.8-9.1,121.7-10.7
			c41-1.7,87.8,9.4,114.2,45.2c24.9,33.7,24.2,80,11,116.8c-13.1,36.8-36.8,67.4-56,100.9C2190.9,592.9,2175.8,632.1,2182.2,673z"/>
		<path class="st0" d="M2173,667.6c2.7,17-2.6,23.2-11.7,36.5c-9.2,13.3-22.5,22.6-35.6,31.5c-19.6,13.4-35.6,19.2-53,34.2
			c-1.1,0.9-2.2,1.9-3.3,3c-36.8,33.8-35.7,94.9-55.3,142.5c-5.6,13.7-13.3,26.1-22.5,37.1c-35.4,42.4-93.6,63-149.5,48.4
			c-68.6-17.9-126.4-87.4-133-160.8c-5.6-61.9,21.5-120.8,12.5-182.6c-6.3-43.3-29.9-83.1-40.8-125.6c-12.1-47.1-7.6-97,10.9-138.8
			c6-13.5,13.5-26.2,22.4-37.7c36.5-47,95.9-72.8,156.2-67.8c49,4.1,96.9,27,145.9,29.7c39.5,2.2,77.5-8.7,116.7-10.3
			c39.4-1.6,84.2,8.9,109.7,43.2c23.9,32.2,23.3,76.6,10.8,111.8c-12.5,35.3-35.1,64.6-53.4,96.7
			C2181.4,590.8,2166.9,628.4,2173,667.6z"/>
		<path class="st0" d="M2163.9,662.2c2.5,16.3-2.5,22.3-11.3,35c-8.8,12.8-21.6,21.7-34.2,30.2c-18.8,12.8-34.2,18.5-50.9,32.8
			c-1.1,0.9-2.1,1.9-3.2,2.8c-35.4,32.4-34.5,90.9-53.5,136.5c-5.4,13.1-12.8,25-21.6,35.6c-34.1,40.7-89.9,60.4-143.5,46.2
			c-65.5-17.3-120.9-83.6-127.2-153.8c-5.4-59.2,20.5-115.5,11.9-174.6c-6-41.4-28.5-79.4-38.9-120.1
			c-11.5-45.1-7.1-92.8,10.8-132.7c5.8-12.9,13-25.1,21.5-36.1c35-44.9,91.9-69.6,149.6-64.9c46.9,3.8,92.8,25.6,139.7,28.3
			c37.8,2.1,74.2-8.4,111.7-10c37.7-1.6,80.7,8.4,105.1,41.2c22.9,30.8,22.4,73.2,10.5,106.9c-11.8,33.7-33.4,61.8-50.9,92.5
			C2171.9,588.7,2158.1,624.7,2163.9,662.2z"/>
		<path class="st0" d="M2154.7,656.7c2.4,15.6-2.5,21.4-10.8,33.5c-8.4,12.2-20.7,20.7-32.8,29c-18,12.3-32.8,17.7-48.8,31.4
			c-1,0.9-2,1.8-3.1,2.7c-34,31-33.3,86.9-51.6,130.5c-5.2,12.5-12.3,23.9-20.8,34c-32.7,38.9-86.2,57.7-137.6,44.1
			c-62.5-16.6-115.3-79.8-121.4-146.8c-5.1-56.5,19.5-110.2,11.3-166.6c-5.7-39.5-27.2-75.8-37-114.6
			c-10.9-43.1-6.5-88.5,10.6-126.6c5.5-12.3,12.4-23.9,20.6-34.4c33.5-42.9,87.8-66.4,143-62c44.8,3.6,88.7,24.3,133.5,26.8
			c36.1,2,70.9-8.1,106.8-9.6c36.1-1.6,77.2,7.9,100.6,39.2c21.9,29.3,21.5,69.7,10.2,101.9c-11.2,32.2-31.7,59-48.3,88.3
			C2162.3,586.6,2149.3,621,2154.7,656.7z"/>
		<path class="st0" d="M2145.5,651.3c2.2,14.9-2.4,20.4-10.4,32c-8.1,11.7-19.8,19.8-31.4,27.7c-17.2,11.7-31.4,16.9-46.7,30
			c-1,0.8-2,1.7-2.9,2.6c-32.5,29.6-32.1,82.9-49.8,124.5c-5.1,11.9-11.8,22.8-20,32.5c-31.4,37.1-82.5,55-131.6,41.9
			c-59.5-15.9-109.7-76-115.6-139.8c-4.9-53.8,18.4-105,10.7-158.7c-5.4-37.6-25.8-72.2-35-109.1c-10.3-41.1-5.9-84.3,10.5-120.6
			c5.3-11.7,11.9-22.8,19.7-32.7c32-40.8,83.8-63.3,136.4-59.1c42.7,3.4,84.5,23,127.3,25.3c34.5,1.8,67.6-7.7,101.8-9.2
			c34.4-1.5,73.7,7.5,96,37.2c20.9,27.9,20.5,66.3,9.9,96.9c-10.6,30.6-30,56.2-45.8,84.1C2152.8,584.5,2140.4,617.2,2145.5,651.3z"
			/>
		<path class="st0" d="M2136.3,645.9c2.1,14.2-2.4,19.5-10,30.5c-7.7,11.2-18.9,18.9-30,26.4c-16.4,11.2-30,16.1-44.6,28.6
			c-0.9,0.8-1.9,1.6-2.8,2.5c-31.1,28.2-31,78.9-47.9,118.5c-4.9,11.4-11.4,21.7-19.1,30.9c-30,35.4-78.8,52.4-125.7,39.7
			c-56.5-15.2-104.2-72.3-109.8-132.8c-4.7-51.1,17.4-99.7,10.1-150.7c-5.1-35.7-24.4-68.5-33.1-103.6c-9.7-39-5.4-80.1,10.3-114.5
			c5.1-11.1,11.4-21.6,18.8-31.1c30.5-38.7,79.8-60.1,129.9-56.3c40.6,3.1,80.4,21.7,121.1,23.8c32.8,1.7,64.3-7.4,96.9-8.9
			c32.8-1.5,70.2,7,91.5,35.2c19.9,26.4,19.6,62.9,9.6,91.9c-10,29.1-28.3,53.4-43.3,79.9C2143.3,582.4,2131.6,613.5,2136.3,645.9z"
			/>
		<path class="st0" d="M2127.2,640.5c2,13.5-2.3,18.6-9.6,29.1c-7.4,10.6-18,18-28.6,25.1c-15.6,10.6-28.6,15.4-42.5,27.2
			c-0.9,0.8-1.8,1.5-2.7,2.3c-29.7,26.8-29.8,74.8-46.1,112.4c-4.7,10.8-10.9,20.6-18.3,29.4c-28.7,33.6-75,49.7-119.7,37.5
			c-53.5-14.6-98.6-68.5-103.9-125.9c-4.5-48.4,16.4-94.4,9.5-142.7c-4.8-33.8-23-64.9-31.2-98.1c-9.1-37-4.8-75.9,10.1-108.5
			c4.8-10.6,10.8-20.5,17.9-29.4c29-36.7,75.8-56.9,123.3-53.4c38.6,2.9,76.3,20.4,114.9,22.3c31.1,1.6,61-7.1,91.9-8.5
			c31.1-1.5,66.6,6.5,87,33.2c18.9,24.9,18.7,59.5,9.3,87c-9.3,27.5-26.6,50.5-40.7,75.7C2133.8,580.3,2122.7,609.8,2127.2,640.5z"
			/>
		<path class="st0" d="M2118,635c1.8,12.8-2.3,17.7-9.2,27.6c-7,10.1-17.1,17.1-27.1,23.9c-14.8,10.1-27.2,14.6-40.4,25.8
			c-0.8,0.7-1.7,1.5-2.6,2.2c-28.2,25.4-28.6,70.8-44.2,106.4c-4.5,10.2-10.4,19.5-17.5,27.8c-27.3,31.9-71.3,47.1-113.8,35.4
			c-50.4-13.9-93-64.7-98.1-118.9c-4.3-45.7,15.4-89.2,8.9-134.8c-4.5-31.9-21.6-61.3-29.2-92.6c-8.5-35-4.3-71.7,10-102.4
			c4.6-10,10.3-19.3,17-27.8c27.5-34.6,71.8-53.8,116.7-50.5c36.5,2.7,72.2,19,108.7,20.8c29.4,1.4,57.8-6.8,87-8.1
			c29.5-1.4,63.1,6,82.4,31.2c17.9,23.5,17.8,56,9,82c-8.7,26-24.9,47.7-38.2,71.5C2124.3,578.2,2113.9,606,2118,635z"/>
		<path class="st0" d="M2108.8,629.6c1.7,12.1-2.2,16.7-8.7,26.1c-6.7,9.5-16.3,16.2-25.7,22.6c-14.1,9.5-25.7,13.8-38.3,24.4
			c-0.8,0.7-1.6,1.4-2.4,2.1c-26.8,24-27.4,66.8-42.3,100.4c-4.3,9.6-9.9,18.4-16.6,26.2c-26,30.1-67.6,44.4-107.8,33.2
			c-47.4-13.2-87.5-60.9-92.3-111.9c-4.1-43,14.3-83.9,8.3-126.8c-4.2-30-20.3-57.6-27.3-87.1c-7.9-32.9-3.7-67.4,9.8-96.4
			c4.4-9.4,9.8-18.1,16.1-26.1c26.1-32.6,67.8-50.6,110.1-47.6c34.4,2.4,68.1,17.7,102.5,19.3c27.7,1.3,54.5-6.4,82-7.8
			c27.8-1.4,59.6,5.5,77.9,29.2c16.9,22,16.9,52.6,8.8,77c-8.1,24.4-23.2,44.9-35.6,67.3C2114.8,576.1,2105,602.3,2108.8,629.6z"/>
		<path class="st0" d="M2099.6,624.2c1.5,11.4-2.2,15.8-8.3,24.6c-6.3,9-15.4,15.3-24.3,21.3c-13.3,9-24.3,13.1-36.1,23
			c-0.8,0.6-1.5,1.3-2.3,2c-25.4,22.6-26.3,62.8-40.5,94.4c-4.1,9.1-9.4,17.3-15.8,24.7c-24.6,28.4-63.9,41.8-101.9,31
			c-44.4-12.5-81.9-57.2-86.5-104.9c-3.8-40.3,13.3-78.6,7.7-118.8c-3.9-28.1-18.9-54-25.4-81.6c-7.2-30.9-3.2-63.2,9.6-90.3
			c4.2-8.8,9.2-17,15.3-24.5c24.6-30.5,63.8-47.4,103.5-44.7c32.3,2.2,64,16.4,96.3,17.8c26.1,1.2,51.2-6.1,77.1-7.4
			c26.2-1.4,56.1,5,73.3,27.2c16,20.6,16,49.2,8.5,72c-7.4,22.9-21.5,42.1-33.1,63.1C2105.2,574,2096.2,598.6,2099.6,624.2z"/>
		<path class="st0" d="M2090.4,618.7c1.4,10.7-2.1,14.9-7.9,23.1c-5.9,8.4-14.5,14.3-22.9,20c-12.5,8.4-22.9,12.3-34,21.6
			c-0.7,0.6-1.4,1.2-2.2,1.9c-23.9,21.1-25.1,58.8-38.6,88.4c-3.9,8.5-9,16.2-15,23.1c-23.3,26.6-60.2,39.1-95.9,28.8
			c-41.4-11.9-76.3-53.4-80.6-97.9c-3.6-37.6,12.3-73.4,7.1-110.8c-3.6-26.3-17.5-50.4-23.4-76.1c-6.6-28.9-2.6-59,9.5-84.2
			c3.9-8.2,8.7-15.8,14.4-22.8c23.1-28.4,59.8-44.3,97-41.9c30.2,2,59.8,15.1,90.1,16.3c24.4,1,47.9-5.8,72.1-7
			c24.5-1.3,52.6,4.5,68.8,25.2c15,19.1,15.1,45.7,8.2,67c-6.9,21.3-19.8,39.3-30.5,59C2095.7,571.9,2087.3,594.9,2090.4,618.7z"/>
		<path class="st0" d="M2081.3,613.3c1.3,10-2.1,13.9-7.5,21.6c-5.6,7.9-13.6,13.4-21.5,18.7c-11.7,7.9-21.5,11.5-31.9,20.2
			c-0.7,0.6-1.4,1.1-2,1.7c-22.5,19.7-23.9,54.8-36.8,82.3c-3.7,7.9-8.5,15.1-14.1,21.6c-22,24.8-56.4,36.4-90,26.7
			c-38.3-11.2-70.8-49.6-74.8-90.9c-3.4-34.9,11.3-68.1,6.5-102.9c-3.3-24.4-16.1-46.7-21.5-70.6c-6-26.9-2.1-54.8,9.3-78.2
			c3.7-7.6,8.2-14.7,13.5-21.1c21.6-26.4,55.7-41.1,90.4-39c28.1,1.7,55.7,13.8,83.9,14.8c22.7,0.9,44.6-5.5,67.2-6.7
			c22.9-1.3,49.1,4,64.3,23.2c14,17.6,14.1,42.3,7.9,62.1c-6.2,19.8-18.1,36.5-28,54.8C2086.2,569.8,2078.5,591.1,2081.3,613.3z"/>
		<path class="st0" d="M2072.1,607.9c1.1,9.3-2,13-7.1,20.2c-5.2,7.4-12.7,12.5-20.1,17.5c-10.9,7.3-20.1,10.7-29.8,18.8
			c-0.6,0.5-1.3,1.1-1.9,1.6c-21.1,18.3-22.7,50.8-34.9,76.3c-3.5,7.3-8,14-13.3,20c-20.6,23.1-52.7,33.8-84,24.5
			c-35.3-10.5-65.2-45.9-69-84c-3.2-32.2,10.2-62.8,5.9-94.9c-3-22.5-14.8-43.1-19.5-65.1c-5.4-24.8-1.5-50.6,9.2-72.1
			c3.5-7,7.7-13.5,12.6-19.5c20.1-24.3,51.7-37.9,83.8-36.1c26.1,1.5,51.6,12.4,77.7,13.3c21,0.7,41.3-5.1,62.2-6.3
			c21.3-1.3,45.5,3.5,59.7,21.2c13,16.2,13.2,38.9,7.6,57.1c-5.6,18.2-16.4,33.7-25.4,50.6C2076.7,567.7,2069.6,587.4,2072.1,607.9z
			"/>
		<path class="st0" d="M2062.9,602.4c1,8.6-2,12.1-6.7,18.7c-4.9,6.8-11.8,11.6-18.7,16.2c-10.1,6.8-18.7,10-27.7,17.4
			c-0.6,0.5-1.2,1-1.8,1.5c-19.6,16.9-21.5,46.8-33.1,70.3c-3.3,6.8-7.5,12.9-12.5,18.5c-19.3,21.3-49,31.1-78.1,22.3
			c-32.3-9.8-59.6-42.1-63.1-77c-3-29.4,9.2-57.6,5.3-86.9c-2.7-20.6-13.4-39.5-17.6-59.6c-4.8-22.8-1-46.4,9-66.1
			c3.2-6.4,7.1-12.4,11.7-17.8c18.6-22.3,47.7-34.8,77.2-33.2c24,1.3,47.5,11.1,71.5,11.9c19.4,0.6,38-4.8,57.3-5.9
			c19.6-1.2,42,3,55.2,19.2c12,14.7,12.3,35.5,7.3,52.1c-5,16.7-14.7,30.9-22.9,46.4C2067.2,565.6,2060.8,583.7,2062.9,602.4z"/>
		<path class="st0" d="M2053.7,597c0.8,7.9-1.9,11.2-6.2,17.2c-4.5,6.3-10.9,10.7-17.2,14.9c-9.3,6.2-17.2,9.2-25.6,16
			c-0.5,0.4-1.1,0.9-1.6,1.4c-18.2,15.5-20.4,42.7-31.2,64.3c-3.1,6.2-7,11.8-11.6,16.9c-17.9,19.6-45.3,28.5-72.1,20.1
			c-29.3-9.1-54.1-38.3-57.3-70c-2.8-26.7,8.2-52.3,4.7-79c-2.4-18.7-12-35.8-15.7-54c-4.2-20.8-0.4-42.1,8.8-60
			c3-5.8,6.6-11.2,10.8-16.2c17.1-20.2,43.7-31.6,70.7-30.4c21.9,1,43.4,9.8,65.3,10.4c17.7,0.5,34.8-4.4,52.3-5.6
			c18-1.2,38.5,2.5,50.6,17.2c11,13.3,11.4,32,7.1,47.1c-4.4,15.1-13,28.1-20.3,42.2C2057.7,563.6,2051.9,579.9,2053.7,597z"/>
		<path class="st0" d="M2044.6,591.6c0.7,7.2-1.9,10.2-5.8,15.7c-4.1,5.7-10,9.8-15.8,13.6c-8.5,5.7-15.8,8.4-23.5,14.6
			c-0.5,0.4-1,0.8-1.5,1.2c-16.8,14.1-19.2,38.7-29.4,58.3c-2.9,5.6-6.6,10.8-10.8,15.3c-16.6,17.8-41.5,25.8-66.1,18
			c-26.2-8.4-48.5-34.5-51.5-63c-2.5-24,7.2-47,4.1-71c-2.1-16.8-10.6-32.2-13.7-48.5c-3.6-18.8,0.1-37.9,8.7-54
			c2.8-5.2,6.1-10.1,9.9-14.5c15.7-18.1,39.7-28.4,64.1-27.5c19.8,0.8,39.3,8.5,59.1,8.9c16,0.3,31.5-4.1,47.4-5.2
			c16.3-1.1,35,2,46.1,15.2c10,11.8,10.5,28.6,6.8,42.1c-3.7,13.6-11.3,25.3-17.8,38C2048.2,561.5,2043.1,576.2,2044.6,591.6z"/>
		<path class="st0" d="M2035.4,586.1c0.6,6.5-1.8,9.3-5.4,14.2c-3.8,5.2-9.1,8.9-14.4,12.3c-7.7,5.1-14.4,7.7-21.4,13.2
			c-0.5,0.4-0.9,0.7-1.4,1.1c-15.3,12.7-18,34.7-27.5,52.3c-2.7,5-6.1,9.7-10,13.8c-15.2,16.1-37.8,23.2-60.2,15.8
			c-23.2-7.7-42.9-30.8-45.7-56c-2.3-21.3,6.1-41.8,3.5-63c-1.8-14.9-9.2-28.6-11.8-43c-3-16.7,0.7-33.7,8.5-47.9
			c2.5-4.6,5.5-8.9,9-12.9c14.2-16.1,35.7-25.3,57.5-24.6c17.7,0.6,35.1,7.2,52.9,7.4c14.3,0.2,28.2-3.8,42.4-4.8
			c14.7-1.1,31.4,1.5,41.6,13.2c9,10.4,9.6,25.2,6.5,37.2c-3.1,12-9.6,22.4-15.2,33.8C2038.7,559.4,2034.2,572.5,2035.4,586.1z"/>
		<path class="st0" d="M2026.2,580.7c0.4,5.8-1.8,8.4-5,12.7c-3.4,4.6-8.2,7.9-13,11.1c-6.9,4.5-13,6.9-19.3,11.8
			c-0.4,0.3-0.8,0.6-1.3,1c-13.9,11.3-16.8,30.7-25.7,46.2c-2.5,4.5-5.6,8.6-9.1,12.2c-13.9,14.3-34.1,20.6-54.2,13.6
			c-20.2-7-37.4-27-39.8-49.1c-2.1-18.6,5.1-36.5,2.9-55.1c-1.5-13-7.8-24.9-9.9-37.5c-2.4-14.7,1.2-29.5,8.3-41.8
			c2.3-4,5-7.8,8.1-11.2c12.7-14,31.7-22.1,50.9-21.7c15.6,0.3,31,5.8,46.7,5.9c12.6,0.1,24.9-3.4,37.5-4.5c13-1.1,27.9,1.1,37,11.2
			c8,8.9,8.7,21.8,6.2,32.2c-2.5,10.5-7.9,19.6-12.7,29.6C2029.1,557.3,2025.4,568.8,2026.2,580.7z"/>
		<path class="st0" d="M2017,575.3c0.3,5.1-1.7,7.4-4.6,11.3c-3.1,4.1-7.3,7-11.6,9.8c-6.1,4-11.6,6.1-17.2,10.4
			c-0.4,0.3-0.7,0.6-1.1,0.9c-12.5,9.9-15.7,26.7-23.8,40.2c-2.3,3.9-5.1,7.5-8.3,10.7c-12.5,12.6-30.4,17.9-48.3,11.5
			c-17.2-6.2-31.8-23.2-34-42.1c-1.9-15.9,4.1-31.2,2.3-47.1c-1.2-11.1-6.5-21.3-7.9-32c-1.7-12.7,1.8-25.3,8.2-35.8
			c2.1-3.4,4.5-6.6,7.2-9.5c11.2-12,27.7-19,44.3-18.8c13.6,0.1,26.9,4.5,40.5,4.4c11-0.1,21.6-3.1,32.5-4.1
			c11.4-1,24.4,0.6,32.5,9.2c7,7.5,7.8,18.3,5.9,27.2c-1.9,8.9-6.2,16.8-10.2,25.4C2019.6,555.2,2016.5,565,2017,575.3z"/>
		<path class="st0" d="M2007.9,569.8c0.1,4.4-1.7,6.5-4.1,9.8c-2.7,3.6-6.4,6.1-10.2,8.5c-5.3,3.4-10.2,5.3-15.1,9
			c-0.3,0.2-0.7,0.5-1,0.7c-11,8.5-14.5,22.7-21.9,34.2c-2.1,3.3-4.6,6.4-7.5,9.1c-11.2,10.8-26.6,15.3-42.3,9.3
			c-14.2-5.4-26.2-19.5-28.2-35.1c-1.7-13.2,3-26,1.7-39.1c-0.9-9.2-5.1-17.7-6-26.5c-1.1-10.7,2.4-21.1,8-29.7
			c1.8-2.8,3.9-5.5,6.3-7.9c9.7-9.9,23.6-15.8,37.8-16c11.5-0.1,22.8,3.2,34.3,2.9c9.3-0.2,18.3-2.8,27.6-3.7c9.7-1,20.8,0.1,28,7.2
			c6,6,6.9,14.9,5.6,22.2c-1.2,7.4-4.5,14-7.6,21.2C2010.1,553.1,2007.6,561.3,2007.9,569.8z"/>
		<path class="st0" d="M1998.7,564.4c0,3.7-1.6,5.6-3.7,8.3c-2.4,3-5.5,5.2-8.8,7.2c-4.5,2.9-8.7,4.6-13,7.6
			c-0.3,0.2-0.6,0.4-0.9,0.6c-9.6,7.1-13.3,18.7-20.1,28.2c-1.9,2.7-4.2,5.3-6.6,7.6c-9.8,9.1-22.9,12.7-36.4,7.1
			c-11.1-4.6-20.7-15.7-22.4-28.1c-1.5-10.5,2-20.7,1.1-31.1c-0.6-7.3-3.7-14.1-4-21c-0.5-8.7,2.9-16.8,7.8-23.7
			c1.6-2.2,3.4-4.3,5.4-6.2c8.2-7.8,19.6-12.6,31.2-13.1c9.4-0.4,18.7,1.9,28.1,1.4c7.6-0.4,15-2.5,22.6-3.4
			c8.1-1,17.3-0.4,23.4,5.2c5,4.6,6,11.5,5.3,17.2c-0.6,5.8-2.8,11.2-5.1,17C2000.6,551,1998.7,557.6,1998.7,564.4z"/>
		<path class="st0" d="M1989.5,559c-0.2,3-1.6,4.6-3.3,6.8c-2,2.5-4.6,4.3-7.3,6c-3.8,2.3-7.3,3.8-10.9,6.2
			c-0.2,0.2-0.5,0.3-0.7,0.5c-8.2,5.7-12.1,14.7-18.2,22.2c-1.7,2.1-3.7,4.2-5.8,6c-8.5,7.3-19.2,10.2-30.4,4.9
			c-8.1-3.8-15.1-11.9-16.5-21.1c-1.2-7.8,1-15.4,0.5-23.2c-0.3-5.4-2.2-10.5-2.1-15.5c0.2-6.7,3.5-12.6,7.7-17.6
			c1.4-1.6,2.9-3.2,4.5-4.6c6.7-5.8,15.6-9.5,24.6-10.2c7.3-0.6,14.6,0.6,21.9-0.1c5.9-0.5,11.7-2.1,17.7-3
			c6.4-0.9,13.7-0.9,18.9,3.2c3.9,3.1,5,8.1,5.1,12.3c0,4.3-1.1,8.4-2.5,12.8C1991.1,548.9,1989.8,553.9,1989.5,559z"/>
	</g>
	<g>
		<path class="st0" d="M502.8,376c-53.7,12.9-107.4-3.7-153.6-26.5c-46.2-22.8-89.1-52-139.5-66.6c-50.4-14.6-112.4-11.5-155.3,24.5
			C9.1,345.2-1.8,407.9,4,461.8C9.8,515.7,28.7,567,29.1,621.7c0.5,67.8-27.4,136.2-28.7,204.2C-1.2,909.6,40.3,989,109.2,1034
			c68.9,45,163.6,54.7,248.3,25.2c58.1-20.2,111-57.3,170.6-70.6c85-19,169.4,13.3,254.9-0.3c101.4-16.2,192.8-103.7,209.8-200.9
			c17-97.2-41.9-194.8-135.4-223.9c-67.3-21-151.4-11.5-201.3-57.8C630.7,482,621.5,460,600,433c-13.5-16.9-27.3-34.1-46.4-45.2
			C534.6,376.8,525.9,370.4,502.8,376z"/>
		<path class="st0" d="M498.1,385.5c22.4-5.4,30.8,0.8,49.3,11.5c18.5,10.7,31.9,27.5,45,43.9c19.6,24.6,28.7,45,50.2,66.4
			c1.4,1.4,2.8,2.7,4.2,4.1c48.4,45,129.9,35.9,195.2,56.4c18.7,5.9,36,14.6,51.5,25.5c59.6,42,92.9,117.1,79.7,191.9
			c-16.5,94.2-105,178.9-203.3,194.6c-82.9,13.3-164.6-18.1-246.9,0.3c-57.7,12.9-109,48.8-165.2,68.3
			c-62,21.5-129.5,21.3-187.6,1.1c-18.8-6.5-36.6-15.2-52.9-25.9C50.4,980.1,10.2,903.1,11.8,822c1.2-65.9,28.2-132.2,27.6-197.9
			c-0.4-53-18.7-102.7-24.4-155c-5.6-52.3,4.8-113,48.7-149.8c41.5-34.8,101.6-37.9,150.4-23.8c48.8,14,90.4,42.3,135.2,64.3
			C394.1,381.9,446,398,498.1,385.5z"/>
		<path class="st0" d="M493.3,395c21.7-5.2,29.9,0.8,47.8,11.2c17.9,10.4,30.9,26.6,43.6,42.5c19,23.9,27.8,43.7,48.7,64.4
			c1.3,1.3,2.7,2.6,4.1,4c46.9,43.6,125.8,35,189,55c18.1,5.7,34.9,14.2,49.9,24.8c57.8,40.8,90,113.5,77.1,186.2
			c-16,91.1-101.7,173.1-196.7,188.3c-80.2,12.8-159.3-17.4-238.9,0.4c-55.8,12.5-105.4,47.1-159.9,66
			c-60,20.7-125.4,20.5-181.6,0.9c-18.2-6.3-35.4-14.7-51.2-25.1C60.6,971.2,21.7,896.7,23.1,818.1c1.1-63.8,27.1-128,26.6-191.6
			C49.2,575.1,31.5,527,26,476.4c-5.5-50.6,4.6-109.4,47-145.1c40.1-33.7,98.2-36.7,145.4-23.2c47.2,13.5,87.4,40.8,130.8,62.1
			C392.6,391.5,443,407.1,493.3,395z"/>
		<path class="st0" d="M488.6,404.6c21-5,28.9,0.8,46.3,10.9c17.3,10.1,30,25.8,42.2,41.2c18.4,23.1,27,42.3,47.1,62.4
			c1.3,1.3,2.6,2.6,4,3.8c45.4,42.3,121.7,34.2,182.9,53.6c17.5,5.6,33.8,13.8,48.3,24.1c55.9,39.6,87.2,110,74.5,180.4
			c-15.5,88.1-98.3,167.3-190.2,182c-77.5,12.4-154-16.8-231,0.4c-53.9,12-101.9,45.5-154.5,63.6c-58.1,19.9-121.2,19.6-175.5,0.6
			c-17.6-6.2-34.2-14.3-49.5-24.3c-62.4-41-100.1-113.1-98.8-189.1c1.1-61.7,26.1-123.8,25.5-185.3c-0.5-49.7-17.6-96.2-22.9-145.1
			c-5.3-49,4.4-105.9,45.3-140.5c38.8-32.6,94.8-35.6,140.5-22.5c45.6,13,84.5,39.3,126.4,59.9C391.2,401.1,439.9,416.2,488.6,404.6
			z"/>
		<path class="st0" d="M483.8,414.1c20.3-4.8,28,0.9,44.7,10.6c16.8,9.8,29,25,40.9,39.9c17.8,22.4,26.1,41,45.6,60.4
			c1.2,1.2,2.5,2.5,3.9,3.7c43.9,41,117.6,33.3,176.8,52.1c17,5.4,32.6,13.4,46.7,23.4c54.1,38.4,84.1,106.5,71.9,174.6
			c-15.2,85-94.9,161.5-183.6,175.7c-74.8,12-148.6-16.1-223,0.4c-52.1,11.6-98.4,43.9-149.2,61.3c-56.1,19.2-117,18.8-169.5,0.3
			c-17-6-33.1-13.8-47.8-23.5c-60.3-39.7-96.6-109.3-95.4-182.7c1-59.6,25.1-119.6,24.5-179c-0.5-48-17-93-22.2-140.2
			c-5.2-47.4,4.1-102.3,43.7-135.8c37.4-31.5,91.5-34.4,135.5-21.9c44,12.5,81.6,37.8,122.1,57.6
			C389.8,410.8,436.8,425.3,483.8,414.1z"/>
		<path class="st0" d="M479,423.7c19.6-4.6,27.1,0.9,43.2,10.3c16.2,9.5,28,24.1,39.5,38.6c17.2,21.6,25.2,39.6,44,58.4
			c1.2,1.2,2.4,2.4,3.7,3.6c42.4,39.7,113.6,32.4,170.6,50.7c16.4,5.3,31.5,13,45.1,22.6c52.2,37.2,81.2,103,69.3,168.8
			c-14.8,81.9-91.6,155.6-177.1,169.4c-72.1,11.6-143.3-15.5-215,0.5c-50.2,11.1-94.9,42.2-143.8,59c-54.1,18.4-112.9,17.9-163.4,0
			c-16.4-5.8-31.9-13.4-46.1-22.8C91.1,944.5,56,877.3,57.1,806.5c0.9-57.5,24.1-115.4,23.4-172.8c-0.5-46.3-16.5-89.7-21.5-135.3
			c-5-45.7,3.9-98.8,42-131.1c36-30.4,88.1-33.3,130.6-21.3c42.5,12,78.6,36.3,117.7,55.4C388.4,420.4,433.7,434.4,479,423.7z"/>
		<path class="st0" d="M474.3,433.2c18.9-4.4,26.2,0.9,41.7,10c15.6,9.1,27,23.3,38.1,37.3c16.6,20.9,24.3,38.2,42.5,56.4
			c1.2,1.2,2.3,2.3,3.6,3.5c40.9,38.3,109.5,31.5,164.5,49.3c15.8,5.1,30.4,12.6,43.5,21.9c50.4,35.9,78.3,99.5,66.7,163
			c-14.3,78.9-88.2,149.8-170.5,163.1c-69.4,11.2-138-14.8-207,0.5c-48.3,10.7-91.3,40.6-138.4,56.7
			c-52.1,17.7-108.7,17.1-157.3-0.2c-15.8-5.6-30.7-12.9-44.4-22c-55.9-37-89.7-101.8-88.7-170c0.8-55.4,23.1-111.2,22.4-166.5
			c-0.5-44.6-15.9-86.4-20.8-130.4c-4.9-44.1,3.6-95.3,40.3-126.5c34.6-29.4,84.8-32.1,125.6-20.6c40.9,11.5,75.7,34.8,113.3,53.1
			C387,430.1,430.6,443.4,474.3,433.2z"/>
		<path class="st0" d="M469.5,442.7c18.2-4.2,25.2,0.9,40.2,9.7c15.1,8.8,26.1,22.5,36.7,35.9c16,20.1,23.5,36.9,40.9,54.4
			c1.1,1.1,2.3,2.2,3.5,3.4c39.4,37,105.4,30.6,158.4,47.9c15.2,5,29.2,12.2,41.9,21.2c48.5,34.7,75.4,95.9,64.1,157.2
			c-13.9,75.8-84.8,144-164,156.8c-66.8,10.8-132.7-14.2-199,0.5c-46.5,10.3-87.8,39-133.1,54.3c-50.1,17-104.5,16.2-151.3-0.5
			c-15.1-5.4-29.5-12.5-42.6-21.2c-53.8-35.7-86.3-98-85.4-163.7c0.7-53.3,22-107,21.4-160.2c-0.5-42.9-15.3-83.2-20.1-125.5
			c-4.7-42.4,3.4-91.7,38.6-121.8c33.2-28.3,81.4-31,120.7-20c39.3,10.9,72.8,33.4,109,50.9C385.6,439.7,427.5,452.5,469.5,442.7z"
			/>
		<path class="st0" d="M464.7,452.3c17.5-4,24.3,0.9,38.7,9.4c14.5,8.5,25.1,21.7,35.4,34.6c15.4,19.4,22.6,35.5,39.4,52.4
			c1.1,1.1,2.2,2.2,3.3,3.2c37.9,35.7,101.3,29.7,152.2,46.5c14.6,4.8,28.1,11.8,40.3,20.5c46.7,33.5,72.4,92.4,61.5,151.5
			c-13.4,72.7-81.5,138.2-157.4,150.5c-64.1,10.4-127.3-13.5-191,0.5c-44.6,9.8-84.3,37.4-127.7,52c-48.1,16.2-100.4,15.3-145.2-0.8
			c-14.5-5.2-28.3-12-40.9-20.4c-51.6-34.4-82.9-94.2-82.1-157.3c0.6-51.2,21-102.8,20.3-153.9c-0.6-41.2-14.8-79.9-19.3-120.6
			c-4.6-40.8,3.1-88.2,37-117.1c31.8-27.2,78.1-29.8,115.7-19.3c37.7,10.4,69.9,31.9,104.6,48.7
			C384.2,449.4,424.4,461.6,464.7,452.3z"/>
		<path class="st0" d="M460,461.8c16.8-3.9,23.4,0.9,37.2,9c13.9,8.2,24.1,20.8,34,33.3c14.8,18.6,21.7,34.2,37.8,50.4
			c1,1,2.1,2.1,3.2,3.1c36.4,34.3,97.2,28.8,146.1,45c14,4.6,27,11.4,38.6,19.8c44.8,32.3,69.5,88.9,58.9,145.7
			c-13,69.7-78.1,132.3-150.9,144.2c-61.4,10-122-12.9-183,0.6c-42.7,9.4-80.7,35.8-122.4,49.7c-46.2,15.5-96.2,14.5-139.2-1
			c-13.9-5-27.1-11.6-39.2-19.7c-49.5-33-79.4-90.4-78.7-150.9c0.6-49.1,20-98.6,19.3-147.6c-0.6-39.5-14.2-76.7-18.6-115.7
			c-4.4-39.1,2.9-84.7,35.3-112.5c30.4-26.1,74.7-28.7,110.8-18.7c36.1,9.9,66.9,30.4,100.3,46.4C382.8,459,421.3,470.7,460,461.8z"
			/>
		<path class="st0" d="M455.2,471.4c16.1-3.7,22.4,0.9,35.7,8.7c13.4,7.9,23.1,20,32.6,32c14.1,17.8,20.9,32.8,36.3,48.4
			c1,1,2,2,3.1,3c34.9,33,93.1,27.9,140,43.6c13.4,4.5,25.9,11,37,19c43,31.1,66.6,85.4,56.4,139.9
			c-12.5,66.6-74.8,126.5-144.3,137.9c-58.7,9.6-116.7-12.2-175,0.6c-40.9,9-77.2,34.1-117,47.4c-44.2,14.7-92,13.6-133.1-1.3
			c-13.3-4.8-25.9-11.1-37.5-18.9c-47.3-31.7-76-86.7-75.4-144.6c0.5-47.1,19-94.4,18.2-141.3c-0.6-37.9-13.7-73.4-17.9-110.8
			c-4.3-37.5,2.7-81.1,33.6-107.8c29.1-25,71.4-27.5,105.8-18.1c34.5,9.4,64,28.9,95.9,44.2C381.3,468.6,418.2,479.8,455.2,471.4z"
			/>
		<path class="st0" d="M450.4,480.9c15.4-3.5,21.5,1,34.2,8.4c12.8,7.6,22.2,19.2,31.2,30.7c13.5,17.1,20,31.5,34.8,46.4
			c0.9,1,1.9,1.9,2.9,2.9c33.4,31.7,89,27,133.8,42.2c12.8,4.3,24.7,10.6,35.4,18.3c41.1,29.9,63.7,81.9,53.8,134.1
			c-12.1,63.5-71.4,120.7-137.8,131.6c-56,9.2-111.4-11.6-167,0.6c-39,8.5-73.7,32.5-111.7,45c-42.2,13.9-87.9,12.8-127.1-1.6
			c-12.7-4.6-24.7-10.7-35.8-18.1c-45.1-30.3-72.5-82.9-72-138.2c0.4-45,17.9-90.2,17.2-135c-0.6-36.2-13.1-70.2-17.2-105.8
			c-4.1-35.9,2.4-77.6,32-103.1c27.7-23.9,68-26.4,100.9-17.4c32.9,8.9,61.1,27.4,91.5,41.9C379.9,478.3,415.1,488.9,450.4,480.9z"
			/>
		<path class="st0" d="M445.7,490.4c14.7-3.3,20.6,1,32.7,8.1c12.2,7.2,21.2,18.4,29.9,29.3c12.9,16.3,19.1,30.1,33.2,44.4
			c0.9,0.9,1.8,1.8,2.8,2.8c31.8,30.3,85,26.2,127.7,40.8c12.3,4.2,23.6,10.2,33.8,17.6c39.3,28.6,60.8,78.3,51.2,128.3
			c-11.6,60.5-68,114.9-131.2,125.2c-53.3,8.7-106-10.9-159,0.7c-37.1,8.1-70.1,30.9-106.3,42.7c-40.2,13.2-83.7,11.9-121-1.8
			c-12.1-4.5-23.6-10.3-34.1-17.3c-43-29-69.1-79.1-68.7-131.9c0.3-42.9,16.9-86,16.1-128.7c-0.6-34.5-12.5-66.9-16.5-100.9
			c-4-34.2,2.2-74,30.3-98.4c26.3-22.8,64.7-25.2,96-16.8c31.3,8.4,58.2,25.9,87.2,39.7C378.5,487.9,412,498,445.7,490.4z"/>
		<path class="st0" d="M440.9,500c14-3.1,19.6,1,31.2,7.8c11.7,6.9,20.2,17.5,28.5,28c12.3,15.6,18.2,28.8,31.7,42.4
			c0.9,0.9,1.7,1.8,2.7,2.6c30.3,29,80.9,25.3,121.6,39.4c11.7,4,22.5,9.8,32.2,16.9c37.4,27.4,57.9,74.8,48.6,122.5
			C726,817,672.6,868.7,612.5,878.6c-50.6,8.3-100.7-10.3-151,0.7c-35.3,7.7-66.6,29.2-101,40.4c-38.2,12.4-79.5,11.1-115-2.1
			c-11.5-4.3-22.4-9.8-32.3-16.6c-40.8-27.7-65.6-75.3-65.4-125.5c0.2-40.8,15.9-81.8,15.1-122.5c-0.6-32.8-12-63.6-15.7-96
			c-3.8-32.6,1.9-70.5,28.6-93.8c24.9-21.7,61.3-24.1,91-16.1c29.7,7.9,55.2,24.4,82.8,37.5C377.1,497.6,408.9,507.1,440.9,500z"/>
		<path class="st0" d="M436.1,509.5c13.3-2.9,18.7,1,29.7,7.5c11.1,6.6,19.2,16.7,27.1,26.7c11.7,14.8,17.4,27.4,30.1,40.4
			c0.8,0.8,1.7,1.7,2.5,2.5c28.8,27.7,76.8,24.4,115.4,37.9c11.1,3.9,21.3,9.4,30.6,16.2c35.6,26.2,54.9,71.3,46,116.7
			c-10.7,54.4-61.3,103.2-118.1,112.6c-48,7.9-95.4-9.6-143,0.7c-33.4,7.2-63.1,27.6-95.6,38.1c-36.3,11.7-75.3,10.2-108.9-2.4
			c-10.9-4.1-21.2-9.4-30.6-15.8c-38.7-26.3-62.2-71.6-62-119.2c0.1-38.7,14.9-77.6,14-116.2c-0.7-31.1-11.4-60.4-15-91.1
			c-3.7-30.9,1.7-66.9,26.9-89.1c23.5-20.7,58-22.9,86.1-15.5c28.1,7.3,52.3,22.9,78.4,35.2C375.7,507.2,405.9,516.1,436.1,509.5z"
			/>
		<path class="st0" d="M431.4,519.1c12.6-2.7,17.8,1,28.2,7.2c10.5,6.3,18.3,15.9,25.7,25.4c11.1,14.1,16.5,26,28.6,38.4
			c0.8,0.8,1.6,1.6,2.4,2.4c27.3,26.4,72.7,23.5,109.3,36.5c10.5,3.7,20.2,9,29,15.4c33.7,25,52,67.8,43.4,111
			c-10.3,51.3-57.9,97.4-111.6,106.3c-45.3,7.5-90-9-135,0.7c-31.5,6.8-59.6,26-90.3,35.8c-34.3,10.9-71.2,9.4-102.9-2.6
			c-10.3-3.9-20-8.9-28.9-15c-36.5-25-58.7-67.8-58.7-112.8c0-36.6,13.8-73.4,13-109.9c-0.7-29.4-10.9-57.1-14.3-86.2
			c-3.5-29.3,1.5-63.4,25.3-84.4c22.1-19.6,54.6-21.8,81.1-14.9c26.5,6.8,49.4,21.4,74.1,33C374.3,516.8,402.8,525.2,431.4,519.1z"
			/>
		<path class="st0" d="M426.6,528.6c12-2.5,16.8,1,26.6,6.9c10,6,17.3,15.1,24.3,24.1c10.5,13.3,15.6,24.7,27,36.4
			c0.7,0.8,1.5,1.5,2.3,2.3c25.8,25,68.6,22.6,103.2,35.1c9.9,3.6,19.1,8.6,27.4,14.7c31.9,23.8,49.1,64.3,40.8,105.2
			c-9.8,48.2-54.6,91.6-105,100c-42.6,7.1-84.7-8.3-127.1,0.8c-29.7,6.4-56,24.3-84.9,33.4c-32.3,10.2-67,8.5-96.8-2.9
			c-9.7-3.7-18.8-8.5-27.2-14.2c-34.3-23.7-55.3-64-55.3-106.5c0-34.5,12.8-69.2,12-103.6c-0.7-27.8-10.3-53.9-13.6-81.3
			c-3.4-27.7,1.2-59.9,23.6-79.8c20.8-18.5,51.3-20.6,76.2-14.2c25,6.3,46.5,19.9,69.7,30.7C372.9,526.5,399.7,534.3,426.6,528.6z"
			/>
		<path class="st0" d="M421.9,538.1c11.3-2.3,15.9,1.1,25.1,6.6c9.4,5.6,16.3,14.2,23,22.7c9.9,12.6,14.8,23.3,25.5,34.4
			c0.7,0.7,1.4,1.4,2.1,2.1c24.3,23.7,64.5,21.7,97,33.7c9.3,3.4,18,8.2,25.7,14c30,22.6,46.2,60.7,38.2,99.4
			c-9.3,45.2-51.2,85.8-98.5,93.7c-39.9,6.7-79.4-7.7-119.1,0.8c-27.8,5.9-52.5,22.7-79.6,31.1c-30.3,9.4-62.8,7.7-90.8-3.2
			c-9-3.5-17.6-8-25.5-13.5c-32.2-22.3-51.9-60.2-52-100.1c-0.1-32.4,11.8-65,10.9-97.3c-0.7-26.1-9.7-50.6-12.9-76.4
			c-3.2-26,1-56.3,21.9-75.1c19.4-17.4,47.9-19.5,71.2-13.6c23.4,5.8,43.5,18.4,65.3,28.5C371.5,536.1,396.6,543.4,421.9,538.1z"/>
		<path class="st0" d="M417.1,547.7c10.6-2.2,15,1.1,23.6,6.2c8.8,5.3,15.3,13.4,21.6,21.4c9.3,11.8,13.9,22,23.9,32.4
			c0.6,0.7,1.3,1.3,2,2c22.8,22.4,60.4,20.8,90.9,32.2c8.7,3.3,16.8,7.8,24.1,13.3c28.2,21.3,43.3,57.2,35.6,93.6
			c-8.9,42.1-47.8,79.9-91.9,87.4c-37.2,6.3-74.1-7-111.1,0.8c-25.9,5.5-49,21.1-74.2,28.8c-28.3,8.7-58.7,6.8-84.7-3.4
			c-8.4-3.3-16.4-7.6-23.8-12.7c-30-21-48.4-56.4-48.7-93.7c-0.2-30.3,10.8-60.8,9.9-91c-0.7-24.4-9.2-47.4-12.2-71.4
			c-3.1-24.4,0.7-52.8,20.3-70.4c18-16.3,44.6-18.3,66.3-13c21.8,5.3,40.6,17,61,26.2C370,545.8,393.5,552.5,417.1,547.7z"/>
		<path class="st0" d="M412.3,557.2c9.9-2,14,1.1,22.1,5.9c8.3,5,14.4,12.6,20.2,20.1c8.7,11.1,13,20.6,22.4,30.4
			c0.6,0.6,1.2,1.3,1.9,1.9c21.3,21,56.3,19.9,84.8,30.8c8.1,3.1,15.7,7.4,22.5,12.6c26.4,20.1,40.4,53.7,33,87.8
			c-8.4,39-44.5,74.1-85.4,81.1c-34.5,5.9-68.7-6.4-103.1,0.9c-24.1,5.1-45.5,19.4-68.9,26.5c-26.4,7.9-54.5,6-78.7-3.7
			c-7.8-3.1-15.2-7.1-22-11.9c-27.9-19.7-45-52.7-45.3-87.4c-0.3-28.2,9.8-56.6,8.8-84.7c-0.7-22.7-8.6-44.1-11.4-66.5
			c-2.9-22.7,0.5-49.2,18.6-65.8c16.6-15.2,41.2-17.1,61.3-12.3c20.2,4.8,37.7,15.5,56.6,24C368.6,555.4,390.4,561.6,412.3,557.2z"
			/>
		<path class="st0" d="M407.6,566.8c9.2-1.8,13.1,1.1,20.6,5.6c7.7,4.7,13.4,11.8,18.8,18.8c8.1,10.3,12.1,19.3,20.8,28.4
			c0.6,0.6,1.1,1.2,1.7,1.8c19.8,19.7,52.3,19,78.6,29.4c7.6,3,14.6,7,20.9,11.8c24.5,18.9,37.5,50.2,30.4,82
			c-7.9,36-41.1,68.3-78.8,74.8c-31.8,5.5-63.4-5.7-95.1,0.9c-22.2,4.6-41.9,17.8-63.5,24.1c-24.4,7.2-50.3,5.1-72.6-4
			c-7.2-2.9-14-6.7-20.3-11.1c-25.7-18.3-41.5-48.9-42-81c-0.4-26.1,8.7-52.4,7.8-78.4c-0.8-21-8.1-40.9-10.7-61.6
			c-2.8-21.1,0.3-45.7,16.9-61.1c15.2-14.1,37.8-16,56.4-11.7c18.6,4.3,34.8,14,52.2,21.8C367.2,565.1,387.3,570.7,407.6,566.8z"/>
		<path class="st0" d="M402.8,576.3c8.5-1.6,12.2,1.1,19.1,5.3c7.1,4.4,12.4,10.9,17.5,17.5c7.5,9.6,11.3,17.9,19.3,26.4
			c0.5,0.6,1.1,1.1,1.6,1.7c18.3,18.4,48.2,18.2,72.5,28c7,2.8,13.4,6.6,19.3,11.1c22.7,17.7,34.6,46.6,27.8,76.3
			c-7.5,32.9-37.7,62.5-72.3,68.5c-29.2,5.1-58.1-5.1-87.1,0.9c-20.3,4.2-38.4,16.2-58.1,21.8c-22.4,6.4-46.2,4.3-66.6-4.3
			c-6.6-2.8-12.9-6.2-18.6-10.4c-23.5-17-38.1-45.1-38.6-74.7c-0.5-24,7.7-48.2,6.7-72.2c-0.8-19.3-7.5-37.6-10-56.7
			c-2.6-19.5,0-42.1,15.2-56.4c13.8-13,34.5-14.8,51.4-11c17,3.8,31.8,12.5,47.9,19.5C365.8,574.7,384.2,579.8,402.8,576.3z"/>
		<path class="st0" d="M398,585.9c7.8-1.4,11.3,1.1,17.6,5c6.6,4,11.4,10.1,16.1,16.1c6.9,8.8,10.4,16.5,17.7,24.4
			c0.5,0.5,1,1,1.5,1.5c16.8,17,44.1,17.3,66.4,26.6c6.4,2.7,12.3,6.2,17.7,10.4c20.8,16.5,31.6,43.1,25.2,70.5
			c-7,29.8-34.4,56.7-65.7,62.2c-26.5,4.7-52.8-4.4-79.1,0.9c-18.5,3.8-34.9,14.5-52.8,19.5c-20.4,5.7-42,3.4-60.5-4.5
			c-6-2.6-11.7-5.8-16.9-9.6c-21.4-15.7-34.6-41.3-35.3-68.3c-0.5-21.9,6.7-44,5.7-65.9c-0.8-17.7-6.9-34.3-9.3-51.8
			c-2.4-17.8-0.2-38.6,13.6-51.7c12.5-11.9,31.1-13.7,46.5-10.4c15.4,3.3,28.9,11,43.5,17.3C364.4,584.3,381.2,588.9,398,585.9z"/>
		<path class="st0" d="M393.3,595.4c7.1-1.2,10.3,1.1,16.1,4.7c6,3.7,10.5,9.3,14.7,14.8c6.2,8.1,9.5,15.2,16.2,22.4
			c0.4,0.5,0.9,0.9,1.3,1.4c15.3,15.7,40,16.4,60.2,25.1c5.8,2.5,11.2,5.8,16.1,9.7c19,15.3,28.7,39.6,22.6,64.7
			c-6.5,26.8-31,50.8-59.2,55.9c-23.8,4.2-47.4-3.8-71.1,1c-16.6,3.3-31.4,12.9-47.4,17.2c-18.5,4.9-37.8,2.6-54.4-4.8
			c-5.4-2.4-10.5-5.3-15.2-8.8c-19.2-14.3-31.2-37.6-32-62c-0.6-19.8,5.7-39.8,4.6-59.6c-0.8-16-6.3-31.1-8.6-46.9
			c-2.3-16.2-0.5-35,11.9-47.1c11.1-10.8,27.8-12.5,41.5-9.8c13.8,2.8,26,9.5,39.2,15C363,593.9,378.1,598,393.3,595.4z"/>
		<path class="st0" d="M388.5,604.9c6.4-1,9.4,1.1,14.6,4.4c5.4,3.4,9.5,8.4,13.3,13.5c5.6,7.3,8.7,13.8,14.7,20.4
			c0.4,0.4,0.8,0.9,1.2,1.3c13.8,14.4,35.9,15.5,54.1,23.7c5.2,2.4,10.1,5.4,14.5,9c17.1,14,25.8,36.1,20.1,58.9
			c-6,23.7-27.6,45-52.6,49.6c-21.1,3.8-42.1-3.1-63.1,1c-14.7,2.9-27.8,11.2-42.1,14.8c-16.5,4.2-33.7,1.7-48.4-5.1
			c-4.8-2.2-9.3-4.9-13.5-8.1c-17.1-13-27.8-33.8-28.6-55.6c-0.7-17.7,4.6-35.6,3.6-53.3c-0.8-14.3-5.8-27.8-7.8-42
			c-2.1-14.6-0.7-31.5,10.2-42.4c9.7-9.7,24.4-11.4,36.6-9.1c12.2,2.3,23.1,8,34.8,12.8C361.6,603.6,375,607.1,388.5,604.9z"/>
		<path class="st0" d="M383.7,614.5c5.7-0.8,8.5,1.2,13.1,4.1c4.9,3.1,8.5,7.6,12,12.2c5,6.6,7.8,12.5,13.1,18.4
			c0.3,0.4,0.7,0.8,1.1,1.2c12.2,13,31.8,14.6,48,22.3c4.6,2.2,8.9,5,12.9,8.3c15.3,12.8,22.9,32.5,17.5,53.1
			c-5.5,20.6-24.3,39.2-46.1,43.2c-18.4,3.4-36.8-2.5-55.1,1c-12.9,2.5-24.3,9.6-36.7,12.5c-14.5,3.4-29.5,0.9-42.3-5.3
			c-4.2-2-8.1-4.4-11.7-7.3c-14.9-11.7-24.3-30-25.3-49.2c-0.8-15.6,3.6-31.4,2.6-47c-0.8-12.6-5.2-24.6-7.1-37
			c-2-12.9-0.9-27.9,8.6-37.7c8.3-8.6,21.1-10.2,31.7-8.5c10.6,1.7,20.1,6.5,30.4,10.6C360.2,613.2,371.9,616.2,383.7,614.5z"/>
		<path class="st0" d="M379,624c5-0.6,7.5,1.2,11.6,3.8c4.3,2.8,7.5,6.8,10.6,10.9c4.4,5.8,6.9,11.1,11.6,16.4
			c0.3,0.4,0.6,0.7,0.9,1.1c10.7,11.7,27.7,13.7,41.8,20.9c4,2,7.8,4.6,11.2,7.5c13.4,11.6,20.1,29,14.9,47.3
			c-5,17.6-20.9,33.4-39.5,36.9c-15.7,3-31.4-1.8-47.1,1.1c-11,2-20.8,8-31.4,10.2c-12.5,2.6-25.3,0-36.3-5.6c-3.5-1.8-6.9-4-10-6.5
			c-12.7-10.3-20.9-26.2-22-42.9c-0.9-13.5,2.6-27.2,1.5-40.7c-0.9-10.9-4.6-21.3-6.4-32.1c-1.8-11.3-1.2-24.4,6.9-33.1
			c6.9-7.5,17.7-9.1,26.7-7.8c9,1.2,17.2,5,26.1,8.3C358.8,622.9,368.8,625.3,379,624z"/>
		<path class="st0" d="M374.2,633.6c4.3-0.4,6.6,1.2,10,3.4c3.7,2.4,6.6,6,9.2,9.5c3.8,5.1,6.1,9.8,10,14.4c0.3,0.3,0.5,0.6,0.8,0.9
			c9.2,10.4,23.7,12.8,35.7,19.4c3.4,1.9,6.7,4.2,9.6,6.8c11.6,10.4,17.2,25.5,12.3,41.6c-4.4,14.5-17.5,27.6-33,30.6
			c-13.1,2.6-26.1-1.2-39.1,1.1c-9.1,1.6-17.3,6.3-26,7.9c-10.6,1.9-21.2-0.8-30.2-5.9c-2.9-1.6-5.7-3.5-8.3-5.7
			c-10.6-9-17.4-22.5-18.6-36.5c-1-11.4,1.6-23,0.5-34.4c-0.9-9.2-4.1-18.1-5.7-27.2c-1.7-9.6-1.4-20.8,5.2-28.4
			c5.6-6.4,14.4-7.9,21.8-7.2c7.4,0.7,14.3,3.5,21.7,6.1C357.4,632.5,365.7,634.4,374.2,633.6z"/>
		<path class="st0" d="M369.5,643.1c3.6-0.2,5.7,1.2,8.5,3.1c3.2,2.1,5.6,5.1,7.8,8.2c3.2,4.3,5.2,8.4,8.5,12.4
			c0.2,0.3,0.4,0.5,0.7,0.8c7.7,9.1,19.6,11.9,29.6,18c2.9,1.7,5.6,3.8,8,6.1c9.7,9.2,14.3,21.9,9.7,35.8
			c-3.8,11.4-14.2,21.7-26.4,24.3c-10.4,2.2-20.8-0.5-31.1,1.1c-7.3,1.2-13.8,4.7-20.7,5.5c-8.6,1.1-17-1.7-24.2-6.1
			c-2.3-1.4-4.5-3.1-6.6-5c-8.4-7.6-14-18.7-15.3-30.2c-1-9.3,0.5-18.8-0.6-28.2c-0.9-7.6-3.5-14.8-5-22.3c-1.5-8-1.6-17.2,3.5-23.7
			c4.2-5.3,11-6.8,16.8-6.6c5.9,0.2,11.4,2,17.3,3.8C355.9,642.2,362.7,643.5,369.5,643.1z"/>
		<path class="st0" d="M364.7,652.6c3,0,4.7,1.2,7,2.8c2.6,1.8,4.6,4.3,6.5,6.9c2.6,3.6,4.3,7,6.9,10.4c0.2,0.2,0.4,0.5,0.5,0.7
			c6.2,7.7,15.5,11,23.4,16.6c2.3,1.6,4.4,3.4,6.4,5.4c7.9,7.9,11.5,18.4,7.1,30c-3.2,8.4-10.8,15.9-19.9,18
			c-7.7,1.8-15.5,0.1-23.2,1.1c-5.4,0.7-10.3,3-15.3,3.2c-6.7,0.3-12.8-2.6-18.1-6.4c-1.7-1.3-3.4-2.6-4.9-4.2
			c-6.3-6.3-10.5-14.9-11.9-23.8c-1.1-7.3-0.5-14.6-1.6-21.9c-0.9-5.9-3-11.6-4.3-17.4c-1.4-6.4-1.9-13.6,1.9-19.1
			c2.8-4.1,7.7-5.6,11.9-5.9c4.3-0.3,8.4,0.5,13,1.6C354.5,651.8,359.6,652.7,364.7,652.6z"/>
	</g>
</g>
</svg>
