<?xml version="1.0" encoding="utf-8"?>
<!-- Generator: Adobe Illustrator 24.1.2, SVG Export Plug-In . SVG Version: 6.00 Build 0)  -->
<svg version="1.1" id="Layer_1" xmlns="http://www.w3.org/2000/svg" xmlns:xlink="http://www.w3.org/1999/xlink" x="0px" y="0px"
	 viewBox="0 0 32 224" style="enable-background:new 0 0 32 224;" xml:space="preserve">
<style type="text/css">
	.st0{fill:#19181B;}
	.st1{fill:#FFFFFF;}
	.st2{fill:none;}
</style>
<g>
	<g id="cto2IU.tif_3_">
		<g>
			<path class="st0" d="M7.46,23.99c-0.87,0-1.69,0-2.51,0c-2.06-0.01-3.77-1.33-4.29-3.32c-0.09-0.35-0.14-0.71-0.14-1.07
				c-0.01-4.55-0.02-9.1,0-13.65C0.52,3.44,2.5,1.57,5.07,1.57c6.14,0,12.28,0,18.42,0c1.34,0,2.68-0.06,4.01,0.06
				c2.38,0.22,3.98,2.05,3.99,4.45c0.01,3.04,0,6.08,0,9.12c0,1.44,0.01,2.88,0,4.31c-0.02,2.55-1.92,4.46-4.47,4.47
				c-3.93,0.01-7.85,0.01-11.78-0.01c-0.39,0-0.64,0.12-0.89,0.41c-1.66,1.9-3.36,3.77-5.01,5.68c-0.56,0.64-1.48,0.41-1.77-0.22
				c-0.08-0.19-0.11-0.41-0.11-0.62c-0.01-1.6-0.01-3.2-0.01-4.8C7.46,24.29,7.46,24.15,7.46,23.99z M9.59,26.59
				c0.16-0.18,0.27-0.29,0.38-0.41c1.11-1.25,2.23-2.5,3.33-3.76c0.33-0.38,0.71-0.54,1.21-0.54c4.16,0.01,8.33,0.01,12.49,0.01
				c1.4,0,2.39-1,2.39-2.39c0-4.44,0.01-8.88,0-13.32c0-1.56-0.98-2.52-2.54-2.52c-3.93,0-7.85,0-11.78,0c-3.34,0-6.68-0.01-10.01,0
				c-1.46,0-2.45,0.94-2.46,2.35c-0.01,4.49-0.01,8.98,0,13.47c0,1.46,0.98,2.4,2.44,2.4c1.09,0,2.18,0,3.26,0
				c0.85,0,1.24,0.39,1.25,1.23c0,1,0,2,0,3C9.56,26.25,9.58,26.38,9.59,26.59z"/>
			<path class="st0" d="M15.75,11.24c-2.8,0-5.6,0-8.4,0c-0.66,0-1.11-0.4-1.14-0.99C6.19,9.61,6.65,9.15,7.35,9.15
				c1.9-0.01,3.8,0,5.7,0c3.67,0,7.35,0,11.02,0c0.83,0,1.36,0.64,1.13,1.37c-0.15,0.47-0.53,0.73-1.1,0.73c-1.96,0-3.92,0-5.89,0
				C17.4,11.24,16.57,11.24,15.75,11.24z"/>
			<path class="st0" d="M12.9,16.57c-1.86,0-3.72,0-5.58,0c-0.72,0-1.19-0.54-1.1-1.21c0.08-0.54,0.53-0.89,1.16-0.89
				c1.96,0,3.92,0,5.88,0c1.74,0,3.47,0,5.21,0c0.65,0,1.11,0.37,1.18,0.92c0.08,0.68-0.4,1.18-1.13,1.18c-1.45,0-2.9,0-4.35,0
				C13.75,16.57,13.33,16.57,12.9,16.57C12.9,16.57,12.9,16.57,12.9,16.57z"/>
		</g>
	</g>
	<g id="ynCUM6_2_">
		<g>
			<path d="M16.96,32.5c0.58,0.08,1.16,0.14,1.73,0.24c3.79,0.68,6.9,2.53,9.34,5.5c1.96,2.39,3.1,5.14,3.39,8.21
				c0.39,4.12-0.66,7.85-3.22,11.11c-2.58,3.29-5.97,5.31-10.13,5.8c-6.05,0.72-10.97-1.43-14.65-6.29
				c-1.67-2.2-2.62-4.73-2.85-7.48C0.1,44.1,1.99,39.53,6.22,35.98c2.36-1.98,5.12-3.06,8.17-3.4c0.21-0.02,0.42-0.05,0.62-0.07
				C15.67,32.5,16.32,32.5,16.96,32.5z M21.74,49.02c0-1.37,0-2.7,0-4.05c-0.68,0-1.33,0-1.98,0c-0.66,0-1.33,0-1.99,0
				c0-1.02-0.04-1.99,0.01-2.95c0.06-1.06,0.56-1.52,1.64-1.58c0.72-0.04,1.45-0.03,2.18-0.04c0.1,0,0.19-0.01,0.29-0.02
				c0-1.27,0-2.5,0-3.69c-1.35,0-2.67-0.06-3.99,0.01c-2.06,0.12-3.71,1.64-4.15,3.65c-0.22,1.01-0.17,2.03-0.18,3.05
				c0,0.51,0,1.02,0,1.58c-1.18,0-2.32,0-3.48,0c0,1.37,0,2.69,0,4.05c1.17,0,2.31,0,3.49,0c0,3.48,0,6.93,0,10.37
				c1.4,0,2.77,0,4.17,0c0-3.46,0-6.9,0-10.36C19.09,49.02,20.4,49.02,21.74,49.02z"/>
		</g>
	</g>
	<g>
		<path d="M0.5,92.84c0-8.56,0-17.11,0-25.67c0.02-0.04,0.05-0.09,0.06-0.13c0.15-0.74,0.52-1.34,1.1-1.82
			c0.44-0.37,0.97-0.55,1.51-0.71c8.56,0,17.11,0,25.67,0c0.04,0.02,0.09,0.05,0.13,0.06c0.74,0.15,1.34,0.52,1.82,1.1
			c0.37,0.44,0.55,0.97,0.71,1.51c0,8.56,0,17.11,0,25.67c-0.02,0.04-0.05,0.09-0.06,0.13c-0.15,0.74-0.52,1.34-1.1,1.82
			c-0.44,0.37-0.97,0.55-1.51,0.71c-8.56,0-17.11,0-25.67,0c-0.04-0.02-0.09-0.05-0.13-0.06c-0.74-0.15-1.34-0.52-1.82-1.1
			C0.83,93.9,0.65,93.38,0.5,92.84z M17.55,90.83c0-0.14,0-0.26,0-0.38c0-2.5,0-5,0-7.51c0-0.19,0.01-0.38,0.02-0.57
			c0.12-1.36,1.62-2.36,2.92-1.95c1.07,0.34,1.7,1.21,1.7,2.4c0,2.55,0,5.11,0,7.66c0,0.12,0,0.23,0,0.34c1.58,0,3.11,0,4.64,0
			c0-0.07,0.01-0.12,0.01-0.17c0-2.89,0-5.77,0-8.66c0-0.66-0.11-1.31-0.37-1.92c-0.86-2-2.36-3.19-4.53-3.45
			c-1.47-0.18-2.7,0.41-3.76,1.39c-0.21,0.19-0.39,0.42-0.63,0.69c0-0.63,0-1.2,0-1.78c-1.56,0-3.09,0-4.63,0c0,4.64,0,9.27,0,13.91
			C14.46,90.83,15.98,90.83,17.55,90.83z M5.18,76.92c0,4.66,0,9.28,0,13.91c1.55,0,3.07,0,4.61,0c0-4.65,0-9.27,0-13.91
			C8.24,76.92,6.72,76.92,5.18,76.92z M7.44,74.26c1.54,0.03,2.8-1.2,2.82-2.75c0.02-1.53-1.21-2.79-2.76-2.82
			c-1.51-0.03-2.79,1.23-2.81,2.78C4.67,72.97,5.9,74.23,7.44,74.26z"/>
	</g>
	<g id="NrVFf8_2_">
		<g>
			<path d="M31.43,112c0,2.66,0.21,5.05-0.09,7.54c-0.59,4.86-3.68,7.69-8.6,7.83c-4.43,0.12-8.87,0.12-13.3,0
				c-4.66-0.13-7.87-2.96-8.46-7.71c-0.65-5.22-0.64-10.5,0.01-15.72c0.54-4.41,3.52-7.1,7.99-7.27c4.73-0.17,9.47-0.19,14.19,0
				c4.95,0.19,8.01,3.37,8.26,8.32c0.12,2.33,0.02,4.67,0.02,7.01C31.55,112,31.33,112,31.43,112z M3.7,111.77
				c-0.08,0,0.12,0,0.04,0c0.1,2.36,0.11,4.74,0.33,7.09c0.28,2.97,1.79,4.51,4.78,4.76c2.59,0.22,5.21,0.2,7.82,0.2
				c2.3,0,4.62,0,6.91-0.21c2.74-0.25,4.5-1.91,4.57-4.45c0.14-4.7,0.18-9.4,0.04-14.09c-0.1-3.27-1.89-5-5.14-5.09
				c-4.61-0.12-9.22-0.12-13.83,0c-3.31,0.09-5.03,1.9-5.21,5.25C3.91,107.39,3.7,109.58,3.7,111.77z"/>
			<path d="M23.64,112.21c0.02,4.27-3.33,7.74-7.52,7.77c-4.13,0.03-7.61-3.43-7.62-7.58c-0.01-4.36,3.31-7.83,7.52-7.86
				C20.21,104.5,23.62,107.94,23.64,112.21z M16.1,107.8c-2.39-0.02-4.38,1.98-4.4,4.41c-0.02,2.43,1.93,4.47,4.31,4.5
				c2.42,0.03,4.45-2,4.45-4.46C20.46,109.82,18.5,107.81,16.1,107.8z"/>
			<path d="M26.05,104.65c-0.01,1.02-0.79,1.79-1.8,1.76c-0.94-0.03-1.71-0.84-1.69-1.78c0.02-0.96,0.79-1.75,1.72-1.77
				C25.28,102.84,26.06,103.62,26.05,104.65z"/>
		</g>
	</g>
	<g>
		<path class="st1" d="M16.02,128.49c8.58,0.06,15.49,6.93,15.48,15.52c-0.01,8.61-6.9,15.49-15.5,15.49
			c-8.65,0-15.51-6.93-15.5-15.52C0.51,135.4,7.44,128.54,16.02,128.49z M30.85,144.01c-0.06-8.23-6.64-14.84-14.84-14.84
			c-8.23,0-14.83,6.59-14.84,14.82c-0.01,8.23,6.58,14.85,14.84,14.85C24.22,158.84,30.79,152.26,30.85,144.01z"/>
		<path class="st0" d="M30.85,144.01c-0.06,8.25-6.63,14.83-14.84,14.83c-8.26,0-14.85-6.62-14.84-14.85
			c0.01-8.23,6.6-14.82,14.84-14.82C24.21,129.17,30.79,135.78,30.85,144.01z M20.27,130.89c0-0.01,0-0.01,0-0.02
			c-0.04-0.01-0.08-0.03-0.12-0.04c-2.24-0.71-4.51-0.85-6.81-0.37c-4.83,1-8.05,3.75-9.23,8.65c-0.25,1.03-0.38,2.07-0.15,3.13
			c0.14,0.66,0.5,1.2,0.91,1.72c0.25,0.31,0.43,0.66,0.4,1.07c-0.07,0.85-0.97,1.26-1.74,0.8c-0.45-0.27-0.7-0.7-0.86-1.18
			c-0.35-1.01-0.3-2.04-0.16-3.07c0.09-0.63,0.24-1.25,0.36-1.87c-0.05,0.09-0.09,0.18-0.11,0.28c-0.17,0.92-0.4,1.83-0.5,2.76
			c-0.25,2.33,0.07,4.6,1.03,6.74c1.88,4.21,5.21,6.36,9.76,6.68c1.03,0.07,1.96-0.23,2.74-0.93c0.17-0.15,0.37-0.29,0.57-0.39
			c0.42-0.19,0.84-0.18,1.22,0.11c0.37,0.29,0.51,0.7,0.37,1.13c-0.09,0.29-0.27,0.59-0.51,0.77c-0.3,0.24-0.67,0.41-1.03,0.52
			c-1.1,0.34-2.21,0.21-3.32,0.03c-0.47-0.08-0.94-0.2-1.41-0.3c0.74,0.32,1.52,0.47,2.32,0.57c1.97,0.25,3.92,0.15,5.83-0.4
			c2.84-0.81,5.16-2.35,6.69-4.93c0.95-1.6,1.48-3.36,1.6-5.21c0.07-1.06-0.16-2.06-0.88-2.89c-0.12-0.14-0.23-0.3-0.33-0.46
			c-0.33-0.56-0.25-1.24,0.19-1.58c0.45-0.35,1.17-0.3,1.6,0.19c0.26,0.29,0.47,0.65,0.61,1.02c0.36,0.99,0.31,2.01,0.16,3.03
			c-0.09,0.64-0.24,1.27-0.36,1.9c0.01-0.01,0.04-0.02,0.04-0.04c0.03-0.08,0.05-0.16,0.08-0.24c0.64-2.14,0.74-4.32,0.35-6.51
			c-0.34-1.95-1.05-3.75-2.23-5.36c-1.64-2.23-3.88-3.52-6.56-4.11c-0.99-0.22-1.99-0.35-3.01-0.14c-0.64,0.13-1.17,0.46-1.66,0.87
			c-0.33,0.27-0.68,0.47-1.12,0.44c-0.43-0.03-0.77-0.23-0.94-0.65c-0.18-0.47-0.08-0.9,0.23-1.27c0.33-0.4,0.77-0.61,1.26-0.75
			c0.95-0.27,1.92-0.24,2.89-0.09C19.07,130.62,19.67,130.77,20.27,130.89z"/>
		<path class="st1" d="M20.27,130.89c-0.6-0.12-1.21-0.28-1.82-0.37c-0.96-0.15-1.93-0.18-2.89,0.09c-0.49,0.14-0.93,0.36-1.26,0.75
			c-0.31,0.38-0.42,0.8-0.23,1.27c0.16,0.42,0.51,0.61,0.94,0.65c0.44,0.03,0.8-0.17,1.12-0.44c0.49-0.41,1.02-0.74,1.66-0.87
			c1.02-0.21,2.01-0.08,3.01,0.14c2.67,0.59,4.91,1.88,6.56,4.11c1.18,1.6,1.89,3.41,2.23,5.36c0.38,2.19,0.29,4.37-0.35,6.51
			c-0.02,0.08-0.05,0.16-0.08,0.24c-0.01,0.02-0.03,0.03-0.04,0.04c0.12-0.63,0.27-1.26,0.36-1.9c0.15-1.02,0.21-2.05-0.16-3.03
			c-0.14-0.37-0.35-0.73-0.61-1.02c-0.43-0.49-1.16-0.55-1.6-0.19c-0.44,0.35-0.52,1.03-0.19,1.58c0.1,0.16,0.21,0.32,0.33,0.46
			c0.72,0.84,0.95,1.83,0.88,2.89c-0.13,1.86-0.65,3.61-1.6,5.21c-1.53,2.58-3.85,4.12-6.69,4.93c-1.91,0.55-3.86,0.64-5.83,0.4
			c-0.8-0.1-1.58-0.25-2.32-0.57c0.47,0.1,0.93,0.23,1.41,0.3c1.11,0.18,2.22,0.31,3.32-0.03c0.37-0.11,0.74-0.29,1.03-0.52
			c0.23-0.18,0.42-0.49,0.51-0.77c0.13-0.43,0-0.84-0.37-1.13c-0.38-0.3-0.8-0.31-1.22-0.11c-0.21,0.1-0.4,0.24-0.57,0.39
			c-0.78,0.7-1.71,1-2.74,0.93c-4.56-0.32-7.88-2.47-9.76-6.68c-0.96-2.14-1.28-4.41-1.03-6.74c0.1-0.93,0.33-1.84,0.5-2.76
			c0.02-0.1,0.06-0.19,0.11-0.28c-0.12,0.62-0.27,1.24-0.36,1.87c-0.15,1.03-0.19,2.06,0.16,3.07c0.17,0.48,0.42,0.9,0.86,1.18
			c0.77,0.47,1.67,0.05,1.74-0.8c0.03-0.41-0.15-0.76-0.4-1.07c-0.41-0.52-0.77-1.06-0.91-1.72c-0.23-1.06-0.1-2.1,0.15-3.13
			c1.18-4.9,4.4-7.65,9.23-8.65c2.3-0.48,4.57-0.34,6.81,0.37c0.04,0.01,0.08,0.03,0.12,0.04
			C20.27,130.88,20.27,130.89,20.27,130.89z M19.02,142.41c-0.11,0.07-0.19,0.12-0.27,0.16c-2.09,1.23-3.1,3.42-2.63,5.79
			c0.5,2.55,2.59,4.02,4.99,3.72c2.15-0.27,4.08-2.44,3.47-4.98c-0.4-1.67-1.65-2.58-3.28-2.37c-1.67,0.22-2.64,2.02-1.88,3.47
			c0.24,0.47,0.61,0.78,1.15,0.85c0.27,0.04,0.51-0.03,0.67-0.27c0.16-0.24,0.12-0.48-0.04-0.71c-0.11-0.16-0.24-0.29-0.35-0.45
			c-0.42-0.6-0.16-1.33,0.54-1.53c0.6-0.17,1.19,0.12,1.51,0.74c0.55,1.07,0.21,2.57-0.74,3.33c-1.25,0.99-3.02,0.61-3.9-0.85
			c-0.56-0.93-0.69-1.94-0.52-2.99c0.24-1.46,0.99-2.54,2.39-3.11c0.15-0.06,0.34-0.05,0.52-0.06c0.52-0.02,1.05,0.01,1.57-0.06
			c0.4-0.05,0.59-0.29,0.6-0.59c0.01-0.31-0.15-0.5-0.54-0.65c-0.5-0.19-1.01-0.17-1.53-0.06c-0.43,0.1-0.54,0.04-0.78-0.31
			c-0.15-0.22-0.15-0.35,0.08-0.55c0.62-0.53,1.24-1.09,1.81-1.68c0.51-0.53,0.83-1.19,0.94-1.93c0.13-0.88-0.39-1.61-1.25-1.74
			c-0.72-0.11-1.34,0.14-1.86,0.62c-1.29,1.19-1.67,2.72-1.51,4.41c0.02,0.18-0.03,0.27-0.16,0.36c-0.5,0.33-0.99,0.68-1.5,1.01
			c-0.54,0.35-1.09,0.67-1.71,1.05c0.12-0.61,0.03-1.18,0.5-1.62c0.25-0.23,0.43-0.54,0.62-0.84c0.12-0.19,0.2-0.42,0.27-0.64
			c0.07-0.25,0.05-0.53-0.18-0.66c-0.18-0.1-0.45-0.13-0.65-0.07c-0.23,0.07-0.47,0.24-0.6,0.43c-0.27,0.4-0.53,0.82-0.67,1.28
			c-0.26,0.83-0.9,1.2-1.63,1.44c-0.48,0.16-0.83-0.07-0.93-0.54c0.09-0.04,0.18-0.09,0.27-0.14c1.73-0.94,2.91-2.31,3.3-4.28
			c0.23-1.18-0.54-1.98-1.72-1.81c-0.73,0.1-1.28,0.51-1.76,1.03c-0.55,0.61-0.97,1.31-1.21,2.1c-0.19,0.63-0.31,1.28-0.47,1.93
			c-0.34-0.03-0.57-0.23-0.71-0.66c-0.17-0.55-0.05-1.09,0.08-1.62c0.06-0.22,0.08-0.43-0.12-0.58c-0.22-0.16-0.45-0.07-0.64,0.08
			c-0.12,0.09-0.24,0.2-0.29,0.33c-0.13,0.3-0.25,0.61-0.31,0.92c-0.25,1.3,0.56,2.56,1.79,2.78c0.25,0.04,0.35,0.14,0.44,0.37
			c0.34,0.88,1.25,1.48,2.16,1.24c0.41-0.11,0.81-0.26,1.22-0.39c-0.01,0.33-0.05,0.66-0.5,0.82c-0.28,0.09-0.52,0.27-0.79,0.41
			c-1.15,0.61-2.29,1.24-3.25,2.12c-0.98,0.9-1.65,1.97-1.6,3.37c0.04,1.01,0.72,1.9,1.7,2.16c1.07,0.29,2.05,0.04,2.94-0.58
			c1.14-0.81,1.84-1.97,2.16-3.3c0.27-1.12,0.37-2.28,0.52-3.43c0.03-0.23,0.12-0.34,0.31-0.46c1.13-0.7,2.25-1.42,3.37-2.13
			c0.08-0.05,0.16-0.09,0.24-0.14C18.78,142.12,18.88,142.25,19.02,142.41z"/>
		<path class="st0" d="M19.02,142.41c-0.13-0.16-0.24-0.29-0.36-0.43c-0.08,0.05-0.16,0.09-0.24,0.14
			c-1.12,0.71-2.24,1.43-3.37,2.13c-0.18,0.11-0.28,0.22-0.31,0.46c-0.15,1.15-0.24,2.31-0.52,3.43c-0.33,1.33-1.02,2.48-2.16,3.3
			c-0.88,0.63-1.86,0.88-2.94,0.58c-0.97-0.27-1.66-1.15-1.7-2.16c-0.05-1.4,0.62-2.47,1.6-3.37c0.96-0.89,2.1-1.52,3.25-2.12
			c0.26-0.14,0.51-0.31,0.79-0.41c0.44-0.15,0.49-0.49,0.5-0.82c-0.4,0.13-0.8,0.28-1.22,0.39c-0.91,0.24-1.82-0.36-2.16-1.24
			c-0.09-0.22-0.19-0.32-0.44-0.37c-1.23-0.22-2.04-1.48-1.79-2.78c0.06-0.32,0.18-0.62,0.31-0.92c0.05-0.13,0.18-0.24,0.29-0.33
			c0.19-0.14,0.42-0.24,0.64-0.08c0.2,0.14,0.18,0.36,0.12,0.58c-0.13,0.53-0.25,1.07-0.08,1.62c0.13,0.42,0.37,0.63,0.71,0.66
			c0.15-0.65,0.27-1.3,0.47-1.93c0.24-0.78,0.65-1.49,1.21-2.1c0.48-0.53,1.03-0.93,1.76-1.03c1.18-0.17,1.95,0.63,1.72,1.81
			c-0.39,1.97-1.58,3.34-3.3,4.28c-0.09,0.05-0.18,0.09-0.27,0.14c0.1,0.48,0.45,0.71,0.93,0.54c0.73-0.25,1.37-0.61,1.63-1.44
			c0.14-0.45,0.41-0.88,0.67-1.28c0.13-0.19,0.38-0.36,0.6-0.43c0.19-0.06,0.47-0.03,0.65,0.07c0.23,0.13,0.25,0.41,0.18,0.66
			c-0.06,0.22-0.15,0.44-0.27,0.64c-0.18,0.3-0.37,0.6-0.62,0.84c-0.47,0.44-0.38,1.01-0.5,1.62c0.62-0.38,1.17-0.7,1.71-1.05
			c0.51-0.32,1-0.67,1.5-1.01c0.13-0.09,0.17-0.17,0.16-0.36c-0.15-1.69,0.23-3.22,1.51-4.41c0.51-0.48,1.13-0.73,1.86-0.62
			c0.86,0.13,1.38,0.87,1.25,1.74c-0.11,0.75-0.43,1.4-0.94,1.93c-0.57,0.59-1.18,1.14-1.81,1.68c-0.23,0.19-0.23,0.33-0.08,0.55
			c0.24,0.36,0.36,0.41,0.78,0.31c0.51-0.12,1.02-0.13,1.53,0.06c0.4,0.15,0.55,0.34,0.54,0.65c-0.01,0.3-0.2,0.54-0.6,0.59
			c-0.52,0.06-1.05,0.04-1.57,0.06c-0.17,0.01-0.36-0.01-0.52,0.06c-1.39,0.57-2.15,1.65-2.39,3.11c-0.17,1.05-0.04,2.06,0.52,2.99
			c0.88,1.45,2.65,1.83,3.9,0.85c0.96-0.76,1.29-2.26,0.74-3.33c-0.32-0.62-0.91-0.91-1.51-0.74c-0.71,0.2-0.97,0.93-0.54,1.53
			c0.11,0.16,0.24,0.29,0.35,0.45c0.16,0.22,0.2,0.47,0.04,0.71c-0.16,0.24-0.4,0.3-0.67,0.27c-0.54-0.07-0.9-0.38-1.15-0.85
			c-0.77-1.45,0.21-3.25,1.88-3.47c1.63-0.22,2.89,0.7,3.28,2.37c0.6,2.54-1.32,4.71-3.47,4.98c-2.4,0.3-4.49-1.17-4.99-3.72
			c-0.46-2.38,0.55-4.57,2.63-5.79C18.83,142.53,18.91,142.48,19.02,142.41z M13.31,145.23c-0.08,0.03-0.13,0.03-0.17,0.06
			c-1.13,0.58-2.2,1.26-3.1,2.17c-0.49,0.5-0.93,1.05-1.08,1.75c-0.09,0.44-0.14,0.89,0.21,1.25c0.32,0.33,0.73,0.3,1.13,0.22
			c0.86-0.18,1.41-0.76,1.83-1.48C12.83,147.98,13.1,146.63,13.31,145.23z M11.37,140.46c0.03,0.01,0.07,0.03,0.1,0.04
			c0.9-0.62,1.6-1.42,2.1-2.39c0.13-0.26,0.23-0.55,0.26-0.84c0.05-0.41-0.28-0.61-0.64-0.4c-0.2,0.12-0.39,0.3-0.54,0.48
			c-0.52,0.65-0.87,1.39-1.1,2.19C11.49,139.85,11.44,140.16,11.37,140.46z M19.52,139.89c0.79-0.74,1.5-1.43,1.91-2.35
			c0.05-0.11,0.07-0.24,0.07-0.37c0-0.29-0.24-0.47-0.49-0.33c-0.26,0.15-0.5,0.35-0.68,0.59
			C19.81,138.13,19.58,138.93,19.52,139.89z"/>
		<path class="st1" d="M13.31,145.23c-0.21,1.4-0.48,2.75-1.18,3.96c-0.42,0.73-0.97,1.31-1.83,1.48c-0.4,0.08-0.81,0.11-1.13-0.22
			c-0.35-0.36-0.31-0.81-0.21-1.25c0.15-0.71,0.59-1.25,1.08-1.75c0.9-0.91,1.96-1.59,3.1-2.17
			C13.18,145.27,13.23,145.26,13.31,145.23z"/>
		<path class="st1" d="M11.37,140.46c0.07-0.3,0.12-0.61,0.2-0.91c0.23-0.8,0.57-1.54,1.1-2.19c0.15-0.19,0.33-0.36,0.54-0.48
			c0.35-0.22,0.69-0.01,0.64,0.4c-0.04,0.29-0.13,0.58-0.26,0.84c-0.5,0.97-1.21,1.77-2.1,2.39
			C11.44,140.49,11.41,140.47,11.37,140.46z"/>
		<path class="st1" d="M19.52,139.89c0.07-0.96,0.3-1.77,0.81-2.46c0.18-0.24,0.43-0.44,0.68-0.59c0.25-0.15,0.49,0.04,0.49,0.33
			c0,0.12-0.02,0.26-0.07,0.37C21.01,138.47,20.31,139.15,19.52,139.89z"/>
	</g>
	<g id="XMLID_3_">
		<g>
			<polygon id="XMLID_137_" class="st0" points="17.24,186.49 17.24,186.14 17.24,185.78 16.89,185.42 16.53,185.07 16.17,185.07 
				15.82,185.07 15.82,185.42 15.82,185.78 15.82,186.14 15.82,186.49 15.46,186.49 15.1,186.49 15.1,186.14 15.1,185.78 
				15.1,185.42 15.1,185.07 15.1,184.71 15.1,184.36 14.75,184 14.39,183.64 14.04,183.64 13.68,183.64 13.68,184 13.68,184.36 
				13.68,184.71 13.68,185.07 13.68,185.42 13.68,185.78 13.68,186.14 13.68,186.49 13.68,186.85 13.68,187.2 14.04,187.56 
				14.39,187.92 14.75,187.92 15.1,187.92 15.46,187.92 15.82,187.92 15.82,188.27 15.82,188.63 16.17,188.98 16.53,189.34 
				16.89,189.34 17.24,189.34 17.24,188.98 17.24,188.63 17.24,188.27 17.24,187.92 17.6,187.56 17.95,187.2 17.95,186.85 
				17.95,186.49 17.6,186.49 			"/>
			<polygon id="XMLID_136_" class="st0" points="22.25,184.71 21.89,184.35 21.54,184.35 21.19,184.35 21.19,184.71 21.19,185.06 
				21.19,185.41 21.19,185.77 21.19,186.12 21.19,186.47 21.19,186.83 21.19,187.18 21.19,187.54 21.19,187.89 20.83,187.89 
				20.48,187.89 20.13,187.89 19.77,187.89 19.77,187.54 19.77,187.18 19.77,186.83 19.77,186.47 19.77,186.12 19.77,185.77 
				19.77,185.41 19.77,185.06 19.42,184.71 19.07,184.35 18.71,184.35 18.36,184.35 18.36,184.71 18.36,185.06 18.36,185.41 
				18.36,185.77 18.36,186.12 18.36,186.47 18.36,186.83 18.36,187.18 18.36,187.54 18.36,187.89 18.36,188.24 18.36,188.6 
				18.71,188.95 19.07,189.3 19.42,189.3 19.77,189.3 20.13,189.3 20.48,189.3 20.83,188.95 21.19,188.6 21.19,188.95 21.19,189.3 
				21.54,189.3 21.89,189.3 22.25,189.3 22.6,189.3 22.6,188.95 22.6,188.6 22.6,188.24 22.6,187.89 22.6,187.54 22.6,187.18 
				22.6,186.83 22.6,186.47 22.6,186.12 22.6,185.77 22.6,185.41 22.6,185.06 			"/>
			<polygon id="XMLID_135_" class="st0" points="12.41,185.06 12.06,184.7 11.7,184.7 11.7,184.35 11.35,184 11,183.64 
				10.64,183.64 10.29,183.64 10.29,184 10.29,184.35 10.29,184.7 9.94,184.7 9.58,184.7 9.23,184.7 8.87,184.7 8.87,185.06 
				9.23,185.41 9.58,185.76 9.94,186.12 10.29,186.12 10.29,186.47 10.29,186.83 10.29,187.18 10.29,187.53 10.29,187.89 
				10.29,188.24 10.29,188.6 10.64,188.95 11,189.3 11.35,189.3 11.7,189.3 12.06,189.3 12.41,189.3 12.77,188.95 13.12,188.6 
				13.12,188.24 13.12,187.89 12.77,187.89 12.41,187.89 12.06,187.89 11.7,187.89 11.7,187.53 11.7,187.18 11.7,186.83 
				11.7,186.47 11.7,186.12 12.06,186.12 12.41,186.12 12.77,186.12 13.12,186.12 13.12,185.76 12.77,185.41 			"/>
			<path id="XMLID_108_" class="st0" d="M31.37,170.68c0.07,0,0.13-0.06,0.13-0.13v-0.24c0-0.07-0.06-0.13-0.13-0.13h-0.82v-0.82
				c0-0.04-0.01-0.07-0.04-0.1c-0.03-0.03-0.06-0.04-0.1-0.04h0l-0.24,0c-0.07,0-0.13,0.06-0.13,0.13v0.9l-0.88,0.88H27.4v-1.75
				l0.87-0.87h0.89c0.07,0,0.13-0.06,0.13-0.13v-0.24c0-0.07-0.06-0.13-0.13-0.13h-0.82v-0.82c0-0.04-0.01-0.07-0.04-0.1
				c-0.03-0.03-0.06-0.04-0.1-0.04h0l-0.24,0c-0.07,0-0.13,0.06-0.13,0.13v0.9l-0.79,0.8l-0.03,0.03l-0.87-0.87
				c-0.01-0.01-0.03-0.02-0.05-0.03l-0.86-0.86l0.83-0.83h0.9c0.07,0,0.13-0.06,0.13-0.13v-0.24c0-0.07-0.06-0.13-0.13-0.13h-0.82
				v-0.82c0-0.04-0.01-0.07-0.04-0.1c-0.03-0.03-0.06-0.04-0.1-0.04h0l-0.24,0c-0.07,0-0.13,0.06-0.13,0.13v0.89l-0.89,0.89h-1.76
				V165l0.88-0.88h0.9c0.07,0,0.13-0.06,0.13-0.13v-0.24c0-0.07-0.06-0.13-0.13-0.13h-0.82v-0.82c0-0.07-0.06-0.13-0.13-0.13h-0.24
				c-0.07,0-0.13,0.06-0.13,0.13v0.89l-0.83,0.82l-0.83-0.83v-0.89c0-0.07-0.06-0.13-0.13-0.13h-0.24c-0.07,0-0.13,0.06-0.13,0.13
				v0.82h-0.82c-0.01,0-0.02,0-0.04,0.01c-0.01,0-0.02-0.01-0.04-0.01h-0.82v-0.82c0-0.07-0.06-0.13-0.13-0.13h-0.24
				c-0.07,0-0.13,0.06-0.13,0.13v0.88l-0.84,0.84l-0.83-0.83v-0.89c0-0.07-0.06-0.13-0.13-0.13h-0.24c-0.07,0-0.13,0.06-0.13,0.13
				v0.82h-0.82c-0.02,0-0.04,0.01-0.06,0.02c-0.02-0.01-0.04-0.02-0.06-0.02h-0.82v-0.82c0-0.07-0.06-0.13-0.13-0.13h-0.24
				c-0.07,0-0.13,0.06-0.13,0.13v0.89l-0.82,0.82l-0.84-0.84v-0.88c0-0.07-0.06-0.13-0.13-0.13h-0.24c-0.07,0-0.13,0.06-0.13,0.13
				v0.82h-0.82c-0.01,0-0.03,0-0.04,0.01c-0.01,0-0.02-0.01-0.04-0.01h-0.82v-0.82c0-0.07-0.06-0.13-0.13-0.13h-0.24
				c-0.07,0-0.13,0.06-0.13,0.13v0.89l-0.83,0.83l-0.82-0.82v-0.9c0-0.07-0.06-0.13-0.13-0.13H8.19c-0.07,0-0.13,0.06-0.13,0.13
				v0.82H7.23c-0.04,0-0.07,0.01-0.1,0.04c-0.03,0.03-0.04,0.06-0.04,0.1l0,0.24c0,0.07,0.06,0.13,0.13,0.13h0.9L9.01,165v1.76H7.25
				l-0.88-0.88v-0.9c0-0.07-0.06-0.13-0.13-0.13H5.99c-0.07,0-0.13,0.06-0.13,0.13v0.82H5.04c-0.04,0-0.07,0.01-0.1,0.04
				c-0.03,0.03-0.04,0.06-0.04,0.1l0,0.24c0,0.07,0.06,0.13,0.13,0.13h0.89l0.83,0.83l-0.9,0.89c0,0-0.01,0-0.01,0.01l-0.27,0.27
				l-0.6,0.59l-0.82-0.82v-0.9c0-0.07-0.06-0.13-0.13-0.13H3.78c-0.07,0-0.13,0.06-0.13,0.13v0.82H2.83c-0.04,0-0.07,0.01-0.1,0.04
				c-0.03,0.03-0.04,0.06-0.04,0.1l0,0.24c0,0.07,0.06,0.13,0.13,0.13h0.89l0.88,0.88v1.76H2.84l-0.88-0.88v-0.9
				c0-0.07-0.06-0.13-0.13-0.13H1.59c-0.07,0-0.13,0.06-0.13,0.13v0.82H0.64c-0.04,0-0.07,0.01-0.1,0.04
				c-0.03,0.03-0.04,0.06-0.04,0.1l0,0.24c0,0.07,0.06,0.13,0.13,0.13h0.89l0.83,0.83l-0.83,0.83h-0.9c-0.07,0-0.13,0.06-0.13,0.13
				v0.24c0,0.07,0.06,0.13,0.13,0.13h0.82v0.92v0.17v0.65H0.64c-0.04,0-0.07,0.01-0.1,0.04c-0.03,0.03-0.04,0.06-0.04,0.1l0,0.24
				c0,0.07,0.06,0.13,0.13,0.13h0.9l0.83,0.83l-0.83,0.83H0.64c-0.07,0-0.13,0.06-0.13,0.13v0.24c0,0.07,0.06,0.13,0.13,0.13h0.82
				v0.82c0,0.04,0.01,0.07,0.04,0.1c0.03,0.03,0.06,0.04,0.1,0.04h0l0.24,0c0.07,0,0.13-0.06,0.13-0.13v-0.9l0.88-0.88H4.6v1.76
				l-0.88,0.88h-0.9c-0.07,0-0.13,0.06-0.13,0.13v0.24c0,0.07,0.06,0.13,0.13,0.13h0.82v0.82c0,0.04,0.01,0.07,0.04,0.1
				c0.03,0.03,0.06,0.04,0.1,0.04h0l0.24,0c0.07,0,0.13-0.06,0.13-0.13v-0.9l0.83-0.83l0.87,0.87c0.03,0.03,0.06,0.04,0.1,0.04
				c0.04,0,0.07-0.01,0.1-0.04l0.24-0.24c0.05-0.05,0.05-0.14,0-0.19l-0.92-0.92v-1.82l1.9-1.9l3.77,0l2.62,2.62v5.11H9.11
				c-0.07,0-0.13,0.06-0.13,0.13v0.72c0,0.07,0.06,0.13,0.13,0.13h13.77c0.07,0,0.13-0.06,0.13-0.13v-0.72
				c0-0.07-0.06-0.13-0.13-0.13H18.4v-5.16l2.58-2.58l3.77,0l1.9,1.9v1.82l-0.92,0.92c-0.05,0.05-0.05,0.14,0,0.19l0.24,0.24
				c0.03,0.03,0.06,0.04,0.1,0.04h0c0.04,0,0.07-0.01,0.1-0.04l0.87-0.87l0.83,0.83v0.89c0,0.07,0.06,0.13,0.13,0.13l0.24,0h0
				c0.04,0,0.07-0.01,0.1-0.04c0.03-0.03,0.04-0.06,0.04-0.1v-0.82h0.82c0.07,0,0.13-0.06,0.13-0.13v-0.24
				c0-0.07-0.06-0.13-0.13-0.13h-0.9l-0.88-0.88v-1.76h1.76l0.88,0.88v0.9c0,0.07,0.06,0.13,0.13,0.13l0.24,0h0
				c0.04,0,0.07-0.01,0.1-0.04c0.03-0.03,0.04-0.06,0.04-0.1v-0.82h0.82c0.07,0,0.13-0.06,0.13-0.13v-0.24
				c0-0.07-0.06-0.13-0.13-0.13h-0.89l-0.83-0.83l0.83-0.83h0.9c0.07,0,0.13-0.06,0.13-0.13v-0.24c0-0.07-0.06-0.13-0.13-0.13h-0.82
				v-0.66v-0.16v-0.93h0.82c0.07,0,0.13-0.06,0.13-0.13v-0.24c0-0.07-0.06-0.13-0.13-0.13h-0.9l-0.83-0.83l0.83-0.83H31.37z
				 M14.16,165l0.88-0.88h0.9c0.02,0,0.04-0.01,0.06-0.02c0.02,0.01,0.04,0.02,0.06,0.02h0.9l0.88,0.88v1.76h-0.18h-1.63h-0.05
				h-1.46h-0.36V165z M4.68,175.55H2.84l-0.88-0.88v-0.72l0,0v-1.17l0.88-0.88h1.84l1.82,1.82L4.68,175.55z M10.95,173.1h-3.7
				l-1.9-1.9v-1.81l0.2-0.2l0.74-0.73c0.01-0.01,0.02-0.01,0.03-0.02l0.75-0.75l0.18-0.18h1.82l1.89,1.89V173.1z M9.76,166.85V165
				l0.88-0.88h0.9c0.01,0,0.03,0,0.04-0.01c0.01,0,0.02,0.01,0.04,0.01h0.91L13.4,165v1.83l-1.83,1.83L9.76,166.85z M14.88,182.08
				h-0.36v-4.24l0.36,0.36V182.08z M17.12,182.08v-3.88l0.41-0.41v4.29H17.12z M19.8,173.17l-3.8,3.8l-3.8-3.8v-3.77l1.89-1.89h0.43
				h1.46h0.05h1.63h0.25l1.89,1.89V173.17z M20.42,168.66l-1.82-1.82V165l0.88-0.88h0.91c0.01,0,0.02,0,0.04-0.01
				c0.01,0,0.02,0.01,0.04,0.01h0.9l0.88,0.88v1.85L20.42,168.66z M21.04,173.1v-3.7l1.89-1.89h1.82l0.92,0.92
				c0.01,0.01,0.03,0.02,0.05,0.03l0.92,0.92v1.81l-1.9,1.9H21.04z M30.04,172.77v1.01v0.16v0.73l-0.88,0.88h-1.85l-1.83-1.83
				l1.84-1.84h1.83L30.04,172.77z"/>
		</g>
	</g>
	<g>
		<circle class="st2" cx="15.94" cy="207.89" r="12.08"/>
		<path class="st1" d="M2.98,206.47c0.29,0.07,0.52,0.22,0.69,0.45c0.17,0.23,0.25,0.51,0.25,0.83c0,0.4-0.13,0.74-0.39,1
			c-0.26,0.26-0.59,0.39-0.98,0.39c-0.4,0-0.72-0.13-0.98-0.39c-0.26-0.26-0.38-0.59-0.38-0.98c0-0.32,0.09-0.6,0.26-0.83
			c0.17-0.23,0.4-0.38,0.7-0.44l0.13,0.54c-0.37,0.1-0.56,0.34-0.56,0.71c0,0.23,0.08,0.42,0.23,0.57c0.16,0.14,0.36,0.21,0.6,0.21
			c0.24,0,0.44-0.07,0.6-0.21c0.16-0.14,0.24-0.33,0.24-0.57c0-0.36-0.19-0.64-0.55-0.73L2.98,206.47z"/>
		<path class="st1" d="M4.39,204.58c-0.11,0.39-0.33,0.68-0.64,0.86c-0.32,0.18-0.67,0.21-1.05,0.11c-0.38-0.11-0.66-0.33-0.83-0.65
			c-0.17-0.33-0.2-0.68-0.09-1.07c0.11-0.39,0.33-0.68,0.65-0.86c0.32-0.18,0.67-0.22,1.05-0.11c0.38,0.11,0.66,0.33,0.83,0.65
			C4.47,203.83,4.5,204.19,4.39,204.58z M2.66,203.49c-0.19,0.09-0.32,0.25-0.39,0.48s-0.04,0.43,0.07,0.61
			c0.11,0.18,0.28,0.3,0.52,0.37s0.45,0.05,0.64-0.04c0.19-0.1,0.32-0.26,0.38-0.48c0.07-0.23,0.04-0.43-0.07-0.61
			c-0.11-0.18-0.29-0.3-0.52-0.37C3.06,203.38,2.85,203.4,2.66,203.49z"/>
		<path class="st1" d="M5.04,202.56l-2.22-1.37l0.27-0.43l2.05-0.21l-1.4-0.86l0.29-0.48l2.22,1.37l-0.26,0.43l-2.05,0.21l1.4,0.86
			L5.04,202.56z"/>
		<path class="st1" d="M6.83,199.88l-1.79-1.91l0.37-0.35l2.04,0.35l-1.12-1.2l0.41-0.38l1.79,1.91l-0.37,0.34l-2.04-0.34l1.13,1.2
			L6.83,199.88z"/>
		<path class="st1" d="M9.56,197.05l1.06-0.6l0.25,0.44l-1.57,0.88l-1.28-2.28l1.54-0.87l0.25,0.44l-1.03,0.58l0.26,0.46l0.95-0.53
			l0.25,0.44l-0.95,0.53L9.56,197.05z"/>
		<path class="st1" d="M13.74,195.05c0.02,0.3-0.06,0.56-0.24,0.79c-0.18,0.23-0.42,0.38-0.73,0.46c-0.39,0.11-0.74,0.08-1.07-0.1
			c-0.32-0.18-0.54-0.46-0.64-0.84c-0.11-0.38-0.07-0.73,0.11-1.05c0.18-0.32,0.46-0.53,0.84-0.63c0.31-0.09,0.6-0.08,0.87,0.03
			s0.48,0.28,0.62,0.55l-0.49,0.27c-0.2-0.33-0.48-0.44-0.84-0.34c-0.23,0.06-0.39,0.19-0.48,0.38c-0.09,0.19-0.1,0.4-0.04,0.63
			c0.07,0.23,0.19,0.41,0.37,0.52c0.18,0.12,0.38,0.14,0.61,0.08c0.35-0.1,0.56-0.36,0.55-0.73L13.74,195.05z"/>
		<path class="st1" d="M16.52,193.18l0.02,0.51l-0.82,0.03l0.08,2.11l-0.59,0.02l-0.07-2.11l-0.81,0.03l-0.02-0.5L16.52,193.18z"/>
		<path class="st1" d="M19.13,193.51l0.57,0.17l-0.43,1.43c-0.12,0.39,0,0.69,0.36,0.79c0.36,0.11,0.62-0.07,0.74-0.46l0.43-1.42
			l0.56,0.17l-0.46,1.52c-0.1,0.32-0.28,0.55-0.55,0.67s-0.56,0.13-0.88,0.03c-0.32-0.1-0.55-0.27-0.71-0.52
			c-0.15-0.25-0.18-0.54-0.08-0.86L19.13,193.51z"/>
		<path class="st1" d="M21.65,196.26l0.5,0.16c-0.08,0.35,0.01,0.6,0.29,0.76c0.22,0.14,0.42,0.14,0.53-0.03
			c0.1-0.16,0-0.31-0.21-0.51l-0.17-0.15c-0.4-0.36-0.5-0.71-0.29-1.06c0.13-0.22,0.32-0.35,0.55-0.37
			c0.23-0.02,0.47,0.04,0.71,0.19c0.43,0.25,0.67,0.67,0.46,1.23l-0.51-0.17c0.09-0.28,0.02-0.49-0.21-0.63
			c-0.18-0.11-0.37-0.13-0.46,0.03c-0.08,0.14-0.01,0.31,0.24,0.52l0.16,0.14c0.38,0.33,0.47,0.7,0.25,1.07
			c-0.31,0.52-0.88,0.44-1.33,0.17C21.64,197.3,21.48,196.85,21.65,196.26z"/>
		<path class="st1" d="M28.53,200.22l0.36,0.48l-2.63,0.85l-0.3-0.4l1.04-1.52l-1.75,0.57l-0.3-0.4l1.55-2.28l0.36,0.48l-1.03,1.47
			l1.71-0.55l0.3,0.41l-1.02,1.48L28.53,200.22z"/>
		<path class="st1" d="M26.92,202.84l2.4-1.03l0.23,0.54l-2.4,1.03L26.92,202.84z"/>
		<path class="st1" d="M30.47,205.49l-0.49,0.12l-0.19-0.79l-2.05,0.49l-0.14-0.57l2.05-0.49l-0.19-0.79l0.49-0.12L30.47,205.49z"/>
		<path class="st1" d="M30.64,208.43l0,0.59l-2.62,0.01l0-0.59l1.07,0l0-1.14l-1.07,0l0-0.59l2.62-0.01l0,0.59l-1.04,0l0,1.14
			L30.64,208.43z"/>
	</g>
</g>
<g>
</g>
<g>
</g>
<g>
</g>
<g>
</g>
<g>
</g>
<g>
</g>
<g>
</g>
<g>
</g>
<g>
</g>
<g>
</g>
<g>
</g>
<g>
</g>
<g>
</g>
<g>
</g>
<g>
</g>
</svg>
