<?xml version="1.0" encoding="utf-8"?>
<!-- Generator: Adobe Illustrator 24.1.2, SVG Export Plug-In . SVG Version: 6.00 Build 0)  -->
<svg version="1.1" id="Layer_1" xmlns="http://www.w3.org/2000/svg" xmlns:xlink="http://www.w3.org/1999/xlink" x="0px" y="0px"
	 viewBox="0 0 64 224" style="enable-background:new 0 0 64 224;" xml:space="preserve">
<style type="text/css">
	.st0{fill:#19181B;}
	.st1{fill:#FFFFFF;}
	.st2{fill:none;}
	.st3{fill:#020202;}
</style>
<g id="cto2IU.tif_3_">
	<g>
		<path class="st0" d="M7.5,24c-0.9,0-1.7,0-2.5,0c-2.1,0-3.8-1.3-4.3-3.3c-0.1-0.4-0.1-0.7-0.1-1.1c0-4.6,0-9.1,0-13.6
			c0-2.5,2-4.4,4.6-4.4c6.1,0,12.3,0,18.4,0c1.3,0,2.7-0.1,4,0.1c2.4,0.2,4,2,4,4.4c0,3,0,6.1,0,9.1c0,1.4,0,2.9,0,4.3
			c0,2.5-1.9,4.5-4.5,4.5c-3.9,0-7.9,0-11.8,0c-0.4,0-0.6,0.1-0.9,0.4c-1.7,1.9-3.4,3.8-5,5.7c-0.6,0.6-1.5,0.4-1.8-0.2
			c-0.1-0.2-0.1-0.4-0.1-0.6c0-1.6,0-3.2,0-4.8C7.5,24.3,7.5,24.1,7.5,24z M9.6,26.6c0.2-0.2,0.3-0.3,0.4-0.4
			c1.1-1.3,2.2-2.5,3.3-3.8c0.3-0.4,0.7-0.5,1.2-0.5c4.2,0,8.3,0,12.5,0c1.4,0,2.4-1,2.4-2.4c0-4.4,0-8.9,0-13.3
			c0-1.6-1-2.5-2.5-2.5c-3.9,0-7.9,0-11.8,0c-3.3,0-6.7,0-10,0C3.6,3.7,2.6,4.6,2.6,6c0,4.5,0,9,0,13.5c0,1.5,1,2.4,2.4,2.4
			c1.1,0,2.2,0,3.3,0c0.9,0,1.2,0.4,1.3,1.2c0,1,0,2,0,3C9.6,26.3,9.6,26.4,9.6,26.6z"/>
		<path class="st0" d="M15.8,11.2c-2.8,0-5.6,0-8.4,0c-0.7,0-1.1-0.4-1.1-1c0-0.6,0.4-1.1,1.1-1.1c1.9,0,3.8,0,5.7,0
			c3.7,0,7.4,0,11,0c0.8,0,1.4,0.6,1.1,1.4c-0.1,0.5-0.5,0.7-1.1,0.7c-2,0-3.9,0-5.9,0C17.4,11.2,16.6,11.2,15.8,11.2z"/>
		<path class="st0" d="M12.9,16.6c-1.9,0-3.7,0-5.6,0c-0.7,0-1.2-0.5-1.1-1.2c0.1-0.5,0.5-0.9,1.2-0.9c2,0,3.9,0,5.9,0
			c1.7,0,3.5,0,5.2,0c0.6,0,1.1,0.4,1.2,0.9c0.1,0.7-0.4,1.2-1.1,1.2c-1.5,0-2.9,0-4.4,0C13.8,16.6,13.3,16.6,12.9,16.6L12.9,16.6z"
			/>
	</g>
</g>
<g id="ynCUM6_2_">
	<g>
		<path d="M17,32.5c0.6,0.1,1.2,0.1,1.7,0.2c3.8,0.7,6.9,2.5,9.3,5.5c2,2.4,3.1,5.1,3.4,8.2c0.4,4.1-0.7,7.8-3.2,11.1
			c-2.6,3.3-6,5.3-10.1,5.8c-6.1,0.7-11-1.4-14.6-6.3c-1.7-2.2-2.6-4.7-2.8-7.5C0.1,44.1,2,39.5,6.2,36c2.4-2,5.1-3.1,8.2-3.4
			c0.2,0,0.4,0,0.6-0.1C15.7,32.5,16.3,32.5,17,32.5z M21.7,49c0-1.4,0-2.7,0-4c-0.7,0-1.3,0-2,0c-0.7,0-1.3,0-2,0c0-1,0-2,0-3
			c0.1-1.1,0.6-1.5,1.6-1.6c0.7,0,1.5,0,2.2,0c0.1,0,0.2,0,0.3,0c0-1.3,0-2.5,0-3.7c-1.4,0-2.7-0.1-4,0c-2.1,0.1-3.7,1.6-4.1,3.7
			c-0.2,1-0.2,2-0.2,3c0,0.5,0,1,0,1.6c-1.2,0-2.3,0-3.5,0c0,1.4,0,2.7,0,4c1.2,0,2.3,0,3.5,0c0,3.5,0,6.9,0,10.4c1.4,0,2.8,0,4.2,0
			c0-3.5,0-6.9,0-10.4C19.1,49,20.4,49,21.7,49z"/>
	</g>
</g>
<g>
	<path d="M0.5,92.8c0-8.6,0-17.1,0-25.7c0,0,0.1-0.1,0.1-0.1c0.2-0.7,0.5-1.3,1.1-1.8c0.4-0.4,1-0.6,1.5-0.7c8.6,0,17.1,0,25.7,0
		c0,0,0.1,0.1,0.1,0.1c0.7,0.2,1.3,0.5,1.8,1.1c0.4,0.4,0.5,1,0.7,1.5c0,8.6,0,17.1,0,25.7c0,0,0,0.1-0.1,0.1
		c-0.1,0.7-0.5,1.3-1.1,1.8c-0.4,0.4-1,0.6-1.5,0.7c-8.6,0-17.1,0-25.7,0c0,0-0.1-0.1-0.1-0.1c-0.7-0.2-1.3-0.5-1.8-1.1
		C0.8,93.9,0.6,93.4,0.5,92.8z M17.5,90.8c0-0.1,0-0.3,0-0.4c0-2.5,0-5,0-7.5c0-0.2,0-0.4,0-0.6c0.1-1.4,1.6-2.4,2.9-1.9
		c1.1,0.3,1.7,1.2,1.7,2.4c0,2.6,0,5.1,0,7.7c0,0.1,0,0.2,0,0.3c1.6,0,3.1,0,4.6,0c0-0.1,0-0.1,0-0.2c0-2.9,0-5.8,0-8.7
		c0-0.7-0.1-1.3-0.4-1.9c-0.9-2-2.4-3.2-4.5-3.4c-1.5-0.2-2.7,0.4-3.8,1.4c-0.2,0.2-0.4,0.4-0.6,0.7c0-0.6,0-1.2,0-1.8
		c-1.6,0-3.1,0-4.6,0c0,4.6,0,9.3,0,13.9C14.5,90.8,16,90.8,17.5,90.8z M5.2,76.9c0,4.7,0,9.3,0,13.9c1.5,0,3.1,0,4.6,0
		c0-4.7,0-9.3,0-13.9C8.2,76.9,6.7,76.9,5.2,76.9z M7.4,74.3c1.5,0,2.8-1.2,2.8-2.8c0-1.5-1.2-2.8-2.8-2.8c-1.5,0-2.8,1.2-2.8,2.8
		C4.7,73,5.9,74.2,7.4,74.3z"/>
</g>
<g id="NrVFf8_2_">
	<g>
		<path d="M31.4,112c0,2.7,0.2,5.1-0.1,7.5c-0.6,4.9-3.7,7.7-8.6,7.8c-4.4,0.1-8.9,0.1-13.3,0c-4.7-0.1-7.9-3-8.5-7.7
			c-0.6-5.2-0.6-10.5,0-15.7c0.5-4.4,3.5-7.1,8-7.3c4.7-0.2,9.5-0.2,14.2,0c5,0.2,8,3.4,8.3,8.3C31.5,107.3,31.4,109.7,31.4,112
			C31.5,112,31.3,112,31.4,112z M3.7,111.8C3.6,111.8,3.8,111.8,3.7,111.8c0.1,2.4,0.1,4.7,0.4,7.1c0.3,3,1.8,4.5,4.8,4.8
			c2.6,0.2,5.2,0.2,7.8,0.2c2.3,0,4.6,0,6.9-0.2c2.7-0.3,4.5-1.9,4.6-4.4c0.1-4.7,0.2-9.4,0-14.1c-0.1-3.3-1.9-5-5.1-5.1
			c-4.6-0.1-9.2-0.1-13.8,0c-3.3,0.1-5,1.9-5.2,5.3C3.9,107.4,3.7,109.6,3.7,111.8z"/>
		<path d="M23.6,112.2c0,4.3-3.3,7.7-7.5,7.8c-4.1,0-7.6-3.4-7.6-7.6c0-4.4,3.3-7.8,7.5-7.9C20.2,104.5,23.6,107.9,23.6,112.2z
			 M16.1,107.8c-2.4,0-4.4,2-4.4,4.4c0,2.4,1.9,4.5,4.3,4.5c2.4,0,4.4-2,4.4-4.5C20.5,109.8,18.5,107.8,16.1,107.8z"/>
		<path d="M26,104.7c0,1-0.8,1.8-1.8,1.8c-0.9,0-1.7-0.8-1.7-1.8c0-1,0.8-1.8,1.7-1.8C25.3,102.8,26.1,103.6,26,104.7z"/>
	</g>
</g>
<g>
	<path class="st1" d="M16,128.5c8.6,0.1,15.5,6.9,15.5,15.5c0,8.6-6.9,15.5-15.5,15.5c-8.6,0-15.5-6.9-15.5-15.5
		C0.5,135.4,7.4,128.5,16,128.5z M30.9,144c-0.1-8.2-6.6-14.8-14.8-14.8c-8.2,0-14.8,6.6-14.8,14.8c0,8.2,6.6,14.9,14.8,14.9
		C24.2,158.8,30.8,152.3,30.9,144z"/>
	<path class="st0" d="M30.9,144c-0.1,8.3-6.6,14.8-14.8,14.8c-8.3,0-14.9-6.6-14.8-14.9c0-8.2,6.6-14.8,14.8-14.8
		C24.2,129.2,30.8,135.8,30.9,144z M20.3,130.9C20.3,130.9,20.3,130.9,20.3,130.9c0,0-0.1-0.1-0.1-0.1c-2.2-0.7-4.5-0.9-6.8-0.4
		c-4.8,1-8.1,3.8-9.2,8.6c-0.3,1-0.4,2.1-0.2,3.1c0.1,0.7,0.5,1.2,0.9,1.7c0.3,0.3,0.4,0.7,0.4,1.1c-0.1,0.9-1,1.3-1.7,0.8
		c-0.5-0.3-0.7-0.7-0.9-1.2c-0.3-1-0.3-2-0.2-3.1c0.1-0.6,0.2-1.3,0.4-1.9c0,0.1-0.1,0.2-0.1,0.3c-0.2,0.9-0.4,1.8-0.5,2.8
		c-0.3,2.3,0.1,4.6,1,6.7c1.9,4.2,5.2,6.4,9.8,6.7c1,0.1,2-0.2,2.7-0.9c0.2-0.1,0.4-0.3,0.6-0.4c0.4-0.2,0.8-0.2,1.2,0.1
		c0.4,0.3,0.5,0.7,0.4,1.1c-0.1,0.3-0.3,0.6-0.5,0.8c-0.3,0.2-0.7,0.4-1,0.5c-1.1,0.3-2.2,0.2-3.3,0c-0.5-0.1-0.9-0.2-1.4-0.3
		c0.7,0.3,1.5,0.5,2.3,0.6c2,0.3,3.9,0.1,5.8-0.4c2.8-0.8,5.2-2.4,6.7-4.9c1-1.6,1.5-3.4,1.6-5.2c0.1-1.1-0.2-2.1-0.9-2.9
		c-0.1-0.1-0.2-0.3-0.3-0.5c-0.3-0.6-0.3-1.2,0.2-1.6c0.5-0.4,1.2-0.3,1.6,0.2c0.3,0.3,0.5,0.6,0.6,1c0.4,1,0.3,2,0.2,3
		c-0.1,0.6-0.2,1.3-0.4,1.9c0,0,0,0,0,0c0-0.1,0-0.2,0.1-0.2c0.6-2.1,0.7-4.3,0.4-6.5c-0.3-1.9-1-3.8-2.2-5.4
		c-1.6-2.2-3.9-3.5-6.6-4.1c-1-0.2-2-0.4-3-0.1c-0.6,0.1-1.2,0.5-1.7,0.9c-0.3,0.3-0.7,0.5-1.1,0.4c-0.4,0-0.8-0.2-0.9-0.6
		c-0.2-0.5-0.1-0.9,0.2-1.3c0.3-0.4,0.8-0.6,1.3-0.8c1-0.3,1.9-0.2,2.9-0.1C19.1,130.6,19.7,130.8,20.3,130.9z"/>
	<path class="st1" d="M20.3,130.9c-0.6-0.1-1.2-0.3-1.8-0.4c-1-0.1-1.9-0.2-2.9,0.1c-0.5,0.1-0.9,0.4-1.3,0.8
		c-0.3,0.4-0.4,0.8-0.2,1.3c0.2,0.4,0.5,0.6,0.9,0.6c0.4,0,0.8-0.2,1.1-0.4c0.5-0.4,1-0.7,1.7-0.9c1-0.2,2-0.1,3,0.1
		c2.7,0.6,4.9,1.9,6.6,4.1c1.2,1.6,1.9,3.4,2.2,5.4c0.4,2.2,0.3,4.4-0.4,6.5c0,0.1,0,0.2-0.1,0.2c0,0,0,0,0,0
		c0.1-0.6,0.3-1.3,0.4-1.9c0.1-1,0.2-2.1-0.2-3c-0.1-0.4-0.4-0.7-0.6-1c-0.4-0.5-1.2-0.6-1.6-0.2c-0.4,0.4-0.5,1-0.2,1.6
		c0.1,0.2,0.2,0.3,0.3,0.5c0.7,0.8,1,1.8,0.9,2.9c-0.1,1.9-0.6,3.6-1.6,5.2c-1.5,2.6-3.9,4.1-6.7,4.9c-1.9,0.6-3.9,0.6-5.8,0.4
		c-0.8-0.1-1.6-0.3-2.3-0.6c0.5,0.1,0.9,0.2,1.4,0.3c1.1,0.2,2.2,0.3,3.3,0c0.4-0.1,0.7-0.3,1-0.5c0.2-0.2,0.4-0.5,0.5-0.8
		c0.1-0.4,0-0.8-0.4-1.1c-0.4-0.3-0.8-0.3-1.2-0.1c-0.2,0.1-0.4,0.2-0.6,0.4c-0.8,0.7-1.7,1-2.7,0.9c-4.6-0.3-7.9-2.5-9.8-6.7
		c-1-2.1-1.3-4.4-1-6.7c0.1-0.9,0.3-1.8,0.5-2.8c0-0.1,0.1-0.2,0.1-0.3c-0.1,0.6-0.3,1.2-0.4,1.9c-0.2,1-0.2,2.1,0.2,3.1
		c0.2,0.5,0.4,0.9,0.9,1.2c0.8,0.5,1.7,0.1,1.7-0.8c0-0.4-0.2-0.8-0.4-1.1c-0.4-0.5-0.8-1.1-0.9-1.7c-0.2-1.1-0.1-2.1,0.1-3.1
		c1.2-4.9,4.4-7.6,9.2-8.6c2.3-0.5,4.6-0.3,6.8,0.4C20.2,130.9,20.2,130.9,20.3,130.9C20.3,130.9,20.3,130.9,20.3,130.9z M19,142.4
		c-0.1,0.1-0.2,0.1-0.3,0.2c-2.1,1.2-3.1,3.4-2.6,5.8c0.5,2.6,2.6,4,5,3.7c2.1-0.3,4.1-2.4,3.5-5c-0.4-1.7-1.6-2.6-3.3-2.4
		c-1.7,0.2-2.6,2-1.9,3.5c0.2,0.5,0.6,0.8,1.1,0.9c0.3,0,0.5,0,0.7-0.3s0.1-0.5,0-0.7c-0.1-0.2-0.2-0.3-0.4-0.4
		c-0.4-0.6-0.2-1.3,0.5-1.5c0.6-0.2,1.2,0.1,1.5,0.7c0.5,1.1,0.2,2.6-0.7,3.3c-1.3,1-3,0.6-3.9-0.9c-0.6-0.9-0.7-1.9-0.5-3
		c0.2-1.5,1-2.5,2.4-3.1c0.1-0.1,0.3-0.1,0.5-0.1c0.5,0,1,0,1.6-0.1c0.4-0.1,0.6-0.3,0.6-0.6c0-0.3-0.1-0.5-0.5-0.6
		c-0.5-0.2-1-0.2-1.5-0.1c-0.4,0.1-0.5,0-0.8-0.3c-0.1-0.2-0.1-0.4,0.1-0.6c0.6-0.5,1.2-1.1,1.8-1.7c0.5-0.5,0.8-1.2,0.9-1.9
		c0.1-0.9-0.4-1.6-1.3-1.7c-0.7-0.1-1.3,0.1-1.9,0.6c-1.3,1.2-1.7,2.7-1.5,4.4c0,0.2,0,0.3-0.2,0.4c-0.5,0.3-1,0.7-1.5,1
		c-0.5,0.4-1.1,0.7-1.7,1.1c0.1-0.6,0-1.2,0.5-1.6c0.3-0.2,0.4-0.5,0.6-0.8c0.1-0.2,0.2-0.4,0.3-0.6c0.1-0.3,0-0.5-0.2-0.7
		c-0.2-0.1-0.4-0.1-0.6-0.1c-0.2,0.1-0.5,0.2-0.6,0.4c-0.3,0.4-0.5,0.8-0.7,1.3c-0.3,0.8-0.9,1.2-1.6,1.4c-0.5,0.2-0.8-0.1-0.9-0.5
		c0.1,0,0.2-0.1,0.3-0.1c1.7-0.9,2.9-2.3,3.3-4.3c0.2-1.2-0.5-2-1.7-1.8c-0.7,0.1-1.3,0.5-1.8,1c-0.6,0.6-1,1.3-1.2,2.1
		c-0.2,0.6-0.3,1.3-0.5,1.9c-0.3,0-0.6-0.2-0.7-0.7c-0.2-0.6-0.1-1.1,0.1-1.6c0.1-0.2,0.1-0.4-0.1-0.6c-0.2-0.2-0.4-0.1-0.6,0.1
		c-0.1,0.1-0.2,0.2-0.3,0.3c-0.1,0.3-0.3,0.6-0.3,0.9c-0.3,1.3,0.6,2.6,1.8,2.8c0.3,0,0.4,0.1,0.4,0.4c0.3,0.9,1.3,1.5,2.2,1.2
		c0.4-0.1,0.8-0.3,1.2-0.4c0,0.3-0.1,0.7-0.5,0.8c-0.3,0.1-0.5,0.3-0.8,0.4c-1.1,0.6-2.3,1.2-3.3,2.1c-1,0.9-1.7,2-1.6,3.4
		c0,1,0.7,1.9,1.7,2.2c1.1,0.3,2.1,0,2.9-0.6c1.1-0.8,1.8-2,2.2-3.3c0.3-1.1,0.4-2.3,0.5-3.4c0-0.2,0.1-0.3,0.3-0.5
		c1.1-0.7,2.2-1.4,3.4-2.1c0.1-0.1,0.2-0.1,0.2-0.1C18.8,142.1,18.9,142.3,19,142.4z"/>
	<path class="st0" d="M19,142.4c-0.1-0.2-0.2-0.3-0.4-0.4c-0.1,0.1-0.2,0.1-0.2,0.1c-1.1,0.7-2.2,1.4-3.4,2.1
		c-0.2,0.1-0.3,0.2-0.3,0.5c-0.1,1.1-0.2,2.3-0.5,3.4c-0.3,1.3-1,2.5-2.2,3.3c-0.9,0.6-1.9,0.9-2.9,0.6c-1-0.3-1.7-1.1-1.7-2.2
		c-0.1-1.4,0.6-2.5,1.6-3.4c1-0.9,2.1-1.5,3.3-2.1c0.3-0.1,0.5-0.3,0.8-0.4c0.4-0.1,0.5-0.5,0.5-0.8c-0.4,0.1-0.8,0.3-1.2,0.4
		c-0.9,0.2-1.8-0.4-2.2-1.2c-0.1-0.2-0.2-0.3-0.4-0.4c-1.2-0.2-2-1.5-1.8-2.8c0.1-0.3,0.2-0.6,0.3-0.9c0.1-0.1,0.2-0.2,0.3-0.3
		c0.2-0.1,0.4-0.2,0.6-0.1c0.2,0.1,0.2,0.4,0.1,0.6c-0.1,0.5-0.3,1.1-0.1,1.6c0.1,0.4,0.4,0.6,0.7,0.7c0.1-0.6,0.3-1.3,0.5-1.9
		c0.2-0.8,0.6-1.5,1.2-2.1c0.5-0.5,1-0.9,1.8-1c1.2-0.2,1.9,0.6,1.7,1.8c-0.4,2-1.6,3.3-3.3,4.3c-0.1,0.1-0.2,0.1-0.3,0.1
		c0.1,0.5,0.4,0.7,0.9,0.5c0.7-0.3,1.4-0.6,1.6-1.4c0.1-0.4,0.4-0.9,0.7-1.3c0.1-0.2,0.4-0.4,0.6-0.4c0.2-0.1,0.5,0,0.7,0.1
		c0.2,0.1,0.3,0.4,0.2,0.7c-0.1,0.2-0.1,0.4-0.3,0.6c-0.2,0.3-0.4,0.6-0.6,0.8c-0.5,0.4-0.4,1-0.5,1.6c0.6-0.4,1.2-0.7,1.7-1.1
		c0.5-0.3,1-0.7,1.5-1c0.1-0.1,0.2-0.2,0.2-0.4c-0.1-1.7,0.2-3.2,1.5-4.4c0.5-0.5,1.1-0.7,1.9-0.6c0.9,0.1,1.4,0.9,1.3,1.7
		c-0.1,0.8-0.4,1.4-0.9,1.9c-0.6,0.6-1.2,1.1-1.8,1.7c-0.2,0.2-0.2,0.3-0.1,0.6c0.2,0.4,0.4,0.4,0.8,0.3c0.5-0.1,1-0.1,1.5,0.1
		c0.4,0.1,0.5,0.3,0.5,0.6c0,0.3-0.2,0.5-0.6,0.6c-0.5,0.1-1,0-1.6,0.1c-0.2,0-0.4,0-0.5,0.1c-1.4,0.6-2.1,1.6-2.4,3.1
		c-0.2,1.1,0,2.1,0.5,3c0.9,1.4,2.6,1.8,3.9,0.9c1-0.8,1.3-2.3,0.7-3.3c-0.3-0.6-0.9-0.9-1.5-0.7c-0.7,0.2-1,0.9-0.5,1.5
		c0.1,0.2,0.2,0.3,0.4,0.4c0.2,0.2,0.2,0.5,0,0.7s-0.4,0.3-0.7,0.3c-0.5-0.1-0.9-0.4-1.1-0.9c-0.8-1.4,0.2-3.3,1.9-3.5
		c1.6-0.2,2.9,0.7,3.3,2.4c0.6,2.5-1.3,4.7-3.5,5c-2.4,0.3-4.5-1.2-5-3.7c-0.5-2.4,0.5-4.6,2.6-5.8C18.8,142.5,18.9,142.5,19,142.4z
		 M13.3,145.2c-0.1,0-0.1,0-0.2,0.1c-1.1,0.6-2.2,1.3-3.1,2.2c-0.5,0.5-0.9,1.1-1.1,1.8c-0.1,0.4-0.1,0.9,0.2,1.3
		c0.3,0.3,0.7,0.3,1.1,0.2c0.9-0.2,1.4-0.8,1.8-1.5C12.8,148,13.1,146.6,13.3,145.2z M11.4,140.5c0,0,0.1,0,0.1,0
		c0.9-0.6,1.6-1.4,2.1-2.4c0.1-0.3,0.2-0.6,0.3-0.8c0.1-0.4-0.3-0.6-0.6-0.4c-0.2,0.1-0.4,0.3-0.5,0.5c-0.5,0.6-0.9,1.4-1.1,2.2
		C11.5,139.9,11.4,140.2,11.4,140.5z M19.5,139.9c0.8-0.7,1.5-1.4,1.9-2.4c0-0.1,0.1-0.2,0.1-0.4c0-0.3-0.2-0.5-0.5-0.3
		c-0.3,0.1-0.5,0.4-0.7,0.6C19.8,138.1,19.6,138.9,19.5,139.9z"/>
	<path class="st1" d="M13.3,145.2c-0.2,1.4-0.5,2.8-1.2,4c-0.4,0.7-1,1.3-1.8,1.5c-0.4,0.1-0.8,0.1-1.1-0.2
		c-0.4-0.4-0.3-0.8-0.2-1.3c0.1-0.7,0.6-1.3,1.1-1.8c0.9-0.9,2-1.6,3.1-2.2C13.2,145.3,13.2,145.3,13.3,145.2z"/>
	<path class="st1" d="M11.4,140.5c0.1-0.3,0.1-0.6,0.2-0.9c0.2-0.8,0.6-1.5,1.1-2.2c0.1-0.2,0.3-0.4,0.5-0.5c0.4-0.2,0.7,0,0.6,0.4
		c0,0.3-0.1,0.6-0.3,0.8c-0.5,1-1.2,1.8-2.1,2.4C11.4,140.5,11.4,140.5,11.4,140.5z"/>
	<path class="st1" d="M19.5,139.9c0.1-1,0.3-1.8,0.8-2.5c0.2-0.2,0.4-0.4,0.7-0.6s0.5,0,0.5,0.3c0,0.1,0,0.3-0.1,0.4
		C21,138.5,20.3,139.1,19.5,139.9z"/>
</g>
<g id="XMLID_3_">
	<g>
		<polygon id="XMLID_137_" class="st0" points="17.2,186.5 17.2,186.1 17.2,185.8 16.9,185.4 16.5,185.1 16.2,185.1 15.8,185.1 
			15.8,185.4 15.8,185.8 15.8,186.1 15.8,186.5 15.5,186.5 15.1,186.5 15.1,186.1 15.1,185.8 15.1,185.4 15.1,185.1 15.1,184.7 
			15.1,184.4 14.8,184 14.4,183.6 14,183.6 13.7,183.6 13.7,184 13.7,184.4 13.7,184.7 13.7,185.1 13.7,185.4 13.7,185.8 
			13.7,186.1 13.7,186.5 13.7,186.9 13.7,187.2 14,187.6 14.4,187.9 14.8,187.9 15.1,187.9 15.5,187.9 15.8,187.9 15.8,188.3 
			15.8,188.6 16.2,189 16.5,189.3 16.9,189.3 17.2,189.3 17.2,189 17.2,188.6 17.2,188.3 17.2,187.9 17.6,187.6 18,187.2 18,186.9 
			18,186.5 17.6,186.5 		"/>
		<polygon id="XMLID_136_" class="st0" points="22.3,184.7 21.9,184.4 21.5,184.4 21.2,184.4 21.2,184.7 21.2,185.1 21.2,185.4 
			21.2,185.8 21.2,186.1 21.2,186.5 21.2,186.8 21.2,187.2 21.2,187.5 21.2,187.9 20.8,187.9 20.5,187.9 20.1,187.9 19.8,187.9 
			19.8,187.5 19.8,187.2 19.8,186.8 19.8,186.5 19.8,186.1 19.8,185.8 19.8,185.4 19.8,185.1 19.4,184.7 19.1,184.4 18.7,184.4 
			18.4,184.4 18.4,184.7 18.4,185.1 18.4,185.4 18.4,185.8 18.4,186.1 18.4,186.5 18.4,186.8 18.4,187.2 18.4,187.5 18.4,187.9 
			18.4,188.2 18.4,188.6 18.7,188.9 19.1,189.3 19.4,189.3 19.8,189.3 20.1,189.3 20.5,189.3 20.8,188.9 21.2,188.6 21.2,188.9 
			21.2,189.3 21.5,189.3 21.9,189.3 22.3,189.3 22.6,189.3 22.6,188.9 22.6,188.6 22.6,188.2 22.6,187.9 22.6,187.5 22.6,187.2 
			22.6,186.8 22.6,186.5 22.6,186.1 22.6,185.8 22.6,185.4 22.6,185.1 		"/>
		<polygon id="XMLID_135_" class="st0" points="12.4,185.1 12.1,184.7 11.7,184.7 11.7,184.4 11.4,184 11,183.6 10.6,183.6 
			10.3,183.6 10.3,184 10.3,184.4 10.3,184.7 9.9,184.7 9.6,184.7 9.2,184.7 8.9,184.7 8.9,185.1 9.2,185.4 9.6,185.8 9.9,186.1 
			10.3,186.1 10.3,186.5 10.3,186.8 10.3,187.2 10.3,187.5 10.3,187.9 10.3,188.2 10.3,188.6 10.6,188.9 11,189.3 11.4,189.3 
			11.7,189.3 12.1,189.3 12.4,189.3 12.8,188.9 13.1,188.6 13.1,188.2 13.1,187.9 12.8,187.9 12.4,187.9 12.1,187.9 11.7,187.9 
			11.7,187.5 11.7,187.2 11.7,186.8 11.7,186.5 11.7,186.1 12.1,186.1 12.4,186.1 12.8,186.1 13.1,186.1 13.1,185.8 12.8,185.4 		
			"/>
		<path id="XMLID_108_" class="st0" d="M31.4,170.7c0.1,0,0.1-0.1,0.1-0.1v-0.2c0-0.1-0.1-0.1-0.1-0.1h-0.8v-0.8c0,0,0-0.1,0-0.1
			s-0.1,0-0.1,0l0,0h-0.2c-0.1,0-0.1,0.1-0.1,0.1v0.9l-0.9,0.9h-1.8v-1.8l0.9-0.9h0.9c0.1,0,0.1-0.1,0.1-0.1v-0.2
			c0-0.1-0.1-0.1-0.1-0.1h-0.8v-0.8c0,0,0-0.1,0-0.1s-0.1,0-0.1,0l0,0H28c-0.1,0-0.1,0.1-0.1,0.1v0.9l-0.8,0.8l0,0l-0.9-0.9
			c0,0,0,0,0,0l-0.9-0.9l0.8-0.8H27c0.1,0,0.1-0.1,0.1-0.1v-0.2c0-0.1-0.1-0.1-0.1-0.1h-0.8V165c0,0,0-0.1,0-0.1s-0.1,0-0.1,0l0,0
			h-0.2c-0.1,0-0.1,0.1-0.1,0.1v0.9l-0.9,0.9H23V165l0.9-0.9h0.9c0.1,0,0.1-0.1,0.1-0.1v-0.2c0-0.1-0.1-0.1-0.1-0.1h-0.8v-0.8
			c0-0.1-0.1-0.1-0.1-0.1h-0.2c-0.1,0-0.1,0.1-0.1,0.1v0.9l-0.8,0.8l-0.8-0.8v-0.9c0-0.1-0.1-0.1-0.1-0.1h-0.2
			c-0.1,0-0.1,0.1-0.1,0.1v0.8h-0.8c0,0,0,0,0,0c0,0,0,0,0,0h-0.8v-0.8c0-0.1-0.1-0.1-0.1-0.1h-0.2c-0.1,0-0.1,0.1-0.1,0.1v0.9
			l-0.8,0.8l-0.8-0.8v-0.9c0-0.1-0.1-0.1-0.1-0.1H17c-0.1,0-0.1,0.1-0.1,0.1v0.8h-0.8c0,0,0,0-0.1,0c0,0,0,0-0.1,0h-0.8v-0.8
			c0-0.1-0.1-0.1-0.1-0.1h-0.2c-0.1,0-0.1,0.1-0.1,0.1v0.9l-0.8,0.8l-0.8-0.8v-0.9c0-0.1-0.1-0.1-0.1-0.1h-0.2
			c-0.1,0-0.1,0.1-0.1,0.1v0.8h-0.8c0,0,0,0,0,0c0,0,0,0,0,0h-0.8v-0.8c0-0.1-0.1-0.1-0.1-0.1h-0.2c-0.1,0-0.1,0.1-0.1,0.1v0.9
			l-0.8,0.8l-0.8-0.8v-0.9c0-0.1-0.1-0.1-0.1-0.1H8.2c-0.1,0-0.1,0.1-0.1,0.1v0.8H7.2c0,0-0.1,0-0.1,0c0,0,0,0.1,0,0.1v0.2
			c0,0.1,0.1,0.1,0.1,0.1h0.9L9,165v1.8H7.3l-0.9-0.9V165c0-0.1-0.1-0.1-0.1-0.1H6c-0.1,0-0.1,0.1-0.1,0.1v0.8H5c0,0-0.1,0-0.1,0
			c0,0,0,0.1,0,0.1v0.2c0,0.1,0.1,0.1,0.1,0.1h0.9l0.8,0.8L5.8,168c0,0,0,0,0,0l-0.3,0.3L5,168.9l-0.8-0.8v-0.9
			c0-0.1-0.1-0.1-0.1-0.1H3.8c-0.1,0-0.1,0.1-0.1,0.1v0.8H2.8c0,0-0.1,0-0.1,0s0,0.1,0,0.1v0.2c0,0.1,0.1,0.1,0.1,0.1h0.9l0.9,0.9
			v1.8H2.8L2,170.3v-0.9c0-0.1-0.1-0.1-0.1-0.1H1.6c-0.1,0-0.1,0.1-0.1,0.1v0.8H0.6c0,0-0.1,0-0.1,0c0,0,0,0.1,0,0.1v0.2
			c0,0.1,0.1,0.1,0.1,0.1h0.9l0.8,0.8l-0.8,0.8H0.6c-0.1,0-0.1,0.1-0.1,0.1v0.2c0,0.1,0.1,0.1,0.1,0.1h0.8v0.9v0.2v0.6H0.6
			c0,0-0.1,0-0.1,0c0,0,0,0.1,0,0.1v0.2c0,0.1,0.1,0.1,0.1,0.1h0.9l0.8,0.8l-0.8,0.8H0.6c-0.1,0-0.1,0.1-0.1,0.1v0.2
			c0,0.1,0.1,0.1,0.1,0.1h0.8v0.8c0,0,0,0.1,0,0.1s0.1,0,0.1,0l0,0h0.2c0.1,0,0.1-0.1,0.1-0.1v-0.9l0.9-0.9h1.8v1.8L3.7,179H2.8
			c-0.1,0-0.1,0.1-0.1,0.1v0.2c0,0.1,0.1,0.1,0.1,0.1h0.8v0.8c0,0,0,0.1,0,0.1s0.1,0,0.1,0l0,0H4c0.1,0,0.1-0.1,0.1-0.1v-0.9
			l0.8-0.8l0.9,0.9c0,0,0.1,0,0.1,0s0.1,0,0.1,0l0.2-0.2c0.1-0.1,0.1-0.1,0-0.2l-0.9-0.9v-1.8l1.9-1.9H11l2.6,2.6v5.1H9.1
			c-0.1,0-0.1,0.1-0.1,0.1v0.7c0,0.1,0.1,0.1,0.1,0.1h13.8c0.1,0,0.1-0.1,0.1-0.1v-0.7c0-0.1-0.1-0.1-0.1-0.1h-4.5v-5.2l2.6-2.6h3.8
			l1.9,1.9v1.8l-0.9,0.9c0,0.1,0,0.1,0,0.2l0.2,0.2c0,0,0.1,0,0.1,0l0,0c0,0,0.1,0,0.1,0l0.9-0.9l0.8,0.8v0.9c0,0.1,0.1,0.1,0.1,0.1
			h0.2l0,0c0,0,0.1,0,0.1,0s0-0.1,0-0.1v-0.8h0.8c0.1,0,0.1-0.1,0.1-0.1v-0.2c0-0.1-0.1-0.1-0.1-0.1h-0.9l-0.9-0.9v-1.8h1.8l0.9,0.9
			v0.9c0,0.1,0.1,0.1,0.1,0.1h0.2l0,0c0,0,0.1,0,0.1,0s0-0.1,0-0.1v-0.8h0.8c0.1,0,0.1-0.1,0.1-0.1v-0.2c0-0.1-0.1-0.1-0.1-0.1h-0.9
			l-0.8-0.8l0.8-0.8h0.9c0.1,0,0.1-0.1,0.1-0.1v-0.2c0-0.1-0.1-0.1-0.1-0.1h-0.8v-0.7v-0.2v-0.9h0.8c0.1,0,0.1-0.1,0.1-0.1v-0.2
			c0-0.1-0.1-0.1-0.1-0.1h-0.9l-0.8-0.8l0.8-0.8L31.4,170.7L31.4,170.7z M14.2,165l0.9-0.9h0.9c0,0,0,0,0.1,0c0,0,0,0,0.1,0H17
			l0.9,0.9v1.8h-0.2H16H16h-1.5h-0.4C14.2,166.8,14.2,165,14.2,165z M4.7,175.6H2.8L2,174.7v-0.7l0,0v-1.2l0.9-0.9h1.8l1.8,1.8
			L4.7,175.6z M10.9,173.1H7.3l-1.9-1.9v-1.8l0.2-0.2l0.7-0.7c0,0,0,0,0,0l0.8-0.8l0.2-0.2h1.8l1.9,1.9L10.9,173.1L10.9,173.1z
			 M9.8,166.9V165l0.9-0.9h0.9c0,0,0,0,0,0c0,0,0,0,0,0h0.9l0.9,0.9v1.8l-1.8,1.8L9.8,166.9z M14.9,182.1h-0.4v-4.2l0.4,0.4V182.1z
			 M17.1,182.1v-3.9l0.4-0.4v4.3L17.1,182.1L17.1,182.1z M19.8,173.2L16,177l-3.8-3.8v-3.8l1.9-1.9h0.4H16h0h1.6h0.3l1.9,1.9
			C19.8,169.4,19.8,173.2,19.8,173.2z M20.4,168.7l-1.8-1.8V165l0.9-0.9h0.9c0,0,0,0,0,0c0,0,0,0,0,0h0.9l0.9,0.9v1.9L20.4,168.7z
			 M21,173.1v-3.7l1.9-1.9h1.8l0.9,0.9c0,0,0,0,0,0l0.9,0.9v1.8l-1.9,1.9L21,173.1L21,173.1z M30,172.8v1v0.2v0.7l-0.9,0.9h-1.9
			l-1.8-1.8l1.8-1.8h1.8L30,172.8z"/>
	</g>
</g>
<g>
	<circle class="st2" cx="15.9" cy="207.9" r="12.1"/>
	<path class="st1" d="M3,206.5c0.3,0.1,0.5,0.2,0.7,0.4s0.3,0.5,0.3,0.8c0,0.4-0.1,0.7-0.4,1s-0.6,0.4-1,0.4c-0.4,0-0.7-0.1-1-0.4
		s-0.4-0.6-0.4-1c0-0.3,0.1-0.6,0.3-0.8s0.4-0.4,0.7-0.4l0.1,0.5c-0.4,0.1-0.6,0.3-0.6,0.7c0,0.2,0.1,0.4,0.2,0.6
		c0.2,0.1,0.4,0.2,0.6,0.2s0.4-0.1,0.6-0.2c0.2-0.1,0.2-0.3,0.2-0.6c0-0.4-0.2-0.6-0.5-0.7L3,206.5z"/>
	<path class="st1" d="M4.4,204.6c-0.1,0.4-0.3,0.7-0.6,0.9c-0.3,0.2-0.7,0.2-1,0.1c-0.4-0.1-0.7-0.3-0.8-0.6
		c-0.2-0.3-0.2-0.7-0.1-1.1c0.1-0.4,0.3-0.7,0.6-0.9c0.3-0.2,0.7-0.2,1-0.1s0.7,0.3,0.8,0.6C4.5,203.8,4.5,204.2,4.4,204.6z
		 M2.7,203.5c-0.2,0.1-0.3,0.3-0.4,0.5s0,0.4,0.1,0.6c0.1,0.2,0.3,0.3,0.5,0.4s0.5,0.1,0.6,0c0.2-0.1,0.3-0.3,0.4-0.5
		c0.1-0.2,0-0.4-0.1-0.6c-0.1-0.2-0.3-0.3-0.5-0.4C3.1,203.4,2.8,203.4,2.7,203.5z"/>
	<path class="st1" d="M5,202.6l-2.2-1.4l0.3-0.4l2-0.2l-1.4-0.9l0.3-0.5l2.2,1.4L6,201l-2,0.2l1.4,0.9L5,202.6z"/>
	<path class="st1" d="M6.8,199.9L5,198l0.4-0.4l2,0.4l-1.1-1.2l0.4-0.4l1.8,1.9l-0.4,0.3l-2-0.3l1.1,1.2L6.8,199.9z"/>
	<path class="st1" d="M9.6,197.1l1.1-0.6l0.3,0.4l-1.6,0.9L8,195.5l1.5-0.9l0.3,0.4l-1,0.6l0.3,0.5l0.9-0.5l0.3,0.4l-0.9,0.5
		L9.6,197.1z"/>
	<path class="st1" d="M13.7,195.1c0,0.3-0.1,0.6-0.2,0.8c-0.2,0.2-0.4,0.4-0.7,0.5c-0.4,0.1-0.7,0.1-1.1-0.1
		c-0.3-0.2-0.5-0.5-0.6-0.8c-0.1-0.4-0.1-0.7,0.1-1.1c0.2-0.3,0.5-0.5,0.8-0.6c0.3-0.1,0.6-0.1,0.9,0s0.5,0.3,0.6,0.6l-0.5,0.3
		c-0.2-0.3-0.5-0.4-0.8-0.3c-0.2,0.1-0.4,0.2-0.5,0.4c-0.1,0.2-0.1,0.4,0,0.6c0.1,0.2,0.2,0.4,0.4,0.5c0.2,0.1,0.4,0.1,0.6,0.1
		c0.4-0.1,0.6-0.4,0.6-0.7L13.7,195.1z"/>
	<path class="st1" d="M16.5,193.2l0,0.5l-0.8,0l0.1,2.1l-0.6,0l-0.1-2.1l-0.8,0l0-0.5L16.5,193.2z"/>
	<path class="st1" d="M19.1,193.5l0.6,0.2l-0.4,1.4c-0.1,0.4,0,0.7,0.4,0.8c0.4,0.1,0.6-0.1,0.7-0.5l0.4-1.4l0.6,0.2l-0.5,1.5
		c-0.1,0.3-0.3,0.6-0.5,0.7s-0.6,0.1-0.9,0s-0.5-0.3-0.7-0.5c-0.1-0.3-0.2-0.5-0.1-0.9L19.1,193.5z"/>
	<path class="st1" d="M21.6,196.3l0.5,0.2c-0.1,0.4,0,0.6,0.3,0.8c0.2,0.1,0.4,0.1,0.5,0c0.1-0.2,0-0.3-0.2-0.5l-0.2-0.1
		c-0.4-0.4-0.5-0.7-0.3-1.1c0.1-0.2,0.3-0.4,0.5-0.4c0.2,0,0.5,0,0.7,0.2c0.4,0.3,0.7,0.7,0.5,1.2l-0.5-0.2c0.1-0.3,0-0.5-0.2-0.6
		c-0.2-0.1-0.4-0.1-0.5,0c-0.1,0.1,0,0.3,0.2,0.5l0.2,0.1c0.4,0.3,0.5,0.7,0.3,1.1c-0.3,0.5-0.9,0.4-1.3,0.2
		C21.6,197.3,21.5,196.9,21.6,196.3z"/>
	<path class="st1" d="M28.5,200.2l0.4,0.5l-2.6,0.9l-0.3-0.4l1-1.5l-1.8,0.6l-0.3-0.4l1.5-2.3l0.4,0.5l-1,1.5l1.7-0.6l0.3,0.4
		l-1,1.5L28.5,200.2z"/>
	<path class="st1" d="M26.9,202.8l2.4-1l0.2,0.5l-2.4,1L26.9,202.8z"/>
	<path class="st1" d="M30.5,205.5l-0.5,0.1l-0.2-0.8l-2,0.5l-0.1-0.6l2-0.5l-0.2-0.8l0.5-0.1L30.5,205.5z"/>
	<path class="st1" d="M30.6,208.4v0.6l-2.6,0v-0.6h1.1v-1.1H28v-0.6l2.6,0v0.6h-1v1.1H30.6z"/>
</g>
<g>
	<circle class="st2" cx="48" cy="208" r="12.1"/>
	<path class="st3" d="M35.1,206.6c0.3,0.1,0.5,0.2,0.7,0.4c0.2,0.2,0.3,0.5,0.3,0.8c0,0.4-0.1,0.7-0.4,1c-0.3,0.3-0.6,0.4-1,0.4
		c-0.4,0-0.7-0.1-1-0.4c-0.3-0.3-0.4-0.6-0.4-1c0-0.3,0.1-0.6,0.3-0.8c0.2-0.2,0.4-0.4,0.7-0.4l0.1,0.5c-0.4,0.1-0.6,0.3-0.6,0.7
		c0,0.2,0.1,0.4,0.2,0.6c0.2,0.1,0.4,0.2,0.6,0.2c0.2,0,0.4-0.1,0.6-0.2s0.2-0.3,0.2-0.6c0-0.4-0.2-0.6-0.5-0.7L35.1,206.6z"/>
	<path class="st3" d="M36.5,204.7c-0.1,0.4-0.3,0.7-0.6,0.9c-0.3,0.2-0.7,0.2-1,0.1c-0.4-0.1-0.7-0.3-0.8-0.6
		c-0.2-0.3-0.2-0.7-0.1-1.1c0.1-0.4,0.3-0.7,0.6-0.9c0.3-0.2,0.7-0.2,1-0.1c0.4,0.1,0.7,0.3,0.8,0.6
		C36.6,203.9,36.6,204.3,36.5,204.7z M34.7,203.6c-0.2,0.1-0.3,0.3-0.4,0.5s0,0.4,0.1,0.6c0.1,0.2,0.3,0.3,0.5,0.4
		c0.2,0.1,0.5,0.1,0.6,0c0.2-0.1,0.3-0.3,0.4-0.5c0.1-0.2,0-0.4-0.1-0.6c-0.1-0.2-0.3-0.3-0.5-0.4C35.1,203.5,34.9,203.5,34.7,203.6
		z"/>
	<path class="st3" d="M37.1,202.7l-2.2-1.4l0.3-0.4l2-0.2l-1.4-0.9l0.3-0.5l2.2,1.4l-0.3,0.4l-2,0.2l1.4,0.9L37.1,202.7z"/>
	<path class="st3" d="M38.9,200l-1.8-1.9l0.4-0.4l2,0.4l-1.1-1.2l0.4-0.4l1.8,1.9l-0.4,0.3l-2-0.3l1.1,1.2L38.9,200z"/>
	<path class="st3" d="M41.6,197.2l1.1-0.6L43,197l-1.6,0.9l-1.3-2.3l1.5-0.9l0.3,0.4l-1,0.6l0.3,0.5l0.9-0.5l0.3,0.4l-0.9,0.5
		L41.6,197.2z"/>
	<path class="st3" d="M45.8,195.2c0,0.3-0.1,0.6-0.2,0.8s-0.4,0.4-0.7,0.5c-0.4,0.1-0.7,0.1-1.1-0.1c-0.3-0.2-0.5-0.5-0.6-0.8
		c-0.1-0.4-0.1-0.7,0.1-1.1s0.5-0.5,0.8-0.6c0.3-0.1,0.6-0.1,0.9,0s0.5,0.3,0.6,0.6l-0.5,0.3c-0.2-0.3-0.5-0.4-0.8-0.3
		c-0.2,0.1-0.4,0.2-0.5,0.4s-0.1,0.4,0,0.6c0.1,0.2,0.2,0.4,0.4,0.5c0.2,0.1,0.4,0.1,0.6,0.1c0.4-0.1,0.6-0.4,0.5-0.7L45.8,195.2z"
		/>
	<path class="st3" d="M48.6,193.3l0,0.5l-0.8,0l0.1,2.1l-0.6,0l-0.1-2.1l-0.8,0l0-0.5L48.6,193.3z"/>
	<path class="st3" d="M51.2,193.6l0.6,0.2l-0.4,1.4c-0.1,0.4,0,0.7,0.4,0.8c0.4,0.1,0.6-0.1,0.7-0.5l0.4-1.4l0.6,0.2l-0.5,1.5
		c-0.1,0.3-0.3,0.6-0.5,0.7c-0.3,0.1-0.6,0.1-0.9,0s-0.5-0.3-0.7-0.5c-0.1-0.3-0.2-0.5-0.1-0.9L51.2,193.6z"/>
	<path class="st3" d="M53.7,196.4l0.5,0.2c-0.1,0.4,0,0.6,0.3,0.8c0.2,0.1,0.4,0.1,0.5,0c0.1-0.2,0-0.3-0.2-0.5l-0.2-0.1
		c-0.4-0.4-0.5-0.7-0.3-1.1c0.1-0.2,0.3-0.4,0.5-0.4c0.2,0,0.5,0,0.7,0.2c0.4,0.3,0.7,0.7,0.5,1.2l-0.5-0.2c0.1-0.3,0-0.5-0.2-0.6
		c-0.2-0.1-0.4-0.1-0.5,0c-0.1,0.1,0,0.3,0.2,0.5l0.2,0.1c0.4,0.3,0.5,0.7,0.3,1.1c-0.3,0.5-0.9,0.4-1.3,0.2
		C53.7,197.4,53.6,197,53.7,196.4z"/>
	<path class="st3" d="M60.6,200.3l0.4,0.5l-2.6,0.9l-0.3-0.4l1-1.5l-1.8,0.6l-0.3-0.4l1.5-2.3l0.4,0.5l-1,1.5l1.7-0.6l0.3,0.4
		l-1,1.5L60.6,200.3z"/>
	<path class="st3" d="M59,202.9l2.4-1l0.2,0.5l-2.4,1L59,202.9z"/>
	<path class="st3" d="M62.6,205.6l-0.5,0.1l-0.2-0.8l-2,0.5l-0.1-0.6l2-0.5l-0.2-0.8l0.5-0.1L62.6,205.6z"/>
	<path class="st3" d="M62.7,208.5v0.6l-2.6,0v-0.6h1.1v-1.1h-1.1v-0.6l2.6,0v0.6h-1v1.1H62.7z"/>
</g>
<line class="st2" x1="48" y1="221.4" x2="15.2" y2="221.4"/>
</svg>
