<?xml version="1.0" encoding="utf-8"?>
<!-- Generator: Adobe Illustrator 24.1.2, SVG Export Plug-In . SVG Version: 6.00 Build 0)  -->
<svg version="1.1" id="Layer_1" xmlns="http://www.w3.org/2000/svg" xmlns:xlink="http://www.w3.org/1999/xlink" x="0px" y="0px"
	 viewBox="0 0 530 470" style="enable-background:new 0 0 530 470;" xml:space="preserve">
<style type="text/css">
	.st0{fill:#19181B;stroke:#FA142E;stroke-width:1.3;stroke-miterlimit:10;}
	.st1{fill:none;stroke:#FA142E;stroke-width:1.3;stroke-miterlimit:10;}
</style>
<g>
	<g>
		
			<rect x="445.57" y="17.87" transform="matrix(0.7071 -0.7071 0.7071 0.7071 115.2011 326.7412)" class="st0" width="12.88" height="12.88"/>
		
			<rect x="445.57" y="52.11" transform="matrix(0.7071 -0.7071 0.7071 0.7071 90.9936 336.767)" class="st0" width="12.88" height="12.88"/>
		
			<rect x="445.57" y="86.34" transform="matrix(0.7071 -0.7071 0.7071 0.7071 66.7883 346.7958)" class="st0" width="12.88" height="12.88"/>
		
			<rect x="445.57" y="120.57" transform="matrix(0.7071 -0.7071 0.7071 0.7071 42.5802 356.8204)" class="st0" width="12.88" height="12.88"/>
		
			<rect x="445.57" y="154.81" transform="matrix(0.7071 -0.7071 0.7071 0.7071 18.3746 366.8495)" class="st0" width="12.88" height="12.88"/>
	</g>
	<g>
		
			<rect x="71.66" y="17.87" transform="matrix(0.7071 -0.7071 0.7071 0.7071 5.685 62.3458)" class="st0" width="12.88" height="12.88"/>
		
			<rect x="71.66" y="52.11" transform="matrix(0.7071 -0.7071 0.7071 0.7071 -18.5217 72.3725)" class="st0" width="12.88" height="12.88"/>
		
			<rect x="71.66" y="86.34" transform="matrix(0.7071 -0.7071 0.7071 0.7071 -42.7285 82.3999)" class="st0" width="12.88" height="12.88"/>
		
			<rect x="71.66" y="120.57" transform="matrix(0.7071 -0.7071 0.7071 0.7071 -66.9351 92.426)" class="st0" width="12.88" height="12.88"/>
		
			<rect x="71.66" y="154.81" transform="matrix(0.7071 -0.7071 0.7071 0.7071 -91.1421 102.4536)" class="st0" width="12.88" height="12.88"/>
	</g>
	<g>
		
			<rect x="71.66" y="307.21" transform="matrix(0.7071 -0.7071 0.7071 0.7071 -198.9092 147.0923)" class="st0" width="12.88" height="12.88"/>
		
			<rect x="71.66" y="341.45" transform="matrix(0.7071 -0.7071 0.7071 0.7071 -223.116 157.1192)" class="st0" width="12.88" height="12.88"/>
		
			<rect x="71.66" y="375.68" transform="matrix(0.7071 -0.7071 0.7071 0.7071 -247.3229 167.146)" class="st0" width="12.88" height="12.88"/>
		
			<rect x="71.66" y="409.91" transform="matrix(0.7071 -0.7071 0.7071 0.7071 -271.5297 177.1728)" class="st0" width="12.88" height="12.88"/>
		
			<rect x="71.66" y="444.15" transform="matrix(0.7071 -0.7071 0.7071 0.7071 -295.7366 187.1997)" class="st0" width="12.88" height="12.88"/>
	</g>
	<g>
		
			<rect x="445.57" y="307.21" transform="matrix(0.7071 -0.7071 0.7071 0.7071 -89.3926 411.4868)" class="st0" width="12.88" height="12.88"/>
		
			<rect x="445.57" y="341.45" transform="matrix(0.7071 -0.7071 0.7071 0.7071 -113.5993 421.515)" class="st0" width="12.88" height="12.88"/>
		
			<rect x="445.57" y="375.68" transform="matrix(0.7071 -0.7071 0.7071 0.7071 -137.8061 431.5419)" class="st0" width="12.88" height="12.88"/>
		
			<rect x="445.57" y="409.91" transform="matrix(0.7071 -0.7071 0.7071 0.7071 -162.0129 441.5687)" class="st0" width="12.88" height="12.88"/>
		
			<rect x="445.57" y="444.15" transform="matrix(0.7071 -0.7071 0.7071 0.7071 -186.2198 451.5956)" class="st0" width="12.88" height="12.88"/>
	</g>
	<g>
		<g>
			<line class="st1" x1="106.16" y1="173.24" x2="425.82" y2="173.24"/>
			<g>
				<g>
					
						<rect x="137.76" y="147.78" transform="matrix(0.7071 -0.7071 0.7071 0.7071 -66.3359 145.9803)" class="st1" width="10.58" height="10.58"/>
				</g>
				<g>
					
						<rect x="160.3" y="147.78" transform="matrix(0.7071 -0.7071 0.7071 0.7071 -59.7321 161.9232)" class="st1" width="10.58" height="10.58"/>
				</g>
				<g>
					
						<rect x="182.85" y="147.78" transform="matrix(0.7071 -0.7071 0.7071 0.7071 -53.1284 177.866)" class="st1" width="10.58" height="10.58"/>
				</g>
				<g>
					
						<rect x="205.4" y="147.78" transform="matrix(0.7071 -0.7071 0.7071 0.7071 -46.5246 193.8089)" class="st1" width="10.58" height="10.58"/>
				</g>
				<g>
					
						<rect x="227.94" y="147.78" transform="matrix(0.7071 -0.7071 0.7071 0.7071 -39.9209 209.7517)" class="st1" width="10.58" height="10.58"/>
				</g>
				<g>
					
						<rect x="250.49" y="147.78" transform="matrix(0.7071 -0.7071 0.7071 0.7071 -33.3172 225.6946)" class="st1" width="10.58" height="10.58"/>
				</g>
				<g>
					
						<rect x="273.04" y="147.78" transform="matrix(0.7071 -0.7071 0.7071 0.7071 -26.7134 241.6374)" class="st1" width="10.58" height="10.58"/>
				</g>
				<g>
					
						<rect x="295.58" y="147.78" transform="matrix(0.7071 -0.7071 0.7071 0.7071 -20.1097 257.5803)" class="st1" width="10.58" height="10.58"/>
				</g>
				<g>
					
						<rect x="318.13" y="147.78" transform="matrix(0.7071 -0.7071 0.7071 0.7071 -13.5059 273.5231)" class="st1" width="10.58" height="10.58"/>
				</g>
				<g>
					
						<rect x="340.68" y="147.78" transform="matrix(0.7071 -0.7071 0.7071 0.7071 -6.9022 289.4659)" class="st1" width="10.58" height="10.58"/>
				</g>
				<g>
					
						<rect x="363.22" y="147.78" transform="matrix(0.7071 -0.7071 0.7071 0.7071 -0.2984 305.4088)" class="st1" width="10.58" height="10.58"/>
				</g>
				<g>
					
						<rect x="385.77" y="147.78" transform="matrix(0.7071 -0.7071 0.7071 0.7071 6.3053 321.3517)" class="st1" width="10.58" height="10.58"/>
				</g>
			</g>
			<polyline class="st1" points="105.92,173.24 105.92,132 425.58,132 425.58,173.24 			"/>
			<g>
				<g>
					<path class="st1" d="M313.62,24.03c0,0,25.5,22.97,0,50.42l-47.7,47.7l-47.7-47.7c-25.5-27.45,0-50.42,0-50.42
						c25.89-21.8,47.31,3.7,47.31,3.7S287.73,2.22,313.62,24.03z"/>
					<g>
						<path class="st1" d="M218.23,24.03c1.92,2.59,4.3,5.45,7.2,8.37c3.27,3.29,6.48,5.91,9.34,7.98c1.82-1.82,3.63-3.63,5.45-5.45
							c1.49-0.94,3.39-0.85,4.67,0.2c1.49,1.22,1.87,3.49,0.78,5.26c-1.91,1.91-3.83,3.83-5.74,5.74l15.96,15.96
							c1.46,1.66,1.4,4.18-0.1,5.74c-1.55,1.61-4.16,1.73-5.88,0.23c1.52,1.85,1.34,4.58-0.35,6.2c-1.57,1.5-3.78,1.81-5.53,0.55
							c-0.07-0.05,0.53,3.76-0.89,5.29c-1.5,1.6-4.01,1.88-5.86,0.61c0.9,2.09,0.32,4.48-1.34,5.82c-1.39,1.12-3.36,1.34-5.06,0.58"
							/>
						<line class="st1" x1="249.96" y1="68.03" x2="238.33" y2="56.39"/>
						<line class="st1" x1="243.54" y1="74.64" x2="231.67" y2="62.78"/>
						<line class="st1" x1="237.59" y1="80.9" x2="225.42" y2="68.72"/>
					</g>
					<g>
						<path class="st1" d="M281.11,106.96c-1.7,0.76-3.67,0.54-5.06-0.58c-1.66-1.34-2.24-3.73-1.34-5.82
							c-1.86,1.27-4.37,0.99-5.86-0.61c-1.42-1.52-0.51-5.79-0.6-5.73c-1.77,1.26-4.27,1.38-5.83-0.11c-1.7-1.62-1.87-4.34-0.35-6.2
							c-1.72,1.5-4.33,1.39-5.88-0.23c-1.5-1.57-1.56-4.08-0.1-5.74l15.96-15.96l-5.74-5.74c-1.09-1.77-0.71-4.04,0.78-5.26
							c1.28-1.05,3.18-1.14,4.67-0.2l5.45,5.45l10.59-10.47c6.88-6.8,11.75-15.44,13.67-24.93c0.52-2.57,0.85-5.27,0.85-8.02"/>
						<line class="st1" x1="262.03" y1="87.88" x2="273.67" y2="76.25"/>
						<line class="st1" x1="268.46" y1="94.5" x2="280.32" y2="82.64"/>
						<line class="st1" x1="274.4" y1="100.75" x2="286.57" y2="88.58"/>
					</g>
				</g>
				<path class="st1" d="M258.63,3.72c4.34,3.54,6.8,6.62,6.8,6.62s2.55-3.08,7.01-6.62"/>
				<g>
					<path class="st1" d="M252.51,132L204.5,81.47c-32.84-37.2,0-68.33,0-68.33c5.1-4.52,10.07-7.55,14.83-9.42"/>
					<g>
						<path class="st1" d="M190.41,2.9c-1.12,0.88-2.24,1.82-3.37,2.81c0,0-39.44,37.39,0,82.06l43.07,45.32"/>
						<path class="st1" d="M168.59,3.72c-0.72,0.64-1.45,1.3-2.18,1.99c0,0-36.73,37.39,0,82.06l38.13,44.25"/>
						<path class="st1" d="M149.11,3.54c-0.75,0.69-1.49,1.41-2.24,2.17c0,0-34.59,37.39,0,82.06l35.84,44.25"/>
						<path class="st1" d="M129.36,3.73c-0.68,0.63-1.36,1.29-2.04,1.98c0,0-34.59,37.39,0,82.06L163.67,132"/>
						<path class="st1" d="M105.92,84c0.87,1.25,1.79,2.5,2.77,3.77l35.88,43.67"/>
						<path class="st1" d="M110.87,3.6c-0.73,0.67-1.45,1.38-2.18,2.11c0,0-1.51,1.63-3.59,4.62"/>
						<line class="st1" x1="105.52" y1="107.41" x2="124.86" y2="130.93"/>
					</g>
				</g>
				<g>
					<g>
						<path class="st1" d="M340.52,2.9c1.12,0.88,2.24,1.82,3.37,2.81c0,0,39.44,37.39,0,82.06l-43.07,45.32"/>
						<path class="st1" d="M362.35,3.72c0.73,0.64,1.45,1.3,2.18,1.99c0,0,36.73,37.39,0,82.06l-38.13,44.25"/>
						<path class="st1" d="M381.83,3.54c0.75,0.69,1.49,1.41,2.24,2.17c0,0,34.59,37.39,0,82.06l-35.84,44.25"/>
						<path class="st1" d="M401.58,3.73c0.68,0.63,1.36,1.29,2.04,1.98c0,0,34.59,37.39,0,82.06L367.27,132"/>
						<path class="st1" d="M425.02,84c-0.87,1.25-1.79,2.5-2.77,3.77l-35.88,43.67"/>
						<path class="st1" d="M420.07,3.6c0.73,0.67,1.45,1.38,2.18,2.11c0,0,1.51,1.63,3.59,4.62"/>
						<line class="st1" x1="425.42" y1="107.41" x2="406.08" y2="130.93"/>
					</g>
				</g>
				<path class="st1" d="M279.17,132l48.01-50.53c32.84-37.2,0-68.33,0-68.33c-5.1-4.52-10.07-7.55-14.83-9.42"/>
			</g>
		</g>
		<rect x="105.1" y="3.73" class="st1" width="320.48" height="128.26"/>
	</g>
	<g>
		<g>
			<line class="st1" x1="424.78" y1="296.76" x2="105.12" y2="296.76"/>
			<g>
				<g>
					
						<rect x="382.6" y="311.65" transform="matrix(0.7071 -0.7071 0.7071 0.7071 -110.4961 367.1096)" class="st1" width="10.58" height="10.58"/>
				</g>
				<g>
					
						<rect x="360.06" y="311.65" transform="matrix(0.7071 -0.7071 0.7071 0.7071 -117.0998 351.1667)" class="st1" width="10.58" height="10.58"/>
				</g>
				<g>
					
						<rect x="337.51" y="311.65" transform="matrix(0.7071 -0.7071 0.7071 0.7071 -123.7036 335.2239)" class="st1" width="10.58" height="10.58"/>
				</g>
				<g>
					
						<rect x="314.96" y="311.65" transform="matrix(0.7071 -0.7071 0.7071 0.7071 -130.3073 319.281)" class="st1" width="10.58" height="10.58"/>
				</g>
				<g>
					
						<rect x="292.42" y="311.65" transform="matrix(0.7071 -0.7071 0.7071 0.7071 -136.911 303.3382)" class="st1" width="10.58" height="10.58"/>
				</g>
				<g>
					
						<rect x="269.87" y="311.65" transform="matrix(0.7071 -0.7071 0.7071 0.7071 -143.5148 287.3954)" class="st1" width="10.58" height="10.58"/>
				</g>
				<g>
					
						<rect x="247.32" y="311.65" transform="matrix(0.7071 -0.7071 0.7071 0.7071 -150.1185 271.4525)" class="st1" width="10.58" height="10.58"/>
				</g>
				<g>
					
						<rect x="224.78" y="311.65" transform="matrix(0.7071 -0.7071 0.7071 0.7071 -156.7223 255.5097)" class="st1" width="10.58" height="10.58"/>
				</g>
				<g>
					
						<rect x="202.23" y="311.65" transform="matrix(0.7071 -0.7071 0.7071 0.7071 -163.326 239.5668)" class="st1" width="10.58" height="10.58"/>
				</g>
				<g>
					
						<rect x="179.68" y="311.65" transform="matrix(0.7071 -0.7071 0.7071 0.7071 -169.9297 223.624)" class="st1" width="10.58" height="10.58"/>
				</g>
				<g>
					
						<rect x="157.14" y="311.65" transform="matrix(0.7071 -0.7071 0.7071 0.7071 -176.5335 207.6811)" class="st1" width="10.58" height="10.58"/>
				</g>
				<g>
					
						<rect x="134.59" y="311.65" transform="matrix(0.7071 -0.7071 0.7071 0.7071 -183.1372 191.7383)" class="st1" width="10.58" height="10.58"/>
				</g>
			</g>
			<polyline class="st1" points="425.02,296.76 425.02,338 105.36,338 105.36,296.76 			"/>
			<g>
				<g>
					<g>
						<path class="st1" d="M217.32,445.97c0,0-25.5-22.97,0-50.42l47.7-47.7l47.7,47.7c25.5,27.45,0,50.42,0,50.42
							c-25.89,21.8-47.31-3.7-47.31-3.7S243.21,467.78,217.32,445.97z"/>
						<g>
							<path class="st1" d="M312.71,445.97c-1.92-2.59-4.3-5.45-7.2-8.37c-3.27-3.29-6.48-5.91-9.34-7.98
								c-1.82,1.82-3.63,3.63-5.45,5.45c-1.49,0.94-3.39,0.85-4.67-0.2c-1.49-1.22-1.87-3.49-0.78-5.26
								c1.91-1.91,3.83-3.83,5.74-5.74l-15.96-15.96c-1.46-1.66-1.4-4.18,0.1-5.74c1.55-1.61,4.16-1.73,5.88-0.23
								c-1.52-1.85-1.34-4.58,0.35-6.2c1.57-1.5,3.78-1.81,5.53-0.55c0.07,0.05-0.53-3.76,0.89-5.29c1.5-1.6,4.01-1.88,5.86-0.61
								c-0.9-2.09-0.32-4.48,1.34-5.82c1.39-1.12,3.36-1.34,5.06-0.58"/>
							<line class="st1" x1="280.98" y1="401.97" x2="292.61" y2="413.61"/>
							<line class="st1" x1="287.4" y1="395.36" x2="299.27" y2="407.22"/>
							<line class="st1" x1="293.34" y1="389.1" x2="305.52" y2="401.28"/>
						</g>
						<g>
							<path class="st1" d="M249.83,363.04c1.7-0.76,3.67-0.54,5.06,0.58c1.66,1.34,2.24,3.73,1.34,5.82
								c1.86-1.27,4.37-0.99,5.86,0.61c1.42,1.52,0.51,5.79,0.6,5.73c1.77-1.26,4.27-1.38,5.83,0.11c1.7,1.62,1.87,4.34,0.35,6.2
								c1.72-1.5,4.33-1.39,5.88,0.23c1.5,1.57,1.56,4.08,0.1,5.74l-15.96,15.96l5.74,5.74c1.09,1.77,0.71,4.04-0.78,5.26
								c-1.28,1.05-3.18,1.14-4.67,0.2l-5.45-5.45l-10.59,10.47c-6.88,6.8-11.75,15.44-13.67,24.93c-0.52,2.57-0.85,5.27-0.85,8.02"
								/>
							<line class="st1" x1="268.91" y1="382.12" x2="257.27" y2="393.75"/>
							<line class="st1" x1="262.48" y1="375.5" x2="250.62" y2="387.36"/>
							<line class="st1" x1="256.54" y1="369.25" x2="244.37" y2="381.42"/>
						</g>
					</g>
				</g>
				<path class="st1" d="M272.31,466.28c-4.34-3.54-6.8-6.62-6.8-6.62s-2.55,3.08-7.01,6.62"/>
				<g>
					<path class="st1" d="M278.42,338l48.01,50.53c32.84,37.2,0,68.33,0,68.33c-5.1,4.52-10.07,7.55-14.83,9.42"/>
					<g>
						<path class="st1" d="M340.52,467.1c1.12-0.88,2.24-1.82,3.37-2.81c0,0,39.44-37.39,0-82.06l-43.07-45.32"/>
						<path class="st1" d="M362.35,466.28c0.73-0.64,1.45-1.3,2.18-1.99c0,0,36.73-37.39,0-82.06l-38.13-44.25"/>
						<path class="st1" d="M381.83,466.46c0.75-0.69,1.49-1.41,2.24-2.17c0,0,34.59-37.39,0-82.06l-35.84-44.25"/>
						<path class="st1" d="M401.58,466.27c0.68-0.63,1.36-1.29,2.04-1.98c0,0,34.59-37.39,0-82.06L367.27,338"/>
						<path class="st1" d="M425.02,386c-0.87-1.25-1.79-2.5-2.77-3.77l-35.88-43.67"/>
						<path class="st1" d="M420.07,466.4c0.73-0.67,1.45-1.38,2.18-2.11c0,0,1.51-1.63,3.59-4.62"/>
						<line class="st1" x1="425.42" y1="362.59" x2="406.08" y2="339.07"/>
					</g>
				</g>
				<g>
					<g>
						<path class="st1" d="M190.41,467.1c-1.12-0.88-2.24-1.82-3.37-2.81c0,0-39.44-37.39,0-82.06l43.07-45.32"/>
						<path class="st1" d="M168.59,466.28c-0.72-0.64-1.45-1.3-2.18-1.99c0,0-36.73-37.39,0-82.06l38.13-44.25"/>
						<path class="st1" d="M149.11,466.46c-0.75-0.69-1.49-1.41-2.24-2.17c0,0-34.59-37.39,0-82.06l35.84-44.25"/>
						<path class="st1" d="M129.36,466.27c-0.68-0.63-1.36-1.29-2.04-1.98c0,0-34.59-37.39,0-82.06L163.67,338"/>
						<path class="st1" d="M105.92,386c0.87-1.25,1.79-2.5,2.77-3.77l35.88-43.67"/>
						<path class="st1" d="M110.87,466.4c-0.73-0.67-1.45-1.38-2.18-2.11c0,0-1.51-1.63-3.59-4.62"/>
						<line class="st1" x1="105.52" y1="362.59" x2="124.86" y2="339.07"/>
					</g>
				</g>
				<path class="st1" d="M251.77,338l-48.01,50.53c-32.84,37.2,0,68.33,0,68.33c5.1,4.52,10.07,7.55,14.83,9.42"/>
			</g>
		</g>
		
			<rect x="105.36" y="338" transform="matrix(-1 -1.224647e-16 1.224647e-16 -1 531.2021 804.2656)" class="st1" width="320.48" height="128.26"/>
	</g>
</g>
<image style="overflow:visible;" width="2193" height="608" xlink:href="BD98CEA8.png"  transform="matrix(0.24 0 0 0.24 1.7497 166.4541)">
</image>
<g>
</g>
<g>
</g>
<g>
</g>
<g>
</g>
<g>
</g>
<g>
</g>
<g>
</g>
<g>
</g>
<g>
</g>
<g>
</g>
<g>
</g>
<g>
</g>
<g>
</g>
<g>
</g>
<g>
</g>
</svg>
