<?xml version="1.0" encoding="utf-8"?>
<!-- Generator: Adobe Illustrator 24.1.2, SVG Export Plug-In . SVG Version: 6.00 Build 0)  -->
<svg version="1.1" id="Layer_1" xmlns="http://www.w3.org/2000/svg" xmlns:xlink="http://www.w3.org/1999/xlink" x="0px" y="0px"
	 viewBox="0 0 794 675" style="enable-background:new 0 0 794 675;" xml:space="preserve">
<style type="text/css">
	.st0{clip-path:url(#SVGID_2_);enable-background:new    ;}
	.st1{clip-path:url(#SVGID_4_);fill:none;stroke:#000000;stroke-width:2;stroke-linecap:round;stroke-miterlimit:10;}
	.st2{clip-path:url(#SVGID_4_);fill:#FF1D26;}
	.st3{clip-path:url(#SVGID_4_);fill:#FFFFFF;}
	.st4{clip-path:url(#SVGID_4_);}
	.st5{clip-path:url(#SVGID_4_);fill:none;stroke:#000000;stroke-width:2;}
	.st6{clip-path:url(#SVGID_4_);fill:#FFC100;}
</style>
<g>
	<defs>
		<rect id="SVGID_1_" x="-0.4" y="-0.49" width="794.8" height="675.98"/>
	</defs>
	<clipPath id="SVGID_2_">
		<use xlink:href="#SVGID_1_"  style="overflow:visible;"/>
	</clipPath>
	<g class="st0">
		<g>
			<defs>
				<rect id="SVGID_3_" x="-0.4" y="-0.49" width="794.8" height="675.98"/>
			</defs>
			<clipPath id="SVGID_4_">
				<use xlink:href="#SVGID_3_"  style="overflow:visible;"/>
			</clipPath>
			<polyline class="st1" points="419.29,425.34 406.76,383.56 354.7,399.48 367.22,441.26 			"/>
			<path class="st1" d="M291.93,373.4l-51.82-169.49c-0.41-1.36-0.76-2.73-1.04-4.12s-0.49-2.79-0.63-4.2s-0.21-2.83-0.22-4.25
				c0-1.42,0.06-2.84,0.2-4.25c0.14-1.41,0.34-2.82,0.61-4.21c0.27-1.39,0.62-2.77,1.02-4.13c0.41-1.36,0.88-2.69,1.42-4.01
				c0.54-1.31,1.14-2.6,1.81-3.85c0.67-1.25,1.39-2.47,2.18-3.65c0.79-1.18,1.63-2.32,2.53-3.42c0.9-1.1,1.85-2.15,2.85-3.16
				c1-1.01,2.05-1.96,3.14-2.86c1.1-0.9,2.23-1.75,3.41-2.54c1.18-0.79,2.39-1.52,3.64-2.19c1.25-0.67,2.53-1.28,3.84-1.83
				c1.31-0.55,2.64-1.03,4-1.44l72.08-22.04c1.36-0.41,2.73-0.76,4.12-1.04c1.39-0.28,2.79-0.49,4.2-0.63
				c1.41-0.14,2.83-0.21,4.25-0.22c1.42,0,2.84,0.06,4.25,0.2s2.82,0.34,4.21,0.61c1.39,0.27,2.77,0.62,4.13,1.02
				c1.36,0.41,2.69,0.88,4.01,1.42s2.6,1.14,3.85,1.81c1.25,0.67,2.47,1.39,3.65,2.18c1.18,0.79,2.32,1.63,3.42,2.53
				c1.1,0.9,2.15,1.85,3.16,2.85c1.01,1,1.96,2.05,2.86,3.14c0.9,1.1,1.75,2.23,2.54,3.41c0.79,1.18,1.52,2.39,2.19,3.64
				c0.67,1.25,1.28,2.53,1.83,3.84c0.55,1.31,1.03,2.64,1.44,4l51.82,169.49c0.41,1.36,0.76,2.73,1.04,4.12
				c0.28,1.39,0.49,2.79,0.63,4.2c0.14,1.41,0.21,2.83,0.22,4.25c0,1.42-0.06,2.83-0.2,4.25c-0.14,1.41-0.34,2.82-0.61,4.21
				c-0.27,1.39-0.62,2.77-1.02,4.13s-0.88,2.69-1.42,4.01c-0.54,1.31-1.14,2.6-1.81,3.85c-0.67,1.25-1.39,2.47-2.18,3.65
				c-0.79,1.18-1.63,2.32-2.53,3.42c-0.9,1.1-1.85,2.15-2.85,3.16c-1,1.01-2.05,1.96-3.14,2.86c-1.1,0.9-2.23,1.75-3.41,2.54
				c-1.18,0.79-2.39,1.52-3.64,2.19c-1.25,0.67-2.53,1.28-3.84,1.83c-1.31,0.55-2.64,1.03-4,1.44l-72.08,22.04
				c-1.36,0.41-2.73,0.76-4.12,1.04c-1.39,0.28-2.79,0.49-4.2,0.63c-1.41,0.14-2.83,0.21-4.25,0.22c-1.42,0-2.84-0.06-4.25-0.2
				s-2.82-0.34-4.21-0.61c-1.39-0.27-2.77-0.62-4.13-1.02c-1.36-0.41-2.69-0.88-4.01-1.42c-1.31-0.54-2.6-1.14-3.85-1.81
				c-1.25-0.67-2.47-1.39-3.65-2.18c-1.18-0.79-2.32-1.63-3.42-2.53c-1.1-0.9-2.15-1.85-3.16-2.85c-1.01-1-1.96-2.05-2.86-3.14
				c-0.9-1.1-1.75-2.23-2.54-3.41c-0.79-1.18-1.52-2.39-2.19-3.64c-0.67-1.25-1.28-2.53-1.83-3.84
				C292.83,376.09,292.35,374.76,291.93,373.4z"/>
			<path class="st2" d="M388.63,568.92c0.53-0.16,1.06-0.3,1.6-0.41c0.54-0.11,1.09-0.19,1.64-0.25c0.55-0.06,1.1-0.08,1.65-0.08
				s1.1,0.02,1.65,0.08c0.55,0.05,1.09,0.13,1.64,0.24c0.54,0.11,1.08,0.24,1.61,0.4c0.53,0.16,1.05,0.34,1.56,0.55
				c0.51,0.21,1.01,0.44,1.5,0.7c0.49,0.26,0.96,0.54,1.42,0.85c0.46,0.31,0.9,0.63,1.33,0.98c0.43,0.35,0.84,0.72,1.23,1.11
				c0.39,0.39,0.76,0.8,1.11,1.22c0.35,0.43,0.68,0.87,0.99,1.33c0.31,0.46,0.59,0.93,0.85,1.42c0.26,0.49,0.5,0.98,0.71,1.49
				c0.21,0.51,0.4,1.03,0.56,1.56c0.16,0.53,0.3,1.06,0.41,1.6c0.11,0.54,0.19,1.09,0.25,1.64c0.06,0.55,0.08,1.1,0.08,1.65
				c0,0.55-0.02,1.1-0.08,1.65c-0.05,0.55-0.13,1.09-0.24,1.64s-0.24,1.08-0.4,1.61s-0.34,1.05-0.55,1.56
				c-0.21,0.51-0.44,1.01-0.7,1.5c-0.26,0.49-0.54,0.96-0.85,1.42c-0.31,0.46-0.63,0.9-0.98,1.33c-0.35,0.43-0.72,0.84-1.11,1.23
				c-0.39,0.39-0.8,0.76-1.22,1.11c-0.43,0.35-0.87,0.68-1.33,0.99c-0.46,0.31-0.93,0.59-1.42,0.85c-0.49,0.26-0.98,0.5-1.49,0.71
				c-0.51,0.21-1.03,0.4-1.56,0.56c-0.53,0.16-1.06,0.3-1.6,0.41c-0.54,0.11-1.09,0.19-1.64,0.25c-0.55,0.06-1.1,0.08-1.65,0.08
				c-0.55,0-1.1-0.02-1.65-0.08c-0.55-0.05-1.09-0.13-1.64-0.24c-0.54-0.11-1.08-0.24-1.61-0.4c-0.53-0.16-1.05-0.34-1.56-0.55
				c-0.51-0.21-1.01-0.44-1.5-0.7c-0.49-0.26-0.96-0.54-1.42-0.85c-0.46-0.31-0.9-0.63-1.33-0.98c-0.43-0.35-0.84-0.72-1.23-1.11
				c-0.39-0.39-0.76-0.8-1.11-1.22s-0.68-0.87-0.99-1.33c-0.31-0.46-0.59-0.93-0.85-1.42c-0.26-0.49-0.5-0.98-0.71-1.49
				c-0.21-0.51-0.4-1.03-0.56-1.56c-0.16-0.53-0.3-1.06-0.41-1.6c-0.11-0.54-0.19-1.09-0.25-1.64c-0.06-0.55-0.08-1.1-0.08-1.65
				c0-0.55,0.02-1.1,0.08-1.65c0.05-0.55,0.13-1.09,0.24-1.64c0.11-0.54,0.24-1.08,0.4-1.61c0.16-0.53,0.34-1.05,0.55-1.56
				c0.21-0.51,0.44-1.01,0.7-1.5c0.26-0.49,0.54-0.96,0.85-1.42c0.31-0.46,0.63-0.9,0.98-1.33c0.35-0.43,0.72-0.84,1.11-1.23
				c0.39-0.39,0.8-0.76,1.22-1.11c0.43-0.35,0.87-0.68,1.33-0.99s0.93-0.59,1.42-0.85c0.49-0.26,0.98-0.5,1.49-0.71
				C387.58,569.26,388.1,569.08,388.63,568.92z"/>
			<path class="st2" d="M301.82,303.76c0.61-0.19,1.23-0.34,1.85-0.47c0.62-0.13,1.25-0.22,1.89-0.28c0.63-0.06,1.27-0.1,1.91-0.1
				c0.64,0,1.27,0.03,1.91,0.09c0.63,0.06,1.26,0.15,1.89,0.28c0.62,0.12,1.24,0.28,1.85,0.46c0.61,0.18,1.21,0.4,1.8,0.64
				c0.59,0.24,1.16,0.51,1.73,0.81c0.56,0.3,1.11,0.62,1.64,0.98c0.53,0.35,1.04,0.73,1.54,1.13s0.97,0.83,1.42,1.28
				s0.88,0.92,1.28,1.41c0.41,0.49,0.79,1,1.14,1.53c0.35,0.53,0.68,1.07,0.98,1.63c0.3,0.56,0.57,1.14,0.82,1.72
				c0.25,0.59,0.46,1.19,0.65,1.8c0.19,0.61,0.34,1.23,0.47,1.85c0.13,0.62,0.22,1.25,0.28,1.89c0.06,0.63,0.1,1.27,0.1,1.91
				s-0.03,1.27-0.09,1.91c-0.06,0.63-0.15,1.26-0.28,1.89c-0.12,0.62-0.28,1.24-0.46,1.85c-0.18,0.61-0.4,1.21-0.64,1.8
				c-0.24,0.59-0.51,1.16-0.81,1.73c-0.3,0.56-0.62,1.11-0.98,1.64c-0.35,0.53-0.73,1.04-1.13,1.54c-0.4,0.49-0.83,0.97-1.28,1.42
				c-0.45,0.45-0.92,0.88-1.41,1.28c-0.49,0.41-1,0.79-1.53,1.14c-0.53,0.35-1.07,0.68-1.63,0.98c-0.56,0.3-1.14,0.57-1.72,0.82
				s-1.19,0.46-1.8,0.65c-0.61,0.19-1.23,0.34-1.85,0.47c-0.62,0.13-1.25,0.22-1.89,0.28c-0.63,0.06-1.27,0.1-1.91,0.1
				c-0.64,0-1.27-0.03-1.91-0.09c-0.63-0.06-1.26-0.15-1.89-0.28c-0.62-0.12-1.24-0.28-1.85-0.46c-0.61-0.18-1.21-0.4-1.8-0.64
				c-0.59-0.24-1.16-0.51-1.73-0.81s-1.11-0.62-1.64-0.98c-0.53-0.35-1.04-0.73-1.54-1.13c-0.49-0.4-0.97-0.83-1.42-1.28
				c-0.45-0.45-0.88-0.92-1.28-1.41c-0.41-0.49-0.79-1-1.14-1.53c-0.35-0.53-0.68-1.07-0.98-1.63c-0.3-0.56-0.57-1.14-0.82-1.72
				s-0.46-1.19-0.65-1.8c-0.19-0.61-0.34-1.23-0.47-1.85c-0.13-0.62-0.22-1.25-0.28-1.89c-0.06-0.63-0.1-1.27-0.1-1.91
				c0-0.64,0.03-1.27,0.09-1.91c0.06-0.63,0.15-1.26,0.28-1.89s0.28-1.24,0.46-1.85c0.18-0.61,0.4-1.21,0.64-1.8
				c0.24-0.59,0.51-1.16,0.81-1.73c0.3-0.56,0.62-1.11,0.98-1.64c0.35-0.53,0.73-1.04,1.13-1.54c0.4-0.49,0.83-0.97,1.28-1.42
				s0.92-0.88,1.41-1.28c0.49-0.41,1-0.79,1.53-1.14c0.53-0.35,1.07-0.68,1.63-0.98c0.56-0.3,1.14-0.57,1.72-0.82
				C300.61,304.16,301.21,303.94,301.82,303.76z"/>
			<path class="st2" d="M402.23,273.06c0.61-0.19,1.23-0.34,1.85-0.47c0.62-0.13,1.25-0.22,1.89-0.28c0.63-0.06,1.27-0.1,1.91-0.1
				c0.64,0,1.27,0.03,1.91,0.09c0.63,0.06,1.26,0.15,1.89,0.28c0.62,0.12,1.24,0.28,1.85,0.46c0.61,0.18,1.21,0.4,1.8,0.64
				c0.59,0.24,1.16,0.51,1.73,0.81c0.56,0.3,1.11,0.62,1.64,0.98c0.53,0.35,1.04,0.73,1.54,1.13s0.97,0.83,1.42,1.28
				c0.45,0.45,0.88,0.92,1.28,1.41c0.41,0.49,0.79,1,1.14,1.53c0.36,0.53,0.68,1.07,0.98,1.63c0.3,0.56,0.57,1.14,0.82,1.72
				c0.25,0.59,0.46,1.19,0.65,1.8c0.19,0.61,0.34,1.23,0.47,1.85s0.22,1.25,0.28,1.89c0.06,0.63,0.1,1.27,0.1,1.91
				c0,0.64-0.03,1.27-0.09,1.91c-0.06,0.63-0.15,1.26-0.28,1.89c-0.12,0.62-0.28,1.24-0.46,1.85c-0.18,0.61-0.4,1.21-0.64,1.8
				c-0.24,0.59-0.51,1.16-0.81,1.73c-0.3,0.56-0.62,1.11-0.98,1.64c-0.35,0.53-0.73,1.04-1.13,1.54c-0.4,0.49-0.83,0.97-1.28,1.42
				c-0.45,0.45-0.92,0.88-1.41,1.28c-0.49,0.41-1,0.79-1.53,1.14c-0.53,0.35-1.07,0.68-1.63,0.98c-0.56,0.3-1.14,0.57-1.72,0.82
				s-1.19,0.46-1.8,0.65c-0.61,0.19-1.23,0.34-1.85,0.47c-0.62,0.13-1.25,0.22-1.89,0.28c-0.63,0.06-1.27,0.1-1.91,0.1
				c-0.64,0-1.27-0.03-1.91-0.09c-0.63-0.06-1.26-0.15-1.89-0.28c-0.62-0.12-1.24-0.28-1.85-0.46c-0.61-0.18-1.21-0.4-1.8-0.64
				s-1.16-0.51-1.73-0.81c-0.56-0.3-1.11-0.62-1.64-0.98c-0.53-0.35-1.04-0.73-1.54-1.13c-0.49-0.4-0.97-0.83-1.42-1.28
				c-0.45-0.45-0.88-0.92-1.28-1.41s-0.79-1-1.14-1.53c-0.35-0.53-0.68-1.07-0.98-1.63c-0.3-0.56-0.57-1.14-0.82-1.72
				c-0.24-0.59-0.46-1.19-0.65-1.8c-0.19-0.61-0.34-1.23-0.47-1.85c-0.13-0.62-0.22-1.25-0.28-1.89c-0.06-0.63-0.1-1.27-0.1-1.91
				c0-0.64,0.03-1.27,0.09-1.91s0.15-1.26,0.28-1.89c0.12-0.62,0.28-1.24,0.46-1.85c0.18-0.61,0.4-1.21,0.64-1.8
				c0.24-0.59,0.51-1.16,0.81-1.73c0.3-0.56,0.62-1.11,0.98-1.64c0.35-0.53,0.73-1.04,1.13-1.54c0.4-0.49,0.83-0.97,1.28-1.42
				c0.45-0.45,0.92-0.88,1.41-1.28c0.49-0.41,1-0.79,1.53-1.14c0.53-0.35,1.07-0.68,1.63-0.98c0.56-0.3,1.14-0.57,1.72-0.82
				C401.02,273.46,401.62,273.24,402.23,273.06z"/>
			
				<ellipse transform="matrix(0.4695 -0.8829 0.8829 0.4695 -242.268 716.8322)" class="st2" cx="475.37" cy="560.02" rx="16.85" ry="16.85"/>
			<line class="st1" x1="361.87" y1="247.44" x2="386.66" y2="239.86"/>
			<line class="st1" x1="291.2" y1="269.05" x2="316" y2="261.47"/>
			<path class="st1" d="M286.59,240.64c0,0-13.64,4.17-12.33,17.32"/>
			<path class="st1" d="M374.6,213.73c0,0,13.64-4.17,19.91,7.47"/>
			<path class="st1" d="M346.7,280.34c0,0-5.76,10.83,4.23,13.82l19.35-5.92"/>
			<path class="st1" d="M229.61,311.28l-11.57-37.84c-0.27-0.87-0.45-1.77-0.54-2.68c-0.09-0.91-0.09-1.82-0.01-2.73
				s0.26-1.8,0.53-2.68s0.61-1.72,1.04-2.52c0.43-0.81,0.93-1.56,1.51-2.27s1.22-1.35,1.93-1.93c0.71-0.58,1.46-1.09,2.27-1.52
				c0.81-0.43,1.64-0.78,2.52-1.05l13.05-3.99c0.87-0.27,1.77-0.45,2.68-0.54c0.91-0.09,1.82-0.09,2.73-0.01
				c0.91,0.09,1.8,0.26,2.68,0.53c0.88,0.26,1.72,0.61,2.52,1.04c0.81,0.43,1.56,0.93,2.27,1.51c0.71,0.58,1.35,1.22,1.93,1.93
				c0.58,0.71,1.09,1.46,1.52,2.27c0.43,0.81,0.78,1.64,1.05,2.52l11.57,37.84c0.27,0.87,0.45,1.77,0.54,2.68
				c0.09,0.91,0.09,1.82,0.01,2.73c-0.09,0.91-0.26,1.8-0.53,2.68c-0.26,0.88-0.61,1.72-1.04,2.52c-0.43,0.81-0.93,1.56-1.51,2.27
				c-0.58,0.71-1.22,1.35-1.93,1.93c-0.71,0.58-1.46,1.09-2.27,1.52c-0.81,0.43-1.64,0.78-2.52,1.05l-13.05,3.99
				c-0.87,0.27-1.77,0.45-2.68,0.54c-0.91,0.09-1.82,0.09-2.73,0.01c-0.91-0.09-1.8-0.26-2.68-0.53c-0.88-0.26-1.72-0.61-2.52-1.04
				s-1.56-0.93-2.27-1.51c-0.71-0.58-1.35-1.22-1.93-1.93c-0.58-0.71-1.09-1.46-1.52-2.27
				C230.23,312.99,229.88,312.15,229.61,311.28z"/>
			<path class="st1" d="M424.19,251.79l-11.57-37.84c-0.27-0.87-0.45-1.77-0.54-2.68c-0.09-0.91-0.09-1.82-0.01-2.73
				c0.09-0.91,0.26-1.8,0.53-2.68c0.26-0.88,0.61-1.72,1.04-2.52c0.43-0.81,0.93-1.56,1.51-2.27c0.58-0.71,1.22-1.35,1.93-1.93
				c0.71-0.58,1.46-1.09,2.27-1.52c0.81-0.43,1.64-0.78,2.52-1.05l13.05-3.99c0.87-0.27,1.77-0.45,2.68-0.54
				c0.91-0.09,1.82-0.09,2.73-0.01c0.91,0.09,1.8,0.26,2.68,0.53s1.72,0.61,2.52,1.04c0.81,0.43,1.56,0.93,2.27,1.51
				c0.71,0.58,1.35,1.22,1.93,1.93c0.58,0.71,1.09,1.46,1.52,2.27c0.43,0.81,0.78,1.64,1.05,2.52l11.57,37.84
				c0.27,0.87,0.45,1.77,0.54,2.68c0.09,0.91,0.09,1.82,0.01,2.73c-0.09,0.91-0.26,1.8-0.53,2.68c-0.26,0.88-0.61,1.72-1.04,2.52
				s-0.93,1.56-1.51,2.27c-0.58,0.71-1.22,1.35-1.93,1.93c-0.71,0.58-1.46,1.09-2.27,1.52c-0.81,0.43-1.64,0.78-2.52,1.05
				l-13.05,3.99c-0.87,0.27-1.77,0.45-2.68,0.54s-1.82,0.09-2.73,0.01c-0.91-0.09-1.8-0.26-2.68-0.53
				c-0.88-0.26-1.72-0.61-2.52-1.04c-0.81-0.43-1.56-0.93-2.27-1.51c-0.71-0.58-1.35-1.22-1.93-1.93c-0.58-0.71-1.09-1.46-1.52-2.27
				C424.81,253.5,424.46,252.66,424.19,251.79z"/>
			<line class="st1" x1="245.13" y1="291.27" x2="262.49" y2="285.96"/>
			<line class="st1" x1="419.92" y1="237.83" x2="437.28" y2="232.52"/>
			<polyline class="st1" points="646.16,240.76 695.75,225.6 823.85,644.61 			"/>
			<polyline class="st1" points="658.98,695.01 530.87,276.01 570.54,263.88 			"/>
			<line class="st1" x1="564.63" y1="319.91" x2="687.35" y2="282.39"/>
			<line class="st1" x1="580.68" y1="350.25" x2="693.49" y2="315.76"/>
			<line class="st1" x1="590.53" y1="382.48" x2="703.34" y2="347.99"/>
			<line class="st1" x1="600.39" y1="414.71" x2="713.2" y2="380.22"/>
			<line class="st1" x1="610.24" y1="446.94" x2="723.05" y2="412.45"/>
			<line class="st1" x1="620.1" y1="479.17" x2="732.9" y2="444.68"/>
			<line class="st1" x1="629.95" y1="511.4" x2="742.76" y2="476.91"/>
			<line class="st1" x1="639.8" y1="543.63" x2="752.61" y2="509.14"/>
			<line class="st1" x1="649.66" y1="575.86" x2="762.47" y2="541.38"/>
			<line class="st1" x1="659.51" y1="608.1" x2="772.32" y2="573.61"/>
			<line class="st1" x1="669.37" y1="640.33" x2="782.18" y2="605.84"/>
			<line class="st1" x1="679.22" y1="672.56" x2="792.03" y2="638.07"/>
			<path class="st1" d="M574.64,277.29l-16.92-55.33c-0.2-0.67-0.34-1.35-0.41-2.04c-0.07-0.69-0.07-1.39,0-2.08
				c0.07-0.69,0.2-1.37,0.4-2.04c0.2-0.67,0.46-1.31,0.79-1.92c0.33-0.62,0.71-1.19,1.15-1.73s0.93-1.03,1.47-1.47
				c0.54-0.44,1.11-0.83,1.73-1.16c0.61-0.33,1.25-0.6,1.92-0.8l55.33-16.92c0.67-0.2,1.35-0.34,2.04-0.41
				c0.69-0.07,1.39-0.07,2.08,0c0.69,0.07,1.37,0.2,2.04,0.4c0.67,0.2,1.31,0.46,1.92,0.79c0.62,0.33,1.19,0.71,1.73,1.15
				c0.54,0.44,1.03,0.93,1.47,1.47c0.44,0.54,0.83,1.11,1.16,1.73c0.33,0.61,0.6,1.25,0.8,1.92l16.92,55.33
				c0.2,0.67,0.34,1.35,0.41,2.04c0.07,0.69,0.07,1.39,0,2.08c-0.07,0.69-0.2,1.37-0.4,2.04c-0.2,0.67-0.46,1.31-0.79,1.92
				c-0.33,0.62-0.71,1.19-1.15,1.73c-0.44,0.54-0.93,1.03-1.47,1.47c-0.54,0.44-1.11,0.83-1.73,1.16c-0.61,0.33-1.25,0.6-1.92,0.8
				l-55.33,16.92c-0.67,0.2-1.35,0.34-2.04,0.41c-0.69,0.07-1.39,0.07-2.08,0c-0.69-0.07-1.37-0.2-2.04-0.4
				c-0.67-0.2-1.31-0.46-1.92-0.79c-0.62-0.33-1.19-0.71-1.73-1.15c-0.54-0.44-1.03-0.93-1.47-1.47c-0.44-0.54-0.83-1.11-1.16-1.73
				S574.84,277.95,574.64,277.29z"/>
			<line class="st1" x1="590.17" y1="259.57" x2="596.9" y2="281.58"/>
			<line class="st1" x1="608.2" y1="254.05" x2="614.93" y2="276.06"/>
			<line class="st1" x1="626.8" y1="248.37" x2="633.53" y2="270.38"/>
			<line class="st1" x1="554.84" y1="252.41" x2="558.63" y2="264.81"/>
			<path class="st1" d="M569.5,207.27c0,0-15.63,2.07-18.04,16.36c-2.41,14.29-56.8,155.63-56.8,155.63s-13.39,27.14-39.43,35.1"/>
			<path class="st1" d="M367.22,441.26l-86.58,26.47c-13.12,4.01-20.5,17.89-16.49,31.01l86.67,283.49l46.3,151.43l10.23,33.47"/>
			<line class="st1" x1="455.04" y1="414.41" x2="421.49" y2="424.67"/>
			<path class="st1" d="M556.24,745.4c13.12-4.01,20.5-17.89,16.49-31.01l-82.18-268.81"/>
			<polyline class="st3" points="328.01,516.96 411.39,789.69 456.49,937.2 			"/>
			<polyline class="st1" points="328.01,516.96 411.39,789.69 456.49,937.2 			"/>
			<path class="st1" d="M383.77,566.33c0.53-0.16,1.06-0.3,1.6-0.41c0.54-0.11,1.09-0.19,1.64-0.25c0.55-0.06,1.1-0.08,1.65-0.08
				c0.55,0,1.1,0.02,1.65,0.08c0.55,0.05,1.09,0.13,1.64,0.24c0.54,0.11,1.08,0.24,1.61,0.4c0.53,0.16,1.05,0.34,1.56,0.55
				c0.51,0.21,1.01,0.44,1.5,0.7c0.49,0.26,0.96,0.54,1.42,0.85c0.46,0.31,0.9,0.63,1.33,0.98c0.43,0.35,0.84,0.72,1.23,1.11
				c0.39,0.39,0.76,0.8,1.11,1.22c0.35,0.43,0.68,0.87,0.99,1.33c0.31,0.46,0.59,0.93,0.85,1.42c0.26,0.49,0.5,0.98,0.71,1.49
				c0.21,0.51,0.4,1.03,0.56,1.56c0.16,0.53,0.3,1.06,0.41,1.6c0.11,0.54,0.19,1.09,0.25,1.64c0.06,0.55,0.08,1.1,0.08,1.65
				c0,0.55-0.02,1.1-0.08,1.65s-0.13,1.09-0.24,1.64c-0.11,0.54-0.24,1.08-0.4,1.61c-0.16,0.53-0.34,1.05-0.55,1.56
				s-0.44,1.01-0.7,1.5c-0.26,0.49-0.54,0.96-0.85,1.42c-0.31,0.46-0.63,0.9-0.98,1.33c-0.35,0.43-0.72,0.84-1.11,1.23
				s-0.8,0.76-1.22,1.11s-0.87,0.68-1.33,0.99c-0.46,0.31-0.93,0.59-1.42,0.85c-0.49,0.26-0.98,0.5-1.49,0.71
				c-0.51,0.21-1.03,0.4-1.56,0.56c-0.53,0.16-1.06,0.3-1.6,0.41c-0.54,0.11-1.09,0.19-1.64,0.25c-0.55,0.06-1.1,0.08-1.65,0.08
				c-0.55,0-1.1-0.02-1.65-0.08c-0.55-0.05-1.09-0.13-1.64-0.24c-0.54-0.11-1.08-0.24-1.61-0.4c-0.53-0.16-1.05-0.34-1.56-0.55
				c-0.51-0.21-1.01-0.44-1.5-0.7c-0.49-0.26-0.96-0.54-1.42-0.85c-0.46-0.31-0.9-0.63-1.33-0.98c-0.43-0.35-0.84-0.72-1.23-1.11
				c-0.39-0.39-0.76-0.8-1.11-1.22c-0.35-0.43-0.68-0.87-0.99-1.33c-0.31-0.46-0.59-0.93-0.85-1.42c-0.26-0.49-0.5-0.98-0.71-1.49
				c-0.21-0.51-0.4-1.03-0.56-1.56c-0.16-0.53-0.3-1.06-0.41-1.6c-0.11-0.54-0.19-1.09-0.25-1.64c-0.06-0.55-0.08-1.1-0.08-1.65
				c0-0.55,0.02-1.1,0.08-1.65s0.13-1.09,0.24-1.64c0.11-0.54,0.24-1.08,0.4-1.61c0.16-0.53,0.34-1.05,0.55-1.56s0.44-1.01,0.7-1.5
				c0.26-0.49,0.54-0.96,0.85-1.42c0.31-0.46,0.63-0.9,0.98-1.33c0.35-0.43,0.72-0.84,1.11-1.23c0.39-0.39,0.8-0.76,1.22-1.11
				c0.43-0.35,0.87-0.68,1.33-0.99c0.46-0.31,0.93-0.59,1.42-0.85c0.49-0.26,0.98-0.5,1.49-0.71
				C382.72,566.68,383.24,566.49,383.77,566.33z"/>
			<path class="st4" d="M387.56,578.73c0.24-0.07,0.49-0.12,0.75-0.15c0.25-0.03,0.51-0.03,0.76,0s0.5,0.07,0.75,0.15
				c0.24,0.07,0.48,0.17,0.7,0.29c0.23,0.12,0.44,0.26,0.63,0.42c0.2,0.16,0.38,0.34,0.54,0.54c0.16,0.2,0.3,0.41,0.42,0.63
				c0.12,0.22,0.22,0.46,0.29,0.7c0.07,0.24,0.12,0.49,0.15,0.75c0.03,0.25,0.03,0.51,0,0.76c-0.02,0.25-0.07,0.5-0.15,0.75
				c-0.07,0.24-0.17,0.48-0.29,0.7c-0.12,0.23-0.26,0.44-0.42,0.63c-0.16,0.2-0.34,0.38-0.54,0.54c-0.2,0.16-0.41,0.3-0.63,0.42
				c-0.22,0.12-0.46,0.22-0.7,0.29c-0.24,0.07-0.49,0.12-0.75,0.15c-0.25,0.03-0.51,0.03-0.76,0c-0.25-0.02-0.5-0.07-0.75-0.15
				c-0.24-0.07-0.48-0.17-0.7-0.29c-0.23-0.12-0.44-0.26-0.63-0.42c-0.2-0.16-0.38-0.34-0.54-0.54c-0.16-0.2-0.3-0.41-0.42-0.63
				s-0.22-0.46-0.29-0.7c-0.07-0.24-0.12-0.49-0.15-0.75c-0.03-0.25-0.03-0.51,0-0.76c0.02-0.25,0.07-0.5,0.15-0.75
				c0.07-0.24,0.17-0.48,0.29-0.71c0.12-0.23,0.26-0.44,0.42-0.63s0.34-0.38,0.54-0.54c0.2-0.16,0.41-0.3,0.63-0.42
				C387.08,578.9,387.32,578.8,387.56,578.73z"/>
			<path class="st5" d="M387.56,578.73c0.24-0.07,0.49-0.12,0.75-0.15c0.25-0.03,0.51-0.03,0.76,0c0.25,0.02,0.5,0.07,0.75,0.15
				c0.24,0.07,0.48,0.17,0.7,0.29c0.23,0.12,0.44,0.26,0.63,0.42c0.2,0.16,0.38,0.34,0.54,0.54c0.16,0.2,0.3,0.41,0.42,0.63
				c0.12,0.22,0.22,0.46,0.29,0.7c0.07,0.24,0.12,0.49,0.15,0.75c0.03,0.25,0.03,0.51,0,0.76c-0.02,0.25-0.07,0.5-0.15,0.75
				c-0.07,0.24-0.17,0.48-0.29,0.7c-0.12,0.23-0.26,0.44-0.42,0.63c-0.16,0.2-0.34,0.38-0.54,0.54c-0.2,0.16-0.41,0.3-0.63,0.42
				c-0.22,0.12-0.46,0.22-0.7,0.29c-0.24,0.07-0.49,0.12-0.75,0.15c-0.25,0.03-0.51,0.03-0.76,0s-0.5-0.07-0.75-0.15
				c-0.24-0.07-0.48-0.17-0.71-0.29c-0.23-0.12-0.44-0.26-0.63-0.42s-0.38-0.34-0.54-0.54c-0.16-0.2-0.3-0.41-0.42-0.63
				c-0.12-0.22-0.22-0.46-0.29-0.7s-0.12-0.49-0.15-0.75c-0.03-0.25-0.03-0.51,0-0.76c0.02-0.25,0.07-0.5,0.15-0.75
				c0.07-0.24,0.17-0.48,0.29-0.7c0.12-0.23,0.26-0.44,0.42-0.63c0.16-0.2,0.34-0.38,0.54-0.54c0.2-0.16,0.41-0.3,0.63-0.42
				S387.32,578.8,387.56,578.73z"/>
			<path class="st1" d="M473.03,539.05c0.53-0.16,1.06-0.3,1.6-0.41c0.54-0.11,1.09-0.19,1.64-0.25c0.55-0.06,1.1-0.08,1.65-0.08
				c0.55,0,1.1,0.02,1.65,0.08c0.55,0.05,1.09,0.13,1.64,0.24c0.54,0.11,1.08,0.24,1.61,0.4c0.53,0.16,1.05,0.34,1.56,0.55
				c0.51,0.21,1.01,0.44,1.5,0.7c0.49,0.26,0.96,0.54,1.42,0.85c0.46,0.31,0.9,0.63,1.33,0.98c0.43,0.35,0.84,0.72,1.23,1.11
				c0.39,0.39,0.76,0.8,1.11,1.22c0.35,0.43,0.68,0.87,0.99,1.33c0.31,0.46,0.59,0.93,0.85,1.42c0.26,0.49,0.5,0.98,0.71,1.49
				s0.4,1.03,0.56,1.56c0.16,0.53,0.3,1.06,0.41,1.6c0.11,0.54,0.19,1.09,0.25,1.64c0.06,0.55,0.08,1.1,0.08,1.65
				c0,0.55-0.02,1.1-0.08,1.65c-0.05,0.55-0.13,1.09-0.24,1.64s-0.24,1.08-0.4,1.61c-0.16,0.53-0.34,1.05-0.55,1.56
				c-0.21,0.51-0.44,1.01-0.7,1.5c-0.26,0.49-0.54,0.96-0.85,1.42c-0.31,0.46-0.63,0.9-0.98,1.33c-0.35,0.43-0.72,0.84-1.11,1.23
				s-0.8,0.76-1.22,1.11c-0.43,0.35-0.87,0.68-1.33,0.99c-0.46,0.31-0.93,0.59-1.42,0.85c-0.49,0.26-0.98,0.5-1.49,0.71
				c-0.51,0.21-1.03,0.4-1.56,0.56c-0.53,0.16-1.06,0.3-1.6,0.41c-0.54,0.11-1.09,0.19-1.64,0.25c-0.55,0.06-1.1,0.08-1.65,0.08
				c-0.55,0-1.1-0.02-1.65-0.08c-0.55-0.05-1.09-0.13-1.64-0.24c-0.54-0.11-1.08-0.24-1.61-0.4c-0.53-0.16-1.05-0.34-1.56-0.55
				c-0.51-0.21-1.01-0.44-1.5-0.7c-0.49-0.26-0.96-0.54-1.42-0.85c-0.46-0.31-0.9-0.63-1.33-0.98c-0.43-0.35-0.84-0.72-1.23-1.11
				c-0.39-0.39-0.76-0.8-1.11-1.22c-0.35-0.43-0.68-0.87-0.99-1.33c-0.31-0.46-0.59-0.93-0.85-1.42c-0.26-0.49-0.5-0.98-0.71-1.49
				c-0.21-0.51-0.4-1.03-0.56-1.56c-0.16-0.53-0.3-1.06-0.41-1.6c-0.11-0.54-0.19-1.09-0.25-1.64c-0.06-0.55-0.08-1.1-0.08-1.65
				c0-0.55,0.02-1.1,0.08-1.65s0.13-1.09,0.24-1.64c0.11-0.54,0.24-1.08,0.4-1.61s0.34-1.05,0.55-1.56s0.44-1.01,0.7-1.5
				c0.26-0.49,0.54-0.96,0.85-1.42s0.63-0.9,0.98-1.33c0.35-0.43,0.72-0.84,1.11-1.23c0.39-0.39,0.8-0.76,1.22-1.11
				c0.43-0.35,0.87-0.68,1.33-0.99c0.46-0.31,0.93-0.59,1.42-0.85c0.49-0.26,0.98-0.5,1.49-0.71
				C471.98,539.39,472.5,539.21,473.03,539.05z"/>
			<path class="st4" d="M476.82,551.44c0.24-0.07,0.49-0.12,0.75-0.15c0.25-0.03,0.51-0.03,0.76,0c0.25,0.02,0.5,0.07,0.75,0.15
				c0.24,0.07,0.48,0.17,0.7,0.29c0.23,0.12,0.44,0.26,0.63,0.42s0.38,0.34,0.54,0.54c0.16,0.2,0.3,0.41,0.42,0.63
				c0.12,0.22,0.22,0.46,0.29,0.7c0.07,0.24,0.12,0.49,0.15,0.75s0.03,0.51,0,0.76c-0.02,0.25-0.07,0.5-0.15,0.75
				c-0.07,0.24-0.17,0.48-0.29,0.7c-0.12,0.23-0.26,0.44-0.42,0.63c-0.16,0.2-0.34,0.38-0.54,0.54s-0.41,0.3-0.63,0.42
				c-0.22,0.12-0.46,0.22-0.7,0.29c-0.24,0.07-0.49,0.12-0.75,0.15c-0.25,0.03-0.51,0.03-0.76,0c-0.25-0.02-0.5-0.07-0.75-0.15
				c-0.24-0.07-0.48-0.17-0.7-0.29c-0.23-0.12-0.44-0.26-0.63-0.42c-0.2-0.16-0.38-0.34-0.54-0.54c-0.16-0.2-0.3-0.41-0.42-0.63
				c-0.12-0.22-0.22-0.46-0.29-0.7c-0.07-0.24-0.12-0.49-0.15-0.75c-0.03-0.25-0.03-0.51,0-0.76c0.02-0.25,0.07-0.5,0.15-0.75
				c0.07-0.24,0.17-0.48,0.29-0.71c0.12-0.23,0.26-0.44,0.42-0.63c0.16-0.2,0.34-0.38,0.54-0.54c0.2-0.16,0.41-0.3,0.63-0.42
				C476.34,551.61,476.57,551.52,476.82,551.44z"/>
			<path class="st5" d="M476.82,551.44c0.24-0.07,0.49-0.12,0.75-0.15c0.25-0.03,0.51-0.03,0.76,0c0.25,0.02,0.5,0.07,0.75,0.15
				c0.24,0.07,0.48,0.17,0.7,0.29c0.23,0.12,0.44,0.26,0.63,0.42c0.2,0.16,0.38,0.34,0.54,0.54c0.16,0.2,0.3,0.41,0.42,0.63
				c0.12,0.22,0.22,0.46,0.29,0.7c0.07,0.24,0.12,0.49,0.15,0.75c0.03,0.25,0.03,0.51,0,0.76c-0.02,0.25-0.07,0.5-0.15,0.75
				c-0.07,0.24-0.17,0.48-0.29,0.7c-0.12,0.23-0.26,0.44-0.42,0.63s-0.34,0.38-0.54,0.54c-0.2,0.16-0.41,0.3-0.63,0.42
				c-0.22,0.12-0.46,0.22-0.7,0.29c-0.24,0.07-0.49,0.12-0.75,0.15c-0.25,0.03-0.51,0.03-0.76,0c-0.25-0.02-0.5-0.07-0.75-0.15
				c-0.24-0.07-0.48-0.17-0.7-0.29c-0.23-0.12-0.44-0.26-0.63-0.42s-0.38-0.34-0.54-0.54c-0.16-0.2-0.3-0.41-0.42-0.63
				c-0.12-0.22-0.22-0.46-0.29-0.7c-0.07-0.24-0.12-0.49-0.15-0.75c-0.03-0.25-0.03-0.51,0-0.76c0.02-0.25,0.07-0.5,0.15-0.75
				c0.07-0.24,0.17-0.48,0.29-0.7c0.12-0.23,0.26-0.44,0.42-0.63c0.16-0.2,0.34-0.38,0.54-0.54c0.2-0.16,0.41-0.3,0.63-0.42
				C476.34,551.61,476.57,551.52,476.82,551.44z"/>
			<line class="st1" x1="391.59" y1="529.54" x2="386.21" y2="511.91"/>
			<line class="st1" x1="405.63" y1="522.24" x2="401.92" y2="510.12"/>
			<line class="st1" x1="448.62" y1="512.1" x2="443.23" y2="494.48"/>
			<line class="st1" x1="432.9" y1="513.9" x2="429.2" y2="501.78"/>
			<line class="st1" x1="421.28" y1="524.67" x2="413.54" y2="499.34"/>
			<line class="st1" x1="102.82" y1="241.5" x2="115.32" y2="282.41"/>
			<line class="st1" x1="88.62" y1="268.21" x2="129.53" y2="255.7"/>
			<line class="st1" x1="192.79" y1="398.35" x2="205.3" y2="439.26"/>
			<line class="st1" x1="178.59" y1="425.06" x2="219.5" y2="412.55"/>
			<line class="st1" x1="480.11" y1="43.46" x2="492.62" y2="84.37"/>
			<line class="st1" x1="465.91" y1="70.17" x2="506.82" y2="57.67"/>
			<path class="st1" d="M556.16,363.16c0,0-4.78,10.95-17.9,43.43c-13.11,32.48-46.48,38.61-46.48,38.61"/>
			<path class="st1" d="M211.7,679.82c6.54-2,13.46,1.68,15.46,8.22c2,6.54-1.68,13.46-8.22,15.46"/>
			<path class="st1" d="M55.31,727.62c-6.54,2-13.46-1.68-15.46-8.22c-2-6.54,1.68-13.46,8.22-15.46l223.99-68.48"/>
			<path class="st1" d="M763.08,218.42l90.33-27.73c6.54-2,13.46,1.68,15.46,8.22c2,6.54-1.68,13.46-8.22,15.46l-117.41,35.89"/>
			<line class="st1" x1="755.68" y1="194.86" x2="912.06" y2="147.05"/>
			<path class="st1" d="M763.09,218.42c-6.54,2-13.46-1.68-15.46-8.22s1.68-13.46,8.22-15.46"/>
			<path class="st1" d="M681,191.71l223.99-68.48c6.54-2,13.46,1.68,15.46,8.22c2,6.54-1.68,13.46-8.22,15.46"/>
			<path class="st1" d="M372,333.81c0,0,30.79-1.28,28.75-34.54"/>
			
				<rect x="133.35" y="679.99" transform="matrix(0.9563 -0.2924 0.2924 0.9563 -183.7611 200.4158)" class="st6" width="890.56" height="70"/>
			<path class="st6" d="M453.4,719.97l-3.78-12.37l3.51-16.5l11.93-12.88l12.55-4.89l10.03,0.69l7.23,2.22l5.85,3.35l4.02,4.36
				l7.59-9.55c0,0,7.11-4.43,9.59-5.19c2.48-0.76,10.8-0.67,10.8-0.67l6.97,2.71l7.79,3.69l3.85,4l2.4,2.78
				c0,0,14.87-12.06,15.74-12.91c0.86-0.86,14.36-3.71,14.36-3.71l6.37,0.51l4.47,1.14l6.06,2.73l6.77,4.73l6.45-7.39l10.25-4.49
				l9.91-3.05l5.83-3.11l1.93-11.43l2.7-5.55l3.52-3.4l7.25-4.65l4.96-1.52l6.58-0.66l6.1,2.2l2.86,0.48l2.86,0.48l1.07-9.81
				l9.26-8.89l20.32-9.64l7.07,1.54l6.82,1.97l6.09,3.31l10.6,12.27l2.45,4.7l17.81,58.26l-309.71,86.55L453.4,719.97z"/>
			<line class="st1" x1="976.88" y1="640.94" x2="147.54" y2="894.49"/>
			<line class="st1" x1="662.88" y1="685.33" x2="907.9" y2="610.42"/>
			<path class="st1" d="M660.28,686.13c-5.93-11.88-19.71-18.11-32.84-14.1c-7.39,2.26-13.16,7.33-16.48,13.68
				c-8.18-8.36-20.61-11.99-32.58-8.34c-17.06,5.22-26.67,23.29-21.45,40.35"/>
			<path class="st1" d="M873.35,599.39l-128.21,39.2c-5.22-17.06-23.29-26.67-40.35-21.46c-11.96,3.66-20.24,13.62-22.34,25.13
				c-6.3-3.41-13.92-4.39-21.31-2.13c-13.13,4.01-21.07,16.88-19.34,30.05"/>
			<path class="st1" d="M557.66,694.53c-5.93-11.88-19.71-18.11-32.84-14.1c-7.39,2.26-13.16,7.33-16.48,13.68
				c-8.18-8.36-20.61-11.99-32.58-8.34c-17.06,5.22-26.67,23.29-21.46,40.35L215.95,799"/>
		</g>
	</g>
</g>
<g>
</g>
<g>
</g>
<g>
</g>
<g>
</g>
<g>
</g>
<g>
</g>
<g>
</g>
<g>
</g>
<g>
</g>
<g>
</g>
<g>
</g>
<g>
</g>
<g>
</g>
<g>
</g>
<g>
</g>
</svg>
