<svg version="1.1" id="Layer_1" xmlns="http://www.w3.org/2000/svg" xmlns:xlink="http://www.w3.org/1999/xlink" x="0" y="0" viewBox="0 0 794 675" xml:space="preserve"><style>.st1,.st2{clip-path:url(#SVGID_4_)}.st1{fill:none;stroke:#000;stroke-width:2;stroke-linecap:round;stroke-miterlimit:10}.st2{fill:#ff1d26}.st4,.st5,.st6{clip-path:url(#SVGID_4_)}.st5{fill:none;stroke:#000;stroke-width:2}.st6{fill:#ffc100}</style><defs><path id="SVGID_1_" d="M-.4-.49h794.8v675.98H-.4z"/></defs><clipPath id="SVGID_2_"><use xlink:href="#SVGID_1_" overflow="visible"/></clipPath><g clip-path="url(#SVGID_2_)"><defs><path id="SVGID_3_" d="M-.4-.49h794.8v675.98H-.4z"/></defs><clipPath id="SVGID_4_"><use xlink:href="#SVGID_3_" overflow="visible"/></clipPath><path class="st1" d="M419.29 425.34l-12.53-41.78-52.06 15.92 12.52 41.78"/><path class="st1" d="M291.93 373.4l-51.82-169.49c-.41-1.36-.76-2.73-1.04-4.12s-.49-2.79-.63-4.2-.21-2.83-.22-4.25c0-1.42.06-2.84.2-4.25.14-1.41.34-2.82.61-4.21.27-1.39.62-2.77 1.02-4.13.41-1.36.88-2.69 1.42-4.01.54-1.31 1.14-2.6 1.81-3.85a43.397 43.397 0 017.56-10.23c1-1.01 2.05-1.96 3.14-2.86 1.1-.9 2.23-1.75 3.41-2.54 1.18-.79 2.39-1.52 3.64-2.19a44.99 44.99 0 013.84-1.83c1.31-.55 2.64-1.03 4-1.44l72.08-22.04c1.36-.41 2.73-.76 4.12-1.04 1.39-.28 2.79-.49 4.2-.63 1.41-.14 2.83-.21 4.25-.22 1.42 0 2.84.06 4.25.2s2.82.34 4.21.61c1.39.27 2.77.62 4.13 1.02 1.36.41 2.69.88 4.01 1.42s2.6 1.14 3.85 1.81a43.397 43.397 0 0110.23 7.56c1.01 1 1.96 2.05 2.86 3.14.9 1.1 1.75 2.23 2.54 3.41.79 1.18 1.52 2.39 2.19 3.64a44.99 44.99 0 011.83 3.84c.55 1.31 1.03 2.64 1.44 4l51.82 169.49c.41 1.36.76 2.73 1.04 4.12.28 1.39.49 2.79.63 4.2.14 1.41.21 2.83.22 4.25 0 1.42-.06 2.83-.2 4.25-.14 1.41-.34 2.82-.61 4.21-.27 1.39-.62 2.77-1.02 4.13s-.88 2.69-1.42 4.01c-.54 1.31-1.14 2.6-1.81 3.85a43.397 43.397 0 01-7.56 10.23c-1 1.01-2.05 1.96-3.14 2.86-1.1.9-2.23 1.75-3.41 2.54-1.18.79-2.39 1.52-3.64 2.19a44.99 44.99 0 01-3.84 1.83c-1.31.55-2.64 1.03-4 1.44l-72.08 22.04c-1.36.41-2.73.76-4.12 1.04-1.39.28-2.79.49-4.2.63-1.41.14-2.83.21-4.25.22-1.42 0-2.84-.06-4.25-.2s-2.82-.34-4.21-.61c-1.39-.27-2.77-.62-4.13-1.02-1.36-.41-2.69-.88-4.01-1.42-1.31-.54-2.6-1.14-3.85-1.81a43.397 43.397 0 01-10.23-7.56c-1.01-1-1.96-2.05-2.86-3.14-.9-1.1-1.75-2.23-2.54-3.41-.79-1.18-1.52-2.39-2.19-3.64a44.99 44.99 0 01-1.83-3.84c-.54-1.31-1.02-2.64-1.44-4z"/><path class="st2" d="M388.63 568.92c.53-.16 1.06-.3 1.6-.41.54-.11 1.09-.19 1.64-.25.55-.06 1.1-.08 1.65-.08s1.1.02 1.65.08c.55.05 1.09.13 1.64.24.54.11 1.08.24 1.61.4a16.96 16.96 0 013.06 1.25c.49.26.96.54 1.42.85.46.31.9.63 1.33.98.43.35.84.72 1.23 1.11.39.39.76.8 1.11 1.22.35.43.68.87.99 1.33.31.46.59.93.85 1.42.26.49.5.98.71 1.49a17.87 17.87 0 01.97 3.16c.11.54.19 1.09.25 1.64.06.55.08 1.1.08 1.65 0 .55-.02 1.1-.08 1.65-.05.55-.13 1.09-.24 1.64a17.206 17.206 0 01-1.65 4.67c-.26.49-.54.96-.85 1.42-.31.46-.63.9-.98 1.33-.35.43-.72.84-1.11 1.23-.39.39-.8.76-1.22 1.11-.43.35-.87.68-1.33.99-.46.31-.93.59-1.42.85-.49.26-.98.5-1.49.71a17.87 17.87 0 01-3.16.97c-.54.11-1.09.19-1.64.25-.55.06-1.1.08-1.65.08-.55 0-1.1-.02-1.65-.08-.55-.05-1.09-.13-1.64-.24-.54-.11-1.08-.24-1.61-.4a16.96 16.96 0 01-3.06-1.25c-.49-.26-.96-.54-1.42-.85-.46-.31-.9-.63-1.33-.98-.43-.35-.84-.72-1.23-1.11-.39-.39-.76-.8-1.11-1.22a16.382 16.382 0 01-1.84-2.75c-.26-.49-.5-.98-.71-1.49a17.87 17.87 0 01-.97-3.16c-.11-.54-.19-1.09-.25-1.64-.06-.55-.08-1.1-.08-1.65 0-.55.02-1.1.08-1.65.05-.55.13-1.09.24-1.64.11-.54.24-1.08.4-1.61a16.96 16.96 0 011.25-3.06c.26-.49.54-.96.85-1.42.31-.46.63-.9.98-1.33.35-.43.72-.84 1.11-1.23.39-.39.8-.76 1.22-1.11.43-.35.87-.68 1.33-.99s.93-.59 1.42-.85c.49-.26.98-.5 1.49-.71.51-.22 1.03-.4 1.56-.56zM301.82 303.76c.61-.19 1.23-.34 1.85-.47.62-.13 1.25-.22 1.89-.28.63-.06 1.27-.1 1.91-.1.64 0 1.27.03 1.91.09a19.988 19.988 0 013.74.74c.61.18 1.21.4 1.8.64.59.24 1.16.51 1.73.81.56.3 1.11.62 1.64.98.53.35 1.04.73 1.54 1.13s.97.83 1.42 1.28.88.92 1.28 1.41c.41.49.79 1 1.14 1.53.35.53.68 1.07.98 1.63.3.56.57 1.14.82 1.72a19.32 19.32 0 011.12 3.65c.13.62.22 1.25.28 1.89.06.63.1 1.27.1 1.91s-.03 1.27-.09 1.91a19.988 19.988 0 01-.74 3.74c-.18.61-.4 1.21-.64 1.8-.24.59-.51 1.16-.81 1.73-.3.56-.62 1.11-.98 1.64a19.071 19.071 0 01-3.82 4.24c-.49.41-1 .79-1.53 1.14-.53.35-1.07.68-1.63.98-.56.3-1.14.57-1.72.82s-1.19.46-1.8.65c-.61.19-1.23.34-1.85.47-.62.13-1.25.22-1.89.28-.63.06-1.27.1-1.91.1-.64 0-1.27-.03-1.91-.09a19.988 19.988 0 01-3.74-.74c-.61-.18-1.21-.4-1.8-.64-.59-.24-1.16-.51-1.73-.81s-1.11-.62-1.64-.98a19.071 19.071 0 01-4.24-3.82c-.41-.49-.79-1-1.14-1.53-.35-.53-.68-1.07-.98-1.63-.3-.56-.57-1.14-.82-1.72s-.46-1.19-.65-1.8c-.19-.61-.34-1.23-.47-1.85-.13-.62-.22-1.25-.28-1.89-.06-.63-.1-1.27-.1-1.91 0-.64.03-1.27.09-1.91.06-.63.15-1.26.28-1.89s.28-1.24.46-1.85c.18-.61.4-1.21.64-1.8.24-.59.51-1.16.81-1.73.3-.56.62-1.11.98-1.64a19.071 19.071 0 013.82-4.24c.49-.41 1-.79 1.53-1.14.53-.35 1.07-.68 1.63-.98.56-.3 1.14-.57 1.72-.82.59-.25 1.19-.47 1.8-.65zM402.23 273.06c.61-.19 1.23-.34 1.85-.47.62-.13 1.25-.22 1.89-.28.63-.06 1.27-.1 1.91-.1.64 0 1.27.03 1.91.09a19.988 19.988 0 013.74.74c.61.18 1.21.4 1.8.64.59.24 1.16.51 1.73.81.56.3 1.11.62 1.64.98.53.35 1.04.73 1.54 1.13s.97.83 1.42 1.28c.45.45.88.92 1.28 1.41.41.49.79 1 1.14 1.53.36.53.68 1.07.98 1.63.3.56.57 1.14.82 1.72a19.32 19.32 0 011.12 3.65c.13.62.22 1.25.28 1.89.06.63.1 1.27.1 1.91 0 .64-.03 1.27-.09 1.91a19.988 19.988 0 01-.74 3.74c-.18.61-.4 1.21-.64 1.8-.24.59-.51 1.16-.81 1.73-.3.56-.62 1.11-.98 1.64a19.071 19.071 0 01-3.82 4.24c-.49.41-1 .79-1.53 1.14-.53.35-1.07.68-1.63.98-.56.3-1.14.57-1.72.82s-1.19.46-1.8.65c-.61.19-1.23.34-1.85.47-.62.13-1.25.22-1.89.28-.63.06-1.27.1-1.91.1-.64 0-1.27-.03-1.91-.09a19.988 19.988 0 01-3.74-.74c-.61-.18-1.21-.4-1.8-.64s-1.16-.51-1.73-.81a18.2 18.2 0 01-1.64-.98 19.071 19.071 0 01-4.24-3.82c-.4-.49-.79-1-1.14-1.53-.35-.53-.68-1.07-.98-1.63-.3-.56-.57-1.14-.82-1.72-.24-.59-.46-1.19-.65-1.8-.19-.61-.34-1.23-.47-1.85-.13-.62-.22-1.25-.28-1.89-.06-.63-.1-1.27-.1-1.91 0-.64.03-1.27.09-1.91s.15-1.26.28-1.89a19.25 19.25 0 011.1-3.65c.24-.59.51-1.16.81-1.73.3-.56.62-1.11.98-1.64a19.071 19.071 0 013.82-4.24c.49-.41 1-.79 1.53-1.14.53-.35 1.07-.68 1.63-.98.56-.3 1.14-.57 1.72-.82.59-.25 1.19-.47 1.8-.65z"/><circle transform="rotate(-61.997 475.416 560.044)" class="st2" cx="475.37" cy="560.02" r="16.85"/><path class="st1" d="M361.87 247.44l24.79-7.58M291.2 269.05l24.8-7.58M286.59 240.64s-13.64 4.17-12.33 17.32M374.6 213.73s13.64-4.17 19.91 7.47M346.7 280.34s-5.76 10.83 4.23 13.82l19.35-5.92M229.61 311.28l-11.57-37.84c-.27-.87-.45-1.77-.54-2.68-.09-.91-.09-1.82-.01-2.73s.26-1.8.53-2.68a13.918 13.918 0 014.48-6.72c.71-.58 1.46-1.09 2.27-1.52.81-.43 1.64-.78 2.52-1.05l13.05-3.99c.87-.27 1.77-.45 2.68-.54.91-.09 1.82-.09 2.73-.01.91.09 1.8.26 2.68.53.88.26 1.72.61 2.52 1.04a13.777 13.777 0 014.2 3.44c.58.71 1.09 1.46 1.52 2.27.43.81.78 1.64 1.05 2.52l11.57 37.84c.27.87.45 1.77.54 2.68.09.91.09 1.82.01 2.73-.09.91-.26 1.8-.53 2.68-.26.88-.61 1.72-1.04 2.52a13.777 13.777 0 01-3.44 4.2c-.71.58-1.46 1.09-2.27 1.52-.81.43-1.64.78-2.52 1.05l-13.05 3.99c-.87.27-1.77.45-2.68.54-.91.09-1.82.09-2.73.01-.91-.09-1.8-.26-2.68-.53-.88-.26-1.72-.61-2.52-1.04s-1.56-.93-2.27-1.51-1.35-1.22-1.93-1.93c-.58-.71-1.09-1.46-1.52-2.27-.43-.81-.78-1.65-1.05-2.52zM424.19 251.79l-11.57-37.84c-.27-.87-.45-1.77-.54-2.68-.09-.91-.09-1.82-.01-2.73.09-.91.26-1.8.53-2.68.26-.88.61-1.72 1.04-2.52a13.777 13.777 0 013.44-4.2c.71-.58 1.46-1.09 2.27-1.52.81-.43 1.64-.78 2.52-1.05l13.05-3.99c.87-.27 1.77-.45 2.68-.54.91-.09 1.82-.09 2.73-.01a13.918 13.918 0 019.4 5.01c.58.71 1.09 1.46 1.52 2.27.43.81.78 1.64 1.05 2.52l11.57 37.84c.27.87.45 1.77.54 2.68.09.91.09 1.82.01 2.73-.09.91-.26 1.8-.53 2.68-.26.88-.61 1.72-1.04 2.52s-.93 1.56-1.51 2.27-1.22 1.35-1.93 1.93c-.71.58-1.46 1.09-2.27 1.52-.81.43-1.64.78-2.52 1.05l-13.05 3.99c-.87.27-1.77.45-2.68.54s-1.82.09-2.73.01c-.91-.09-1.8-.26-2.68-.53-.88-.26-1.72-.61-2.52-1.04a13.777 13.777 0 01-4.2-3.44c-.58-.71-1.09-1.46-1.52-2.27-.43-.81-.78-1.65-1.05-2.52zM245.13 291.27l17.36-5.31M419.92 237.83l17.36-5.31M646.16 240.76l49.59-15.16 128.1 419.01M658.98 695.01l-128.11-419 39.67-12.13M564.63 319.91l122.72-37.52M580.68 350.25l112.81-34.49M590.53 382.48l112.81-34.49M600.39 414.71l112.81-34.49M610.24 446.94l112.81-34.49M620.1 479.17l112.8-34.49M629.95 511.4l112.81-34.49M639.8 543.63l112.81-34.49M649.66 575.86l112.81-34.48M659.51 608.1l112.81-34.49M669.37 640.33l112.81-34.49M679.22 672.56l112.81-34.49"/><path class="st1" d="M574.64 277.29l-16.92-55.33c-.2-.67-.34-1.35-.41-2.04-.07-.69-.07-1.39 0-2.08.07-.69.2-1.37.4-2.04a10.61 10.61 0 011.94-3.65c.44-.54.93-1.03 1.47-1.47a10.666 10.666 0 013.65-1.96l55.33-16.92c.67-.2 1.35-.34 2.04-.41.69-.07 1.39-.07 2.08 0 .69.07 1.37.2 2.04.4a10.61 10.61 0 013.65 1.94c.54.44 1.03.93 1.47 1.47a10.666 10.666 0 011.96 3.65l16.92 55.33c.2.67.34 1.35.41 2.04.07.69.07 1.39 0 2.08-.07.69-.2 1.37-.4 2.04a10.61 10.61 0 01-1.94 3.65c-.44.54-.93 1.03-1.47 1.47a10.666 10.666 0 01-3.65 1.96l-55.33 16.92c-.67.2-1.35.34-2.04.41-.69.07-1.39.07-2.08 0-.69-.07-1.37-.2-2.04-.4a10.61 10.61 0 01-3.65-1.94c-.54-.44-1.03-.93-1.47-1.47a10.666 10.666 0 01-1.96-3.65zM590.17 259.57l6.73 22.01M608.2 254.05l6.73 22.01M626.8 248.37l6.73 22.01M554.84 252.41l3.79 12.4"/><path class="st1" d="M569.5 207.27s-15.63 2.07-18.04 16.36c-2.41 14.29-56.8 155.63-56.8 155.63s-13.39 27.14-39.43 35.1M367.22 441.26l-86.58 26.47c-13.12 4.01-20.5 17.89-16.49 31.01l86.67 283.49 46.3 151.43 10.23 33.47M455.04 414.41l-33.55 10.26M556.24 745.4c13.12-4.01 20.5-17.89 16.49-31.01l-82.18-268.81"/><path clip-path="url(#SVGID_4_)" fill="#fff" d="M328.01 516.96l83.38 272.73 45.1 147.51"/><path class="st1" d="M328.01 516.96l83.38 272.73 45.1 147.51M383.77 566.33c.53-.16 1.06-.3 1.6-.41.54-.11 1.09-.19 1.64-.25.55-.06 1.1-.08 1.65-.08.55 0 1.1.02 1.65.08.55.05 1.09.13 1.64.24.54.11 1.08.24 1.61.4a16.96 16.96 0 013.06 1.25c.49.26.96.54 1.42.85.46.31.9.63 1.33.98.43.35.84.72 1.23 1.11.39.39.76.8 1.11 1.22.35.43.68.87.99 1.33.31.46.59.93.85 1.42.26.49.5.98.71 1.49a17.87 17.87 0 01.97 3.16c.11.54.19 1.09.25 1.64.06.55.08 1.1.08 1.65 0 .55-.02 1.1-.08 1.65s-.13 1.09-.24 1.64c-.11.54-.24 1.08-.4 1.61a16.96 16.96 0 01-1.25 3.06c-.26.49-.54.96-.85 1.42-.31.46-.63.9-.98 1.33-.35.43-.72.84-1.11 1.23s-.8.76-1.22 1.11a16.382 16.382 0 01-2.75 1.84c-.49.26-.98.5-1.49.71a17.87 17.87 0 01-3.16.97c-.54.11-1.09.19-1.64.25-.55.06-1.1.08-1.65.08-.55 0-1.1-.02-1.65-.08-.55-.05-1.09-.13-1.64-.24-.54-.11-1.08-.24-1.61-.4a16.96 16.96 0 01-3.06-1.25c-.49-.26-.96-.54-1.42-.85-.46-.31-.9-.63-1.33-.98-.43-.35-.84-.72-1.23-1.11-.39-.39-.76-.8-1.11-1.22-.35-.43-.68-.87-.99-1.33-.31-.46-.59-.93-.85-1.42-.26-.49-.5-.98-.71-1.49a17.87 17.87 0 01-.97-3.16c-.11-.54-.19-1.09-.25-1.64-.06-.55-.08-1.1-.08-1.65 0-.55.02-1.1.08-1.65s.13-1.09.24-1.64c.11-.54.24-1.08.4-1.61a16.96 16.96 0 011.25-3.06c.26-.49.54-.96.85-1.42.31-.46.63-.9.98-1.33.35-.43.72-.84 1.11-1.23.39-.39.8-.76 1.22-1.11.43-.35.87-.68 1.33-.99.46-.31.93-.59 1.42-.85.49-.26.98-.5 1.49-.71.51-.21 1.03-.4 1.56-.56z"/><path class="st4" d="M387.56 578.73c.24-.07.49-.12.75-.15.25-.03.51-.03.76 0s.5.07.75.15c.24.07.48.17.7.29.23.12.44.26.63.42.2.16.38.34.54.54.16.2.3.41.42.63.12.22.22.46.29.7.07.24.12.49.15.75.03.25.03.51 0 .76-.02.25-.07.5-.15.75-.07.24-.17.48-.29.7-.12.23-.26.44-.42.63-.16.2-.34.38-.54.54-.2.16-.41.3-.63.42-.22.12-.46.22-.7.29-.24.07-.49.12-.75.15-.25.03-.51.03-.76 0-.25-.02-.5-.07-.75-.15-.24-.07-.48-.17-.7-.29-.23-.12-.44-.26-.63-.42-.2-.16-.38-.34-.54-.54-.16-.2-.3-.41-.42-.63s-.22-.46-.29-.7c-.07-.24-.12-.49-.15-.75a3.22 3.22 0 010-.76c.02-.25.07-.5.15-.75.07-.24.17-.48.29-.71.12-.23.26-.44.42-.63s.34-.38.54-.54c.2-.16.41-.3.63-.42.22-.11.46-.21.7-.28z"/><path class="st5" d="M387.56 578.73c.24-.07.49-.12.75-.15.25-.03.51-.03.76 0 .25.02.5.07.75.15.24.07.48.17.7.29.23.12.44.26.63.42.2.16.38.34.54.54.16.2.3.41.42.63.12.22.22.46.29.7.07.24.12.49.15.75.03.25.03.51 0 .76-.02.25-.07.5-.15.75-.07.24-.17.48-.29.7-.12.23-.26.44-.42.63-.16.2-.34.38-.54.54-.2.16-.41.3-.63.42-.22.12-.46.22-.7.29-.24.07-.49.12-.75.15-.25.03-.51.03-.76 0a3.986 3.986 0 01-1.46-.44c-.23-.12-.44-.26-.63-.42s-.38-.34-.54-.54c-.16-.2-.3-.41-.42-.63-.12-.22-.22-.46-.29-.7s-.12-.49-.15-.75a3.22 3.22 0 010-.76c.02-.25.07-.5.15-.75.07-.24.17-.48.29-.7.12-.23.26-.44.42-.63.16-.2.34-.38.54-.54.2-.16.41-.3.63-.42s.47-.22.71-.29z"/><path class="st1" d="M473.03 539.05c.53-.16 1.06-.3 1.6-.41.54-.11 1.09-.19 1.64-.25.55-.06 1.1-.08 1.65-.08.55 0 1.1.02 1.65.08.55.05 1.09.13 1.64.24.54.11 1.08.24 1.61.4a16.96 16.96 0 013.06 1.25c.49.26.96.54 1.42.85.46.31.9.63 1.33.98.43.35.84.72 1.23 1.11.39.39.76.8 1.11 1.22.35.43.68.87.99 1.33.31.46.59.93.85 1.42.26.49.5.98.71 1.49s.4 1.03.56 1.56c.16.53.3 1.06.41 1.6.11.54.19 1.09.25 1.64.06.55.08 1.1.08 1.65 0 .55-.02 1.1-.08 1.65-.05.55-.13 1.09-.24 1.64a17.206 17.206 0 01-1.65 4.67c-.26.49-.54.96-.85 1.42-.31.46-.63.9-.98 1.33-.35.43-.72.84-1.11 1.23s-.8.76-1.22 1.11c-.43.35-.87.68-1.33.99-.46.31-.93.59-1.42.85-.49.26-.98.5-1.49.71a17.87 17.87 0 01-3.16.97c-.54.11-1.09.19-1.64.25-.55.06-1.1.08-1.65.08-.55 0-1.1-.02-1.65-.08-.55-.05-1.09-.13-1.64-.24-.54-.11-1.08-.24-1.61-.4a16.96 16.96 0 01-3.06-1.25c-.49-.26-.96-.54-1.42-.85-.46-.31-.9-.63-1.33-.98-.43-.35-.84-.72-1.23-1.11-.39-.39-.76-.8-1.11-1.22-.35-.43-.68-.87-.99-1.33-.31-.46-.59-.93-.85-1.42-.26-.49-.5-.98-.71-1.49a17.87 17.87 0 01-.97-3.16c-.11-.54-.19-1.09-.25-1.64-.06-.55-.08-1.1-.08-1.65 0-.55.02-1.1.08-1.65s.13-1.09.24-1.64c.11-.54.24-1.08.4-1.61s.34-1.05.55-1.56.44-1.01.7-1.5c.26-.49.54-.96.85-1.42s.63-.9.98-1.33c.35-.43.72-.84 1.11-1.23.39-.39.8-.76 1.22-1.11.43-.35.87-.68 1.33-.99.46-.31.93-.59 1.42-.85.49-.26.98-.5 1.49-.71.51-.22 1.03-.4 1.56-.56z"/><path class="st4" d="M476.82 551.44c.24-.07.49-.12.75-.15.25-.03.51-.03.76 0 .25.02.5.07.75.15.24.07.48.17.7.29.23.12.44.26.63.42s.38.34.54.54c.16.2.3.41.42.63.12.22.22.46.29.7.07.24.12.49.15.75s.03.51 0 .76c-.02.25-.07.5-.15.75-.07.24-.17.48-.29.7-.12.23-.26.44-.42.63-.16.2-.34.38-.54.54s-.41.3-.63.42c-.22.12-.46.22-.7.29-.24.07-.49.12-.75.15-.25.03-.51.03-.76 0-.25-.02-.5-.07-.75-.15-.24-.07-.48-.17-.7-.29-.23-.12-.44-.26-.63-.42-.2-.16-.38-.34-.54-.54-.16-.2-.3-.41-.42-.63-.12-.22-.22-.46-.29-.7-.07-.24-.12-.49-.15-.75a3.22 3.22 0 010-.76c.02-.25.07-.5.15-.75.07-.24.17-.48.29-.71.12-.23.26-.44.42-.63.16-.2.34-.38.54-.54.2-.16.41-.3.63-.42.22-.11.45-.2.7-.28z"/><path class="st5" d="M476.82 551.44c.24-.07.49-.12.75-.15.25-.03.51-.03.76 0 .25.02.5.07.75.15.24.07.48.17.7.29.23.12.44.26.63.42.2.16.38.34.54.54.16.2.3.41.42.63.12.22.22.46.29.7.07.24.12.49.15.75.03.25.03.51 0 .76-.02.25-.07.5-.15.75-.07.24-.17.48-.29.7-.12.23-.26.44-.42.63s-.34.38-.54.54c-.2.16-.41.3-.63.42-.22.12-.46.22-.7.29-.24.07-.49.12-.75.15-.25.03-.51.03-.76 0-.25-.02-.5-.07-.75-.15-.24-.07-.48-.17-.7-.29-.23-.12-.44-.26-.63-.42s-.38-.34-.54-.54c-.16-.2-.3-.41-.42-.63-.12-.22-.22-.46-.29-.7-.07-.24-.12-.49-.15-.75a3.22 3.22 0 010-.76c.02-.25.07-.5.15-.75.07-.24.17-.48.29-.7.12-.23.26-.44.42-.63.16-.2.34-.38.54-.54.2-.16.41-.3.63-.42.22-.12.45-.21.7-.29z"/><path class="st1" d="M391.59 529.54l-5.38-17.63M405.63 522.24l-3.71-12.12M448.62 512.1l-5.39-17.62M432.9 513.9l-3.7-12.12M421.28 524.67l-7.74-25.33M102.82 241.5l12.5 40.91M88.62 268.21l40.91-12.51M192.79 398.35l12.51 40.91M178.59 425.06l40.91-12.51M480.11 43.46l12.51 40.91M465.91 70.17l40.91-12.5M556.16 363.16s-4.78 10.95-17.9 43.43c-13.11 32.48-46.48 38.61-46.48 38.61M211.7 679.82c6.54-2 13.46 1.68 15.46 8.22 2 6.54-1.68 13.46-8.22 15.46M55.31 727.62c-6.54 2-13.46-1.68-15.46-8.22-2-6.54 1.68-13.46 8.22-15.46l223.99-68.48M763.08 218.42l90.33-27.73c6.54-2 13.46 1.68 15.46 8.22 2 6.54-1.68 13.46-8.22 15.46l-117.41 35.89M755.68 194.86l156.38-47.81"/><path class="st1" d="M763.09 218.42c-6.54 2-13.46-1.68-15.46-8.22s1.68-13.46 8.22-15.46M681 191.71l223.99-68.48c6.54-2 13.46 1.68 15.46 8.22 2 6.54-1.68 13.46-8.22 15.46M372 333.81s30.79-1.28 28.75-34.54"/><path transform="rotate(-17.001 578.569 714.927)" class="st6" d="M133.35 679.99h890.56v70H133.35z"/><path class="st6" d="M453.4 719.97l-3.78-12.37 3.51-16.5 11.93-12.88 12.55-4.89 10.03.69 7.23 2.22 5.85 3.35 4.02 4.36 7.59-9.55s7.11-4.43 9.59-5.19c2.48-.76 10.8-.67 10.8-.67l6.97 2.71 7.79 3.69 3.85 4 2.4 2.78s14.87-12.06 15.74-12.91c.86-.86 14.36-3.71 14.36-3.71l6.37.51 4.47 1.14 6.06 2.73 6.77 4.73 6.45-7.39 10.25-4.49 9.91-3.05 5.83-3.11 1.93-11.43 2.7-5.55 3.52-3.4 7.25-4.65 4.96-1.52 6.58-.66 6.1 2.2 2.86.48 2.86.48 1.07-9.81 9.26-8.89 20.32-9.64 7.07 1.54 6.82 1.97 6.09 3.31 10.6 12.27 2.45 4.7 17.81 58.26-309.71 86.55 2.92-52.41z"/><path class="st1" d="M976.88 640.94L147.54 894.49M662.88 685.33l245.02-74.91M660.28 686.13c-5.93-11.88-19.71-18.11-32.84-14.1a27.678 27.678 0 00-16.48 13.68c-8.18-8.36-20.61-11.99-32.58-8.34-17.06 5.22-26.67 23.29-21.45 40.35M873.35 599.39l-128.21 39.2c-5.22-17.06-23.29-26.67-40.35-21.46-11.96 3.66-20.24 13.62-22.34 25.13a27.657 27.657 0 00-21.31-2.13c-13.13 4.01-21.07 16.88-19.34 30.05"/><path class="st1" d="M557.66 694.53c-5.93-11.88-19.71-18.11-32.84-14.1a27.678 27.678 0 00-16.48 13.68c-8.18-8.36-20.61-11.99-32.58-8.34-17.06 5.22-26.67 23.29-21.46 40.35L215.95 799"/></g></svg>